<svg width="100" height="36" viewBox="0 0 100 36" fill="none" xmlns="http://www.w3.org/2000/svg">
<path d="M0 17.1594C0.144234 17.1184 0.101812 17.0047 0.116963 16.9029C0.452094 14.6581 1.64111 12.9253 3.64644 11.7973C3.74098 11.7824 4.05612 12.161 4.16096 12.2449C5.68632 13.4688 7.56135 14.0795 9.54002 13.9611C7.97345 17.0219 8.92188 20.7548 11.6332 22.843C7.58984 26.1628 1.36598 24.1901 0.203624 19.1018C0.138779 18.8179 0.16302 18.4631 0.000606023 18.2446V17.1594H0Z" fill="white"/>
<path d="M53.2252 35.7252C52.2264 35.4008 51.9713 34.3549 52.1943 33.4275C52.464 32.3066 53.6106 31.8608 54.4469 32.7548V30.8125L54.796 30.8982V35.6109H54.5051L54.4184 35.1544C54.2427 35.4877 53.9439 35.5621 53.633 35.7252H53.2258H53.2252ZM53.2682 32.5977C52.2246 32.787 52.2125 35.1681 53.2094 35.3698C54.3621 35.6032 54.5402 34.3775 54.4409 33.5329C54.3651 32.8924 53.9524 32.4739 53.2682 32.5977Z" fill="white"/>
<path d="M71.3162 35.7246H70.8508C70.7042 35.5895 70.503 35.5794 70.3314 35.4639C69.357 34.8067 69.5412 32.5268 70.8357 32.3108C72.1301 32.0947 72.6034 33.2864 72.4731 34.3757C72.3913 35.0639 71.9362 35.4746 71.3162 35.724V35.7246ZM70.8351 32.5965C69.7436 32.8173 69.7363 35.6192 71.2835 35.3782C72.4834 35.1918 72.5192 32.2554 70.8351 32.5965Z" fill="white"/>
<path d="M95.3401 35.7245H94.8747C94.7099 35.5846 94.5068 35.5739 94.3226 35.4382C93.4106 34.7691 93.5736 32.5708 94.8135 32.322C96.1716 32.0493 96.6291 33.2655 96.4976 34.3756C96.4158 35.0626 95.9601 35.4751 95.3407 35.7239L95.3401 35.7245ZM94.8589 32.5964C93.762 32.8184 93.762 35.6185 95.3074 35.3781C96.5073 35.1917 96.5431 32.2553 94.8589 32.5964Z" fill="white"/>
<path d="M56.8316 35.7249C55.6917 35.4183 55.4141 34.2736 55.7426 33.2557C55.8674 32.8682 56.2129 32.3956 56.6413 32.3104C57.7588 32.0878 58.2255 32.9926 58.1115 33.954H55.9595C55.9856 34.9314 56.3716 35.4999 57.4382 35.3773C57.6037 35.3582 57.754 35.2326 57.9328 35.2725L57.9952 35.4939L57.2976 35.7249H56.8322H56.8316ZM57.7625 33.6688C57.84 32.1473 56.0783 32.2604 55.9589 33.6688H57.7625Z" fill="white"/>
<path d="M46.7105 35.7251C46.1396 35.5334 45.7366 35.237 45.5736 34.6423C45.2754 33.5524 45.7608 32.091 47.1432 32.3017C47.8177 32.4047 48.0862 33.3839 47.9904 33.9548H45.8384C45.8517 34.9268 46.2572 35.4995 47.3171 35.378C47.4838 35.359 47.6353 35.2364 47.8159 35.2685C47.8886 35.6846 47.4098 35.5644 47.1765 35.7251H46.7111H46.7105ZM47.6413 33.669C47.7207 32.1469 45.9536 32.2624 45.8378 33.669H47.6413Z" fill="white"/>
<path d="M80.2746 35.7241C79.5504 35.4943 79.1183 35.0288 79.054 34.2663C78.9704 33.2776 79.4134 32.1733 80.5952 32.2966C81.406 32.3811 81.6084 33.2805 81.5545 33.9532H79.4025C79.2977 35.1288 80.2552 35.739 81.3212 35.2098L81.3557 35.4973L80.74 35.7235H80.2746V35.7241ZM81.2048 33.6681C81.2479 32.1406 79.5043 32.2495 79.4013 33.6681H81.2048Z" fill="white"/>
<path d="M37.8104 35.7248C37.2983 35.5403 36.8596 35.2813 36.6881 34.742C36.3535 33.6944 36.7656 32.155 38.131 32.2973C38.9419 32.3818 39.1443 33.2813 39.0904 33.9539H36.9384C36.919 34.9641 37.3505 35.4837 38.4171 35.3772C38.5401 35.3647 38.8588 35.1688 38.9158 35.354C38.997 35.6195 38.3958 35.6022 38.2765 35.7248H37.811H37.8104ZM38.7413 33.6688C38.7843 32.1413 37.0408 32.2503 36.9378 33.6688H38.7413Z" fill="white"/>
<path d="M62.4162 35.7253C60.8339 34.8896 62.0993 33.3794 63.5216 33.6121C63.6343 32.5401 62.8659 32.3769 62.0096 32.7549C61.7944 32.2734 62.8174 32.2549 63.1301 32.3115C64.344 32.5299 63.6628 34.8015 63.9288 35.611H63.5798L63.5513 35.2122C63.3477 35.4795 63.1059 35.5717 62.8241 35.7259H62.4168L62.4162 35.7253ZM63.5216 33.8978C62.9144 33.8514 62.0665 33.9842 62.0629 34.7265C62.0605 35.2664 62.3883 35.4634 62.9077 35.3801C63.0998 35.3491 63.5216 34.9461 63.5216 34.7836V33.8984V33.8978Z" fill="white"/>
<path d="M87.9528 35.7245C87.3625 35.4596 87.0892 34.9292 87.3601 34.3143C87.5619 33.8566 88.1079 33.6911 88.5703 33.6179C88.7157 33.5946 88.8945 33.6393 89.02 33.6024C89.1618 33.5607 89.0533 33.1137 89.0133 32.9976C88.7951 32.3583 88.0243 32.5815 87.5455 32.7541L87.5061 32.5505C88.1261 32.0839 89.2012 32.1779 89.3812 33.0363C89.5405 33.7994 89.2848 34.8161 89.4654 35.6102L89.1824 35.6019L89.0588 35.2102C88.9945 35.5275 88.6176 35.5334 88.4182 35.7239H87.9528V35.7245ZM89.1163 33.8964C88.6036 33.8661 87.8903 33.897 87.674 34.4512C87.5413 34.7911 87.6225 35.312 88.0431 35.3781C89.0303 35.534 89.1721 34.6471 89.1163 33.8964Z" fill="white"/>
<path d="M99.8194 27.7855C99.4928 28.601 98.3274 28.6897 97.6741 28.2153L97.8177 27.9528C98.5007 28.3373 99.6885 28.2278 99.4449 27.2105C99.2534 26.4122 97.7092 26.5444 97.7807 25.3562C97.8365 24.4282 99.0437 24.1544 99.7364 24.6425L99.6097 24.9342C99.1976 24.7473 98.4534 24.5836 98.234 25.1157C97.7965 26.1783 99.5843 26.1408 99.8188 26.986V27.7855H99.8194Z" fill="white"/>
<path d="M67.9426 35.7242C67.1233 35.5236 66.5282 35.1164 66.2973 34.2836C65.9136 32.8979 66.3942 31.0966 68.085 30.9805C68.3408 30.9633 69.4552 30.9347 69.1335 31.3823C69.0656 31.4764 68.6832 31.2305 68.5523 31.2692C66.9251 31.1115 66.4076 32.4371 66.5469 33.8098C66.6863 35.1825 67.9281 35.717 69.1631 35.2099C69.1734 35.3176 69.2831 35.4379 69.1644 35.5242L68.4656 35.7242H67.942H67.9426Z" fill="white"/>
<path d="M30.9466 35.7242H30.4812L29.7812 35.4682L29.7837 35.1533C30.6157 35.5998 31.9054 35.4492 31.7557 34.2729C31.6357 33.3312 30.0297 33.3651 29.8546 32.427C29.6176 31.1561 30.8757 30.671 31.9114 31.1525L31.8217 31.4168C31.7575 31.468 31.4508 31.293 31.3193 31.2746C30.577 31.1704 29.9425 31.5972 30.2036 32.3705C30.4648 33.1437 31.9502 33.1211 32.0944 34.2265C32.2017 35.0486 31.6902 35.5093 30.946 35.7254L30.9466 35.7242Z" fill="white"/>
<path d="M91.1519 35.7249C91.0162 35.6035 90.8162 35.5475 90.7205 35.3779C90.6865 35.3184 90.5702 34.9422 90.5702 34.8969V32.6409H90.1047V32.3551H90.5708L90.578 31.592L90.9192 31.4414V32.3551H91.7919V32.6409H90.9192V34.9541C90.9192 35.0064 91.0823 35.3213 91.1519 35.3541L91.7337 35.3827L91.501 35.7249H91.1519Z" fill="white"/>
<path d="M77.1328 35.7241L76.634 35.4961L76.668 35.2098C77.2716 35.5015 78.2085 35.5152 78.06 34.6134C77.9558 33.9818 76.5389 34.0365 76.6722 33.0163C76.7128 32.7061 76.9922 32.3924 77.3031 32.3216C77.5503 32.265 78.5891 32.274 78.2079 32.6966C78.1224 32.7913 77.8637 32.5258 77.7437 32.5829C77.2504 32.5043 76.9116 32.7847 77.0292 33.2847C77.154 33.8169 78.5418 33.777 78.4133 34.8973C78.36 35.3634 77.9346 35.5765 77.5394 35.7241H77.1322H77.1328Z" fill="white"/>
<path d="M49.037 35.7248L48.4558 35.495C48.551 34.9956 48.7431 35.3355 49.0115 35.3784C49.5485 35.4641 50.1181 35.1855 49.9297 34.592C49.7412 33.9985 48.1892 33.9087 48.5873 32.855C48.7788 32.3479 49.3067 32.2312 49.8085 32.311C50.1412 32.3639 50.2569 32.4461 50.083 32.7544C49.6903 32.4693 48.9043 32.4782 48.8643 33.0759C48.8164 33.7932 50.1806 33.7134 50.2612 34.6081C50.323 35.2974 50.0315 35.4754 49.4442 35.7254H49.037V35.7248Z" fill="white"/>
<path d="M33.8548 35.7248C31.6804 35.073 32.5464 31.5341 34.8959 32.4169C34.9402 32.8925 34.6384 32.611 34.4026 32.5877C33.5663 32.5056 33.0573 32.9306 32.9797 33.7515C32.8864 34.7372 33.3094 35.4837 34.4026 35.3772C34.525 35.3653 34.8462 35.1682 34.9014 35.3539C34.9826 35.6272 34.442 35.5873 34.3202 35.7248H33.8548Z" fill="white"/>
<path d="M44.0924 35.7245C41.8998 35.0732 42.7719 31.5302 45.1378 32.4142L45.0778 32.6946C44.3239 32.4654 43.6076 32.5148 43.3082 33.3261C42.8355 34.6077 43.6415 35.7983 45.0784 35.2691L45.1317 35.4602L44.5578 35.7245H44.0924Z" fill="white"/>
<path d="M90.9078 0.154612C97.191 -0.298385 100.509 4.68934 99.5703 10.4319C98.8176 15.0356 95.2869 17.5238 90.6005 17.2167C81.0557 16.5917 81.0587 0.864762 90.9078 0.154612ZM91.2562 3.12439C86.2735 3.59346 86.2699 13.7505 91.1878 14.2398C97.228 14.8404 97.1104 2.57377 91.2562 3.12439Z" fill="white"/>
<path d="M15.0365 11.0488C16.2498 12.1727 17.9624 12.7584 19.6344 12.6495C20.1768 12.6144 20.7058 12.4078 21.2294 12.3888C25.0904 16.077 23.1796 22.4749 17.986 23.7119C12.7294 24.9637 7.91572 20.2219 9.59622 15.0734C9.68107 14.8133 9.99802 13.9519 10.2344 13.8722C10.4392 13.8031 10.7628 13.787 11.0058 13.7162C12.6179 13.246 14.0263 12.3828 15.0359 11.0488H15.0365Z" fill="white"/>
<path d="M8.07347 0.0402008C10.6775 -0.205644 13.0877 0.673562 14.6512 2.74746C12.7477 4.93744 12.5441 7.75602 14.204 10.152C14.3058 10.299 14.6688 10.646 14.6367 10.7639C11.4496 14.9778 4.5555 14.1676 2.53138 9.27633C0.871482 5.26603 3.63677 0.459267 8.07347 0.0402008Z" fill="white"/>
<path d="M81.9562 0.828381L81.2041 3.85054C80.5011 3.59279 79.766 3.37314 79.0158 3.28682C74.4476 2.75942 71.7853 6.03576 72.8095 10.3526C73.727 14.2195 77.9019 14.701 81.2041 13.5617L81.7847 16.5285C81.412 16.6517 81.0435 16.7898 80.6599 16.8821C73.2955 18.6542 67.0026 14.1689 68.9018 6.42089C70.2987 0.721233 76.8214 -1.03063 81.9562 0.828381Z" fill="white"/>
<path d="M18.5444 1.35397C23.4774 0.903353 26.7499 6.22681 23.615 10.1038C20.9685 13.3771 15.4803 12.6015 13.9592 8.6787C12.6823 5.3857 14.9731 1.68017 18.5444 1.35397Z" fill="white"/>
<path d="M53.5744 0.422852V1.39432H46.4197V7.73449H53.1671V8.76311H46.4197V15.9605H53.9816V16.9885H45.2561V0.422852H53.5744Z" fill="white"/>
<path d="M42.3429 0.82883L41.998 1.85149C38.9394 0.583581 34.7754 0.94074 32.6677 3.68431C30.7715 6.15228 30.6327 10.5453 32.2374 13.1794C34.2228 16.4373 38.7207 16.8343 42.0217 15.4509L42.401 16.4117C41.5956 16.7516 40.7381 16.9778 39.8673 17.095C36.6638 17.5254 33.4046 16.8825 31.4472 14.1836C29.5061 11.5073 29.4188 7.11423 30.9745 4.24922C33.1586 0.225232 38.2292 -0.744455 42.3429 0.82883Z" fill="white"/>
<path d="M64.6265 0.88099L64.132 1.90723C63.5253 1.49411 62.7127 1.25482 61.9788 1.16612C59.5504 0.873847 57.0827 2.10485 57.6027 4.83533C58.2796 8.39026 64.6162 7.45152 65.2592 11.8827C65.9634 16.7359 60.6128 18.1562 56.8324 16.6162C56.6724 16.5513 55.8949 16.196 55.9076 16.0567L56.3949 15.1042C59.0905 17.0585 64.4926 16.5918 64.095 12.3398C63.6987 8.09977 56.7106 9.41054 56.364 4.73712C56.0373 0.338109 61.363 -0.841111 64.6265 0.879799V0.88099Z" fill="white"/>
<path d="M74.8643 27.8425C74.5941 28.0503 74.4177 28.3158 74.0535 28.3884C71.4458 28.9075 71.4894 24.0739 74.0062 24.4299C74.4565 24.4936 74.6474 24.7287 74.9225 25.043L74.9486 24.5257L75.2752 24.4983V28.3301C75.2995 29.9272 73.7335 30.5659 72.4184 29.8087L72.5396 29.4986C73.1766 29.8295 74.1202 29.9843 74.6001 29.3236C74.6874 29.2033 74.8656 28.7997 74.8656 28.6706V27.8425H74.8643ZM73.5111 24.7716C72.2197 24.9877 72.1894 27.7675 73.4063 28.0461C74.1656 28.2199 74.7831 27.7616 74.865 27.0145C74.9698 26.0562 74.894 24.5406 73.5111 24.7716Z" fill="white"/>
<path d="M53.9815 28.4132H53.6324V27.8424L53.164 28.2668C51.6059 29.1037 50.6665 27.6501 50.7902 26.2215C50.9235 24.6767 52.3567 23.7219 53.5748 24.9857V22.6439C53.716 22.6481 53.8876 22.6005 53.9821 22.7296V28.4132H53.9815ZM52.1622 24.7708C50.8344 25.0404 50.8271 28.2549 52.4373 28.187C53.5233 28.1412 53.6451 26.8667 53.5736 26.0441C53.5076 25.2821 53.0325 24.594 52.1622 24.7708Z" fill="white"/>
<path d="M93.3047 22.6436V28.4129H92.9556V27.7843C92.5193 28.3599 91.9521 28.6795 91.2115 28.4408C89.6201 27.9271 89.7922 24.6175 91.5369 24.421C92.1302 24.3538 92.5217 24.5585 92.8975 24.9859V22.6442H93.3047V22.6436ZM91.5442 24.771C90.1467 25.005 90.1661 28.223 91.7606 28.1861C92.9138 28.1593 92.975 26.7521 92.8962 25.9288C92.8278 25.208 92.3363 24.6383 91.5442 24.771Z" fill="white"/>
<path d="M59.0425 22.9297L58.9552 23.2726H56.8899V25.3286H58.8389L58.9262 25.6715H56.8899V28.071H59.1589V28.4133H56.4827V22.9297H59.0425Z" fill="white"/>
<path d="M69.6139 24.4285C72.127 24.0404 72.2149 28.4542 69.8878 28.5292C67.7806 28.5971 67.637 24.7338 69.6139 24.4285ZM69.6133 24.7707C68.3097 25.0338 68.2715 27.9435 69.7308 28.1721C71.5604 28.4584 71.6907 24.3517 69.6133 24.7707Z" fill="white"/>
<path d="M64.1463 24.4285C66.4868 24.0671 66.7183 27.8667 64.9057 28.4304C62.3931 29.212 62.0016 24.7594 64.1463 24.4285ZM64.1451 24.7708C62.7452 25.0535 62.8609 28.2739 64.479 28.1876C66.1407 28.0989 66.1171 24.3725 64.1451 24.7708Z" fill="white"/>
<path d="M85.7419 26.414H83.1245C83.0433 27.8355 84.1359 28.5587 85.4504 27.9563L85.5019 28.292C84.1244 28.8546 82.8578 28.3224 82.7245 26.7783C82.4754 23.896 85.8704 23.4406 85.7419 26.4146V26.414ZM85.3346 26.0711C85.3068 24.2317 83.3172 24.38 83.1245 26.0711H85.3346Z" fill="white"/>
<path d="M94.5257 26.4139C94.4499 27.8432 95.5268 28.5587 96.8516 27.9563L96.9031 28.292C94.9032 29.1212 93.6839 27.5289 94.2378 25.6461C94.7529 23.8942 97.0007 23.9805 97.1419 25.9294C97.1534 26.0866 97.1873 26.3086 97.0558 26.4145H94.5257V26.4139ZM96.7365 26.0711C96.7152 24.2311 94.7045 24.3823 94.5263 26.0711H96.7365Z" fill="white"/>
<path d="M78.0055 26.4138C77.8794 27.8758 79.0151 28.5407 80.332 27.9561L80.389 28.296C78.5679 28.9693 77.4146 27.9591 77.5988 26.1001C77.8328 23.7435 80.8247 23.8839 80.6138 26.3192L80.5362 26.4138H78.0061H78.0055ZM78.0055 26.0709H80.1575C80.2544 24.2512 78.1158 24.3685 78.0055 26.0709Z" fill="white"/>
<path d="M46.0704 26.4137C45.9449 27.8667 47.0842 28.5441 48.3969 27.956L48.4539 28.2959C46.6691 28.9561 45.4983 27.9995 45.6643 26.1577C45.8825 23.7398 48.8672 23.8499 48.6787 26.319L48.6011 26.4137H46.071H46.0704ZM46.0704 26.0708H48.2805C48.2254 24.2582 46.2255 24.3535 46.0704 26.0708Z" fill="white"/>
<path d="M34.2622 26.4136C34.1362 27.8756 35.2719 28.5405 36.5888 27.9559L36.6457 28.2958C34.8064 28.9494 33.6786 27.978 33.8562 26.1005C33.9441 25.1701 34.6022 24.329 35.6288 24.4153C36.4972 24.4885 36.8409 25.3469 36.8809 26.1017C36.8869 26.2178 36.9033 26.341 36.793 26.4136H34.2628H34.2622ZM36.4142 26.0707C36.5027 24.2599 34.3616 24.3635 34.2622 26.0707H36.4142Z" fill="white"/>
<path d="M33.3301 23.3861C30.9272 22.4927 29.7503 24.6463 30.3496 26.7422C30.7454 28.1274 32.1344 28.4102 33.3888 27.9554L33.4428 28.2929C30.8781 29.1733 29.3661 27.2958 29.8672 24.8678C30.2115 23.2028 31.8817 22.3653 33.4464 23.0748L33.3307 23.3855L33.3301 23.3861Z" fill="white"/>
<path d="M40.5443 28.413H40.137V25.6426C40.137 25.573 39.9686 25.1997 39.9152 25.1176C39.4971 24.4735 38.5365 24.7336 38.2268 25.3664C38.2002 25.4212 38.1014 25.6694 38.1014 25.6998V28.413H37.6941V24.7854C37.6941 24.7426 37.5748 24.6396 37.6608 24.5247C37.716 24.4509 37.9184 24.4473 37.9893 24.4961L38.1008 25.0991C38.5529 24.1836 39.9473 24.161 40.3813 25.117C40.4116 25.1843 40.5443 25.5498 40.5443 25.5849V28.4124V28.413Z" fill="white"/>
<path d="M42.1732 23.3863V24.4715H43.1332L43.2204 24.8144H42.1732V27.699C42.1732 27.7163 42.2938 27.9806 42.3193 28.0127C42.5574 28.3181 43.0653 28.0865 43.1041 28.127L43.1483 28.3866C42.8326 28.5848 42.1853 28.5401 41.9496 28.2044C41.9072 28.1437 41.7666 27.8056 41.7666 27.7556V24.8138H41.1266C41.046 24.3322 41.4278 24.49 41.7672 24.4715L41.7751 23.5078L42.1744 23.3857L42.1732 23.3863Z" fill="white"/>
<path d="M87.1382 23.3863V24.4715H88.1272V24.8144H87.1382V27.7562C87.1382 28.1473 87.7672 28.2473 88.0684 28.1276L88.0139 28.4449C87.6915 28.533 87.2515 28.5378 86.9915 28.2997C86.9273 28.2407 86.7309 27.8717 86.7309 27.8127V24.8138H86.091C86.0104 24.3322 86.3922 24.49 86.7315 24.4715L86.7394 23.5078L87.1388 23.3857L87.1382 23.3863Z" fill="white"/>
<path d="M62.2926 24.5938L62.2399 24.9277C61.3424 24.5843 60.4321 24.7271 60.0873 25.698C59.554 27.2022 60.5879 28.7374 62.2411 27.9564L62.2956 28.2933C58.6104 29.6988 58.6728 23.3104 62.2926 24.5932V24.5938Z" fill="white"/>
<path d="M75.7371 35.6107H75.388V33.2403C75.388 33.1594 75.182 32.7987 75.0947 32.7284C74.7705 32.4683 74.2675 32.5486 73.9893 32.8379C73.9106 32.9195 73.7009 33.2707 73.7009 33.3546V35.6107H73.3518V32.3546H73.6427V32.8117C74.0627 32.3873 74.4936 32.1367 75.1135 32.3665C75.3965 32.4713 75.7365 32.9546 75.7365 33.2397V35.6101L75.7371 35.6107Z" fill="white"/>
<path d="M99.761 35.6107H99.412V33.2403C99.412 33.2207 99.2774 32.929 99.2496 32.8856C98.9714 32.457 98.3526 32.4849 98.0133 32.8379C97.9345 32.9195 97.7248 33.2707 97.7248 33.3546V35.6107H97.3757V32.3546H97.6666V32.8117C98.0866 32.3873 98.5175 32.1367 99.1374 32.3665C99.4205 32.4713 99.7604 32.9546 99.7604 33.2397V35.6101L99.761 35.6107Z" fill="white"/>
<path d="M42.173 35.6111H41.824V33.2979C41.824 33.205 41.6482 32.8324 41.5634 32.7538C41.3234 32.5324 40.8495 32.5216 40.5731 32.6972C40.4428 32.78 40.1374 33.1544 40.1374 33.2973V35.6105H39.7883V32.3544H40.0792V32.8115C40.4731 32.252 41.4567 32.0478 41.9076 32.6431C41.9755 32.733 42.1724 33.2116 42.1724 33.2967V35.6099L42.173 35.6111Z" fill="white"/>
<path d="M67.3609 28.4132H66.9536V22.6439C67.0948 22.6481 67.2663 22.6005 67.3609 22.7296V28.4132Z" fill="white"/>
<path d="M43.8599 24.4721H44.2089L44.2374 25.1572C44.5047 24.7179 44.8622 24.3488 45.4307 24.4149V24.8155C44.9804 24.7381 44.5756 25.0495 44.4126 25.4435C44.3738 25.5376 44.2671 25.9114 44.2671 25.9858V28.4133H43.8599V24.4721Z" fill="white"/>
<path d="M84.5706 32.3622L85.5384 35.154L86.4917 32.3884L86.8474 32.3545L85.6457 35.6124L85.3408 35.604L84.23 32.3545L84.5706 32.3622Z" fill="white"/>
<path d="M60.8454 35.6105H60.4963V30.8121C60.6212 30.8097 60.7654 30.7824 60.8454 30.8978V35.6105Z" fill="white"/>
<path d="M76.7263 24.472V28.4133H76.3191V24.5578C76.413 24.4286 76.5851 24.4762 76.7263 24.472Z" fill="white"/>
<path d="M82.4265 32.3542H82.7174L82.7459 32.8679C82.9865 32.5292 83.2392 32.2298 83.7064 32.2965L83.7004 32.5768C83.2859 32.5376 82.7756 33.0334 82.7756 33.4108V35.6103H82.4265V32.3542Z" fill="white"/>
<path d="M35.8906 32.3545H35.5415V35.6106H35.8906V32.3545Z" fill="white"/>
<path d="M92.8392 32.3545H92.5483V35.6106H92.8392V32.3545Z" fill="white"/>
<path d="M55.7263 22.8154C55.7912 22.8892 55.2033 24.5477 55.087 24.6149C55.0136 24.6572 54.933 24.6447 54.8542 24.6429L55.2542 22.9047L55.7263 22.8154Z" fill="white"/>
<path d="M58.868 21.7303L57.9007 22.5791L57.4717 22.6428C57.9007 22.2214 58.1425 21.5648 58.868 21.7303Z" fill="white"/>
<path d="M76.4171 23.1118C76.9722 22.9415 77.0298 23.8219 76.4668 23.7302C76.1699 23.682 76.1626 23.1903 76.4171 23.1118Z" fill="white"/>
<path d="M92.8828 31.2267C93.1022 31.4458 92.8573 31.8821 92.5471 31.6988C92.2368 31.5154 92.6095 30.9541 92.8828 31.2267Z" fill="white"/>
<path d="M35.9341 31.6541C35.7075 31.9106 35.2851 31.5255 35.5408 31.2392C35.7608 30.9933 36.1511 31.4088 35.9341 31.6541Z" fill="white"/>
</svg>
