<svg width="110" height="35" viewBox="0 0 110 35" fill="none" xmlns="http://www.w3.org/2000/svg">
<path d="M28.6687 29.6753C28.0939 30.307 27.4944 30.7992 26.8703 31.2751C21.4507 35.336 14.1341 35.5985 8.21351 31.956C2.23545 28.2806 -0.893164 21.4303 0.223617 14.457C1.32397 7.61491 6.6451 1.92959 13.4607 0.420063C17.8786 -0.556205 22.0419 0.173945 25.8849 2.56129C26.0081 2.63512 26.1313 2.70896 26.238 2.7992C26.3858 2.92226 26.3859 3.07814 26.3119 3.22581C26.2298 3.36528 26.0902 3.4145 25.9424 3.36527C25.7782 3.30785 25.6139 3.22581 25.4579 3.16018C16.7125 -0.884362 6.37411 3.49654 3.44256 12.4963C0.568491 21.2991 6.15239 30.7172 15.3001 32.5221C19.9315 33.4327 24.1851 32.5221 28.0856 29.8804C28.2252 29.7901 28.3402 29.6261 28.6687 29.6753Z" fill="white"/>
<path d="M26.9936 25.3441C28.48 23.2192 29.2682 20.8729 29.3339 18.3051C29.49 12.2588 25.1871 7.18876 19.2172 6.37657C13.7647 5.63001 8.33682 9.22333 6.74377 14.6297C5.91439 17.4765 6.1443 20.2576 7.29393 22.9813C7.33499 23.0798 7.37607 23.1782 7.42534 23.2767C7.50746 23.4736 7.52386 23.6623 7.30215 23.7771C7.08044 23.892 6.93265 23.7771 6.80947 23.5966C6.25929 22.809 5.80765 21.9558 5.47097 21.0616C2.95822 14.4492 6.28392 7.16415 13.0092 4.53068C20.7117 1.51984 29.3668 6.28632 30.7874 14.4246C31.4854 18.461 30.4179 22.0789 27.552 25.0979C27.3385 25.3277 27.3303 25.3194 27.0018 25.3523L26.9936 25.3441Z" fill="white"/>
<path d="M12.2295 11.1351C15.6127 7.20538 21.599 7.2464 25.0971 11.2663C27.38 13.8998 28.0122 16.9516 26.8626 20.2496C25.7294 23.482 23.3891 25.5083 19.9977 26.1729C17.7395 26.6159 15.6373 26.1401 13.7405 24.8192C13.527 24.6715 13.2395 24.5075 13.4284 24.1875C13.6091 23.8922 13.8636 24.0645 14.0935 24.1547C17.7313 25.4755 21.5497 24.2778 23.5287 21.2013C26.3699 16.7794 23.7176 10.8643 18.495 9.99471C16.4995 9.65835 14.6273 9.99471 12.8536 10.9546C12.6729 11.0448 12.5169 11.2335 12.2295 11.1515V11.1351Z" fill="white"/>
<path d="M58.9858 9.97748C60.8416 7.70499 63.6828 8.49257 64.6189 10.3631C64.7257 10.3631 64.7503 10.281 64.7914 10.2072C65.4812 8.96019 66.5733 8.46795 67.9611 8.59101C69.316 8.71407 70.1536 9.50165 70.6052 10.7486C70.8598 11.4624 70.9255 12.2007 70.9748 12.9473C71.0405 13.8497 71.0897 14.7522 71.1143 15.6628C71.1308 16.114 71.1964 16.5078 71.5988 16.7785C71.7466 16.877 71.8205 17.0082 71.7713 17.1887C71.722 17.3938 71.5414 17.3938 71.3853 17.3938H69.2996C69.1435 17.3938 68.9629 17.3938 68.8972 17.1969C68.8315 17.0082 68.9383 16.8852 69.0779 16.7867C69.4556 16.5406 69.5377 16.1879 69.5048 15.7695C69.3817 14.3174 69.4391 12.8489 69.1928 11.405C69.1435 11.1096 69.0532 10.8143 68.9382 10.5353C68.6426 9.82981 68.1417 9.36218 67.337 9.30475C66.5076 9.23912 65.8835 9.6001 65.4401 10.2728C65.1116 10.7733 65.0131 11.3311 65.0377 11.9464C65.0952 13.1688 65.0788 14.3994 65.0706 15.6218C65.0706 16.0812 65.087 16.5078 65.5387 16.7949C65.6783 16.877 65.7604 17.0329 65.6783 17.2133C65.6043 17.3692 65.4565 17.3856 65.3087 17.3856H63.223C63.067 17.3856 62.8945 17.3692 62.8452 17.1723C62.8042 16.9836 62.8945 16.8606 63.0423 16.7621C63.4036 16.5242 63.4611 16.1796 63.4529 15.7859C63.4365 14.6455 63.4529 13.5052 63.4529 12.373C63.4529 11.8316 63.3872 11.3147 63.1901 10.8061C62.7877 9.76417 61.9912 9.21451 61.0387 9.31296C60.1025 9.4114 59.3142 10.199 59.1253 11.2081C59.035 11.7167 59.0433 12.2336 59.0515 12.7504C59.0515 13.7595 59.0925 14.7768 59.0843 15.7941C59.0843 16.1961 59.1582 16.5324 59.5278 16.7457C59.692 16.836 59.8234 16.9754 59.7659 17.1723C59.7002 17.402 59.4949 17.3774 59.3225 17.3774C58.6245 17.3774 57.9265 17.3774 57.2367 17.3774C57.056 17.3774 56.859 17.3774 56.8015 17.1559C56.744 16.9508 56.8836 16.8278 57.0478 16.7293C57.3681 16.5324 57.4666 16.2371 57.4666 15.8679C57.4666 14.1943 57.4666 12.5289 57.4666 10.8471C57.4666 10.4615 57.3516 10.1744 57.0314 9.93646C56.6208 9.62471 56.6537 9.44422 57.1135 9.22271C57.5323 9.02582 57.9511 8.82893 58.3781 8.64844C58.8051 8.45975 58.9611 8.5664 58.9858 9.03402C59.0022 9.28834 58.9858 9.55908 58.9858 9.95287V9.97748Z" fill="white"/>
<path d="M38.6301 10.1341C38.6465 11.578 39.0242 12.9071 39.8782 14.0884C41.964 16.968 45.5689 16.6891 47.2112 13.547C47.359 13.2516 47.4329 12.743 47.9174 12.9481C48.3444 13.1368 48.0734 13.547 47.9995 13.8423C47.1455 16.9516 43.8116 18.4365 40.8308 17.0501C36.8153 15.196 35.6738 9.51065 38.6547 6.25369C40.8143 3.89096 44.9037 3.85814 47.088 6.18806C47.4493 6.56544 47.7285 7.00025 47.8435 7.5171C47.9256 7.91909 47.8681 8.28826 47.474 8.47695C47.088 8.67385 46.6774 8.61642 46.4147 8.26365C46.0287 7.75501 45.7167 7.18894 45.3471 6.67209C44.255 5.16257 42.3499 4.77698 40.7487 5.76145C39.6894 6.41777 39.0981 7.40224 38.7943 8.58361C38.6629 9.08405 38.6383 9.60089 38.6465 10.1177V10.1341H38.6301Z" fill="white"/>
<path d="M38.6295 25.5665C38.6705 27.3385 39.1714 28.9301 40.4606 30.2099C42.4971 32.2363 45.3384 31.9327 46.8904 29.529C47.0546 29.2747 47.1942 29.0039 47.3255 28.7332C47.4487 28.4871 47.5965 28.282 47.8922 28.3722C48.1878 28.4707 48.1303 28.7414 48.0811 28.9711C47.7772 30.3084 47.1203 31.4405 45.946 32.1788C44.2626 33.2454 42.4807 33.3274 40.6988 32.4496C36.905 30.5955 35.7472 25.304 38.3749 22.0224C40.5756 19.2823 45.1413 19.2084 47.2599 21.8829C47.5391 22.2357 47.7525 22.6213 47.8347 23.0725C47.9004 23.4335 47.81 23.7616 47.4816 23.9503C47.1449 24.1472 46.7836 24.1062 46.488 23.8437C46.332 23.7042 46.2006 23.5319 46.0774 23.3596C45.8968 23.0971 45.7325 22.8182 45.5765 22.5392C44.1312 19.9632 40.7235 20.2175 39.3111 22.7115C38.8101 23.5975 38.5884 24.5656 38.6213 25.5829L38.6295 25.5665Z" fill="white"/>
<path d="M14.7666 14.4575C14.7666 14.8349 14.5695 15.1713 14.5038 15.524C14.1343 17.2715 14.939 19.0271 16.4417 19.6998C18.6835 20.7007 21.1224 19.0763 21.1963 16.5331C21.2127 16.1721 21.147 15.8194 21.0977 15.4748C21.0731 15.2779 21.0238 15.0728 21.2537 14.958C21.5083 14.8349 21.6561 15.0072 21.7957 15.1713C22.9043 16.5249 23.0767 18.0344 22.4444 19.6342C21.6315 21.6688 19.4965 22.9076 17.2383 22.6779C15.1279 22.4646 13.3295 20.8402 12.9272 18.74C12.6808 17.452 12.9518 16.2624 13.7894 15.2287C14.0522 14.9005 14.3477 14.5806 14.7912 14.4657L14.7666 14.4575Z" fill="white"/>
<path d="M78.4148 16.4676C77.1584 17.7228 75.0399 17.9196 73.6275 16.9844C72.7406 16.4019 72.445 15.5569 72.5189 14.5478C72.601 13.588 73.1184 12.907 73.9806 12.5461C75.3191 11.9882 76.6412 12.021 77.9715 12.7758C77.9058 11.8487 77.8072 10.9791 77.3884 10.1751C77.0517 9.52702 76.5015 9.21528 75.7871 9.20707C75.0727 9.20707 74.5636 9.52702 74.2269 10.1505C74.0873 10.413 73.956 10.692 73.7917 10.9381C73.6029 11.2252 73.3401 11.3237 73.0034 11.1924C72.6667 11.0612 72.5435 10.8068 72.5764 10.4787C72.6421 9.80596 73.0773 9.39576 73.6275 9.08401C76.1402 7.64832 79.0636 9.01838 79.4824 11.8569C79.6794 13.1778 79.7862 14.5068 79.9094 15.8276C79.9504 16.3035 80.1147 16.6562 80.5991 16.7957C80.7634 16.8449 80.9112 16.9106 80.903 17.1075C80.8947 17.3044 80.7305 17.3618 80.5745 17.4028C80.0982 17.5177 79.6219 17.5259 79.1374 17.4274C78.6776 17.329 78.5134 16.9434 78.4148 16.4758V16.4676ZM76.2469 16.927C77.3801 16.927 78.2013 16.1312 78.1931 15.0483C78.1767 13.5962 77.4623 12.784 76.1648 12.7758C74.9824 12.7758 74.1284 13.5387 74.1202 14.6217C74.1037 15.9425 75.007 16.927 76.2469 16.927Z" fill="white"/>
<path d="M57.7299 28.5851C57.7299 31.153 55.948 33.007 53.4681 33.007C50.7911 33.007 48.7546 31.0135 48.7546 28.3882C48.7546 25.9106 50.6925 23.9827 53.1724 23.9991C55.7673 24.0155 57.7217 25.9763 57.7299 28.5769M50.4216 27.9288C50.4216 29.4055 50.9471 30.751 51.8586 31.6042C53.2546 32.9332 55.1351 32.5148 55.8248 30.7264C55.9644 30.3572 56.0548 29.9716 56.0794 29.586C56.1615 28.0437 55.9069 26.5916 54.7737 25.443C53.4106 24.0648 51.3495 24.5406 50.6679 26.3537C50.479 26.8623 50.4134 27.3874 50.4216 27.9206V27.9288Z" fill="white"/>
<path d="M87.0618 13.0381C87.029 9.91236 89.862 7.77934 92.7114 8.78842C93.6311 9.11658 94.3209 9.69905 94.5919 10.6753C94.8465 11.586 94.5918 12.0536 93.6968 12.3571C92.2433 12.8412 90.7981 13.3334 89.3282 13.7764C88.8848 13.9159 88.8766 14.0964 89.0408 14.4573C89.5417 15.5649 90.3547 16.2786 91.5946 16.3606C92.7525 16.4345 93.6804 15.9997 94.2634 14.9578C94.3784 14.7609 94.518 14.5804 94.7643 14.7117C94.9942 14.8347 94.8792 15.048 94.83 15.2367C94.444 16.5001 93.163 17.4354 91.6603 17.5502C89.0079 17.7635 87.0864 15.8766 87.0618 13.0463M88.7288 13.3006C90.018 12.8412 91.2661 12.3981 92.4897 11.9551C93.0891 11.7418 93.2206 11.4465 93.0481 10.8394C92.7935 9.9944 92.038 9.29706 91.2497 9.21502C90.3793 9.12478 89.591 9.576 89.1229 10.4374C88.6467 11.3234 88.5974 12.2669 88.7288 13.3088V13.3006Z" fill="white"/>
<path d="M102.081 28.4372C102.081 25.2951 104.996 23.2031 107.846 24.2943C108.765 24.647 109.414 25.2787 109.644 26.255C109.841 27.0426 109.57 27.5266 108.798 27.7891C107.345 28.2732 105.891 28.7736 104.43 29.2084C103.912 29.3643 103.896 29.5612 104.101 29.9878C104.594 31.0051 105.333 31.686 106.491 31.7926C107.69 31.8993 108.667 31.5219 109.283 30.4226C109.389 30.2257 109.537 30.037 109.784 30.1601C110.022 30.2749 109.915 30.5046 109.866 30.6851C109.496 31.9813 108.067 32.9658 106.474 33.015C103.888 33.0971 102.065 31.2102 102.073 28.4454L102.081 28.4372ZM103.699 27.8794V28.3634C103.699 28.6505 103.814 28.7408 104.101 28.6341C105.284 28.2075 106.474 27.7809 107.665 27.3543C108.002 27.2313 108.182 26.9851 108.149 26.616C108.075 25.7956 107.32 24.9096 106.499 24.6963C105.727 24.4912 104.873 24.8275 104.356 25.5659C103.871 26.2632 103.69 27.0508 103.699 27.8794Z" fill="white"/>
<path d="M66.3108 28.4781C66.2944 25.4181 68.9796 23.3179 71.8208 24.1957C72.8144 24.5074 73.5535 25.0981 73.8491 26.14C74.0955 27.0096 73.8327 27.5101 72.9869 27.7972C71.4841 28.2977 69.9815 28.7981 68.4623 29.2739C68.1503 29.3724 68.1256 29.4872 68.2324 29.758C68.6676 30.8327 69.382 31.612 70.5809 31.7761C71.829 31.9402 72.8719 31.5792 73.5206 30.4061C73.6192 30.2174 73.7506 30.0533 73.9805 30.1517C74.2679 30.2666 74.1612 30.5209 74.0873 30.7014C73.5863 32.0222 72.5845 32.7606 71.2132 32.9575C68.4294 33.3759 66.3109 31.4398 66.2944 28.4863H66.3108V28.4781ZM67.9203 27.8711V28.4043C67.9203 28.6832 68.0599 28.7243 68.2981 28.6422C69.5052 28.2074 70.7123 27.7726 71.9194 27.3378C72.2725 27.2065 72.3957 26.944 72.3464 26.5748C72.2561 25.7626 71.517 24.9094 70.7205 24.6961C69.9486 24.491 69.0946 24.8192 68.5772 25.5493C68.0845 26.2385 67.9121 27.0343 67.9203 27.8629V27.8711Z" fill="white"/>
<path d="M76.3785 27.8543C76.362 28.6255 76.5098 29.3721 76.8711 30.0612C77.4624 31.1769 78.3821 31.8004 79.6467 31.8332C80.7963 31.8661 81.6093 31.2918 82.1348 30.2991C82.2416 30.1022 82.3729 29.9053 82.6275 30.0366C82.8656 30.1514 82.7589 30.3647 82.7096 30.5534C82.2908 32.1368 80.7634 33.1295 78.9158 33.0064C76.4195 32.8341 74.6622 30.8324 74.7361 28.2399C74.81 25.7952 76.6905 23.9903 79.1869 24.0149C80.3036 24.0313 81.3301 24.3431 82.143 25.1634C82.3894 25.4096 82.57 25.6885 82.6521 26.0249C82.7178 26.312 82.7014 26.6155 82.4222 26.796C82.1512 26.9683 81.8474 26.9601 81.56 26.796C81.2891 26.632 81.1412 26.3612 80.9769 26.1069C80.1476 24.8353 79.4003 24.4497 78.3246 24.7204C77.2653 24.983 76.477 26.0413 76.3702 27.3211C76.3538 27.5016 76.3702 27.6739 76.3702 27.8543V27.8707L76.3785 27.8543Z" fill="white"/>
<path d="M64.7757 25.7048C64.7757 27.5589 64.7757 29.4048 64.7757 31.2589C64.7757 31.6691 64.8414 31.989 65.2273 32.2023C65.3916 32.2844 65.5147 32.4321 65.4408 32.6372C65.3751 32.8259 65.2027 32.8341 65.0384 32.8341H62.9527C62.7638 32.8341 62.5832 32.8176 62.5257 32.6043C62.4682 32.3992 62.5996 32.268 62.7556 32.1695C63.0677 31.9726 63.1415 31.6855 63.1415 31.3409V21.6767C63.1415 21.2993 63.0348 20.9794 62.731 20.7333C62.345 20.4215 62.4846 20.2 62.8624 20.0195C63.2319 19.839 63.6014 19.6585 63.9709 19.4781C64.595 19.1745 64.7839 19.2894 64.7839 19.9703V25.6802V25.6966L64.7757 25.7048Z" fill="white"/>
<path d="M82.0685 12.628C82.0685 11.6189 82.0357 10.7985 82.0685 9.97809C82.0932 9.55969 81.9454 9.43663 81.5594 9.49406C81.387 9.51867 81.1981 9.49406 81.0257 9.49406C80.7711 9.49406 80.6315 9.42843 80.6233 9.13309C80.6233 8.81313 80.7629 8.76391 81.0503 8.7475C82.4134 8.69828 82.6269 8.50138 82.8815 7.12312C82.939 6.82778 83.0457 6.68011 83.3659 6.68831C83.7026 6.70472 83.7191 6.94263 83.7273 7.17234C83.7437 7.56613 83.7602 7.95172 83.7273 8.34551C83.7027 8.68187 83.8422 8.77211 84.1542 8.76391C84.7455 8.7393 85.3285 8.76391 85.9197 8.76391C86.1989 8.76391 86.47 8.7393 86.4617 9.14949C86.4617 9.52687 86.1907 9.50226 85.9362 9.50226C85.3367 9.50226 84.7209 9.51867 84.1214 9.50226C83.8258 9.50226 83.7109 9.5843 83.7191 9.88785C83.7355 11.5779 83.7026 13.2679 83.7354 14.9579C83.7601 16.0162 84.3596 16.5166 85.2464 16.2787C85.6734 16.1639 85.9691 15.8931 86.084 15.4665C86.1497 15.2286 86.2318 15.0399 86.511 15.1138C86.7902 15.1958 86.7245 15.4337 86.6999 15.647C86.5439 16.7709 85.657 17.5421 84.4909 17.5667C83.251 17.5995 82.3888 16.9432 82.1589 15.7455C81.9536 14.6543 82.1178 13.5468 82.0685 12.6362V12.628Z" fill="white"/>
<path d="M86.1171 27.944C86.1171 28.7808 86.1171 29.6176 86.1171 30.4544C86.1171 31.16 86.4703 31.6604 86.9958 31.7589C87.6609 31.8901 88.2193 31.562 88.4821 30.8564C88.5642 30.6595 88.6381 30.479 88.8926 30.5447C89.1472 30.6185 89.1061 30.8482 89.0897 31.0287C89.0076 32.0378 88.1946 32.85 87.1271 32.9812C85.9446 33.1207 85.0168 32.6121 84.6473 31.5866C84.4748 31.1107 84.4338 30.6185 84.4338 30.1181C84.4338 28.5511 84.4174 26.9842 84.4338 25.4172C84.4338 25.048 84.3434 24.8922 83.9574 24.9414C83.7604 24.966 83.5633 24.9414 83.3662 24.9414C83.0952 24.9414 82.9885 24.8101 82.9885 24.5476C82.9885 24.2687 83.1281 24.1702 83.3827 24.1784H83.4319C84.8032 24.1046 84.9839 23.9487 85.2467 22.5458C85.296 22.2751 85.3945 22.1274 85.6901 22.1274C86.0185 22.1274 86.0761 22.3243 86.0761 22.5787C86.0761 22.9478 86.0925 23.3252 86.0761 23.6944C86.0515 24.0554 86.1664 24.203 86.5606 24.1784C87.16 24.1538 87.7758 24.1784 88.3753 24.1784C88.6463 24.1784 88.8188 24.2605 88.8188 24.564C88.8188 24.8676 88.6545 24.9496 88.3753 24.9414C87.8087 24.9414 87.2339 24.9742 86.6673 24.925C86.1664 24.884 86.0679 25.0727 86.0925 25.5239C86.1254 26.3197 86.0925 27.1236 86.0925 27.9276L86.1089 27.944H86.1171Z" fill="white"/>
<path d="M98.0001 31.6115C98.8541 29.5195 99.6424 27.5833 100.431 25.6472C100.587 25.2534 100.398 24.9991 100.086 24.8022C99.938 24.7119 99.7656 24.6053 99.8313 24.3838C99.9052 24.1623 100.11 24.1951 100.283 24.1951H101.786C101.942 24.1951 102.122 24.1787 102.188 24.3756C102.246 24.5561 102.155 24.6955 101.999 24.7776C101.424 25.0811 101.227 25.6226 101.006 26.1722C100.193 28.1986 99.3632 30.225 98.5502 32.2432C98.4107 32.6041 98.2383 32.8502 97.7866 32.842C97.335 32.842 97.0229 32.76 96.8176 32.2924C95.8569 30.1347 94.8468 27.9935 93.8697 25.8441C93.6972 25.4667 93.5084 25.1139 93.1717 24.8514C93.0157 24.7283 92.8679 24.5725 92.95 24.351C93.0321 24.1459 93.2373 24.1787 93.4098 24.1787H95.4956C95.6762 24.1787 95.865 24.1541 95.9553 24.3592C96.0375 24.5479 95.8979 24.6709 95.7747 24.7694C95.4216 25.0483 95.4381 25.3601 95.6023 25.762C96.3988 27.6572 97.1625 29.5605 98.0001 31.6115Z" fill="white"/>
<path d="M60.8746 25.6316C60.8746 27.4693 60.8746 29.2987 60.8746 31.1364C60.8746 31.5876 60.9156 31.9896 61.3673 32.2276C61.5069 32.3096 61.6218 32.4327 61.5644 32.6213C61.5069 32.81 61.3508 32.8429 61.1866 32.8429H59.0434C58.8791 32.8429 58.7149 32.8264 58.6575 32.6295C58.6164 32.4819 58.6574 32.326 58.797 32.2604C59.2651 31.9896 59.2569 31.5548 59.2569 31.0954C59.2569 28.0189 59.2569 24.9343 59.2569 21.8578C59.2569 21.4148 59.2076 21.021 58.8217 20.7174C58.5425 20.5041 58.5753 20.258 58.9038 20.0939C59.3472 19.8724 59.7907 19.6345 60.2423 19.4376C60.6775 19.2407 60.8582 19.372 60.8664 19.8724V25.6398L60.8746 25.6316Z" fill="white"/>
<path d="M51.1028 10.2321C51.1028 12.0862 51.1028 13.9321 51.1028 15.7944C51.1028 16.2046 51.1685 16.5245 51.5627 16.7378C51.7269 16.8199 51.8583 16.9593 51.7926 17.1726C51.7269 17.4024 51.5216 17.3695 51.3492 17.3695H49.3127C49.1567 17.3695 48.9678 17.3941 48.8939 17.2055C48.82 17.0086 48.9103 16.8527 49.0827 16.7542C49.4523 16.5245 49.5098 16.1882 49.5098 15.7862C49.5098 12.6523 49.5098 9.51837 49.5098 6.38447C49.5098 5.93325 49.4276 5.55587 49.0499 5.25233C48.7543 5.01441 48.8446 4.79291 49.1484 4.63703C49.5672 4.43193 49.9778 4.21863 50.3966 4.02994C50.9386 3.78382 51.111 3.89047 51.111 4.48116V10.2485L51.1028 10.2321Z" fill="white"/>
<path d="M91.9147 27.9864C91.9147 29.0693 91.9311 30.1605 91.9147 31.2434C91.9147 31.6536 91.9886 31.9735 92.3745 32.1786C92.5387 32.2607 92.6702 32.4001 92.6127 32.6052C92.547 32.8103 92.3581 32.8349 92.1774 32.8349H90.1492C89.9685 32.8349 89.7796 32.8349 89.6975 32.6381C89.6236 32.4412 89.7386 32.2935 89.8946 32.195C90.2395 31.9817 90.3216 31.6618 90.3216 31.2844C90.3052 29.701 90.3052 28.1177 90.3216 26.5343C90.3216 26.0831 90.2478 25.6975 89.8782 25.394C89.5908 25.1643 89.6154 24.951 89.9439 24.7869C90.4037 24.5572 90.8636 24.3111 91.3398 24.106C91.7504 23.9255 91.9312 24.0649 91.9394 24.5326C91.9394 25.6893 91.9394 26.8461 91.9394 28.0028L91.9147 27.9864Z" fill="white"/>
<path d="M55.0693 12.5041C55.0693 13.6116 55.0857 14.711 55.0693 15.8103C55.0693 16.2041 55.1514 16.5076 55.5045 16.7045C55.6769 16.803 55.8576 16.9178 55.7755 17.1639C55.7016 17.369 55.5127 17.3608 55.3239 17.3608H53.2381C53.0738 17.3608 52.9014 17.3608 52.8439 17.1639C52.7947 16.9917 52.8686 16.844 53.0164 16.7455C53.4352 16.4994 53.4844 16.122 53.4762 15.6872C53.4598 14.1613 53.4598 12.6272 53.4762 11.093C53.4762 10.6254 53.4105 10.2152 53.0082 9.91167C52.7536 9.71478 52.7536 9.48507 53.0574 9.32919C53.5337 9.08307 54.0018 8.84516 54.4945 8.62365C54.864 8.45957 55.0693 8.59904 55.0693 9.01744V12.4877V12.5041Z" fill="white"/>
<path d="M92.2351 21.3899C92.2351 22.1036 91.808 22.5303 91.0608 22.5385C90.3135 22.5385 89.8455 22.1201 89.8455 21.4227C89.8455 20.7254 90.2971 20.2742 91.0198 20.2578C91.7342 20.2414 92.2186 20.6844 92.2268 21.3817" fill="white"/>
<path d="M54.1986 4.81836C54.9295 4.81836 55.4058 5.25317 55.4058 5.9505C55.4058 6.64784 54.9623 7.09085 54.2151 7.09085C53.4678 7.09085 52.9998 6.65604 52.9998 5.96691C52.9998 5.27778 53.476 4.82656 54.1986 4.81836Z" fill="white"/>
<path d="M14.7747 14.4653C14.7747 14.4653 14.7746 14.4325 14.7993 14.4243H14.8321C14.8321 14.4243 14.7911 14.4489 14.7747 14.4571V14.4653Z" fill="white"/>
</svg>
