<svg width="65" height="29" viewBox="0 0 65 29" fill="none" xmlns="http://www.w3.org/2000/svg">
<path d="M22.9908 2.93045C32.0712 9.87622 29.6692 24.8449 18.7525 28.2735C6.7561 32.0412 -3.74877 19.9664 1.29472 8.49195C4.97631 0.11303 15.7099 -2.63716 22.9908 2.93045ZM12.4508 4.6264C12.7009 4.851 13.4482 5.85177 13.7395 5.06185C13.8692 4.70891 12.1 2.75016 11.7569 2.495C11.4885 2.29485 11.3817 2.23221 11.0508 2.36513C10.671 2.51792 7.5522 6.74405 7.54915 7.06949C7.54763 7.44535 9.82612 9.55842 10.2272 9.98928C10.5429 10.33 10.2364 11.3033 10.5383 11.5111C10.7763 11.6761 11.339 11.5065 11.6654 11.6043C11.9918 11.702 12.8855 13.3613 13.4467 12.7991C13.9759 12.2689 12.3639 11.2269 12.2587 10.8571C12.1534 10.4874 12.3349 9.83038 12.1595 9.58133C11.9841 9.33229 11.2323 9.51869 10.7686 9.29409C10.6009 9.21311 8.76923 7.19631 8.74178 7.0481C8.70365 6.8342 11.0157 3.52021 11.2307 3.49118C11.4915 3.45757 12.1915 4.39569 12.4493 4.62793L12.4508 4.6264ZM18.873 3.3934C18.5817 3.20853 18.417 2.93198 17.9808 3.04046C17.5126 3.15811 16.0989 5.15047 15.4812 5.44688C14.8635 5.74329 14.3709 5.29714 14.0445 5.52938C13.7929 5.70967 13.9546 6.59585 13.8341 7.00074C13.6724 7.54161 12.338 8.2368 12.6979 8.80975C13.2149 9.63175 14.2291 7.75398 14.6531 7.66231C15.0237 7.58286 15.5452 7.78913 15.5788 7.75704C15.6337 7.70509 15.7283 6.63863 15.9341 6.27652C16.0119 6.13901 18.0937 4.11456 18.2523 4.12526C18.4231 4.13595 20.4988 6.39569 20.5552 6.67835C20.6208 7.00226 18.2935 8.61113 19.4922 8.97018C19.9436 9.10463 21.7661 7.02518 21.6868 6.46903C21.6578 6.26277 19.2162 3.61189 18.873 3.39493V3.3934ZM17.2594 11.2712C17.3205 11.3338 18.237 11.1963 18.5299 11.2972C18.8013 11.3904 19.6767 13.1245 20.2425 12.3468C20.6391 11.7998 19.3732 11.0542 19.2039 10.6218C19.0575 10.246 19.1597 9.4973 18.9477 9.35062C18.7357 9.20395 18.2248 9.34757 17.8725 9.20547C17.5202 9.06338 16.6296 7.56147 16.1309 8.04734C15.4781 8.68447 17.0963 9.55689 17.2274 10.0046C17.3144 10.304 17.2122 11.2238 17.2594 11.2712ZM4.84973 10.2597C4.71247 10.1879 4.65909 10.0611 4.4349 10.1192C4.11768 10.2017 0.857022 13.8533 0.82347 14.1253C0.783817 14.4431 4.08718 18.2811 4.37085 18.2949C5.1273 18.33 6.78813 15.7372 7.34631 15.4713C7.72301 15.2926 8.80431 15.4667 8.87294 15.3965C8.92479 15.343 8.81651 14.3468 8.98732 13.9068C9.15813 13.4667 10.8723 12.3911 9.93745 11.9511C9.29539 11.6486 8.7372 12.9855 8.25985 13.1764C7.91975 13.3124 7.26853 13.2085 7.20143 13.2635C7.14195 13.314 7.07332 14.3269 6.80795 14.7777C6.60664 15.1184 4.71247 16.9778 4.40592 16.906C4.09938 16.8342 1.99017 14.414 2.03745 14.1207C2.0649 13.945 4.22444 11.4927 4.3983 11.453C4.99919 11.3124 6.13691 13.7402 6.66612 12.9564C7.01994 12.4324 5.20965 10.4461 4.84973 10.2597ZM24.0156 18.249C24.339 18.4797 24.4747 18.4935 24.8133 18.3101C25.1518 18.1268 27.929 14.8021 27.9367 14.5393C27.9443 14.2765 25.2189 10.8281 24.8895 10.5775C24.5875 10.3468 24.2993 10.2017 23.9546 10.4553C23.459 10.8205 22.094 12.9091 21.7219 13.1138C21.3116 13.3399 20.877 12.9732 20.6055 13.1658C20.4256 13.2941 20.3188 14.359 20.1663 14.7242C19.9558 15.2238 18.3301 16.1512 18.9798 16.7288C19.6737 17.3445 20.3142 15.5645 20.9227 15.3216C21.2781 15.1795 22.0894 15.2849 22.1382 15.2406C22.1977 15.1856 22.2099 14.0794 22.4372 13.6302C22.579 13.3522 24.342 11.4377 24.5753 11.5752C24.734 11.67 26.7288 14.356 26.7181 14.5409C26.6952 14.8953 24.7767 17.1031 24.435 17.1673C24.0766 17.2345 22.9435 15.0741 22.2923 15.7005C21.9354 16.0428 23.7289 18.0443 24.0141 18.2475L24.0156 18.249ZM16.8019 11.5768C16.2346 11.0191 15.1426 12.9855 14.6637 13.178C14.3328 13.3109 13.6373 13.2192 13.5992 13.2574C13.555 13.3002 13.6343 14.1512 13.5321 14.4889C13.3674 15.0328 11.7523 15.9389 12.4447 16.4782C13.1646 17.0389 13.68 15.4943 14.0567 15.3201C14.4334 15.1459 15.0465 15.346 15.2555 15.2223C15.5864 15.0252 15.2631 14.1146 15.3516 13.8732C15.4629 13.5676 17.3403 12.1039 16.805 11.5783L16.8019 11.5768ZM16.4496 15.7464C16.2758 15.6226 16.14 15.5538 15.9296 15.6577C14.8925 16.168 16.4954 17.0909 16.6875 17.5737C16.8217 17.9114 16.8034 18.9396 16.9758 19.042C17.1481 19.1444 17.6438 18.9809 18.1074 19.207C18.3636 19.3323 20.3127 21.6425 20.3112 21.893C20.3096 22.0779 18.298 24.7578 18.0311 24.8098C17.6377 24.8877 16.1705 22.4843 15.7481 23.5905C15.5574 24.0917 17.7002 26.2857 18.3712 26.0962C18.6275 26.0244 21.4169 22.1451 21.3803 21.7525C21.304 20.9121 19.1734 19.3079 18.8044 18.5088C18.5741 18.0091 18.6854 17.126 18.6336 17.0756C18.5878 17.0313 17.7612 17.1077 17.3662 16.8938C17.017 16.7043 16.6967 15.9221 16.4496 15.7479V15.7464ZM12.2282 16.9228C12.1748 16.8693 11.1301 16.9839 10.8113 16.8907C10.3569 16.7578 9.63244 15.3354 9.0407 15.7173C8.33153 16.1757 9.74529 17.1077 9.87035 17.5263C10.0168 18.0153 9.82307 18.9626 10.0061 19.2238C10.2074 19.5126 11.1591 19.2666 11.6135 19.4469C12.0268 19.6104 12.6049 20.9244 13.1081 20.3972C13.6953 19.783 12.37 19.0252 12.2602 18.6463C12.1565 18.2903 12.2922 16.9855 12.2282 16.9213V16.9228ZM9.78495 19.6761C9.27404 18.8724 7.09162 21.4301 7.21668 22.0076C7.29751 22.3758 10.6009 26.0367 10.9303 26.0382C11.4961 26.0397 13.4299 23.1566 13.9957 22.9045C14.4639 22.6967 15.2326 22.7762 15.2783 22.7303C15.3211 22.6875 15.2433 21.8808 15.3607 21.5141C15.4263 21.3109 17.3769 19.4744 15.9906 19.5447C15.501 19.5691 15.2097 20.5072 14.8162 20.6616C14.4228 20.8159 13.8066 20.6524 13.6221 20.7639C13.4635 20.8587 13.4604 21.9358 13.2759 22.3285C13.1371 22.6234 11.0935 24.7349 10.7976 24.7227C10.6115 24.715 8.42151 22.0657 8.40626 21.8808C8.35745 21.3124 10.0686 20.1237 9.78495 19.6761Z" fill="white"/>
<path d="M29.6128 1.11043C29.7592 0.728456 32.4647 0.649006 32.6828 0.988196C32.8124 1.18988 32.663 1.31975 32.663 1.416V4.62456C32.663 5.17919 33.4011 4.3526 33.5033 4.24412C34.0524 3.6513 35.6278 1.23724 36.0289 0.969862C36.308 0.784987 39.378 0.694842 39.529 0.798738C39.7364 0.940832 39.7211 1.14404 39.6022 1.33961C39.105 2.07911 35.5561 5.62074 35.5607 6.1555C35.5652 6.64748 39.8691 10.8217 40.136 11.882H36.3995C36.1341 11.882 33.6284 8.21509 33.0473 7.75367C32.817 7.57033 32.846 7.59477 32.6859 7.85604C33.0351 8.92862 32.3625 21.5077 33.0443 21.5077H36.552C36.5688 21.5077 36.7808 21.2953 36.7808 21.2785V17.306C36.7808 17.2785 37.1346 16.924 37.162 16.924H39.831C39.8508 16.924 39.9835 17.2861 39.9835 17.306V28.4596C39.9835 28.4764 39.7715 28.6888 39.7547 28.6888H37.162C36.5825 28.6888 37.0202 23.9523 36.7808 23.9523H32.8155V28.154C32.8155 28.2121 32.4678 28.6888 32.4342 28.6888H29.8416C29.8248 28.6888 29.6128 28.4764 29.6128 28.4596V1.11043Z" fill="white"/>
<path d="M55.0818 21.0497C55.1611 21.1429 56.7305 20.4233 57.4473 20.4264C62.9285 20.4523 62.3733 29.1154 57.2978 29.0024C56.6878 28.9886 55.3411 28.2018 55.1672 28.2216C55.0346 28.2369 54.9614 28.6907 54.8515 28.6907H52.4114C52.1735 28.6907 52.0225 27.3385 52.0179 27.0879C51.9844 25.1934 52.1857 23.0406 52.1979 21.1276C52.2055 19.7419 51.9386 17.6746 52.0179 16.3897C52.0271 16.2277 52.1018 15.8564 52.2604 15.8564H54.8531C54.8699 15.8564 55.0818 16.0688 55.0818 16.0856C55.0818 16.7655 54.9217 20.8618 55.0818 21.0513V21.0497ZM55.2816 25.7388C56.6771 27.5738 59.5855 25.201 57.8301 23.4134C56.3949 21.9512 53.9975 24.0505 55.2816 25.7388Z" fill="white"/>
<path d="M69.0365 11.8813C68.8748 11.8263 68.826 11.4352 68.8032 11.423C68.704 11.371 67.5831 12.1716 66.7488 12.1961C61.0084 12.3687 61.5971 3.42143 67.0569 4.08606C67.6227 4.15482 68.7193 4.89737 68.8032 4.85154C68.826 4.83931 68.9053 4.39317 69.0365 4.39317H71.7054V11.8798C71.0481 11.7469 69.5672 12.0601 69.0365 11.8798V11.8813ZM68.4539 9.3863C70.1056 7.95773 67.6502 5.40769 66.0214 6.98446C64.5634 8.3947 66.8221 10.7981 68.4539 9.3863Z" fill="white"/>
<path d="M42.1946 20.5904H44.6347C44.6515 20.5904 44.8635 20.8028 44.8635 20.8196V25.556C44.8635 26.5721 46.9544 26.9632 47.3769 25.9349C47.6743 25.2077 47.0871 20.5904 47.8374 20.5904H50.1251C50.299 20.5904 50.3371 20.977 50.3615 21.1175C50.5308 22.0831 50.4301 26.5721 50.029 27.3696C49.0209 29.3757 44.5005 29.4353 42.9541 28.0786C42.6414 27.8051 41.9658 26.6622 41.9658 26.3184V20.818C41.9658 20.7768 42.1443 20.6668 42.1946 20.5889V20.5904Z" fill="white"/>
<path d="M54.1667 11.8816H51.269V7.67994C51.269 5.85106 48.6763 6.06038 48.6763 7.67994V11.8816H45.9312V4.39498H48.6763C48.719 4.39498 48.5802 4.97253 48.7541 5.00767C48.8776 5.03211 50.2685 4.12149 51.0616 4.09857C52.3213 4.06038 54.1667 5.21851 54.1667 6.61042V11.8816Z" fill="white"/>
<path d="M55.8442 11.8823V4.62485C55.8442 4.60805 56.0562 4.39567 56.073 4.39567H58.5132C58.6702 4.39567 58.7968 5.14281 58.9707 5.15656C59.1445 5.17031 61.5176 2.9839 61.7997 4.77153C62.3183 8.07176 60.2411 5.8441 59.1339 7.15656C59.0561 7.24823 58.7434 7.92814 58.7434 7.98773V11.6547C58.7434 11.6715 58.5315 11.8838 58.5147 11.8838H55.8458L55.8442 11.8823Z" fill="white"/>
<path d="M44.1011 4.39551H41.356V11.8821H44.1011V4.39551Z" fill="white"/>
<path d="M42.538 0.00397665C44.5252 -0.118254 44.8043 2.61513 43.2304 2.98641C40.5767 3.61284 40.444 0.132319 42.538 0.00397665Z" fill="white"/>
<path d="M20.921 14.6308C20.7929 14.4932 20.9027 13.4069 21.5356 13.7858C22.2753 14.2289 21.1787 14.9058 20.921 14.6308Z" fill="white"/>
<path d="M8.52981 14.7498C8.31172 15.1929 7.51715 15.0844 7.36921 14.5191C7.06724 13.3595 9.17035 13.4466 8.52981 14.7498Z" fill="white"/>
<path d="M14.2854 21.3545L14.3617 21.4309L14.2854 21.5073V21.3545Z" fill="white"/>
<path d="M11.1163 9.91755C12.2753 9.58447 12.0115 11.5845 11.0065 11.0451C10.5444 10.7976 10.6145 10.0627 11.1163 9.91755Z" fill="white"/>
<path d="M17.508 17.5454C18.481 17.1619 18.5039 18.8059 17.6391 18.7203C17.2746 18.6837 17.0306 17.7333 17.508 17.5454Z" fill="white"/>
<path d="M14.9701 6.38093C14.996 6.4176 15.0219 6.84388 14.8953 6.83777C14.5156 6.81791 14.7047 6.00354 14.9701 6.38093Z" fill="white"/>
<path d="M10.9318 17.689C11.5022 17.5286 11.641 18.3353 11.2338 18.4499C10.6634 18.6103 10.5246 17.8036 10.9318 17.689Z" fill="white"/>
<path d="M17.7336 9.75989C18.2903 9.03721 19.399 10.7897 18.2262 10.9501C17.7549 11.0143 17.5597 9.98449 17.7336 9.75989Z" fill="white"/>
</svg>
