<svg width="119" height="31" viewBox="0 0 119 31" fill="none" xmlns="http://www.w3.org/2000/svg">
<path d="M10.7805 29.8981C11.607 28.1706 12.3317 26.3388 12.4476 24.394C12.4643 24.1123 12.5574 22.5906 12.1428 22.678C11.9206 22.7257 11.6105 24.2669 11.506 24.5945C10.9737 26.2655 10.279 27.8968 9.32336 29.3646L7.71338 28.5362C8.25531 27.6256 8.96149 26.6868 9.36289 25.7038C9.39275 25.6314 9.67997 25.0511 9.41998 25.0582C9.22587 25.0635 7.53332 27.8703 6.94483 28.0416C6.78849 28.0814 6.23953 27.6636 6.06562 27.5417C5.83901 27.3828 5.17499 26.9067 5.03007 26.731C4.97649 26.6656 4.93433 26.5738 5.04236 26.549C5.57551 26.3618 8.38354 23.7175 8.32294 23.4287C8.30625 23.3492 8.13322 23.253 8.03397 23.3095L4.34233 26.0191C4.10606 25.899 2.72093 24.2739 2.79383 24.1777C3.96465 23.7158 5.74942 23.1585 6.69714 22.3247C6.88511 22.1596 7.24786 21.8089 6.76478 21.8619L2.40736 23.6363L1.56504 22.1516C3.27516 21.6199 5.08277 21.1465 6.71471 20.4047C7.47974 20.0567 9.50254 19.1143 8.76211 18.0554C8.16923 17.2075 6.31683 17.7357 5.49295 18.0342C3.86188 18.6241 2.27825 19.956 1.17067 21.2702C0.231731 18.8458 -1.13583 15.5347 1.68186 13.8584C4.56367 12.1442 6.691 13.6138 9.4595 14.0987C11.2004 14.4034 12.6751 13.6809 14.3255 13.8832C14.6496 13.9229 16.2613 14.452 16.5986 14.5968C17.1862 14.8485 17.4225 15.7264 16.9666 16.1645C16.7611 16.3623 16.4906 15.9861 16.1796 15.9834C15.6034 15.979 15.1625 16.4877 14.9772 16.9832C14.2807 18.8449 16.0575 20.606 16.7637 22.1799C17.6605 24.1777 17.7677 26.4236 17.1801 28.5291C17.0395 29.0343 16.6654 30.36 16.0944 30.4342C15.5077 30.5101 14.2552 30.4704 13.6333 30.4289C12.6742 30.3644 11.7177 30.0853 10.7796 29.9007L10.7805 29.8981Z" fill="#F6F6F6"/>
<path d="M30.5281 13.871C28.883 13.8684 28.7829 11.5959 28.3577 10.3692C28.1979 9.90815 27.8553 8.57365 27.2519 8.7759C27.0815 8.86422 27.0271 9.0382 27.0359 9.22456C27.0657 9.81276 27.5637 11.2903 27.7447 11.9536C28.2664 13.8666 28.8953 15.7531 29.5628 17.6184C29.3397 18.166 28.5361 17.8675 28.1636 17.6087C26.8136 16.669 26.1259 11.7072 25.2484 9.96556C25.0991 9.6688 24.7381 9.06028 24.3771 9.50541C24.0662 9.8896 24.6275 11.6056 24.7592 12.1285C25.4188 14.7401 26.3367 17.2881 27.1009 19.8547C25.3231 20.4075 24.4711 18.4407 24.0566 17.0602C23.4672 15.0969 23.1993 12.8271 22.4553 10.9176C22.0724 9.93553 21.2916 9.91875 21.4215 10.9865C21.5586 12.1144 22.0847 13.7156 22.3895 14.8593C22.768 16.2804 23.216 17.6811 23.5998 19.1004C22.2814 19.8918 21.5656 18.3638 21.1203 17.3649C20.2059 15.3151 19.7975 13.0196 19.1607 10.877C18.7909 9.63259 18.1515 6.71011 16.4502 6.82934C15.0712 6.92561 15.1977 9.35085 14.8182 10.3939C14.3958 11.5535 13.282 12.5171 12.0076 12.0207C12.0928 11.6639 12.2403 11.3274 12.3159 10.9662C13.102 7.23031 10.8754 -0.744913 17.484 0.0561418C24.364 0.889875 29.9915 6.98213 30.5281 13.871Z" fill="#F6F6F6"/>
<path d="M0.599667 11.6251C0.669055 11.0051 1.1012 9.89844 1.34889 9.29434C3.21359 4.73089 7.62809 0.887238 12.6241 0.397949C11.7659 1.70242 11.2389 3.17382 10.8964 4.69556C10.6074 5.97707 10.5389 7.3893 10.0584 8.60987C8.50643 12.5551 3.5658 10.9344 0.600545 12.9022C0.633043 12.4924 0.55575 12.0269 0.600545 11.6251H0.599667Z" fill="#F6F6F6"/>
<path d="M24.7354 23.7783C25.0015 21.7929 27.7612 20.1828 29.6505 20.3886C27.8438 25.4334 23.2273 29.4104 17.8896 30.162C18.0899 27.7553 20.5651 26.9869 22.6291 26.9039L21.1658 26.3033C18.3499 24.9211 17.9221 21.7469 18.9393 19.0161C20.9867 19.13 22.7056 20.7604 23.6401 22.4985L24.7354 25.3186C24.7811 24.8328 24.6721 24.2481 24.7354 23.7774V23.7783Z" fill="#F6F6F6"/>
<path d="M101.27 16.6006L104.428 22.3246L107.546 16.6006H109.082V26.1117H107.589V19.4189L104.74 24.4451L103.86 24.3497L101.094 19.4189V26.1117H99.6028V16.6006H101.27Z" fill="#F6F6F6"/>
<path d="M80.6009 16.6006L83.7172 22.3246L86.8757 16.6006H88.5437V26.1117H87.0514V19.4189L84.2864 24.3497L83.4054 24.4451L80.557 19.4189V26.1117H79.0647V16.6006H80.6009Z" fill="#F6F6F6"/>
<path d="M104.561 4.35938L109.872 11.1405V4.35938H111.364V13.8705H110.047L104.869 7.26596V13.7389L104.737 13.8705H103.42L103.289 13.7389V4.35938H104.561Z" fill="#F6F6F6"/>
<path d="M59.1415 11.1409V4.35973H60.6337V13.8708H59.361L54.0506 7.178V13.8708H52.5583V4.35973C52.9589 4.41272 53.5649 4.22902 53.882 4.48426L59.1406 11.14L59.1415 11.1409Z" fill="#F6F6F6"/>
<path d="M62.74 13.8705V4.35938H66.9094C67.1721 4.35938 68.2305 4.72678 68.5054 4.87163C72.2295 6.83761 71.0947 13.8705 66.559 13.8705H62.7409H62.74ZM64.2314 5.68063V12.4176L64.3631 12.5501H66.3816C69.4417 12.5501 70.2673 7.31454 67.5576 5.9977C67.4329 5.93764 66.7232 5.68063 66.6451 5.68063H64.2314Z" fill="#F6F6F6"/>
<path d="M96.8632 4.29797C103.17 3.70977 103.57 14.5713 96.5751 13.87C91.5405 13.3648 91.3534 4.81111 96.8632 4.29797ZM96.6849 5.70401C93.4412 6.17917 93.4061 12.2211 96.9255 12.5488C101.374 12.9639 101.331 5.02219 96.6849 5.70401Z" fill="#F6F6F6"/>
<path d="M61.686 16.6006V20.5635H66.4255V16.6006H67.9178V26.1117H66.4255V21.8847H61.686V26.1117H60.1946V16.6006H61.686Z" fill="#F6F6F6"/>
<path d="M43.869 4.35938V9.51103C43.869 10.0692 44.201 11.1988 44.533 11.6634C45.5211 13.0473 47.8399 12.8071 48.6234 11.288C48.7613 11.0213 49.0468 10.1302 49.0468 9.86343V4.35938H50.5391V10.1275C50.5391 10.7449 49.9629 12.0926 49.5711 12.5916C48.2422 14.2865 44.9344 14.3748 43.5203 12.7674C42.9511 12.1209 42.3767 10.6336 42.3767 9.77599V4.36026H43.869V4.35938Z" fill="#F6F6F6"/>
<path d="M36.3216 22.7653V26.1117H34.8293V16.6006H39.2614C39.4063 16.6006 40.0765 16.9247 40.2443 17.0236C42.0124 18.0711 42.2082 20.8805 40.614 22.185C40.4621 22.3095 39.6628 22.7653 39.5249 22.7653H36.3216ZM36.3216 21.444H39.1745C39.2351 21.444 39.4529 21.2409 39.5276 21.1817C40.3435 20.5317 40.4445 19.0983 39.7041 18.3581C39.5838 18.238 39.0366 17.921 38.911 17.921H36.3216V21.444Z" fill="#F6F6F6"/>
<path d="M110.223 26.112L114.037 16.5947L115.411 16.653L119 26.112H117.42L116.546 23.5984H112.765L111.891 26.112H110.223ZM116.103 22.4132L114.655 18.3611L113.206 22.4132H116.103Z" fill="#F6F6F6"/>
<path d="M69.1466 26.112L72.7548 16.6115L74.1083 16.5947L77.9229 26.112H76.255L75.381 23.5984H71.5998L70.7259 26.112H69.1458H69.1466ZM74.9392 22.4132L73.4478 18.362L72.0425 22.4132H74.9392Z" fill="#F6F6F6"/>
<path d="M41.4993 26.112L45.1066 16.6097L46.4618 16.5947L50.2765 26.112H48.7402L47.8101 23.5675L43.9718 23.5737L43.0794 26.1129H41.4993V26.112ZM47.2928 22.4132L45.8013 18.362L44.396 22.4132H47.2928Z" fill="#F6F6F6"/>
<path d="M98.462 26.1119H96.8819L96.0141 23.6098L92.1547 23.5701L91.2649 26.1119H89.6848L93.3677 16.6414C93.7023 16.6123 94.6658 16.4789 94.8556 16.7403L98.462 26.1119ZM95.5653 22.4131L94.1599 18.3619L92.5807 22.4131H95.5644H95.5653Z" fill="#F6F6F6"/>
<path d="M79.7665 13.8707H78.1864L77.2229 11.2714H73.5339L72.5704 13.8707H70.9902L74.6731 4.40021C75.0077 4.37106 75.9713 4.2377 76.161 4.49913L79.7674 13.8707H79.7665ZM73.8861 10.1719H76.8698L75.4205 6.12067L73.8852 10.1719H73.8861Z" fill="#F6F6F6"/>
<path d="M57.3964 19.321C56.7218 17.7869 54.5726 17.4777 53.3069 18.4528C51.3789 19.9374 51.6214 23.5329 53.8752 24.5707C55.1505 25.158 56.9344 24.6228 57.4772 23.2971L58.7851 23.9189C58.5725 24.7164 57.8127 25.3523 57.0951 25.6888C52.7105 27.7404 48.8801 22.7725 51.1181 18.8105C52.7289 15.9587 56.8712 15.6495 58.6041 18.5111C58.6322 18.6833 57.5466 19.4102 57.3964 19.321Z" fill="#F6F6F6"/>
<path d="M86.8803 7.08614C86.1004 5.22437 83.4513 5.22967 82.2656 6.73551C80.371 9.14132 82.2374 13.4893 85.5189 12.3773C85.829 12.2722 86.341 11.987 86.5676 11.7565C86.7345 11.5869 86.8628 11.2416 87.0042 11.1329C87.2413 10.9519 88.0081 11.563 88.2734 11.722C88.0265 12.4754 87.3379 13.083 86.6458 13.4195C82.0381 15.661 78.0935 9.99979 80.9226 6.09166C82.6784 3.66642 86.6792 3.56132 88.0933 6.32924C87.958 6.50499 87.0252 7.1877 86.8803 7.08525V7.08614Z" fill="#F6F6F6"/>
<path d="M41.0611 4.35938V5.68063H36.3216V8.4989H40.3585V9.73183H36.3216V13.8705H34.8293V4.35938H41.0611Z" fill="#F6F6F6"/>
<path d="M91.1771 4.35938H89.6848V13.8705H91.1771V4.35938Z" fill="#F6F6F6"/>
<path d="M16.3745 10.7162C17.5954 10.4645 18.2418 12.8712 16.7855 13.0752C15.3293 13.2792 15.3837 10.9202 16.3745 10.7162Z" fill="#F6F6F6"/>
<path d="M19.7036 17.8922C19.3145 18.2914 18.6391 18.2613 18.2886 17.8303C17.6026 16.986 18.4634 15.1746 19.5157 16.0701C19.9671 16.4543 20.1481 17.4356 19.7036 17.8922Z" fill="#F6F6F6"/>
<path d="M9.31807 11.435C10.4485 10.3019 11.4173 12.0224 10.5917 13.0212C9.69575 14.1049 8.18238 12.5735 9.31807 11.435Z" fill="#F6F6F6"/>
<path d="M98.988 1.5415L97.8313 3.28846L96.7939 3.03763L97.6275 1.5415H98.988Z" fill="#F6F6F6"/>
</svg>
