<svg width="64" height="53" viewBox="0 0 64 53" fill="none" xmlns="http://www.w3.org/2000/svg">
<path d="M32.4693 0V3.50281L32.9942 4.73511L34.1274 1.96801L34.2142 1.88426L34.4678 1.97975L33.2416 5.0787L33.3761 5.51778L37.1019 1.29883C37.2211 1.26283 37.3708 1.32348 37.3822 1.4311L33.6612 5.71344L34.1837 5.6927L37.4537 3.75561C37.54 3.74505 37.6549 3.93915 37.5968 3.99237L34.6628 5.75258L36.2008 5.78271L40.3381 4.71281C40.4582 4.89595 40.4749 4.91787 40.2537 5.00044C39.079 5.43951 37.5066 5.62422 36.2981 6.05782L35.1877 6.80956H38.6918C38.709 6.80956 38.7691 6.84948 38.8034 6.85535C38.8263 7.0248 38.8678 7.09563 38.6408 7.11872C37.4532 7.23886 35.9968 7.03888 34.7801 7.12067L34.3782 7.33786L40.289 8.94193L40.4253 9.0245L40.3071 9.23308L34.2347 7.63136L34.4225 8.04422L37.6168 9.96526L37.5176 10.1695L37.3827 10.1543L34.4726 8.45316L34.8826 9.62285L37.3565 12.4068C37.4447 12.5547 37.2845 12.6768 37.1028 12.633L34.6414 9.82086L33.3999 9.15716L34.4664 11.9239C34.484 12.0045 34.2481 12.0675 34.1866 12.0362C34.0178 11.9509 33.1229 9.30352 32.9375 8.94976L32.4707 8.68717V13.6375L32.5422 13.6962H42.5302V34.2216C42.5302 34.6524 41.8794 35.1619 41.3488 35.1694C38.8353 35.304 36.1307 35.0273 33.6397 35.1811C33.1396 35.212 32.5113 35.2942 32.5394 35.8076L32.0417 35.8069C32.198 35.3005 31.4767 35.212 31.0162 35.1811C28.539 35.0152 25.8029 35.3075 23.2985 35.1764C22.8671 35.1158 22.4966 34.9592 22.2902 34.6344C22.263 34.5914 22.1252 34.3182 22.1252 34.3002V13.6966H32.137V8.68757L31.7189 8.95093C31.4943 9.29648 30.6367 11.9497 30.4689 12.0358C30.3692 12.0867 30.1485 11.9982 30.1895 11.8871L31.2078 9.15755L29.9664 9.86078L27.5607 12.5817C27.4587 12.7273 27.186 12.5457 27.2475 12.4455L29.7614 9.61424L30.1337 8.45277L27.2722 10.1551C27.1388 10.2185 27.0773 10.1167 27.042 10.0283L27.0563 9.94022L30.2319 8.04422L30.4197 7.63136L24.3464 9.23073C24.2711 9.21625 24.1896 9.05777 24.243 9.00024L30.229 7.39617C30.1942 7.24472 29.9978 7.13828 29.8248 7.12146C28.6505 7.00836 27.1893 7.23729 26.0131 7.11832C25.9659 7.11363 25.853 7.09876 25.841 7.05728L25.8506 6.85496C25.8849 6.84909 25.9445 6.80917 25.9621 6.80917H29.4186L28.2853 6.03708C27.8286 5.85119 24.3564 5.07949 24.243 4.93156C24.1891 4.86151 24.2721 4.69676 24.3793 4.70224L28.4536 5.78193L29.943 5.75258L27.0787 4.0135C26.9829 3.94228 27.082 3.75522 27.2003 3.75561L30.4398 5.67744L30.9437 5.71305L27.247 1.48589C27.1874 1.4174 27.3647 1.29061 27.4401 1.28983L31.2774 5.51778L31.4109 5.11627L30.1861 1.98249C30.2138 1.90266 30.4674 1.82204 30.5065 1.94453L31.6588 4.69598C31.7294 4.36531 32.0903 3.93601 32.1375 3.62099C32.2858 2.62662 32.096 1.26322 32.1341 0.213276C32.137 0.138923 32.1299 0.0653524 32.1837 0H32.4698L32.4693 0ZM32.3739 6.77004C32.7177 6.47067 33.0042 6.11847 33.2764 5.77332C33.0204 5.21606 32.7792 4.65059 32.5055 4.0992C32.4793 4.04637 32.4474 3.92271 32.3744 3.91332V6.77004H32.3739ZM32.2309 6.77004V3.95245L31.3742 5.7698L31.4276 5.88367L32.2314 6.76965L32.2309 6.77004ZM31.2674 5.87859L29.6784 5.90754L28.7988 5.98698L32.0879 6.84791L31.2674 5.87859ZM35.8542 5.94863L33.4071 5.87624L32.5651 6.84791L35.8542 5.94824V5.94863ZM32.0402 6.9661L28.7511 6.10517L30.5976 7.35117C30.6867 7.37113 31.5249 7.13867 31.6955 7.09367C31.7937 7.06784 31.9883 7.04045 32.0402 6.96649V6.9661ZM35.9019 6.10517L32.5651 7.00445C33.059 7.0788 33.5148 7.29403 34.0078 7.35117L34.3515 7.1602L35.9019 6.10517ZM32.0879 7.12263L30.6681 7.48305L30.086 9.39196L32.0879 7.12263ZM34.5665 9.39196L33.9692 7.51513C33.5329 7.3269 33.0295 7.25607 32.5651 7.12263L34.5665 9.39235V9.39196ZM32.2309 8.45277V7.2005L30.2286 9.46984L32.2309 8.45277ZM32.3739 7.2005V8.39407L34.4245 9.4894L32.3739 7.2005ZM32.1356 14.1271H22.6482V23.9495H29.3943C29.8081 22.977 30.8512 22.2269 32.1356 22.1885V14.1271ZM42.0043 14.1271H32.4693V22.032C32.7758 21.9878 33.0128 21.8672 33.3036 22.032C33.4824 22.1333 33.5482 22.3133 33.6855 22.4229C33.8342 22.5419 34.1251 22.6503 34.3038 22.7763C34.7153 23.0671 35.0771 23.5104 35.1873 23.9491H42.0048V14.1267L42.0043 14.1271ZM34.1689 23.1805C36.0564 24.7662 34.0287 27.4003 31.4424 26.6513C29.0748 25.9653 29.2312 23.0964 31.7141 22.6057C31.8676 22.5755 32.5093 22.5626 32.4688 22.4041C32.4283 22.2456 31.5864 22.4092 31.4309 22.4511C29.0295 23.0987 28.8174 25.8858 31.1172 26.7612C33.8671 27.8076 36.4292 25.0315 34.4702 23.1481C34.1723 22.8616 33.8414 22.7728 33.5634 22.5618C33.2617 22.3325 33.1496 21.8481 32.5656 22.2468C32.6586 22.3407 32.8297 22.401 32.803 22.5403C32.7086 22.5423 32.6328 22.5094 32.66 22.6186C33.2297 22.6397 33.7723 22.8471 34.1689 23.1801V23.1805ZM32.1356 22.7368C30.4846 22.7857 29.5058 24.2571 30.1337 25.4757L32.1356 22.7368ZM32.517 22.7368L34.4478 25.4749C35.0995 24.5823 34.4278 23.1915 33.2321 22.8733C33.0009 22.8119 32.7492 22.7959 32.517 22.7368ZM32.3735 22.8146L32.2748 22.8393L31.3728 24.1448C31.9997 23.91 32.6819 23.8564 33.2793 24.1843L32.373 22.8146H32.3735ZM32.2667 24.1158C31.3995 24.1581 31.42 25.3708 32.5389 25.1998C33.2016 25.0985 33.1611 24.0724 32.2667 24.1158ZM29.3227 24.2234H22.6482V34.222C22.6482 34.4572 23.1398 34.7749 23.4354 34.7499C25.9316 34.8684 28.641 34.5937 31.112 34.7491C31.4553 34.7706 31.83 34.8587 32.1351 34.9855V27.1197C30.3501 27.0864 29.0353 25.6502 29.3223 24.2238L29.3227 24.2234ZM31.6583 25.1235C31.5187 24.8711 31.4257 24.695 31.5387 24.4183C31.5701 24.3416 31.6698 24.308 31.6583 24.2234C31.6302 24.198 31.0371 24.5612 31.0371 24.6735C31.0371 24.7815 31.6293 25.1517 31.6583 25.1235ZM42.0043 24.2234H35.3298V25.0257C35.3298 25.0761 35.2182 25.3818 35.1882 25.4573C34.8283 26.3691 33.7236 27.088 32.548 27.1252L32.4693 27.178V34.9851C32.8111 34.8649 33.1644 34.7714 33.5401 34.7487C36.0025 34.6 38.6842 34.8634 41.1695 34.7499C41.4298 34.7283 41.7416 34.6239 41.8818 34.4345C41.9004 34.4094 42.0043 34.1965 42.0043 34.1828V24.2234ZM32.9937 25.084C33.059 25.1345 33.6035 24.785 33.6154 24.6735C33.6154 24.5365 32.9527 24.1757 32.9942 24.2817C33.213 24.513 33.1859 24.8457 32.9942 25.084H32.9937ZM30.3716 25.5931H34.2809L33.8037 24.8496L33.0891 25.2601C32.5532 25.4444 32.0235 25.4428 31.4982 25.2358C31.2379 25.1333 31.1044 24.9693 30.8731 24.8488L30.3721 25.5927L30.3716 25.5931ZM34.2809 25.7496H30.3716C31.2498 26.897 33.3894 26.8896 34.2809 25.7496Z" fill="white"/>
<path d="M63.9825 41.3251C64.0054 41.529 64.0064 41.9047 63.9825 42.1078C63.6822 44.6432 60.4474 44.581 58.0942 44.4949C58.0303 44.4926 57.8954 44.5274 57.9273 44.4366C57.9545 44.3591 58.3602 44.5481 58.4045 44.2022C58.2634 42.6228 58.5919 40.8215 58.4074 39.2683C58.3969 39.1798 58.394 39.1051 58.2882 39.0531C58.1304 38.976 57.9016 39.0832 57.9278 38.9384C59.7223 38.9861 62.2562 38.6179 63.4214 40.0443C63.6941 40.3781 63.9372 40.9256 63.9825 41.3251ZM59.2708 39.453L59.286 43.9866C59.4124 44.1963 60.6133 44.0879 60.8865 44.0468C62.6548 43.7796 63.2097 42.6764 63.0786 41.304C63.0056 40.5401 62.4173 39.8318 61.5506 39.545C60.9013 39.3301 59.9177 39.2143 59.2713 39.453H59.2708Z" fill="white"/>
<path d="M44.5316 44.4941C44.4496 44.4432 44.5382 44.4232 44.6026 44.4166C44.758 44.4001 44.8825 44.4448 44.9831 44.2976L45.0088 39.269C45.0021 39.1403 44.933 39.0581 44.7833 39.0236C44.6741 38.9986 44.4934 39.0679 44.5316 38.9372C46.3418 38.9923 48.6307 38.6182 49.9174 39.9358C50.8323 40.8727 50.8137 42.6787 49.8216 43.5733C48.4791 44.7837 46.3184 44.4475 44.5311 44.4937L44.5316 44.4941ZM45.8741 39.4525L45.8894 43.9861C45.9861 44.1466 46.8205 44.116 47.0336 44.1023C48.9978 43.9779 49.8292 42.8888 49.6819 41.3427C49.5827 40.3033 48.7203 39.5715 47.4898 39.3852C46.983 39.3085 46.3427 39.2588 45.8746 39.4522L45.8741 39.4525Z" fill="white"/>
<path d="M14.0905 47.351C15.6695 47.4758 16.9477 48.388 17.0721 49.717C17.3596 52.792 14.1888 53.1032 11.2277 52.9098C11.1442 52.9044 11.0441 52.9173 11.0155 52.83L11.4331 52.7811C11.4846 52.6926 11.5285 52.596 11.5404 52.497C11.722 51.0068 11.4021 49.2759 11.5418 47.7603C11.538 47.6785 11.5056 47.5142 11.4255 47.4645C11.2982 47.3862 11.0861 47.4887 11.016 47.3506C12.0038 47.4077 13.118 47.2739 14.091 47.3506L14.0905 47.351ZM13.0088 47.7145C12.8829 47.72 12.5125 47.7599 12.4415 47.8366L12.3981 52.3404C12.4472 52.558 13.1585 52.5267 13.3749 52.5162C15.3234 52.4199 16.3518 51.4373 16.2116 49.8363C16.0848 48.3888 14.7036 47.6425 13.0088 47.7145Z" fill="white"/>
<path d="M32.5884 38.9376C33.4241 39.001 34.3114 39.3869 34.4186 40.1355C34.5068 40.7483 34.279 41.241 33.5982 41.5279C33.3269 41.6421 33.0304 41.6734 32.7562 41.7752C33.7255 42.4134 34.4101 43.2748 34.9946 44.1635L35.3297 44.4949H34.1855C33.8141 43.7569 33.2859 43.0564 32.6137 42.4784C32.5298 42.406 31.9238 41.9121 31.8733 41.9121H31.1343V44.2797C31.1343 44.3803 31.4962 44.4562 31.6106 44.4171V44.4949H29.7994C29.7622 44.3638 29.942 44.4335 30.0516 44.4085C30.2013 44.374 30.2704 44.2918 30.2771 44.1631C30.1446 42.6009 30.4507 40.8473 30.2785 39.3082C30.2623 39.1623 30.2437 39.0691 30.0516 39.0249C29.9424 38.9995 29.7622 39.0695 29.7994 38.9384C30.6981 38.9885 31.7021 38.8711 32.5884 38.9384V38.9376ZM31.1343 41.5204H31.8733C32.0335 41.5204 32.5288 41.4242 32.6928 41.3713C33.8289 41.0054 33.9214 39.6651 32.6623 39.3861C32.4392 39.3368 31.1348 39.2468 31.1348 39.4659V41.5204H31.1343Z" fill="white"/>
<path d="M34.4239 47.3516V47.4294C34.2718 47.3911 33.9471 47.4584 33.9471 47.6059V49.8561H37.2367V47.6842C37.2367 47.3531 36.8834 47.5014 36.7123 47.3516H38.5716C38.6002 47.5093 38.277 47.377 38.154 47.4784C38.1111 47.5136 38.1015 47.5942 38.0949 47.6447C38.2374 49.2229 37.9056 51.027 38.092 52.5782C38.1206 52.8173 38.2198 52.7778 38.4548 52.8298C38.5325 52.847 38.595 52.7883 38.5716 52.9085H36.7123C36.6889 52.7883 36.7509 52.847 36.8291 52.8298C36.9878 52.7946 37.2367 52.7641 37.2367 52.5758V50.2474H33.9471V52.6541C33.9471 52.7836 34.2899 52.8533 34.4239 52.8302V52.9085H32.6122C32.5898 52.795 32.6427 52.8443 32.7228 52.8251C32.9502 52.7707 33.0551 52.8208 33.0899 52.5766C32.9483 51.0093 33.2754 49.2229 33.0923 47.6818C33.0818 47.5934 33.079 47.5187 32.9731 47.4666C32.8153 47.3891 32.587 47.4971 32.6127 47.3516H34.4244H34.4239Z" fill="white"/>
<path d="M8.63176 38.9375L12.3504 43.3987V39.231C12.3504 39.0866 12.0629 39.0428 11.9428 39.0162C11.8651 38.9989 11.8026 39.0576 11.826 38.9375H13.4469V39.0158C13.3301 38.9747 12.9225 39.105 12.9225 39.1919V44.5335L12.3599 44.5253L8.39339 39.8767V44.24C8.39339 44.4271 8.85726 44.3723 8.91781 44.4944H7.29686C7.25967 44.3641 7.43893 44.4322 7.54906 44.4079C7.7083 44.3727 7.81604 44.2616 7.82224 44.1234C7.68637 42.6321 7.99959 40.9302 7.82367 39.4638C7.8108 39.3558 7.74119 39.1754 7.65204 39.096C7.51044 38.97 7.29638 39.087 7.29686 38.9375H8.63176Z" fill="white"/>
<path d="M50.5381 44.4937C50.5157 44.3908 50.5567 44.433 50.6063 44.4119C50.7875 44.3352 50.9257 44.2969 51.0092 44.1172L53.6318 38.9219L54.2511 38.9023L56.9728 44.2792C57.0472 44.3818 57.3295 44.3602 57.3075 44.4937H55.4959C55.4711 44.3708 55.5407 44.4338 55.6131 44.4154C55.7524 44.3806 55.904 44.3833 55.9016 44.2155L55.2103 42.8294L52.201 42.8348C52.1243 43.1197 51.4492 44.1145 51.6099 44.3376C51.6995 44.462 51.9846 44.3399 51.9679 44.4937H50.5377H50.5381ZM52.3975 42.4196H55.0673L53.709 39.7973L52.3975 42.4196Z" fill="white"/>
<path d="M22.4099 47.3516V48.1734H22.2678C22.2745 47.9957 22.0895 47.7429 21.8616 47.7429H19.2633V49.817H21.4326C21.7234 49.817 21.9589 49.6315 21.9336 49.3861H22.0762V50.6387H21.9336C21.9823 50.5088 21.7725 50.2083 21.6233 50.2083H19.2633V52.4193C19.3492 52.5042 19.4474 52.5097 19.5709 52.5191C20.0395 52.5543 21.4879 52.5629 21.9036 52.4737C22.1472 52.4213 22.3026 52.2984 22.4495 52.1395C22.5572 52.0229 22.489 51.8832 22.7431 51.9309L22.5048 52.9089H17.928C17.9041 52.7919 17.9652 52.847 18.0395 52.8267C18.1406 52.7989 18.2526 52.7903 18.3456 52.7429C18.3761 52.678 18.3957 52.6068 18.4042 52.5367C18.5825 51.0136 18.2708 49.2687 18.4071 47.7218C18.4114 47.6404 18.3718 47.5144 18.2893 47.4662C18.1425 47.3809 17.9003 47.5042 17.9284 47.3516H22.4099Z" fill="white"/>
<path d="M52.7789 47.3516V48.1734H52.6368C52.6483 47.9918 52.4623 47.7429 52.2306 47.7429H49.6323V49.817H51.8015C52.0938 49.817 52.3398 49.6393 52.3026 49.3861H52.4452V50.6387H52.3026C52.3512 50.5088 52.1415 50.2083 51.9922 50.2083H49.6323V52.4193C49.7181 52.5042 49.8163 52.5097 49.9398 52.5191C50.3937 52.5531 51.9222 52.5621 52.3131 52.4678C52.4165 52.4428 52.6025 52.3583 52.6788 52.2984C52.755 52.2385 52.9891 51.8343 53.1121 51.9305L52.8738 52.9085H48.2969C48.2745 52.7954 48.327 52.8439 48.4076 52.8251C48.6726 52.7625 48.7384 52.8177 48.7737 52.5367C48.962 51.0246 48.6316 49.2605 48.7761 47.7218C48.7804 47.6404 48.7408 47.5144 48.6583 47.4662C48.5115 47.3809 48.2693 47.5042 48.2974 47.3516H52.7789Z" fill="white"/>
<path d="M28.7506 38.9375V39.7984C28.5494 39.7824 28.6138 39.5801 28.4674 39.4634C28.424 39.429 28.1942 39.3288 28.1547 39.3288H25.6756L25.6041 39.3875V41.4029H27.964C28.1342 41.4029 28.311 41.152 28.2743 41.0112H28.4169V42.2247H28.2743C28.2982 41.9926 28.1099 41.7942 27.8209 41.7942H25.6041V44.0052C25.6041 44.0549 25.7533 44.098 25.8162 44.105C26.261 44.1543 27.646 44.1442 28.1017 44.0988C28.3759 44.0714 28.6076 43.9685 28.7716 43.7877C28.8688 43.6804 28.8727 43.4848 29.0843 43.5165L28.8464 44.4944H24.2696C24.2324 44.3633 24.4122 44.433 24.5218 44.4079C24.714 44.3637 24.7326 44.2706 24.7488 44.1246C24.9209 42.5855 24.6148 40.8315 24.7473 39.2697C24.714 39.0338 24.61 39.0655 24.3864 39.0165C24.3082 38.9993 24.2467 39.0576 24.2701 38.9379H28.7516L28.7506 38.9375Z" fill="white"/>
<path d="M1.86189 38.9375C1.8905 39.0952 1.56726 38.9629 1.44378 39.0643C1.39325 39.1535 1.34891 39.249 1.33699 39.3484C1.23306 40.2019 1.26738 41.7629 1.33508 42.6375C1.40135 43.4891 1.80707 44.1223 2.9322 44.1833C4.02443 44.2428 4.91834 43.8268 5.00988 42.872C5.11953 41.7269 4.92358 40.4664 5.00892 39.3089C4.99986 39.0866 4.80678 39.0666 4.6013 39.0158C4.52836 38.9978 4.45923 39.0608 4.48354 38.9379H6.10449C6.14168 39.0682 5.9629 39.0005 5.85229 39.0244C5.67494 39.0635 5.60867 39.1703 5.58436 39.3132C5.32358 41.2608 6.67421 44.6842 2.93172 44.6138C-0.595756 44.5476 0.745343 41.0534 0.477886 39.193C0.469304 39.1285 0.418292 39.0897 0.353931 39.06C0.202324 38.9895 -0.0241322 39.0721 0.00208904 38.9379H1.86142L1.86189 38.9375Z" fill="white"/>
<path d="M39.8689 38.9474C39.9094 38.9278 39.9576 38.94 40.0019 38.9372L40.0973 40.1507C39.9066 40.1895 39.8961 39.9801 39.8031 39.8639C39.6458 39.6678 39.4036 39.4921 39.1462 39.3857C38.278 39.0264 36.9979 39.2972 37.141 40.249C37.283 41.1929 40.2127 41.4934 40.3833 42.9096C40.5383 44.1952 38.9989 44.7461 37.6549 44.5622C37.4327 44.5317 36.69 44.3036 36.5569 44.374C36.4921 44.4084 36.5012 44.5164 36.3796 44.4937L36.3319 43.281C36.4187 43.265 36.4254 43.3029 36.4664 43.3464C36.5851 43.4716 36.6742 43.652 36.8253 43.7756C37.7717 44.5524 39.734 44.3012 39.5133 43.0364C39.3145 41.8953 36.3376 41.8061 36.35 40.2024C36.3553 39.5317 36.9955 39.0206 37.7603 38.877C38.4601 38.7455 39.0308 38.9157 39.693 39.0781C39.826 39.0742 39.8403 38.9611 39.8699 38.947L39.8689 38.9474Z" fill="white"/>
<path d="M19.4062 38.9375C19.4334 39.0889 19.1521 38.9668 19.0239 39.0733C18.9957 39.0968 18.9762 39.1199 18.9748 39.1539L21.051 43.5165L23.0005 39.3218C23.0805 39.0886 22.9194 39.0839 22.713 39.0197C22.6429 38.9982 22.5752 39.0569 22.6005 38.9379H24.0307C24.0517 39.058 23.8872 39.0072 23.7714 39.0972C23.7118 39.1437 23.6326 39.2748 23.5926 39.3417L21.123 44.5543L20.7721 44.5668L18.0976 39.2881C18.0561 39.2251 17.9989 39.1566 17.9302 39.1124C17.8129 39.0369 17.6213 39.0549 17.6418 38.9383H19.4058L19.4062 38.9375Z" fill="white"/>
<path d="M31.7541 48.4278C31.7507 48.4481 31.704 48.5378 31.6826 48.5648C30.638 47.0519 28.0354 47.4401 27.3937 49.0363C26.8745 50.3265 27.2912 52.1881 29.1391 52.5309C29.9548 52.6823 31.2077 52.6256 31.8962 52.2045L31.8976 52.3791C31.1496 52.9011 30.1694 53.0514 29.2039 52.9864C25.0553 52.7082 25.2269 46.8832 30.1508 47.2393C30.525 47.2663 31.1124 47.4714 31.3975 47.4698C31.4537 47.4698 31.5024 47.46 31.5529 47.4405C31.6659 47.3974 31.6168 47.2886 31.7536 47.3125C31.7117 47.66 31.8103 48.0912 31.7536 48.4278H31.7541Z" fill="white"/>
<path d="M44.8648 47.3516C44.8891 47.5124 44.6021 47.3735 44.4553 47.4654C44.3842 47.5101 44.3504 47.6501 44.3404 47.7233L44.348 52.4127C44.3642 52.453 44.4033 52.4714 44.4467 52.4882C44.5968 52.5457 46.2316 52.5348 46.5115 52.5187C46.7951 52.5023 47.0941 52.4737 47.3191 52.3207C47.4984 52.1986 47.5565 52.0065 47.6547 51.9309C47.7143 51.8851 47.7401 51.8832 47.8206 51.8914L47.5346 52.9085H43.0055C42.9821 52.7883 43.0445 52.847 43.1223 52.8298C43.3573 52.7778 43.4565 52.8173 43.4851 52.5782C43.6715 51.0266 43.3401 49.2229 43.4822 47.6447C43.4755 47.5942 43.466 47.5136 43.4231 47.4784C43.3001 47.377 42.9768 47.5093 43.0055 47.3516H44.8648Z" fill="white"/>
<path d="M41.766 47.351C41.8456 47.4003 41.7612 47.4222 41.6949 47.4289C41.4728 47.4512 41.2468 47.3764 41.2415 47.6437C41.3831 49.2227 41.0532 51.0248 41.2387 52.5772C41.2706 52.8457 41.4375 52.7936 41.694 52.8304C41.7741 52.8418 41.775 52.8065 41.7655 52.9075H39.8108C39.7722 52.7819 39.9824 52.8386 40.1002 52.8124C40.3948 52.7463 40.3691 52.4903 40.3853 52.2638C40.4735 51.0123 40.4964 49.1198 40.3824 47.8793C40.3672 47.7126 40.3686 47.475 40.1579 47.4375C40.0325 47.4152 39.7727 47.4844 39.8108 47.3506H41.7655L41.766 47.351Z" fill="white"/>
<path d="M43.2915 38.9375C43.2991 39.0346 43.3039 39.0048 43.22 39.015C42.7771 39.067 42.7547 39.0056 42.7175 39.4251C42.5835 40.9286 42.8214 42.5655 42.7203 44.0831C42.7575 44.2573 42.7404 44.379 42.9849 44.4138C43.0989 44.4298 43.3311 44.3602 43.2915 44.4948H41.3368C41.3168 44.3426 41.5771 44.4623 41.7449 44.3797C41.7797 44.3625 41.8102 44.3254 41.8364 44.2984L41.8603 39.193C41.8517 39.1285 41.8002 39.0897 41.7363 39.06C41.5704 38.9829 41.3168 39.0792 41.3368 38.9379H43.2915V38.9375Z" fill="white"/>
<path d="M16.5935 38.9375C16.6321 39.0709 16.4114 38.9993 16.2936 39.024C16.1448 39.0549 16.0738 39.1437 16.0681 39.2693C16.1997 40.8323 15.896 42.5839 16.0667 44.1246C16.0762 44.2111 16.09 44.325 16.1844 44.3801C16.3398 44.4705 16.6154 44.3359 16.593 44.4948H14.686C14.6474 44.361 14.8681 44.433 14.9859 44.4083C15.1565 44.3723 15.2171 44.2635 15.2128 44.125C15.0664 42.5878 15.4011 40.8194 15.2104 39.31C15.1933 39.1754 15.1627 39.0576 14.9859 39.0248C14.8681 39.0029 14.6474 39.0694 14.6865 38.9379H16.5935V38.9375Z" fill="white"/>
<path d="M37.0223 20.3099C36.5465 20.245 36.4106 19.8215 36.495 19.4858C36.5475 19.2772 36.8297 19.1081 36.7057 18.9262C36.5603 18.7129 36.2752 18.7779 36.0426 18.7266C35.1425 18.5278 35.0199 17.9968 34.946 17.3178C34.9255 17.1315 35.0137 17.0599 34.9098 16.8795C34.8683 16.8075 34.3062 16.1469 34.2605 16.1195C34.0631 16.0025 33.5806 16.217 33.4457 15.8104C33.2226 15.1377 34.8412 14.4482 35.1506 15.0759C35.2979 15.3744 35.0185 15.5341 35.0519 15.6629C35.0581 15.6879 35.3704 16.082 35.4013 16.0828C35.829 15.5768 36.936 15.7141 37.0418 16.3414C37.0757 16.5414 37.0118 17.1934 36.6867 17.2196C36.525 17.2325 36.1017 16.8932 36.198 17.1124C36.3057 17.3573 36.7424 17.686 36.865 17.9537C37.388 17.9463 37.9787 17.9885 38.0835 18.4996C38.1479 18.8143 37.8394 19.1109 37.8757 19.215C37.9953 19.5578 38.4158 19.3132 38.7601 19.5093C39.2683 19.7992 38.7157 20.261 38.7372 20.3091C39.0938 20.697 39.377 21.1118 39.6959 21.5195C40.022 21.9363 40.9817 22.9667 41.0256 23.3964C41.0313 23.4523 41.0265 23.5329 40.9321 23.5192C40.4702 23.4515 40.0201 22.6438 39.6916 22.3844C39.644 22.5073 39.6182 22.9338 39.4056 22.9334C39.2349 22.9334 39.1715 22.6348 39.0881 22.5276C39.0046 22.4204 38.8339 22.3456 38.7748 22.2368C38.6742 22.0517 38.7715 21.8541 38.6409 21.6815C38.4144 21.3833 37.8242 21.4796 37.623 21.0691C37.47 20.7572 37.6325 20.5342 37.8566 20.29C37.8247 20.2277 37.7465 20.3099 37.7379 20.3099C37.531 20.3099 37.2082 20.3354 37.0228 20.3099H37.0223ZM34.936 15.0759C34.527 14.7166 33.3013 15.484 33.687 15.8472C33.83 15.9818 34.0774 15.9008 34.2562 15.9278C34.435 15.9548 34.782 16.476 34.9346 16.6208C34.9637 16.6482 34.9327 16.6948 35.0433 16.6705L35.2316 16.2201L34.8126 15.6629C34.783 15.5615 35.1668 15.2778 34.9365 15.0759H34.936ZM37.8085 18.9403C37.8781 18.7239 37.9558 18.6127 37.8275 18.3967C37.5782 17.9764 36.8616 18.21 36.414 18.1482C35.706 18.0508 35.6788 17.0857 36.2185 16.7911L36.6657 17.0447C37.0323 16.6338 36.8888 15.9239 36.1641 15.9239C35.0986 15.9239 34.9689 17.5866 35.3675 18.1463C35.8009 18.7552 36.6762 18.5611 37.3822 18.5665C37.583 18.6194 37.612 18.7739 37.7017 18.8898C37.7317 18.9285 37.6969 18.9594 37.808 18.9399L37.8085 18.9403ZM36.6171 17.9615L36.1169 17.2967C35.9167 17.5675 36.1932 18.0249 36.6171 17.9615ZM37.8089 19.4486C37.7041 19.35 37.3613 18.8017 37.2855 18.7638C37.2097 18.7258 36.8745 18.7246 36.8554 18.8045C37.1134 19.0592 37.315 19.6447 37.8089 19.4486ZM36.8564 19.2142C36.7467 19.4697 36.5517 19.6787 36.7405 19.9542C37.0128 20.3506 37.9324 20.063 38.3596 20.0344C38.4893 20.0258 38.6566 20.1366 38.7381 19.9969C38.8196 19.8572 38.7615 19.6846 38.5841 19.6149C38.1679 19.4506 37.7184 19.7362 37.3298 19.6681C36.9613 19.6036 37.1958 19.2929 36.8559 19.2146L36.8564 19.2142ZM38.4669 20.2399C38.4368 20.2254 38.0993 20.1917 38.1431 20.2896C38.352 20.477 38.4249 20.8136 38.8096 20.74C38.8359 20.7212 38.4969 20.254 38.4669 20.2395V20.2399ZM39.4294 22.697C39.4361 22.4939 39.5238 22.2552 39.4766 22.0521C39.4513 21.9426 39.2144 21.8205 39.1643 21.6432C39.1047 21.4299 39.2583 21.244 39.1558 21.0625C39.0323 20.8433 38.5584 20.9826 38.33 20.9188C38.2647 20.7279 38.1522 20.549 37.9524 20.4273C37.2211 21.3505 38.6895 21.1231 38.8935 21.7477C38.9727 21.9891 38.8645 22.2392 39.2125 22.3859L39.4289 22.6967L39.4294 22.697ZM40.7643 23.2449L40.7095 23.0751L39.3832 21.4448C39.2931 21.6956 39.5429 21.734 39.6416 21.878C39.7012 21.9649 39.6926 22.0697 39.7445 22.1457C39.991 22.5033 40.4435 22.9291 40.7648 23.2449H40.7643Z" fill="white"/>
<path d="M29.3704 31.8936H30.4669V34.1438L30.3954 34.2025H29.5372L29.4657 34.1438V32.7546H24.1023L24.0308 32.6959V31.8936C24.1657 31.9034 24.2124 31.8972 24.2806 31.8048C24.3488 31.7125 24.7888 30.738 24.8079 30.6328C24.8269 30.5275 24.7645 30.4571 24.7716 30.3616C24.8026 29.9593 25.4353 29.8544 25.6608 30.1831C25.8033 30.3909 25.6632 30.4931 25.7099 30.6907C25.7499 30.8605 26.0956 31.6135 26.1995 31.7766C26.2267 31.8193 26.2457 31.8635 26.2953 31.8936H27.7971L27.1044 31.5035C25.8882 30.5482 26.4798 28.8201 28.1189 28.538C30.0645 28.203 31.4771 30.0493 30.2276 31.3254C29.9797 31.5786 29.6817 31.7093 29.3704 31.8936ZM28.6505 28.689C28.3825 28.6648 28.1423 28.6859 27.8924 28.7638L27.9406 28.9587C27.9811 28.9896 28.3673 28.6882 28.5146 28.7794C28.579 28.8182 28.5742 29.0647 28.5618 29.1367C28.5094 29.4455 28.2467 29.2228 28.0831 29.2893C28.0054 29.321 27.9263 29.503 27.82 29.5453C27.7051 29.5656 27.6941 29.415 27.6989 29.3512L27.5177 29.3551C27.5039 29.3848 27.4762 29.4247 27.4758 29.4541C27.4734 29.6415 28.0645 30.0016 28.2581 30.0861C28.6061 30.2383 29.0252 30.1718 28.8469 30.6234C28.774 30.8085 28.5394 30.8613 28.4288 31.0621C28.3182 31.2628 28.3105 31.813 27.9611 31.6604C27.8481 31.4346 27.962 30.9271 27.8443 30.7486C27.7957 30.6746 27.5673 30.6797 27.5196 30.5749C27.4591 30.4418 27.409 30.1092 27.6517 30.0912L27.6526 30.0356C27.3599 29.8869 27.2207 29.5707 26.8703 29.5504C26.0164 30.8961 27.8047 32.3319 29.4667 31.6405C29.6869 31.5489 30.1108 31.2644 30.1341 31.0519C30.187 30.5698 29.2107 30.0184 30.208 29.8204C30.2257 29.5965 30.1379 29.7092 29.9987 29.6787C29.8729 29.6509 29.7837 29.5836 29.6555 29.5844C29.6769 29.8799 29.4691 29.8857 29.1806 29.8176C29.1654 29.8032 29.225 29.4913 29.2478 29.4658C29.2998 29.4079 29.5301 29.4541 29.5882 29.2725C29.5954 29.1085 29.3913 29.026 29.5124 28.8416L29.2264 28.8017C29.2097 28.8158 29.2478 29.1539 29.0672 29.1504C28.9499 29.1426 28.6362 28.8115 28.649 28.689H28.6505ZM29.1325 28.7242L28.7987 28.6851C28.7749 28.8323 28.9627 28.8988 29.061 28.9978L29.1325 28.7246V28.7242ZM28.4169 28.8804C28.3392 28.8088 27.8014 29.3977 27.7737 28.8021C27.6212 28.8174 26.8274 29.3801 26.9389 29.467C27.2178 29.4384 27.2975 29.6122 27.4629 29.7409C27.4233 29.604 27.2784 29.4263 27.4114 29.2874C27.5125 29.1817 27.7828 29.2244 27.8209 29.3496C28.0007 29.1676 28.1403 29.1222 28.4169 29.1931V28.8804ZM30.2762 29.5453C30.3229 29.5057 29.7942 28.9097 29.6092 28.9587C29.7389 29.1645 29.7575 29.3202 29.5615 29.5061C29.8209 29.4275 30.0073 29.6357 30.2762 29.5453ZM30.3234 30.9153C30.5141 30.5236 30.5241 30.1514 30.4187 29.7417C30.3348 29.7472 30.3787 29.838 30.3038 29.901C30.1937 29.9933 29.9205 29.9656 29.8924 30.1146C29.8781 30.1898 30.1613 30.7024 30.2261 30.8198C30.2476 30.8586 30.2576 30.9114 30.3234 30.9157V30.9153ZM28.0355 30.8566C28.0679 31.0198 28.0355 31.3016 28.0355 31.4827C28.0355 31.4894 28.0998 31.5442 28.1303 31.5414C28.1589 31.5231 28.2438 31.1055 28.2867 31.0237C28.3997 30.8081 28.7539 30.7087 28.7549 30.4641C28.7554 30.2833 28.3906 30.2626 28.2247 30.1925C28.0464 30.1178 27.9296 29.989 27.7499 29.937L27.8438 30.1307C27.6035 30.1366 27.5454 30.3342 27.6145 30.4978C27.6579 30.6003 27.9768 30.5592 28.0355 30.8562V30.8566ZM25.0434 30.5537C25.2627 30.7341 25.7065 30.4778 25.4658 30.2266C25.2479 29.9996 24.7611 30.3213 25.0434 30.5537ZM26.0331 31.8936L25.2465 30.7975L24.4598 31.8936H26.0331ZM30.2762 32.0502H24.2215V32.598H29.6564V33.9873C29.808 34.1047 30.0783 34.0237 30.2762 34.046V32.0502Z" fill="white"/>
<path d="M24.6024 25.5146L24.7959 25.9235L25.4133 25.9846L24.9671 26.2949L24.9599 26.3759L28.4641 28.2339C28.3782 28.3255 28.3935 28.2739 28.3177 28.2379C27.6822 27.9365 27.0939 27.5585 26.4579 27.2595C26.3978 27.2314 26.3525 27.1836 26.272 27.1973L27.9878 28.2735L27.8929 28.3122L26.2243 27.3147L27.6321 28.3306L27.5835 28.4097L26.0336 27.3538L27.368 28.4691L27.2975 28.5271L25.9387 27.4317L27.1296 28.5865C27.1482 28.6355 27.1187 28.6648 27.0591 28.6445C26.9766 28.6163 26.2891 27.906 26.1533 27.7835C26.1232 27.7561 25.9072 27.5738 25.891 27.5882L26.9156 28.7231L26.8684 28.801L25.7003 27.5882L26.7478 28.9387L26.6543 28.997L25.6527 27.7448L26.5571 29.0957C26.579 29.143 26.5408 29.1755 26.487 29.1532C26.3473 29.0953 25.778 28.007 25.5573 27.8622C25.6288 28.0234 25.7142 28.1901 25.8019 28.3459C25.9516 28.6112 26.3325 29.0929 26.414 29.3305C26.4379 29.3997 26.3745 29.4107 26.3182 29.3696L25.4615 27.9796L26.2643 29.6494L26.1771 29.701L25.4138 28.2144L26.1761 30.1706C26.0398 30.1918 26.0994 30.1401 26.0684 30.0853C26.0374 30.0306 26.0112 29.973 25.9845 29.9175C25.4715 28.8339 25.0925 27.6653 24.6024 26.5708L24.0312 26.8052L24.1485 26.334L23.6975 26.003C23.8629 25.9533 24.1747 26.0225 24.3159 25.9239C24.3936 25.8695 24.4393 25.6492 24.497 25.5643C24.5271 25.5201 24.4937 25.4978 24.6029 25.5142L24.6024 25.5146ZM24.6024 25.945C24.4527 25.9098 24.539 26.0366 24.4617 26.0828C24.4036 26.1176 24.2739 26.0863 24.2224 26.1603C24.4083 26.2295 24.3993 26.3047 24.3168 26.4534C24.5037 26.4146 24.5619 26.3329 24.7454 26.4534C24.7673 26.3951 24.6977 26.2976 24.722 26.255C24.7578 26.1924 24.8903 26.208 24.8889 26.1407C24.7344 26.1161 24.5824 26.1031 24.6029 25.9447L24.6024 25.945Z" fill="white"/>
<path d="M27.1774 15.047C27.2069 14.8909 27.4157 14.9308 27.4157 15.047V15.6144H29.9664L31.3613 18.1475C31.4038 19.7551 28.5147 19.777 28.4956 18.1671L29.6088 16.084H27.4634L27.7495 20.5452H28.7506V21.054H27.821C27.7008 21.054 27.7976 21.2841 27.7995 21.3459C27.8062 21.5529 27.7828 21.7611 27.8038 21.9681L27.8753 22.0268L28.3159 22.0761C28.3044 23.2149 26.3488 23.2063 26.3249 22.0761L26.7173 22.0264L26.7888 21.9681C26.8098 21.7611 26.7864 21.5529 26.7931 21.3459C26.795 21.2841 26.8918 21.054 26.7717 21.054H25.8897V20.5452H26.8432L27.1292 16.084H25.0315L26.1166 18.1475C26.1543 19.7403 23.3262 19.7833 23.2408 18.1949L24.6024 15.6144H27.1769C27.2003 15.438 27.1445 15.2161 27.1769 15.047H27.1774ZM24.8175 15.9275H29.8472C29.8629 16.0273 29.8129 16.1107 29.7747 16.2007C29.5182 16.8104 28.9552 17.4991 28.7483 18.0971C28.6543 18.3682 28.712 18.5643 28.9166 18.785C29.6465 19.572 31.1282 19.2006 31.1816 18.2203L29.8872 15.7776L24.817 15.7706L24.7069 15.8367C24.3221 16.6663 23.7743 17.4486 23.4549 18.2951C23.6408 19.507 25.7285 19.5125 25.9397 18.2927L24.7526 16.0187L24.8175 15.9275ZM27.5116 20.5456L27.3705 17.5891L27.2737 16.8671L27.082 20.5456H27.5116ZM28.5599 20.7018H26.0808V20.8974H28.5599V20.7018ZM26.9871 21.7975C27.0701 21.8155 27.0825 21.7689 27.1302 21.7392C27.3328 21.6136 27.688 21.43 27.5583 21.2109C27.3171 21.3596 26.9051 21.5036 26.9871 21.7975ZM27.6069 22.0327L27.606 21.6413L27.0348 22.0131L27.6069 22.0327ZM28.0832 22.228H26.5576C26.6973 22.9437 27.944 22.9429 28.0832 22.228Z" fill="white"/>
<path d="M35.592 28.0972C35.9872 28.0538 36.3505 27.7481 36.76 27.7446C36.606 27.6143 36.1173 27.1615 36.617 27.275L36.4739 26.9831C36.5455 26.8884 36.6089 26.9498 36.7118 26.9624L36.617 26.6888L36.9955 26.7663C37.19 26.2184 37.2544 25.9022 37.4971 26.69C37.6072 26.7831 37.7717 26.6849 37.9037 26.6892L37.8088 26.9627L38.0467 26.924L37.9042 27.2758L38.0358 27.2457L38.1426 27.2966L37.9519 27.628C38.3657 27.6734 38.6336 27.8597 39.067 27.8198C39.2644 27.8014 39.4217 27.7008 39.62 27.7067V28.0593C39.6963 28.1203 40.1445 27.9062 40.1445 28.0397V30.642L40.6641 30.6851C40.7242 30.8052 40.6422 30.9164 40.6779 31.0451C40.7161 31.1825 40.9373 31.2424 40.7166 31.4247L41.077 31.4619C41.1375 31.7057 41.0121 31.9096 41.2429 32.1099L39.4427 34.0482L33.314 32.6394C33.0828 32.4484 33.059 32.1221 33.2831 31.9174C33.3474 31.8587 33.7345 31.6352 33.7493 31.6141C33.7755 31.5773 33.6959 31.4243 33.7088 31.3312C33.7465 31.0608 34.2528 30.8878 34.4134 30.6538L34.3758 28.3332L34.8044 28.3727V28.0988C35.0528 28.0796 35.3502 28.1254 35.591 28.0988L35.592 28.0972ZM37.7135 26.845L37.4475 26.809L37.2372 26.4536C37.2258 26.6563 37.1195 26.9733 36.8077 26.845L36.9979 27.1185L36.6646 27.0798L36.9025 27.4316L36.617 27.4507C36.9555 27.8292 37.519 27.8217 37.9032 27.4899L37.6177 27.4316L37.8551 27.1377L37.57 27.1185L37.7125 26.845H37.7135ZM39.4298 27.9016C38.738 28.2111 38.0925 27.5654 37.4508 27.9403L37.3803 30.7583C38.0162 30.4429 38.7418 30.5904 39.4298 30.68V27.9016ZM35.0437 28.2929V30.7191C35.7479 30.6334 36.4482 30.5078 37.1409 30.7191L37.2367 27.9415C36.4649 27.7673 35.8642 28.4259 35.0432 28.2933L35.0437 28.2929ZM39.9542 30.9539V28.1755L39.6176 28.2792L39.6205 30.8757C38.9101 30.8107 38.0472 30.5372 37.4274 30.9535C38.2551 30.7524 39.1123 30.8929 39.9542 30.9535V30.9539ZM34.8058 28.5273H34.5669L34.6151 31.0318L35.0914 30.9532L34.853 30.9148L34.8058 28.5273ZM36.7362 30.7974H35.7588L37.0694 30.9547L36.7362 30.7974ZM40.0019 31.15C39.3402 31.0553 38.5998 30.9829 37.9266 31.0306C37.7049 31.0463 37.3583 31.1833 37.2205 31.1774C37.0828 31.1715 36.7824 31.0604 36.5874 31.0369C36.2608 30.9974 35.8299 31.0017 35.5019 31.0369C35.4241 31.0451 34.852 31.1418 34.852 31.1692L39.0727 31.8967C39.314 31.8849 39.8102 31.3042 40.0014 31.15H40.0019ZM39.2873 32.4801L40.5521 31.305L40.4782 31.0322L39.3116 32.0113L39.2873 32.4801ZM34.8988 31.3468L33.9767 31.2251C33.7069 31.7139 34.5093 31.7026 34.9007 31.7753L34.8988 31.3464V31.3468ZM35.3746 31.4255L35.0918 31.3844L35.0942 31.8517L35.3769 31.8927L35.3746 31.4255ZM37.5228 32.3236C37.4999 32.2109 37.5757 31.8505 37.4775 31.7937L35.5686 31.4631L35.5963 31.937L37.5228 32.3236ZM40.8124 31.5805L40.5001 31.6172L39.273 32.7826L39.17 32.8147C37.4861 32.4817 35.8032 32.1416 34.1169 31.8133C33.9014 31.7714 33.8266 31.6497 33.6616 31.8931L39.313 33.0147L40.8129 31.5809L40.8124 31.5805ZM39.4775 33.1258V33.6933C40.0176 33.1998 40.5168 32.6539 40.9864 32.1084L40.8367 31.8153L39.4775 33.1258ZM39.0484 32.0497L37.7617 31.854L37.7583 32.3052L37.7893 32.367L39.0489 32.6363V32.0493L39.0484 32.0497ZM34.0425 32.1279L33.4928 32.0254C33.2649 32.0849 33.2974 32.4046 33.4347 32.5087C33.5443 32.5921 33.9004 32.5936 34.0425 32.6754V32.1275V32.1279ZM37.4274 32.7932L34.1855 32.1671V32.7149L37.4274 33.4585V32.7932ZM39.2391 33.1454L37.5705 32.8323V33.4976L39.2391 33.8498V33.1454Z" fill="white"/>
<path d="M32.2181 24.3875C32.7292 24.2936 32.8469 24.922 32.3387 24.9592C31.9468 24.9878 31.8272 24.4595 32.2181 24.3875Z" fill="white"/>
<path d="M36.4387 16.5826C36.3262 16.4906 36.3853 16.3384 36.5479 16.318C36.966 16.266 36.7071 16.8025 36.4387 16.5826Z" fill="white"/>
<path d="M28.9174 18.2751C28.7815 18.2418 28.8893 18.07 28.9188 18.0019C29.1653 17.4337 29.5801 16.862 29.8332 16.2891C29.8433 16.2163 30.0034 16.2179 30.043 16.2636L31.0394 18.1796C31.0504 18.2125 30.987 18.2755 30.9674 18.2755H28.9174V18.2751ZM29.1319 18.1186H30.7529L29.9658 16.5528C29.87 16.536 29.899 16.5841 29.8704 16.6295C29.6793 16.9305 29.2621 17.656 29.1544 17.9609C29.1358 18.0137 29.1234 18.0634 29.1319 18.1186Z" fill="white"/>
<path d="M23.6733 18.2751C23.5374 18.2418 23.6451 18.07 23.6747 18.0019C23.9212 17.4337 24.336 16.862 24.5891 16.2891C24.5991 16.2163 24.7593 16.2179 24.7989 16.2636C25.042 16.8694 25.4606 17.4459 25.7219 18.0415C25.7395 18.0822 25.8501 18.2751 25.7233 18.2751H23.6733ZM23.8878 18.1186H25.5088L24.7216 16.5528C24.6415 16.5313 24.5758 16.7109 24.5467 16.7614C24.3712 17.071 24.0161 17.6607 23.9102 17.9605C23.8916 18.0133 23.8792 18.063 23.8878 18.1182V18.1186Z" fill="white"/>
</svg>
