<svg width="51" height="45" viewBox="0 0 51 45" fill="none" xmlns="http://www.w3.org/2000/svg">
<path d="M9.12588 44.9962H8.5773C7.86149 44.7838 7.59081 44.0487 7.81938 43.3709C8.12375 42.4675 9.4519 42.3506 9.86214 43.2205C10.1918 43.9186 9.90184 44.7742 9.12588 44.9962ZM8.74332 42.9711C7.95051 43.1048 8.02149 44.7456 8.90933 44.6823C9.79717 44.6191 9.73462 42.804 8.74332 42.9711Z" fill="white"/>
<path d="M31.2028 44.9962H30.6831C30.0527 44.8076 29.7832 44.2707 29.8494 43.6406C29.9829 42.3888 31.7959 42.2563 32.0605 43.501C32.2001 44.1561 31.8849 44.8327 31.2016 44.9962H31.2028ZM30.8479 42.9711C30.037 43.0988 30.1152 44.7313 30.9838 44.6823C31.8524 44.6334 31.8476 42.8148 30.8479 42.9711Z" fill="white"/>
<path d="M19.4288 44.9963C19.0053 44.8316 18.808 44.4295 19.0198 44.0035C19.2315 43.5775 19.8787 43.488 20.295 43.5082C20.3612 42.8376 19.6441 42.8841 19.2147 43.1061C19.027 42.8185 19.1244 42.7791 19.4071 42.6992C19.8114 42.5846 20.2926 42.5727 20.5693 42.9354C20.917 43.3913 20.6739 44.3913 20.7726 44.9402C20.7437 44.9796 20.3972 44.9808 20.3828 44.9665C20.366 44.9498 20.3636 44.723 20.3383 44.6825C20.212 44.8364 20.07 44.9187 19.8908 44.9975H19.4288V44.9963ZM20.3227 43.8233H19.904C19.8595 43.8233 19.6008 43.9283 19.5515 43.9605C19.1713 44.2135 19.4156 44.8794 19.9954 44.63C20.1254 44.5739 20.3215 44.3841 20.3215 44.2385V43.8233H20.3227Z" fill="white"/>
<path d="M0.93099 44.9964H0.469024C0.234432 44.889 0.0383371 44.7387 0.00705814 44.4666C-0.0843726 43.6754 0.731286 43.4857 1.36408 43.5084C1.37732 43.0561 1.11265 42.9189 0.68918 42.9678C0.524364 42.9869 0.396842 43.0799 0.240447 43.1074L0.152625 42.8234C0.82392 42.494 1.72499 42.5203 1.79838 43.4368C1.82966 43.8294 1.78394 44.2697 1.79597 44.6694C1.79838 44.753 1.87658 44.932 1.77913 44.9642C1.74184 44.9761 1.50845 44.9761 1.46995 44.9642C1.38213 44.9356 1.45431 44.71 1.37972 44.7112C1.36529 44.7112 1.22333 44.8592 1.16197 44.895C1.08378 44.9403 1.00197 44.9451 0.933396 44.9976L0.93099 44.9964ZM1.36288 43.8234C1.00919 43.8043 0.448572 43.8341 0.437745 44.2947C0.425715 44.7936 1.04167 44.7864 1.27145 44.4618C1.2919 44.4332 1.36288 44.3162 1.36288 44.2947V43.8222V43.8234Z" fill="white"/>
<path d="M12.9926 44.9959C11.8209 44.6988 11.8473 42.9494 13.0275 42.669C13.3619 42.589 13.623 42.6379 13.9454 42.7346L13.8588 43.0783C13.1069 42.8038 12.503 43.1463 12.5896 43.9792C12.6377 44.4458 13.0191 44.6845 13.4702 44.6535C13.6194 44.6427 13.7409 44.5711 13.8877 44.5664C13.872 44.6224 13.9562 44.8635 13.9442 44.879C13.9129 44.9208 13.6531 44.9446 13.5989 44.9959H12.9926Z" fill="white"/>
<path d="M23.8729 44.9963C23.1559 44.803 22.8624 44.0595 23.1006 43.3853C23.3135 42.7839 23.9668 42.538 24.5671 42.6622C24.7223 42.6944 24.8486 42.692 24.8185 42.8567C24.7535 43.2123 24.6681 43.019 24.4359 42.9927C23.1944 42.8555 23.1932 44.5381 24.122 44.6502C24.3529 44.6777 24.549 44.618 24.768 44.5679C24.7596 44.6526 24.8606 44.8173 24.8137 44.8841L24.4793 44.9975H23.8729V44.9963Z" fill="white"/>
<path d="M42.3129 44.9958C40.8079 44.5447 41.3673 42.3192 42.9782 42.6616C43.0347 42.6736 43.2284 42.7213 43.2525 42.7619C43.2681 42.7881 43.1634 43.0149 43.1779 43.0781C42.5715 42.8466 41.9279 43.0375 41.8834 43.7547C41.8341 44.5375 42.5018 44.818 43.1767 44.5674C43.3042 44.9158 43.2248 44.8932 42.918 44.9958H42.3117H42.3129Z" fill="white"/>
<path d="M4.4508 44.9962C4.15846 44.8924 4.00327 44.89 4.18974 44.5499C4.43275 44.5977 4.62404 44.723 4.88509 44.6681C5.17503 44.6084 5.2857 44.2814 5.05592 44.0953C4.76359 43.859 4.16207 43.8662 4.14402 43.3172C4.12237 42.643 5.03427 42.4819 5.51789 42.7635C5.46736 42.8351 5.46135 42.9891 5.41684 43.0487C5.36871 43.1132 5.28931 43.0237 5.22916 43.007C5.03307 42.9497 4.70825 42.9043 4.60118 43.1275C4.41711 43.5105 4.97051 43.5941 5.20029 43.7218C5.83188 44.0702 5.67429 44.8005 5.02705 44.9962H4.4496H4.4508Z" fill="white"/>
<path d="M54.5766 17.1476C54.6199 17.0868 54.6547 17.1058 54.6343 17.1763C51.8649 23.2156 44.613 25.977 38.4547 23.1918C37.1241 22.5903 35.7081 21.5116 34.6651 20.4961C34.6627 20.4662 34.6747 20.4567 34.694 20.4388L34.7782 20.4233C37.1891 21.539 39.8706 21.829 42.3994 20.8278C43.9778 20.2001 45.5165 19.4829 47.0155 18.6763C49.3229 17.5259 51.9732 16.5116 54.5766 17.1476Z" fill="#00B9F1"/>
<path d="M54.721 17.0333C54.7042 17.0727 54.6717 17.099 54.6633 17.1192C54.6212 17.056 54.579 16.9904 54.5574 16.9176C54.3252 16.1181 54.1171 15.4056 53.7694 14.6383C52.8635 12.6407 51.4764 10.8627 49.8307 9.41517C49.5119 9.18367 49.2183 8.92711 48.9488 8.64787C48.8731 8.624 48.8057 8.57627 48.7467 8.50467C48.1777 8.04405 47.6399 7.53212 47.0444 7.10252C46.5837 6.73378 46.1325 6.3555 45.6886 5.96648C43.943 4.5345 42.213 3.09416 40.7526 1.38294C40.6202 1.229 40.1907 0.715872 40.1751 0.563127C40.1727 0.539261 40.1751 0.515394 40.1763 0.491528C40.1859 0.491528 40.1956 0.491528 40.2052 0.491528L40.5661 0.452148C47.6291 1.09415 53.5228 6.303 54.6332 13.346C54.8197 14.5321 54.8233 15.6204 54.7836 16.7422L54.721 17.0345V17.0333Z" fill="#98C93C"/>
<path d="M9.27039 14.4855C9.46769 16.5869 8.7976 19.3017 6.78973 20.3674C5.72865 20.9306 4.30065 20.9855 3.2107 20.4664C3.19025 20.4724 3.16979 20.4771 3.14814 20.4783C3.12648 20.4795 3.10964 20.4783 3.094 20.4724C2.92919 20.39 2.7752 20.2767 2.62963 20.1645C2.40346 19.9903 2.12075 19.7683 1.99804 19.5225C2.1003 20.2349 2.05578 20.9545 1.99804 21.6693C1.99804 22.6896 1.99804 23.711 1.99804 24.7313H0.281305C0.250026 24.7313 0.240402 24.6609 0.236792 24.6323C0.197092 24.2934 0.239199 23.8017 0.237996 23.4425C0.225965 19.5738 0.246417 15.7039 0.239199 11.8351C0.205514 11.5988 0.18025 11.3614 0.146565 11.1251C0.120098 10.9365 0.020246 10.6096 0.019043 10.4497C0.019043 10.4258 0.0310733 10.3912 0.0515249 10.3912H1.9848C2.01608 10.3912 2.02571 10.4616 2.02932 10.4902C2.07022 10.8351 1.97157 11.217 1.99924 11.5654C2.99896 10.5022 4.24651 9.82198 5.76113 10.0237C7.97352 10.3184 9.08151 12.4712 9.27159 14.4843L9.27039 14.4855ZM4.47388 10.9735C3.67627 11.0081 2.92317 11.3984 2.34451 11.9234C2.25669 12.0034 2.01007 12.2241 1.99683 12.3232L2.00405 18.3578C3.38033 19.7444 5.72264 19.7003 6.76447 17.9389C7.95186 15.9318 7.66434 10.8351 4.47388 10.9735Z" fill="white"/>
<path d="M22.423 10.001C26.5338 9.75394 28.5405 13.0201 27.8451 16.7814C27.4481 18.9318 26.0562 20.3518 23.8775 20.7456C20.7652 21.3077 17.9742 19.7921 17.5555 16.5582C17.1369 13.3243 18.779 10.2205 22.423 10.0021V10.001ZM22.5385 10.859C19.4876 11.0511 19.1195 15.2396 19.946 17.4485C20.9662 20.1728 24.5476 20.1812 25.5461 17.4198C26.3943 15.0761 25.8866 10.6477 22.5385 10.859Z" fill="white"/>
<path d="M55.7893 38.0417H53.7983V36.8687C53.3352 37.4665 52.7818 37.9821 52.0527 38.2434C49.08 39.3066 46.0171 36.7816 47.4439 33.7303C48.5387 31.3914 51.5932 31.2792 53.7971 31.8317C53.7346 31.6121 53.7839 31.3615 53.7683 31.1312C53.6407 29.2362 52.2729 28.4033 50.4443 28.8078C49.6575 28.9809 49.0187 29.4725 48.5326 30.0894C48.4797 30.1563 48.2547 30.5178 48.2271 30.5322C48.1525 30.5692 47.6929 30.3997 47.6857 30.3603C48.1044 28.6014 49.3423 27.4403 51.1853 27.2828C53.5601 27.0799 55.3129 28.2517 55.5283 30.6742C55.7003 32.6121 55.4513 34.704 55.556 36.6575C55.5812 37.1217 55.6739 37.5954 55.7881 38.0441L55.7893 38.0417ZM53.7947 33.0644C52.339 32.6563 50.1567 32.4534 49.311 34.0047C48.8093 34.9248 48.9826 36.1539 49.8656 36.7768C51.1781 37.7028 52.8828 37.0477 53.7983 35.9081L53.7947 33.0644Z" fill="white"/>
<path d="M19.5154 38.0417H17.5243V36.8973C17.3788 37.0309 17.2705 37.2123 17.1358 37.3555C16.1781 38.3698 14.8331 38.6407 13.4845 38.371C10.3157 37.7374 9.9825 33.6908 12.6568 32.1693C14.1173 31.3388 15.9399 31.4748 17.5243 31.8304C17.5628 30.7612 17.3752 29.5655 16.3417 29.0106C14.9101 28.2421 13.1934 28.9163 12.2598 30.1156C12.2081 30.1825 12.0108 30.5118 11.9831 30.5285C11.9182 30.5679 11.5116 30.4307 11.4634 30.3853C11.4334 30.3579 11.4358 30.3436 11.4406 30.3066C11.4622 30.1204 11.6451 29.6884 11.7293 29.5023C12.2899 28.26 13.3149 27.4856 14.6876 27.3125C17.1995 26.9951 19.1448 28.198 19.288 30.8137C19.3999 32.8495 19.1123 35.0667 19.3481 37.0798C19.3866 37.4032 19.4636 37.7219 19.5178 38.0429L19.5154 38.0417ZM15.1808 32.7839C11.8256 33.0369 12.1275 37.4343 15.2313 37.2123C16.1011 37.1503 16.9854 36.5858 17.5243 35.9366L17.5123 33.0596C16.7736 32.8555 15.9508 32.7254 15.182 32.7839H15.1808Z" fill="white"/>
<path d="M37.6957 38.0413H35.6758V36.6678C35.4484 36.9243 35.2512 37.2072 34.9985 37.441C33.0881 39.2179 29.2023 38.7907 29.0952 35.7382V27.6797H30.842C30.8661 27.6797 30.8925 27.7489 30.8865 27.7787C30.9491 30.1009 30.7855 32.4804 30.9142 34.7931C30.9671 35.7429 31.0718 36.5365 32.0691 36.9387C33.2096 37.3981 34.4547 36.9172 35.2295 36.0377C35.2896 35.9685 35.6758 35.4601 35.6758 35.4219V27.7226C35.6758 27.7226 35.7155 27.6797 35.7191 27.6797H37.4503C37.4744 27.6797 37.5008 27.7489 37.4948 27.7787L37.4924 36.6821C37.5393 37.1391 37.6007 37.5914 37.6957 38.0401V38.0413Z" fill="white"/>
<path d="M8.69284 38.0418H6.87506V30.8711C6.91596 28.2697 4.02627 28.0084 2.54774 29.6993C2.47916 29.7781 2.08577 30.3019 2.08577 30.3568V38.0418H0.295652V29.3544C0.240313 28.8162 0.224673 28.2685 0.0694816 27.747C0.0586543 27.7244 0.0983545 27.6814 0.107979 27.6814H2.08457V29.1122L2.40337 28.6981C4.20311 26.4093 8.7951 26.7936 8.69284 30.2721V38.043V38.0418Z" fill="white"/>
<path d="M24.4203 23.6157V27.6802H26.4835C26.4835 27.6802 26.5268 27.7196 26.5268 27.7231V28.8675C26.5268 28.8675 26.4871 28.9105 26.4835 28.9105H24.4203V35.6229C24.4708 36.0453 24.4804 36.4809 24.7042 36.8568C25.195 37.6802 26.3343 37.4594 27.0465 37.0668C27.0597 37.1969 27.2931 37.4427 27.3015 37.5442C27.3051 37.5895 27.1584 37.7172 27.1175 37.753C25.5042 39.1659 22.5531 38.4857 22.6013 36.0811V28.9105H21.2178V27.6802H22.6025V24.0167L24.4203 23.6157Z" fill="white"/>
<path d="M14.1763 10.7075C14.9137 10.1466 16.0037 9.96761 16.8314 10.4354V12.038C16.8314 12.038 16.7977 12.112 16.7881 12.1096C15.668 11.4772 14.4265 11.5058 13.5266 12.4819C13.4845 12.5273 13.1946 12.871 13.1946 12.8972V20.7827H11.3479V12.4247C11.378 11.7469 11.2072 11.0869 11.1169 10.4211H13.1946V11.7946C13.4953 11.4211 13.7889 11.001 14.1763 10.7075Z" fill="white"/>
<path d="M46.0061 27.6801V29.3686C45.8088 29.3173 45.6356 29.2075 45.4443 29.1395C44.5889 28.8352 43.73 28.8961 43.0202 29.4844C42.9239 29.5643 42.3994 30.1061 42.3994 30.1848V38.0417H40.5528V29.2684L40.3218 27.6813H42.3561C42.3561 27.6813 42.3994 27.7206 42.3994 27.7242V29.0548C42.6509 28.7636 42.8626 28.4426 43.1489 28.1813C43.9357 27.4653 45.016 27.2218 46.0061 27.6813V27.6801Z" fill="white"/>
<path d="M54.6633 17.1189C54.6537 17.1392 54.6429 17.1571 54.6344 17.1762C54.62 17.1583 54.5996 17.15 54.5767 17.1476L54.294 17.0652C47.8782 14.1977 40.4434 16.206 35.0117 20.2681C34.9383 20.3087 34.8613 20.3373 34.7795 20.354C35.3173 19.7562 36.0439 19.1714 36.6876 18.6822C41.1989 15.2562 46.9771 13.5246 52.5857 15.2013C51.859 12.8051 50.7089 10.465 48.9212 8.67619C48.8827 8.63562 48.8996 8.6213 48.9501 8.64755C49.3339 8.95901 49.7381 9.24063 50.105 9.57715C52.2897 11.5807 54.0233 14.2084 54.6645 17.1189H54.6633Z" fill="#FEF100"/>
<path d="M40.1775 0.490234C40.3916 0.856584 40.6804 1.20981 40.9571 1.53439C41.7571 2.46995 42.7147 3.35301 43.6398 4.16924C44.7635 5.15969 45.9725 6.06065 47.0456 7.10242C46.6065 6.785 46.1229 6.48428 45.6585 6.20266C42.616 4.36494 39.1212 3.36494 35.5891 2.95205C36.11 2.50814 36.584 2.13582 37.1759 1.77902C37.8929 1.34584 38.7026 0.961596 39.499 0.690712C39.6494 0.639399 40.044 0.491428 40.1775 0.491428V0.490234Z" fill="#EC1C24"/>
<path d="M36.3386 44.9678H35.9055V43.4655C35.9055 43.4118 35.8382 43.2483 35.8021 43.1958C35.535 42.796 34.901 43.0251 34.8396 43.4678C34.7783 43.9106 34.8829 44.4655 34.8336 44.9213C34.8059 45.0036 34.3765 44.981 34.3765 44.9249V42.6779C34.4535 42.6946 34.7013 42.654 34.747 42.6814C34.8047 42.7172 34.759 43.0192 34.7939 43.0215C35.0935 42.5168 35.9524 42.4857 36.2279 43.0299C36.246 43.0657 36.3374 43.3294 36.3374 43.3509V44.9678H36.3386Z" fill="white"/>
<path d="M48.5891 42.6772L49.2099 44.4804L49.8872 42.6772H50.3058L49.4373 44.9219C49.3687 45.0162 49.1533 44.9446 49.0487 44.9696L48.1404 42.6784H48.5879L48.5891 42.6772Z" fill="white"/>
<path d="M16.2432 42.6814C16.3046 42.6612 16.6631 42.6468 16.6583 42.7495L16.645 44.9404C16.621 44.9738 16.1939 45.0144 16.1963 44.8962L16.2095 42.7053C16.218 42.6922 16.23 42.6874 16.2444 42.6826L16.2432 42.6814Z" fill="white"/>
<path d="M45.9485 42.6772H45.5154V44.9672H45.9485V42.6772Z" fill="white"/>
<path d="M27.5371 42.6772V44.9243C27.5371 44.9971 27.175 44.9577 27.104 44.9672V42.6772H27.5371Z" fill="white"/>
<path d="M31.5771 41.7334C31.6 41.7525 31.5098 41.8647 31.4893 41.8897C31.4267 41.9697 31.0514 42.41 30.9985 42.4339C30.9455 42.4577 30.7133 42.4673 30.7109 42.4064C30.7819 42.3289 31.1067 41.7334 31.1573 41.7334H31.5759H31.5771Z" fill="white"/>
<path d="M16.3911 41.7386C16.6907 41.7016 16.8447 42.1264 16.5499 42.2708C16.1553 42.4629 15.9664 41.7911 16.3911 41.7386Z" fill="white"/>
<path d="M45.7102 41.7395C46.0964 41.7084 46.1168 42.3027 45.7319 42.3015C45.3854 42.3015 45.3625 41.7669 45.7102 41.7395Z" fill="white"/>
<path d="M27.299 41.7396C27.5961 41.7121 27.7176 42.1298 27.4289 42.2706C27.0475 42.4568 26.8526 41.7801 27.299 41.7396Z" fill="white"/>
<path d="M54.5767 17.1478C54.2446 17.118 53.9126 17.0583 53.5805 17.0333C47.7109 16.5965 43.5075 22.4736 37.5741 21.3746C36.8246 21.2361 36.0643 20.9784 35.3497 20.7182C35.1344 20.6395 34.8805 20.5631 34.6929 20.439C34.7278 20.4068 34.7458 20.3901 34.7795 20.3531C35.3485 19.9808 35.8935 19.5739 36.4673 19.2075C40.9005 16.3805 46.076 14.9235 51.3501 16.0404C52.4509 16.2731 53.5853 16.6228 54.5767 17.1478Z" fill="#0077C0"/>
<path d="M48.9499 8.64662L48.921 8.67526C48.8669 8.62156 48.7839 8.58098 48.7478 8.50342C48.8007 8.54638 48.8801 8.58934 48.9499 8.64662Z" fill="#EBE406"/>
<path d="M52.5747 14.9701C51.9852 13.1049 51.1515 11.2911 49.9377 9.74094C49.6357 9.3555 49.3241 8.95932 48.9211 8.67531C48.8766 8.61564 48.8188 8.55955 48.7479 8.50347C48.7334 8.47244 48.7178 8.44261 48.6985 8.41397C48.6805 8.38652 48.6612 8.35908 48.6372 8.33879C48.1788 7.93903 47.7132 7.54523 47.2344 7.17053C47.1755 7.13592 47.1129 7.11325 47.0456 7.10251C46.1722 6.37339 45.1375 5.79821 44.1041 5.29105C41.6223 4.07267 38.6484 3.23019 35.8946 2.93186C35.8453 2.92589 35.7936 2.92828 35.743 2.93186C35.6913 2.93544 35.6408 2.9426 35.589 2.95214C31.6527 6.30657 30.2331 11.624 32.1051 16.4975C32.6248 17.8496 33.6245 19.4844 34.6663 20.4975C34.7253 20.5035 34.7349 20.4844 34.6952 20.4402C34.7686 20.4796 34.8347 20.4247 34.7818 20.3543C37.5295 17.8138 40.8656 15.8185 44.5938 15.0035C47.2044 14.4331 49.8919 14.4796 52.4664 15.2171C52.624 15.303 52.6601 15.2207 52.5759 14.9701H52.5747ZM38.2297 9.33402C36.2519 9.19082 36.2459 6.26957 38.0926 6.0512C40.6334 5.75048 40.6322 9.50824 38.2297 9.33402Z" fill="black"/>
<path d="M38.3247 6.90804C37.2672 6.98202 37.414 8.59658 38.5148 8.44503C39.4219 8.31973 39.3076 6.84002 38.3247 6.90804Z" fill="black"/>
<path d="M53.8559 5.61703C51.8661 2.51679 48.4254 0.370006 44.7081 0.0645164C44.69 0.0633231 44.6287 0.0394567 44.5637 0.0358767C44.4975 0.0322967 44.429 0.0358767 44.3616 0.0358767C44.3135 -0.0154361 44.2028 0.00723701 44.1306 0.00723701C43.7312 0.00365705 43.3161 -0.00708282 42.9191 0.00723701C42.8518 0.00962365 42.7844 0.00365705 42.717 0.00723701C42.4512 0.0215569 42.1636 0.0621297 41.899 0.096736C41.3311 0.173108 40.7501 0.288861 40.2063 0.464279C41.0617 0.480985 42.2166 0.711296 43.0527 0.918933C49.6995 2.56929 54.4984 8.29723 54.7522 15.1326L54.7221 17.0085C56.3474 13.2937 56.0491 9.0347 53.8559 5.61703Z" fill="#117831"/>
</svg>
