<svg width="44" height="53" viewBox="0 0 44 53" fill="none" xmlns="http://www.w3.org/2000/svg">
<g clip-path="url(#clip0_1347_1486)">
<path d="M22.0938 0L27.4216 5.22678L22.5119 10.1169V11.8431L26.7516 15.9422L31.9829 10.9132L27.7861 6.85147L23.3159 11.1697L26.5479 14.2694L29.6728 11.1697L27.5127 9.09075L25.6314 10.8544L26.5211 11.8164C26.4246 12.0195 26.2585 12.2439 26.0387 12.0996C25.9476 12.0408 24.9185 11.0147 24.881 10.9399C24.8434 10.8651 24.8488 10.833 24.9131 10.7796L27.4538 8.31582L30.4125 11.1323L26.5854 15.0123C26.5372 15.0551 26.505 15.039 26.4568 15.0123C26.4139 14.9909 25.9369 14.5473 25.8458 14.4672C24.9667 13.6709 24.1413 12.7303 23.2783 11.9019C23.1551 11.779 22.5172 11.3247 22.544 11.1751L27.7432 6.16739C27.7914 6.12463 27.8236 6.14067 27.8718 6.16739C27.9093 6.18877 28.4185 6.65907 28.515 6.74458C29.9622 8.05929 31.3183 9.57175 32.7494 10.9078L27.1697 16.343L32.7548 21.6072L37.8628 16.5141L33.7571 12.5486L29.2225 16.8668L32.4653 19.9719L35.5741 16.8561L33.4248 14.7184L31.5327 16.5408L32.4921 17.5028C32.342 17.599 32.2188 17.9357 32.0097 17.7967C31.9079 17.7272 30.8895 16.7118 30.852 16.637C30.8359 16.6049 30.8145 16.5782 30.8198 16.5408L33.4248 13.9488L36.3191 16.8294L32.5564 20.6453H32.4278C31.1253 19.3733 29.7264 18.1601 28.515 16.808L33.7142 11.8003L33.875 11.8324L38.6507 16.5996L33.3283 21.7943L38.7794 27.2295L33.8214 31.9379L28.6651 26.8233L32.6208 23.0716L36.4156 26.7859L36.4692 27.005L33.4623 29.7414L30.9538 27.1761C30.9538 27.1386 30.9699 27.1119 30.986 27.0799C31.0181 27.005 32.0365 26.0591 32.1437 25.9843C32.3528 25.84 32.476 26.182 32.6261 26.2782L31.6667 27.1761L33.5588 29.0626L35.7724 26.8554L32.594 23.7503L29.3512 26.8554L33.8804 31.2431L37.9968 27.144L32.7923 22.0829L27.175 27.5609L32.8244 33.0709L27.904 37.8381L22.6405 32.654L26.564 28.8756L30.5143 32.8464L27.5288 35.5988L24.9882 33.135C24.9238 33.0816 24.9185 33.0495 24.956 32.9747C24.9935 32.8999 26.0226 31.8791 26.1138 31.815C26.3282 31.6707 26.4997 31.8951 26.5962 32.0982L25.7064 33.0602L27.5342 34.8292L29.7478 32.7502L26.5694 29.6452L23.3909 32.7502L27.9093 37.0043L31.9668 33.103V32.9747L26.7623 27.9136L22.5815 31.9432C22.5011 32.002 22.4958 32.0768 22.4851 32.1677C22.4583 32.3708 22.4636 33.6748 22.5226 33.8031L27.4323 38.629L22.008 43.9199L16.5837 38.629L21.4613 33.771L21.4881 32.0715L17.2484 27.9082L11.9795 32.9693L16.1496 37.0631L20.6198 32.6808L17.3877 29.6452L14.2629 32.6808L16.4229 34.8238L18.3096 33.0976C18.3686 33.0121 17.7147 32.4028 17.6021 32.296C17.5485 32.2479 17.4252 32.2051 17.4199 32.1944C17.3502 32.0715 17.6289 31.676 17.8326 31.815C18.2775 32.1249 18.7063 32.6594 19.1458 33.0014L16.4176 35.5934L13.5232 32.7128L13.5553 32.5525L17.4467 28.9344L21.397 32.6861L16.0692 37.8113L11.2506 33.0068L16.841 27.5609L11.3524 22.147L6.14787 27.3364L10.2643 31.3714L14.7238 27.0425L11.5507 23.9481L8.44193 26.9997L10.5913 29.1374L12.419 27.3097L11.5239 26.4065C11.5078 26.321 11.7919 26.0163 11.9045 26.0858L13.1909 27.3738L10.5859 29.9017L7.60042 26.989L11.5507 23.1785L15.5064 26.989L10.3983 32.0234L10.2643 32.0875L5.35459 27.315L10.677 22.0722L5.22595 16.7385L10.1357 11.8645L15.3724 17.0057L11.4221 20.8804L7.5629 16.9095L10.4573 14.1519L13.0622 16.6851C13.0622 16.7225 13.0461 16.7492 13.0301 16.7813C12.9979 16.8561 11.9742 17.8715 11.8723 17.941C11.6847 18.0693 11.4757 17.754 11.3953 17.5936L12.285 16.6316L10.4573 14.8627L8.30794 17.0004L11.4167 20.1162L14.5952 16.947L10.1303 12.6234L5.98707 16.6904L11.1648 21.7783L16.841 16.3056L11.2506 10.8597L16.0531 6.09257L16.2353 6.14601L21.3702 11.0842V11.2713L17.452 14.9909L17.318 14.9268L13.5285 11.0789L16.5194 8.2891L19.1512 10.8544C18.7384 11.1697 18.3043 11.8324 17.9023 12.105C17.72 12.2332 17.4306 11.8805 17.4252 11.6988L18.315 10.8544L16.4283 9.03196L14.2682 11.1751L17.3931 14.2106L20.6251 11.1751L16.1549 6.79268L12.0492 10.8865L17.2537 15.9476L21.4345 11.9179C21.5149 11.8591 21.5203 11.7843 21.531 11.6935C21.5578 11.4957 21.5524 10.2505 21.4935 10.1222L16.5194 5.28557L21.9008 0H22.0938ZM21.9973 1.34678L17.854 5.28557L21.874 9.21902L26.0066 5.28557L21.9919 1.34678H21.9973ZM21.8794 12.7516L12.5316 21.9279L22.0563 31.1202L31.4094 21.8798L21.8847 12.7516H21.8794ZM22.008 34.7864L17.9237 38.5916L22.0563 42.5251L26.0119 38.5916L22.008 34.7864Z" fill="white"/>
<path d="M43.9946 45.3525H0V46.9558H43.9946V45.3525Z" fill="white"/>
<path d="M0 22.0993V21.907L4.34158 17.5566L8.98331 21.8856L4.52382 26.3748L0 22.0993ZM4.34694 18.3957L0.712876 21.9337L4.58278 25.493L8.21684 21.8802L4.34158 18.4011L4.34694 18.3957Z" fill="white"/>
<path d="M0 48.4893H5.46181V49.0664H1.02911V50.3491H5.14021V50.9209H1.02911V52.3318H5.64941L5.65477 52.909H0V48.4893Z" fill="white"/>
<path d="M41.8453 48.4893C42.5421 48.5587 43.4962 48.9596 43.4211 49.804C43.3515 50.6003 42.3224 50.7499 41.7167 50.8622C41.6095 50.8835 41.6041 50.8194 41.6202 50.9851C41.7274 51.0011 41.8346 51.0332 41.9311 51.092C42.4939 51.4126 43.4533 52.2357 43.8982 52.7166C43.9571 52.7808 44.0161 52.8075 43.9947 52.909H42.6761C42.6332 52.909 42.1669 52.3906 42.0651 52.2998C41.7006 51.9791 40.6125 50.9851 40.1676 50.9851H38.3989V52.909H37.3054V48.4893H41.8346H41.8453ZM38.4096 50.4132H41.1378C41.2772 50.4132 41.8453 50.2529 41.9847 50.1727C42.6654 49.7772 42.2044 49.2535 41.6202 49.0985C41.5612 49.0825 41.1646 49.0077 41.1324 49.0077H38.4042V50.4186L38.4096 50.4132Z" fill="white"/>
<path d="M39.3529 17.6201L44 21.9384L39.5352 26.3902L35.006 22.0025L39.3583 17.6201H39.3529ZM39.4012 18.3844L35.7081 21.9384L39.5941 25.5458L43.2175 21.8849L39.4012 18.3844Z" fill="white"/>
<path d="M17.586 48.3828C19.0654 48.3294 21.5041 48.8051 21.5041 50.7023C21.5041 53.7058 14.7935 53.6417 14.2896 51.1886C13.8715 49.1685 15.978 48.4416 17.586 48.3882V48.3828ZM15.7583 49.6014C15.1955 50.1625 15.1847 51.21 15.7636 51.7605C17.0554 52.9737 20.9253 52.5728 20.325 50.2801C19.9069 48.6875 16.7499 48.6073 15.7529 49.6014H15.7583Z" fill="white"/>
<path d="M28.1934 49.7716H27.1965C27.1429 49.7716 27.0303 49.4884 26.9714 49.4189C26.5426 48.9219 25.1972 48.9379 24.5808 49.0181C23.9323 49.1036 23.2033 49.6648 24.1306 50.0121C24.9989 50.3381 28.0541 50.3221 28.3596 51.3055C28.8688 52.9569 25.8565 53.037 24.8863 52.9782C23.9751 52.9248 22.3832 52.5935 22.4154 51.4391L23.3373 51.3696C23.675 52.5721 26.1031 52.6095 26.9767 52.1766C27.4002 51.9682 27.561 51.5567 27.0839 51.3001C26.0548 50.739 23.4928 51.0596 22.8013 50.0656C22.5494 49.6968 22.662 49.3067 22.9568 49.0074C23.8144 48.147 27.1858 48.1683 27.9522 49.1517C28.0862 49.3227 28.1881 49.5579 28.1934 49.777V49.7716Z" fill="white"/>
<path d="M30.8305 48.4893V51.5302C30.8305 51.8028 31.2968 52.1448 31.538 52.2357C32.2241 52.4868 34.1162 52.5456 34.5021 51.8028C34.5342 51.744 34.679 51.3057 34.679 51.279V48.4946H35.7081V51.5997C35.7081 51.7653 35.4026 52.2463 35.2632 52.3693C34.293 53.219 30.9002 53.2564 30.0694 52.2303C29.9675 52.102 29.7371 51.6104 29.7371 51.4714V48.4946H30.8305V48.4893Z" fill="white"/>
<path d="M13.357 51.4343C12.9068 52.9361 10.7896 53.0697 9.47105 52.9735C7.89522 52.8613 6.39443 51.9901 6.69459 50.1998C7.04835 48.0994 11.7115 47.8803 12.9711 49.2218C13.0569 49.3126 13.2498 49.5745 13.1962 49.7028C13.1373 49.7829 12.3708 49.8524 12.2422 49.815C12.0814 49.7669 12.0224 49.5424 11.9098 49.4462C10.9129 48.5858 8.08282 48.7675 7.79874 50.2746C7.55755 51.5305 8.33474 52.1879 9.48713 52.3749C10.5591 52.546 11.8187 52.3536 12.3708 51.3114L13.357 51.4343Z" fill="white"/>
<path d="M16.2567 22.0884C16.2192 22.0189 16.2567 21.9227 16.3103 21.8693L21.8793 16.3379L27.6199 21.9388L22.0133 27.4061L16.2621 22.0884H16.2567ZM21.8686 17.69L17.6611 21.9388L21.9973 26.2624L26.2692 21.8746L21.8686 17.69Z" fill="white"/>
</g>
<defs>
<clipPath id="clip0_1347_1486">
<rect width="44" height="53" fill="white"/>
</clipPath>
</defs>
</svg>
