<svg width="91" height="48" viewBox="0 0 91 48" fill="none" xmlns="http://www.w3.org/2000/svg">
<path d="M90.1631 15.897V17.4331H87.9129V23.7935H86.1671V17.4331H83.9169V15.897H90.1631Z" fill="white"/>
<path d="M25.0016 44.7158C25.2098 44.7158 25.3859 44.8678 25.2979 45.2758L24.3289 45.4999C24.497 45.0518 24.7773 44.7238 25.0016 44.7238M25.5381 46.2679H25.3459C25.0977 46.5559 24.8494 46.78 24.5851 46.78C24.3209 46.78 24.1847 46.6279 24.1847 46.2679C24.1847 46.1239 24.2007 45.9719 24.2248 45.8439L25.7783 45.3319C26.0826 44.6118 25.7143 44.2998 25.2898 44.2998C24.5531 44.2998 23.7203 45.5319 23.7203 46.6039C23.7203 47.084 23.9525 47.348 24.3129 47.348C24.7373 47.348 25.1697 46.94 25.5301 46.2599M25.2258 44.0118L26.3229 42.9877V42.8677H25.7303L25.0496 44.0118H25.2178H25.2258ZM21.8624 44.7318H22.3749L21.5581 46.972C21.486 47.164 21.5821 47.356 21.7823 47.356C22.2468 47.356 22.9996 46.9 23.2638 46.2679H23.1197C22.9115 46.4919 22.5111 46.78 22.1667 46.844L22.9195 44.7318H23.6882L23.7843 44.4118H23.0396L23.3279 43.6037H23.0316L22.5031 44.4118L21.8624 44.4998V44.7318ZM21.1657 44.6278C21.2298 44.4198 21.0856 44.2998 20.9735 44.2998C20.525 44.2998 19.9885 44.6998 19.7803 45.2758H19.9244C20.0686 45.0678 20.3168 44.8358 20.5491 44.8038L19.6922 47.044C19.6121 47.252 19.7723 47.372 19.8844 47.372C20.3088 47.372 20.8133 46.964 21.0295 46.3959H20.8854C20.7413 46.6039 20.493 46.836 20.2608 46.868L21.1737 44.6278H21.1657ZM21.3179 43.4997C21.5261 43.4997 21.6862 43.3397 21.6862 43.1317C21.6862 42.9237 21.5181 42.7637 21.3179 42.7637C21.1177 42.7637 20.9495 42.9317 20.9495 43.1317C20.9495 43.3317 21.1097 43.4997 21.3179 43.4997ZM16.3688 46.94C16.2567 47.196 16.3689 47.356 16.6251 47.356C16.7693 47.356 16.8494 47.316 16.9054 47.148L17.506 45.5719C17.7863 45.2358 18.3468 44.8758 18.5791 44.8758C18.7392 44.8758 18.7153 45.0038 18.6111 45.2118L17.6982 46.972C17.6101 47.14 17.7222 47.356 17.9224 47.356C18.3709 47.356 18.9074 46.956 19.1157 46.3799H18.9715C18.8273 46.5879 18.5791 46.82 18.3469 46.852L19.1316 45.2678C19.2277 45.0598 19.2758 44.8758 19.2758 44.7238C19.2758 44.4598 19.1317 44.2998 18.8594 44.2998C18.475 44.2998 18.0746 44.7398 17.6181 45.2838V44.8678C17.6181 44.5718 17.522 44.2998 17.2498 44.2998C17.0816 44.2998 16.9134 44.4438 16.7693 44.6518V44.7078C17.0656 44.6918 17.1937 45.1318 16.9855 45.5879L16.3769 46.94H16.3849H16.3688ZM16.3529 44.9878C16.457 44.6198 16.4009 44.2998 16.1206 44.2998C15.7843 44.2998 15.7042 44.5558 15.3678 45.2838V44.8678C15.3678 44.5718 15.2718 44.2998 14.9995 44.2998C14.6872 44.2998 14.3989 44.7878 14.1827 45.2758H14.3268C14.4709 45.0518 14.6231 44.9238 14.7272 44.9238C14.8553 44.9238 14.9354 45.1318 14.7272 45.5959L14.1186 46.948C14.0065 47.204 14.1186 47.364 14.3748 47.364C14.519 47.364 14.5991 47.324 14.6552 47.156L15.2558 45.5799C15.4239 45.3719 15.5761 45.1958 15.7682 44.9878H16.3609H16.3529ZM12.8934 44.7158C13.1016 44.7158 13.2778 44.8678 13.1897 45.2758L12.2207 45.4999C12.3808 45.0518 12.6692 44.7238 12.8934 44.7238M13.4379 46.2679H13.2457C12.9975 46.5559 12.7492 46.78 12.485 46.78C12.2207 46.78 12.0846 46.6279 12.0846 46.2679C12.0846 46.1239 12.1006 45.9719 12.1246 45.8439L13.6782 45.3319C13.9825 44.6118 13.6141 44.2998 13.1897 44.2998C12.4529 44.2998 11.6201 45.5319 11.6201 46.6039C11.6201 47.084 11.8523 47.348 12.2127 47.348C12.6371 47.348 13.0695 46.94 13.4299 46.2599M9.7622 44.7318H10.2747L9.45789 46.972C9.38581 47.164 9.48193 47.356 9.68214 47.356C10.1466 47.356 10.8993 46.9 11.1636 46.2679H11.0195C10.8113 46.4919 10.4109 46.78 10.0665 46.844L10.8193 44.7318H11.5881L11.6842 44.4118H10.9314L11.2197 43.6037H10.9234L10.3949 44.4118L9.75423 44.4998V44.7318H9.7622ZM6.91934 46.4839C6.91934 45.7959 7.68812 44.8598 8.12055 44.8598C8.21665 44.8598 8.31276 44.8678 8.38483 44.8918L7.93638 46.0839C7.67212 46.3959 7.27172 46.78 7.09555 46.78C6.99144 46.78 6.92736 46.6919 6.92736 46.4839M9.28173 44.1718L9.0415 44.1558L8.77722 44.4198H8.72116C7.43987 44.4198 6.32676 45.8599 6.32676 46.908C6.32676 47.204 6.50294 47.364 6.78322 47.364C7.11956 47.364 7.44786 46.892 7.80823 46.3799L7.79224 46.5559C7.7522 47.068 7.90434 47.356 8.17662 47.356C8.48893 47.356 8.77724 46.868 8.99345 46.3799H8.84931C8.70517 46.6039 8.55302 46.732 8.44891 46.732C8.32879 46.732 8.2407 46.5159 8.44891 46.0599L9.27372 44.1638L9.28173 44.1718ZM6.551 44.9878C6.65511 44.6198 6.59902 44.2998 6.31874 44.2998C5.9824 44.2998 5.90232 44.5558 5.56598 45.2838V44.8678C5.56598 44.5718 5.46991 44.2998 5.19764 44.2998C4.88533 44.2998 4.59702 44.7878 4.3808 45.2758H4.52494C4.66909 45.0518 4.82124 44.9238 4.92534 44.9238C5.05347 44.9238 5.13355 45.1318 4.92534 45.5959L4.31672 46.948C4.20461 47.204 4.31673 47.364 4.57299 47.364C4.71713 47.364 4.79719 47.324 4.85325 47.156L5.45386 45.5799C5.62202 45.3719 5.77419 45.1958 5.96638 44.9878H6.55897H6.551ZM2.24266 47.244L2.29873 47.076C1.55398 46.94 1.45784 46.94 1.75413 46.1159L2.05844 45.2838H2.8833C3.25167 45.2838 3.25965 45.4279 3.20359 45.8439H3.41982L3.91632 44.4838H3.70014C3.50794 44.8038 3.36376 45.0438 2.96336 45.0438H2.14657L2.57899 43.8597C2.70712 43.4837 2.79523 43.4037 3.29973 43.4037H3.66006C4.18058 43.4037 4.25265 43.5397 4.25265 44.0758H4.46086L4.62905 43.1477H1.52192L1.46586 43.3157C2.06646 43.4357 2.13055 43.4917 1.84226 44.2758L1.16155 46.1159C0.881263 46.884 0.761154 46.948 0.0724605 47.076L0.0244141 47.244H2.25063H2.24266Z" fill="white"/>
<path d="M17.4664 37.6909C17.6746 37.6909 17.8508 37.8429 17.7627 38.2509L16.7937 38.475C16.9539 38.0269 17.2421 37.6989 17.4664 37.6989M18.0029 39.243H17.8107C17.5625 39.531 17.3142 39.755 17.05 39.755C16.7857 39.755 16.6496 39.603 16.6496 39.243C16.6496 39.099 16.6656 38.947 16.6896 38.819L18.2432 38.3069C18.5475 37.5869 18.1791 37.2749 17.7547 37.2749C17.0179 37.2749 16.1851 38.507 16.1851 39.579C16.1851 40.0591 16.4173 40.3231 16.7777 40.3231C17.2021 40.3231 17.6345 39.9151 17.9949 39.235M17.6906 36.9868L18.7877 35.9628V35.8428H18.1951L17.5144 36.9868H17.6826H17.6906ZM14.3272 37.7069H14.8397L14.0229 39.9471C13.9508 40.1391 14.0469 40.3311 14.2471 40.3311C14.7116 40.3311 15.4643 39.8751 15.7286 39.243H15.5845C15.3763 39.467 14.9759 39.755 14.6315 39.8191L15.3843 37.7069H16.1531L16.2492 37.3869H15.5044L15.7927 36.5788H15.4964L14.9678 37.3869L14.3272 37.4749V37.7069ZM13.6305 37.6029C13.6946 37.3949 13.5504 37.2749 13.4383 37.2749C12.9899 37.2749 12.4533 37.6749 12.2451 38.2509H12.3893C12.5334 38.0429 12.7816 37.8109 13.0139 37.7789L12.1571 40.0191C12.077 40.2271 12.2371 40.3471 12.3492 40.3471C12.7737 40.3471 13.2782 39.9391 13.4944 39.371H13.3502C13.2061 39.579 12.9578 39.811 12.7256 39.8431L13.6385 37.6029H13.6305ZM13.7907 36.4748C13.9989 36.4748 14.1591 36.3148 14.1591 36.1068C14.1591 35.8988 13.9909 35.7388 13.7907 35.7388C13.5905 35.7388 13.4223 35.9068 13.4223 36.1068C13.4223 36.3068 13.5825 36.4748 13.7907 36.4748ZM10.7957 39.835L12.3652 35.7308L12.3172 35.6668L11.3322 35.7788V35.8988L11.5244 36.0428C11.6926 36.1708 11.6445 36.3068 11.4844 36.7228L10.2591 39.9551C10.171 40.1231 10.2831 40.3391 10.4833 40.3391C10.9318 40.3391 11.4123 39.9391 11.6285 39.363H11.4844C11.3402 39.571 11.0359 39.803 10.8037 39.835M7.80863 39.459C7.80863 38.771 8.57741 37.8349 9.00984 37.8349C9.10594 37.8349 9.20205 37.8429 9.27412 37.8669L8.82567 39.059C8.56141 39.371 8.16101 39.755 7.98484 39.755C7.88073 39.755 7.81665 39.667 7.81665 39.459M10.179 37.1469L9.9388 37.1309L9.67452 37.3949H9.61846C8.33717 37.3949 7.22406 38.835 7.22406 39.8831C7.22406 40.1791 7.40024 40.3391 7.68052 40.3391C8.01686 40.3391 8.34522 39.8671 8.70558 39.355L8.68955 39.531C8.64951 40.0431 8.80165 40.3311 9.07392 40.3311C9.38623 40.3311 9.67454 39.8431 9.89076 39.355H9.74662C9.60247 39.579 9.45032 39.707 9.34622 39.707C9.22609 39.707 9.13801 39.491 9.34622 39.035L10.171 37.1389L10.179 37.1469ZM4.45325 40.8751C4.45325 40.5791 4.74159 40.3951 5.15 40.2271C5.27813 40.2911 5.4863 40.3631 5.75857 40.4591C6.183 40.5951 6.35121 40.6591 6.35121 40.7871C6.35121 41.0671 5.88674 41.2672 5.24609 41.2672C4.71756 41.2672 4.45325 41.1551 4.45325 40.8751ZM5.62245 39.059C5.43025 39.059 5.35817 38.907 5.35817 38.723C5.35817 38.2269 5.63048 37.4909 6.0469 37.4909C6.23909 37.4909 6.31113 37.6429 6.31113 37.8269C6.31113 38.3229 6.03887 39.059 5.62245 39.059ZM6.83969 40.6031C6.83969 40.2431 6.51938 40.1151 5.99885 39.9551C5.5504 39.827 5.34218 39.787 5.34218 39.635C5.34218 39.515 5.43827 39.371 5.63046 39.275C6.3672 39.235 6.83969 38.571 6.83969 38.0189C6.83969 37.8989 6.81565 37.7949 6.77561 37.7069H7.40026L7.49636 37.3869H6.50336C6.38324 37.3149 6.2391 37.2749 6.10296 37.2749C5.31817 37.2749 4.82164 37.9629 4.82164 38.515C4.82164 38.939 5.09392 39.203 5.42225 39.259C5.05388 39.419 4.85366 39.611 4.85366 39.8431C4.85366 39.9711 4.89374 40.0671 4.99784 40.1471C4.157 40.3951 3.82063 40.6751 3.82063 41.0751C3.82063 41.4752 4.33317 41.6192 4.94178 41.6192C5.97482 41.6192 6.83167 41.0591 6.83167 40.5951M2.9077 38.2029C3.27607 38.2029 3.2841 38.3469 3.22805 38.763H3.44428L3.94077 37.4029H3.72454C3.53235 37.7229 3.38822 37.9629 2.98781 37.9629H2.17098L2.57939 36.8348C2.70752 36.4588 2.79563 36.3868 3.30014 36.3868H3.66046C4.18099 36.3868 4.25305 36.5228 4.25305 37.0509H4.46127L4.62946 36.1228H1.53034L1.47428 36.2908C2.07488 36.4108 2.13892 36.4668 1.85063 37.2509L1.16997 39.091C0.889686 39.8591 0.769577 39.9231 0.0808833 40.0511L0.0328369 40.2191H3.48431L4.10095 39.235H3.86066C3.46827 39.603 2.97179 39.9631 2.2831 39.9631C1.37018 39.9631 1.45023 39.9231 1.75454 39.091L2.0829 38.2029H2.91572H2.9077ZM3.35615 35.8428L4.45325 35.0907V34.9707H3.78862L3.18 35.8428H3.34819H3.35615Z" fill="white"/>
<path d="M17.106 30.6662C17.3142 30.6662 17.4904 30.8182 17.4023 31.2263L16.4333 31.4503C16.5935 31.0023 16.8818 30.6742 17.106 30.6742M17.6345 32.2183H17.4424C17.1941 32.5064 16.9458 32.7304 16.6816 32.7304C16.4173 32.7304 16.2812 32.5784 16.2812 32.2183C16.2812 32.0743 16.2972 31.9223 16.3212 31.7943L17.8748 31.2823C18.1791 30.5622 17.8107 30.2502 17.3863 30.2502C16.6496 30.2502 15.8167 31.4823 15.8167 32.5544C15.8167 33.0344 16.049 33.2984 16.4093 33.2984C16.8338 33.2984 17.2662 32.8904 17.6265 32.2103M17.3222 29.9622L18.4193 28.9381V28.8181H17.8267L17.1461 29.9622H17.3143H17.3222ZM14.111 30.6822H14.5194L13.7026 32.9224C13.6305 33.1144 13.7266 33.3064 13.9268 33.3064C14.3913 33.3064 15.1441 32.8504 15.4083 32.2183H15.2641C15.0559 32.4424 14.6556 32.7304 14.3112 32.7944L15.0639 30.6822H15.8327L15.9288 30.3622H15.1841L15.4724 29.5542H15.1761L14.6476 30.3622L14.119 30.4502V30.6822H14.111ZM13.6946 30.9383C13.7987 30.5702 13.7426 30.2502 13.4623 30.2502C13.126 30.2502 13.046 30.5062 12.7096 31.2343V30.8182C12.7096 30.5222 12.6135 30.2502 12.3412 30.2502C12.0289 30.2502 11.7406 30.7382 11.5244 31.2263H11.6685C11.8127 31.0023 11.9648 30.8742 12.0689 30.8742C12.1971 30.8742 12.2771 31.0823 12.0689 31.5463L11.4603 32.8984C11.3482 33.1544 11.4603 33.3144 11.7166 33.3144C11.8607 33.3144 11.9408 33.2744 11.9969 33.1064L12.5975 31.5303C12.7657 31.3223 12.9178 31.1463 13.11 30.9383H13.7026H13.6946ZM10.2431 30.6662C10.4513 30.6662 10.6275 30.8182 10.5394 31.2263L9.57042 31.4503C9.73058 31.0023 10.0189 30.6742 10.2431 30.6742M10.7796 32.2183H10.5875C10.3392 32.5064 10.0909 32.7304 9.82668 32.7304C9.56242 32.7304 9.42628 32.5784 9.42628 32.2183C9.42628 32.0743 9.44229 31.9223 9.46631 31.7943L11.0199 31.2823C11.3242 30.5622 10.9558 30.2502 10.5314 30.2502C9.79465 30.2502 8.9618 31.4823 8.9618 32.5544C8.9618 33.0344 9.19407 33.2984 9.55444 33.2984C9.97886 33.2984 10.4113 32.8904 10.7716 32.2103M6.95978 32.8504C6.81564 32.8504 6.59144 32.7144 6.59144 32.5864C6.59144 32.5464 6.6555 32.3704 6.73558 32.1543L6.99185 31.4823C7.26412 31.1623 7.67253 30.8182 7.89676 30.8182C8.0329 30.8182 8.14501 30.9062 8.14501 31.1143C8.14501 31.7303 7.56844 32.8504 6.95181 32.8504M8.72958 30.8742C8.72958 30.4182 8.56143 30.2502 8.24912 30.2502C7.85672 30.2502 7.48832 30.6662 7.11194 31.1783L8.05688 28.7061L8.00884 28.6421L7.02386 28.7541V28.8741L7.21605 29.0181C7.38422 29.1461 7.33618 29.2981 7.17602 29.6982L6.15898 32.3064C6.0869 32.4984 5.99885 32.7224 5.99885 32.7784C5.99885 33.0504 6.36722 33.2984 6.69555 33.2984C7.45632 33.2984 8.7376 31.9223 8.7376 30.8582M5.6705 30.5782C5.73456 30.3702 5.59042 30.2502 5.47831 30.2502C5.02986 30.2502 4.49333 30.6502 4.28512 31.2263H4.42926C4.5734 31.0183 4.82163 30.7862 5.05386 30.7542L4.19704 32.9944C4.11696 33.2024 4.27711 33.3224 4.38923 33.3224C4.81365 33.3224 5.31815 32.9144 5.53437 32.3463H5.39023C5.24609 32.5544 4.99781 32.7864 4.76558 32.8184L5.67851 30.5782H5.6705ZM5.83067 29.4501C6.03888 29.4501 6.19906 29.2901 6.19906 29.0821C6.19906 28.8741 6.03087 28.7141 5.83067 28.7141C5.63047 28.7141 5.46228 28.8821 5.46228 29.0821C5.46228 29.2821 5.62246 29.4501 5.83067 29.4501ZM3.56437 29.0901H1.51431L1.45825 29.2581C2.05885 29.3781 2.12294 29.4341 1.83465 30.2182L1.16997 32.0583C0.889686 32.8264 0.769577 32.8904 0.0808833 33.0184L0.0328369 33.1864H3.14799L3.82865 31.9863H3.58842C3.20403 32.4104 2.75556 32.9384 2.06687 32.9384C1.54634 32.9384 1.47427 32.8504 1.76256 32.0663L2.42724 30.2262C2.70752 29.4581 2.82763 29.3941 3.51632 29.2661L3.56437 29.0901Z" fill="white"/>
<path d="M17.7141 3.89596C17.7862 3.91196 17.9143 3.91196 17.9143 3.95197C17.8743 4.10398 17.642 4.15198 17.5299 4.29599H17.4739C17.4178 4.33599 17.4338 4.424 17.3778 4.424C17.3217 4.408 17.2657 4.424 17.2096 4.44C17.2817 4.51201 17.3778 4.56801 17.4979 4.55201C17.5139 4.55201 17.554 4.59201 17.554 4.62401C17.554 4.62401 17.57 4.62401 17.594 4.60801C17.61 4.60801 17.634 4.60801 17.634 4.62401V4.69602C17.578 4.76802 17.4819 4.73602 17.4018 4.75202C17.554 4.79203 17.7141 4.79203 17.8423 4.75202C17.9544 4.71202 17.8423 4.52001 17.9143 4.424C17.8743 4.424 17.9143 4.368 17.8743 4.368C17.9143 4.32799 17.9464 4.27199 17.9864 4.25599C18.0264 4.25599 18.0825 4.23999 18.0985 4.19999C18.0985 4.15998 18.0264 4.14398 18.0425 4.10398C18.1546 4.03197 18.2587 3.90396 18.2106 3.79195C18.1946 3.73595 18.0424 3.73595 17.9383 3.69595C17.8342 3.65595 17.7221 3.69595 17.61 3.71195C17.5139 3.71195 17.4098 3.76795 17.3217 3.78396C17.1936 3.82396 17.0655 3.89596 16.9534 3.98397C17.0815 3.92797 17.2256 3.91196 17.3778 3.87196C17.4899 3.87196 17.594 3.84796 17.7061 3.87196V3.89596H17.7141Z" fill="white"/>
<path d="M4.31668 20.9774V19.6333H8.13654V19.9933C8.13654 20.6494 8.03241 21.2334 7.80819 21.7534C7.58396 22.2655 7.29568 22.6895 6.9193 22.9935C6.35073 23.4656 6.1265 23.5376 5.66203 23.7056C5.19756 23.8736 4.69307 23.9536 4.17254 23.9536C3.59596 23.9536 3.05941 23.8576 2.5549 23.6496C2.05039 23.4416 1.60196 23.1695 1.22558 22.8175C0.857212 22.4575 0.552925 22.0255 0.344715 21.5054C0.12049 20.9934 0.0163574 20.4333 0.0163574 19.8413C0.0163574 19.3693 0.0884456 18.9132 0.232591 18.4812C0.376736 18.0492 0.576937 17.6731 0.833195 17.3451C1.08945 17.0171 1.39376 16.7211 1.73009 16.4891C2.07444 16.241 2.45882 16.065 2.87524 15.929C3.29166 15.793 3.7241 15.729 4.18056 15.729C5.24563 15.729 6.11049 15.977 6.77516 16.4731C7.43983 16.9691 7.84827 17.6491 8.00042 18.5212H6.22261C6.10248 18.1372 5.86227 17.8332 5.50191 17.6171C5.14155 17.4011 4.70108 17.2891 4.18056 17.2891C3.49987 17.2891 2.9393 17.5291 2.46682 18.0092C1.99435 18.4892 1.77013 19.0972 1.77013 19.8413C1.77013 20.5853 2.00235 21.1934 2.46682 21.6734C2.93129 22.1535 3.50788 22.3935 4.18056 22.3935C4.74112 22.3935 5.20558 22.2735 5.57395 22.0254C5.94233 21.7774 6.19859 21.4254 6.33473 20.9694H4.3247L4.31668 20.9774Z" fill="white"/>
<path d="M14.1666 23.6579C13.6541 23.8659 13.1016 23.9619 12.541 23.9619C11.9805 23.9619 11.4279 23.8579 10.9074 23.6579C10.3869 23.4578 9.93841 23.1778 9.55402 22.8258C9.16964 22.4738 8.86532 22.0337 8.64109 21.5137C8.41687 20.9937 8.29675 20.4416 8.29675 19.8496C8.29675 19.2576 8.40886 18.7055 8.64109 18.1855C8.87333 17.6654 9.16964 17.2334 9.55402 16.8734C9.93841 16.5214 10.3869 16.2413 10.9074 16.0413C11.4279 15.8413 11.9724 15.7373 12.541 15.7373C13.1096 15.7373 13.6541 15.8333 14.1666 16.0413C14.6791 16.2493 15.1356 16.5214 15.52 16.8734C15.9044 17.2254 16.2087 17.6654 16.4329 18.1855C16.6571 18.6975 16.7692 19.2576 16.7692 19.8496C16.7692 20.4416 16.6571 20.9937 16.4329 21.5137C16.2087 22.0337 15.9044 22.4658 15.52 22.8258C15.1356 23.1778 14.6872 23.4578 14.1666 23.6579ZM10.7552 21.6897C11.2277 22.1618 11.8203 22.4098 12.533 22.4098C13.2457 22.4098 13.8383 22.1698 14.3108 21.6897C14.7833 21.2177 15.0235 20.6016 15.0235 19.8576C15.0235 19.1135 14.7833 18.4975 14.3108 18.0255C13.8383 17.5534 13.2457 17.3054 12.533 17.3054C11.8203 17.3054 11.2277 17.5454 10.7552 18.0255C10.2828 18.4975 10.0425 19.1135 10.0425 19.8576C10.0425 20.6016 10.2828 21.2177 10.7552 21.6897Z" fill="white"/>
<path d="M21.9427 23.6018C21.4702 23.8418 20.9257 23.9618 20.3171 23.9618C19.7085 23.9618 19.1639 23.8418 18.6914 23.6018C18.2189 23.3618 17.8426 23.0018 17.5623 22.5217C17.282 22.0417 17.1459 21.4657 17.1459 20.8016V15.9053H18.8916V20.9536C18.8916 21.3937 19.0197 21.7537 19.284 22.0257C19.5483 22.2977 19.8927 22.4337 20.3171 22.4337C20.7415 22.4337 21.0858 22.3057 21.3501 22.0257C21.6144 21.7537 21.7425 21.3937 21.7425 20.9536V15.9053H23.4882V20.8016C23.4882 21.4657 23.3521 22.0337 23.0718 22.5217C22.7915 23.0098 22.4152 23.3618 21.9427 23.6018Z" fill="white"/>
<path d="M29.1744 23.7937H27.1163L24.1693 15.8892H26.0112L27.9091 21.2975C28.0292 21.6896 28.1173 21.9376 28.1493 22.0336C28.1813 21.9376 28.2534 21.6896 28.3895 21.2975L30.2794 15.8892H32.1213L29.1744 23.7937Z" fill="white"/>
<path d="M38.079 23.7937H32.8898V15.8892H37.9429V17.4253H34.6355V18.8894H37.4224V20.4255H34.6355V22.2496H38.079V23.7857V23.7937Z" fill="white"/>
<path d="M43.4282 20.8175L44.9577 23.7937H43.0839L41.7145 21.1535H40.5213V23.7937H38.7755V15.8892H41.7465C42.6594 15.8892 43.4122 16.1212 43.9567 16.5772C44.5013 17.0332 44.7896 17.6813 44.7896 18.5213C44.7896 19.0654 44.6694 19.5374 44.4292 19.9214C44.189 20.3055 43.8446 20.6015 43.4202 20.8095L43.4282 20.8175ZM41.6904 17.3693H40.5373V19.6894H41.6904C42.1148 19.6894 42.4512 19.5934 42.6994 19.3854C42.9477 19.1774 43.0678 18.8974 43.0678 18.5293C43.0678 18.1613 42.9477 17.8653 42.6994 17.6733C42.4512 17.4813 42.1148 17.3693 41.6904 17.3693Z" fill="white"/>
<path d="M47.6245 23.7937H45.8788V15.8892H47.6245L51.1881 21.0095C51.1721 20.7135 51.1641 20.3855 51.1641 20.0175V15.8892H52.9098V23.7937H51.1641L47.6005 18.6734C47.6165 18.9694 47.6245 19.2974 47.6245 19.6654V23.7937Z" fill="white"/>
<path d="M59.7242 23.7937H54.535V15.8892H59.5881V17.4253H56.2808V18.8894H59.0676V20.4255H56.2808V22.2496H59.7242V23.7857V23.7937Z" fill="white"/>
<path d="M64.8734 19.7372L66.2588 15.897H68.429V23.8015H66.7393V19.8092C66.7393 19.5292 66.7633 19.1132 66.8033 18.5612L65.0416 23.8015H63.7923L62.0305 18.5612C62.0786 19.1212 62.0946 19.5372 62.0946 19.8092V23.8015H60.4049V15.897H62.5751L63.9605 19.7372C63.9605 19.7372 63.9925 19.8172 64.0405 19.9533C64.0886 20.0893 64.1206 20.1773 64.1366 20.2173C64.1527 20.2573 64.1767 20.3373 64.2167 20.4653C64.2567 20.5933 64.2808 20.6813 64.3048 20.7533C64.3289 20.8253 64.3369 20.9053 64.3609 21.0173C64.3849 21.1293 64.3929 21.2174 64.4009 21.3054C64.4009 21.2174 64.4249 21.1293 64.441 21.0173C64.457 20.9053 64.481 20.8253 64.497 20.7453C64.521 20.6733 64.5451 20.5773 64.5851 20.4653C64.6251 20.3533 64.6491 20.2653 64.6732 20.2093C64.6972 20.1533 64.7212 20.0733 64.7693 19.9533C64.8173 19.8333 64.8334 19.7612 64.8494 19.7292L64.8734 19.7372Z" fill="white"/>
<path d="M74.9955 23.7937H69.8063V15.8892H74.8594V17.4253H71.552V18.8894H74.3388V20.4255H71.552V22.2496H74.9955V23.7857V23.7937Z" fill="white"/>
<path d="M77.5427 23.7937H75.797V15.8892H77.5427L81.1063 21.0095C81.0903 20.7135 81.0823 20.3855 81.0823 20.0175V15.8892H82.8281V23.7937H81.0823L77.5187 18.6734C77.5348 18.9694 77.5427 19.2974 77.5427 19.6654V23.7937Z" fill="white"/>
<path d="M11.5882 9.31266L11.9165 8.97663C12.1167 8.73661 12.3329 8.5206 12.5651 8.31259L12.7814 8.12057C12.7814 8.12057 12.8134 8.07257 12.8134 8.04857L12.5572 8.19258C12.5572 8.19258 12.5251 8.19258 12.5572 8.15257L12.7333 8.00856H12.7013C12.4611 8.00056 12.2368 8.10457 12.0847 8.30458H12.0126C11.7243 8.41659 11.5081 8.67261 11.2198 8.78462L10.8594 8.92863C10.7073 8.94463 10.5471 8.94463 10.395 8.92863L9.67424 9.07264L9.31386 9.21665H9.28185C9.28185 9.21665 9.26585 9.25665 9.24984 9.25665L9.14573 9.36866C9.03361 9.44067 8.92147 9.52867 8.81737 9.63268H8.78535L8.457 9.9687H8.42498C8.42498 9.9687 8.45704 9.9287 8.49708 9.8967C8.49708 9.8727 8.51307 9.84069 8.52909 9.82469C8.56913 9.78469 8.59318 9.73669 8.60118 9.68068L8.92949 9.45667C8.92949 9.45667 8.89748 9.44066 8.89748 9.41666H8.82538C8.79335 9.48867 8.75332 9.56067 8.68125 9.56067C8.68125 9.56067 8.69724 9.52067 8.71326 9.52067L8.8574 9.40866L9.07363 9.26465H9.1057L8.77734 9.40866H8.74532C8.74532 9.40866 8.74529 9.44867 8.71326 9.40866L8.81737 9.29666H8.84943C9.46605 8.81662 10.3229 8.92863 11.0436 8.66461L11.2198 8.5526C11.2919 8.5126 11.364 8.40859 11.5081 8.36059C11.6523 8.23258 11.7724 8.06457 11.8364 7.88055H11.8044C11.5401 7.98456 11.2678 8.04057 10.9796 8.07257C10.5711 8.23258 10.1307 8.31259 9.68225 8.29658H9.78636C9.78636 8.29658 9.81837 8.22458 9.85841 8.18458H9.9305C9.9305 8.18458 9.9465 8.14457 9.96252 8.14457H10.0346C9.96254 8.07257 9.85844 8.21658 9.74633 8.14457C9.63422 8.07257 9.77834 8.07257 9.81838 8.03256H9.89047C9.89047 8.03256 9.90647 7.97656 9.92248 7.96056C10.2108 7.76855 10.4991 7.66454 10.7473 7.48053C10.9956 7.29651 10.6753 7.55253 10.6032 7.52053C10.5311 7.48853 10.6032 7.44852 10.6352 7.44852C10.8514 7.37652 11.0516 7.29651 11.2519 7.18451C11.1798 7.18451 11.1077 7.25651 11.0356 7.18451H11.1397V7.1125C11.1397 7.1125 11.1557 7.0725 11.1717 7.0725H11.1397L11.2438 7.00049H11.2118C11.2678 6.92049 11.3639 6.88048 11.468 6.88848C11.436 6.84848 11.3639 6.88848 11.3639 6.84848C11.3639 6.80848 11.396 6.80848 11.436 6.80848H11.3639C11.3639 6.80848 11.3319 6.79248 11.3319 6.76848C11.3319 6.74448 11.3479 6.72847 11.3639 6.72847C11.436 6.57646 11.5001 6.41645 11.5401 6.24844H11.5081C11.2759 6.44845 11.0116 6.57646 10.7153 6.65647H10.6112C10.5071 6.69647 10.379 6.68047 10.2829 6.61646L10.1067 6.47246L9.60219 6.20844C9.13772 6.00842 8.63319 5.88841 8.12869 5.84041C8.35291 5.76041 8.57712 5.6964 8.80935 5.6484C9.11366 5.51239 9.45002 5.44838 9.78636 5.45638C9.71429 5.41638 9.64219 5.45638 9.61016 5.45638C9.32988 5.44038 9.04161 5.47239 8.78535 5.56839L8.20875 5.7124C8.10464 5.75241 8.03258 5.90442 7.92047 5.85641V5.78441C8.08864 5.52839 8.34492 5.36038 8.64121 5.30437C8.97755 5.26437 9.32191 5.27237 9.65024 5.34437L10.403 5.48838C10.4751 5.48838 10.5071 5.6324 10.5792 5.6804C10.6512 5.7284 10.7954 5.6804 10.9395 5.7524C11.0837 5.82441 10.9075 5.6804 10.9395 5.6404C10.9716 5.60039 11.0837 5.6404 11.1958 5.6004C11.3079 5.56039 11.0516 5.33637 10.9796 5.19236C11.1157 5.32837 11.2759 5.46438 11.444 5.56039C11.5481 5.6324 11.7724 5.6724 11.7323 5.56039C11.6122 5.34437 11.4601 5.15236 11.2999 4.96835V4.89634H11.2278V4.70433C11.1557 4.66433 11.1958 4.59232 11.1237 4.56032C11.0516 4.52832 11.1237 4.2963 11.0917 4.19229C11.0516 4.08829 11.0276 3.96828 11.0196 3.85627C10.9475 3.53625 10.8835 3.21623 10.8434 2.8962C10.8114 2.52818 11.0596 2.23216 11.2358 1.89613C11.3399 1.63211 11.5321 1.4161 11.7723 1.26409C11.8364 1.02407 11.9645 0.808055 12.1327 0.632042C12.2769 0.440029 12.4851 0.29602 12.7093 0.224015L13.2458 0H17.0897L17.1618 0.0720052L17.4501 0.216013C17.5862 0.280017 17.7144 0.384027 17.8105 0.512036C17.8425 0.584041 17.9145 0.704048 17.8825 0.776053C17.8505 0.848058 17.8104 1.04007 17.7384 1.07208C17.6022 1.12808 17.4501 1.16008 17.3059 1.14408L17.0897 1.07208C17.394 1.17608 17.6583 1.36809 17.8425 1.63211L18.0186 1.70412C18.0186 1.70412 17.9466 1.77612 17.9866 1.81613H18.0186C18.1227 1.77612 18.0907 1.59211 18.2349 1.67212C18.3229 1.70412 18.371 1.80813 18.339 1.91213C18.339 1.93614 18.323 1.95214 18.3069 1.96814L18.0907 2.16015C18.0587 2.20015 18.0587 2.26416 18.0907 2.30416L18.1948 2.52818L18.2989 2.96821C18.395 3.25623 18.4431 3.55225 18.4431 3.84827C18.4431 3.99228 18.371 4.14429 18.4111 4.2883C18.4751 4.43231 18.5472 4.59232 18.6272 4.72833C18.7153 4.80834 18.7954 4.90435 18.8435 5.02435C18.9476 5.21637 19.1718 5.43238 19.0997 5.6564C19.0277 5.88041 18.8114 5.76841 18.6673 5.88041C18.5231 5.99242 18.6673 6.14443 18.7394 6.21644C18.8114 6.28844 18.5952 6.51246 18.4831 6.58446C18.371 6.65647 18.5872 6.62447 18.5872 6.65647C18.5872 6.68847 18.7314 6.80048 18.6593 6.92049C18.5872 7.04049 18.331 7.1125 18.4831 7.28851C18.6353 7.46452 18.4831 7.58453 18.4511 7.69654C18.395 7.84855 18.2509 7.96856 18.0907 7.99256C17.9866 8.05657 17.8505 8.07257 17.7303 8.03256H17.6262C17.3059 7.96856 16.9776 7.92056 16.6493 7.88855L16.361 7.96056L16.1448 8.18458H16.0407L15.8965 8.40859C15.8965 8.40859 15.8965 8.44859 15.8645 8.44859L15.7203 8.81662C15.6162 9.25665 15.6483 9.66468 15.7524 9.74468C15.8565 9.82469 16.401 9.9687 16.7934 10.1847L17.2579 10.4087H9.33791C9.74632 10.1607 10.1627 9.9447 10.5952 9.74468C10.9475 9.60868 11.2758 9.40866 11.5721 9.15264M8.64121 7.80055C8.64121 7.80055 8.53711 7.84055 8.53711 7.80055C8.53711 7.76055 8.68126 7.68854 8.79337 7.65654C8.90548 7.62454 8.86545 7.58453 8.89748 7.61653L9.04162 7.68854C8.93751 7.80055 8.78537 7.76055 8.64923 7.80055M5.68624 7.36052H5.65417C5.90242 7.04849 6.11869 6.72047 6.30287 6.36045C6.53511 6.22444 6.75132 6.05643 6.95153 5.88041C7.25583 5.51239 7.61618 5.21637 8.03259 5.00035C8.19276 4.96035 8.37694 4.96835 8.53711 5.04036C8.46503 5.11236 8.36092 5.11236 8.28084 5.15236H8.24883V5.08036C8.07265 5.30437 7.78434 5.41638 7.63219 5.6724C7.48004 5.92842 7.45603 6.11243 7.19977 6.15243C6.94352 6.19244 7.19974 6.11243 7.16771 6.11243C6.63117 6.50446 6.12669 6.96049 5.69425 7.48053M7.27182 6.16843C7.27182 6.16843 7.2398 6.20844 7.2398 6.24044C7.2398 6.27244 7.20775 6.31244 7.16771 6.31244H7.1357C7.1357 6.24044 7.20776 6.12043 7.27983 6.12043M8.16872 9.08864C8.16872 9.08864 8.1367 9.12864 8.1367 9.16064C8.1367 9.19265 8.16872 9.16065 8.16872 9.20065L8.02458 9.27265C8.02458 9.27265 7.99256 9.28865 7.99256 9.31266H7.92047C7.92047 9.31266 7.77632 9.35266 7.81636 9.31266L7.9605 9.16865C7.9605 9.16865 8.03259 9.12864 8.03259 9.09664H8.17673M7.84842 8.94463L7.59216 9.08864L7.3359 9.20065H7.30388L7.12768 9.34466H7.02357C7.02357 9.34466 7.00757 9.38466 6.99156 9.38466H6.95949C6.95949 9.38466 6.95951 9.42466 6.92748 9.42466H6.89546C6.89546 9.42466 6.82337 9.46467 6.82337 9.49667L6.71926 9.60868H6.61515L6.68725 9.53667H6.75929C6.75929 9.53667 6.79134 9.46467 6.83139 9.46467C6.83139 9.46467 6.84738 9.42466 6.8634 9.42466C6.8634 9.42466 6.89546 9.38466 6.89546 9.35266C6.89546 9.35266 6.96751 9.28065 6.96751 9.24065L6.89546 9.31266C6.89546 9.31266 6.8634 9.29666 6.8634 9.27265C6.87942 9.27265 6.89546 9.25665 6.89546 9.23265H6.92748L6.99957 9.12064H7.07162V9.04864C7.28783 8.85662 7.57613 8.90463 7.82438 8.75262C8.07263 8.60061 8.04058 8.79262 8.11266 8.75262H8.28886L7.82438 9.08864M8.20875 7.72855C8.20875 7.72855 8.2408 7.72855 8.28084 7.65654H8.1367L7.80835 7.76855L7.41596 7.91256C7.21576 8.03257 7.01559 8.15257 6.79937 8.24858C6.65523 8.31258 6.64719 8.29658 6.76731 8.20858L6.91145 8.09657C7.0636 7.89656 7.24782 7.72054 7.44802 7.58453V7.51253C7.5281 7.44853 7.60014 7.37652 7.66421 7.28851C7.69624 7.20051 7.76033 7.1365 7.84041 7.0965H7.76831C7.69624 7.0965 7.6242 7.1365 7.55213 7.0565L7.65619 6.98449H7.62418C7.59214 6.91249 7.65621 6.87249 7.72828 6.87249L7.94452 6.80048C7.80037 6.76048 7.6562 6.84048 7.51205 6.76047C7.59213 6.50446 7.78433 6.29644 8.01656 6.16843H8.04863C8.04863 6.28044 8.0166 6.36045 7.90449 6.36045L8.36892 6.50446C8.36892 6.50446 8.35292 6.54446 8.3369 6.54446C8.32089 6.54446 8.30489 6.52846 8.30489 6.50446C8.37696 6.57646 8.5211 6.54446 8.59317 6.61646C8.66524 6.68847 8.48907 6.61646 8.44903 6.61646C9.02561 6.80848 9.66623 6.91249 10.1787 7.32051C9.74631 7.44852 9.29788 7.52053 8.84142 7.51253H8.66521C8.59314 7.51253 8.52109 7.51253 8.48906 7.58453H8.2328" fill="white"/>
<path d="M11.5877 9.31266L11.916 8.97663C12.1162 8.73661 12.3324 8.5206 12.5646 8.31259L12.7809 8.12057C12.7809 8.12057 12.8129 8.07257 12.8129 8.04857L12.5567 8.19258C12.5567 8.19258 12.5246 8.19258 12.5567 8.15257L12.7328 8.00856H12.7008C12.4606 8.00056 12.2363 8.10457 12.0842 8.30458H12.0121C11.7238 8.41659 11.5076 8.67261 11.2193 8.78462L10.8589 8.92863C10.7068 8.94463 10.5466 8.94463 10.3945 8.92863L9.67375 9.07264L9.31338 9.21665H9.28136C9.28136 9.21665 9.26537 9.25665 9.24935 9.25665L9.14524 9.36866L8.81688 9.63268C8.81688 9.63268 8.78487 9.64868 8.78487 9.67268L8.45651 9.9687H8.4245C8.4245 9.9687 8.45655 9.9287 8.49659 9.8967C8.49659 9.8727 8.51259 9.84069 8.5286 9.82469C8.56864 9.78469 8.59269 9.73669 8.6007 9.68068L8.92901 9.45667C8.92901 9.45667 8.89699 9.44066 8.89699 9.41666H8.8249C8.79287 9.48867 8.75283 9.56067 8.68076 9.56067C8.68076 9.56067 8.69676 9.52067 8.71277 9.52067L8.85691 9.40866L9.07315 9.26465H9.10521L8.77685 9.40866H8.74484C8.74484 9.40866 8.74481 9.44866 8.71277 9.40866L8.81688 9.29665H8.84895C9.46557 8.81662 10.3224 8.92863 11.0431 8.66461L11.2193 8.5526C11.2914 8.5126 11.3635 8.40859 11.5076 8.36059C11.6518 8.23258 11.7719 8.06457 11.8359 7.88055H11.8039C11.5397 7.98456 11.2674 8.04057 10.9791 8.07257C10.5707 8.23258 10.1302 8.31259 9.68177 8.29658H9.78588C9.78588 8.29658 9.81788 8.22458 9.85792 8.18458H9.93001C9.93001 8.18458 9.94601 8.14457 9.96203 8.14457H10.0341C9.96205 8.07257 9.85796 8.21658 9.74584 8.14457C9.63373 8.07257 9.77785 8.07257 9.81789 8.03256H9.88998C9.88998 8.03256 9.90598 7.97656 9.922 7.96056C10.2103 7.76855 10.4986 7.66454 10.7469 7.48053C10.9951 7.29651 10.6748 7.55253 10.6027 7.52053C10.5306 7.48853 10.6027 7.44852 10.6347 7.44852C10.8509 7.37652 11.0512 7.29651 11.2514 7.18451C11.1793 7.18451 11.1072 7.25651 11.0351 7.18451H11.1392V7.1125C11.1392 7.1125 11.1552 7.0725 11.1713 7.0725H11.1392L11.2433 7.00049H11.2113C11.2673 6.92049 11.3634 6.88048 11.4675 6.88848C11.4355 6.84848 11.3634 6.88848 11.3634 6.84848C11.3634 6.80848 11.3955 6.80848 11.4355 6.80848H11.3634C11.3634 6.80848 11.3314 6.79248 11.3314 6.76848C11.3314 6.74447 11.3474 6.72847 11.3634 6.72847C11.4355 6.57646 11.4996 6.41645 11.5396 6.24844H11.5076C11.2754 6.44845 11.0111 6.57646 10.7148 6.65647H10.6107C10.5066 6.69647 10.3785 6.68047 10.2824 6.61646L10.1062 6.47246L9.60171 6.20844C9.13724 6.00842 8.63271 5.88841 8.1282 5.84041C8.35243 5.76041 8.57663 5.6964 8.80887 5.6484C9.11317 5.51239 9.44954 5.44838 9.78588 5.45638C9.7138 5.41638 9.6417 5.45638 9.60967 5.45638C9.32939 5.44038 9.04113 5.47239 8.78487 5.56839L8.20826 5.7124C8.10416 5.75241 8.0321 5.90442 7.91998 5.85641V5.78441C8.08815 5.52839 8.34443 5.36038 8.64073 5.30437C8.97707 5.26437 9.32142 5.27237 9.64975 5.34437L10.4025 5.48838C10.4746 5.48838 10.5066 5.6324 10.5787 5.6804C10.6507 5.7284 10.7949 5.6804 10.939 5.7524C11.0832 5.82441 10.907 5.6804 10.939 5.6404C10.9711 5.60039 11.0832 5.6404 11.1953 5.60039C11.3074 5.56039 11.0511 5.33637 10.9791 5.19236C11.1552 5.30437 11.2674 5.48838 11.4435 5.56039C11.6197 5.63239 11.7719 5.6724 11.7318 5.56039C11.6117 5.34437 11.4596 5.15236 11.2994 4.96835V4.89634H11.2273V4.70433C11.1552 4.66433 11.1953 4.59232 11.1553 4.56032C11.1152 4.52832 11.1232 4.2963 11.0832 4.19229C11.0431 4.08829 11.0191 3.96828 11.0111 3.85627C10.939 3.53625 10.875 3.21623 10.8349 2.8962C10.8029 2.52818 11.0511 2.23216 11.2273 1.89613C11.3314 1.63211 11.5236 1.4161 11.7638 1.26409C11.8279 1.02407 11.956 0.808055 12.1242 0.632042C12.2684 0.440029 12.4766 0.29602 12.7008 0.224015L13.2373 0H0V10.4727H9.34544C9.75385 10.2247 10.1703 10.0087 10.6027 9.80869C10.9551 9.67268 11.2834 9.47267 11.5797 9.21665M8.64073 7.90456C8.64073 7.90456 8.53662 7.94456 8.53662 7.90456C8.53662 7.86455 8.68077 7.79255 8.79288 7.76054C8.905 7.72854 8.86496 7.68854 8.89699 7.72054L9.04113 7.79255C8.93703 7.90456 8.78488 7.86455 8.64874 7.90456M5.68575 7.46452H5.65369C5.90194 7.1525 6.1182 6.82448 6.30239 6.46445C6.55064 6.30444 6.75885 6.10443 6.95104 5.87241C7.25535 5.50439 7.61569 5.20837 8.03211 4.99235C8.19227 4.95235 8.37646 4.96035 8.53662 5.03235C8.46455 5.10436 8.36044 5.10436 8.28036 5.14436H8.24834V5.07236C8.07216 5.29637 7.78386 5.40838 7.63171 5.6644C7.47955 5.92042 7.45555 6.10443 7.19929 6.14443C6.94303 6.18443 7.19926 6.10443 7.16722 6.10443C6.63068 6.49646 6.1262 6.95249 5.69377 7.47253M7.27133 6.16843C7.27133 6.16843 7.23932 6.20844 7.23932 6.24044C7.23932 6.27244 7.20726 6.31244 7.16722 6.31244H7.13521C7.13521 6.24044 7.20728 6.12043 7.27935 6.12043M8.16823 9.08864C8.16823 9.08864 8.13622 9.12864 8.13622 9.16064C8.13622 9.19265 8.16823 9.16065 8.16823 9.20065L8.02409 9.27265H7.91998C7.91998 9.27265 7.77583 9.31266 7.81587 9.27265L7.96001 9.12864C7.96001 9.12864 8.03211 9.08864 8.03211 9.05664C8.04812 9.05664 8.06412 9.04063 8.06412 9.01663H8.16823M7.84794 8.86462L7.59167 9.00863L7.33541 9.12064H7.3034L7.12719 9.26465H7.02308C7.02308 9.26465 7.00709 9.30465 6.99107 9.30465H6.95901C6.95901 9.30465 6.95902 9.34466 6.92699 9.34466H6.89498C6.89498 9.34466 6.82288 9.38466 6.82288 9.41666L6.71877 9.52867H6.61467L6.68676 9.45667H6.7588C6.7588 9.45667 6.79086 9.38466 6.8309 9.38466C6.8309 9.38466 6.8469 9.34466 6.86291 9.34466C6.86291 9.34466 6.89498 9.30466 6.89498 9.27265C6.89498 9.27265 6.96702 9.20065 6.96702 9.16064L6.89498 9.23265C6.89498 9.23265 6.86291 9.21665 6.86291 9.19265C6.87893 9.19265 6.89498 9.17665 6.89498 9.15264H6.92699L6.99909 9.04064H7.07113V8.96863C7.28735 8.77662 7.57564 8.82462 7.82389 8.67261C8.07214 8.5206 8.0401 8.71261 8.11217 8.67261H8.28837L7.82389 9.00863M8.20826 7.64854C8.20826 7.64854 8.24032 7.64854 8.28036 7.57653H8.13622L7.80786 7.68854L7.41547 7.83255C7.21527 7.95256 7.0151 8.07257 6.79888 8.16858C6.65474 8.23258 6.6467 8.21658 6.76682 8.12857L6.91096 8.01656C7.06311 7.81655 7.24733 7.64054 7.44754 7.50453V7.43252C7.52762 7.36852 7.59966 7.29651 7.66372 7.20851C7.69575 7.1205 7.75984 7.05649 7.83992 7.01649H7.76783C7.69576 7.01649 7.62372 7.0565 7.55164 6.97649L7.6557 6.90448H7.62369C7.59166 6.83248 7.65573 6.79248 7.7278 6.79248L7.94403 6.72047C7.79989 6.68047 7.65571 6.76048 7.51156 6.68047C7.59165 6.42445 7.78384 6.21644 8.01608 6.08843H8.04814C8.04814 6.20043 8.01611 6.28044 7.904 6.28044L8.36843 6.42445C8.36843 6.42445 8.35243 6.46445 8.33642 6.46445C8.3204 6.46445 8.3044 6.44845 8.3044 6.42445C8.37648 6.49646 8.52061 6.46445 8.59268 6.53646C8.66475 6.60846 8.48858 6.53646 8.44854 6.53646C9.02512 6.72847 9.66575 6.83248 10.1783 7.24051C9.75384 7.39252 9.3054 7.48853 8.84093 7.50453H8.66473C8.59265 7.50453 8.52061 7.50453 8.48857 7.57653H8.23231" fill="#293273"/>
<path d="M28.0208 0.0878906H17.0818L17.1538 0.159896L17.4421 0.303906C17.5783 0.367911 17.7064 0.47192 17.8025 0.599929C17.8345 0.671934 17.9066 0.791941 17.8745 0.863946C17.8425 0.935951 17.8025 1.12796 17.7304 1.15997C17.5943 1.21597 17.4421 1.24797 17.298 1.23197L17.0818 1.15997C17.3861 1.26397 17.6503 1.45599 17.8345 1.72001L18.0107 1.79201C18.0107 1.79201 17.9386 1.86402 17.9787 1.90402H18.0107C18.1148 1.86402 18.0828 1.68 18.2269 1.76001C18.315 1.79201 18.363 1.89602 18.331 2.00003C18.331 2.02403 18.315 2.04003 18.299 2.05603L18.0828 2.24804C18.0507 2.28805 18.0507 2.35205 18.0828 2.39205L18.1869 2.61607L18.291 3.0561C18.3871 3.34412 18.4351 3.64014 18.4351 3.93616C18.4351 4.08017 18.363 4.23218 18.4351 4.37619C18.4752 4.5282 18.5312 4.68021 18.6113 4.81622C18.6994 4.89623 18.7795 4.99224 18.8275 5.11225C18.9717 5.30426 19.1558 5.52027 19.0838 5.74429C19.0117 5.9683 18.7955 5.8563 18.6514 5.96831C18.5072 6.08031 18.6513 6.23232 18.7234 6.30433C18.7955 6.37633 18.5792 6.60035 18.4671 6.67236C18.355 6.74436 18.5712 6.71236 18.5712 6.74436C18.5712 6.77636 18.7154 6.88837 18.6433 7.00838C18.5713 7.12839 18.315 7.20039 18.4671 7.3764C18.6193 7.55242 18.4672 7.67243 18.4351 7.78444C18.3791 7.93645 18.2349 8.05645 18.0747 8.08046C17.9706 8.14446 17.8345 8.16046 17.7144 8.12046H17.6103C17.29 8.05645 16.9616 8.00845 16.6333 7.97645L16.345 8.04845L16.1288 8.27247H16.0247L15.8805 8.49649C15.8805 8.49649 15.8806 8.53649 15.8485 8.53649L15.7044 8.90451C15.6003 9.34454 15.6323 9.75257 15.7364 9.83258C15.8405 9.91258 16.385 10.0566 16.7774 10.2726L17.2419 10.4966H27.9967V0.111894L28.0208 0.0878906Z" fill="#E00814"/>
<path d="M17.7296 3.92003H17.9058C17.8737 4.11204 17.6495 4.14404 17.5134 4.28805H17.4813C17.4092 4.32805 17.4493 4.43206 17.3772 4.43206H17.2011C17.2651 4.52807 17.3692 4.58407 17.4893 4.57607L17.5614 4.64808H17.6335V4.76008C17.5614 4.83209 17.4893 4.80009 17.4172 4.83209H17.8497C17.9538 4.76008 17.8497 4.56807 17.9218 4.46406C17.9938 4.36006 17.9218 4.42406 17.8897 4.42406C17.8577 4.42406 17.9618 4.31205 17.9938 4.31205C18.0259 4.31205 18.098 4.27205 18.098 4.24005C18.098 4.20805 18.0259 4.16804 18.0659 4.12804C18.1059 4.08804 18.2821 3.93603 18.2421 3.83202C18.2021 3.72801 18.0659 3.76001 17.9538 3.72001C17.8497 3.69601 17.7296 3.71201 17.6255 3.76001L17.3372 3.83202L16.9768 4.02403C17.1129 3.96803 17.2651 3.92803 17.4093 3.91203C17.5134 3.89603 17.6255 3.89603 17.7376 3.91203" fill="#9C9B9B"/>
</svg>
