<svg width="62" height="52" viewBox="0 0 62 52" fill="none" xmlns="http://www.w3.org/2000/svg">
<path d="M61.5642 28.4837C61.3618 28.7336 61.1712 28.9596 60.9807 29.1738C61.1117 29.2095 61.2188 29.2333 61.3379 29.269C61.2427 29.3642 61.1712 29.4713 61.0641 29.5189C60.9211 29.5783 60.7425 29.6021 60.5638 29.6378C60.7663 29.6854 60.9568 29.733 61.1831 29.7806C60.8973 30.0662 60.5519 30.0186 60.2304 30.0305C60.409 30.1257 60.5757 30.197 60.7306 30.2684C60.7306 30.3041 60.7067 30.3398 60.6948 30.3755C60.3375 30.3398 59.9922 30.2922 59.6349 30.2565V30.3279C59.7898 30.4112 59.9446 30.4826 60.0756 30.5778C60.1589 30.6373 60.2065 30.7443 60.2661 30.8276C60.147 30.8514 60.0279 30.9228 59.9207 30.9109C59.5873 30.8514 59.2657 30.78 58.9203 30.7682C59.2419 30.899 59.5516 31.0299 59.8731 31.1608C59.8731 31.2084 59.8493 31.256 59.8374 31.3036C59.5992 31.3036 59.3372 31.3274 59.099 31.3036C58.8608 31.2679 58.6108 31.1608 58.3726 31.0894C58.3487 31.1251 58.3368 31.1608 58.313 31.1846C58.5273 31.3036 58.7418 31.4225 58.968 31.5296C59.0633 31.5772 59.1824 31.5534 59.2658 31.6129C59.3491 31.6724 59.4324 31.7676 59.4443 31.8509C59.4443 31.9104 59.3134 32.0293 59.2419 32.0293C58.9918 32.0293 58.7298 32.0055 58.4678 31.9461C58.182 31.8866 57.92 31.7557 57.6342 31.6962C57.527 31.6724 57.396 31.7557 57.2769 31.7914C57.3364 31.8866 57.3603 32.0293 57.4436 32.0769C57.6461 32.2078 57.8723 32.2792 58.0986 32.3982C58.2653 32.4934 58.4559 32.5648 58.6107 32.6837C58.6821 32.7432 58.7417 32.886 58.7179 32.9574C58.6822 33.0407 58.5512 33.1121 58.444 33.124C57.8009 33.1834 57.2055 33.0526 56.6696 32.6956C56.4314 32.5409 56.1813 32.303 55.8954 32.6004C55.824 32.6718 55.7645 32.767 55.7049 32.8622C55.8002 32.9217 55.8836 33.0169 55.9907 33.0526C56.4314 33.1834 56.8839 33.2905 57.3246 33.4214C57.5508 33.4809 57.7771 33.5761 57.7175 33.8735C57.658 34.1591 57.4317 34.1472 57.2173 34.1472C56.6338 34.1472 56.1217 33.9687 55.6216 33.6832C55.2643 33.4809 54.8951 33.2905 54.3949 33.6118C55.5382 34.0282 56.61 34.4208 57.6699 34.8016V34.9087C57.5389 34.9681 57.4079 35.0633 57.2769 35.0752C56.3241 35.1347 55.3714 35.1704 54.4902 34.754C54.3115 34.6707 54.121 34.5636 54.0138 34.4089C53.8113 34.1234 53.6803 34.2067 53.5136 34.4089C53.4898 34.4446 53.4541 34.4803 53.3588 34.5755C54.6331 35.0395 55.8716 35.4917 57.122 35.9557C56.5504 36.622 53.073 36.3007 52.7276 35.2299C52.5609 35.4084 52.3941 35.5868 52.2155 35.7772C52.7633 36.0152 53.3231 36.2769 53.9186 36.503C54.5259 36.7291 55.1571 36.8956 55.7764 37.0979C55.8955 37.1336 55.9788 37.2645 56.086 37.3359C55.9788 37.3953 55.8716 37.5024 55.7525 37.5143C54.383 37.7523 53.0729 37.6928 51.8463 36.9432C51.6915 36.848 51.5248 36.7528 51.3819 36.6577C51.4176 36.5982 51.4414 36.5625 51.4771 36.503C51.3342 36.6696 51.1913 36.8599 51.0842 36.9789C51.4533 37.1455 51.8225 37.3359 52.2155 37.5024C53.2158 37.9308 54.2282 38.3234 55.2285 38.7517C55.4072 38.8231 55.55 38.9659 55.7168 39.0849C55.5262 39.1681 55.3357 39.299 55.1332 39.3109C54.7283 39.3347 54.3235 39.3109 53.9186 39.2514C53.3231 39.1562 52.7157 39.0492 52.144 38.8826C51.6796 38.7517 51.2508 38.5019 50.7983 38.2996C50.7626 38.6208 51.0841 38.7636 51.2747 38.8707C52.1202 39.3347 53.0134 39.7511 53.8828 40.1914C54.3115 40.3936 54.7283 40.5959 55.1928 40.8101C54.8117 41.2265 54.3949 41.167 54.0257 41.1194C53.2992 41.0242 52.5609 40.8696 51.7987 40.7268C51.8701 40.9409 51.9297 41.0956 52.2274 41.167C52.9539 41.3574 53.6684 41.6072 54.383 41.8571C54.514 41.9047 54.5973 42.0237 54.7045 42.1189C54.5735 42.2021 54.4544 42.333 54.3115 42.3449C53.7994 42.3687 53.2754 42.3449 52.7633 42.3449C52.7038 42.3449 52.6442 42.3211 52.6204 42.2854C52.5966 42.2616 52.6204 42.1902 52.6204 42.1664H54.2044C53.5851 42.0475 53.0015 41.9285 52.3822 41.7857C52.3227 41.7381 52.2989 41.7262 52.2751 41.7262C52.2989 41.7738 52.3108 41.8095 52.3346 41.8571C52.68 42.69 53.0253 43.5228 53.3469 44.3081C53.4779 44.2486 53.5851 44.1772 53.6684 44.1772C53.7756 44.201 53.9542 44.3557 53.9423 44.3676C53.847 44.5342 53.7399 44.6769 53.597 44.8673C53.6803 45.0458 53.7875 45.3194 53.9066 45.5931H50.7864C50.3934 44.6412 50.0123 43.6894 49.6193 42.7257H44.0577C43.6647 43.6775 43.2837 44.6412 42.8907 45.5931H39.8538C41.7473 41.1551 43.6171 36.741 45.5106 32.303H48.083C48.1783 32.303 48.3093 32.3982 48.3332 32.4696C48.8333 33.6594 49.3335 34.8611 49.8456 36.0509C49.8932 36.1698 49.9766 36.265 50.0362 36.384C50.1672 36.6339 50.2743 36.8837 50.4053 37.1574C50.5244 37.0265 50.6911 36.8599 50.8697 36.6577C50.2028 36.4911 50.0242 35.9676 49.8575 35.4679C49.5359 34.4803 49.5003 33.4809 49.7503 32.4696C49.7742 32.3506 49.8575 32.2435 49.917 32.1364C49.9647 32.1364 50.0123 32.1126 50.0481 32.1126C50.1672 32.4339 50.2862 32.7313 50.4053 33.0526C50.7031 33.8616 50.9889 34.6588 51.2866 35.456C51.3461 35.6225 51.4057 35.7772 51.4533 35.9081C51.5843 35.7772 51.7629 35.5868 51.9177 35.4203C51.2508 34.9562 51.0841 34.1829 51.0603 33.3738C51.0365 32.7194 51.0246 32.0769 51.2747 31.4463C51.3223 31.3393 51.3819 31.2322 51.4414 31.1251H51.5486C51.62 31.3274 51.7272 31.5177 51.7748 31.7081C51.9773 32.6599 52.156 33.6237 52.6323 34.4922C52.6681 34.5517 52.6561 34.6469 52.668 34.7064C52.8348 34.5398 53.0015 34.3613 53.1683 34.1948C52.5966 34.0163 52.5728 33.469 52.5132 32.9812C52.4179 32.2435 52.5371 31.5058 52.7991 30.7919C52.8586 30.6254 53.0015 30.5064 53.1563 30.2922C53.3588 31.5058 53.5493 32.6123 53.728 33.7308C53.8828 33.6237 54.0138 33.5285 54.1329 33.4333C54.3235 33.2667 54.3592 33.1121 54.3353 32.8265C54.2758 31.9936 54.1329 31.137 54.6092 30.3636C54.7164 30.197 54.8593 30.0424 55.0379 29.8282C55.419 30.7444 55.1809 31.601 55.169 32.4577C55.6335 32.3506 55.7049 32.1126 55.5858 31.5058C55.4548 30.8157 55.5024 30.1257 56.0145 29.5426C56.0383 29.507 56.086 29.4832 56.1813 29.4118C56.2408 29.5783 56.3361 29.7092 56.3361 29.8401C56.3361 30.2208 56.2646 30.5897 56.2408 30.9704C56.2408 31.1132 56.2646 31.256 56.2885 31.3987H56.4433C56.479 31.2322 56.5385 31.0656 56.5624 30.8871C56.5981 30.5778 56.5862 30.2684 56.6576 29.971C56.7053 29.7687 56.8482 29.5902 56.9673 29.3642C57.4556 29.8401 57.0387 30.435 57.4198 30.8752C57.4198 30.6968 57.4198 30.5183 57.4436 30.3398C57.4674 30.1138 57.4674 29.8996 57.5151 29.6735C57.5389 29.5783 57.6223 29.5189 57.6818 29.4356C57.7771 29.5189 57.9081 29.5783 57.9438 29.6735C58.0152 29.8758 58.0272 30.1019 58.0748 30.3755C58.0987 29.9472 58.1343 29.5783 58.1701 29.1976C58.313 29.2452 58.4559 29.5189 58.6107 30.0067C58.7179 29.6497 58.837 29.3166 58.9442 28.9596C59.0037 28.9596 59.0633 28.9596 59.1109 28.9596C59.1705 29.1619 59.2062 29.3523 59.2658 29.5426H59.361C59.4205 29.3047 59.4801 29.0667 59.5277 28.8288C59.5515 28.8288 59.5754 28.805 59.5992 28.805C59.6468 28.9359 59.6945 29.0786 59.7659 29.269C59.8493 29.0786 59.9088 28.9002 60.0041 28.7455C60.0637 28.6384 60.1708 28.5551 60.2661 28.4599C60.3375 28.5551 60.4209 28.6622 60.5043 28.7812C60.5638 28.6503 60.6353 28.5075 60.7067 28.3528C60.8377 28.0792 60.9092 28.0792 61.0997 28.3291C61.2784 28.2696 61.4451 28.222 61.6476 28.1625C61.6714 28.222 61.6714 28.2696 61.6714 28.3528M47.3923 37.3715C47.2136 36.9194 47.0231 36.4673 46.8087 35.9557C46.2252 37.3834 45.6774 38.716 45.1177 40.0843H48.5117C48.1307 39.18 47.7615 38.3115 47.3923 37.3834M51.8344 36.6815C51.9654 36.7766 52.0845 36.8837 52.2274 36.967C52.8229 37.3121 53.4898 37.4191 54.1686 37.4667C54.5735 37.4905 54.9785 37.4667 55.4667 37.4429C54.6331 37.1693 53.9185 36.9194 53.204 36.6934C52.8824 36.5982 52.5609 36.4911 52.2393 36.4554C52.1083 36.4316 51.9535 36.5863 51.8463 36.6934M53.9542 35.8724C54.7522 36.158 55.5858 36.0866 56.4075 36.0628C55.5382 35.7772 54.6688 35.5155 53.7875 35.2775C53.5374 35.2061 53.2635 35.1823 53.0015 35.1347L52.9658 35.2656C53.1801 35.6106 53.5612 35.6939 53.9542 35.8724ZM52.4537 38.2996C52.3227 38.2401 52.2036 38.1806 52.0607 38.133C51.6319 37.9902 51.2151 37.7404 50.7268 37.8475C51.3461 38.716 53.7399 39.1444 54.5259 39.0849C53.9185 38.8588 53.2039 38.5851 52.4418 38.2758M52.3822 40.1081C52.0726 39.9891 51.763 39.882 51.4176 39.7511C51.5367 40.2271 51.6558 40.5126 52.1798 40.5959C52.9777 40.7268 53.7637 40.9529 54.5973 40.8815C53.8828 40.6316 53.1563 40.3817 52.3941 40.0962M50.4291 35.3489C50.2386 34.4565 50.06 33.5523 49.8694 32.6718C49.7146 33.6356 49.6907 34.6231 50.0718 35.575C50.2028 35.8962 50.2743 36.3007 50.7268 36.4554C50.6077 36.0747 50.5244 35.7415 50.4053 35.3489M51.2985 32.1483C51.0961 33.1715 51.2389 34.9919 52.0607 35.2299C51.8582 33.9925 51.3342 32.8384 51.3937 31.5772C51.3699 31.7438 51.3343 31.9223 51.3104 32.1602M56.1932 34.9443H56.9077C56.2646 34.7302 55.6334 34.4803 54.9903 34.3019C54.7045 34.2186 54.4068 33.8973 54.0376 34.2067C54.1805 34.3138 54.3115 34.4089 54.4425 34.5041C54.9546 34.8135 55.5501 34.873 56.1813 34.9443M51.5486 37.3953C51.3104 37.431 51.0484 37.4667 50.8102 37.5024C52.2869 37.788 53.4898 38.7874 55.0379 38.9064C53.8113 38.4662 52.6323 38.0973 51.5486 37.3953ZM53.0254 33.3738C52.9777 32.5885 52.93 31.7914 52.8943 31.0656C52.4656 32.1364 52.5728 33.7426 53.1206 33.9687C53.0849 33.7783 53.0492 33.6118 53.0254 33.3619M50.9293 35.3965C50.7269 34.873 50.5006 34.3376 50.2981 33.814C50.2743 33.814 50.2505 33.814 50.2386 33.8378C50.453 34.6588 50.6673 35.4798 50.8936 36.3245C51.3104 36.0033 51.1675 35.7296 50.9293 35.4084M56.5743 32.1959C56.5147 32.2197 56.4433 32.2554 56.348 32.2911C56.9673 32.6123 57.4913 33.0169 58.2058 32.8979C58.0272 32.8027 57.8605 32.6956 57.6818 32.6123C57.3245 32.4577 56.9792 32.3268 56.5743 32.184M54.6331 32.1602C54.6807 31.6248 54.7283 31.1013 54.7641 30.5302C54.4782 31.018 54.3711 32.1245 54.5616 32.9455C54.5854 32.7075 54.6093 32.4696 54.6331 32.1483M55.7168 33.3976C55.5143 33.3262 55.3238 33.2548 55.1332 33.1834C55.8716 33.5047 56.5385 34.0877 57.5031 33.8973C56.8839 33.7308 56.3242 33.5761 55.7287 33.3976M51.7034 39.4299C51.5367 39.3347 51.358 39.2276 51.1913 39.1206C51.1675 39.1443 51.1437 39.1681 51.1318 39.18C51.1913 39.2871 51.2389 39.4537 51.3342 39.4894C51.7987 39.6917 52.287 39.8463 52.7752 40.0248C52.7752 40.001 52.7991 39.9772 52.7991 39.9653C52.4537 39.7868 52.1083 39.6084 51.7034 39.418M55.9193 30.3517V29.9948C55.5858 30.6849 55.7168 31.3155 55.824 31.9461C55.8716 31.6962 55.9193 31.4344 55.9193 31.1727C55.9193 30.9109 55.8955 30.6611 55.9193 30.3517ZM53.2397 33.1834L53.3349 33.8378C53.3349 33.8378 53.4064 33.8378 53.4541 33.814C53.5136 33.1953 53.1206 32.6242 53.1683 31.9936C53.1325 31.9936 53.0968 31.9936 53.073 31.9936C53.1325 32.3625 53.1802 32.7194 53.2397 33.1596M52.3584 34.7897C52.3584 34.6945 52.3822 34.5874 52.3346 34.516C52.1917 34.1591 52.0369 33.8259 51.8821 33.469C51.9535 33.9211 52.0845 34.3614 52.2036 34.8016C52.2036 34.8254 52.2632 34.8254 52.3465 34.7778M53.3707 41.8809H53.6446V41.8452C53.1444 41.6905 52.6204 41.5359 52.1203 41.3812L52.0845 41.4764C52.4418 41.75 52.9182 41.7143 53.3826 41.869M54.8474 32.0174C54.8474 32.2911 54.8236 32.5647 54.8117 32.8265H54.895C54.9308 32.1721 54.9784 31.5177 55.0142 30.8633H54.9308C54.907 31.2203 54.8712 31.5772 54.8474 32.0055V32.0174Z" fill="white"/>
<path d="M13.7729 0.024103C14.285 1.15441 14.7733 2.28473 15.2497 3.41504C15.6903 4.46207 16.1428 5.49719 16.5835 6.54422C17.1075 7.76971 17.6196 8.99521 18.1436 10.2207C18.5128 11.0893 18.8819 11.9459 19.2511 12.8145C19.3107 12.9453 19.3703 13.1 19.4417 13.2666H16.5001C16.4167 13.2666 16.2976 13.1714 16.2619 13.0881C15.8808 12.1958 15.5235 11.2915 15.1544 10.3873H9.79524C9.71188 10.3873 9.58093 10.4468 9.55712 10.5182C9.19984 11.351 8.87823 12.1839 8.52095 13.0167C8.47331 13.1119 8.35426 13.2547 8.25898 13.2547C7.31816 13.2785 6.37731 13.2547 5.40076 13.2547C5.61512 12.755 5.81761 12.2791 6.03198 11.7555C3.74542 12.3029 2.01857 11.2558 0.27983 9.93515C0.672833 10.0184 0.994363 10.1136 1.304 10.1255C1.79228 10.1255 2.2925 10.1255 2.75696 10.0422C3.61442 9.87566 4.45992 9.6377 5.31738 9.42354C5.00775 8.91192 4.59097 8.69776 4.01933 8.84053C2.92368 9.11419 1.88756 8.97141 0.863368 8.51929C0.601366 8.40031 0.315593 8.34082 0.0178637 8.24563C-0.00595458 8.20994 -0.00595458 8.18614 0.0178637 8.12665C1.16114 8.18614 2.12576 7.73402 3.04277 7.31759C2.91176 7.05583 2.79265 6.81787 2.64974 6.56801C2.60211 6.48473 2.53067 6.38954 2.44731 6.36575C1.36357 5.92552 0.958662 4.89039 0.363203 3.99804C0.756206 4.236 1.10161 4.58104 1.51843 4.74762C1.94716 4.91419 2.4473 4.90229 2.88794 4.94988C3.54294 4.14082 3.40003 3.23657 3.25712 2.30852C3.35239 2.36801 3.40006 2.4275 3.43579 2.49889C3.53106 2.70116 3.6144 2.92722 3.70968 3.14139C4.19795 4.2479 4.6267 5.36632 4.17415 6.60371C4.1027 6.80598 4.1146 7.15102 4.2456 7.31759C4.5076 7.67453 4.87676 7.93629 5.1864 8.23374C5.34122 7.2462 5.78184 6.35385 6.5083 5.55668C7.0323 4.97368 7.61587 4.39068 7.79451 3.54592C7.85406 3.6411 7.85404 3.74818 7.85404 3.83147C7.85404 4.39068 7.87786 4.96178 7.85404 5.52099C7.8064 6.46093 7.56823 7.34139 6.97277 8.09096C6.73459 8.38841 6.47263 8.66206 6.19872 8.93572C5.99627 9.14988 5.9843 9.37595 6.13912 9.60201C6.28203 9.80428 6.47259 9.97085 6.67505 10.1969C6.91323 9.6377 7.10382 9.16178 7.31819 8.68586C7.75883 7.65073 8.21137 6.6275 8.65201 5.59237C9.24747 4.18841 9.84292 2.77255 10.4384 1.36858C10.6289 0.916456 10.7956 0.464332 10.9742 0.012207H13.761M13.8086 7.00824C13.3442 5.86603 12.8678 4.73572 12.3914 3.55782C11.8198 4.94988 11.272 6.30626 10.7123 7.67453H14.0945C13.9992 7.46036 13.9158 7.2581 13.8205 7.00824H13.8086Z" fill="white"/>
<path d="M36.5675 0.024103C36.6033 4.42637 36.6032 8.81674 36.6032 13.2309H33.6498V4.73572C33.2925 5.25923 32.9948 5.69946 32.697 6.15158C31.8396 7.44847 30.994 8.75725 30.1246 10.066C29.9817 10.2921 29.8864 10.3992 29.6721 10.066C28.5288 8.30512 27.3617 6.56801 26.1827 4.78331V13.2309H23.2769V0.0598002C24.3487 0.0241061 25.3967 0.0241061 26.5043 0.0598002C26.5638 0.154984 26.5995 0.238267 26.6352 0.297757C27.3736 1.49946 28.112 2.68926 28.8623 3.87906C29.2076 4.43827 29.5768 4.98557 29.946 5.54478C30.7916 4.20031 31.5895 2.90342 32.3993 1.59464C32.7209 1.07113 33.0305 0.53572 33.3401 0.012207C34.4119 0.012207 35.46 0.012207 36.5675 0.012207V0.024103Z" fill="white"/>
<path d="M47.9996 0.0237966C48.3093 0.701983 48.5831 1.36827 48.869 2.04646C49.3811 3.27196 49.9051 4.49745 50.4291 5.73485C50.8697 6.76997 51.3104 7.8051 51.751 8.82833C52.275 10.0657 52.7991 11.3031 53.3231 12.5405C53.4183 12.7666 53.5255 12.9807 53.6446 13.2544H51.227C50.7268 13.2544 50.3854 13.0244 50.2028 12.5643C49.9408 11.8861 49.6669 11.2079 49.393 10.5297C49.3572 10.4465 49.2263 10.3632 49.1429 10.3632C47.3685 10.3632 45.5702 10.3632 43.7957 10.3632C43.4265 11.2674 43.0574 12.1479 42.6763 13.0402C42.6286 13.1354 42.4857 13.2425 42.3904 13.2425C41.4615 13.2663 40.5326 13.2425 39.5798 13.2425C39.9967 12.255 40.3897 11.2793 40.8065 10.3156C41.3305 9.06629 41.8545 7.817 42.4023 6.5677C42.9263 5.35411 43.4622 4.15241 43.9862 2.92691C44.3673 2.04646 44.7127 1.15411 45.0938 0.261758C45.1176 0.19037 45.1771 0.118981 45.2248 0.0237966C46.1418 5.4518e-07 47.0707 0 48.0115 0M45.8321 5.36601C45.5106 6.13938 45.1891 6.90085 44.8794 7.67422H48.2617C47.69 6.29405 47.1421 4.93768 46.5705 3.54561C46.3323 4.16431 46.1061 4.74731 45.8441 5.36601H45.8321Z" fill="white"/>
<path d="M14.3444 43.7495C13.3559 42.4764 12.3913 41.2271 11.4386 39.954C10.8312 39.1569 10.2239 38.3597 9.62841 37.5744C9.59268 37.5268 9.56881 37.4793 9.49735 37.3722V45.6175H6.53198V32.3988C7.41326 32.3988 8.27072 32.3631 9.14009 32.4226C9.35446 32.4464 9.58075 32.7795 9.75939 33.0056C10.8789 34.4691 11.9864 35.9444 13.0939 37.4079C13.8561 38.4073 14.6064 39.4067 15.4162 40.4538V32.4226H18.3102V45.6413H15.9283C15.845 45.6413 15.7497 45.5818 15.7021 45.5104C15.2614 44.9274 14.8208 44.3563 14.3682 43.7614H14.3444V43.7495Z" fill="white"/>
<path d="M34.3157 17.5016C35.1612 18.156 35.7924 18.9531 36.245 19.8931C36.6737 20.7854 36.888 21.7492 36.888 22.7367C36.888 25.5565 35.3518 28.0908 32.5769 29.1854C31.8386 29.471 31.0883 29.6137 30.2904 29.6732C28.8851 29.7684 27.5632 29.5186 26.3365 28.8642C24.5025 27.8766 23.3593 26.3418 22.9424 24.2834C22.6328 22.7962 22.7757 21.3565 23.4188 19.9883C24.2881 18.1084 25.7649 16.8829 27.7418 16.2999C28.6945 16.0143 29.6711 15.9429 30.6834 16.0619C31.9458 16.1928 33.0652 16.6449 34.1251 17.3112C34.1966 17.3588 34.2561 17.4302 34.3276 17.5016M32.9461 25.4018C33.0295 25.2829 33.1367 25.1877 33.1962 25.0568C33.6607 24.1645 33.887 23.2364 33.7202 22.2132C33.5416 21.1186 33.0652 20.2143 32.1958 19.5361C31.2669 18.8222 30.207 18.5843 29.0399 18.8103C27.7418 19.0602 26.8248 19.8098 26.277 20.9639C25.8721 21.8205 25.7887 22.7367 25.9793 23.6766C26.1817 24.7118 26.6819 25.5684 27.5632 26.199C28.4088 26.8058 29.3377 27.0438 30.3738 26.901C31.4456 26.7582 32.303 26.2823 32.9699 25.3781L32.9461 25.4018Z" fill="white"/>
<path d="M13.9516 16.2176H17.2028C17.2028 16.9672 17.2624 17.693 17.179 18.4188C17.1552 18.6805 16.8217 18.9185 16.6074 19.1565C15.9286 19.9655 15.2497 20.7627 14.559 21.5599C14.0588 22.1429 13.5586 22.7021 13.0584 23.2732C12.3677 24.0703 11.6889 24.8794 11.0101 25.6766C10.6885 26.0454 10.3551 26.4142 9.98588 26.8307H16.8217C17.0956 26.8307 17.2147 26.8902 17.2028 27.1876C17.179 27.9134 17.2028 28.663 17.2028 29.4125H6.12732C6.12732 28.7106 6.06773 27.9848 6.15109 27.2828C6.18682 26.9854 6.54412 26.7117 6.77039 26.438C7.48494 25.5933 8.19949 24.7604 8.92595 23.9276C9.58095 23.178 10.236 22.4284 10.891 21.6669C11.5579 20.8936 12.2248 20.0964 12.8917 19.323C13.0227 19.1684 13.1895 19.0494 13.3443 18.9185C13.3205 18.8947 13.3204 18.859 13.2966 18.8233H6.37737V16.1938H13.9635L13.9516 16.2176Z" fill="white"/>
<path d="M30.0173 32.4106H31.089V45.6174H28.1594V32.4106H30.0173Z" fill="white"/>
<path d="M27.2659 15.0626H26.0154C26.2536 14.777 26.4442 14.5153 26.6585 14.2773C27.2063 13.6586 27.7542 13.028 28.3139 12.4212C28.4092 12.3261 28.5759 12.2547 28.7069 12.2547C29.4691 12.2309 30.2194 12.2309 30.9816 12.2547C31.1245 12.2547 31.2912 12.3736 31.3983 12.4926C31.7556 12.8853 32.0891 13.3017 32.4464 13.6943C32.8394 14.1345 33.2324 14.5748 33.673 15.0626C32.8394 15.0626 32.0653 15.0864 31.2912 15.0388C31.0768 15.015 30.8624 14.7889 30.66 14.6343C30.4456 14.4796 30.2432 14.2892 30.005 14.1583C29.9216 14.0989 29.743 14.1227 29.6477 14.1821C29.2428 14.432 28.8617 14.7294 28.4687 14.9912C28.3972 15.0388 28.302 15.0626 28.2067 15.0745C27.909 15.0745 27.5994 15.0745 27.2659 15.0745V15.0626Z" fill="white"/>
<path d="M53.5375 42.9632C53.7876 43.0346 54.0019 43.094 54.2282 43.1773C54.3235 43.213 54.3949 43.2963 54.4664 43.3558C54.3949 43.4391 54.3354 43.5581 54.2401 43.5819C53.9067 43.677 53.5613 43.7246 53.2279 43.796C53.204 43.7603 53.1802 43.7365 53.1683 43.7008C53.2279 43.6413 53.2635 43.57 53.335 43.5462C53.4184 43.5105 53.5256 43.4986 53.6209 43.4391C53.2279 43.4748 53.0135 43.3201 52.9658 42.8799C53.1564 42.9037 53.3231 42.9394 53.5375 42.9751V42.9632Z" fill="white"/>
<path d="M45.4158 48.6034C45.4158 48.3179 45.2848 48.187 44.868 48.187H44.2844V49.0318H44.868C45.2252 49.0318 45.4158 48.889 45.4158 48.6034Z" fill="white"/>
<path d="M52.8108 46.8073H6.86527C6.57945 46.8073 6.49609 46.8906 6.49609 47.1762C6.51991 48.592 6.49606 50.0198 6.53178 51.4356C21.3587 51.4356 36.138 51.4356 50.9292 51.4118C50.9768 51.3524 51.0125 51.3167 51.0602 51.2929C51.9414 51.0787 52.6322 50.5195 52.7751 49.6628C52.9418 48.7467 52.8108 47.771 52.8108 46.7954V46.8073ZM28.4447 50.4005C27.7301 50.4005 27.4324 50.0555 27.3728 49.5795L27.7301 49.4963C27.7896 49.8889 28.0279 50.0793 28.4566 50.0793C28.8496 50.0793 29.0282 49.9246 29.0282 49.6866C29.0282 49.4487 28.8734 49.3297 28.3732 49.2464C27.6944 49.1155 27.4681 48.8776 27.4681 48.4968C27.4681 48.0804 27.7778 47.8067 28.3851 47.8067C28.9925 47.8067 29.2545 48.1042 29.3379 48.5444L28.9568 48.6158C28.8734 48.2827 28.7543 48.1161 28.3613 48.1161C28.004 48.1161 27.8373 48.2589 27.8373 48.473C27.8373 48.6872 27.9445 48.83 28.4923 48.9252C29.2187 49.0679 29.3974 49.3178 29.3974 49.6628C29.3974 50.0912 29.1116 50.3886 28.4447 50.3886V50.4005ZM31.3028 50.3529H30.9217V47.8662H31.3028V50.3529ZM34.6731 48.1994H33.3274V48.9252H34.5422V49.2583H33.3274V50.0198H34.6731V50.3529H32.9463V47.8662H34.6731V48.1994ZM38.9843 50.3529H38.6032V49.1274C38.6032 48.8419 38.6032 48.473 38.627 48.1875H38.5436C38.4483 48.4849 38.3293 48.8657 38.1983 49.1988L37.7814 50.2101H37.3885L36.9835 49.175C36.8525 48.8181 36.7454 48.473 36.6501 48.1875H36.5786V50.3529H36.2213V47.8662H36.8525L37.2932 49.0203C37.3527 49.1869 37.4718 49.5439 37.5671 49.8175H37.6385C37.7219 49.532 37.841 49.1988 37.9125 49.0084L38.365 47.8662H38.9604V50.3529H38.9843ZM41.6043 49.4725H41.0088V50.3529H40.6277V47.8662H41.5924C42.1759 47.8662 42.4736 48.128 42.4736 48.6753C42.4736 49.1393 42.164 49.4844 41.6043 49.4844V49.4725ZM45.9392 50.3529H45.4986L44.8079 49.3654H44.2838V50.3529H43.9027V47.8662H44.9031C45.5224 47.8662 45.7844 48.128 45.7844 48.592C45.7844 48.9846 45.582 49.2464 45.189 49.3297L45.9273 50.3053V50.3529H45.9392ZM49.1547 48.1994H47.809V48.9252H49.0237V49.2583H47.809V50.0198H49.1547V50.3529H47.4279V47.8662H49.1547V48.1994Z" fill="white"/>
<path d="M41.5571 48.1997H41.0093V49.1516H41.5571C41.9382 49.1516 42.093 48.9969 42.093 48.6756C42.093 48.3544 41.962 48.1997 41.5452 48.1997H41.5571Z" fill="white"/>
</svg>
