<svg width="58" height="56" viewBox="0 0 58 56" fill="none" xmlns="http://www.w3.org/2000/svg">
<path d="M51.9913 14.4437H43.7084C32.4236 0.99815 9.78267 7.03769 7.23171 24.5754C4.24616 45.1018 29.2134 56.768 43.199 41.797C44.9465 41.6892 46.7013 41.808 48.4488 41.7678C48.9272 41.7568 51.7777 41.2252 51.8051 41.85C42.191 58.3921 18.4727 60.4582 6.30044 45.4891C-8.99254 26.6781 5.4203 -1.31829 29.5166 0.0481917C38.6631 0.567015 47.9156 6.21561 51.9931 14.4419L51.9913 14.4437Z" fill="url(#paint0_linear_1346_1062)"/>
<path d="M55.4499 30.1051V21.3637H57.999V34.6576H55.4499L49.6266 25.9162L49.8074 34.6576H47.0775V21.6377C47.4975 21.2029 49.3527 21.245 49.7161 21.5482L55.4517 30.1051H55.4499Z" fill="#CACACA"/>
<path d="M23.5911 21.3638C23.6824 23.6309 23.4706 25.9345 23.5838 28.1998C23.613 28.8008 23.7445 30.741 23.9106 31.1502C24.7178 33.1359 28.8701 32.9551 28.8701 30.3774V21.3638H31.7827C31.6439 24.1387 31.9671 27.0836 31.79 29.8403C31.5909 32.9496 30.6377 34.5974 27.3308 34.8477C24.3799 35.0724 21.3286 34.5042 20.8794 31.0881C20.5836 28.8319 20.4102 24.2027 20.6694 21.9922C20.7005 21.7273 20.6914 21.5245 20.9525 21.3638H23.5929H23.5911Z" fill="#CACACA"/>
<path d="M45.6203 26.0973H42.7078C42.3371 24.2778 40.7357 23.5416 38.9754 23.7297C36.3368 24.0129 35.9369 26.9358 36.156 29.0988C36.5796 33.2604 41.7108 33.6568 42.9817 29.7382H45.6221C45.3592 34.2322 40.2116 36.0225 36.481 34.2395C33.1321 32.6392 32.5642 27.9424 33.8333 24.7747C35.9935 19.38 44.8351 20.2569 45.6221 26.0973H45.6203Z" fill="#CACACA"/>
<path d="M18.4929 21.3638H15.7629V34.6577H18.4929V21.3638Z" fill="#CACACA"/>
<defs>
<linearGradient id="paint0_linear_1346_1062" x1="34.4372" y1="32.6249" x2="9.36501" y2="6.9486" gradientUnits="userSpaceOnUse">
<stop stop-color="#1E3A6B"/>
<stop offset="0.548077" stop-color="#0FB5DB"/>
<stop offset="1" stop-color="#DCEFF5"/>
</linearGradient>
</defs>
</svg>
