<svg width="124" height="25" viewBox="0 0 124 25" fill="none" xmlns="http://www.w3.org/2000/svg">
<path d="M44.2544 12.7838C43.7777 12.3322 43.2143 11.9673 42.7562 11.6209C42.9729 11.3797 43.2391 11.1075 43.4805 10.8107C44.4773 9.59834 44.6197 8.22521 44.1554 6.77167C43.5177 4.77383 41.5118 3.83367 39.6049 3.78418C36.918 3.70996 34.2249 3.74707 31.538 3.74707H31.0984V20.336H39.153C40.3045 20.3422 41.4251 20.1752 42.5085 19.7484C43.7901 19.235 44.6878 18.3691 45.0902 17.0516C45.3069 16.3527 45.3502 15.629 45.2326 14.8868C45.1026 14.0765 44.8426 13.3404 44.2544 12.7838ZM35.0545 7.31598C36.4413 7.35309 37.7909 7.29123 39.1158 7.45824C40.4283 7.61905 40.6326 8.86229 40.0569 9.62308C39.7721 9.9942 39.3201 10.1365 38.893 10.1612C37.7043 10.2292 36.5156 10.2354 35.3207 10.2354C35.234 10.2354 35.0669 10.0622 35.0669 9.96946C35.0483 9.12208 35.0545 8.26851 35.0545 7.31598ZM40.1621 16.5815C39.7783 16.6743 39.3697 16.73 38.9734 16.7362C37.7909 16.7547 36.6084 16.7362 35.4259 16.7485C35.1412 16.7485 35.0545 16.6619 35.0545 16.3774C35.0669 15.5053 35.0545 14.6332 35.0545 13.6992C36.1317 13.6992 37.1471 13.6683 38.1624 13.7054C38.8496 13.7301 39.5492 13.7796 40.2178 13.928C40.936 14.0889 41.2641 14.5899 41.2517 15.2579C41.2394 15.8764 40.806 16.4269 40.1621 16.5815Z" fill="white"/>
<path d="M14.5374 17.4475C13.6954 16.464 13.5344 15.7341 14.2154 14.6146C14.6302 13.928 14.3393 13.3157 13.7759 13.0064C12.872 12.5054 11.9433 12.0292 10.9899 11.6333C9.33688 10.9406 7.6591 10.3097 6.11133 9.39424C4.89788 8.67674 3.80825 7.80462 3.09009 6.54901C2.57623 5.65833 2.35335 4.69342 2.31001 3.63574C2.22334 3.78419 2.13047 3.92645 2.04379 4.0749C0.582701 6.4686 -0.129272 9.04167 0.0193136 11.8683C0.0936065 13.2106 0.335058 14.5033 0.774625 15.7651C1.30706 17.2867 2.09951 18.6722 3.152 19.9092C4.35926 21.3318 5.77701 22.4761 7.4486 23.3111C8.82302 23.9977 10.2717 24.4306 11.8071 24.6348C13.0515 24.8018 14.2774 24.7585 15.5032 24.5976C15.6518 24.5791 15.8437 24.4121 15.9056 24.2698C16.1099 23.7874 16.2833 23.2864 16.4318 22.7854C16.8157 21.4617 16.6609 20.1999 15.8437 19.0618C15.4413 18.499 14.9831 17.9732 14.5374 17.4475Z" fill="white"/>
<path d="M24.6597 3.54302C23.7063 2.15752 22.5486 0.97613 21.137 0.0607089C21.0379 -0.00114389 20.8584 -0.0197006 20.7469 0.0235964C20.2702 0.209155 19.7997 0.42564 19.3292 0.623569C17.2118 1.50188 15.0759 2.34308 13.1072 3.53065C12.0733 4.14918 11.0827 4.81719 10.4202 5.8625C10.0116 6.51195 9.91257 7.19852 10.1726 7.94694C10.5688 9.07884 11.4727 9.69737 12.4695 10.1613C14.5497 11.1324 16.8156 11.5035 19.032 12.0107C20.3383 12.3076 21.6385 12.6044 22.8395 13.2353C23.9849 13.8353 24.3006 14.8064 23.6072 15.895C23.1677 16.5878 22.6228 17.2249 22.1028 17.8681C20.8398 19.4268 19.5521 20.9608 18.3015 22.5256C17.8929 23.039 17.5647 23.6142 17.2057 24.1524H17.1871C17.2552 24.2018 17.2676 24.2142 17.2738 24.2142C19.2982 23.6328 21.0875 22.6184 22.6414 21.2082C24.1954 19.7979 25.3407 18.1032 26.1146 16.1548C26.7585 14.5528 27.0433 12.8766 27.0742 11.1633C27.0866 10.452 26.9628 9.73448 26.8575 9.02936C26.5604 7.03152 25.8051 5.20686 24.6597 3.54302ZM16.2708 8.37372C16.1717 8.52835 15.9117 8.57783 15.7074 8.65206C15.6145 8.6768 15.5031 8.65206 15.4041 8.65206C14.4816 8.59639 13.5715 8.49743 12.8781 7.78612C12.5252 7.42737 12.5562 7.248 13.0205 7.09955C14.1782 6.72844 15.1874 7.04389 16.0541 7.84179C16.1903 7.96549 16.3327 8.27476 16.2708 8.37372ZM18.741 9.14688C18.7101 9.23347 18.5801 9.31388 18.481 9.33244C17.9052 9.44996 17.2242 9.02936 16.989 8.35517H16.9952C17.2552 8.37372 17.4966 8.33661 17.7009 8.41083C18.0229 8.52835 18.3324 8.69535 18.6296 8.86854C18.7039 8.91184 18.7658 9.07266 18.741 9.14688ZM19.2611 9.98189C19.7068 9.69737 20.3383 9.88911 20.4807 10.3159C20.0288 10.3654 19.6202 10.3159 19.2611 9.98189Z" fill="white"/>
<path d="M66.7404 8.12047C66.2265 7.13701 65.5207 6.302 64.6354 5.61543C63.1867 4.4959 61.5399 3.84645 59.7197 3.78459C57.4537 3.70418 55.1816 3.74748 52.9157 3.74748C52.5133 3.74748 52.309 3.95159 52.309 4.36601V20.3364H52.7485C54.9278 20.3364 57.107 20.3426 59.2863 20.3364C59.664 20.3364 60.0478 20.324 60.4193 20.256C61.9361 19.9715 63.36 19.4643 64.5859 18.4746C65.725 17.553 66.5856 16.4397 67.1118 15.0604C67.6504 13.6563 67.7247 12.2213 67.5638 10.7492C67.4585 9.81524 67.1675 8.94311 66.7404 8.12047ZM62.9452 14.2872C62.3323 15.5428 61.286 16.285 59.9487 16.4953C59.0077 16.6438 58.0295 16.5696 57.0699 16.5943H56.4198V7.50813C57.398 7.50813 58.3576 7.49576 59.3173 7.50813C60.0726 7.5205 60.7722 7.74935 61.4098 8.13903C62.5428 8.83178 63.1433 9.8709 63.36 11.1636C63.5396 12.2522 63.4281 13.2975 62.9452 14.2872Z" fill="white"/>
<path d="M116.95 19.7855C116.95 19.7855 116.95 19.804 116.956 19.8102C116.962 19.7979 116.969 19.7855 116.975 19.7731C116.975 19.7731 116.969 19.7669 116.962 19.7607C116.962 19.7669 116.95 19.7793 116.95 19.7855Z" fill="white"/>
<path d="M122.231 17.2128C122.194 16.8107 122.243 16.4087 122.212 16.0066C122.188 15.6479 122.095 15.2891 122.033 14.9304L121.872 14.9489V16.9159C121.123 16.3592 121.377 15.7221 121.519 15.0788C121.451 15.085 121.389 15.0912 121.302 15.0912C121.333 14.9799 121.352 14.8809 121.377 14.7819C121.327 14.7696 121.271 14.751 121.216 14.7386C121.098 15.0294 121.216 15.3757 121.061 15.6726C120.987 15.685 120.857 15.7035 120.757 15.7221C120.504 14.516 120.51 13.3222 120.689 12.1532C120.398 12.2151 120.182 12.2583 119.897 12.3202C119.847 11.312 119.804 10.2852 119.755 9.26467C119.785 9.26467 119.816 9.26467 119.847 9.26467C119.854 9.39456 119.866 9.52446 119.878 9.65435H119.959C119.977 9.30179 120.002 8.94923 120.021 8.59667H120.138C120.2 9.06675 120.281 9.53683 120.318 10.0131C120.349 10.5017 120.219 11.0027 120.46 11.5161C120.578 11.3739 120.671 11.2625 120.764 11.1512C120.485 10.8976 120.491 9.69764 120.826 9.12241C120.912 9.37601 121.011 9.5492 121.03 9.72857C121.073 10.044 121.061 10.3718 121.073 10.6935C121.11 10.6935 121.141 10.6935 121.178 10.6935C121.265 10.5574 121.352 10.4213 121.445 10.2791C121.884 10.2605 122.138 9.90794 121.965 9.5059C121.915 9.55538 121.859 9.60487 121.804 9.66053C121.742 9.48116 121.68 9.31416 121.618 9.14715L121.692 9.11004C121.779 9.21519 121.866 9.31416 121.965 9.42549C122.305 8.62759 122.2 7.87299 121.946 7.0256C121.872 7.71836 121.81 8.32451 121.748 8.93067C121.568 8.41111 121.451 7.90391 121.408 7.38435C121.358 6.8586 121.389 6.32667 121.377 5.80092C121.377 5.74525 121.358 5.66484 121.321 5.6401C121.073 5.47929 120.819 5.33084 120.547 5.16384C120.182 5.73907 120.306 6.35759 120.231 6.91427C120.07 6.93901 119.928 6.95757 119.767 6.98231C119.748 6.438 119.773 5.88133 119.699 5.34321C119.662 5.04631 119.519 4.7185 119.321 4.49583C119.123 4.27316 118.795 4.22367 118.485 4.37831C118.485 4.37831 118.485 4.3783 118.485 4.37212C118.448 4.24841 118.411 4.11852 118.337 3.86493C118.213 4.05667 118.108 4.16182 118.077 4.28553C118.033 4.4649 118.046 4.65046 118.033 4.83602C118.064 4.95972 118.089 5.08961 118.114 5.2195C118.38 5.20095 118.318 4.99683 118.343 4.82983C118.368 4.69375 118.423 4.55768 118.467 4.4216C118.485 4.47727 118.51 4.53912 118.498 4.58242C118.331 5.15146 118.374 5.6834 118.498 6.28337C118.652 7.01323 118.535 7.79258 118.535 8.51007C118.287 8.31833 118.411 8.15133 118.256 7.82351C118.04 7.35961 118.225 7.03798 118.287 6.65449C118.3 6.56789 118.132 6.45037 118.04 6.33904C118.324 5.99885 118.101 5.60918 118.077 5.22569C118.046 5.10198 118.021 4.97209 117.996 4.8422C117.978 4.66901 117.959 4.50201 117.941 4.32882L117.829 4.34119C117.829 4.90405 117.848 5.4731 117.829 6.04214C117.798 7.0256 117.724 8.00906 117.699 8.99252C117.693 9.2956 117.829 9.60487 117.835 9.91413C117.86 10.6935 117.866 11.4728 117.835 12.2522C117.829 12.4439 117.637 12.6295 117.526 12.815L117.377 12.7594V11.2749C117.408 11.2687 117.458 11.2687 117.458 11.2687V12.0419C117.513 12.0419 117.563 12.048 117.612 12.048C117.625 11.8501 117.711 11.6275 117.643 11.4666C117.439 10.9904 117.507 10.4646 117.371 9.96361C117.185 9.25849 117.321 8.46059 117.346 7.70599C117.352 7.39054 117.495 7.08127 117.476 6.77201C117.42 5.84422 117.433 4.9288 117.699 3.98245C117.445 3.94534 117.204 3.92678 116.981 3.87111C116.597 3.77215 116.721 4.23604 116.486 4.2979C116.473 3.99482 116.38 3.86493 116.207 3.89585V8.67089C115.953 8.53481 115.86 8.36162 115.86 8.08947C115.873 6.83386 115.86 5.58443 115.873 4.32882C115.873 4.05667 115.811 3.82782 115.532 3.78452C115.235 3.73504 114.919 3.77215 114.659 3.77215C114.523 4.00719 114.405 4.2113 114.282 4.41542C114.251 4.40305 114.22 4.39068 114.189 4.37831C114.257 4.24223 114.344 4.11234 114.393 3.96389C114.405 3.91441 114.337 3.78452 114.3 3.78452C114.114 3.76596 113.923 3.77833 113.737 3.77833C113.762 4.03811 113.793 4.24223 113.793 4.44634C113.799 4.82365 113.904 5.25662 113.762 5.57206C113.632 5.85659 113.644 6.03596 113.706 6.32048C113.793 6.70397 113.731 7.12457 113.731 7.5328V8.56574C113.638 8.4544 113.594 8.33688 113.582 8.21936C113.526 7.69361 113.502 7.16168 113.421 6.64212C113.365 6.29574 113.18 5.95555 113.421 5.60917C113.446 5.57206 113.415 5.48547 113.409 5.42362C113.378 5.14528 113.297 4.86694 113.328 4.60098C113.409 3.88967 113.211 3.68555 112.505 3.834C112.418 3.85874 112.331 3.84637 112.133 3.85874C112.053 4.2979 111.96 4.74324 111.898 5.18858C111.855 5.52877 111.836 5.86896 111.824 6.20915C111.818 6.62975 111.824 7.05653 111.824 7.59465C112.016 7.32868 112.133 7.16786 112.263 6.98849C112.208 7.91628 112.152 8.80696 112.09 9.74094C111.985 9.67909 111.91 9.63579 111.824 9.58012C111.607 9.99454 111.607 10.3595 111.96 10.644C112.245 10.879 112.214 11.1759 112.189 11.4728C112.177 11.6213 112.121 11.7635 112.09 11.912C111.991 12.3388 112.121 12.4934 112.647 12.4934C112.195 12.3078 112.579 12.1346 112.585 11.9615C112.622 11.2192 112.684 10.477 112.734 9.73476C112.752 9.49353 112.746 9.2523 112.752 9.01108C112.777 8.34925 112.777 7.70599 112.542 7.06272C112.437 6.76582 112.455 6.38234 112.542 6.07926C112.604 5.86896 112.889 5.73288 113.105 5.52877C113.111 5.6834 113.124 5.80092 113.124 5.92463C113.087 6.90808 113.019 7.89773 113.006 8.88119C112.988 10.0378 113.019 11.2007 113.019 12.3635C113.019 12.7965 113.019 13.2356 112.932 13.6562C112.864 13.984 112.672 14.2933 112.542 14.5964C112.486 14.5036 112.43 14.3923 112.369 14.2809C112.325 14.2871 112.282 14.2995 112.239 14.3057C112.282 15.3324 112.331 16.353 112.381 17.4664C112.146 17.2561 111.997 17.1262 111.855 16.9963C111.824 17.0148 111.793 17.0334 111.762 17.0519C111.997 17.6705 112.232 18.289 112.474 18.9075C112.499 18.858 112.523 18.8086 112.554 18.7405C112.926 19.1302 113.198 19.5446 113.211 20.1198C113.254 20.0518 113.303 19.9838 113.341 19.9281C113.44 19.9466 113.551 19.9652 113.662 19.9838V19.6807C113.662 19.5446 113.582 19.3714 113.644 19.291C113.811 19.056 113.693 18.9508 113.52 18.8395C113.508 18.8395 113.52 18.7962 113.52 18.7591C113.625 18.7343 113.731 18.7096 113.873 18.6787C113.873 19.0189 113.861 19.3343 113.873 19.6498C113.885 19.9095 113.916 20.1755 113.966 20.4291C113.978 20.4848 114.096 20.5466 114.17 20.5528C114.22 20.559 114.319 20.4786 114.325 20.4229C114.393 19.959 114.449 19.5013 114.498 19.0374C114.511 18.9137 114.498 18.79 114.498 18.6663C114.542 18.6601 114.585 18.6601 114.628 18.6601C114.641 18.9446 114.653 19.2292 114.665 19.5137C114.678 19.8848 114.461 20.324 115.037 20.5837V19.9961C115.136 19.9652 115.235 19.9343 115.421 19.8724C115.285 19.5261 115.161 19.223 115.031 18.9013C115.415 19.0436 115.532 19.2972 115.483 19.6498C115.464 19.7549 115.458 19.8786 115.489 19.9776C115.557 20.1817 115.65 20.3734 115.736 20.5714C115.873 20.2621 115.935 19.9838 115.984 19.7054C116.003 19.6065 116.027 19.4828 115.984 19.4147C115.761 19.0807 115.873 18.8271 116.275 18.5426V19.7796C116.312 19.9095 116.368 20.0704 116.411 20.2312C116.442 20.3672 116.331 20.6208 116.603 20.5466C116.591 20.5157 116.572 20.491 116.56 20.46C116.684 20.2497 116.814 20.0332 116.956 19.7858C116.795 19.2848 116.609 18.8766 117.08 18.4993C117.03 18.9013 117.253 19.3034 116.981 19.7735C117.123 19.9528 117.21 20.058 117.272 20.1446C117.346 20.0271 117.402 19.8291 117.476 19.8291C117.606 19.8168 117.736 19.9343 117.872 19.9776C117.978 20.0147 118.151 20.0704 118.201 20.0209C118.423 19.7858 118.609 19.8601 118.77 20.0704C118.875 20.2064 118.937 20.3796 119.055 20.6208C119.253 20.0889 119.142 19.5755 119.166 19.0807C119.185 18.6292 119.296 18.1777 119.179 17.7138C119.327 17.8375 119.513 17.9735 119.525 18.1158C119.55 18.4746 119.488 18.8395 119.476 19.2044C119.476 19.4147 119.445 19.6436 119.507 19.8415C119.55 19.9652 119.736 20.0394 119.959 20.2188C119.909 19.5508 119.866 18.957 119.816 18.3137C119.953 18.4189 120.045 18.4869 120.138 18.555C120.2 18.3941 120.206 18.2643 120.157 18.1591C120.045 17.9117 119.829 17.6952 119.792 17.4416C119.724 16.9468 119.717 16.4334 119.73 15.9324C119.755 15.1159 119.792 14.2933 119.866 13.483C119.897 13.1614 120.052 12.846 120.151 12.5243C120.194 12.5367 120.231 12.5429 120.275 12.5491C120.343 12.7346 120.454 12.914 120.46 13.0995C120.479 13.5387 120.466 13.9779 120.436 14.417C120.398 14.9984 120.293 15.5798 120.374 16.1736C120.429 16.5695 120.367 16.9839 120.398 17.3921C120.429 17.8189 120.51 18.2395 120.566 18.6601L120.733 18.6787C120.869 18.1282 121.005 17.5839 121.135 17.0334C121.302 17.6705 121.16 18.3756 121.519 18.9446C121.946 18.9694 122.107 18.4622 122.528 18.5426C122.54 18.5488 122.578 18.5055 122.578 18.4931C122.54 18.2643 122.522 18.0354 122.46 17.8127C122.404 17.6086 122.256 17.4169 122.237 17.2128H122.231ZM120.497 5.8504C120.615 6.01122 120.776 6.22152 120.931 6.43182C120.968 6.48749 121.011 6.55552 121.011 6.61738C120.974 7.17405 120.925 7.73073 120.875 8.33688C120.627 7.9534 120.436 6.51223 120.497 5.8504ZM113.074 18.2395C112.579 17.9921 112.505 17.6334 112.579 17.1756C112.616 16.9406 112.554 16.6808 112.542 16.4334C112.536 16.3344 112.53 16.2293 112.53 16.1303V14.8871C112.629 15.0788 112.684 15.184 112.79 15.3943C112.895 15.1469 112.969 14.9675 113.074 14.7077V18.2395ZM113.402 15.8953C113.433 15.3077 113.464 14.8252 113.489 14.349H113.601C113.539 14.8252 113.811 15.3324 113.402 15.8953ZM114.535 6.53697V9.56157C114.313 8.54718 114.275 7.53898 114.535 6.53697ZM114.585 13.6067H114.48V11.4357L114.591 11.4233C114.703 12.1532 114.622 12.8769 114.585 13.6067ZM115.068 12.079C115.34 11.2996 114.963 10.5265 115.111 9.75331C115.155 9.51827 115.049 9.2523 115.049 9.00489C115.062 8.29359 115.099 7.58847 115.124 6.87716C115.148 6.24626 115.173 5.60918 115.204 4.97209C115.21 4.9288 115.241 4.89168 115.26 4.84839C115.297 4.84839 115.328 4.86076 115.365 4.86076C115.365 5.4731 115.353 6.08544 115.365 6.69779C115.39 8.00906 115.421 9.31416 115.446 10.6193C115.446 10.8048 115.427 10.9966 115.427 11.1821C115.427 11.646 115.47 12.1161 115.427 12.5738C115.396 12.9078 115.26 13.2294 115.167 13.5573H115.049V13.0748C115.049 12.7408 114.963 12.3759 115.068 12.079ZM115.421 17.955C115.322 17.7385 115.223 17.5158 115.124 17.2932C115.619 17.3241 115.514 17.6457 115.421 17.955ZM115.891 9.27086H115.897C116.17 9.44405 116.306 9.64198 116.263 10.0255C116.201 10.545 116.269 11.0708 116.275 11.5965V12.0852C116.226 12.0852 116.182 12.0975 116.139 12.0975C116.015 11.1697 115.891 10.2358 115.767 9.30797C115.811 9.2956 115.848 9.28323 115.891 9.27086ZM116.058 18.1344C116.17 17.9055 116.114 17.5096 115.91 17.1014C115.966 17.1509 116.021 17.2004 116.17 17.3303C116.151 16.922 116.133 16.6252 116.12 16.3283H116.034C116.003 16.4087 115.978 16.4953 115.947 16.5819L115.848 16.5447C115.916 16.3283 115.984 16.1118 116.058 15.8706H116.164C116.058 15.7345 115.891 15.6293 115.885 15.5118C115.836 14.8376 115.798 14.1634 115.805 13.4892C115.811 13.2109 115.885 12.9016 116.269 12.747V18.4436C116.188 18.3261 116.12 18.2271 116.058 18.1344ZM116.671 7.09364C116.678 6.82149 116.702 6.54934 116.746 6.27719C116.758 6.20915 116.869 6.15967 117.018 6.04214V9.71001C116.764 9.39457 116.597 9.10386 116.678 8.64615C116.764 8.14514 116.671 7.61321 116.671 7.09364ZM117.105 11.1203C117.055 11.3986 117.092 11.6893 117.092 11.9738V13.4954C117.099 13.6067 117.092 13.7119 117.092 13.817V17.2128C116.554 16.6561 116.572 16.019 116.585 15.3819C116.591 15.1654 116.572 14.9428 116.591 14.7263C116.597 14.6644 116.684 14.6149 116.733 14.5593C116.764 14.5222 116.808 14.4789 116.808 14.4356C116.808 14.1139 116.826 13.7985 116.808 13.4769C116.783 13.081 116.826 12.648 116.671 12.3078C116.325 11.5223 116.653 10.7244 116.455 9.90794C117.061 10.2419 117.204 10.5698 117.105 11.1203ZM117.377 14.6768C117.408 14.6768 117.433 14.6644 117.458 14.6582C117.482 14.7448 117.507 14.8314 117.526 14.8995C117.619 14.7077 117.718 14.516 117.811 14.318C117.841 14.3242 117.872 14.3304 117.903 14.3366V17.4911C117.711 17.2746 117.971 16.8788 117.513 16.7674C117.47 16.1056 117.427 15.3881 117.377 14.6768ZM117.724 19.4951C117.68 19.2292 117.637 18.9632 117.594 18.6972C117.656 18.6849 117.711 18.6787 117.773 18.6663C117.817 18.9323 117.866 19.192 117.91 19.458C117.848 19.4704 117.786 19.4828 117.724 19.4951ZM118.69 11.8501C118.752 12.6851 118.789 13.5263 118.789 14.3613C118.789 14.7448 118.671 15.1221 118.628 15.4994C118.578 15.9633 118.362 16.52 118.541 16.8726C118.82 17.4107 118.646 17.9179 118.727 18.4251C118.739 18.4931 118.714 18.5611 118.64 18.6416C118.609 18.5611 118.572 18.4869 118.541 18.4065C118.516 18.4127 118.498 18.4127 118.473 18.4127C118.529 18.8086 118.578 19.2106 118.634 19.6065L118.566 19.6498C118.498 19.5322 118.368 19.4147 118.374 19.3034C118.423 18.5364 118.461 17.7694 118.349 16.9963C118.225 16.1798 118.213 15.3448 118.225 14.5036L118.269 14.6149C118.677 13.9593 118.696 13.415 118.3 13.0501V13.5449C118.256 13.5387 118.213 13.5387 118.17 13.5387C118.213 13.2418 118.213 12.9264 118.306 12.6418C118.467 12.1408 118.529 11.6646 118.306 11.1141C118.269 11.2254 118.25 11.2687 118.244 11.3058C118.219 11.3058 118.176 11.3058 118.176 11.3058V9.18427C118.553 9.43786 118.77 9.70383 118.739 10.143C118.721 10.4522 118.869 10.7986 118.776 11.0708C118.683 11.3429 118.677 11.578 118.696 11.8563L118.69 11.8501ZM119.08 16.1551C119.142 15.9262 119.036 15.6541 119.005 15.4005C118.993 15.2829 118.956 15.1592 118.956 15.0355C118.95 14.4418 118.9 13.848 118.968 13.2665C119.067 12.4315 118.863 11.6089 118.956 10.7801C118.968 10.644 119.055 10.5141 119.067 10.378C119.067 10.3038 119.012 10.2234 118.968 10.1368C119.117 10.1987 119.234 10.2481 119.352 10.2976L119.457 10.2234C119.377 10.0131 119.278 9.80898 119.222 9.5925C119.16 9.35127 119.123 9.10386 119.086 8.85645C119.086 8.78222 119.117 8.68945 119.086 8.63378C118.999 8.46678 119.036 8.38637 119.166 8.23173C119.29 8.08947 119.253 7.80495 119.253 7.58228C119.259 7.1555 119.309 6.72253 119.228 6.30811C119.173 5.99266 119.148 5.73288 119.34 5.4731C119.358 5.44217 119.389 5.42362 119.426 5.39269C119.476 7.37198 119.587 9.3389 119.544 11.2996C119.501 13.2542 119.581 15.2087 119.581 17.2746C119.253 16.8911 118.95 16.6499 119.08 16.1551ZM121.729 18.4313C121.841 18.1096 121.129 18.0292 121.612 17.6643C122.02 17.9612 122.033 18.0416 121.729 18.4313Z" fill="white"/>
<path d="M108.778 17.2742C108.784 17.0268 108.877 16.8042 108.654 16.5815C108.586 16.5135 108.679 16.2908 108.704 16.0619C108.363 15.864 108.357 15.1403 107.663 15.2269C107.54 14.8434 107.422 14.4847 107.317 14.1197C107.236 13.8352 107.174 13.5445 107.106 13.2538L106.982 13.2785C106.97 13.4023 106.958 13.526 106.939 13.7053C106.865 13.3218 106.797 13.0126 106.722 12.6538C106.475 12.8827 106.314 13.025 106.128 13.1981C105.88 12.4868 106.159 11.7137 105.757 11.0704C105.868 11.7199 105.942 12.3631 105.719 13.1425C105.558 12.9384 105.391 12.827 105.354 12.6786C105.286 12.4126 105.274 12.1343 105.267 11.8559C105.267 11.7137 105.36 11.559 105.336 11.423C105.298 11.1879 105.199 10.9591 105.094 10.6313C105.014 11.2189 104.939 11.726 104.871 12.2271H104.778C104.747 12.1776 104.723 12.1281 104.692 12.0724C104.667 12.1343 104.642 12.1961 104.617 12.258C104.586 12.2456 104.562 12.2332 104.531 12.2209C104.593 12.0724 104.667 11.9302 104.71 11.7755C104.735 11.6828 104.735 11.5714 104.716 11.4786C104.686 11.3426 104.593 11.2189 104.586 11.0828C104.568 10.7426 104.605 10.39 104.568 10.0498C104.537 9.76531 104.432 9.49316 104.357 9.20864C104.066 9.25193 104.221 8.99215 104.203 8.85608C104.178 8.65196 104.178 8.45403 104.172 8.24992C104.122 8.2561 104.079 8.26229 104.029 8.26229C104.042 8.55918 104.06 8.85608 104.079 9.24575C103.961 9.05401 103.881 8.9303 103.806 8.8066C103.726 8.67052 103.652 8.53444 103.565 8.40455C103.472 8.26848 103.317 8.15096 103.286 8.00869C103.218 7.69943 103.175 7.37161 103.206 7.06235C103.323 5.91807 102.667 5.1078 102.091 4.2666C101.968 4.59442 101.825 4.90368 101.745 5.22532C101.627 5.66447 101.578 6.116 101.862 6.5366C101.881 6.45619 101.9 6.3696 101.93 6.20259C101.961 6.39434 101.992 6.50567 101.992 6.61701C102.005 6.83349 102.085 7.17368 101.986 7.24172C101.695 7.43346 101.844 7.63758 101.862 7.84788C101.9 8.23755 101.924 8.62104 101.955 9.01071C101.968 9.14678 101.98 9.28905 101.992 9.42512C102.017 9.41894 102.042 9.41275 102.067 9.41275C102.11 8.92412 102.147 8.42929 102.184 7.93447C102.302 8.31796 102.333 8.68908 102.358 9.06019C102.382 9.44986 102.413 9.83954 102.426 10.2292C102.432 10.5941 102.413 10.9529 102.426 11.3178C102.457 12.258 102.457 12.2642 102.296 12.4064C102.265 11.7941 102.24 11.1941 102.209 10.5632C102.116 10.6622 102.061 10.7178 101.974 10.8106C101.974 10.3467 102.011 9.94469 101.961 9.55501C101.906 9.15297 101.77 8.75711 101.64 8.25611C101.596 8.48496 101.571 8.60867 101.547 8.73237C101.509 8.73856 101.466 8.73856 101.423 8.73856L101.33 6.4933C101.268 6.4933 101.206 6.4933 101.138 6.4933V8.03344C101.138 8.03344 101.076 8.04581 101.039 8.04581C100.921 7.90973 100.804 7.77365 100.686 7.63758L100.587 7.64995C100.624 7.98395 100.346 8.27466 100.513 8.63341C100.135 8.99215 100.785 9.31997 100.513 9.69109C100.63 9.66016 100.711 9.64161 100.791 9.62305C100.828 9.69728 100.884 9.75913 100.884 9.82716C100.921 10.6436 100.958 11.4539 100.971 12.2704C100.971 12.3384 100.81 12.4064 100.661 12.5239C100.686 12.7095 100.698 12.9878 100.76 13.2538C100.804 13.4394 100.996 13.6311 100.965 13.7981C100.897 14.194 100.915 14.5836 100.915 14.9733V15.5857H100.816C100.785 15.2578 100.754 14.9238 100.717 14.596C100.655 14.0022 100.575 13.4023 100.537 12.8023C100.519 12.5487 100.513 12.2332 100.649 12.0415C100.878 11.7137 100.921 10.9343 100.612 10.5941L100.674 11.6704C100.612 11.6704 100.556 11.6704 100.494 11.6704V9.70965H100.414C100.377 9.75294 100.339 9.80242 100.296 9.86428C100.234 9.72202 100.191 9.61687 100.141 9.50553C100.073 9.69728 100.073 9.85809 100.073 10.0251C100.092 10.7488 100.147 11.4725 100.123 12.1899C100.117 12.4002 99.8936 12.6044 99.7698 12.8147C99.7327 12.7961 99.6955 12.7837 99.6584 12.7652V10.6745H99.2807C99.4107 11.1137 99.2683 11.5219 99.3426 11.9735C99.4355 12.5239 99.2683 13.1177 99.2312 13.693C99.2188 13.8847 99.2621 14.0888 99.2621 14.2868V15.2578H99.1321C99.0888 14.4043 99.0393 13.5507 98.9897 12.6167C98.5192 13.0621 98.5687 13.7177 98.253 14.262V13.1672C97.7949 13.8105 97.993 14.4414 98.0425 15.0475C98.0673 15.3815 97.8506 15.6723 97.5163 15.629V15.2269L97.4172 15.2145C97.3801 15.4248 97.3058 15.6413 97.3058 15.8516C97.2934 16.5691 97.2872 17.2866 97.312 18.0041C97.3243 18.2701 97.442 18.5299 97.4853 18.7958C97.5163 19.0185 97.541 19.2473 97.5163 19.47C97.4977 19.637 97.3862 19.7855 97.3367 19.9092C97.4729 19.9834 97.5658 20.0081 97.6091 20.0638C97.8196 20.3607 98.2468 20.4225 98.5316 20.1813C98.6492 20.2494 98.7668 20.3112 98.9712 20.4287V19.2226C99.0207 19.2102 99.064 19.204 99.1074 19.1979C99.1693 19.4948 99.2064 19.7978 99.2993 20.0885C99.3798 20.3483 99.516 20.5895 99.6274 20.837C99.8008 20.4968 99.8874 20.1442 99.9865 19.804C100.005 19.7422 100.061 19.6803 100.104 19.6185V20.3421C100.284 20.2122 100.389 20.138 100.519 20.0452C100.537 20.1628 100.544 20.2432 100.556 20.3298C100.686 20.2184 100.791 20.0824 100.798 19.9463C100.816 19.5504 100.81 19.1484 100.785 18.7525C100.754 18.1711 100.705 17.5835 100.661 17.0021C100.698 17.0021 100.742 16.9897 100.779 16.9897C100.835 17.2 100.884 17.4103 100.952 17.6515C101.528 17.6577 101.132 18.1897 101.311 18.4742C101.516 18.0969 101.379 17.6948 101.417 17.3175C101.454 16.9773 101.491 16.6372 101.349 16.2227C101.479 16.3093 101.54 16.3464 101.584 16.3774C101.621 16.297 101.646 16.2413 101.708 16.1052V17.2248H101.763C101.8 17.0949 101.831 16.965 101.893 16.7361C101.961 17.0578 102.011 17.2557 102.073 17.534C102.11 17.2309 102.209 16.9835 102.147 16.7918C102.03 16.4392 102.172 16.3279 102.481 16.2722C102.488 16.4145 102.494 16.5567 102.5 16.7485C102.556 16.6495 102.587 16.6062 102.624 16.5382C102.692 16.6619 102.754 16.7732 102.81 16.8784C102.834 16.8722 102.884 16.8598 102.884 16.8598V15.7527C102.884 15.7527 102.921 15.7465 102.94 15.7465C102.983 15.8269 103.02 15.9011 103.107 16.0619C103.243 15.7588 103.354 15.5114 103.46 15.2764C103.497 15.6166 103.54 15.9691 103.584 16.3774C103.806 16.0248 103.559 15.5918 103.899 15.3321C103.881 15.7465 103.837 16.1485 104.221 16.5011C104.234 16.0001 103.992 15.5362 104.283 15.1032L104.395 16.1547C104.444 16.1485 104.487 16.1485 104.537 16.1485V13.3342C104.58 13.3342 104.63 13.3342 104.673 13.3342C104.549 14.4723 105.02 15.629 104.512 16.8103L105.837 18.4618C106.128 18.2268 105.942 18.0474 105.868 17.8557C105.701 17.4227 105.818 17.2557 106.295 17.2433C106.326 17.4845 106.345 17.7196 106.394 17.9546C106.413 18.0288 106.493 18.0845 106.549 18.1526C106.574 18.0783 106.617 17.9979 106.617 17.9175C106.654 17.3856 106.679 16.8598 106.71 16.3279C106.76 16.3341 106.809 16.3403 106.859 16.3403C106.821 16.6928 106.772 17.0454 106.76 17.3979C106.747 17.7567 106.772 18.1154 106.772 18.4742C106.772 18.9979 106.859 19.3442 107.032 19.5133V19.0618H107.15C107.15 19.2288 107.174 19.402 107.15 19.5628C107.081 20.0019 107.527 20.0824 107.688 20.3607C107.701 20.3793 107.874 20.3483 107.892 20.305C108.041 19.9463 108.134 20.0143 108.27 20.3174C108.307 20.3978 108.512 20.4473 108.623 20.4287C108.71 20.4164 108.834 20.2679 108.834 20.1751C108.852 19.804 108.834 19.4267 108.821 19.0556C108.809 18.4556 108.765 17.8557 108.778 17.2557V17.2742ZM100.117 13.0435V15.2269C100.017 15.1774 99.9741 15.1589 99.9741 15.1589C100.073 14.8063 99.7946 14.5651 99.7079 14.2744C99.5531 13.7363 99.8255 13.3404 100.117 13.0435ZM99.7946 16.532C100.017 16.767 100.166 17.7134 100.086 18.1958C99.9865 18.0103 99.9122 17.8742 99.7946 17.6639V16.532ZM99.9803 18.3072C100.185 18.7278 100.092 19.1731 100.104 19.6123C100.073 19.5319 100.024 19.4515 100.017 19.3711C99.9803 19.0185 99.9555 18.6659 99.9803 18.3072ZM101.732 13.2229C101.423 12.9198 101.293 12.5858 101.349 12.1899C101.386 11.924 101.503 11.6518 101.491 11.392C101.472 11.0271 101.367 10.6684 101.299 10.3096C101.293 10.2601 101.287 10.2107 101.28 10.1612C101.311 10.1302 101.349 10.0869 101.355 10.0746C101.454 10.1612 101.64 10.2416 101.646 10.3344C101.72 11.0828 101.77 11.8312 101.807 12.5858C101.819 12.7837 101.763 12.994 101.732 13.2229ZM102.661 9.09112C102.599 8.55918 102.537 8.02107 102.469 7.42728C102.351 7.5881 102.29 7.6685 102.228 7.7551C102.197 7.73654 102.135 7.70562 102.135 7.70562L102.481 5.22532C102.537 5.22532 102.587 5.23769 102.636 5.23769C102.772 6.51186 102.89 7.79221 102.661 9.09112ZM103.218 9.92613V11.9116H103.138C103.107 11.2498 103.07 10.5941 103.032 9.93232L103.224 9.91995L103.218 9.92613ZM103.132 8.92411C103.181 9.17153 103.231 9.42512 103.293 9.7282C102.667 9.55501 103.175 9.16534 103.132 8.92411ZM104.035 11.6147V12.1466H103.974C103.918 11.4353 103.862 10.7302 103.806 9.9818C104.079 10.1117 104.097 10.2107 104.011 10.5014C103.912 10.8416 104.023 11.2436 104.035 11.6147ZM106.029 15.6537C105.986 15.8764 105.788 16.0001 105.738 16.1856C105.658 16.5073 105.645 16.8475 105.596 17.2248C105.23 16.8042 104.908 16.3959 104.927 15.8393C104.946 15.3197 105.014 14.8063 105.057 14.2868H105.156V16.2537C105.292 16.2289 105.373 16.2104 105.459 16.1918V14.361H105.521L105.658 15.8764H105.781V14.33C106.01 14.5713 106.109 15.2269 106.029 15.6537ZM106.394 15.9444C106.394 15.9444 106.345 15.9568 106.32 15.9568C106.301 15.8826 106.258 15.8145 106.258 15.7403C106.246 15.3444 106.233 14.9486 106.246 14.5527C106.246 14.4599 106.332 14.3733 106.382 14.2868C106.419 14.3053 106.462 14.3177 106.5 14.33C106.469 14.8682 106.431 15.4063 106.394 15.9444ZM106.803 15.2269C106.71 14.8805 106.623 14.5218 106.586 14.163C106.574 14.0393 106.716 13.8971 106.846 13.6682C107.051 14.2187 107.081 14.6455 106.914 15.0908C106.896 15.1465 106.927 15.2331 106.958 15.295C106.989 15.3506 107.044 15.3939 107.088 15.4434C107.088 15.4434 107.081 15.462 107.032 15.6166C106.92 15.4372 106.834 15.3382 106.803 15.2269ZM107.131 18.7278C107.094 18.7216 107.051 18.7216 107.013 18.7216C107.032 18.3567 107.051 17.9855 107.069 17.6268H107.131V18.7278Z" fill="white"/>
<path d="M48.8979 3.75992C48.254 3.70425 47.6039 3.69807 46.9601 3.6857C46.4524 3.67333 46.4524 3.6857 46.4524 4.18052V19.8355C46.4524 19.9282 46.4214 20.0334 46.4586 20.1014C46.5081 20.1942 46.601 20.3241 46.6815 20.3241C47.963 20.3365 49.2508 20.3365 50.5447 20.3365C50.5633 20.2684 50.5695 20.2561 50.5695 20.2437C50.5695 15.3944 50.588 10.5452 50.5695 5.69591C50.5633 4.68771 49.7956 3.84033 48.8917 3.75992H48.8979Z" fill="white"/>
<path d="M94.3155 16.9341C94.3155 16.699 94.1731 16.4702 94.0865 16.1919C93.9998 16.4083 93.9379 16.5753 93.8574 16.7671C93.6036 16.3032 93.0278 16.229 92.4458 16.5259C92.4582 16.7856 92.4768 17.0269 92.4892 17.2743L92.3839 17.2866C92.3468 17.1939 92.3096 17.1011 92.2539 16.9588C92.1672 17.0702 92.1115 17.1506 92.0558 17.2248C91.9815 17.1258 91.9072 17.0269 91.8329 16.9279C91.7648 16.9712 91.6967 17.0207 91.6286 17.064C91.4429 16.8289 91.3067 16.532 91.0838 16.4145C90.8671 16.297 90.5514 16.3527 90.2356 16.3279C90.3347 16.5506 90.4833 16.7362 90.4894 16.9279C90.5018 17.3114 90.4585 17.7011 90.4213 18.0845C90.3532 17.9052 90.2913 17.7196 90.2108 17.5464C90.1737 17.466 90.0994 17.4042 90.0685 17.3671C89.9942 17.0516 89.9261 16.7609 89.8579 16.4702H89.7465C89.7279 16.6867 89.6846 16.9093 89.697 17.132C89.7156 17.5526 89.796 17.967 89.796 18.3876C89.8022 18.9381 89.7651 19.4948 89.7403 20.0453C89.7403 20.1071 89.6846 20.1628 89.6289 20.2865C89.567 19.136 89.5112 18.066 89.4617 17.1135C89.016 16.73 88.5578 16.4764 88.3411 16.0929C88.1183 15.697 88.1306 15.1713 88.0378 14.6703C88.0006 14.7754 87.9697 14.8682 87.9387 14.961C87.8211 14.862 87.7468 14.7445 87.7592 14.6332C87.8211 14.1198 87.9201 13.6064 87.9821 13.093C88.0625 12.4436 88.4526 11.7941 88.0006 11.1014C87.8273 11.2189 87.6601 11.3302 87.462 11.4601C87.4372 11.3673 87.3753 11.2622 87.3753 11.1632C87.3753 10.7364 87.3753 10.3097 87.4001 9.88906C87.4187 9.52412 87.4434 9.15919 87.493 8.80045C87.5301 8.50974 87.7282 8.19429 87.6539 7.94688C87.5487 7.58813 87.9387 7.05001 87.332 6.91394C87.4372 6.79642 87.6106 6.69745 87.6168 6.58612C87.6477 6.06037 87.6292 5.5408 87.6292 5.05217C87.5425 5.02124 87.462 4.99031 87.3815 4.94702C87.3691 4.94702 87.4125 4.8295 87.4187 4.8295C87.5177 4.84805 87.6106 4.87279 87.6725 4.89135C87.7035 4.72435 87.7282 4.55116 87.7592 4.39034C87.8892 4.43364 88.0316 4.49549 88.0378 4.48312C88.1059 4.3656 88.1554 4.2419 88.1864 4.11201C88.1864 4.09345 88.0625 4.01304 87.9883 4.01304C87.7158 4.00686 87.4434 4.01304 87.171 4.01304C87.1648 3.9883 87.1648 3.96356 87.1648 3.93882C87.072 4.01923 86.9729 4.09963 86.8181 4.22952C86.8491 4.01304 86.8677 3.87696 86.8924 3.69141C86.7934 3.70996 86.62 3.71615 86.62 3.74707C86.5767 4.06252 86.2486 4.27282 86.3352 4.65631C86.4033 4.94702 86.3476 5.26865 86.3476 5.57792H86.2362C86.1928 4.9532 86.1495 4.32849 86.1062 3.69759H85.7347C85.7285 3.9017 85.7161 4.09345 85.7099 4.29138C85.6666 4.29138 85.6233 4.29756 85.5799 4.29756C85.5614 4.14912 85.549 4.00067 85.5242 3.76563C85.2146 3.76563 84.8741 3.76563 84.5336 3.76563C84.4903 3.76563 84.416 3.81511 84.416 3.84604C84.3541 4.22334 84.2488 4.60683 84.2488 4.99031C84.2426 5.43565 84.3665 5.88718 84.3727 6.3387C84.385 6.87064 84.3293 7.40876 84.3046 7.97162C83.605 7.50772 84.1188 6.7593 83.8279 6.12841C83.8031 6.26448 83.7783 6.32015 83.7783 6.36963C83.8031 6.82734 83.8464 7.27887 83.8464 7.73658C83.8402 8.39222 83.7783 9.04786 83.7783 9.7035C83.7783 10.6808 83.8155 11.6642 83.834 12.6415C83.8464 13.4641 83.865 14.2868 83.865 15.1094C83.865 15.4867 83.8464 15.864 83.8526 16.2413C83.8712 17.1444 83.8898 18.0474 83.9331 18.9443C83.9579 19.4577 84.026 19.9649 84.0693 20.4659C84.2612 20.4844 84.3974 20.503 84.5212 20.5154C84.5398 20.67 84.5522 20.7999 84.5646 20.9298C84.5955 20.9421 84.6265 20.9483 84.6575 20.9545C84.7132 20.8246 84.7627 20.6947 84.8122 20.5772C85.7347 20.5339 86.6757 20.5772 87.5858 20.2556C87.6354 20.4288 87.6787 20.5772 87.7282 20.7566C88.0564 20.5092 88.3535 20.2494 88.8921 20.5896C88.7993 19.5134 88.7126 18.5608 88.6321 17.6021C88.6693 17.5835 88.7002 17.5712 88.7312 17.5588L88.9664 18.1711C89.0407 18.1155 89.1398 18.0536 89.2265 17.998C89.2574 18.8701 89.2946 19.7051 89.3255 20.503C89.7094 20.4102 90.0003 20.336 90.347 20.2494C90.4152 20.2123 90.5575 20.1257 90.7433 20.0082C90.6071 19.9401 90.4709 19.8783 90.2975 19.7979C90.4771 19.7175 90.5885 19.668 90.6442 19.6432C90.539 19.5257 90.3656 19.4206 90.3656 19.3154C90.3532 18.9134 90.3966 18.5051 90.4152 18.1031C90.4956 18.066 90.5947 18.0413 90.6318 17.9794C90.6752 17.899 90.6628 17.7815 90.669 17.6825C91.0714 18.2639 90.8176 18.9381 90.9909 19.5443H91.1024V17.6516C91.1643 17.8 91.2324 17.9052 91.2509 18.0227C91.2695 18.1711 91.2014 18.3505 91.2633 18.4742C91.3871 18.7278 91.1333 19.1422 91.5915 19.2412C91.3005 18.7402 91.5172 18.2577 91.5791 17.7691H91.6843C91.6534 18.2577 91.6224 18.7464 91.5915 19.235C91.61 19.3154 91.6224 19.402 91.6534 19.5505C91.7648 19.3958 91.8267 19.3154 91.8824 19.2412C91.9815 19.2783 92.0682 19.303 92.1548 19.3402C91.9815 19.6556 91.8143 19.9772 91.6658 20.2494C91.8205 20.3112 92.0372 20.4721 92.2353 20.4597C92.4396 20.4411 92.8049 20.2556 92.8049 20.1442C92.8111 19.5443 92.7492 18.9381 92.6625 18.3381C92.5882 17.8248 92.613 17.4908 92.7925 17.2681C92.8235 17.7567 92.8049 18.2948 92.9163 18.8082C92.9783 19.0804 93.0649 19.2721 92.8544 19.3773C92.904 19.6742 92.9287 19.9216 92.9844 20.169C93.0154 20.3422 93.0525 20.5339 93.1578 20.6576C93.2073 20.7133 93.4178 20.6453 93.5354 20.6329V18.2515C93.8821 18.901 94.0369 19.5566 93.7274 20.2741C93.8079 20.3051 93.9379 20.3051 93.9626 20.3607C94.2227 20.8803 94.2908 20.4473 94.3031 20.2741C94.3403 19.8783 94.3155 19.4824 94.3155 19.0866C94.3155 18.3691 94.3341 17.6516 94.3031 16.9341H94.3155ZM84.2427 8.19429V13.5198C83.896 13.0188 83.9455 8.42933 84.2427 8.19429ZM84.1931 17.4165V16.2475C84.3541 16.6372 84.3417 17.0207 84.1931 17.4165ZM86.2795 13.359L86.2238 13.3714H86.2114C86.2114 13.1611 86.23 12.9446 86.2114 12.7343C86.199 12.5673 86.1371 12.4065 86.1124 12.2395C86.1 12.1838 86.1124 12.1096 86.1433 12.0539C86.1557 12.023 86.2609 11.9982 86.2671 12.0106C86.3043 12.0663 86.3476 12.1343 86.3476 12.1962C86.3352 12.5858 86.3043 12.9693 86.2795 13.359ZM86.5767 20.1999V18.666L86.6634 18.6536C86.6881 19.1237 86.7191 19.5876 86.7377 20.0515C86.7377 20.0948 86.6386 20.1442 86.5767 20.1999ZM86.5829 16.2846V14.2002C86.8367 14.5899 86.8553 15.8084 86.5829 16.2846ZM87.0348 11.9673C86.8677 11.7508 86.8553 10.8973 87.0348 10.5818V11.9673ZM87.1463 9.56742C87.1277 9.84576 87.1153 10.1241 87.0967 10.4024H86.9915V9.56124C87.0472 9.56124 87.0967 9.56124 87.1463 9.56124V9.56742ZM87.4992 17.1629V19.7051H87.3691V17.1568H87.4992V17.1629ZM87.4682 15.963C87.1339 15.1713 87.4372 14.3363 87.2763 13.5322C87.5549 14.3301 87.6415 15.1404 87.4682 15.963ZM88.4031 19.8535C88.2297 19.8164 88.1368 19.5814 88.1183 19.1484C88.0563 19.167 87.9944 19.1855 87.8397 19.2288C87.9201 18.6783 87.9944 18.1773 88.0687 17.6763C88.1183 17.6578 88.174 17.6392 88.2297 17.6207C88.3226 17.7134 88.4959 17.8062 88.4959 17.899C88.4835 18.5546 88.4402 19.1979 88.4031 19.8535ZM89.8951 19.7793C89.9261 19.2226 89.9508 18.7464 89.9756 18.2701H90.0499C90.0994 18.6474 90.1613 19.0247 90.1737 19.402C90.1737 19.501 90.0251 19.6123 89.8951 19.7793ZM92.1796 19.3278C91.9443 18.9629 91.771 18.5979 91.9505 18.0722C92.0434 18.3814 92.1053 18.6041 92.1982 18.9381C92.291 18.6783 92.3406 18.5237 92.4273 18.2701C92.4768 18.6536 92.5635 18.9381 92.5449 19.2165C92.5325 19.4268 92.3468 19.4268 92.1796 19.3278Z" fill="white"/>
<path d="M75.7981 3.77832H75.3833V20.4724H75.7981V3.77832Z" fill="white"/>
<path d="M96.9282 17.9488C96.922 17.9117 96.9344 17.8746 96.9344 17.8375V16.9468C96.7053 17.1447 96.5381 17.2932 96.371 17.4354V20.2312H96.3772C96.9653 20.293 97.083 20.2188 97.083 19.7487C97.0768 19.6745 97.0706 19.6003 97.0644 19.526C97.021 19.0003 96.9715 18.4745 96.9282 17.9488Z" fill="white"/>
<path d="M123.364 16.4341H123.371L123.364 16.4272V16.4341Z" fill="white"/>
<path d="M123.036 15.1712V14.7568H122.918C122.522 15.8454 122.776 16.9773 122.745 18.0969C123.135 17.5402 123.092 16.8969 123.092 16.1918C123.228 16.3093 123.283 16.3588 123.364 16.4269C123.531 15.9568 123.376 15.431 123.036 15.1712Z" fill="white"/>
<path d="M109.477 18.0786C109.211 18.493 109.329 19.7177 109.663 19.7981C109.663 19.4765 109.626 19.1734 109.669 18.8889C109.744 18.4497 109.719 18.2518 109.477 18.0786Z" fill="white"/>
<path d="M110.196 18.6973C110.196 18.6973 110.072 18.6973 110.004 18.6973C110.004 18.7467 109.997 18.8395 110.01 18.8395C110.474 18.9632 110.22 19.322 110.257 19.5818L110.189 19.4148C110.257 19.823 109.917 20.3425 110.542 20.6394C110.511 20.1137 110.499 19.6251 110.443 19.1488C110.425 18.988 110.295 18.8395 110.196 18.6973Z" fill="white"/>
<path d="M121.915 14.4851C121.946 13.9346 122.194 13.4336 121.829 12.9512C121.544 13.8975 121.55 14.0522 121.915 14.4851Z" fill="white"/>
<path d="M120.782 15.0047C121.141 14.3923 120.931 13.7924 120.906 13.1924H120.782V15.0047Z" fill="white"/>
<path d="M120.689 18.6909C120.646 18.7033 120.603 18.7218 120.559 18.7404C120.597 19.062 120.64 19.3775 120.683 19.6991C120.733 19.7177 120.776 19.7424 120.819 19.761C120.943 19.5878 121.073 19.4146 121.197 19.2414C121.135 19.229 121.073 19.2167 121.005 19.1981C120.912 19.0497 120.801 18.8703 120.689 18.6909Z" fill="white"/>
<path d="M101.318 4.62598L101.126 6.07952L101.268 6.0857C101.219 5.61562 101.801 5.18265 101.318 4.62598Z" fill="white"/>
<path d="M88.4402 4.33496H88.3288L88.2297 5.70191H88.4402V4.33496Z" fill="white"/>
<path d="M87.8335 7.36572L88.1121 8.21311C88.3597 7.76777 88.2421 7.42758 87.8335 7.36572Z" fill="white"/>
<path d="M121.402 13.7429C121.358 13.3285 121.321 12.9574 121.278 12.5615C120.981 12.6481 121.011 13.0192 121.402 13.7429Z" fill="white"/>
<path d="M106.667 19.4828C106.617 19.0808 106.561 18.6849 106.506 18.2334C106.307 18.7468 106.376 19.2169 106.667 19.4828Z" fill="white"/>
<path d="M111.879 8.04639C111.824 8.49173 111.669 8.93707 111.879 9.37004V8.04639Z" fill="white"/>
</svg>
