<svg width="88" height="34" viewBox="0 0 88 34" fill="none" xmlns="http://www.w3.org/2000/svg">
<path d="M15.7322 0.0275661C29.1919 -0.728884 38.0445 14.2383 30.7589 25.8179C24.4221 35.8912 9.91982 36.2885 3.07932 26.5375C-4.50042 15.7328 2.74614 0.757705 15.7322 0.0275661ZM15.8571 2.55214C12.8624 2.73105 9.97318 3.95584 7.75288 5.97392C12.6477 10.531 20.5385 10.56 25.4229 5.97392C22.8655 3.6138 19.3346 2.34428 15.8571 2.55214ZM9.31204 17.1773C9.41225 13.72 8.17065 10.3403 5.91001 7.77362C4.22981 9.6904 2.96739 12.1426 2.70059 14.7106L9.31334 17.1786L9.31204 17.1773ZM30.2956 13.1372C29.7399 11.248 28.782 9.47201 27.4545 8.02752C26.5708 8.99841 25.8628 10.1193 25.3006 11.3072L30.2956 13.1385V13.1372ZM23.0516 10.4232C22.4529 10.606 21.8868 10.8836 21.2894 11.0704C18.3416 11.994 15.3508 12.0532 12.3744 11.2112C11.7185 11.0257 11.0924 10.7376 10.4391 10.5495C12.1688 14.6225 12.0698 19.2769 10.2517 23.2986C14.1964 21.3871 18.9156 21.3937 22.928 23.1092C21.499 19.6716 21.2881 15.9209 22.3644 12.3465C22.5623 11.6914 22.846 11.0731 23.0529 10.4232H23.0516ZM30.8578 17.2404V16.0091L24.5769 13.5805C24.4663 13.5542 24.5002 13.5976 24.4728 13.6581C24.3375 13.9594 24.3427 14.4159 24.2347 14.7395L30.8591 17.2391L30.8578 17.2404ZM8.93331 19.5795L2.50667 17.176C2.6212 20.3057 3.85109 23.3144 5.91001 25.6337C7.36505 23.9064 8.5637 21.8489 8.93331 19.5795ZM30.5403 19.7071L24.0511 17.3036C24.1006 17.5812 24.0577 18.5073 24.2399 18.6586L30.2357 20.874L30.5403 19.7071ZM29.2974 23.1105L24.8646 21.4687C25.4398 23.0671 26.304 24.5787 27.4558 25.8232C27.7981 25.6232 29.4015 23.2539 29.2987 23.1105H29.2974ZM12.8104 24.8141C12.7336 24.9036 13.1631 25.539 13.2295 25.6837C13.7891 26.9085 13.927 28.0452 13.6667 29.3713C13.5926 29.7501 13.4156 30.1001 13.3388 30.4303C13.3232 30.4974 13.2815 30.5566 13.3362 30.6237C15.0007 31.1104 16.7968 31.2223 18.516 30.9894C18.7008 30.9644 19.9216 30.7579 19.9281 30.6513C19.3242 29.291 19.3516 27.6755 19.7732 26.2639L20.3394 24.7457C17.9082 23.9814 15.2376 24.1011 12.8091 24.8128L12.8104 24.8141ZM22.1783 29.9264C23.3874 29.3305 24.5808 28.6359 25.5452 27.6768C25.5908 27.4137 23.1024 25.81 22.7067 25.6416C21.8686 26.919 21.6031 28.478 22.1783 29.9264ZM11.0612 29.737C11.3892 28.8056 11.5193 27.9583 11.1718 27.0059C11.0898 26.7809 10.6382 25.8837 10.4066 25.885C10.1931 25.8876 8.5689 27.0809 8.31251 27.3045L7.93899 27.6834C8.88516 28.4964 9.9003 29.266 11.0599 29.7357L11.0612 29.737Z" fill="white"/>
<path d="M69.4515 22.2263V20.395H70.326V23.6774L69.5269 23.6642L68.0159 21.8474V23.6774H67.1414V20.395L67.9886 20.4542L69.4515 22.2263Z" fill="white"/>
<path d="M36.7288 23.6774V20.395H38.5716C38.6419 20.395 39.1183 20.5805 39.2094 20.6345C40.1581 21.1962 40.1594 22.8749 39.2094 23.4379C39.1196 23.4919 38.6419 23.6774 38.5716 23.6774H36.7288ZM37.602 22.9209C38.2905 22.9972 39.0558 22.8854 39.0324 22.0119C39.0089 21.1383 38.2762 21.0923 37.602 21.1541V22.9209Z" fill="white"/>
<path d="M53.933 9.66533C55.0744 9.82846 55.2436 11.2611 54.1517 11.6532C54.4953 11.9584 54.7126 12.1399 55.2072 12.0702L55.267 12.6859C54.7477 12.9306 54.3599 12.7753 53.9343 12.4399C53.6493 12.2149 53.4294 11.8137 53.0897 11.6834V12.6622C52.8736 12.8556 52.4923 12.7174 52.2151 12.7569V9.66402C52.7487 9.71927 53.4163 9.59035 53.933 9.66402V9.66533ZM53.9499 10.9756C54.0619 10.8625 54.0684 10.5362 53.9031 10.4534C53.7105 10.3586 53.3148 10.456 53.091 10.4218V11.0533C53.2953 11.0283 53.8094 11.1177 53.9499 10.9743V10.9756Z" fill="white"/>
<path d="M42.286 11.3705V9.66553H43.0981V12.7584L42.3615 12.7453L40.9754 11.0548V12.7584H40.1633V9.66553L40.8843 9.72604L42.286 11.3705Z" fill="white"/>
<path d="M60.5222 16.672V14.9684H61.3343V18.0613C61.1482 18.0402 60.9191 18.0942 60.7421 18.0599C60.4272 17.9994 59.563 16.5997 59.2103 16.3576V18.0613H58.3982V14.9684C58.5843 14.9894 58.8134 14.9355 58.9904 14.9697C59.3053 15.0302 60.1695 16.43 60.5222 16.672Z" fill="white"/>
<path d="M67.3289 12.7584V9.76025L67.4226 9.66553H68.9843C69.2017 9.66553 69.7912 9.97205 69.9513 10.1391C70.5773 10.7969 70.3964 12.1704 69.557 12.5795C69.4893 12.6124 69.0832 12.7571 69.0468 12.7571H67.3289V12.7584ZM68.2034 12.0638C68.7943 12.0993 69.4372 11.9901 69.4568 11.2758C69.4802 10.4193 68.9062 10.3641 68.2034 10.4233V12.0638Z" fill="white"/>
<path d="M43.4105 20.395V21.1528H41.5989V21.658H43.0982V22.3526H41.5989V22.9209H43.4105V23.6774H40.7881V20.395H43.4105Z" fill="white"/>
<path d="M60.3972 12.7584V9.66553H61.9902C62.0319 9.66553 62.4041 9.77735 62.4757 9.80629C63.552 10.226 63.6613 11.877 62.7294 12.4953C62.6032 12.5782 62.1815 12.7584 62.0527 12.7584H60.3972ZM61.208 12.0638C61.8327 12.1217 62.5251 11.9875 62.5251 11.2113C62.5251 10.3772 61.8523 10.368 61.208 10.422V12.0625V12.0638Z" fill="white"/>
<path d="M50.0296 20.395V22.5091C50.0296 22.8709 50.8769 23.138 51.1827 22.6644C51.2205 22.6065 51.3402 22.2986 51.3402 22.2565V20.395H52.2148V22.3828C52.2148 22.4355 52.0924 22.8407 52.0586 22.9196C51.6525 23.8721 50.122 24.0062 49.4674 23.2669C49.3932 23.1827 49.155 22.7828 49.155 22.6986V20.395H50.0296Z" fill="white"/>
<path d="M59.8975 23.6774H59.0229L58.7964 23.1183H57.5314L57.3388 23.6484L56.4629 23.6774L57.7097 20.4253L58.7431 20.4582L59.8975 23.6787V23.6774ZM58.2732 21.4054C58.1105 21.3764 58.1769 21.4291 58.1431 21.4948C58.0884 21.6027 57.793 22.3736 57.8372 22.4144H58.5856L58.2732 21.4054Z" fill="white"/>
<path d="M63.0823 23.6774L64.3603 20.3911L65.3234 20.403L66.5168 23.6774L65.641 23.6485L65.4483 23.117H64.1833L63.9569 23.6774H63.0823ZM65.205 22.4145L64.769 21.3423L64.3942 22.4145H65.2063H65.205Z" fill="white"/>
<path d="M40.8962 14.9829C42.1534 14.7697 42.9876 15.5446 42.8484 16.8299C42.7442 17.785 41.6432 18.3099 40.7881 18.0284C39.2862 17.5351 39.4359 15.2302 40.8962 14.9829ZM41.0823 15.7393C40.4133 15.8788 40.3391 17.0378 40.9912 17.2535C42.3486 17.7021 42.4462 15.4551 41.0823 15.7393Z" fill="white"/>
<path d="M51.529 9.66553C51.4965 9.90891 51.6188 10.2391 51.4353 10.4233H49.8423V10.8653H51.2167C51.188 11.0903 51.3013 11.3929 51.123 11.5599H49.8423V12.0651H51.529V12.7597H49.0315V9.66684H51.529V9.66553Z" fill="white"/>
<path d="M54.0891 14.9673C54.0565 15.2107 54.1789 15.5409 53.9954 15.7251H52.4024V16.1671H53.7767C53.7481 16.392 53.8613 16.6946 53.683 16.8617H52.4024V17.3669H54.0891V18.0615H51.5916V15.0633L51.6853 14.9686H54.0891V14.9673Z" fill="white"/>
<path d="M56.0243 21.6565L55.2135 21.7842C55.2512 21.4513 55.0912 21.1737 54.7437 21.1487C53.6114 21.0685 53.5645 23.1155 54.9168 22.905C55.2278 22.8563 55.436 22.6459 55.7106 22.5419L56.0191 23.1931C54.6604 24.3521 52.7667 23.5852 53.0322 21.6329C53.2535 20.0042 56.1167 19.7819 56.023 21.6579L56.0243 21.6565Z" fill="white"/>
<path d="M37.2911 17.2402V18.0612H36.479V14.9683H38.1969C38.2451 14.9683 38.5796 15.1051 38.6472 15.1445C39.2277 15.4787 39.3318 16.3838 38.9049 16.8837C38.8164 16.9877 38.4312 17.2402 38.3219 17.2402H37.2911ZM37.2898 16.5456C37.6048 16.5193 38.1813 16.6772 38.2763 16.247C38.4234 15.5866 37.7089 15.726 37.2898 15.7247V16.5456Z" fill="white"/>
<path d="M37.2911 9.66553V11.6533C37.2911 11.8178 37.6542 12.0533 37.8273 12.0599C38.016 12.0677 38.4781 11.8546 38.4781 11.6533V9.66553H39.2902V11.7796C39.2902 11.8073 39.1288 12.1559 39.0923 12.2111C38.5757 13.015 37.118 13.0268 36.6391 12.1862C36.6052 12.1269 36.479 11.8757 36.479 11.8428V9.66553H37.2911Z" fill="white"/>
<path d="M69.3813 14.9761L70.5136 18.0598L69.7015 18.0295L69.4776 17.4875H68.305L68.0812 18.0295L67.269 18.0598L68.4221 15.0287L69.3826 14.9761H69.3813ZM69.2642 16.86L68.9206 15.9141L68.5145 16.86H69.2642Z" fill="white"/>
<path d="M66.8291 12.758L66.0261 12.7501L65.7906 12.1989L64.6375 12.2291L64.4488 12.7501L63.6458 12.758L64.778 9.67432L65.7372 9.72825L66.8291 12.758ZM65.5797 11.5582C65.6162 11.5227 65.3272 10.6663 65.2062 10.6123L64.8939 11.5582H65.5797Z" fill="white"/>
<path d="M56.8377 16.2934C56.6503 15.0502 55.1159 15.9526 55.6872 16.9814C56.0425 17.6221 56.8065 17.2669 57.2737 16.9867L57.5822 17.5787C56.9809 18.1944 55.9215 18.3062 55.2461 17.7431C54.5029 17.1222 54.5524 15.6974 55.3983 15.187C55.9905 14.8292 57.1006 14.816 57.4442 15.5225C57.8021 16.2605 57.4364 16.1526 56.8377 16.2947V16.2934Z" fill="white"/>
<path d="M57.9558 9.86143L57.7735 10.6126C57.3779 10.4561 57.1371 10.31 56.6855 10.3666C56.4734 10.3929 56.3315 10.5442 56.5241 10.7073C56.83 10.9665 57.9011 10.8494 58.0195 11.594C58.2043 12.7504 56.9042 12.9609 56.0595 12.6912C55.4765 12.5044 55.6613 12.3136 55.8708 11.8111C56.0999 11.9979 57.2165 12.2808 57.2139 11.8414C57.2139 11.5519 56.0686 11.523 55.7732 11.1494C55.5272 10.8389 55.548 10.3916 55.7732 10.0746C56.1962 9.47992 57.361 9.61411 57.9532 9.86012L57.9558 9.86143Z" fill="white"/>
<path d="M66.8291 16.1665L66.0808 16.2928C66.056 15.8771 65.9753 15.714 65.5498 15.7193C64.7064 15.7285 64.6062 16.9177 65.2257 17.2519C65.8452 17.586 66.4465 16.9375 66.5168 16.9875L66.82 17.5768C65.5797 18.7109 63.7772 17.9649 64.0244 16.1402C64.2301 14.6208 66.9111 14.4326 66.8291 16.1665Z" fill="white"/>
<path d="M46.158 9.66553C46.4287 10.2917 46.5419 11.0008 46.8165 11.6231C46.8503 11.6994 46.8113 11.7757 46.9388 11.7494L47.6572 9.66553H48.5318L47.4399 12.6953L46.5002 12.7624L45.2847 9.66553H46.1593H46.158Z" fill="white"/>
<path d="M46.1891 20.395C46.275 20.4226 46.7279 21.2936 46.8307 21.4488C46.8593 21.4935 46.8125 21.558 46.9374 21.5317L47.6246 20.395H48.5304C48.5461 20.4871 48.5148 20.5503 48.481 20.6292C48.3612 20.916 47.3435 22.2776 47.3435 22.3828V23.6774H46.4689V22.3828C46.4689 22.2776 45.4512 20.916 45.3314 20.6292C45.2976 20.5489 45.2664 20.4871 45.282 20.395H46.1878H46.1891Z" fill="white"/>
<path d="M62.8948 20.395V21.1528H61.9578V23.6774H61.0832V21.1528H60.085V20.395H62.8948Z" fill="white"/>
<path d="M49.9672 15.7251V18.0602H49.1551V15.7251H48.2805V14.9673H50.8093C50.9563 15.0633 50.9368 15.6316 50.8444 15.6974L49.9659 15.7251H49.9672Z" fill="white"/>
<path d="M44.5349 14.9673V17.3656H46.0342C46.0056 17.5905 46.1188 17.8931 45.9405 18.0602H43.7241V14.9673H44.5362H44.5349Z" fill="white"/>
<path d="M44.7848 9.66553H43.9727V12.7584H44.7848V9.66553Z" fill="white"/>
<path d="M59.5226 9.66553H58.7104V12.7584H59.5226V9.66553Z" fill="white"/>
<path d="M47.5323 14.9673H46.7202V18.0602H47.5323V14.9673Z" fill="white"/>
<path d="M63.1446 14.9673H62.3325V18.0602H63.1446V14.9673Z" fill="white"/>
<path d="M65.5796 19.3862C65.3037 19.8993 64.99 20.4926 64.3328 20.1124L64.705 19.4165L65.5796 19.3862Z" fill="white"/>
<path d="M53.5892 14.021L53.1519 14.7459L52.4661 14.7774L52.7875 14.0315L53.5892 14.021Z" fill="white"/>
<path d="M16.0406 4.50566C18.2336 4.15704 18.4106 7.47226 16.3321 7.51305C14.5322 7.54857 14.2875 4.78456 16.0406 4.50566Z" fill="white"/>
<path d="M87.9999 9.66553V23.7408H74.0117V9.66553H87.9999ZM85.1874 13.0781C84.1658 12.5742 82.3463 12.8729 82.3736 14.3055C82.4036 15.9303 84.8165 15.5369 84.7905 16.884C84.7683 18.0246 83.161 17.9444 82.4713 17.4958L82.3229 18.0536C83.6178 18.6035 85.5349 18.3864 85.3774 16.5749C85.2512 15.1133 83.0296 15.4067 82.9957 14.2424C82.9645 13.1702 84.3792 13.2991 85.0612 13.5793L85.1861 13.0781H85.1874ZM76.3843 13.011V18.2496C77.4606 18.343 79.4909 18.4522 79.6341 16.959C79.7173 16.0934 79.2957 15.7053 78.5695 15.3777C79.6536 14.9857 79.8032 13.5096 78.6749 13.0623C77.9734 12.7847 77.1053 12.8821 76.383 13.0123L76.3843 13.011ZM81.2544 12.9479H80.6297V18.2496H81.2544V12.9479ZM78.8818 19.2599C78.8454 19.2231 78.6957 19.3126 78.6957 19.3547C78.6957 19.5296 78.9755 19.3547 78.8818 19.2599ZM82.6912 19.2599C82.4621 19.2599 82.4621 19.4481 82.6912 19.4481V19.2599ZM83.8144 19.2599H83.6907V19.4481H83.8144V19.2599ZM77.1951 19.3862V20.3019C77.1951 20.4295 76.7877 20.5518 76.6901 20.369L76.5079 19.3862V20.365C76.5079 20.6479 77.32 20.6623 77.32 20.3019V19.3862H77.1951ZM83.191 19.4494C82.971 19.3862 83.1142 19.6467 83.0621 19.6993L82.8786 19.7651C83.2586 19.6822 82.958 20.3334 83.0934 20.5268L83.4408 20.586C83.502 20.3611 83.2313 20.5005 83.191 20.4611V19.7664L83.4421 19.7349L83.191 19.7033V19.4494ZM77.6949 19.702V20.586L77.8185 19.8585C77.9174 19.7835 78.1452 19.7007 78.2298 19.8256L78.2584 20.586C78.412 20.7899 78.3899 20.1743 78.3859 20.1098C78.3742 19.9072 78.3807 19.6257 78.1022 19.6441C77.9578 19.6546 77.8602 19.8151 77.6962 19.702H77.6949ZM80.8184 20.144C80.9173 19.4889 80.0779 19.5112 80.0779 20.1124C80.0779 20.4518 80.4852 20.8031 80.7559 20.4597C80.4683 20.4808 80.2158 20.5005 80.1937 20.144H80.8184ZM82.2539 19.702C82.086 19.6125 81.8153 19.6467 81.7203 19.827C81.5732 20.1059 82.0886 20.1822 82.1901 20.3637L81.6917 20.4584C81.5524 20.561 82.5077 20.7636 82.2227 20.2045C82.1576 20.0756 81.7789 20.0427 81.8166 19.8598L82.2526 19.702H82.2539ZM84.8152 20.144C84.8686 19.8138 84.7527 19.5638 84.3896 19.6783C84.0265 19.7928 84.0382 20.4045 84.3297 20.5387C84.4313 20.586 84.8139 20.6794 84.7514 20.4597C84.5015 20.4834 84.2269 20.4716 84.2517 20.144H84.8139H84.8152ZM85.5635 19.7638C85.475 19.5467 85.2134 19.6467 85.0937 19.7638C84.862 20.1466 85.6416 20.1466 85.4698 20.4597H85.0638C85.1262 20.6531 85.5102 20.6321 85.5961 20.4597V20.2058L85.1874 19.9861L85.2499 19.7954L85.5635 19.7651V19.7638ZM78.8193 20.5847V19.7007H78.7569V20.5847H78.8193ZM79.2553 19.702L79.1408 19.7862C79.2163 19.9138 79.3647 20.6281 79.5364 20.586L79.88 19.7033L79.7382 19.8414L79.474 20.3979L79.254 19.7033L79.2553 19.702ZM81.1294 19.702V20.586L81.2192 19.8875L81.5056 19.8283C81.5511 19.5757 81.2596 19.8164 81.1307 19.702H81.1294ZM82.6912 19.702H82.5663V20.586H82.6912V19.702ZM83.8157 19.702H83.6907V20.586H83.8157V19.702Z" fill="#EDA122"/>
<path d="M77.0078 15.6618C77.764 15.6184 78.9873 15.6868 79.0108 16.7037C79.0277 17.4009 78.4681 17.7443 77.8499 17.8075C77.6156 17.8311 77.1822 17.8588 77.0078 17.7127V15.6618Z" fill="#EDA122"/>
<path d="M77.0078 15.2196V13.3896H78.101C78.2871 13.3896 78.6711 13.6712 78.7505 13.8698C79.2099 15.0249 77.8577 15.3419 77.0078 15.2209V15.2196Z" fill="#EDA122"/>
<path d="M84.6904 20.0793H84.2843C84.0527 20.0516 84.6982 19.3491 84.6904 20.0793Z" fill="#EDA122"/>
<path d="M80.6935 20.0795C80.5256 20.0677 80.3148 20.1427 80.1951 19.9861C80.3083 19.6572 80.7651 19.6585 80.6935 20.0795Z" fill="#EDA122"/>
</svg>
