<svg width="112" height="33" viewBox="0 0 112 33" fill="none" xmlns="http://www.w3.org/2000/svg">
<path d="M53.316 4.5683C52.3886 4.1977 51.6753 3.64181 51.6753 2.45876C51.6753 0.919361 52.8666 0 54.3646 0C55.8626 0 56.897 0.96212 56.9184 2.5514L55.7342 2.82935C55.6129 1.73182 55.1065 1.24007 54.3361 1.24007C53.6584 1.24007 53.0092 1.61066 53.0092 2.3376C53.0092 3.06453 53.6584 3.32823 54.1791 3.52778L55.399 4.0124C56.469 4.43289 57.2037 5.01016 57.2037 6.2431C57.2037 7.83238 55.9482 8.72324 54.3717 8.72324C52.674 8.72324 51.4327 7.68985 51.4185 5.9509L52.6026 5.70859C52.7453 6.81325 53.2874 7.47604 54.3503 7.47604C55.0851 7.47604 55.8555 7.16246 55.8555 6.3215C55.8555 5.53754 55.1921 5.30948 54.4787 5.03154L53.3089 4.56117L53.316 4.5683Z" fill="white"/>
<path d="M61.5695 8.65212L61.5481 8.20313C61.063 8.50246 60.5708 8.72339 60.0643 8.72339C59.0514 8.72339 57.8815 8.0606 57.8815 6.17911V2.54443H59.1584V6.07221C59.1584 7.27665 59.7505 7.51896 60.207 7.51896C60.7277 7.51896 61.3412 7.21963 61.5053 6.24326V2.54443H62.7679V8.65212H61.5624H61.5695Z" fill="white"/>
<path d="M64.8299 6.01537C64.9725 7.27682 65.6717 7.51914 66.2423 7.51914C66.813 7.51914 67.3124 7.27682 67.6619 6.76369L68.7676 7.05589C68.4394 8.08215 67.5049 8.7307 66.2637 8.7307C64.8513 8.7307 63.5031 7.89686 63.5031 5.6234C63.5031 3.34994 64.887 2.48047 66.2281 2.48047C67.5692 2.48047 68.9388 3.31431 68.9388 5.60915V6.01537H64.8299ZM67.5905 4.98911C67.4122 3.89158 66.7702 3.67778 66.2637 3.67778C65.6716 3.67778 65.0582 3.99136 64.8442 4.98911H67.5905Z" fill="white"/>
<path d="M74.5174 7.04857C74.2178 8.11046 73.4117 8.72337 72.2418 8.72337C70.8651 8.72337 69.5168 7.88953 69.5168 5.60182C69.5168 3.31411 70.8794 2.47314 72.2561 2.47314C73.3618 2.47314 74.2321 3.01478 74.5317 4.09806C74.1322 4.19784 73.8112 4.30474 73.426 4.39739C73.1264 3.91276 72.7269 3.67758 72.2062 3.67758C71.5927 3.67758 70.808 4.01254 70.808 5.60182C70.808 7.1911 71.5784 7.51894 72.1919 7.51894C72.7198 7.51894 73.1193 7.2695 73.4189 6.76349L74.5174 7.05569V7.04857Z" fill="white"/>
<path d="M74.9669 8.65258V7.48378H76.1939V3.71369H74.9669V2.54489H77.4494V7.48378H78.6764V8.65258H74.9669ZM76.8074 1.77519C76.3223 1.77519 75.9656 1.39034 75.9656 0.934225C75.9656 0.478108 76.3294 0.0932617 76.8074 0.0932617C77.2853 0.0932617 77.6634 0.478108 77.6634 0.934225C77.6634 1.39034 77.2782 1.77519 76.8074 1.77519Z" fill="white"/>
<path d="M82.7632 8.6523L82.7418 8.20331C82.2496 8.55252 81.7146 8.72357 81.1653 8.72357C80.0097 8.72357 79.0466 8.16055 79.0466 6.92048C79.0466 5.68041 79.9241 5.10314 81.2295 5.01762L82.699 4.91784V4.73967C82.699 4.04124 82.3138 3.67778 81.6147 3.67778C81.1225 3.67778 80.6874 3.85595 80.3592 4.23367L79.3248 3.93434C79.6031 3.07912 80.5304 2.48047 81.6718 2.48047C83.0914 2.48047 83.9759 3.40696 83.9759 4.62564V8.65943H82.7632V8.6523ZM82.6919 5.95123L81.2438 6.05101C80.6017 6.1009 80.3307 6.37884 80.3307 6.87059C80.3307 7.18417 80.452 7.51914 81.2723 7.51914C81.7146 7.51914 82.2353 7.41936 82.6919 6.92761V5.95123Z" fill="white"/>
<path d="M54.1859 22.0006C52.6665 21.3877 51.5037 20.4825 51.5037 18.5583C51.5037 16.0425 53.4583 14.5459 55.898 14.5459C58.3377 14.5459 60.0354 16.1209 60.0711 18.7151L58.1379 19.1641C57.9382 17.3752 57.1107 16.5699 55.8552 16.5699C54.7495 16.5699 53.6866 17.1828 53.6866 18.3588C53.6866 19.5347 54.7495 19.9694 55.5984 20.3044L57.5886 21.0883C59.3435 21.7796 60.5419 22.7204 60.5419 24.7301C60.5419 27.3243 58.4946 28.7853 55.9122 28.7853C53.1373 28.7853 51.1043 27.0962 51.0829 24.2598L53.016 23.8678C53.2514 25.678 54.136 26.7613 55.8766 26.7613C57.075 26.7613 58.3376 26.2481 58.3376 24.8727C58.3376 23.5898 57.2533 23.2192 56.0906 22.7631L54.1788 21.9934H54.1859V22.0006Z" fill="white"/>
<path d="M72.1059 24.3593C72.3413 26.426 73.4826 26.818 74.41 26.818C75.3374 26.818 76.1648 26.426 76.7355 25.5779L78.5475 26.0483C78.0125 27.7231 76.4787 28.785 74.4528 28.785C72.1487 28.785 69.9445 27.4309 69.9445 23.7107C69.9445 19.9905 72.2129 18.5723 74.3958 18.5723C76.5786 18.5723 78.8256 19.9335 78.8256 23.6893V24.3593H72.1059ZM76.6143 22.6916C76.3218 20.9027 75.2732 20.5464 74.4457 20.5464C73.4827 20.5464 72.4768 21.0595 72.1202 22.6916H76.6143Z" fill="white"/>
<path d="M86.2942 28.6716V26.7617H88.3058V20.6041H86.2942V18.6941H90.3532V26.7617H92.3648V28.6716H86.2942ZM89.3045 17.4184C88.5341 17.4184 87.9277 16.7698 87.9277 15.9645C87.9277 15.1592 88.5412 14.4893 89.3045 14.4893C90.0678 14.4893 90.7241 15.1378 90.7241 15.9645C90.7241 16.7912 90.0963 17.4184 89.3045 17.4184Z" fill="white"/>
<path d="M99.4195 27.8093C98.4921 28.6146 97.7217 28.7928 96.9941 28.7928C95.0039 28.7928 92.6783 27.4387 92.6783 23.6758C92.6783 19.9128 95.0038 18.5801 96.9727 18.5801C97.8572 18.5801 98.5849 18.858 99.4766 19.6206L99.5336 18.6941H101.502V28.6717C101.502 31.052 99.8118 32.8266 97.151 32.8266C95.1037 32.8266 93.5843 31.8003 93.0921 30.0899L94.904 29.6195C95.4747 30.4676 96.3022 30.8596 97.2295 30.8596C98.6277 30.8596 99.4195 29.9973 99.4195 28.6717V27.8093ZM99.4195 23.0058C99.1627 21.274 98.1569 20.5471 97.0369 20.5471C96.0739 20.5471 94.8113 21.0958 94.8113 23.6971C94.8113 26.2984 96.0525 26.8258 97.0797 26.8258C98.0213 26.8258 99.1698 26.3554 99.4266 24.759V23.0058H99.4195Z" fill="white"/>
<path d="M104.956 24.3593C105.191 26.426 106.333 26.818 107.26 26.818C108.187 26.818 109.015 26.426 109.586 25.5779L111.398 26.0483C110.863 27.7231 109.329 28.785 107.303 28.785C104.999 28.785 102.795 27.4309 102.795 23.7107C102.795 19.9905 105.063 18.5723 107.246 18.5723C109.429 18.5723 111.676 19.9335 111.676 23.6893V24.3593H104.956ZM109.472 22.6916C109.179 20.9027 108.13 20.5464 107.303 20.5464C106.34 20.5464 105.334 21.0595 104.977 22.6916H109.472Z" fill="white"/>
<path d="M85.4307 18.7155C85.0598 18.6157 84.6817 18.5801 84.4677 18.5801C83.683 18.5801 82.8341 19.0932 82.0851 19.8415L82.0066 18.7012H80.0592V28.6788H82.1493V22.9132C82.4275 21.3168 83.3905 20.7894 84.2751 20.7894C84.5747 20.7894 84.9242 20.8464 85.4379 20.9462V18.7226H85.4307V18.7155Z" fill="white"/>
<path d="M64.3374 28.6714L60.7921 18.6938H62.9535L65.3575 25.8064L67.7687 18.6938H69.9301L66.3848 28.6714H64.3374Z" fill="white"/>
<path d="M20.031 0.0791016H14.3099V11.5177H0.00012207V17.2334H14.3099V28.6719H20.031V17.2334H45.7972V11.5177H20.031V0.0791016Z" fill="#FFD600"/>
<path d="M14.3099 0.0791016H0.00012207V11.5177H14.3099V0.0791016Z" fill="#005694"/>
<path d="M45.7902 0.0791016H20.0311V11.5177H45.7902V0.0791016Z" fill="#005694"/>
<path d="M14.3098 17.2334H0V28.672H14.3098V17.2334Z" fill="#005694"/>
<path d="M45.7902 17.2334H20.0311V28.672H45.7902V17.2334Z" fill="#005694"/>
</svg>
