<svg width="142" height="25" viewBox="0 0 142 25" fill="none" xmlns="http://www.w3.org/2000/svg">
<path d="M2.42578 18.7229C2.75354 18.6779 3.909 18.6839 4.17188 18.8011L4.16797 18.804C4.28716 18.859 5.95171 20.5068 6.05566 20.6624C6.3251 21.0684 6.36658 22.32 6.22754 22.7874C6.08503 23.2675 4.44996 24.3735 4.17188 24.9641H2.08594L0 22.885V20.8059C0.722965 20.41 1.67959 18.8207 2.42578 18.7229ZM7.6748 21.5384C7.48695 20.9059 8.38523 19.5088 9.11816 20.1087C9.6923 20.5464 12.0091 23.2603 12.4561 23.3059C12.657 23.325 12.7285 23.2575 12.874 23.1702C13.7433 22.6578 14.9238 20.7902 15.8613 20.1927C16.7921 19.5988 17.4896 20.7918 17.3145 21.636L14.0488 24.9602H10.9902C10.5747 24.1622 7.85357 22.1482 7.6748 21.5384ZM20.8604 18.804C21.204 18.6457 22.6861 18.6706 23.0205 18.8626L23.0273 18.8597C23.1445 18.9319 24.8333 20.6177 24.9014 20.7308C25.0927 21.0618 25.1154 22.5337 24.96 22.8811C24.717 23.4062 23.2604 24.3147 22.9463 24.9602H20.8604C20.5457 24.318 19.0854 23.4095 18.8457 22.8811C18.726 22.6176 18.7129 21.1922 18.8008 20.9065C18.8425 20.7668 20.7269 18.8666 20.8604 18.804ZM3.02246 19.9886C2.84103 20.0369 1.26443 21.6587 1.25781 21.8401C1.24546 22.2491 2.71384 23.7207 3.13574 23.7112L3.13965 23.7083C3.36165 23.6997 5.01586 22.0684 5.01758 21.8401C4.77399 21.439 3.38982 19.895 3.02246 19.9886ZM22.1865 20.1048C22.0476 20.0141 21.985 19.9399 21.791 19.9915C21.617 20.0361 20.0206 21.6683 20.0205 21.8431C20.2253 22.2258 21.6177 23.6997 21.8975 23.7112C22.3059 23.7205 23.7845 22.2624 23.7754 21.8401C23.7688 21.668 22.4103 20.2538 22.1865 20.1048ZM100.614 20.5657C100.741 20.5638 100.867 20.5883 100.984 20.637C101.083 20.6769 101.169 20.7442 101.23 20.8313C101.29 20.9179 101.322 21.021 101.321 21.1263C101.321 21.2055 101.304 21.284 101.272 21.3567C101.243 21.4275 101.196 21.4902 101.137 21.5384C101.075 21.5856 101.004 21.6192 100.929 21.636C101.013 21.6477 101.093 21.6825 101.159 21.7366L101.162 21.7395C101.228 21.7924 101.28 21.8606 101.314 21.9378C101.35 22.0217 101.368 22.1122 101.367 22.2034C101.371 22.3244 101.337 22.4437 101.27 22.5442C101.2 22.6436 101.103 22.7211 100.991 22.7679C100.871 22.8195 100.728 22.846 100.562 22.846C100.404 22.846 100.263 22.8234 100.144 22.7718C100.024 22.7223 99.9235 22.648 99.8428 22.5501L100.079 22.2591C100.133 22.3227 100.199 22.3753 100.273 22.4143C100.361 22.4526 100.457 22.4721 100.553 22.47C100.679 22.47 100.773 22.4434 100.841 22.3919C100.906 22.3371 100.938 22.2579 100.938 22.1546C100.938 22.0442 100.903 21.9569 100.825 21.8987C100.747 21.8405 100.634 21.8079 100.479 21.8079H100.391V21.4934H100.487C100.61 21.4934 100.708 21.4641 100.779 21.4056C100.813 21.3798 100.84 21.3463 100.858 21.3079C100.876 21.2695 100.885 21.2272 100.884 21.1849C100.885 21.135 100.873 21.0854 100.848 21.0423C100.823 21.0036 100.786 20.9747 100.737 20.9554C100.689 20.9355 100.634 20.9251 100.572 20.9251C100.483 20.9238 100.395 20.9468 100.316 20.9905C100.24 21.0349 100.176 21.0984 100.131 21.1751L99.8721 20.8841C99.9194 20.8172 99.9797 20.7604 100.05 20.7181C100.125 20.6686 100.212 20.6303 100.31 20.6038C100.407 20.5782 100.508 20.5657 100.614 20.5657ZM110.06 0.0110249V22.846H109.781V0.0110249H110.06ZM116.221 20.1634C116.325 20.1623 116.428 20.1763 116.528 20.2054C116.624 20.2356 116.716 20.2781 116.802 20.3313C116.887 20.3877 116.956 20.4651 117.003 20.5559C117.052 20.6559 117.08 20.765 117.084 20.8763H116.785C116.78 20.8144 116.762 20.7544 116.733 20.6995C116.705 20.6445 116.665 20.5953 116.617 20.5559C116.52 20.4739 116.384 20.4324 116.208 20.4319C116.044 20.4328 115.909 20.4711 115.806 20.5462C115.702 20.6234 115.65 20.7307 115.65 20.8675C115.651 21.058 115.774 21.1887 116.011 21.2503L116.451 21.3665V21.3636C116.662 21.4218 116.825 21.5037 116.938 21.6097C117.051 21.7165 117.107 21.8629 117.106 22.0481C117.106 22.2881 117.018 22.4726 116.844 22.6018C116.669 22.7315 116.445 22.7961 116.173 22.7962C116.02 22.7962 115.88 22.7712 115.76 22.7288C115.64 22.6865 115.55 22.6254 115.481 22.554C115.413 22.4794 115.362 22.4008 115.329 22.3196C115.297 22.2389 115.277 22.154 115.277 22.0667H115.575C115.582 22.1318 115.602 22.1953 115.635 22.2522C115.667 22.3092 115.711 22.3585 115.764 22.3977C115.874 22.4846 116.023 22.528 116.214 22.5276C116.392 22.5267 116.536 22.4857 116.646 22.4046C116.755 22.3198 116.809 22.2057 116.809 22.0667C116.809 21.9595 116.776 21.8751 116.708 21.8069C116.64 21.742 116.532 21.6874 116.39 21.6516L115.938 21.5315C115.77 21.4896 115.631 21.4151 115.521 21.3079C115.41 21.2007 115.358 21.0587 115.358 20.8802C115.356 20.7392 115.4 20.6008 115.484 20.4876C115.566 20.3746 115.673 20.2922 115.803 20.2405C115.932 20.189 116.069 20.1634 116.221 20.1634ZM117.987 20.2249V21.8694C117.987 22.0698 118.046 22.2303 118.162 22.3499C118.279 22.4695 118.445 22.5286 118.639 22.5286C118.833 22.5285 118.995 22.4696 119.112 22.3499C119.232 22.2327 119.291 22.0674 119.291 21.8694H119.287V20.2249H119.583V21.8694C119.583 22.1449 119.499 22.3691 119.323 22.5413C119.149 22.7121 118.921 22.7966 118.639 22.7962C118.454 22.7962 118.288 22.7613 118.146 22.6839C118.002 22.6058 117.89 22.4953 117.812 22.3528C117.734 22.2103 117.694 22.0483 117.694 21.8665V20.2249H117.987ZM121.051 20.1634C121.155 20.1623 121.259 20.1762 121.359 20.2054C121.455 20.2356 121.547 20.2781 121.632 20.3313C121.717 20.3878 121.786 20.4652 121.833 20.5559C121.882 20.6558 121.91 20.765 121.914 20.8763H121.615C121.61 20.8143 121.592 20.7535 121.563 20.6985C121.534 20.6436 121.494 20.5952 121.446 20.5559C121.349 20.4739 121.213 20.4324 121.038 20.4319C120.873 20.4328 120.739 20.4711 120.636 20.5462C120.532 20.6234 120.48 20.7308 120.48 20.8675C120.481 21.058 120.604 21.1887 120.84 21.2503L121.281 21.3665V21.3636C121.492 21.4218 121.654 21.5037 121.768 21.6097C121.881 21.7165 121.937 21.8628 121.937 22.0481C121.936 22.288 121.849 22.4726 121.674 22.6018C121.499 22.7316 121.275 22.7962 121.002 22.7962C120.85 22.7961 120.71 22.771 120.591 22.7288C120.471 22.6864 120.38 22.6254 120.312 22.554C120.243 22.4794 120.192 22.4008 120.159 22.3196C120.127 22.2389 120.107 22.154 120.107 22.0667H120.405C120.412 22.1318 120.433 22.1953 120.465 22.2522C120.497 22.3092 120.541 22.3585 120.594 22.3977C120.704 22.4847 120.854 22.5281 121.045 22.5276C121.223 22.5267 121.366 22.4857 121.476 22.4046C121.586 22.3198 121.638 22.2057 121.638 22.0667C121.638 21.9595 121.606 21.8751 121.538 21.8069C121.47 21.7421 121.362 21.6874 121.22 21.6516L120.77 21.5315C120.601 21.4896 120.461 21.4152 120.351 21.3079C120.24 21.2007 120.189 21.0586 120.188 20.8802C120.186 20.7392 120.23 20.6008 120.314 20.4876C120.396 20.3746 120.502 20.2922 120.633 20.2405C120.762 20.189 120.899 20.1634 121.051 20.1634ZM90.9873 20.6204V21.9505H91.2607V22.3235H90.9873V22.7874H90.5723V22.3235H89.667V21.9534L90.7061 20.6204H90.9873ZM134.705 20.2278C134.913 20.2279 135.081 20.2807 135.207 20.3938C135.334 20.5029 135.398 20.6542 135.398 20.8479C135.398 20.9936 135.364 21.1169 135.292 21.2083C135.216 21.3024 135.113 21.3713 134.997 21.4056V21.4153C135.079 21.4287 135.159 21.4543 135.233 21.4905C135.299 21.5226 135.358 21.5676 135.405 21.6233L135.402 21.6263C135.449 21.681 135.484 21.7449 135.506 21.8138C135.532 21.8852 135.542 21.9635 135.542 22.0442C135.541 22.2688 135.461 22.4431 135.302 22.5667C135.142 22.6872 134.929 22.7479 134.662 22.7483H133.771V20.2278H134.705ZM124.122 20.2249V20.4876H123.351V22.7454H123.059V20.4876H122.283V20.2249H124.122ZM126.101 20.2249V20.4934H124.901V21.3216H126.033V21.5911H124.901V22.4798H126.101V22.7454H124.603V20.2249H126.101ZM127.049 20.2249L128.337 22.2395H128.353V20.2249H128.642V22.7454H128.353L127.059 20.7278H127.049V22.7454H126.75V20.2249H127.049ZM130.966 20.2249V20.4876H130.193V22.7454H129.898V20.4876H129.123V20.2249H130.966ZM132.377 20.2249L133.282 22.7454H132.961L132.702 21.97H131.748L131.488 22.7454H131.187L132.096 20.2249H132.377ZM136.45 20.2249V22.4798H137.624V22.7454H136.152V20.2249H136.45ZM139.599 20.2249V20.4934H138.398V21.3216H139.53V21.5911H138.398V22.4798H139.599V22.7454H138.101V20.2249H139.599ZM65.2725 20.6985C65.36 20.6978 65.4475 20.7085 65.5322 20.7308C65.611 20.7519 65.6881 20.7788 65.7627 20.8118C65.8309 20.8408 65.8958 20.8774 65.957 20.9192L65.7881 21.2278C65.774 21.2137 65.7503 21.1958 65.7168 21.1751C65.6837 21.1553 65.6426 21.134 65.5938 21.1106C65.4895 21.0609 65.3753 21.0338 65.2598 21.0325C65.1784 21.028 65.0972 21.0469 65.0264 21.0872C64.9743 21.1234 64.9482 21.1783 64.9482 21.2503C64.9479 21.3051 64.965 21.3472 65 21.3763C65.0445 21.4109 65.0955 21.4369 65.1494 21.4534C65.2176 21.4733 65.3021 21.4998 65.3994 21.5257C65.5156 21.5508 65.6287 21.5886 65.7363 21.639L65.7334 21.6419V21.6487C65.82 21.6867 65.8948 21.7469 65.9502 21.8235C66.0031 21.9102 66.029 22.0111 66.0244 22.1126C66.027 22.2035 66.0076 22.294 65.9668 22.3753C65.9282 22.4461 65.8735 22.5073 65.8076 22.554C65.7397 22.5994 65.6616 22.6324 65.5742 22.6536C65.4869 22.6767 65.3889 22.6868 65.2949 22.6868C65.201 22.6868 65.1011 22.6744 65.0039 22.6546C64.9066 22.6347 64.8153 22.6057 64.7246 22.5667C64.634 22.5277 64.5527 22.4825 64.4746 22.4309L64.6436 22.1028C64.6628 22.1194 64.6921 22.1382 64.7344 22.1673C64.7767 22.1964 64.8281 22.2202 64.8896 22.2493C64.9538 22.277 65.0202 22.2994 65.0879 22.3167C65.1586 22.3358 65.2315 22.3453 65.3047 22.346C65.411 22.346 65.4903 22.3291 65.542 22.2942C65.5935 22.2594 65.619 22.2095 65.6191 22.1448C65.6202 22.1185 65.6152 22.0918 65.6045 22.0677C65.5938 22.0436 65.5778 22.022 65.5576 22.0052C65.5153 21.9695 65.4568 21.9447 65.3828 21.9183C65.308 21.8925 65.2171 21.8692 65.1133 21.8401C64.9876 21.8077 64.8834 21.7653 64.8027 21.7229C64.7277 21.6865 64.664 21.6305 64.6182 21.5608C64.5758 21.4959 64.5557 21.4121 64.5557 21.3147C64.5503 21.195 64.5839 21.0765 64.6504 20.9768C64.7142 20.8837 64.8043 20.8116 64.9092 20.7698C65.019 20.7222 65.1401 20.6985 65.2725 20.6985ZM35.1123 20.6946C35.2783 20.6907 35.4425 20.7304 35.5889 20.8089C35.7213 20.8837 35.8185 20.988 35.8867 21.1204L35.6055 21.3313C35.5574 21.2339 35.4878 21.1593 35.3975 21.1077C35.3065 21.0556 35.2088 21.0296 35.1055 21.0296C35.027 21.0298 34.9497 21.0476 34.8789 21.0813C34.8097 21.1154 34.7486 21.1639 34.7002 21.2239C34.6512 21.2862 34.6134 21.3567 34.5869 21.4349C34.5332 21.6018 34.534 21.7813 34.5898 21.9475C34.6152 22.0226 34.6557 22.0921 34.708 22.1516C34.7602 22.2111 34.8235 22.2603 34.8945 22.2952C34.9767 22.3328 35.067 22.3496 35.1572 22.345C35.2476 22.3404 35.336 22.3137 35.4141 22.2679C35.4947 22.2229 35.5701 22.1581 35.6406 22.0735V21.9407H35.2451V21.6585H35.9551V22.6673H35.6406V22.4466C35.4827 22.605 35.3001 22.6847 35.0928 22.6839C34.963 22.6839 34.8424 22.6613 34.7285 22.6097C34.6154 22.5574 34.518 22.4888 34.4307 22.3948C34.3451 22.3013 34.2797 22.194 34.2334 22.0735C34.1884 21.9537 34.1611 21.8204 34.1611 21.678C34.1616 21.5484 34.1866 21.42 34.2334 21.2991C34.2813 21.1829 34.3493 21.076 34.4346 20.9837C34.5196 20.893 34.6217 20.8201 34.7354 20.7698C34.8528 20.7208 34.9786 20.6955 35.1123 20.6946ZM37.6855 20.6927C37.8193 20.6927 37.9515 20.7221 38.0723 20.7796C38.1853 20.8367 38.2864 20.915 38.3701 21.01H38.376C38.4575 21.1056 38.5227 21.2143 38.5684 21.3313C38.6134 21.4478 38.6367 21.5649 38.6367 21.6946C38.6371 21.8224 38.6121 21.9491 38.5645 22.0677C38.5188 22.1866 38.4511 22.2938 38.3672 22.385C38.2804 22.4796 38.1743 22.5554 38.0566 22.6067C37.9388 22.658 37.8111 22.6847 37.6826 22.6839C37.5397 22.6838 37.4068 22.6538 37.293 22.5989C37.1804 22.5473 37.0792 22.4726 36.9951 22.3753C36.911 22.2779 36.8459 22.1738 36.7969 22.054C36.7486 21.9343 36.7256 21.8201 36.7256 21.6878C36.7264 21.5591 36.7504 21.4318 36.7969 21.3118C36.8415 21.1932 36.9099 21.0845 36.998 20.9934C37.0846 20.9012 37.1881 20.8262 37.3027 20.7727C37.4199 20.7211 37.5465 20.6927 37.6855 20.6927ZM51.3633 20.6927C51.4967 20.6928 51.6285 20.7223 51.749 20.7796C51.8623 20.8366 51.964 20.915 52.0479 21.01H52.0537C52.134 21.1063 52.1986 21.2149 52.2451 21.3313C52.2908 21.4479 52.3135 21.5648 52.3135 21.6946C52.3134 21.8242 52.2911 21.9506 52.2422 22.0677C52.1972 22.185 52.1301 22.2926 52.0449 22.385C51.958 22.4797 51.8522 22.5554 51.7344 22.6067C51.6165 22.658 51.4889 22.6848 51.3604 22.6839C51.218 22.6839 51.0846 22.6539 50.9707 22.5989C50.8569 22.5468 50.7575 22.4723 50.6729 22.3753C50.5882 22.278 50.5229 22.1738 50.4746 22.054C50.4257 21.9343 50.4033 21.8201 50.4033 21.6878C50.4041 21.5592 50.4282 21.4317 50.4746 21.3118C50.5193 21.1933 50.5877 21.0845 50.6758 20.9934C50.7623 20.9012 50.8659 20.8262 50.9805 20.7727C51.097 20.7211 51.2243 20.6927 51.3633 20.6927ZM74.748 20.6927C74.8806 20.6938 75.0117 20.7236 75.1318 20.7796C75.2452 20.8366 75.3468 20.9149 75.4307 21.01H75.4365C75.5178 21.1057 75.5825 21.2144 75.6279 21.3313C75.6736 21.4479 75.6963 21.5649 75.6963 21.6946C75.6967 21.8224 75.6726 21.9491 75.625 22.0677C75.58 22.1867 75.5116 22.2938 75.4277 22.385C75.3411 22.48 75.235 22.5564 75.1172 22.6077C74.9992 22.6591 74.8709 22.6852 74.7422 22.6839C74.6 22.6838 74.4673 22.6538 74.3535 22.5989C74.2396 22.5468 74.1404 22.4724 74.0557 22.3753C73.9709 22.2779 73.9058 22.1738 73.8574 22.054C73.8085 21.9342 73.7861 21.8201 73.7861 21.6878C73.7853 21.559 73.8095 21.4313 73.8574 21.3118C73.9021 21.1932 73.9705 21.0845 74.0586 20.9934C74.1451 20.9013 74.2487 20.8262 74.3633 20.7727C74.4843 20.7189 74.6156 20.6916 74.748 20.6927ZM40.5264 20.7112C40.6107 20.7094 40.6936 20.7352 40.7627 20.7835C40.8294 20.832 40.8829 20.8964 40.918 20.971C40.9534 21.0446 40.9717 21.1256 40.9707 21.2073C40.9708 21.3008 40.9453 21.3931 40.8984 21.4739C40.8509 21.5588 40.7774 21.6258 40.6885 21.6653L40.6914 21.6683H40.6973C40.8027 21.6975 40.8966 21.7597 40.9639 21.846C41.0316 21.9389 41.0662 22.0524 41.0615 22.1673C41.0625 22.266 41.0313 22.3626 40.9736 22.4427C40.9155 22.5215 40.8353 22.5821 40.7432 22.6155C40.6427 22.6545 40.5388 22.6731 40.4258 22.6731H39.4785V20.7112H40.5264ZM46.3389 20.7112C46.4239 20.7117 46.5077 20.7312 46.585 20.7669C46.6958 20.8224 46.7897 20.9069 46.8555 21.012C46.9212 21.1172 46.9567 21.2395 46.958 21.3636C46.9584 21.4442 46.9444 21.5244 46.916 21.5999C46.887 21.6726 46.8453 21.74 46.793 21.7981L46.7998 21.805C46.7465 21.861 46.6828 21.9061 46.6123 21.9378L47.0586 22.6731H46.6377L46.2354 22.0149H45.8525V22.6731H45.4697V20.7112H46.3389ZM69.874 20.7083L70.5938 22.6712H70.2012L70.0391 22.1839H69.3193L69.1572 22.6712H68.7646L69.4883 20.7083H69.874ZM72.0791 20.7093C72.2934 20.7098 72.4718 20.7534 72.6143 20.8411L72.6182 20.845C72.7574 20.9285 72.8691 21.0517 72.9385 21.1985C73.0099 21.3476 73.0459 21.5117 73.0459 21.6907C73.0459 21.8885 73.0064 22.0619 72.9287 22.2102C72.8506 22.3532 72.7332 22.471 72.5908 22.5501C72.4453 22.6307 72.2768 22.6711 72.0791 22.6712H71.3652V20.7093H72.0791ZM42.293 20.7083V22.6702H41.9102V20.7083H42.293ZM55.0898 20.7083C55.3037 20.7088 55.4816 20.7533 55.624 20.8411L55.6279 20.844C55.7673 20.9278 55.8793 21.0508 55.9492 21.1975C56.0207 21.3471 56.0556 21.5116 56.0557 21.6907C56.0557 21.888 56.0171 22.0609 55.9395 22.2093C55.858 22.3523 55.7472 22.4686 55.6016 22.5501C55.4554 22.6308 55.2876 22.6701 55.0898 22.6702H54.376V20.7083H55.0898ZM44.5879 20.7083V21.0423H43.6299V21.513H44.4551V21.8235H43.6309V22.3362H44.6133V22.6673H43.251V20.7083H44.5879ZM48.1582 20.7083L49.1709 22.0022V20.7122H49.5498V22.6673H49.2354L48.2363 21.4085V22.6673H47.8535V20.7083H48.1582ZM58.2393 20.7083V21.0423H57.2822V21.513H58.1064V21.8235H57.2822V22.3362H58.2646V22.6673H56.9023V20.7083H58.2393ZM59.499 20.7083V22.3362H60.498V22.6673H59.1162V20.7083H59.499ZM63.75 20.7083V21.0423H62.7969V21.513H63.6201V21.8235H62.7969L62.7959 22.3362H63.7764V22.6673H62.4131V20.7083H63.75ZM68.3389 20.7083V21.0423H67.7129V22.6673H67.333V21.0423H66.7041V20.7083H68.3389ZM79.2842 20.1409V22.6028H79.1445V20.1409H79.2842ZM134.072 21.5745V22.4729H134.52C134.609 22.4729 134.689 22.4698 134.757 22.4632C134.824 22.4601 134.89 22.4477 134.954 22.427C135.01 22.4141 135.064 22.3905 135.11 22.3567C135.152 22.324 135.185 22.2811 135.207 22.2327V22.2268C135.234 22.1712 135.243 22.1089 135.243 22.0374C135.243 21.8893 135.195 21.7688 135.098 21.6907C135 21.613 134.867 21.5745 134.701 21.5745H134.072ZM86.2881 20.5686C86.4334 20.5662 86.5764 20.6081 86.6973 20.6888H86.6943C86.8163 20.7727 86.9144 20.8869 86.9795 21.0198C87.0503 21.1554 87.0859 21.3178 87.0859 21.4964C87.0859 21.6745 87.0477 21.8342 86.9795 21.9739C86.9192 22.107 86.8214 22.2194 86.6982 22.2981C86.5749 22.3769 86.4315 22.4186 86.2852 22.4173C86.1395 22.4173 85.9997 22.3791 85.8799 22.3011C85.7567 22.2236 85.6623 22.1129 85.5908 21.9739C85.5193 21.8375 85.4844 21.6745 85.4844 21.4964C85.4844 21.3178 85.5198 21.1587 85.5908 21.0198C85.6568 20.8864 85.7567 20.7723 85.8799 20.6888C86.0029 20.6081 86.136 20.5687 86.2881 20.5686ZM98.4961 20.5686C98.6412 20.5664 98.7836 20.6082 98.9043 20.6888H98.9014C99.0232 20.7727 99.1215 20.8869 99.1865 21.0198C99.2579 21.1561 99.2939 21.3177 99.2939 21.4964C99.2939 21.6751 99.2547 21.8339 99.1865 21.9729C99.119 22.1126 99.0219 22.2236 98.9014 22.3011C98.7815 22.3792 98.6385 22.4173 98.4922 22.4173C98.3466 22.4172 98.2067 22.3791 98.0869 22.3011C97.9639 22.2237 97.8703 22.1128 97.7988 21.9739C97.7273 21.8375 97.6914 21.6745 97.6914 21.4964C97.6915 21.3178 97.7274 21.1587 97.7988 21.0198C97.8648 20.8865 97.9638 20.7722 98.0869 20.6888C98.2101 20.608 98.3438 20.5686 98.4961 20.5686ZM102.744 20.5686C102.889 20.5664 103.032 20.6082 103.152 20.6888H103.149C103.271 20.7727 103.37 20.8868 103.435 21.0198C103.506 21.1562 103.542 21.3177 103.542 21.4964C103.542 21.6751 103.503 21.8339 103.435 21.9729C103.366 22.1126 103.269 22.2229 103.149 22.3011C103.03 22.3791 102.887 22.4172 102.741 22.4173C102.596 22.4173 102.456 22.379 102.336 22.3011C102.214 22.223 102.117 22.1137 102.047 21.9739C101.975 21.8375 101.939 21.6745 101.939 21.4964C101.94 21.3178 101.975 21.1587 102.047 21.0198C102.113 20.8864 102.213 20.7723 102.336 20.6888C102.459 20.6081 102.592 20.5686 102.744 20.5686ZM84.1904 20.5657C84.3139 20.5623 84.4371 20.5858 84.5508 20.6341C84.6422 20.6749 84.7212 20.7403 84.7783 20.8225C84.8308 20.9045 84.8576 21.0006 84.8555 21.0979C84.8587 21.1658 84.8458 21.2335 84.8174 21.2952C84.7882 21.3502 84.752 21.4022 84.7129 21.4446C84.6739 21.4869 84.6257 21.5238 84.5801 21.5589C84.5345 21.5938 84.486 21.6197 84.4404 21.6487C84.3788 21.6845 84.3173 21.7143 84.2656 21.7434C84.214 21.7726 84.1679 21.7983 84.1289 21.8274C84.09 21.8565 84.0577 21.8856 84.0254 21.9153L84.0195 21.9124C83.9931 21.9415 83.9639 21.977 83.9414 22.012H84.8848V22.389H83.3896C83.3896 22.295 83.3999 22.2102 83.4131 22.136C83.429 22.0546 83.4545 21.9861 83.4902 21.9212C83.53 21.853 83.5803 21.7915 83.6396 21.7395C83.7103 21.6727 83.7898 21.6157 83.876 21.5706C83.9632 21.5257 84.0348 21.4839 84.0996 21.4515C84.1563 21.4228 84.212 21.3907 84.2656 21.3567C84.3039 21.3326 84.3382 21.3025 84.3662 21.2669C84.3884 21.2369 84.3997 21.1997 84.3984 21.1624C84.3992 21.1213 84.388 21.081 84.3662 21.0462C84.3422 21.0111 84.31 20.9822 84.2725 20.9622C84.2336 20.9397 84.1811 20.9286 84.1162 20.929C84.0278 20.9285 83.941 20.9531 83.8662 21.0003C83.8314 21.0219 83.7984 21.0473 83.7666 21.0755C83.7342 21.1046 83.7078 21.1304 83.6787 21.1595L83.4189 20.8606C83.4531 20.8253 83.4911 20.7938 83.5322 20.7669C83.5875 20.7305 83.6462 20.6983 83.707 20.6722C83.7798 20.6421 83.8554 20.6173 83.9316 20.5979C84.0161 20.5749 84.1 20.5657 84.1904 20.5657ZM88.4619 20.5657C88.5854 20.5624 88.7086 20.5858 88.8223 20.6341C88.9133 20.675 88.9909 20.7405 89.0479 20.8225C89.1007 20.9045 89.1279 21.0004 89.126 21.0979C89.129 21.166 89.1156 21.2335 89.0869 21.2952C89.0578 21.3502 89.0218 21.4022 88.9834 21.4446C88.945 21.487 88.8956 21.5231 88.8506 21.5589C88.805 21.5938 88.7565 21.6197 88.7109 21.6487C88.6494 21.6844 88.5884 21.7143 88.5361 21.7434C88.4845 21.7726 88.4394 21.7983 88.4004 21.8274C88.3643 21.855 88.329 21.8842 88.2959 21.9153L88.2891 21.9124C88.2633 21.9414 88.2343 21.9771 88.2119 22.012H89.1553V22.389H87.6602C87.6602 22.295 87.6701 22.2101 87.6826 22.136C87.6992 22.0546 87.725 21.9861 87.7607 21.9212C87.8011 21.8537 87.8518 21.7923 87.9102 21.7395C87.981 21.6727 88.0611 21.6157 88.1475 21.5706C88.2347 21.5257 88.3063 21.4838 88.3711 21.4515C88.4275 21.4228 88.4827 21.3907 88.5361 21.3567C88.5744 21.3326 88.6087 21.3025 88.6367 21.2669C88.6589 21.2369 88.6702 21.1997 88.6689 21.1624C88.6705 21.1213 88.6592 21.0806 88.6367 21.0462C88.6126 21.011 88.5796 20.9822 88.542 20.9622C88.5032 20.9397 88.4515 20.9286 88.3867 20.929C88.2984 20.9286 88.2114 20.9532 88.1367 21.0003C88.1015 21.0219 88.0678 21.0473 88.0361 21.0755C88.0039 21.1045 87.9782 21.1305 87.9492 21.1595L87.6895 20.8606C87.7235 20.8252 87.7617 20.7939 87.8027 20.7669C87.8583 20.7304 87.9174 20.6983 87.9785 20.6722C88.0512 20.6422 88.126 20.6173 88.2021 20.5979C88.2862 20.5748 88.3713 20.5657 88.4619 20.5657ZM96.3955 20.5657C96.5188 20.5624 96.6413 20.5859 96.7549 20.6341C96.8469 20.674 96.926 20.7396 96.9824 20.8225C97.0351 20.9044 97.0625 21.0006 97.0605 21.0979C97.0636 21.1658 97.0501 21.2335 97.0215 21.2952C96.9923 21.3502 96.9554 21.4022 96.917 21.4446C96.8786 21.4869 96.8301 21.5232 96.7852 21.5589C96.7396 21.5938 96.6911 21.6197 96.6455 21.6487C96.5839 21.6845 96.522 21.7143 96.4697 21.7434C96.4181 21.7726 96.3724 21.7983 96.334 21.8274C96.2979 21.855 96.2626 21.8842 96.2295 21.9153L96.2236 21.9124C96.1978 21.9415 96.168 21.9769 96.1455 22.012H97.0898V22.389H95.5947C95.5947 22.295 95.6046 22.2102 95.6172 22.136C95.6337 22.0546 95.6596 21.9861 95.6953 21.9212C95.7357 21.8538 95.7854 21.7922 95.8438 21.7395C95.9146 21.6726 95.9947 21.6157 96.0811 21.5706C96.1683 21.5257 96.2399 21.4839 96.3047 21.4515C96.3611 21.4228 96.4163 21.3907 96.4697 21.3567C96.508 21.3326 96.5423 21.3025 96.5703 21.2669C96.5925 21.2369 96.6038 21.1997 96.6025 21.1624C96.6041 21.1212 96.5929 21.0807 96.5703 21.0462C96.5463 21.0111 96.5141 20.9822 96.4766 20.9622C96.4377 20.9397 96.3852 20.9286 96.3203 20.929C96.2322 20.9286 96.1458 20.9533 96.0713 21.0003C96.036 21.0219 96.0025 21.0472 95.9707 21.0755C95.9383 21.1046 95.9119 21.1303 95.8828 21.1595L95.623 20.8606C95.6571 20.8253 95.6954 20.7939 95.7363 20.7669C95.7919 20.7304 95.851 20.6983 95.9121 20.6722C95.9848 20.6422 96.0595 20.6173 96.1357 20.5979C96.2198 20.5748 96.3048 20.5657 96.3955 20.5657ZM37.666 21.0393C37.5831 21.0386 37.5011 21.0573 37.4268 21.094C37.3574 21.1307 37.2966 21.1819 37.248 21.2434C37.1497 21.3716 37.0979 21.5292 37.1016 21.6907C37.1017 21.7746 37.1154 21.8581 37.1416 21.9378C37.1685 22.0132 37.2068 22.0847 37.2549 22.1487C37.3036 22.2126 37.3669 22.2638 37.4395 22.2981C37.5123 22.3326 37.5924 22.3489 37.6729 22.346C37.7582 22.3476 37.8425 22.3284 37.9189 22.2903C37.9878 22.2519 38.049 22.2009 38.0977 22.139C38.1459 22.0783 38.1797 22.0048 38.2061 21.928H38.2012C38.2263 21.8477 38.2382 21.7684 38.2373 21.6907C38.2373 21.6065 38.2247 21.5252 38.1982 21.4475C38.1718 21.3695 38.1339 21.2992 38.085 21.2366C38.037 21.1756 37.9756 21.126 37.9062 21.0911C37.8381 21.0554 37.7533 21.0393 37.666 21.0393ZM39.8545 21.8274V22.346H40.4219C40.4663 22.3473 40.5104 22.3361 40.5488 22.3138C40.5871 22.2914 40.6189 22.2592 40.6396 22.22V22.2161C40.6619 22.178 40.6729 22.1342 40.6719 22.0901C40.6718 22.0461 40.6612 22.0026 40.6416 21.9632C40.622 21.9238 40.5937 21.8891 40.5586 21.8626C40.525 21.8373 40.4834 21.8252 40.4414 21.8274H39.8545ZM51.3467 21.0393C51.2638 21.0386 51.1818 21.0573 51.1074 21.094C51.0381 21.1307 50.9773 21.1819 50.9287 21.2434C50.8306 21.3717 50.7794 21.5293 50.7832 21.6907C50.7831 21.7746 50.7963 21.858 50.8223 21.9378C50.8492 22.0132 50.8865 22.0847 50.9346 22.1487C50.9834 22.2128 51.0474 22.2637 51.1201 22.2981C51.1929 22.3326 51.273 22.3489 51.3535 22.346C51.4391 22.3479 51.5239 22.3293 51.6006 22.2913C51.7399 22.212 51.8425 22.0817 51.8877 21.928H51.8828C51.9086 21.8472 51.918 21.7688 51.918 21.6907C51.918 21.6065 51.9054 21.5252 51.8789 21.4475C51.8529 21.3695 51.8146 21.2992 51.7656 21.2366C51.7175 21.1756 51.6564 21.1259 51.5869 21.0911C51.5188 21.0554 51.4347 21.0393 51.3467 21.0393ZM74.7266 21.0393C74.6433 21.0385 74.5609 21.0571 74.4863 21.094C74.4167 21.1299 74.3562 21.1812 74.3086 21.2434C74.2107 21.3718 74.159 21.5293 74.1621 21.6907C74.162 21.7746 74.1752 21.858 74.2012 21.9378C74.2283 22.0133 74.2661 22.0847 74.3145 22.1487C74.3632 22.2127 74.4273 22.2637 74.5 22.2981C74.5726 22.3325 74.6522 22.3487 74.7324 22.346C74.818 22.3479 74.9028 22.3293 74.9795 22.2913C75.1192 22.2125 75.2219 22.082 75.2666 21.928H75.2617C75.2875 21.8472 75.2979 21.7688 75.2979 21.6907C75.2978 21.6065 75.2848 21.5252 75.2588 21.4475C75.2323 21.3695 75.1939 21.2993 75.1445 21.2366C75.0966 21.1757 75.036 21.126 74.9668 21.0911C74.8986 21.0553 74.814 21.0393 74.7266 21.0393ZM54.752 21.0481V22.3401H55.083C55.1964 22.3442 55.3088 22.3127 55.4043 22.2513C55.4905 22.1937 55.5587 22.1132 55.6016 22.0188C55.6452 21.9229 55.6669 21.8214 55.667 21.6946C55.667 21.5649 55.6374 21.454 55.5957 21.3567C55.5554 21.2618 55.4862 21.1818 55.3975 21.1292C55.3101 21.0776 55.2061 21.0482 55.083 21.0481H54.752ZM71.7422 21.0481V22.3401H72.0732C72.1863 22.3442 72.2982 22.3133 72.3936 22.2522C72.4801 22.1947 72.5483 22.1137 72.5908 22.0188C72.6345 21.9233 72.6562 21.8209 72.6562 21.6946C72.6562 21.5643 72.6273 21.454 72.585 21.3567C72.5451 21.2622 72.4757 21.1829 72.3877 21.1302C72.2997 21.0779 72.1962 21.0482 72.0732 21.0481H71.7422ZM86.2881 20.9515C86.2157 20.9517 86.1454 20.9758 86.0879 21.0198C86.0271 21.0704 85.9813 21.1366 85.9551 21.2112C85.9225 21.2914 85.9053 21.3863 85.9053 21.4964C85.9054 21.5934 85.9228 21.6901 85.9551 21.7815C85.9793 21.8572 86.0254 21.9239 86.0879 21.9729C86.1454 22.0169 86.2157 22.0411 86.2881 22.0413C86.3599 22.0429 86.4304 22.019 86.4863 21.9739C86.5463 21.9223 86.5919 21.8558 86.6191 21.7815C86.6549 21.7008 86.6709 21.6036 86.6709 21.4964C86.6709 21.3898 86.6516 21.292 86.6191 21.2112C86.5927 21.1367 86.5469 21.0707 86.4863 21.0198C86.4302 20.9749 86.36 20.9506 86.2881 20.9515ZM98.4961 20.9515C98.4233 20.9514 98.3527 20.9756 98.2949 21.0198C98.2345 21.0707 98.1884 21.1368 98.1621 21.2112C98.1296 21.2914 98.1133 21.3864 98.1133 21.4964C98.1135 21.5934 98.1299 21.6901 98.1621 21.7815C98.1872 21.8566 98.2335 21.923 98.2949 21.9729C98.3527 22.0171 98.4234 22.0413 98.4961 22.0413C98.5677 22.0428 98.6375 22.0188 98.6934 21.9739C98.7534 21.9223 98.7999 21.8559 98.8271 21.7815C98.8628 21.7008 98.8789 21.6035 98.8789 21.4964C98.8789 21.3898 98.8596 21.292 98.8271 21.2112C98.8007 21.1365 98.754 21.0707 98.6934 21.0198C98.6373 20.975 98.5679 20.9507 98.4961 20.9515ZM102.744 20.9515C102.671 20.9515 102.601 20.9756 102.543 21.0198C102.482 21.0706 102.437 21.1368 102.41 21.2112C102.378 21.2914 102.361 21.3863 102.361 21.4964C102.361 21.5933 102.378 21.69 102.41 21.7815C102.435 21.8566 102.481 21.9231 102.543 21.9729C102.601 22.0171 102.671 22.0413 102.744 22.0413C102.816 22.0423 102.886 22.0186 102.942 21.9739C103.002 21.9223 103.047 21.8557 103.074 21.7815C103.11 21.7008 103.127 21.6036 103.127 21.4964C103.127 21.3898 103.107 21.292 103.074 21.2112C103.048 21.1368 103.003 21.0708 102.942 21.0198C102.884 20.9743 102.818 20.9515 102.744 20.9515ZM90.0859 21.9505H90.6211V21.2464L90.0859 21.9505ZM93.1533 20.8313C93.2609 20.8315 93.3666 20.8633 93.4561 20.9231C93.5453 20.9829 93.6151 21.068 93.6562 21.1673C93.6973 21.2666 93.7075 21.3763 93.6865 21.4817C93.6655 21.5872 93.6142 21.6849 93.5381 21.761C93.4621 21.8369 93.3651 21.8884 93.2598 21.9095C93.1543 21.9305 93.0447 21.9193 92.9453 21.8782C92.8459 21.8371 92.761 21.7674 92.7012 21.678C92.6414 21.5886 92.6085 21.4838 92.6084 21.3763C92.6086 21.2319 92.6665 21.0936 92.7686 20.9915C92.8706 20.8894 93.009 20.8316 93.1533 20.8313ZM69.4102 21.9114H69.9521L69.6826 21.1009L69.4102 21.9114ZM132.225 20.5882L131.836 21.7298H132.624L132.234 20.5882H132.225ZM45.8486 21.0393V21.6751H46.3262C46.3713 21.6743 46.4148 21.6588 46.4512 21.6321C46.4915 21.6037 46.5237 21.5652 46.543 21.5198L46.542 21.5159C46.566 21.4665 46.5775 21.4116 46.5752 21.3567C46.5764 21.3033 46.5648 21.2504 46.541 21.2024C46.5172 21.1544 46.4819 21.1128 46.4385 21.0813C46.4026 21.0534 46.358 21.0384 46.3125 21.0393H45.8486ZM39.8584 21.0325L39.8643 21.0423V21.5354H40.3701C40.41 21.5347 40.4494 21.524 40.4834 21.5032C40.5165 21.4795 40.545 21.4493 40.5674 21.4153C40.5911 21.3763 40.6032 21.331 40.6006 21.2854C40.6006 21.2306 40.5911 21.1883 40.5713 21.1526C40.5536 21.1172 40.5262 21.0865 40.4932 21.0647C40.4604 21.0434 40.4219 21.0322 40.3828 21.0325H39.8584ZM134.072 21.3118H134.469C134.682 21.3118 134.841 21.279 134.945 21.2141C135.049 21.1526 135.101 21.0424 135.101 20.8929C135.101 20.7579 135.061 20.6561 134.98 20.5882C134.9 20.5211 134.795 20.4876 134.666 20.4876H134.072V21.3118ZM10.9395 16.6839C11.4934 16.6351 11.9931 17.7235 12.4531 17.7698C13.0503 17.8281 13.534 16.5215 14.1895 16.7093C14.543 16.8099 15.2171 17.8124 15.1045 18.1819C15.012 18.4747 12.9334 20.5435 12.6719 20.6048C12.2078 20.7107 10.0641 18.6077 9.93066 18.1819C9.78764 17.7277 10.5501 16.719 10.9395 16.6839ZM120.876 15.9925C120.98 15.9913 121.085 16.0053 121.185 16.0345C121.28 16.0641 121.372 16.1066 121.457 16.1604C121.542 16.2165 121.611 16.2936 121.658 16.3841C121.707 16.4842 121.735 16.5939 121.739 16.7054H121.441C121.436 16.6433 121.419 16.5828 121.39 16.5276C121.361 16.4725 121.321 16.4235 121.272 16.3841C121.175 16.303 121.039 16.2625 120.864 16.262C120.699 16.262 120.565 16.2968 120.461 16.3743C120.357 16.4524 120.306 16.5597 120.306 16.6956C120.306 16.8876 120.429 17.0168 120.666 17.0784L121.106 17.1956C121.317 17.253 121.48 17.3354 121.594 17.4427C121.706 17.5485 121.763 17.6941 121.763 17.8792C121.763 18.1193 121.675 18.3051 121.5 18.4349C121.324 18.5646 121.1 18.6292 120.828 18.6292C120.676 18.6292 120.536 18.6065 120.416 18.5608V18.5579C120.297 18.5156 120.204 18.4572 120.137 18.3831C120.068 18.3081 120.017 18.2295 119.984 18.1487C119.952 18.0675 119.933 17.9836 119.933 17.8958H120.231C120.238 17.961 120.258 18.0244 120.29 18.0813C120.322 18.1383 120.367 18.1882 120.42 18.2268C120.529 18.314 120.679 18.3576 120.87 18.3567C121.048 18.3563 121.192 18.3149 121.302 18.2337C121.412 18.1489 121.464 18.0348 121.464 17.8958C121.464 17.7888 121.431 17.7051 121.363 17.637C121.295 17.5721 121.188 17.5162 121.045 17.4798L120.595 17.3606C120.426 17.3183 120.286 17.2438 120.176 17.137C120.067 17.0298 120.013 16.8873 120.014 16.7093C120.012 16.568 120.055 16.4291 120.14 16.3157C120.222 16.2023 120.328 16.1204 120.458 16.0696C120.588 16.0181 120.724 15.9925 120.876 15.9925ZM136.771 15.9993C137.073 15.9993 137.317 16.0962 137.498 16.3001C137.68 16.5046 137.77 16.7803 137.771 17.137V17.5169C137.77 17.8699 137.68 18.144 137.498 18.3382C137.314 18.5324 137.069 18.6292 136.765 18.6292C136.46 18.6292 136.213 18.5321 136.038 18.3382C135.863 18.1435 135.772 17.8704 135.772 17.5169V17.138C135.772 16.7836 135.863 16.5057 136.045 16.304C136.223 16.1027 136.47 16.0022 136.771 16.0022V15.9993ZM130.322 15.9993C130.624 15.9994 130.867 16.0962 131.049 16.3001C131.231 16.5046 131.321 16.7803 131.321 17.137V17.513C131.321 17.8659 131.231 18.1401 131.049 18.3343C130.865 18.5285 130.62 18.6262 130.315 18.6263C130.011 18.6263 129.764 18.5289 129.589 18.3343C129.413 18.1396 129.323 17.8665 129.323 17.513V17.135C129.323 16.7806 129.414 16.5018 129.596 16.3001C129.774 16.0996 130.02 15.9993 130.322 15.9993ZM123.308 16.053L124.212 18.5735H123.892L123.632 17.7991H122.678L122.419 18.5745H122.117L123.025 16.054L123.022 16.053H123.308ZM116.263 16.054C116.438 16.0511 116.612 16.0828 116.775 16.1477C116.912 16.2017 117.031 16.293 117.119 16.4104V16.4065C117.205 16.5273 117.268 16.663 117.307 16.8059C117.346 16.9515 117.365 17.1266 117.365 17.3118C117.365 17.4963 117.346 17.6682 117.307 17.8138C117.267 17.9608 117.206 18.0933 117.125 18.2102C117.04 18.3309 116.921 18.4247 116.784 18.4798C116.638 18.5415 116.464 18.5726 116.263 18.5735H115.472V16.054H116.263ZM119.475 16.054V16.3196L118.271 16.3186V17.1487H119.404V17.4183H118.271V18.304H119.475V18.5735H117.973V16.054H119.475ZM125.594 16.054C125.716 16.0519 125.839 16.0722 125.954 16.1145C126.051 16.1471 126.138 16.2046 126.207 16.2806C126.331 16.4239 126.397 16.6079 126.395 16.7972C126.394 16.9877 126.352 17.1403 126.262 17.2542L126.255 17.2532C126.164 17.367 126.054 17.451 125.921 17.4993L126.438 18.5735H126.096L125.629 17.5608H124.994V18.5735H124.695V16.054H125.594ZM127.955 16.054C128.078 16.0519 128.2 16.0722 128.315 16.1145C128.413 16.1471 128.5 16.2046 128.568 16.2806C128.692 16.4239 128.759 16.6078 128.757 16.7972C128.757 16.9877 128.715 17.1403 128.624 17.2542L128.617 17.2532C128.526 17.3671 128.416 17.451 128.283 17.4993L128.799 18.5735H128.458L127.991 17.5608H127.355V18.5735H127.057V16.054H127.955ZM132.264 16.054V18.304H133.441V18.5735H131.969V16.054H132.264ZM134.216 18.304H135.393V18.5735H133.917V16.054L134.216 16.053V18.304ZM130.318 16.2679C130.223 16.2652 130.127 16.2839 130.04 16.3225C129.953 16.3613 129.875 16.4189 129.812 16.4915C129.679 16.6404 129.615 16.8584 129.615 17.137V17.5169C129.611 17.6442 129.628 17.7714 129.667 17.8929C129.698 17.9912 129.75 18.0816 129.819 18.1585C129.882 18.2237 129.957 18.2756 130.04 18.3108C130.124 18.3465 130.215 18.3635 130.318 18.3636C130.414 18.3646 130.509 18.3464 130.598 18.3108C130.688 18.2739 130.769 18.2172 130.834 18.1448C130.899 18.0724 130.947 17.9863 130.975 17.8929C131.009 17.7821 131.025 17.6567 131.025 17.5169V17.1341C131.025 16.8553 130.961 16.6438 130.828 16.4915C130.698 16.3425 130.526 16.2679 130.318 16.2679ZM136.765 16.2679C136.669 16.2651 136.574 16.2838 136.486 16.3225C136.399 16.3613 136.321 16.4189 136.259 16.4915C136.126 16.6404 136.061 16.8584 136.061 17.137V17.5169C136.057 17.6442 136.075 17.7714 136.113 17.8929C136.145 17.9913 136.197 18.0816 136.266 18.1585C136.328 18.2237 136.403 18.2756 136.486 18.3108C136.57 18.3465 136.661 18.3636 136.765 18.3636C136.86 18.3646 136.955 18.3465 137.044 18.3108C137.134 18.2738 137.215 18.2173 137.28 18.1448C137.345 18.0725 137.393 17.9862 137.42 17.8929C137.455 17.7821 137.472 17.6567 137.472 17.5169V17.1341C137.472 16.8553 137.407 16.6438 137.273 16.4915C137.144 16.3427 136.972 16.2679 136.765 16.2679ZM115.763 16.3157V18.305H116.249C116.791 18.305 117.063 17.9766 117.063 17.3118C117.063 16.6476 116.791 16.3153 116.249 16.3157H115.763ZM58.335 17.6204C51.4395 17.5621 52.1884 7.11143 59.8457 8.08427C62.4826 8.42157 61.6254 9.28622 61.3066 11.3694L60.2744 11.2571C60.4009 9.87867 59.6901 9.38826 58.3574 9.45634C57.2675 9.51527 56.7161 9.95585 56.3525 10.9358C55.5839 13.0208 56.1422 16.2351 58.8916 16.2454C61.0555 16.2547 59.635 13.9423 61.6035 14.1595C61.5552 14.7884 61.4678 16.89 60.9521 17.179C60.6377 17.3577 58.7412 17.6202 58.335 17.6204ZM123.158 16.4173L122.77 17.5589H123.558L123.168 16.4173H123.158ZM47.1357 9.3206H46.0234V14.6497C46.0237 14.9484 46.5712 15.7297 46.8916 15.8597C47.3623 16.051 48.3971 16.0285 48.8838 15.8372C49.1266 15.7432 49.7784 15.137 49.7793 14.9261V9.31767H48.8057L49.0283 8.20829H52.1855L52.5293 9.11942C52.4808 9.42767 51.6901 9.30751 51.4434 9.3206C51.1838 12.4213 52.7208 17.176 48.1836 17.4974C45.6827 17.6722 43.8663 16.9359 43.6523 14.2405C43.5259 12.6613 43.7532 10.9197 43.6592 9.3206L42.6045 9.18778L42.6953 8.22099L46.9121 8.20438L47.1357 9.3206ZM104.562 9.31669L104.556 9.3206H103.573C103.336 11.8182 103.43 14.312 103.654 16.803L101.653 17.471L97.248 11.1233L97.3203 16.2454H98.4326L98.1729 17.2698L94.9062 17.3323L94.54 16.3138L95.4971 16.222C95.6168 15.9923 95.6423 15.7427 95.6621 15.4866C95.7654 14.0915 95.8956 11.7105 95.7949 10.3577C95.7723 10.011 95.6071 9.67756 95.6592 9.31767H94.6855L94.9199 8.20438L98.1045 8.33817L102.059 13.887V9.31669L101.004 9.18388L101.31 8.22685L104.329 8.20438L104.562 9.31669ZM40.8203 9.18388C40.6415 9.42357 40.1581 9.19747 39.8369 9.45634C39.6456 9.61254 37.5981 13.5372 37.5508 13.8255C37.4402 14.5327 37.7707 15.279 37.6992 16.012L37.9072 16.219L37.9004 16.2288L38.7734 16.262L38.9258 17.3548H33.7822L33.9277 16.2552L35.0332 16.2483C35.0108 15.5247 35.2796 14.8373 35.1631 14.1077C34.9616 12.8814 33.1779 10.7471 32.7402 9.45927L31.6953 9.32352L31.8516 8.23075L36.0195 8.27567L36.1523 9.32352C35.9086 9.38162 35.4067 9.13943 35.459 9.5247C35.5142 9.94366 36.2014 11.7569 36.4219 12.1653C36.6621 12.606 36.8208 12.7194 37.0479 12.2229C37.2231 11.845 38.1206 9.4702 37.9619 9.31767C37.9202 9.27926 37.3694 9.4142 37.2754 9.09306L37.4111 8.21708L40.7383 8.21122L40.8203 9.18388ZM74.251 8.00321C76.5273 8.01974 79.1546 7.7311 81.415 7.92509C81.6712 7.94825 81.9141 7.93541 82.1318 8.11063V8.1077C82.6702 8.54274 82.1999 10.3842 82.041 11.053L81.1201 10.9808L80.9189 9.45048H79.1123L79.2715 16.0081C79.4079 16.4233 80.4197 16.1701 80.7832 16.2356L80.627 17.3284L75.5059 17.3382L75.3594 16.2386C75.7221 16.1737 76.734 16.4264 76.8711 16.012L77.0303 9.45341L75.3496 9.51493L75.0127 10.9808L74.1953 11.0979C73.9655 11.0238 73.8413 9.82266 73.832 9.5247C73.8062 8.94347 73.6962 8.33751 74.251 8.00321ZM86.7529 8.29911C87.4441 7.99395 88.2384 8.05507 88.9746 8.08817L91.8936 16.1575L92.8828 16.2386L92.7236 17.3313H88.4492L88.2939 16.2386C88.6733 16.2063 89.14 16.375 89.3994 16.0315L88.9717 14.7347C88.1706 14.7764 87.1845 14.6133 86.4092 14.7073C85.7477 14.7881 85.7275 15.6744 85.6533 16.2386H86.7656L86.7695 16.2415L86.5 17.2864L83.1592 17.3382L83.0127 16.2386L83.8633 16.1575L86.7529 8.29911ZM72.165 16.1477L73.1504 16.2356L72.9951 17.3284H68.7139L68.5586 16.2356C68.9379 16.206 69.4046 16.3747 69.6641 16.0306L69.168 14.7044C68.3768 14.7918 67.4459 14.6137 66.6738 14.7044C65.9633 14.7885 65.9954 15.6423 65.918 16.2356L66.9688 16.3714L66.7324 17.3274H63.4268L63.2715 16.2356L64.1211 16.1546L66.9521 8.34403L69.2295 8.22685L69.2324 8.22099H69.2393L72.165 16.1477ZM21.1016 7.67899C21.3411 7.62742 21.5713 7.61182 21.7725 7.78642L24.9023 10.9007L24.9609 14.0208L21.7725 17.2151C21.1494 17.6203 19.8169 16.8388 20.0498 16.0608H20.0537C20.2126 15.5159 22.7755 13.515 23.2324 12.8528C23.2852 12.7987 23.3246 12.733 23.3486 12.6614C23.3727 12.5896 23.3806 12.5129 23.3711 12.4378C23.3119 11.8567 20.3329 9.68308 20.0859 8.90849C19.9113 8.35697 20.6315 7.77963 21.1016 7.67899ZM3.44336 7.68192C4.07902 7.49387 5.48341 8.38643 4.88086 9.11942C4.43978 9.68694 1.71202 11.9967 1.66699 12.4417C1.64793 12.6387 1.71864 12.7105 1.80664 12.8567C2.3188 13.7221 4.19315 14.8969 4.79297 15.8304L4.79688 15.8333C5.41588 16.7933 4.20281 17.4552 3.34668 17.2806L0.00585938 14.0266V10.9808C0.806331 10.5688 2.83317 7.86153 3.44336 7.68192ZM125.004 16.3157V17.2962H125.558C125.736 17.2962 125.87 17.2539 125.964 17.1731C126.054 17.0889 126.1 16.9709 126.1 16.8196C126.1 16.6581 126.053 16.533 125.96 16.4456C125.866 16.3589 125.736 16.3153 125.571 16.3157H125.004ZM127.365 16.3157V17.2962H127.92C128.098 17.2961 128.231 17.2539 128.325 17.1731C128.416 17.0889 128.461 16.9709 128.461 16.8196C128.461 16.6581 128.415 16.533 128.321 16.4456C128.227 16.3589 128.097 16.3153 127.933 16.3157H127.365ZM11.499 9.4827C11.791 9.39466 13.3606 9.40558 13.624 9.5247C13.7538 9.58363 15.5059 11.3574 15.5449 11.4905C15.629 11.7795 15.6189 13.3429 15.499 13.6058C15.4359 13.7363 13.6558 15.4791 13.5234 15.5188C13.2311 15.6062 11.6617 15.5967 11.3994 15.4768C11.2697 15.418 9.52139 13.6467 9.47949 13.511C9.39475 13.2224 9.4053 11.6595 9.52441 11.3968C9.58594 11.2671 11.364 9.52385 11.499 9.4827ZM6.91797 9.89188C7.29472 9.83031 8.28323 10.5661 8.31641 10.929C8.36804 11.4844 7.27199 11.9803 7.22656 12.4378C7.16829 13.0337 8.47875 13.5141 8.29004 14.1663L8.29297 14.1634C8.21131 14.4391 7.32328 15.1193 7.02539 15.1194C6.61358 15.1194 4.38623 12.9153 4.36914 12.5706C4.34928 12.1197 6.50909 9.95722 6.91797 9.89188ZM17.9033 9.89091C18.0323 9.86845 18.1036 9.8884 18.2207 9.92411C18.5445 10.0248 20.6528 12.1396 20.666 12.4309L20.6631 12.4251C20.6845 12.9052 18.4603 15.1194 18.0068 15.1194C17.6848 15.119 16.7483 14.393 16.7158 14.0686C16.6638 13.514 17.7595 13.0176 17.8057 12.5608C17.8739 11.8603 16.1161 11.3766 16.9756 10.5013C17.0566 10.4203 17.8318 9.90415 17.9033 9.89091ZM120.757 11.8372C120.894 11.8345 121.031 11.859 121.159 11.9085C121.27 11.9511 121.369 12.0188 121.448 12.1067C121.52 12.1871 121.577 12.2801 121.617 12.3802C121.656 12.474 121.675 12.5736 121.675 12.678H121.383C121.383 12.6029 121.367 12.5284 121.338 12.4593C121.308 12.3901 121.266 12.3269 121.212 12.2747C121.099 12.1582 120.945 12.1 120.751 12.0999C120.657 12.0962 120.563 12.1149 120.477 12.1536C120.39 12.1924 120.315 12.2513 120.255 12.3245C120.128 12.4735 120.066 12.6907 120.066 12.97V13.3391C120.066 13.6214 120.128 13.8344 120.251 13.9778C120.374 14.1204 120.544 14.1917 120.761 14.1917C120.955 14.1917 121.104 14.137 121.215 14.0364C121.267 13.9892 121.309 13.9313 121.337 13.8665C121.365 13.8016 121.379 13.7311 121.377 13.6604H121.668C121.668 13.7511 121.649 13.8384 121.613 13.929C121.573 14.0234 121.518 14.1111 121.451 14.1888C121.38 14.2735 121.285 14.3354 121.162 14.387C121.039 14.4319 120.9 14.4583 120.744 14.4583L120.746 14.4671C120.448 14.4654 120.211 14.3687 120.04 14.179C119.868 13.9875 119.782 13.7122 119.781 13.3528V12.97C119.781 12.6124 119.869 12.3337 120.044 12.135C120.223 11.9348 120.459 11.8373 120.757 11.8372ZM116.212 11.8177C116.316 11.8165 116.42 11.8305 116.521 11.8597C116.616 11.8895 116.708 11.9325 116.793 11.9866C116.878 12.0427 116.947 12.1197 116.994 12.2102C117.043 12.3104 117.071 12.42 117.075 12.5315H116.777C116.772 12.4695 116.755 12.4089 116.726 12.3538C116.697 12.2987 116.657 12.2497 116.608 12.2102C116.511 12.129 116.374 12.0881 116.199 12.0872C116.034 12.0873 115.901 12.1231 115.797 12.2005C115.693 12.2786 115.642 12.3859 115.642 12.5218C115.642 12.7129 115.765 12.843 116.002 12.9046L116.442 13.0218C116.653 13.0796 116.816 13.1615 116.93 13.2679C117.042 13.3747 117.099 13.5205 117.099 13.7054C117.099 13.9455 117.01 14.1303 116.835 14.26C116.66 14.3897 116.436 14.4553 116.164 14.4554C116.012 14.4554 115.872 14.4294 115.752 14.387C115.632 14.3446 115.541 14.286 115.473 14.2112C115.404 14.1371 115.353 14.059 115.32 13.9778C115.288 13.8966 115.269 13.8127 115.269 13.7249H115.567C115.574 13.7901 115.594 13.8535 115.626 13.9104C115.658 13.9674 115.703 14.0173 115.756 14.0559C115.865 14.1426 116.015 14.1862 116.206 14.1858C116.384 14.1849 116.528 14.143 116.638 14.0618V14.0599C116.748 13.9751 116.8 13.861 116.8 13.722C116.8 13.6147 116.767 13.5304 116.699 13.4622C116.631 13.3973 116.524 13.3427 116.381 13.3069L115.931 13.1858C115.762 13.1439 115.622 13.0695 115.512 12.9622C115.403 12.8558 115.349 12.7132 115.35 12.5345C115.347 12.3933 115.391 12.2552 115.476 12.1419C115.558 12.0289 115.664 11.947 115.794 11.8958C115.924 11.8442 116.06 11.8177 116.212 11.8177ZM123.188 11.886C123.31 11.8841 123.433 11.9049 123.548 11.9475C123.645 11.9801 123.732 12.0367 123.801 12.1126C123.924 12.2559 123.991 12.4399 123.988 12.6292C123.988 12.8199 123.946 12.9723 123.855 13.0862H123.849C123.758 13.2001 123.647 13.284 123.515 13.3323L124.03 14.4056H123.689L123.223 13.3938H122.588V14.4056H122.289V11.886H123.188ZM132.077 11.886C132.2 11.8842 132.322 11.905 132.437 11.9475C132.534 11.98 132.621 12.0368 132.689 12.1126C132.813 12.2559 132.88 12.4399 132.878 12.6292C132.878 12.8198 132.836 12.9723 132.745 13.0862H132.739C132.649 13.2001 132.537 13.284 132.404 13.3323L132.92 14.4056H132.58L132.112 13.3938H131.477V14.4056H131.179V11.886H132.077ZM119.216 11.8831V12.1516H118.013V12.9827H119.147V13.2483H118.013V14.137H119.216V14.4036H117.718V11.8831H119.216ZM126.154 11.8831V12.1516H124.955V12.9827H126.086V13.2483H124.955V14.137H126.154V14.4036H124.656V11.8831H126.154ZM128.376 11.8831V12.1458H127.607V14.4036H127.312V12.1458H126.537V11.8831H128.376ZM129.794 11.8831L130.699 14.4026H130.378L130.118 13.6282H129.161L128.902 14.4036H128.601L129.509 11.8831H129.794ZM133.844 11.8831V14.4036H133.546V11.8831H133.844ZM135.526 11.8831L136.432 14.4036H136.11L136.107 14.4026L135.848 13.6282H134.895L134.635 14.4036H134.333L135.241 11.8831H135.526ZM138.61 11.8831C138.786 11.8802 138.96 11.9119 139.123 11.9768C139.26 12.0309 139.379 12.122 139.467 12.2395V12.2366C139.552 12.3573 139.617 12.4922 139.655 12.635C139.694 12.7813 139.713 12.9563 139.713 13.1409C139.713 13.3256 139.694 13.4982 139.655 13.6438C139.616 13.7907 139.555 13.9224 139.474 14.0393C139.388 14.16 139.27 14.2537 139.133 14.3089C138.986 14.3707 138.812 14.4027 138.61 14.4036H137.818V11.8831H138.61ZM141.819 11.8831V12.1516H140.616V12.9827H141.751V13.2483H140.616V14.137H141.819V14.4036H140.324V11.8831H141.819ZM12.3398 10.7181C12.0903 10.7895 10.6703 12.258 10.7021 12.5608C10.728 12.823 12.1545 14.2926 12.5732 14.303H12.5771C13.0542 14.2759 14.386 12.9595 14.3311 12.4339C14.2945 12.1156 12.7876 10.5922 12.3398 10.7181ZM138.11 12.1487V14.137H138.598C139.139 14.1369 139.412 13.8093 139.412 13.1448C139.411 12.4805 139.14 12.1483 138.598 12.1487H138.11ZM67.7793 10.2835C67.5299 10.2551 67.5109 10.462 67.4395 10.6341C67.0727 11.5153 66.911 12.6874 66.6025 13.6077H68.8242L67.7793 10.2835ZM86.3438 13.6077H88.5654C88.2801 12.69 88.0923 11.5034 87.7295 10.6341C87.6614 10.4627 87.6412 10.2546 87.3887 10.2835L86.3438 13.6077ZM129.638 12.2464L129.249 13.388H130.037L129.647 12.2464H129.638ZM135.371 12.2464L134.981 13.388H135.771L135.381 12.2464H135.371ZM122.594 12.1458V13.1243H123.145C123.323 13.1243 123.456 13.0827 123.551 13.0013H123.554C123.644 12.9179 123.689 12.8004 123.689 12.6487C123.69 12.4867 123.644 12.3617 123.551 12.2747C123.456 12.1879 123.326 12.1453 123.161 12.1458H122.594ZM131.483 12.1458V13.1243H132.035C132.213 13.1243 132.346 13.0827 132.44 13.0013H132.443C132.534 12.9179 132.58 12.8005 132.58 12.6487C132.581 12.4867 132.534 12.3617 132.44 12.2747C132.346 12.1878 132.216 12.1453 132.051 12.1458H131.483ZM134.285 11.2347L133.795 11.6067H133.464L133.932 11.2347H134.285ZM126.523 0.920205C126.888 0.949948 127.243 1.05206 127.568 1.21903C129.011 1.972 129.472 3.90682 129.353 5.2952C129.304 5.8236 129.047 7.73782 127.578 8.48075H127.575C127.262 8.63708 126.922 8.73077 126.573 8.7581H121.766V7.90556L122.639 7.6077V1.70438L121.766 1.64188V0.920205H126.523ZM133.09 0.9329C133.602 0.851466 135.59 0.997706 135.931 1.34794C136.032 1.50604 136.126 1.66818 136.213 1.83427C136.249 2.04796 135.935 3.69003 135.75 3.75419L135.029 3.76493C134.874 2.97366 135.017 2.3142 134.027 2.21024C133.551 2.16192 132.692 2.14884 132.805 2.8206C132.986 3.90652 135.934 4.1341 136.22 5.8206C136.389 6.80036 136.087 7.41269 135.328 8.00321C133.93 9.0898 132.178 8.83739 130.621 8.24345C130.472 8.0753 130.463 5.8222 130.566 5.74931L131.374 5.68192L131.812 7.1702C132.097 7.52377 133.625 7.53712 133.823 7.26102C134.485 6.33998 132.36 5.60344 131.828 5.27567L131.825 5.27274H131.818C130.933 4.73053 130.368 4.15393 130.508 3.0286C130.628 2.05193 132.198 1.07261 133.09 0.9329ZM117.717 0.9329C118.229 0.85148 120.217 0.997699 120.558 1.34794C120.658 1.50604 120.753 1.66818 120.84 1.83427C120.876 2.04794 120.562 3.68976 120.377 3.75419L119.657 3.76493C119.501 2.97366 119.644 2.3142 118.654 2.21024C118.178 2.16191 117.319 2.14881 117.432 2.8206C117.614 3.90652 120.561 4.1341 120.847 5.8206L120.844 5.81767H120.837C121.005 6.79741 120.704 7.40973 119.945 8.00028C118.547 9.08675 116.796 8.83343 115.239 8.23954C115.09 8.07092 115.08 5.82087 115.184 5.74638L115.991 5.67802L116.43 7.1663C116.715 7.51989 118.242 7.53323 118.44 7.25712C119.102 6.33615 116.978 5.59983 116.445 5.27274C115.56 4.73053 114.996 4.15395 115.135 3.0286C115.255 2.05193 116.825 1.07261 117.717 0.9329ZM12.4424 4.38993C12.8673 4.37074 14.9706 6.42277 15.0986 6.82255C15.2251 7.22507 14.6223 8.08454 14.2812 8.25028C13.5681 8.60056 13.0779 7.1728 12.4521 7.23173C11.9914 7.27364 11.4923 8.36979 10.9375 8.31767L10.9336 8.32157C10.5739 8.28507 9.84419 7.2449 9.88965 6.92704C9.93799 6.59001 12.1212 4.40317 12.4424 4.38993ZM49.0283 8.20829H49.0264L49.0293 8.20145L49.0283 8.20829ZM89.6934 6.19071L89.7627 7.10477L87.251 7.5081L87.0986 7.22782C87.2864 6.9006 87.2803 6.28159 87.6953 6.15849L89.6934 6.19071ZM124.588 2.00419V7.4202H125.495C125.796 7.4197 126.093 7.34089 126.354 7.19071C126.616 7.04053 126.832 6.82386 126.984 6.56376C127.292 6.03881 127.466 5.44613 127.49 4.83817C127.513 4.12797 127.327 3.42641 126.956 2.8206C126.647 2.30814 126.086 2.00419 125.489 2.00419H124.588ZM2.08887 0.108681C2.35428 -0.00780898 3.78373 -0.0179532 4.07324 0.066689C4.21294 0.1084 6.12359 1.98664 6.18555 2.11942C6.34446 2.46043 6.32162 3.93641 6.12695 4.27079C6.05927 4.38997 4.36508 6.07705 4.25195 6.14188C3.92016 6.33297 2.44018 6.35586 2.09277 6.20048L2.08887 6.19755C1.55981 5.96045 0.64889 4.50387 0 4.19267V2.11356C0.648837 1.80166 1.5598 0.345942 2.08887 0.108681ZM20.9619 0.0705952C21.2513 -0.0166915 22.6798 -0.00649415 22.9463 0.112587C23.0786 0.17478 24.9613 2.07178 25.0059 2.21415C25.0906 2.49954 25.0801 3.92686 24.9609 4.18974C24.8991 4.3257 22.9905 6.19879 22.8496 6.24247C22.5609 6.33054 21.1304 6.31966 20.8643 6.20048C20.7318 6.13884 18.8464 4.23765 18.8047 4.09794C18.7201 3.8124 18.7299 2.38688 18.8496 2.12333C18.9112 1.98759 20.8229 0.112311 20.9619 0.0705952ZM11.082 0.0637593C11.466 -0.049324 13.806 -0.0104667 14.1211 0.168251L17.3125 3.36259C17.611 3.82262 16.9137 4.96101 16.4727 5.02665C16.3005 5.05843 16.1507 5.02297 15.9951 4.95145C15.2712 4.61645 13.6864 2.37884 12.8721 1.83134C12.8164 1.77959 12.75 1.74061 12.6777 1.71708C12.6054 1.69354 12.5287 1.68649 12.4531 1.6956C12.0029 1.74062 9.68667 4.4555 9.11523 4.89384L9.1123 4.88993C8.37666 5.47659 7.4165 4.01414 7.71777 3.36259C8.41833 2.89511 10.5146 0.232607 11.082 0.0637593ZM21.7949 1.30302C21.6153 1.35384 20.0254 2.97905 20.0244 3.15458L21.9053 5.02665C22.1364 5.0258 23.7737 3.37171 23.7803 3.15458C23.7892 2.70676 22.2451 1.18649 21.7949 1.30302ZM3.02637 1.29911C2.65514 1.35474 1.24893 2.76199 1.25879 3.15458C1.26474 3.37492 2.9039 5.02339 3.13281 5.02567L5.01465 3.15458C5.0145 2.9499 3.41953 1.26817 3.02637 1.30302V1.29911ZM51.1631 0.938759C51.8378 0.387852 53.4802 0.222941 52.9736 1.42606C50.8753 -0.143889 50.6065 4.13433 52.9736 3.09013L52.957 3.62821C51.031 4.49732 49.6032 2.20342 51.1631 0.938759ZM81.6865 0.527626C84.061 0.47929 83.6233 3.93906 81.4111 3.78349C79.4744 3.64708 79.718 0.566717 81.6865 0.527626ZM44.2207 0.59208V3.64091L43.5264 3.71903L42.1348 1.56181V3.64091H41.4375V0.59208L42.3916 0.615517L43.5264 2.66825V0.59208H44.2207ZM94.6719 0.608681L95.6641 3.63505L94.9902 3.61845L94.8145 2.96024V2.95634C94.7662 2.91744 94.6914 2.94364 94.6299 2.93388C94.4418 2.90871 93.8216 2.9086 93.666 2.96024C93.3742 3.06116 93.4621 3.91978 92.6055 3.63114L93.5918 0.601845L94.6719 0.608681ZM48.0977 0.608681L49.084 3.63798C47.9464 3.83557 48.6224 2.89022 47.4844 2.93778C46.5388 2.9767 47.102 3.85178 46.0283 3.63798L47.0186 0.608681H48.0977ZM61.0811 0.59208C61.373 0.656948 61.4501 3.19534 61.4502 3.64091H60.7568V1.42606C60.296 1.59425 60.1431 3.55367 60.0557 3.63114L59.3525 3.55692L58.8105 1.42606C58.606 1.41363 58.564 1.92271 58.5508 2.06571C58.4952 2.58724 58.5543 3.11872 58.5352 3.64091L58.5322 3.64774C58.2561 3.58881 57.8311 3.83601 57.8311 3.43681C57.837 2.57072 58.1006 1.49376 58.1172 0.601845L59.0771 0.611611L59.7158 2.81474L60.3545 0.611611L61.0811 0.59208ZM71.1885 0.59208C71.4996 0.598648 71.8239 0.524076 72.1025 0.721962C72.4561 0.974903 72.8202 2.34673 73.2744 2.67118V0.59208H73.9678V3.63505L73.1963 3.65165L71.8818 1.55888V3.63798H71.1885V0.59208ZM32.2637 0.598916C33.2111 0.624738 35.0723 0.245218 34.7646 1.76981C34.6998 2.08765 34.3427 2.21457 34.3652 2.44169C34.3782 2.59762 35.1173 3.58506 35.04 3.64091L34.2256 3.61845C34.0218 3.15441 33.9243 2.5579 33.3057 2.5286C32.8708 2.50875 33.1841 3.40346 33.0938 3.64091L33.1006 3.64481H32.2637C32.4803 2.64111 32.4803 1.60262 32.2637 0.598916ZM39.3477 0.593056L39.3516 1.14774H37.8203V1.97977L38.9297 1.8411L38.9326 2.3245L37.8203 2.39286L37.8174 3.14481L39.3516 3.22587L39.3486 3.64188H36.9873V0.593056H39.3477ZM69.1074 0.593056V1.14774H67.5771V1.97977L68.6924 1.8411V2.3245L67.5771 2.39286V3.14481L69.1074 3.22587V3.64188H66.7461V0.593056H69.1074ZM64.5166 0.595009C64.3511 1.60395 64.2863 2.63858 64.5166 3.64091H63.5439C63.7842 2.6518 63.726 1.59072 63.5439 0.595009H64.5166ZM78.5615 0.59208V1.14677H77.5889V3.64091H76.7549V1.14677H75.7822V0.59208H78.5615ZM91.0703 3.63798L90.2373 3.64091V1.42606L89.5293 3.62528L88.8652 3.62235L88.2197 1.42216L88.0117 3.64091L87.3145 3.56669L87.5938 0.59208L88.5566 0.608681L89.1963 2.81083L89.835 0.605751L90.7949 0.59208L91.0703 3.63798ZM96.9121 0.797158C96.8059 0.436573 97.5286 0.611611 97.7266 0.611611C97.8755 0.965115 97.9441 1.35455 98.0996 1.70145C98.5313 2.6576 98.6766 0.737419 98.8779 0.611611L99.6953 0.595009C99.2285 1.60733 98.5116 2.45056 98.7227 3.64091H97.8818C98.1927 2.51213 97.175 1.67838 96.9121 0.797158ZM55.7607 0.59208V3.63798H54.9238V0.59208H55.7607ZM102.961 0.727822L104.002 3.63505H103.171L103.039 3.00614H101.767V3.00907L101.635 3.63798H100.804L101.783 0.598916L102.961 0.727822ZM82.0039 1.11161C80.6096 0.450667 80.3573 3.86823 82.1543 3.1995C82.4979 2.64516 82.711 1.44528 82.0039 1.11161ZM47.6963 1.14677C47.3526 1.10439 47.4758 1.15006 47.4043 1.34208C47.34 1.51398 47.0892 2.48303 47.1406 2.53251H47.9746L47.6963 1.14677ZM93.7148 2.53153H94.5488L94.2012 1.15067L93.7148 2.53153ZM101.916 2.5286H102.89L102.335 1.14677L101.916 2.5286ZM33.0908 1.01102V2.11649C33.5874 2.17211 34.0779 2.0843 34.0713 1.50028L33.8691 1.13407L33.0938 1.00712L33.0908 1.01102Z" fill="#F6F6F6"/>
</svg>
