<svg width="93" height="29" viewBox="0 0 93 29" fill="none" xmlns="http://www.w3.org/2000/svg">
<path d="M84.5059 23.2051C84.5544 23.2051 84.627 23.2298 84.627 23.2783L85.5967 25.9453L86.543 23.2783C86.5672 23.2298 86.6156 23.2051 86.6641 23.2051H87.4395C87.488 23.2051 87.5371 23.2297 87.5371 23.2539H87.5615V23.3506L85.9121 27.7637C85.5242 28.7818 84.9669 29.0008 84.5547 29.001C84.3608 29.001 84.1666 28.9762 83.9727 28.9277C83.9242 28.9035 83.875 28.8551 83.875 28.8066V28.1523C83.875 28.1039 83.8996 28.0547 83.9238 28.0547H84.0205C84.1659 28.1032 84.0937 28.1035 84.4326 28.1035C84.772 28.1035 85.0153 27.6189 85.1123 27.3037L83.6328 23.3506C83.6087 23.3264 83.6087 23.3022 83.6328 23.2539C83.657 23.2055 83.6812 23.2051 83.7295 23.2051H84.5059ZM70.5391 23.1084C72.236 23.1086 72.4297 24.5397 72.4297 25.3398C72.4296 26.1401 72.163 27.4736 70.4658 27.4736C70.2234 27.4736 69.9807 27.4489 69.7383 27.4004V28.8311C69.7383 28.9038 69.6899 28.9521 69.6172 28.9521H68.8896C68.8169 28.9521 68.7686 28.9038 68.7686 28.8311V24.5391C68.7686 24.1993 68.8905 23.1328 70.5391 23.1328V23.1084ZM4.53418 21.29C4.65542 21.1688 4.82523 21.145 4.9707 21.2178C6.40136 21.9937 7.75961 22.7449 9.16602 23.2783C9.79639 23.545 10.4992 23.764 11.2266 23.958C11.9298 24.1277 12.6091 24.273 13.2881 24.3457L14.0645 24.418H14.3066C14.6461 24.4422 14.9858 24.4422 15.3252 24.418H16.3438L16.8525 24.3701L17.6045 24.249C17.6771 24.2248 17.7496 24.2002 17.8223 24.2002L18.8652 23.9814L19.3984 23.8604L20.417 23.5693L21.5566 23.2305C23.0358 22.794 24.6849 22.2845 26.4551 22.042C26.5762 22.0178 26.6973 21.9932 26.8184 21.9932C27.1577 21.9689 27.4732 21.9206 27.8125 21.8721H28.8066L29.8252 21.9209C30.0675 21.9209 30.3102 21.9689 30.5283 21.9932C30.6495 22.0174 30.7468 22.042 30.8438 22.042C31.1832 22.0905 31.5472 22.1392 31.8867 22.2119C33.6083 22.5514 35.306 23.2549 36.7852 24.249C37.5124 24.7582 38.1918 25.3156 38.7979 25.8975C39.4281 26.5278 39.9855 27.1825 40.4219 27.8613L40.3975 27.7646C40.4944 27.8858 40.4709 28.0799 40.374 28.2012C40.2528 28.3223 40.0829 28.3704 39.9375 28.2979C39.1373 27.9341 38.4337 27.6193 37.7305 27.3525C36.9303 27.0616 36.227 26.8192 35.5723 26.6494C34.166 26.2857 32.7355 26.0674 31.3535 26.0674C29.9714 26.0431 28.6128 26.2131 27.2549 26.5283C26.2609 26.7708 25.2425 27.0854 24.1758 27.4248C23.7878 27.546 23.3749 27.6922 22.9385 27.8135C22.769 27.8619 22.5511 27.934 22.3574 27.9824L21.751 28.1523C21.6056 28.1766 21.4842 28.2257 21.3389 28.25L21.1201 28.2979C21.0475 28.3221 20.975 28.3466 20.9023 28.3467C20.7812 28.3709 20.6356 28.4191 20.4902 28.4434L19.5195 28.6377L18.502 28.7832C18.3322 28.8317 18.1863 28.832 18.0166 28.832H17.7979L17.1191 28.8799H15.7373L15.082 28.8076C14.2334 28.7106 13.3119 28.5165 12.3906 28.2256C11.542 27.9346 10.7181 27.5702 9.91797 27.1338C9.50583 26.9156 9.11775 26.6489 8.77832 26.4307L8.6084 26.3096C8.31747 26.0914 8.02628 25.8733 7.73535 25.6309L7.49219 25.4365C7.4197 25.3881 7.37163 25.3394 7.32324 25.291L7.25 25.2188L6.57129 24.54C6.35318 24.3219 6.1351 24.0791 5.91699 23.8125C5.40779 23.2063 4.92279 22.5025 4.48633 21.7266C4.38933 21.5811 4.41294 21.4113 4.53418 21.29ZM57.9297 23.1572C58.6572 23.1573 59.918 23.4486 59.918 25.3398C59.9179 27.2309 58.6571 27.5224 57.9297 27.5225C57.2023 27.5225 55.9415 27.231 55.9414 25.3398C55.9414 23.4485 57.178 23.1572 57.9297 23.1572ZM53.0557 21.7754C53.6133 21.7754 54.1951 21.8961 54.7285 22.1143V22.1631C54.7769 22.1631 54.8017 22.2113 54.8018 22.2598V22.9385C54.8018 22.987 54.7772 23.0361 54.7529 23.0361H54.6318C54.1469 22.8421 54.3161 22.7207 53.1279 22.7207C51.9401 22.7208 51.4552 23.2784 51.4551 24.6602C51.4551 26.0422 51.94 26.6005 53.1279 26.6006C53.6371 26.6006 54.1469 26.5034 54.6318 26.2852C54.6803 26.261 54.7287 26.2851 54.7529 26.2852C54.8013 26.3093 54.8018 26.3336 54.8018 26.3818V27.0615C54.8015 27.0861 54.7768 27.1582 54.7285 27.1582C54.1952 27.3764 54.2436 27.498 53.0557 27.498C51.8676 27.498 50.4611 27.0127 50.4609 24.6367C50.4609 22.2604 51.8675 21.7754 53.0557 21.7754ZM65.4707 23.1084C66.5619 23.1084 67.1924 23.6906 67.1924 24.709V27.2793C67.1924 27.352 67.1439 27.4003 67.0713 27.4004H66.3438C66.271 27.4004 66.2227 27.352 66.2227 27.2793V24.6602C66.2226 24.2725 66.101 24.006 65.5195 24.0059C65.2285 24.0059 64.9129 24.0545 64.5977 24.1758C64.6703 24.3455 64.6709 24.5151 64.6709 24.709V27.2793C64.6709 27.352 64.6216 27.4004 64.5488 27.4004H63.8223C63.7495 27.4004 63.7002 27.352 63.7002 27.2793V24.6846C63.7002 24.3694 63.6519 24.0547 62.9004 24.0547C62.6579 24.0547 62.4152 24.0786 62.1484 24.1514V27.3037C62.1484 27.3764 62.1001 27.4248 62.0273 27.4248H61.2998C61.2272 27.4247 61.1788 27.3763 61.1787 27.3037V23.6426C61.1787 23.5941 61.2035 23.5449 61.252 23.5449C61.4948 23.4236 62.1732 23.1329 62.9727 23.1328C63.3849 23.1328 63.7491 23.2299 64.04 23.4238C64.5493 23.2298 65.0344 23.1328 65.4951 23.1328L65.4707 23.1084ZM80.6992 23.1084C81.7659 23.1086 82.4199 23.715 82.4199 24.709V27.2793C82.4199 27.352 82.3716 27.4004 82.2988 27.4004H81.5713C81.4988 27.4002 81.4502 27.3519 81.4502 27.2793V24.6602C81.4502 24.3451 81.4017 24.0304 80.6748 24.0303C80.3838 24.0303 80.1163 24.0786 79.8496 24.1514V27.3037C79.8496 27.3764 79.8012 27.4248 79.7285 27.4248H79.001C78.9285 27.4246 78.8799 27.3763 78.8799 27.3037V23.666C78.88 23.6176 78.9047 23.5693 78.9531 23.5693C79.1474 23.448 79.8266 23.1328 80.6992 23.1328V23.1084ZM75.7764 23.1572C76.0394 23.1572 76.6088 23.2282 77.1826 23.4395V26.5273L77.2559 27.3037H76.4307L76.3828 26.8672H76.3584C76.1159 27.2309 76.4067 27.4003 75.2676 27.4004C74.1279 27.4004 73.6914 26.8673 73.6914 25.4609C73.6914 24.0545 74.3942 23.1572 75.7764 23.1572ZM75.7031 23.8848C74.9518 23.8851 74.6855 24.8064 74.6855 25.4609C74.6856 26.1156 75.0248 26.7461 75.5098 26.7461C75.9946 26.746 76.2851 26.3824 76.2852 26.043H76.3096V23.9814C76.1891 23.933 76.4542 23.8848 75.7031 23.8848ZM57.9297 24.0303C57.4205 24.0303 56.9111 24.1273 56.9111 25.3154C56.9111 26.5036 57.4205 26.6006 57.9297 26.6006C58.4388 26.6006 58.9482 26.5034 58.9482 25.3154C58.9482 24.1274 58.4388 24.0303 57.9297 24.0303ZM70.5391 24.0059C69.7389 24.0059 69.7383 24.37 69.7383 24.4912V26.4795C69.9807 26.5522 70.2234 26.6006 70.4658 26.6006V26.5762C70.975 26.5762 71.4599 26.5034 71.46 25.3398C71.46 24.1761 71.3389 24.0059 70.5391 24.0059ZM0.169922 18.1865C0.363882 17.4107 1.1636 16.9498 1.93945 17.1436C2.61827 17.3133 3.0553 17.9677 3.03125 18.6465V18.7197C3.00701 19.059 2.98244 19.4226 2.98242 19.7861C2.98242 20.1499 3.00717 20.514 3.05566 20.8535C3.10416 21.2172 3.17662 21.557 3.29785 21.8965C3.41906 22.2359 3.54044 22.5757 3.73438 22.915C3.7828 23.0118 3.83145 23.0846 3.87988 23.1572L4.02539 23.3994C4.07385 23.4721 4.14682 23.5447 4.19531 23.6416C4.21956 23.6901 4.2435 23.7152 4.29199 23.7637L4.38867 23.8848C4.63115 24.2 4.92208 24.4668 5.2373 24.7578C5.40704 24.9033 5.57733 25.0243 5.74707 25.1455L6.01367 25.3398C6.11057 25.4125 6.20779 25.4603 6.30469 25.5088C6.69261 25.7512 7.1046 25.9457 7.54102 26.1396V26.1641C7.08035 26.2853 6.57083 26.3094 6.08594 26.2852C5.60117 26.2609 5.09218 26.1882 4.60742 26.0186C4.12248 25.8731 3.63746 25.6787 3.17676 25.3877L3.00684 25.291C2.95836 25.2668 2.88541 25.2184 2.83691 25.1699C2.71567 25.0972 2.61831 25.0247 2.49707 24.9277C2.40008 24.8307 2.30385 24.7571 2.18262 24.6602C2.08563 24.5632 1.98859 24.4904 1.8916 24.3691C1.69763 24.1752 1.5029 23.9817 1.35742 23.7393C1.18783 23.5212 1.04283 23.2786 0.897461 23.0605C0.60648 22.5756 0.411927 22.0655 0.242188 21.5078C0.0967672 20.9745 6.08832e-06 20.4169 0 19.8594C0 19.3017 0.0244919 18.7442 0.169922 18.1865ZM77.207 23.4482C77.1989 23.4452 77.1907 23.4424 77.1826 23.4395V23.4238L77.207 23.4482ZM47.5996 5.21387C48.5938 5.21387 49.5154 5.40776 50.3398 5.77148C51.1884 6.1352 51.8919 6.64402 52.498 7.27441H52.5703C53.1764 7.92901 53.6371 8.65654 53.9766 9.5293C54.316 10.378 54.4863 11.3242 54.4863 12.3184C54.4863 13.3124 54.316 14.2336 53.9766 15.1064C53.6371 15.9794 53.1765 16.7318 52.5703 17.3623C51.9642 17.9926 51.2364 18.5016 50.4121 18.8652C49.5636 19.2288 48.6667 19.4228 47.6729 19.4229C47.2121 19.4229 46.7994 19.3742 46.46 19.2529C46.1205 19.1317 45.8292 18.9861 45.5625 18.8164C45.296 18.6225 45.0533 18.429 44.8594 18.2109C44.6411 17.9927 44.4469 17.7739 44.2529 17.5557V22.5996C44.2529 22.8178 44.1807 23.0118 44.0596 23.1572C43.9383 23.3027 43.7199 23.376 43.4531 23.376H40.9795C40.8826 23.3759 40.7854 23.3514 40.6885 23.3271C40.5674 23.3029 40.4944 23.2543 40.3975 23.1816C40.3007 23.109 40.2282 23.0362 40.1797 22.9395C40.107 22.8425 40.083 22.7208 40.083 22.5996V6.18359C40.083 6.0381 40.1068 5.91633 40.1553 5.81934C40.2038 5.72241 40.2769 5.62543 40.3496 5.55273C40.4465 5.48005 40.5437 5.40723 40.6406 5.40723C40.7375 5.38306 40.8348 5.38281 40.9316 5.38281H42.5557C42.7012 5.38281 42.7985 5.40756 42.8955 5.45605C42.9924 5.48033 43.0648 5.55326 43.1133 5.62598C43.1618 5.69872 43.2103 5.79561 43.2588 5.89258C43.3073 5.98956 43.3566 6.08677 43.3809 6.20801L43.8408 7.5166C44.0348 7.24992 44.2533 6.98348 44.4473 6.7168C44.6413 6.45006 44.8838 6.20749 45.1748 5.98926C45.4415 5.74681 45.781 5.57712 46.1689 5.43164C46.5569 5.28615 46.6054 5.21387 47.5996 5.21387ZM90.4707 15.7129C90.6404 15.7129 90.8106 15.7124 90.9561 15.7852C91.1258 15.8336 91.2714 15.8825 91.3926 15.9795C91.538 16.0522 91.6591 16.1493 91.7803 16.2705C91.9015 16.3917 91.9986 16.5128 92.0713 16.6582C92.144 16.8037 92.2171 16.9494 92.2656 17.1191C92.3141 17.2887 92.3378 17.4584 92.3379 17.6279C92.3379 17.7976 92.3383 17.9678 92.2656 18.1133C92.2171 18.283 92.1683 18.4286 92.0713 18.5498C91.9743 18.671 91.9014 18.8163 91.7803 18.9375C91.6591 19.0587 91.5379 19.1558 91.3926 19.2285C91.2471 19.3013 91.1014 19.3744 90.9316 19.4229C90.7621 19.4713 90.5924 19.4951 90.4229 19.4951C90.2531 19.4951 90.083 19.4956 89.9375 19.4229C89.7678 19.3744 89.6222 19.3255 89.501 19.2285C89.3555 19.1558 89.2345 19.0587 89.1133 18.9375C88.9921 18.8163 88.895 18.6953 88.8223 18.5498C88.7495 18.4043 88.6764 18.2586 88.6279 18.0889C88.5795 17.9193 88.5557 17.7497 88.5557 17.5801C88.5557 17.4103 88.5552 17.2402 88.6279 17.0947C88.6764 16.9251 88.7253 16.7794 88.8223 16.6582C88.895 16.5129 88.9921 16.3917 89.1133 16.2705C89.2345 16.1493 89.3555 16.0522 89.501 15.9795C89.6465 15.9068 89.7922 15.8336 89.9619 15.7852C90.1315 15.7367 90.3011 15.7129 90.4707 15.7129ZM27.4492 6.95898C28.2979 6.95899 29.1223 7.12911 29.874 7.44434C30.6257 7.75956 31.2802 8.19621 31.8379 8.75391V8.77832C32.3956 9.33602 32.8567 9.99052 33.1719 10.7422C33.4871 11.4939 33.6572 12.3185 33.6572 13.1914C33.6572 13.7733 33.5839 14.3309 33.4385 14.8643C33.293 15.3977 33.0744 15.9074 32.8076 16.3682C32.541 16.8287 32.2257 17.2411 31.8379 17.6289C31.45 18.0168 31.0378 18.332 30.5771 18.5986C30.1165 18.8653 29.6311 19.084 29.0977 19.2295C28.5886 19.3749 28.031 19.4473 27.4492 19.4473C26.8674 19.4473 26.3097 19.3749 25.7764 19.2295C25.2429 19.084 24.7332 18.8654 24.2725 18.5986C23.8118 18.3319 23.3996 18.0168 23.0117 17.6289C22.6239 17.2411 22.3087 16.8287 22.042 16.3682C21.7753 15.9074 21.5566 15.3977 21.4111 14.8643C21.2657 14.3309 21.1934 13.7732 21.1934 13.1914C21.1934 12.6094 21.2656 12.051 21.4111 11.5176C21.5566 10.96 21.7753 10.4753 22.042 10.0146C22.3087 9.554 22.6238 9.14183 23.0117 8.75391C23.3996 8.36602 23.8119 8.05087 24.2725 7.78418C24.7332 7.51745 25.2429 7.32323 25.7764 7.17773C26.3097 7.03229 26.6007 6.95898 27.4492 6.95898ZM6.01367 1.3584C12.2212 1.35841 16.8045 2.08512 19.0596 4.67969C20.2235 6.06183 20.9989 9.2385 20.5625 11.1299C19.5683 16.0037 13.7976 19.229 9.33594 19.3262C7.75995 19.3262 4.77795 19.3503 4.77734 17.7988C4.77734 16.247 4.65529 15.3251 4.65527 12.9248C4.65527 10.5242 4.89844 8.07459 4.89844 5.69824V5.55273C4.43838 5.52852 3.51843 5.57718 3.44336 5.50488C3.15245 5.18973 3.27338 2.62008 3.27344 2.06152C3.27344 1.53975 3.62146 1.48178 3.63672 1.47949C4.31566 1.45524 5.45578 1.3584 5.98926 1.3584H6.01367ZM82.3721 5.2373C83.1963 5.23733 83.9235 5.40754 84.5781 5.72266C85.2328 6.03789 85.7668 6.47435 86.2275 7.00781C86.6882 7.56551 87.0279 8.19641 87.2461 8.92383C87.4884 9.65106 87.5849 10.4268 87.585 11.251H87.6338V18.332C87.6338 18.5986 87.585 18.8165 87.4639 18.9619C87.3426 19.1074 87.1487 19.1807 86.9062 19.1807H84.4092C84.094 19.1807 83.8754 19.1321 83.7783 19.0352C83.6571 18.9382 83.6084 18.7197 83.6084 18.4287V11.3965C83.6084 11.0814 83.5361 10.7901 83.3906 10.5234C83.2452 10.2568 83.0754 9.98984 82.833 9.7959C82.5905 9.57767 82.3476 9.40835 82.0566 9.28711C81.7657 9.16587 81.4744 9.09277 81.1592 9.09277C80.8442 9.0928 80.6259 9.14155 80.3594 9.2627C80.0926 9.38394 79.8499 9.52981 79.6074 9.74805C79.3893 9.94201 79.1951 10.1847 79.0254 10.4756C78.8801 10.7421 78.7831 11.0571 78.7588 11.3721V18.4043C78.7588 18.5255 78.7593 18.6473 78.6865 18.7686C78.6138 18.8898 78.5648 18.9868 78.4678 19.0596C78.3708 19.108 78.2739 19.1564 78.2012 19.1807C78.1284 19.1807 78.0314 19.2051 77.9102 19.2051H75.4609C75.1458 19.2051 74.9277 19.1318 74.7822 18.9863C74.6368 18.8408 74.5879 18.6223 74.5879 18.3799V6.25586C74.5879 6.11047 74.6128 5.98934 74.6855 5.86816C74.7583 5.74702 74.8308 5.67428 74.9277 5.60156H74.8545C74.9514 5.55313 75.0486 5.50475 75.1455 5.48047C75.2424 5.48047 75.3396 5.45611 75.4365 5.45605H77.0615C77.1827 5.45605 77.3044 5.45558 77.4014 5.52832C77.4983 5.57682 77.5709 5.64996 77.6436 5.72266C77.7162 5.79538 77.7648 5.89232 77.7891 5.98926C77.8376 6.08625 77.8617 6.18345 77.9102 6.30469L78.1279 7.25C78.2249 7.03178 78.4196 6.78951 78.6621 6.57129C78.9044 6.32898 79.1952 6.11087 79.5586 5.91699C79.9223 5.723 80.3352 5.55288 80.7959 5.43164C81.2566 5.31042 81.7902 5.2373 82.3721 5.2373ZM38.0459 1.3584C38.1185 1.3584 38.1911 1.35798 38.2637 1.40625C38.3364 1.45475 38.4097 1.50343 38.4824 1.57617C38.5551 1.6489 38.6039 1.74583 38.6523 1.84277H38.6758C38.7243 1.93977 38.749 2.06137 38.749 2.18262V18.332C38.749 18.5985 38.6762 18.8165 38.5068 18.9619C38.3614 19.1074 38.1428 19.1806 37.9004 19.1807H35.4023C35.1115 19.1806 34.9181 19.1074 34.7969 18.9619C34.6757 18.8165 34.627 18.6229 34.627 18.332V2.18262C34.627 1.94013 34.6756 1.74608 34.7969 1.60059C34.9181 1.4552 35.1116 1.35847 35.4023 1.3584H38.0459ZM58.6084 1.3584C58.7781 1.3584 58.9479 1.40619 59.166 1.52734C59.263 1.60007 59.3363 1.69716 59.3848 1.81836C59.4333 1.9396 59.457 2.06121 59.457 2.1582V6.88672C59.6025 6.69275 59.7722 6.47425 60.0146 6.28027C60.257 6.08637 60.5238 5.91674 60.8389 5.74707C61.154 5.60161 61.494 5.45637 61.8818 5.35938C62.2698 5.26238 62.6583 5.21387 63.0947 5.21387C63.919 5.21392 64.6224 5.38306 65.2285 5.69824C65.8346 6.01343 66.3193 6.45007 66.7314 6.9834C67.1194 7.54111 67.4105 8.17196 67.6045 8.89941L67.5801 8.92383C67.774 9.6511 67.8711 10.4268 67.8711 11.251V18.332C67.8711 18.5987 67.8224 18.8165 67.7012 18.9619C67.5799 19.1074 67.386 19.1807 67.1436 19.1807H64.6465C64.3313 19.1807 64.1126 19.1322 64.0156 19.0352C63.8944 18.9381 63.8457 18.7196 63.8457 18.4287V11.2754C63.8457 10.9602 63.798 10.669 63.6768 10.4023C63.5555 10.1356 63.3854 9.8932 63.1914 9.69922C62.9974 9.50526 62.755 9.33526 62.4883 9.23828C62.2216 9.11708 61.9306 9.06936 61.6396 9.06934C61.3487 9.06934 61.1302 9.11785 60.8877 9.21484C60.6453 9.31184 60.4272 9.45744 60.209 9.65137C60.0151 9.84532 59.8447 10.0634 59.6992 10.3301C59.5539 10.5966 59.4813 10.8874 59.457 11.2266V18.3564C59.457 18.4775 59.4573 18.5987 59.3848 18.7197C59.3363 18.841 59.263 18.938 59.166 19.0107C59.0691 19.0592 58.9721 19.1076 58.8994 19.1318C58.8267 19.1318 58.7296 19.1562 58.6084 19.1562H56.1592C55.8442 19.1562 55.6259 19.0838 55.4805 18.9385C55.335 18.793 55.2862 18.5744 55.2861 18.332V2.18262C55.2861 1.94013 55.3592 1.74591 55.4805 1.57617C55.6259 1.43073 55.8441 1.35842 56.1592 1.3584H58.6084ZM72.4541 5.43164C72.5511 5.43164 72.6239 5.43198 72.7451 5.48047C72.842 5.52891 72.9392 5.5768 73.0361 5.64941C73.1331 5.72216 73.2064 5.82 73.2549 5.91699L73.2305 5.94043C73.3032 6.0374 73.3271 6.15906 73.3271 6.28027V18.332C73.3271 18.5984 73.2546 18.8165 73.1094 18.9619C72.9639 19.1074 72.7451 19.1807 72.4541 19.1807H69.9805C69.4474 19.1805 69.1808 18.9137 69.1807 18.3564V6.28027C69.1807 6.03782 69.2538 5.84355 69.375 5.67383C69.4962 5.50443 69.7141 5.43173 69.9805 5.43164H72.4541ZM90.4463 16.2705C90.3252 16.2705 90.2043 16.2709 90.1074 16.3193C89.9862 16.3436 89.889 16.3919 89.792 16.4404C89.6951 16.4889 89.5981 16.5612 89.5254 16.6338C89.4526 16.7065 89.3796 16.8044 89.3311 16.9014C89.2827 16.9981 89.2342 17.0949 89.21 17.2158C89.1857 17.3371 89.1611 17.4344 89.1611 17.5557C89.1611 17.6769 89.1615 17.7985 89.21 17.8955C89.2342 18.0164 89.2827 18.1132 89.3311 18.21C89.3796 18.307 89.4526 18.4048 89.5254 18.4775C89.5981 18.5502 89.6951 18.6225 89.792 18.6709C89.889 18.7194 89.9862 18.7677 90.1074 18.792C90.2285 18.8162 90.3253 18.8408 90.4463 18.8408C90.616 18.8408 90.7863 18.8169 90.9561 18.7441C91.1257 18.6714 91.247 18.5743 91.3682 18.4531C91.4893 18.332 91.5864 18.1864 91.6592 18.041C91.7319 17.8955 91.7559 17.7252 91.7559 17.5312C91.7559 17.3378 91.7562 17.289 91.708 17.1924C91.6838 17.0712 91.6344 16.9739 91.5859 16.877C91.5375 16.7801 91.4652 16.6831 91.3926 16.6104C91.3199 16.5377 91.2229 16.4645 91.126 16.416C91.029 16.3675 90.9317 16.3192 90.8105 16.2949C90.6893 16.2707 90.5919 16.2461 90.4707 16.2461L90.4463 16.2705ZM90.665 16.6826C90.7377 16.6826 90.8102 16.6831 90.8828 16.7314C90.9556 16.7557 91.0044 16.804 91.0771 16.8525C91.1498 16.901 91.174 16.9742 91.1982 17.0469C91.2224 17.1195 91.2471 17.192 91.2471 17.2646C91.2471 17.3859 91.2223 17.4829 91.1738 17.5557C91.1254 17.6525 91.0528 17.725 90.9561 17.7734L91.2715 18.4287C91.2715 18.4529 91.271 18.4775 91.2227 18.4775H90.7617C90.759 18.4775 90.713 18.4757 90.7129 18.4287L90.4463 17.8467H90.2773V18.4775H89.7432V16.6826H90.665ZM90.6406 17.1191C90.6164 17.0949 90.5916 17.1191 90.5674 17.1191H90.3008V17.4346H90.5674C90.6159 17.4346 90.6652 17.4342 90.6895 17.3857C90.7136 17.3614 90.7373 17.313 90.7373 17.2646H90.7129V17.2158C90.7128 17.2113 90.7121 17.1684 90.6895 17.168C90.6895 17.168 90.6649 17.1434 90.6406 17.1191ZM27.4004 10.1602C26.9883 10.1602 26.6001 10.2326 26.2607 10.4023C25.9213 10.5478 25.6301 10.7909 25.3877 11.0576C25.1454 11.3485 24.9513 11.6638 24.8301 12.0273C24.7089 12.391 24.6367 12.7793 24.6367 13.1914C24.6367 13.6035 24.7089 13.9918 24.8301 14.3555C24.9755 14.719 25.1453 15.0341 25.3877 15.3008C25.6302 15.5675 25.9213 15.7861 26.2607 15.9316C26.6001 16.1013 26.9883 16.1738 27.4004 16.1738C27.8124 16.1738 28.1763 16.077 28.5156 15.9316C28.8551 15.7861 29.1227 15.5675 29.3652 15.3008C29.6075 15.0342 29.7772 14.719 29.8984 14.3555C30.0197 13.9918 30.0918 13.6035 30.0918 13.1914C30.0918 12.7792 30.0196 12.391 29.8984 12.0273C29.7773 11.6638 29.6075 11.3243 29.3652 11.0576C29.1227 10.7909 28.8551 10.5721 28.5156 10.4023C28.1763 10.2328 27.8124 10.1602 27.4004 10.1602ZM47.333 8.89941C46.8966 8.89941 46.46 8.9719 46.0479 9.1416C45.6356 9.31134 45.2957 9.55375 44.9805 9.84473C44.6653 10.1357 44.4235 10.4998 44.2295 10.8877C44.0355 11.2757 43.9141 11.712 43.9141 12.1484V12.3184C43.9141 12.779 44.0109 13.2402 44.1807 13.6523C44.3504 14.0644 44.5931 14.428 44.9082 14.7432C45.2234 15.0583 45.5869 15.301 45.999 15.4707C46.4112 15.6404 46.8723 15.7373 47.333 15.7373C47.7936 15.7373 48.2058 15.6404 48.5938 15.4707C48.9817 15.301 49.3212 15.0583 49.5879 14.7432C49.8546 14.428 50.0733 14.0644 50.2188 13.6523V13.6279C50.3642 13.2157 50.4365 12.7547 50.4365 12.2939C50.4365 11.8332 50.3642 11.3966 50.2188 10.9844C50.0733 10.5722 49.8546 10.2088 49.5879 9.89355C49.2969 9.60257 48.9817 9.33575 48.5938 9.16602C48.2058 8.99629 47.7694 8.89943 47.333 8.89941ZM9.74805 5.72266C9.52981 5.72266 9.52961 5.86822 9.43262 6.30469C9.19014 7.51728 8.99645 13.1432 9.19043 14.9375H9.21387C11.8811 15.18 16.0281 13.264 16.0283 8.3418C16.0283 6.01408 11.1305 5.72269 9.74805 5.72266ZM30.9414 2.74023C31.8625 2.74044 32.4686 3.39503 32.4688 4.41309C32.4688 4.58276 32.4444 4.72859 32.4443 4.87402V4.9707H30.2617C30.3587 5.38293 30.6259 5.55273 31.0381 5.55273C31.4503 5.55272 31.7901 5.48044 32.0811 5.33496L32.25 5.23828V6.0625H32.1777C31.8383 6.20799 31.5955 6.28027 30.9893 6.28027C30.3831 6.28015 29.3889 5.74712 29.3887 4.53516C29.3887 3.32273 29.8986 2.71582 30.917 2.71582L30.9414 2.74023ZM26.6006 2.83691C26.843 2.7642 27.0857 2.71582 27.3281 2.71582L27.3525 2.74023C28.201 2.74039 28.71 3.29841 28.71 4.21973V6.23242H27.8857V4.19531C27.8857 3.56485 27.546 3.5166 27.2793 3.5166C27.0126 3.51663 26.7703 3.58921 26.6006 3.6377V6.20801H25.7764V1.55176H26.6006V2.83691ZM25.2188 2.47363H23.7637V6.20801H22.9395V2.47363H21.5088V1.69727H25.2188V2.47363ZM30.9287 3.46777C30.5479 3.47035 30.3093 3.59511 30.2373 4.1709H31.6201C31.548 3.83439 31.3804 3.47403 30.9287 3.46777ZM72.5029 0C72.7454 3.17875e-05 72.9639 0.0731202 73.1094 0.194336L73.085 0.169922C73.2303 0.291172 73.3271 0.509274 73.3271 0.824219V2.93359C73.3271 3.03052 73.3267 3.10351 73.2783 3.22461C73.2299 3.32146 73.1819 3.41878 73.1094 3.51562C73.0366 3.61262 72.9388 3.68604 72.8418 3.75879C72.7449 3.83126 72.6239 3.85545 72.5029 3.85547H70.0049C69.4716 3.85536 69.2051 3.5641 69.2051 2.95801V0.848633C69.2051 0.557683 69.2782 0.339816 69.3994 0.194336C69.5206 0.0731672 69.7383 5.47598e-05 70.0049 0H72.5029Z" fill="white"/>
</svg>
