<svg width="56" height="57" viewBox="0 0 56 57" fill="none" xmlns="http://www.w3.org/2000/svg">
<path d="M14.5525 56.5073C12.2472 56.3045 11.1377 54.81 11.0393 52.5861L11.0405 47.1572H12.9271L12.9274 52.7003C12.9983 54.2726 14.2897 55.0477 15.7712 54.6399C16.5298 54.4311 17.1356 53.6346 17.1356 52.8454V47.1572H19.0222C19.0049 49.1005 19.0582 51.0488 18.9929 52.9899C18.793 55.0034 17.5428 56.3583 15.4811 56.5072H14.5523L14.5525 56.5073Z" fill="#CACACA"/>
<path d="M31.0677 47.1575L33.1141 53.4679L35.2069 47.1558L36.7425 47.186L38.8318 53.4683L40.8781 47.1575H42.8228L39.6123 56.3647L38.0366 56.3599L35.9581 50.3417L33.8513 56.3599L32.2856 56.3495L29.0649 47.1575H31.0677Z" fill="#CACACA"/>
<path d="M2.33316 47.1572V50.8626H6.5708V47.1572H8.45742V56.3625H6.5708V52.6284H2.33316V56.3625H0.446533V47.1572H2.33316Z" fill="#CACACA"/>
<path d="M51.1529 47.1572V48.8362H46.1896V50.7178H49.6146V52.3967H46.1896V54.6836H51.327V56.3625H44.3756L44.332 56.3191V47.2007L44.3756 47.1572H51.1529Z" fill="#CACACA"/>
<path d="M29.7616 56.3627H27.7879L26.9329 54.4501L22.7118 54.4556L21.8959 56.3627H19.9802L24.0172 47.2032L24.1147 47.1558L25.6984 47.1715L29.7616 56.3627ZM26.2496 52.7731L24.8419 49.5027L23.4342 52.7731H26.2496Z" fill="#CACACA"/>
<path d="M55.4199 47.1572H53.5623V56.3625H55.4199V47.1572Z" fill="#CACACA"/>
<path d="M55.739 23.9707C55.7593 24.3716 55.7585 24.8721 55.739 25.2734C55.4885 30.4534 51.0936 34.6894 45.8862 34.7693H33.3158C32.9745 34.7131 33.0533 34.5106 33.2641 34.3389C33.934 33.7934 34.9889 33.2066 35.7433 32.7299C37.6933 31.4973 39.6807 30.3137 41.6715 29.1474C46.1502 26.5235 50.7003 24.0205 55.2604 21.5396C55.3938 21.9354 55.5028 22.3428 55.5801 22.7543C55.6537 23.1458 55.7194 23.5817 55.739 23.9709V23.9707Z" fill="#CF0A2C"/>
<path d="M0.011102 25.071C-0.00370068 24.8403 -0.00370068 24.5202 0.011102 24.2894C0.0305488 23.9843 0.0883085 23.578 0.131411 23.2658C0.209488 22.6999 0.359111 22.1473 0.504817 21.5972L0.592907 21.6103C8.04899 25.6752 15.5235 29.7416 22.6198 34.4082L22.7109 34.5809C22.7096 34.6733 22.6121 34.7579 22.5214 34.7699C21.8109 34.8635 20.925 34.6733 20.1993 34.7987C16.753 34.6839 13.2121 34.9466 9.7767 34.7985C4.41129 34.5672 0.348807 30.3495 0.011102 25.071Z" fill="#CF0A2C"/>
<path d="M23.6901 0.0104417C23.7775 0.00551935 23.793 -0.025028 23.8668 0.048662C23.9685 0.150293 24.184 0.574481 24.2624 0.725046C25.6142 3.32475 26.2739 7.04385 26.6237 9.94904C27.39 16.3149 27.1614 23.1361 26.5691 29.5137C26.5236 30.004 26.4967 30.5947 26.4166 31.0694C26.3899 31.2275 26.3092 31.3374 26.1326 31.2815C26.0454 31.2538 25.7688 30.8172 25.6921 30.707C23.6189 27.7303 21.6217 24.4977 19.8596 21.3267C17.9156 17.8285 15.2436 12.6966 15.1031 8.673C14.9639 4.68795 17.3839 1.42735 21.2574 0.479075C21.9344 0.313309 23.0165 0.0480829 23.6903 0.0102969L23.6901 0.0104417Z" fill="#CF0A2C"/>
<path d="M31.9883 0.00634766C34.166 0.31906 36.2179 0.717188 37.9316 2.17448C42.7142 6.24177 40.2266 12.6987 37.9718 17.4104C35.6631 22.2345 32.7174 26.7965 29.7325 31.2221C29.5413 31.4006 29.3965 31.2706 29.3579 31.0463C29.2448 30.3886 29.2113 29.5311 29.1525 28.8485C28.6858 23.4279 28.4903 17.8037 28.9205 12.3779C29.1858 9.03084 29.7262 5.24529 30.9302 2.10861C31.0386 1.82616 31.7956 0.0599141 31.9884 0.00634766H31.9883Z" fill="#CF0A2C"/>
<path d="M47.2197 7.3853C47.3272 7.37575 48.5285 8.76963 48.6851 8.96218C51.1334 11.9717 52.8463 15.8284 50.9366 19.6009C49.6136 22.2142 46.0857 24.5907 43.6506 26.1713C40.5873 28.1598 37.3065 29.9835 34.0579 31.6568C33.4592 31.9652 32.721 32.3984 32.1133 32.641C31.7968 32.7674 31.6653 32.6475 31.7882 32.317C32.0148 31.7079 32.4075 30.9848 32.6972 30.3866C34.3533 26.9676 36.2211 23.5993 38.1957 20.3546C40.9318 15.8586 43.9438 11.5044 47.2195 7.3853H47.2197Z" fill="#CF0A2C"/>
<path d="M8.55893 7.38428C11.827 11.4604 14.8026 15.7799 17.5252 20.2388C19.5214 23.5079 21.4109 26.9097 23.0817 30.3576C23.3791 30.9712 23.7879 31.7221 24.0197 32.3458C24.2611 32.9957 23.5725 32.5942 23.3174 32.4673C18.9507 30.2954 14.3501 27.7776 10.3637 24.9784C6.607 22.3405 2.91372 19.2634 4.3149 14.0933C5.00221 11.5574 6.75387 9.24014 8.55878 7.38428H8.55893Z" fill="#CF0A2C"/>
<path d="M50.6888 36.6499C49.4726 38.7627 47.6272 40.9322 45.1962 41.6362C43.2029 42.2134 41.906 41.6544 40.1811 40.7463C37.8268 39.5067 35.6176 37.9274 33.4336 36.4178C33.2659 36.2468 33.3894 36.0521 33.6097 36.0436C33.6643 36.0414 33.7205 36.0718 33.7806 36.0719C35.4547 36.0761 37.1309 36.1889 38.8019 36.2454L50.6888 36.6497V36.6499Z" fill="#CF0A2C"/>
<path d="M22.3813 36.1076C22.495 36.2219 22.4109 36.351 22.3125 36.4426C20.4071 37.7602 18.5022 39.0932 16.4879 40.2441C15.6792 40.7062 14.768 41.2193 13.8923 41.5345C10.1559 42.8789 6.77381 39.6767 5.11866 36.6654C5.11764 36.6356 5.24579 36.6214 5.27786 36.6193C5.74821 36.5883 6.2576 36.6096 6.73158 36.5929C11.6938 36.418 16.66 36.1913 21.6214 36.0719C21.8002 36.0675 22.2472 35.9731 22.3811 36.1076H22.3813Z" fill="#CF0A2C"/>
</svg>
