<svg width="46" height="63" viewBox="0 0 46 63" fill="none" xmlns="http://www.w3.org/2000/svg">
<path d="M6.81313 51.4748H5.81462C5.59024 50.1459 4.4308 49.699 3.20146 49.8224C0.37802 50.1052 0.191239 55.7627 3.43346 55.9634C4.91067 56.0549 6.00727 55.0342 5.99082 53.5411H3.58265V52.6556H6.87186V56.6701C6.05543 56.8283 6.17995 56.3177 5.99024 55.7261L5.60787 56.1376C1.90163 58.4808 -1.3077 54.3145 0.536607 50.7451C1.90633 48.0944 6.37261 48.3152 6.81313 51.4748Z" fill="white"/>
<path d="M16.2109 54.1909H12.1581C11.9525 55.573 13.6676 56.4845 14.7384 55.6922C15.0139 55.4885 15.1942 54.8993 15.2417 54.8993H16.0934C15.7645 57.2596 12.282 57.3789 11.4427 55.2937C10.6333 53.2823 11.7082 50.7874 14.1093 51.0785C15.6124 51.2609 16.2367 52.8331 16.2109 54.1909ZM15.2124 53.4234C15.1513 51.3642 12.1904 51.3542 12.1581 53.4234H15.2124Z" fill="white"/>
<path d="M21.7908 54.1907H17.7381C17.7498 54.8691 17.9877 55.512 18.6373 55.7959C19.2869 56.0799 20.2655 56.035 20.6414 55.3673C20.7218 55.2245 20.7677 54.8992 20.7923 54.8992H21.7321C21.4625 56.3822 20.1245 56.9855 18.7336 56.7027C16.1774 56.1838 16.1146 51.805 18.6784 51.1509C20.7048 50.6337 21.9013 52.3163 21.7908 54.1907ZM17.8262 53.4232H20.763C20.9268 53.4232 20.7207 52.8435 20.676 52.7431C20.1762 51.6138 18.5057 51.5606 17.9313 52.7024C17.8679 52.8287 17.6359 53.3666 17.8262 53.4232Z" fill="white"/>
<path d="M41.9373 52.7738H40.9975C40.9605 52.7738 40.9904 52.3717 40.6738 52.125C40.2592 51.8014 38.8536 51.7442 38.6815 52.3032C38.5165 52.8387 38.819 53.0241 39.2536 53.1977C40.1499 53.556 41.7423 53.4852 42.0964 54.5909C42.8688 57.0038 38.3655 57.5428 37.6648 55.5621C37.6284 55.4594 37.4757 54.8991 37.6196 54.8991H38.4712C38.51 54.8991 38.483 55.3555 38.7356 55.6076C39.357 56.2286 41.6271 56.094 41.1285 54.8554C40.8412 54.1417 38.4613 54.3046 37.8575 53.3618C37.4034 52.6533 37.7376 51.7341 38.4407 51.3557C39.6683 50.6957 41.922 51.0257 41.9367 52.7738H41.9373Z" fill="white"/>
<path d="M23.5529 51.1798V52.0063C23.6786 51.9319 23.7426 51.7294 23.8472 51.6231C24.7012 50.7553 26.6348 50.8362 27.0612 52.1108C27.117 52.2773 27.1787 52.5701 27.1939 52.7448C27.2691 53.6038 27.2991 55.6365 27.1975 56.4659C27.1816 56.597 27.1951 56.6419 27.0477 56.6696C26.9279 56.6926 26.3334 56.6915 26.28 56.6141C26.1138 56.3738 26.3634 53.1286 26.2412 52.5795C26.1191 52.2324 25.8289 51.9437 25.4565 51.8923C24.451 51.753 23.6968 52.3068 23.6093 53.3317C23.5699 53.7939 23.6845 56.4718 23.5858 56.6141C23.5235 56.7039 22.7582 56.7021 22.6971 56.6141L22.6713 51.3262C22.7224 51.0469 23.3409 51.2288 23.5523 51.1786L23.5529 51.1798Z" fill="white"/>
<path d="M31.0124 49.1138V55.785H34.9477V56.6705H30.0139V49.1138H31.0124Z" fill="white"/>
<path d="M44.4041 51.1801H45.4614V52.0066H44.4041V55.6374C44.4041 55.9267 45.422 55.8039 45.4619 55.8435C45.4919 55.8736 45.5013 56.6174 45.3656 56.6623C45.1506 56.7332 44.1609 56.6257 43.9342 56.523C43.7075 56.4203 43.4643 56.0383 43.4643 55.8145V52.0066H42.6127C42.4805 52.0066 42.4805 51.1801 42.6127 51.1801H43.4643V49.6156C43.4643 49.4816 44.4041 49.4816 44.4041 49.6156V51.1801Z" fill="white"/>
<path d="M11.0421 51.0615V52.0061C10.2562 52.0628 9.57607 52.2045 9.25126 53.0103C9.18313 53.1786 9.0451 53.707 9.0451 53.8658V56.6701H8.16406V51.1796H8.98637V52.3013L9.30765 51.8272C9.7605 51.277 10.3208 51.0119 11.0421 51.0615Z" fill="white"/>
<path d="M36.5923 51.1802H35.7113V56.6706H36.5923V51.1802Z" fill="white"/>
<path d="M44.1534 20.8476C45.0238 20.6687 45.5683 21.2449 45.4626 22.105C45.3234 23.2427 43.2588 23.2037 43.4697 21.6363C43.5132 21.311 43.828 20.9143 44.1534 20.8476Z" fill="white"/>
<path d="M22.659 0.00792933C23.738 -0.121362 24.2454 1.36519 23.2798 1.93313C21.8866 2.75374 20.9985 0.206294 22.659 0.00792933Z" fill="white"/>
<path d="M7.08683 37.876C6.2099 38.8307 4.6628 37.5124 5.54912 36.4781C6.43368 35.4455 8.01544 36.8653 7.08683 37.876Z" fill="white"/>
<path d="M12.554 41.2754C14.0911 41.0156 14.2221 43.2537 12.826 43.3234C11.5631 43.3865 11.404 41.4696 12.554 41.2754Z" fill="white"/>
<path d="M7.68245 6.02903C9.03221 5.89265 9.17024 7.92412 7.95382 8.07761C6.50715 8.26004 6.34269 6.16422 7.68245 6.02903Z" fill="white"/>
<path d="M34.2863 3.49173C35.804 3.23492 35.9585 5.46947 34.5582 5.53973C33.2713 5.60408 33.1439 3.68479 34.2863 3.49173Z" fill="white"/>
<path d="M18.4276 0.422242C19.9894 0.153033 20.0875 2.4602 18.6484 2.46197C17.4032 2.46315 17.3057 0.615883 18.4276 0.422242Z" fill="white"/>
<path d="M26.6506 0.422242C28.2124 0.153033 28.3105 2.4602 26.8715 2.46197C25.6263 2.46315 25.5288 0.615883 26.6506 0.422242Z" fill="white"/>
<path d="M1.98092 28.995C3.49337 28.7164 3.68073 30.9722 2.25286 31.0436C1.0012 31.1062 0.832629 29.2064 1.98092 28.995Z" fill="white"/>
<path d="M10.7919 3.49198C12.3484 3.22336 12.463 5.52994 11.0128 5.53171C9.76465 5.53289 9.67949 3.68385 10.7919 3.49198Z" fill="white"/>
<path d="M38.9258 36.198C40.4506 35.917 40.6192 38.1752 39.1977 38.2466C37.9478 38.3092 37.7816 36.4088 38.9258 36.198Z" fill="white"/>
<path d="M32.6435 41.2768C34.1201 41.2213 34.049 43.5864 32.4655 43.313C31.3671 43.1235 31.4259 41.3229 32.6435 41.2768Z" fill="white"/>
<path d="M16.4311 42.8099C17.8384 42.5868 18.0652 44.7009 16.7636 44.8579C15.3874 45.0244 15.2082 43.0042 16.4311 42.8099Z" fill="white"/>
<path d="M28.8256 42.812C30.139 42.7601 30.24 44.742 28.9866 44.863C27.537 45.0023 27.46 42.8664 28.8256 42.812Z" fill="white"/>
<path d="M9.02933 39.0318C9.95266 38.8405 10.6522 39.7036 10.1935 40.5561C9.71478 41.4458 8.25461 41.0739 8.27986 39.9947C8.28868 39.6109 8.65108 39.1097 9.02933 39.0318Z" fill="white"/>
<path d="M0.922494 24.9796C2.11718 24.711 2.78325 26.1119 1.84993 26.7973C1.04701 27.3871 -0.00964542 26.6155 0.281097 25.6331C0.354517 25.3858 0.668754 25.0368 0.923081 24.9796H0.922494Z" fill="white"/>
<path d="M41.2752 32.8329C42.1122 32.6599 42.7853 33.3194 42.5375 34.1607C42.2179 35.2463 40.4964 34.9706 40.5328 33.7988C40.5445 33.4274 40.9028 32.9097 41.2746 32.8329H41.2752Z" fill="white"/>
<path d="M43.6247 16.7151C45.1177 16.4045 45.3662 18.6444 43.9471 18.756C42.7137 18.8528 42.4728 16.9548 43.6247 16.7151Z" fill="white"/>
<path d="M40.1593 9.21729C41.0344 9.03723 41.6682 9.6825 41.4397 10.5633C41.1913 11.5221 39.3423 11.4991 39.4674 10.0568C39.4979 9.70907 39.808 9.28931 40.1587 9.21729H40.1593Z" fill="white"/>
<path d="M4.74154 9.21795C5.61259 9.03848 6.34209 9.68789 6.01846 10.561C5.63609 11.5936 4.09779 11.3639 4.04904 10.2393C4.03201 9.83961 4.32628 9.30414 4.74154 9.21854V9.21795Z" fill="white"/>
<path d="M42.5052 12.7683C43.8432 12.7423 43.8714 14.6971 42.672 14.8128C41.1878 14.9556 41.156 12.7949 42.5052 12.7683Z" fill="white"/>
<path d="M2.92484 12.7591C4.36739 12.6139 4.37855 15.0675 2.80384 14.7983C1.66847 14.6046 1.72956 12.8796 2.92484 12.7591Z" fill="white"/>
<path d="M25.53 43.8797C25.9629 44.293 25.8954 45.012 25.4636 45.3958C24.6061 46.1579 23.3022 45.1106 23.953 44.0544C24.2842 43.516 25.0877 43.4576 25.53 43.8797Z" fill="white"/>
<path d="M43.5436 25.2832C44.0282 24.8209 44.9515 24.9478 45.2111 25.6025C45.7168 26.8772 43.9436 27.6198 43.3727 26.5058C43.1741 26.1179 43.2223 25.5896 43.5436 25.2832Z" fill="white"/>
<path d="M1.3936 16.7155C2.19593 16.5667 2.74276 17.1098 2.64409 17.9133C2.50077 19.0829 0.402724 19.0285 0.649414 17.4434C0.69934 17.1234 1.08112 16.7733 1.3936 16.7155Z" fill="white"/>
<path d="M1.80009 21.0909C2.30287 21.6228 2.08731 22.624 1.35252 22.8136C0.115544 23.1329 -0.463005 21.461 0.583669 20.9191C0.969564 20.7195 1.49525 20.7679 1.80009 21.0909Z" fill="white"/>
<path d="M36.1077 39.0321C37.5514 38.9453 37.5555 41.305 35.9808 41.0789C34.8519 40.9166 34.9107 39.1041 36.1077 39.0321Z" fill="white"/>
<path d="M3.1921 34.5105C2.68932 33.9785 2.90488 32.9773 3.63966 32.7878C4.87664 32.4684 5.45519 34.1403 4.40852 34.6823C4.02262 34.8818 3.49694 34.8334 3.1921 34.5105Z" fill="white"/>
<path d="M30.5859 1.60307C31.3947 1.46375 31.9356 1.98445 31.8358 2.80093C31.7318 3.6493 30.5036 3.9067 30.0132 3.21301C29.6185 2.65393 29.8828 1.7241 30.5853 1.60307H30.5859Z" fill="white"/>
<path d="M44.0323 30.7919C43.6212 31.2058 42.9011 31.155 42.5234 30.7246C41.815 29.9182 42.6708 28.6967 43.7134 29.1153C44.3595 29.3745 44.4975 30.3238 44.0323 30.7919Z" fill="white"/>
<path d="M20.7647 43.5958C22.0469 43.656 22.0087 45.828 20.4746 45.6249C19.311 45.4708 19.392 43.5315 20.7647 43.5958Z" fill="white"/>
<path d="M14.3742 1.60137C15.1701 1.43784 15.7562 1.92371 15.6852 2.74256C15.58 3.94987 13.5995 3.91385 13.6829 2.50169C13.7046 2.13625 14.0036 1.67812 14.3748 1.60196L14.3742 1.60137Z" fill="white"/>
<path d="M37.0233 6.33085C37.1584 6.19506 37.4263 6.08939 37.6172 6.07227C39.2676 5.92468 39.085 8.40246 37.4703 8.05591C36.7308 7.8971 36.5247 6.83207 37.0233 6.33085Z" fill="white"/>
<path d="M20.7923 60.5661C20.2208 60.7485 20.2507 60.1281 19.7656 60.1493C18.9879 60.183 19.0272 61.7976 19.8766 61.6872C20.2824 61.6347 20.2654 61.2197 20.3283 61.1636C20.3717 61.1246 20.6942 61.176 20.7923 61.1571C20.6889 62.6489 18.5914 62.3402 18.6766 60.8347C18.7506 59.5306 20.5885 59.2555 20.7917 60.5667L20.7923 60.5661Z" fill="white"/>
<path d="M37.9338 59.8088C38.0372 59.8726 38.658 61.822 38.7655 62.1012C38.6204 62.0888 38.4272 62.1384 38.295 62.0729C38.1276 61.9902 38.1729 61.6289 38.0237 61.5781C37.9162 61.5415 37.2754 61.5468 37.2084 61.6283C37.0011 61.8798 37.286 62.2311 36.5923 62.1012L37.3611 59.8926C37.4105 59.7627 37.8698 59.7692 37.9338 59.8088ZM37.9432 61.1566L37.6501 60.3903L37.4146 61.1572H37.9432V61.1566Z" fill="white"/>
<path d="M1.85 59.799C2.30403 59.8905 2.46144 60.5157 2.24353 60.903C1.93928 61.4444 1.11815 61.213 1.05648 61.2744C1.01536 61.3157 1.11463 61.9249 1.03122 62.046C0.980122 62.1198 0.528442 62.1269 0.528442 62.1015V59.799C0.916099 59.8528 1.48877 59.7264 1.85 59.799ZM1.09466 60.1615C0.94488 60.2111 0.965438 60.7743 1.05354 60.8357C1.17982 60.9237 1.66087 60.867 1.76601 60.7182C2.06439 60.2961 1.43885 60.047 1.09466 60.1615Z" fill="white"/>
<path d="M15.6235 59.7987V62.1011C15.4068 62.0763 15.1501 62.2115 15.2118 61.9234C13.5819 62.8603 13.5043 59.693 15.153 60.5065C15.1724 60.3955 15.1284 59.8229 15.153 59.7981C15.1736 59.7774 15.5366 59.8134 15.6235 59.7981V59.7987ZM14.6673 60.7551C14.289 60.8684 14.3501 61.9045 14.9351 61.7363C15.2911 61.6341 15.2946 60.5667 14.6673 60.7551Z" fill="white"/>
<path d="M35.3589 59.7991V62.1015C35.1421 62.0767 34.8855 62.2125 34.9471 61.9238C33.3284 62.8696 33.2491 59.6833 34.8884 60.5075C34.9078 60.3965 34.8637 59.8239 34.8884 59.7991C34.909 59.7784 35.2719 59.8144 35.3589 59.7991ZM34.4027 60.7555C34.0908 60.8487 34.096 61.5714 34.3745 61.703C35.0752 62.0342 35.1351 60.5358 34.4027 60.7555Z" fill="white"/>
<path d="M43.6406 62.102C43.462 62.1958 43.1619 61.988 43.0925 61.9945C43.0291 61.9998 42.9457 62.0866 42.8447 62.099C42.1105 62.1917 41.7581 61.5087 42.2943 61.191C42.3666 61.1479 43.6053 60.9779 43.0526 60.7152C42.6732 60.5345 42.6092 60.9059 42.5428 60.9224C42.4253 60.9513 42.2444 60.9018 42.114 60.9206C42.0441 60.1845 43.6411 60.2228 43.6411 60.7146V62.102H43.6406ZM43.1701 61.2755C42.9997 61.3186 42.3678 61.3965 42.551 61.6905C42.7489 62.0069 43.3116 61.6622 43.1701 61.2755Z" fill="white"/>
<path d="M41.8198 61.3341H40.6451C40.6146 61.6659 40.8677 61.8241 41.1773 61.7214C41.2618 61.6931 41.8486 61.2397 41.7511 61.6488C41.5961 62.3006 40.2674 62.3313 40.1752 61.3642C40.0484 60.0365 41.9238 60.0058 41.8198 61.3341ZM41.3499 61.0384C41.2425 60.7538 41.0157 60.5885 40.7461 60.8004C40.6046 60.912 40.5658 61.0224 40.7914 61.0389C40.9758 61.0525 41.1655 61.0301 41.3499 61.0389V61.0384Z" fill="white"/>
<path d="M8.69271 61.3343H7.51799C7.50448 61.5008 7.58847 61.6679 7.74941 61.7216C8.19228 61.8698 8.19874 61.404 8.63397 61.512C8.58933 62.2595 7.44398 62.3002 7.14267 61.6827C6.47719 60.3177 8.78199 59.7197 8.69271 61.3349V61.3343ZM8.22282 61.0386C8.38728 60.888 7.72591 60.4411 7.51858 60.9512C7.46924 61.0722 7.59904 61.0344 7.66424 61.0392C7.75234 61.0456 8.20226 61.0575 8.22282 61.0392V61.0386Z" fill="white"/>
<path d="M13.6853 61.3338H12.5106C12.4971 61.5003 12.5811 61.6673 12.742 61.7211C13.1849 61.8693 13.1913 61.4035 13.6266 61.5115C13.589 62.2489 12.4254 62.3132 12.1353 61.6821C11.4962 60.2936 13.7546 59.7309 13.6853 61.3344V61.3338ZM13.2154 61.038C13.3799 60.8875 12.7185 60.4406 12.5112 60.9506C12.4618 61.0717 12.5917 61.0339 12.6568 61.0386C12.745 61.0451 13.1949 61.0569 13.2154 61.0386V61.038Z" fill="white"/>
<path d="M33.4205 61.334H32.2458C32.2323 61.5005 32.3163 61.6676 32.4772 61.7213C32.9201 61.8695 32.9266 61.4037 33.3618 61.5117C33.2308 62.4628 31.7712 62.2532 31.7712 61.246C31.7712 60.0163 33.5674 60.0883 33.4205 61.3346V61.334ZM32.9507 61.0382C33.1304 60.8735 32.3786 60.4437 32.2464 61.0093C32.3463 61.0441 32.9248 61.0618 32.9507 61.0382Z" fill="white"/>
<path d="M28.4867 61.3339H27.312C27.2985 61.5004 27.3825 61.6675 27.5434 61.7212C27.9863 61.8694 27.9928 61.4036 28.428 61.5116C28.4168 62.1988 27.3425 62.2986 27.0048 61.7909C26.1197 60.4584 28.5419 59.5971 28.4867 61.3345V61.3339ZM28.0168 61.0382C28.1813 60.8876 27.5199 60.4407 27.3126 60.9508C27.2633 61.0718 27.3931 61.034 27.4583 61.0388C27.5464 61.0453 27.9963 61.0571 28.0168 61.0388V61.0382Z" fill="white"/>
<path d="M24.7276 62.1015C24.7106 62.118 24.3352 62.1216 24.2836 62.046C24.1079 61.7927 24.5185 60.7637 23.9952 60.7401C23.3919 60.7129 23.8213 61.7921 23.6451 62.046C23.5934 62.121 23.201 62.1239 23.201 62.1015V60.3894C23.4143 60.4107 23.6404 60.2837 23.641 60.5665C23.8794 60.3599 24.2454 60.2583 24.525 60.4461C24.5702 60.4762 24.7276 60.6828 24.7276 60.7141C24.7276 60.9072 24.7763 62.0525 24.7276 62.1015Z" fill="white"/>
<path d="M4.68394 60.3437C5.88802 60.28 5.96086 62.3321 4.50714 62.0865C3.58969 61.9318 3.65841 60.3981 4.68394 60.3437ZM4.72799 60.7104C4.21699 60.7104 4.22521 61.6833 4.61345 61.7476C5.30478 61.8616 5.2572 60.7104 4.72799 60.7104Z" fill="white"/>
<path d="M21.896 60.3428C23.1629 60.2436 23.1882 62.3217 21.765 62.0974C20.8787 61.9581 20.9045 60.4201 21.896 60.3428ZM21.9471 60.697C21.4807 60.7401 21.412 61.7857 21.9964 61.7532C22.5503 61.7231 22.4751 60.648 21.9471 60.697Z" fill="white"/>
<path d="M45.4613 60.9201C45.328 60.9006 45.1453 60.9484 45.0249 60.9242C44.9627 60.9118 45.0097 60.8026 44.9803 60.7595C44.918 60.6686 44.4922 60.6367 44.4634 60.7736C44.3918 61.1137 45.5671 60.9224 45.5095 61.5842C45.4478 62.298 43.9683 62.3157 43.9342 61.511C44.0646 61.5299 44.2455 61.4803 44.363 61.5092C44.4158 61.5222 44.444 61.6574 44.521 61.7159C44.8587 61.9739 45.1688 61.612 44.9779 61.4644C44.7683 61.302 43.9941 61.4248 43.9877 60.8917C43.9788 60.1644 45.4543 60.1549 45.4608 60.9201H45.4613Z" fill="white"/>
<path d="M26.5491 60.9207C26.5361 60.9343 26.2319 60.9307 26.1743 60.9112C26.0968 60.8853 26.0915 60.7743 26.0387 60.7406C25.7538 60.5605 25.4254 60.8014 25.708 60.9685C25.9905 61.1356 26.6507 60.9939 26.6055 61.5919C26.5602 62.19 25.735 62.2171 25.3326 61.9951C24.9849 61.8033 24.9438 61.3463 25.4531 61.5199C25.587 61.5654 25.6298 61.9385 26.0052 61.762C26.5737 61.4945 25.4519 61.3097 25.3579 61.2613C24.6678 60.9065 25.4137 60.0812 26.1967 60.4189C26.3347 60.4785 26.68 60.7855 26.5491 60.9201V60.9207Z" fill="white"/>
<path d="M10.631 60.9797C10.5006 60.9649 10.3185 61.0127 10.1993 60.9714C10.0724 60.9271 10.1529 60.7394 9.83807 60.7382C9.19549 60.7359 9.38991 62.0128 9.98491 61.7194C10.1617 61.632 10.1359 61.1285 10.6281 61.4815C10.2774 62.5518 8.79961 62.2283 9.00049 61.024C9.14851 60.1396 10.4477 60.1189 10.631 60.9797Z" fill="white"/>
<path d="M30.4784 60.396C30.5219 60.4338 30.7433 61.4534 30.8074 61.4534C30.9419 61.3211 31.0834 60.442 31.1363 60.396C31.1803 60.3576 31.5028 60.4096 31.6003 60.3901C31.6385 60.4267 31.3401 61.2804 31.2919 61.4085C31.2367 61.5561 31.0834 62.0579 30.9742 62.0927C30.9078 62.114 30.5941 62.1216 30.5507 62.0939C30.4837 62.0508 30.0596 60.7313 30.0273 60.5831C30.0132 60.5188 30.0085 60.4556 30.0138 60.3901C30.1119 60.409 30.4344 60.3576 30.4784 60.396Z" fill="white"/>
<path d="M11.512 61.5994C11.5543 61.7351 11.8451 61.6696 11.8644 61.6879C11.8803 61.7033 11.8826 62.0232 11.8092 62.0752C11.6618 62.1791 11.2007 62.0604 11.0962 61.8987C10.9576 61.6838 11.0973 60.8012 11.0392 60.7457C11.0016 60.7097 10.7156 60.8207 10.7443 60.5367C10.7655 60.3236 11.0057 60.4186 11.0392 60.3867C11.0709 60.3566 11.0145 59.9434 11.041 59.9162C11.0574 59.8997 11.495 59.8997 11.5114 59.9162C11.5361 59.941 11.4862 60.3649 11.5108 60.3891C11.6042 60.4818 11.9443 60.1518 11.8644 60.7091C11.8539 60.7846 11.5108 60.7238 11.5108 60.7427C11.5108 60.9293 11.4721 61.4748 11.5108 61.5988L11.512 61.5994Z" fill="white"/>
<path d="M6.51947 61.5994C6.56175 61.7351 6.8525 61.6696 6.87188 61.6879C6.88774 61.7033 6.89009 62.0232 6.81667 62.0752C6.66924 62.1791 6.20816 62.0604 6.10362 61.8987C5.965 61.6838 6.10479 60.8012 6.04664 60.7457C6.00905 60.7097 5.72301 60.8207 5.75179 60.5367C5.77293 60.3236 6.01316 60.4186 6.04664 60.3867C6.07836 60.3566 6.02197 59.9434 6.0484 59.9162C6.06485 59.8997 6.50243 59.8997 6.51888 59.9162C6.54355 59.941 6.49362 60.3649 6.51829 60.3891C6.61168 60.4818 6.95176 60.1518 6.87188 60.7091C6.86131 60.7846 6.51829 60.7238 6.51829 60.7427C6.51829 60.9293 6.47952 61.4748 6.51829 61.5988L6.51947 61.5994Z" fill="white"/>
<path d="M17.3856 59.5629V62.7509C17.3856 62.7686 17.0332 62.7686 17.0332 62.7509V59.5629C17.0332 59.5452 17.3269 59.5753 17.3856 59.5629Z" fill="white"/>
<path d="M3.11286 62.1016C3.09348 62.1211 2.69525 62.14 2.6512 62.0048C2.62359 61.9203 2.62359 60.5708 2.6512 60.4863C2.69525 60.3506 3.09583 60.3712 3.11345 60.3889C3.13107 60.4066 3.10229 60.569 3.11345 60.6257C3.29788 60.4828 3.50522 60.2838 3.75308 60.3954C3.75719 60.471 3.77364 60.7886 3.75896 60.8028C3.74134 60.8199 3.44883 60.7644 3.28907 60.8913C3.21741 60.948 3.11286 61.1753 3.11286 61.2456C3.11286 61.3695 3.14282 62.0715 3.11286 62.1016Z" fill="white"/>
<path d="M28.8392 60.3897C28.8539 60.3749 29.2362 60.3744 29.2509 60.3897C29.2762 60.4157 29.208 60.5987 29.2797 60.6259C29.4418 60.4487 29.8571 60.1689 29.8994 60.5355C29.9452 60.9352 29.8453 60.7481 29.588 60.8189C29.06 60.9647 29.4524 61.8036 29.2838 62.0469C29.2321 62.1218 28.8398 62.1248 28.8398 62.1024C28.8398 61.8715 28.7793 60.4505 28.8398 60.3903L28.8392 60.3897Z" fill="white"/>
<path d="M39.0004 60.3897C39.0151 60.3749 39.3975 60.3744 39.4122 60.3897C39.4374 60.4157 39.3693 60.5987 39.4409 60.6259C39.6031 60.4487 40.0183 60.1689 40.0606 60.5355C40.1064 60.9352 40.0066 60.7481 39.7493 60.8189C39.2213 60.9647 39.6136 61.8036 39.4451 62.0469C39.3934 62.1218 39.001 62.1248 39.001 62.1024C39.001 61.8715 38.9405 60.4505 39.001 60.3903L39.0004 60.3897Z" fill="white"/>
<path d="M36.5923 49.1138H35.7113V50.2355H36.5923V49.1138Z" fill="white"/>
<path d="M20.6631 4.73449C21.3098 4.67427 21.8971 4.8809 22.5262 4.95234C23.7967 5.09639 25.0736 5.2121 26.3429 5.36678C27.8829 5.55511 28.4386 6.07345 29.7478 6.49025C30.1948 6.63253 30.6676 6.64906 31.1198 6.76418C32.0044 6.98794 33.713 8.10905 34.3321 8.78975C34.7327 9.23016 35.0252 9.86481 35.4457 10.268C35.8681 10.673 36.5112 10.9505 36.9459 11.3579C38.1253 12.4648 38.6551 14.6456 39.3223 16.0537C39.7029 16.856 40.4406 17.4735 40.527 18.4435C40.5781 19.0161 40.3502 19.5091 40.2997 20.0446C40.2245 20.8433 40.5716 21.8564 40.6445 22.6947C40.7102 23.4557 40.7831 24.7309 40.6274 25.4518C40.4953 26.0628 40.1106 26.5876 39.912 27.1532C39.428 28.5305 39.2941 29.523 38.6198 30.9316C38.2527 31.6991 38.006 32.2723 37.6777 33.0546C36.718 35.3417 33.5174 37.6441 31.3272 38.656C30.1061 39.2198 28.0221 40.1744 26.7458 40.3681C26.2512 40.443 25.7355 40.4324 25.2427 40.5103C24.4351 40.6379 23.587 41.0836 22.7606 41.0246C21.9976 40.9702 21.3192 40.4407 20.5709 40.2742C19.3492 40.0032 18.1257 39.8828 16.8934 39.7198C15.5313 39.5392 12.8089 38.065 11.7464 37.1594C11.1244 36.6292 10.6633 35.9179 10.0748 35.3564C9.64541 34.9473 9.12324 34.6244 8.72149 34.178C7.48921 32.8101 6.7462 30.8513 6.25576 29.0997C6.07955 28.4715 6.04255 27.7808 5.81641 27.1798C5.65548 26.7518 5.34829 26.3609 5.17737 25.9329C4.83846 25.0828 4.70924 23.2568 4.82378 22.347C4.90777 21.6793 5.2731 21.0393 5.3383 20.3846C5.38588 19.9082 5.31011 19.3898 5.343 18.9134C5.42406 17.7244 6.71507 14.1043 7.46161 13.191C7.82401 12.7476 8.34382 12.3574 8.72325 11.9205C9.82749 10.65 10.8154 9.21717 12.258 8.27081C13.5478 7.42481 14.7243 7.12785 16.0928 6.57586C16.6179 6.36391 17.0831 6.00025 17.5806 5.76882C18.2367 5.4636 19.987 4.79766 20.6631 4.73449ZM20.5421 6.14843C20.145 6.21042 18.8188 6.74824 18.3853 6.93244C17.8514 7.15914 17.3856 7.52222 16.8552 7.75601C15.5078 8.35051 14.2644 8.5719 12.9728 9.46218C11.4868 10.4865 10.7068 11.8479 9.54556 13.1018C9.24424 13.4271 8.85776 13.6703 8.577 14.0175C7.99023 14.7436 6.94003 17.6294 6.78086 18.5881C6.66926 19.2594 6.7697 19.9542 6.68864 20.6208C6.60935 21.2749 6.25869 21.9231 6.18234 22.5324C6.10774 23.1222 6.19643 24.2108 6.29159 24.8124C6.42609 25.6608 7.03459 26.3267 7.26601 27.1981C7.83575 29.347 8.09125 31.2303 9.57492 33.0244C10.1323 33.6981 10.9493 34.2577 11.5725 34.913C11.9161 35.2744 12.1851 35.7041 12.5687 36.0371C13.5478 36.8861 16.0329 38.2345 17.2981 38.3679C18.4881 38.493 19.6863 38.6589 20.8646 38.9158C21.6951 39.097 22.3911 39.6874 23.2298 39.6077C23.7491 39.5581 24.3846 39.2446 24.9496 39.1525C25.7067 39.0285 26.4956 39.0663 27.2409 38.8579C30.5137 37.5532 34.2499 36.0914 36.2058 32.9324C36.4912 32.4713 36.5946 31.8685 36.8172 31.3626C37.1608 30.5833 37.6671 29.8542 37.972 29.04C38.251 28.295 38.3403 27.5021 38.5875 26.7659C38.9159 25.7883 39.3863 25.4494 39.3558 24.2858C39.3411 23.7356 39.2882 22.948 39.2348 22.4001C39.1731 21.7661 38.8836 21.0051 38.8783 20.3917C38.873 19.7807 39.1819 19.1059 39.1185 18.5025C39.0692 18.0355 38.5435 17.4936 38.3074 17.0744C37.5127 15.6646 37.0898 13.2866 35.7982 12.2168C35.2689 11.7782 34.7309 11.5668 34.2417 11.0066C33.871 10.5833 33.5832 9.97049 33.1885 9.58556C32.8332 9.2402 31.4664 8.33575 31.0118 8.17222C30.5025 7.9892 29.8664 7.97917 29.3225 7.80383C28.5484 7.55469 27.8365 7.04048 27.0213 6.86986C26.3458 6.72817 25.6275 6.74529 24.942 6.65733C24.014 6.53807 23.1165 6.40288 22.1808 6.3037C21.6099 6.24289 21.1623 6.05161 20.5427 6.14843H20.5421Z" fill="#4CB3BB"/>
<path d="M20.5421 6.14846C21.1617 6.05164 21.6093 6.24292 22.1802 6.30373C23.1159 6.40291 24.0134 6.53811 24.9414 6.65736C25.6268 6.74533 26.3452 6.7288 27.0206 6.86989C27.8359 7.04051 28.5478 7.55472 29.3219 7.80386C29.8658 7.9792 30.5019 7.98983 31.0112 8.17225C31.4664 8.33578 32.8331 9.23964 33.1879 9.5856C33.5832 9.96993 33.871 10.5833 34.241 11.0066C34.7309 11.5663 35.2683 11.7776 35.7975 12.2169C37.0886 13.2872 37.512 15.6652 38.3067 17.0744C38.5429 17.493 39.0686 18.0356 39.1179 18.5026C39.1819 19.1065 38.8724 19.7813 38.8777 20.3917C38.8829 21.0051 39.1725 21.7661 39.2342 22.4002C39.2876 22.9486 39.3405 23.7356 39.3552 24.2858C39.3863 25.4494 38.9158 25.7883 38.5869 26.766C38.3396 27.5022 38.2504 28.295 37.9714 29.0401C37.6665 29.8542 37.1602 30.5833 36.8166 31.3626C36.5934 31.8685 36.4906 32.4713 36.2052 32.9324C34.2493 36.0915 30.5131 37.5532 27.2403 38.8579C26.495 39.0663 25.7061 39.0291 24.949 39.1525C24.384 39.2446 23.7485 39.5587 23.2292 39.6077C22.3905 39.6874 21.6945 39.097 20.8639 38.9158C19.6857 38.659 18.4881 38.4931 17.2975 38.3679C16.0323 38.2345 13.5466 36.8867 12.5681 36.0371C12.1845 35.7048 11.9155 35.2744 11.5719 34.9131C10.9487 34.2578 10.1317 33.6981 9.57431 33.0245C8.09064 31.2303 7.83514 29.3471 7.2654 27.1981C7.03457 26.3267 6.42548 25.6602 6.29097 24.8124C6.19523 24.2108 6.10713 23.1216 6.18172 22.5324C6.25867 21.9232 6.60873 21.2749 6.68803 20.6208C6.76908 19.9543 6.66864 19.2594 6.78024 18.5882C6.93942 17.6294 7.98962 14.7437 8.57639 14.0175C8.85714 13.6704 9.24304 13.4271 9.54494 13.1018C10.7062 11.8479 11.4868 10.4865 12.9722 9.46221C14.2638 8.57193 15.5072 8.35054 16.8546 7.75604C17.385 7.52225 17.8508 7.15918 18.3847 6.93247C18.8182 6.74828 20.1444 6.21045 20.5415 6.14846H20.5421ZM21.3103 9.33764C20.7752 9.36834 19.4325 9.87842 18.9139 10.1199C18.612 10.2604 18.3242 10.4948 18.0129 10.6311C17.0091 11.071 16.1339 11.2687 15.136 11.8721C13.8579 12.6443 13.1314 13.8717 12.1599 14.9025C11.9707 15.1032 11.734 15.2425 11.5408 15.461C10.8459 16.2444 9.87915 18.9258 9.80632 19.9755C9.78224 20.3227 9.84273 20.6887 9.80221 21.0341C9.74523 21.5241 9.45684 22.0631 9.40456 22.5826C9.347 23.1523 9.44568 24.3614 9.59076 24.9199C9.70353 25.3556 10.0107 25.7009 10.1623 26.1166C10.537 27.1444 10.6333 28.3505 11.1179 29.4067C11.7058 30.6884 12.2891 31.1813 13.2465 32.1082C13.9678 32.8066 14.3677 33.4183 15.2406 34.0004C16.232 34.6616 17.5242 35.3122 18.7077 35.4745C19.5124 35.5849 20.3582 35.6558 21.1594 35.8441C21.7749 35.9893 22.2994 36.438 22.9919 36.4215C23.5176 36.4091 24.1332 36.1086 24.6548 36.0212C24.9549 35.971 25.3243 35.9864 25.6309 35.9397C26.983 35.7355 29.4406 34.612 30.6411 33.8911C31.6502 33.2848 33.3465 31.6926 33.8628 30.6353C34.0272 30.2982 34.1065 29.8884 34.2587 29.5572C34.56 28.9031 34.9647 28.2986 35.1996 27.6102C35.3653 27.1249 35.424 26.5971 35.5914 26.1148C35.7218 25.7393 35.9873 25.3573 36.0942 24.9671C36.4337 23.7267 35.9244 22.2992 35.8851 21.102C35.858 20.2837 36.2434 19.9224 35.898 19.0227C35.7306 18.587 35.3893 18.2481 35.1902 17.8449C34.6328 16.7196 34.3526 15.2785 33.4528 14.3369C33.1533 14.0234 32.6804 13.8221 32.3633 13.5429C31.7847 13.0345 31.5803 12.4206 30.8555 11.8703C29.7078 10.9989 29.3577 11.0432 28.0638 10.6618C27.2908 10.434 26.7563 9.98882 25.8671 9.85894C25.1176 9.74972 24.3282 9.65349 23.5764 9.56375C22.9831 9.49291 21.8478 9.30576 21.3109 9.33646L21.3103 9.33764Z" fill="#9ED3B7"/>
<path d="M21.3104 9.33784C21.8472 9.30715 22.9826 9.49429 23.5758 9.56514C24.3276 9.65487 25.117 9.7511 25.8665 9.86032C26.7558 9.98961 27.2903 10.4353 28.0632 10.6632C29.3572 11.0446 29.7072 11.0009 30.8549 11.8717C31.5797 12.4219 31.7847 13.0353 32.3627 13.5442C32.6799 13.8235 33.1527 14.0248 33.4522 14.3383C34.3521 15.2799 34.6322 16.721 35.1897 17.8463C35.3894 18.2489 35.7306 18.5878 35.8974 19.0241C36.2428 19.9238 35.8569 20.2851 35.8845 21.1033C35.9244 22.3006 36.4337 23.7281 36.0936 24.9685C35.9867 25.3587 35.7212 25.7407 35.5908 26.1162C35.4234 26.5985 35.3641 27.1263 35.1991 27.6116C34.9641 28.3 34.5594 28.9045 34.2581 29.5586C34.106 29.8892 34.0267 30.2995 33.8622 30.6366C33.3453 31.694 31.6496 33.2862 30.6406 33.8925C29.44 34.6134 26.9825 35.7374 25.6304 35.9411C25.3238 35.9872 24.9537 35.9724 24.6542 36.0226C24.1332 36.11 23.5177 36.4099 22.9914 36.4229C22.2989 36.4394 21.7744 35.9907 21.1588 35.8455C20.3577 35.6566 19.5119 35.5857 18.7072 35.4759C17.5236 35.3136 16.2315 34.663 15.24 34.0017C14.3672 33.4196 13.9666 32.808 13.2459 32.1096C12.2885 31.1827 11.7053 30.6898 11.1173 29.4081C10.6328 28.3519 10.5364 27.1458 10.1617 26.1179C10.0102 25.7023 9.70355 25.357 9.59019 24.9213C9.44511 24.3628 9.34644 23.1537 9.404 22.584C9.45627 22.065 9.74467 21.5254 9.80164 21.0354C9.84158 20.6895 9.78167 20.3235 9.80575 19.9769C9.878 18.9272 10.8454 16.2458 11.5402 15.4623C11.7335 15.2445 11.9702 15.1046 12.1593 14.9039C13.1302 13.8725 13.8568 12.6457 15.1354 11.8735C16.1334 11.2707 17.0085 11.0729 18.0123 10.6325C18.3236 10.4962 18.6109 10.2618 18.9133 10.1213C19.4326 9.8798 20.7747 9.36972 21.3098 9.33902L21.3104 9.33784ZM22.6719 10.9165C22.3453 10.8811 21.9529 10.809 21.6469 10.7961C20.6226 10.7524 19.3615 11.6267 18.4423 12.0081C18.0053 12.1893 17.5225 12.2773 17.0796 12.4686C15.2752 13.2502 14.309 14.5431 13.0597 15.9553C12.2638 16.8544 12.0354 17.3734 11.6442 18.5175C11.2847 19.5701 11.2407 20.0171 11.2184 21.1299C11.1273 21.1706 11.1655 21.2893 11.1596 21.366C11.1085 22.0397 10.8037 22.4895 10.8072 23.2552C10.8078 23.4028 10.762 23.6301 10.8659 23.7275C10.8677 23.8249 10.8577 23.9265 10.8659 24.0227C10.8771 24.155 10.9112 24.1933 10.9247 24.2589C11.0386 24.8038 11.3288 25.148 11.5132 25.6451C11.9073 26.706 11.9919 27.9782 12.5152 29.0533C12.9687 29.9849 13.6048 30.4578 14.3032 31.1632C15.4368 32.3092 15.8937 32.8747 17.4232 33.5785C18.2449 33.9563 18.4805 33.9203 19.3239 34.059C19.3656 34.0661 19.4649 34.1021 19.5588 34.1181C20.2472 34.2373 21.2093 34.3583 21.8513 34.5591C22.1385 34.6494 22.4933 34.8997 22.7635 34.9404C23.177 35.003 23.9617 34.7267 24.4339 34.6494C24.5314 34.6334 24.626 34.5974 24.6689 34.5903C24.7587 34.5756 24.8721 34.6051 24.9626 34.5903C25.0695 34.5726 25.174 34.5443 25.2562 34.5313C26.6113 34.3146 29.0623 33.2449 30.2088 32.4544C30.8497 32.0128 32.2018 30.7588 32.5518 30.0864C32.7122 29.7782 32.7956 29.3301 32.9407 29.0013C33.205 28.4021 33.5885 27.8684 33.817 27.2255C33.9967 26.7201 34.0625 26.1864 34.2264 25.6887C34.4044 25.1468 34.7186 24.7843 34.7715 24.1998C34.782 24.0841 34.7703 24.0764 34.7715 24.0227C34.7756 23.8663 34.7738 23.7069 34.7715 23.5504C34.7697 23.4388 34.8114 23.26 34.7127 23.1962C34.6998 21.9682 34.365 21.3365 34.5952 20.0082C34.6311 19.8027 34.6939 19.8659 34.5952 19.5949C34.4461 19.1852 34.0443 18.7566 33.8399 18.3174C33.4205 17.4141 33.0452 15.8898 32.274 15.2274C31.9551 14.9534 31.5163 14.7498 31.2091 14.4381C30.5061 13.7249 30.4708 13.2792 29.4805 12.6628C28.7105 12.1834 28.3786 12.2673 27.5933 12.0211C26.8121 11.7767 26.3934 11.4041 25.4918 11.2701C25.3796 11.2536 25.2979 11.2223 25.1393 11.2111C25.0236 11.2028 24.9038 11.2135 24.7869 11.2111C24.7376 11.1154 24.5872 11.155 24.4933 11.1521C24.058 11.1379 23.685 11.0316 23.2598 10.9749C23.0695 10.9496 22.8716 10.9372 22.6724 10.9159L22.6719 10.9165Z" fill="#6DBC45"/>
<path d="M22.6719 10.9168C22.8111 11.0426 23.0748 10.9505 23.2593 10.9759C23.6845 11.0325 24.0575 11.1388 24.4927 11.153C24.5415 11.2474 24.6924 11.2102 24.7864 11.212C24.9033 11.2144 25.0231 11.2038 25.1388 11.212C25.2046 11.3165 25.3808 11.2622 25.4912 11.2711C26.3928 11.4045 26.8116 11.7776 27.5928 12.022C28.3781 12.2676 28.71 12.1844 29.48 12.6637C30.4703 13.2801 30.5055 13.7258 31.2086 14.439C31.5158 14.7507 31.9545 14.9544 32.2735 15.2283C33.0447 15.8907 33.42 17.4145 33.8394 18.3183C34.0432 18.7581 34.4449 19.1867 34.5947 19.5959V20.0091C34.3645 21.3375 34.6993 21.9692 34.7122 23.1971C34.7134 23.3081 34.6722 23.4876 34.7709 23.5514C34.7733 23.7078 34.775 23.8672 34.7709 24.0236V24.2008C34.7181 24.7846 34.4038 25.1477 34.2259 25.6897C34.0626 26.1874 33.9962 26.721 33.8165 27.2264C33.588 27.8687 33.2039 28.4024 32.9401 29.0022C32.7951 29.3311 32.7116 29.7792 32.5513 30.0873C32.2018 30.7598 30.8491 32.0137 30.2083 32.4553C29.0618 33.2458 26.6113 34.3162 25.2557 34.5322C25.1617 34.5358 25.0114 34.4956 24.962 34.5913C24.8716 34.606 24.7582 34.5765 24.6683 34.5913L24.4334 34.6503C23.9606 34.7277 23.1759 35.0039 22.763 34.9414C22.4928 34.9006 22.138 34.6503 21.8508 34.56C21.2088 34.3587 20.2467 34.2382 19.5583 34.119L19.3234 34.0599C18.4805 33.9212 18.2444 33.9572 17.4227 33.5794C15.8932 32.8763 15.4362 32.3101 14.3026 31.1642C13.6043 30.4581 12.9682 29.9858 12.5147 29.0542C11.9914 27.9791 11.9068 26.7069 11.5127 25.646C11.3282 25.1489 11.0387 24.8047 10.9241 24.2598L10.8654 24.0236C10.8572 23.9274 10.8672 23.8259 10.8654 23.7285C10.8631 23.5803 10.9124 23.3542 10.8067 23.2562C10.8031 22.4905 11.108 22.0406 11.1591 21.367C11.2472 21.3268 11.2161 21.2082 11.2178 21.1308C11.2401 20.018 11.2842 19.5711 11.6437 18.5184C12.0348 17.3743 12.2633 16.8554 13.0592 15.9562C14.3085 14.5447 15.2747 13.2512 17.0791 12.4695C17.5214 12.2776 18.0048 12.1903 18.4418 12.009C19.361 11.6276 20.622 10.7533 21.6464 10.797C21.9524 10.81 22.3453 10.882 22.6713 10.9174L22.6719 10.9168ZM29.6028 19.182C29.4806 18.8685 29.2439 18.5161 29.0395 18.2427C25.7732 13.8669 19.1713 14.0942 16.2092 18.679C13.952 22.1728 14.8577 26.8952 18.1886 29.3269C21.9459 32.0698 27.2868 30.8914 29.544 26.8574H27.1065C27.0671 26.8574 26.6466 27.3386 26.5491 27.4189C22.192 31.0319 15.8891 27.1136 17.1208 21.6025C18.0547 17.4233 23.2076 15.687 26.4903 18.4441C26.6266 18.5586 27.1717 19.1826 27.2239 19.1826H29.6028V19.182ZM27.7232 22.4881C27.594 21.1485 25.9464 20.7329 24.9908 21.5423C24.1873 22.223 24.1151 23.5691 24.7565 24.3779C25.6586 25.5149 27.7285 25.0491 27.7232 23.4917C27.577 23.5224 27.0442 23.4457 26.9673 23.5C26.9138 23.5378 26.8604 24.0266 26.5696 24.1925C25.4478 24.8325 24.7318 23.0838 25.4078 22.1982C25.7943 21.6923 26.5303 21.7064 26.8557 22.2697C26.8986 22.3435 26.8897 22.4881 26.9003 22.4881H27.7226H27.7232ZM20.2637 21.2483H19.3827V24.9086H20.2637V21.2483ZM21.6147 21.2483H20.7924V23.8164C20.7924 23.8519 20.9269 24.2344 20.958 24.2994C21.3926 25.2144 23.1406 25.2333 23.6957 24.4328C23.7374 24.3726 23.9054 24.0325 23.9054 23.9941V21.2489H23.0831V23.8761C23.0831 23.9056 22.9233 24.16 22.8716 24.1949C22.6273 24.3584 22.0898 24.3442 21.8508 24.1701C21.775 24.1152 21.6147 23.8247 21.6147 23.758V21.2489V21.2483ZM28.1931 21.2483V24.9086C28.1931 24.947 28.9567 24.947 28.9567 24.9086V22.5471L30.3951 24.8502C30.4626 24.9163 31.2474 24.9517 31.2474 24.9086V21.2483C31.2474 21.2099 30.4838 21.2099 30.4838 21.2483V23.6098L29.0442 21.3079C28.9525 21.2288 28.2236 21.2176 28.1931 21.2483Z" fill="#2F7E67"/>
<path d="M29.5625 19.0295H27.2261C24.0429 15.1439 17.6564 16.8893 16.9369 21.9574C16.0947 27.8893 23.1374 31.2606 27.0824 26.9342C27.5753 26.9031 28.0703 26.9374 28.5633 26.9258C28.6982 26.9226 29.5022 26.769 29.51 26.9496C26.7981 31.73 20.1077 32.3271 16.6742 28.0012C12.3604 22.5651 16.4259 14.4745 23.2229 14.8694C25.8029 15.0193 28.4128 16.6517 29.563 19.029L29.5625 19.0295Z" fill="#F6F6F6"/>
<path d="M30.5382 23.5556V21.0294H31.2572V24.8712H30.5382L28.8956 22.345L28.9466 24.8712H28.1765V21.1086C28.295 20.983 28.8183 20.9951 28.9208 21.0828L30.5387 23.5556H30.5382Z" fill="#F6F6F6"/>
<path d="M21.5515 21.0293C21.5772 21.6845 21.5175 22.3502 21.5494 23.0048C21.5577 23.1785 21.5948 23.7392 21.6416 23.8574C21.8693 24.4313 23.0406 24.379 23.0406 23.6341V21.0293H23.8621C23.823 21.8312 23.9142 22.6823 23.8642 23.4789C23.8081 24.3774 23.5392 24.8536 22.6064 24.926C21.774 24.9909 20.9133 24.8267 20.7866 23.8395C20.7032 23.1875 20.6542 21.8497 20.7274 21.2109C20.7361 21.1344 20.7335 21.0758 20.8072 21.0293H21.552H21.5515Z" fill="#F6F6F6"/>
<path d="M27.7655 22.3973H26.9439C26.8394 21.8715 26.3876 21.6588 25.8911 21.7131C25.1468 21.795 25.034 22.6397 25.0958 23.2647C25.2153 24.4674 26.6627 24.5819 27.0212 23.4495H27.766C27.6918 24.7482 26.2398 25.2656 25.1875 24.7503C24.2429 24.2879 24.0827 22.9305 24.4406 22.0151C25.05 20.4561 27.544 20.7095 27.766 22.3973H27.7655Z" fill="#F6F6F6"/>
<path d="M20.1134 21.0293H19.3434V24.8711H20.1134V21.0293Z" fill="#F6F6F6"/>
<path d="M23.2592 10.9755C23.0748 10.9502 22.8111 11.0423 22.6719 10.9165C22.871 10.9378 23.0689 10.9502 23.2592 10.9755Z" fill="#75BC5C"/>
<path d="M25.4912 11.2705C25.3808 11.2616 25.2046 11.3159 25.1388 11.2114C25.2974 11.2226 25.379 11.2539 25.4912 11.2705Z" fill="#77BB61"/>
<path d="M25.2563 34.5313C25.1741 34.5443 25.0695 34.5726 24.9626 34.5903C25.012 34.4947 25.1623 34.5348 25.2563 34.5313Z" fill="#77BB61"/>
<path d="M24.7864 11.2117C24.6924 11.2099 24.5414 11.2471 24.4927 11.1526C24.5867 11.1556 24.737 11.116 24.7864 11.2117Z" fill="#74BB5C"/>
<path d="M24.6689 34.5903C24.626 34.5974 24.5315 34.6334 24.434 34.6494L24.6689 34.5903Z" fill="#76BC5D"/>
<path d="M19.5588 34.1181C19.4648 34.1022 19.3656 34.0662 19.3239 34.0591L19.5588 34.1181Z" fill="#76BC5D"/>
</svg>
