<svg width="104" height="23" viewBox="0 0 104 23" fill="none" xmlns="http://www.w3.org/2000/svg">
<path d="M14.383 10.1183H8.75286V7.77062H16.6591C16.7606 7.99524 16.7862 8.308 16.807 8.55799C17.1896 13.1703 14.1615 16.7695 9.49331 17.0809C4.96035 17.383 0.716781 14.2453 0.0833041 9.72702C-0.774625 3.60811 5.14007 -1.29983 11.1022 0.308549C12.4591 0.674722 13.6625 1.42122 14.6786 2.36857L13.0188 4.0074C12.0504 3.14232 10.9047 2.56995 9.59758 2.41237C5.17214 1.87874 1.76602 5.76188 2.76406 10.0334C3.68289 13.9656 8.30907 15.9952 11.8688 13.991C13.3529 13.1553 14.2189 11.8089 14.3827 10.1183H14.383Z" fill="white"/>
<path d="M50.2643 7.31775V6.41073H52.6079L52.609 16.6425C52.5037 19.1931 51.3243 21.3581 48.6489 21.8976C46.4157 22.3479 44.2491 21.6201 42.9422 19.7575C42.787 19.5361 42.5006 19.0794 42.419 18.8339C42.4109 18.8096 42.3872 18.7893 42.4098 18.7615L44.5104 17.8836C44.6823 18.2113 44.8591 18.5361 45.1054 18.8157C46.5041 20.4046 49.3255 20.1383 50.0425 18.0487C50.2893 17.3291 50.2724 16.5797 50.2643 15.8276C50.2225 15.8199 50.2018 15.8316 50.1689 15.853C49.9892 15.9684 49.776 16.2523 49.5456 16.4096C47.6374 17.7116 44.9763 16.9921 43.4755 15.415C41.138 12.9583 41.5182 9.00065 44.2919 7.04506C45.8774 5.92731 48.2768 5.62631 49.834 6.95719C49.9698 7.07337 50.094 7.27929 50.2645 7.31775H50.2643ZM47.2149 8.25949C44.8499 8.4582 43.7668 11.237 44.764 13.2048C45.776 15.2021 48.5476 15.553 49.8442 13.6378C51.2475 11.5649 50.0501 8.02125 47.2149 8.25949Z" fill="white"/>
<path d="M101.393 7.98414V6.5702H103.278L103.28 16.5354C103.139 19.8136 100.845 21.7756 97.5531 21.5905C95.9703 21.5016 94.4986 20.5884 93.6773 19.2663C93.6261 19.1838 93.2995 18.6181 93.3383 18.5754L95.103 17.8551C95.4764 18.9154 96.5518 19.7278 97.6875 19.8034C99.5276 19.9258 100.998 19.0089 101.33 17.1662C101.439 16.5666 101.377 15.9542 101.392 15.3471L101.31 15.3648C99.991 17.2712 97.2758 17.5949 95.3606 16.3719C92.3516 14.4505 92.0921 9.74743 94.7384 7.41018C96.5534 5.8074 99.3942 5.77642 101.056 7.61022C101.144 7.70744 101.226 7.85647 101.312 7.94354C101.338 7.96972 101.347 7.99402 101.393 7.98414ZM97.8853 7.96545C93.635 8.28915 93.9271 15.627 98.3889 15.3202C102.627 15.0285 102.32 7.62758 97.8853 7.96545Z" fill="white"/>
<path d="M22.8359 6.0981C26.9483 5.85185 29.8454 9.71389 28.4451 13.5471C26.7295 18.2435 19.7435 18.2747 17.9923 13.6005C16.6696 10.0696 19.0238 6.32646 22.8359 6.0981ZM22.9707 8.25908C20.346 8.45886 19.2862 11.6246 20.7183 13.6216C22.0001 15.4092 24.672 15.2941 25.8263 13.4346C27.1854 11.2451 25.7366 8.04835 22.9707 8.25908Z" fill="white"/>
<path d="M35.012 6.0985C39.0909 5.86026 41.9446 9.6737 40.6138 13.4869C38.9489 18.2578 31.8413 18.2925 30.1214 13.54C28.841 10.0019 31.2146 6.32018 35.0117 6.09824L35.012 6.0985ZM35.0931 8.25948C32.4821 8.47288 31.4488 11.6328 32.8677 13.622C34.1885 15.4737 36.9833 15.2699 38.0664 13.2847C39.2792 11.0615 37.8086 8.03754 35.0933 8.25948H35.0931Z" fill="white"/>
<path d="M68.1244 10.2252L60.7164 13.2403C61.0966 14.083 61.8772 14.7187 62.8117 14.8599C64.1837 15.0672 65.3575 14.5253 66.1203 13.4019L68.015 14.6294C68.0498 14.6794 67.5624 15.2453 67.4918 15.3212C64.645 18.3678 59.4371 17.3633 58.1502 13.3672C56.8544 9.34278 60.2128 5.02242 64.5416 6.2908C66.3897 6.83245 67.561 8.47876 68.1244 10.2252ZM65.2421 9.39833C65.07 8.84921 64.5092 8.47582 63.9695 8.32465C62.0368 7.78327 60.1832 9.47766 60.3125 11.3996L65.2421 9.3986V9.39833Z" fill="white"/>
<path d="M79.163 6.20456C83.1064 5.99971 85.5355 9.63446 84.5425 13.2663C83.1201 18.4704 75.479 18.3216 74.284 13.0214C73.5239 9.64942 75.5607 6.39179 79.1627 6.20483L79.163 6.20456ZM79.2171 7.96545C74.8181 8.26912 75.1444 15.646 79.7207 15.3202C84.044 15.0122 83.7221 7.65456 79.2171 7.96545Z" fill="white"/>
<path d="M56.7025 0.594727H54.278V16.7611H56.7025V0.594727Z" fill="white"/>
<path d="M88.1659 8.19801L88.2487 8.18145C88.8137 6.84896 90.3722 6.14867 91.7855 6.30732C91.9533 6.32601 92.5302 6.42697 92.648 6.51457C92.6652 6.52739 92.6728 6.53407 92.6668 6.55677L91.9636 8.33128C91.1032 8.0893 90.2111 8.1315 89.4612 8.64057C88.7385 9.1312 88.3298 9.97145 88.2454 10.8245L88.2479 16.6694L88.2061 16.7615H86.307V6.54422H88.1657V8.19827L88.1659 8.19801Z" fill="white"/>
<path d="M70.9468 14.0469C72.9396 13.8242 73.1061 16.831 71.1812 16.8941C69.3519 16.9539 69.1452 14.2486 70.9468 14.0469Z" fill="white"/>
</svg>
