<svg width="262" height="111" viewBox="0 0 262 111" fill="none" xmlns="http://www.w3.org/2000/svg">
<path d="M243.89 58.04L231.95 38.7L220.75 38.59L220.8 57.83L209.55 57.81L209.53 0.609985L236.65 0.769985C245.19 0.819985 251.54 8.93999 252.92 15.85C254.73 24.86 250.44 32.6 242.99 36.36L256.07 57.77L243.9 58.03L243.89 58.04ZM237.26 28.22C241.25 27.32 242.15 21.54 242.01 18.82C241.89 16.28 239.79 11.38 236.46 10.89C231.18 10.11 226.23 10.31 220.74 10.4L220.76 29.02C226.26 28.87 232.06 29.39 237.25 28.22H237.26Z" fill="#2B2B2B"/>
<path d="M38.9799 43.64L18.8399 43.43L13.4599 57.81L1.91992 57.85L23.1399 0.710006L34.5599 0.600006L55.6999 57.83H44.0899L38.9799 43.63V43.64ZM36.7299 35.57L28.8499 12.31L20.6199 35.75L36.7299 35.57Z" fill="#2B2B2B"/>
<path d="M138.72 25.04L138.78 34.16L115.89 34.13L115.9 57.85L104.63 57.81L104.61 0.629996L143.35 0.589996L143.46 10.37L115.89 10.4L115.87 25.06L138.72 25.04Z" fill="#2B2B2B"/>
<path d="M166.62 35.12C173.29 33.2 178.24 32.56 181.7 25.93L188.07 34.25C190.99 31.01 190.55 26.07 187.97 22.92L189.23 19.98C189.96 18.27 195.88 20.94 196.71 19.74L199.33 15.94C204 26.39 203.34 38.88 196.14 48.31C186.84 60.49 169.97 63.03 157.88 53.88C159.65 51.3 159.32 49.08 158.88 45.63C158.47 42.36 163.19 36.11 166.62 35.13V35.12Z" fill="#2B2B2B"/>
<path d="M28.68 110.15L28.51 87.69L20.03 103.43C19.69 104.06 17.82 105.06 17.28 104.81C16.56 104.47 15.29 103.39 14.83 102.54L6.97 87.62L6.8 110.08L0 109.85L0.06 75.27L7.38 75.3L17.69 95.2L28.2 75.31L35.42 75.28L35.47 109.83L28.69 110.17L28.68 110.15Z" fill="#2B2B2B"/>
<path d="M161.65 23.83C154.02 29.74 157.37 40.53 150.27 45.39C144.53 35.74 144.4 23.74 150.24 13.8C154.59 6.4 162.06 1.5 169.51 0.349995C178.78 -1.08 187.67 1.92 193.44 8.06C185.48 6.41 177.04 7.81999 172.16 13.61C168.92 17.45 166.07 20.4 161.65 23.83Z" fill="#2B2B2B"/>
<path d="M73.2397 57.7L61.9397 57.83L61.9297 0.619985L73.2097 0.609985L73.2397 57.7Z" fill="#2B2B2B"/>
<path d="M100.25 109.83L82.8498 88.18L82.5598 109.93L75.8398 110V75.52L81.2598 75.35L99.2998 98.04L99.4198 75.49L106.16 75.56L106.13 109.97L100.25 109.83Z" fill="#2B2B2B"/>
<path d="M253.45 109.96C246.25 111.4 240.19 109.76 233.77 106.23L236.84 100.34C246.83 107.45 255.9 103.65 254.4 100.49C251.21 93.76 232.82 97.26 235.39 83.46C235.83 81.08 238.38 77.7 241.3 76.53C247.99 73.83 253.97 75.07 260.2 78.99L257.19 84.18C250.03 79.79 242.72 80.14 242.08 84.54C241.9 85.75 243.78 87.99 245.09 88.38L254.38 91.13C258.98 92.49 261.57 96.03 261.53 100.21C261.49 104.73 258.82 108.89 253.45 109.97V109.96Z" fill="#2B2B2B"/>
<path d="M198.79 95.11L184 95.1L184.13 104.23L201.35 104.1L201.29 110.1H177.15V75.33L200.87 75.3L201.01 81.21L184 81.24L184.06 89.68L198.79 89.61V95.11Z" fill="#2B2B2B"/>
<path d="M132.58 101.64L120.41 101.47L117.1 110.22L110.13 110.05L123.08 75.3L129.87 75.2L142.72 109.78L135.87 110.05L132.59 101.64H132.58ZM131.31 96.58L126.42 82.55L121.46 96.73L131.31 96.59V96.58Z" fill="#2B2B2B"/>
<path d="M228.46 95.13L213.6 95.02L213.56 104.33L230 104.36C231.39 104.78 231.41 109.38 229.97 110.09H206.66L206.62 75.31L230.28 75.34L230.39 81.26L213.61 81.23L213.5 89.54L228.07 89.69L228.46 95.13Z" fill="#2B2B2B"/>
<path d="M61.7896 101.56L49.5496 101.5L46.4596 109.83L39.3896 109.92L52.2296 75.35L59.0396 75.14L71.9296 109.9L64.9996 109.95L61.7996 101.56H61.7896ZM60.5596 96.61L55.6196 82.69L50.6096 96.7L60.5496 96.61H60.5596Z" fill="#2B2B2B"/>
<path d="M161.7 109.83L154.87 110L154.91 81.23L143.63 81.22L143.77 75.31H172.76L172.89 81.27L161.66 81.15L161.7 109.83Z" fill="#2B2B2B"/>
</svg>
