<svg width="66" height="79" viewBox="0 0 66 79" fill="none" xmlns="http://www.w3.org/2000/svg">
<path d="M32.9282 0L40.8687 7.78994L33.5513 15.0781V17.6508L39.8702 23.7601L47.6669 16.2649L41.4119 10.2114L34.7496 16.6472L39.5666 21.267L44.2239 16.6472L41.0045 13.5488L38.2006 16.1773L39.5267 17.611C39.3829 17.9137 39.1352 18.2482 38.8077 18.0332C38.6719 17.9455 37.1381 16.4162 37.0822 16.3047C37.0263 16.1932 37.0343 16.1454 37.1301 16.0658L40.9167 12.3938L45.3263 16.5915L39.6225 22.3742C39.5506 22.4379 39.5027 22.414 39.4308 22.3742C39.3669 22.3423 38.6559 21.6812 38.5201 21.5617C37.21 20.3749 35.9798 18.9731 34.6937 17.7384C34.5099 17.5552 33.5593 16.8782 33.5992 16.6552L41.348 9.19181C41.4199 9.12809 41.4679 9.15199 41.5398 9.19181C41.5957 9.22367 42.3546 9.92461 42.4984 10.0521C44.6553 12.0115 46.6763 14.2656 48.8092 16.2569L40.4933 24.3575L48.8172 32.2032L56.4302 24.6124L50.3111 18.7022L43.5528 25.1381L48.3859 29.7659L53.0192 25.1222L49.8158 21.9361L46.9959 24.6522L48.4258 26.086C48.2021 26.2293 48.0184 26.7311 47.7068 26.524C47.5551 26.4205 46.0373 24.9071 45.9813 24.7956C45.9574 24.7478 45.9254 24.708 45.9334 24.6522L49.8158 20.7891L54.1296 25.0823L48.5217 30.7695H48.3299C46.3887 28.8738 44.3038 27.0657 42.4984 25.0505L50.2472 17.5871L50.4868 17.6349L57.6045 24.7398L49.672 32.482L57.7962 40.5826L50.4069 47.5999L42.722 39.9772L48.6175 34.3857L54.2733 39.9215L54.3532 40.248L49.8717 44.3262L46.1331 40.5029C46.1331 40.4472 46.1571 40.4073 46.181 40.3595C46.229 40.248 47.7468 38.8382 47.9066 38.7267C48.2181 38.5116 48.4018 39.0214 48.6255 39.1648L47.1956 40.5029L50.0155 43.3146L53.3147 40.025L48.5776 35.3972L43.7446 40.025L50.4948 46.5644L56.6299 40.4551L48.8732 32.9121L40.5013 41.0764L48.9211 49.2885L41.5877 56.3935L33.743 48.6672L39.5906 43.0358L45.4781 48.954L41.0285 53.056L37.242 49.3841C37.1461 49.3044 37.1381 49.2567 37.194 49.1451C37.25 49.0336 38.7837 47.5123 38.9196 47.4167C39.2391 47.2016 39.4947 47.5362 39.6385 47.8389L38.3124 49.2726L41.0365 51.9091L44.3357 48.8106L39.5986 44.1828L34.8614 48.8106L41.5957 55.1509L47.6429 49.3363V49.1451L39.8862 41.6021L33.6552 47.6079C33.5353 47.6955 33.5273 47.807 33.5114 47.9424C33.4714 48.2451 33.4794 50.1886 33.5673 50.3797L40.8847 57.5723L32.8004 65.4578L24.7161 57.5723L31.9856 50.332L32.0255 47.799L25.7067 41.5942L17.854 49.1372L24.069 55.2385L30.7314 48.7071L25.9144 44.1828L21.2571 48.7071L24.4764 51.9011L27.2884 49.3283C27.3762 49.2009 26.4017 48.2929 26.2339 48.1336C26.154 48.0619 25.9703 47.9982 25.9623 47.9822C25.8584 47.799 26.2738 47.2096 26.5774 47.4167C27.2404 47.8787 27.8795 48.6752 28.5346 49.185L24.4684 53.0481L20.1547 48.7548L20.2026 48.5159L26.0022 43.1235L31.8897 48.715L23.9492 56.3536L16.7676 49.1929L25.0995 41.0764L16.9194 33.0077L9.16259 40.7419L15.2977 46.7556L21.9441 40.3038L17.2149 35.692L12.5816 40.2401L15.785 43.4261L18.5091 40.7021L17.175 39.3559C17.151 39.2285 17.5744 38.7745 17.7422 38.878L19.6594 40.7976L15.777 44.5652L11.3275 40.2241L17.2149 34.545L23.1104 40.2241L15.4974 47.7273L15.2977 47.8229L7.9803 40.71L15.9128 32.8962L7.78857 24.9469L15.106 17.6827L22.9107 25.3452L17.0232 31.1199L11.2715 25.2018L15.5853 21.0918L19.4677 24.8673C19.4677 24.923 19.4437 24.9629 19.4198 25.0107C19.3718 25.1222 17.846 26.6356 17.6942 26.7391C17.4147 26.9303 17.1031 26.4603 16.9833 26.2214L18.3094 24.7876L15.5853 22.1512L12.3819 25.3372L17.0152 29.9809L21.7524 25.2576L15.098 18.8137L8.92293 24.8752L16.6398 32.4581L25.0995 24.3018L16.7676 16.1852L23.9252 9.0803L24.1968 9.15995L31.8498 16.5198V16.7986L26.0102 22.3423L25.8105 22.2467L20.1627 16.5118L24.6202 12.354L28.5426 16.1773C27.9274 16.6472 27.2804 17.6349 26.6813 18.0411C26.4096 18.2323 25.9783 17.7066 25.9703 17.4358L27.2964 16.1773L24.4844 13.4611L21.2651 16.6552L25.9223 21.1794L30.7394 16.6552L24.077 10.1237L17.9579 16.2251L25.7146 23.7681L31.9456 17.7623C32.0655 17.6747 32.0734 17.5632 32.0894 17.4278C32.1294 17.1331 32.1214 15.2772 32.0335 15.086L24.6202 7.87756L32.6406 0H32.9282ZM32.7844 2.00722L26.6094 7.87756L32.6007 13.7399L38.7598 7.87756L32.7764 2.00722H32.7844ZM32.6087 19.0049L18.6768 32.6811L32.8723 46.3812L46.8121 32.6094L32.6167 19.0049H32.6087ZM32.8004 51.8453L26.7132 57.5165L32.8723 63.3789L38.7678 57.5165L32.8004 51.8453Z" fill="#101511"/>
<path d="M65.5692 67.5928H0V69.9823H65.5692V67.5928Z" fill="#101511"/>
<path d="M0 32.9359V32.6492L6.47064 26.1655L13.3886 32.6173L6.74225 39.3081L0 32.9359ZM6.47863 27.4161L1.06246 32.689L6.83012 37.9938L12.2463 32.6094L6.47064 27.424L6.47863 27.4161Z" fill="#101511"/>
<path d="M0 72.2681H8.14023V73.1283H1.53378V75.0399H7.66092V75.8922H1.53378V77.995H8.41982L8.42781 78.8553H0V72.2681Z" fill="#101511"/>
<path d="M62.3653 72.2681C63.4038 72.3716 64.8258 72.969 64.7139 74.2275C64.6101 75.4143 63.0763 75.6373 62.1736 75.8046C62.0138 75.8365 62.0059 75.7409 62.0298 75.9878C62.1896 76.0117 62.3494 76.0595 62.4932 76.1471C63.3319 76.625 64.7619 77.8517 65.4249 78.5685C65.5128 78.6641 65.6007 78.7039 65.5687 78.8553H63.6035C63.5396 78.8553 62.8446 78.0826 62.6929 77.9472C62.1497 77.4693 60.528 75.9878 59.865 75.9878H57.2288V78.8553H55.5991V72.2681H62.3494H62.3653ZM57.2447 75.1355H61.3109C61.5186 75.1355 62.3653 74.8966 62.573 74.7771C63.5876 74.1877 62.9006 73.4071 62.0298 73.1761C61.9419 73.1522 61.3508 73.0407 61.3029 73.0407H57.2368V75.1435L57.2447 75.1355Z" fill="#101511"/>
<path d="M58.651 26.2612L65.577 32.6971L58.9226 39.3321L52.1724 32.7927L58.659 26.2612H58.651ZM58.7229 27.4003L53.2189 32.6971L59.0105 38.0736L64.4107 32.6174L58.7229 27.4003Z" fill="#101511"/>
<path d="M26.2099 72.1087C28.4147 72.029 32.0494 72.7379 32.0494 75.5655C32.0494 80.042 22.0479 79.9464 21.297 76.2904C20.6739 73.2795 23.8133 72.1963 26.2099 72.1166V72.1087ZM23.4858 73.9247C22.647 74.7611 22.631 76.3222 23.4938 77.1426C25.419 78.9507 31.1867 78.3534 30.2919 74.9363C29.6688 72.5627 24.9637 72.4432 23.4778 73.9247H23.4858Z" fill="#101511"/>
<path d="M42.0195 74.18H40.5336C40.4538 74.18 40.286 73.7579 40.1981 73.6543C39.559 72.9136 37.5539 72.9375 36.6353 73.0569C35.6687 73.1844 34.5822 74.0207 35.9642 74.5385C37.2584 75.0243 41.8118 75.0004 42.2671 76.466C43.026 78.9273 38.5365 79.0468 37.0906 78.9591C35.7326 78.8795 33.36 78.3856 33.4079 76.6652L34.782 76.5616C35.2852 78.3538 38.904 78.4095 40.2061 77.7644C40.8372 77.4537 41.0768 76.8404 40.3659 76.4581C38.8321 75.6217 35.0136 76.0996 33.9831 74.6181C33.6077 74.0685 33.7754 73.4871 34.2148 73.041C35.4929 71.7586 40.5177 71.7905 41.66 73.2561C41.8597 73.511 42.0115 73.8614 42.0195 74.188V74.18Z" fill="#101511"/>
<path d="M45.9495 72.2681V76.8002C45.9495 77.2065 46.6445 77.7162 47.0039 77.8517C48.0265 78.226 50.8464 78.3136 51.4216 77.2065C51.4695 77.1189 51.6852 76.4657 51.6852 76.4259V72.276H53.219V76.9038C53.219 77.1507 52.7636 77.8676 52.5559 78.0508C51.11 79.3172 46.0533 79.373 44.8151 77.8437C44.6633 77.6525 44.3198 76.9197 44.3198 76.7126V72.276H45.9495V72.2681Z" fill="#101511"/>
<path d="M19.9076 76.6568C19.2365 78.895 16.0811 79.0942 14.1159 78.9508C11.7673 78.7835 9.53056 77.4852 9.97791 74.8169C10.5052 71.6865 17.4551 71.36 19.3324 73.3592C19.4602 73.4946 19.7478 73.8849 19.6679 74.0761C19.58 74.1956 18.4377 74.2991 18.246 74.2434C18.0063 74.1717 17.9184 73.8371 17.7507 73.6938C16.2648 72.4114 12.0469 72.6822 11.6235 74.9284C11.2641 76.8002 12.4224 77.7799 14.1399 78.0587C15.7376 78.3136 17.6149 78.0268 18.4377 76.4736L19.9076 76.6568Z" fill="#101511"/>
<path d="M24.2291 32.9201C24.1732 32.8166 24.2291 32.6732 24.309 32.5936L32.609 24.3496L41.1646 32.6971L32.8087 40.8455L24.2371 32.9201H24.2291ZM32.593 26.3648L26.3221 32.6971L32.7848 39.1409L39.1516 32.6015L32.593 26.3648Z" fill="#101511"/>
</svg>
