<svg width="96" height="79" viewBox="0 0 96 79" fill="none" xmlns="http://www.w3.org/2000/svg">
<path d="M48.3923 0V5.22055L49.1746 7.05717L50.8635 2.9331L50.9929 2.80829L51.3709 2.9506L49.5433 7.56925L49.7437 8.22364L55.2966 1.93576C55.4743 1.88211 55.6974 1.97251 55.7144 2.1329L50.1686 8.51526L50.9474 8.48435L55.821 5.59732C55.9496 5.58158 56.1208 5.87086 56.0342 5.95018L51.6615 8.57358L53.9537 8.61849L60.1198 7.02392C60.2988 7.29688 60.3237 7.32954 59.994 7.4526C58.2432 8.10699 55.8999 8.38228 54.0986 9.02851L52.4438 10.1489H57.6663C57.6919 10.1489 57.7814 10.2084 57.8326 10.2171C57.8667 10.4697 57.9285 10.5753 57.5903 10.6097C55.8203 10.7887 53.6496 10.4907 51.8363 10.6126L51.2373 10.9363L60.0466 13.327L60.2498 13.45L60.0736 13.7609L51.0234 11.3737L51.3034 11.989L56.064 14.8521L55.9162 15.1566L55.7151 15.1338L51.378 12.5985L51.989 14.3418L55.676 18.4909C55.8075 18.7114 55.5688 18.8934 55.298 18.8281L51.6295 14.6369L49.7792 13.6477L51.3687 17.7712C51.395 17.8914 51.0433 17.9853 50.9516 17.9386C50.7001 17.8115 49.3664 13.8659 49.09 13.3386L48.3944 12.9473V20.3252L48.501 20.4127H63.3869V51.0035C63.3869 51.6456 62.417 52.405 61.6261 52.4161C57.8802 52.6167 53.8492 52.2044 50.1366 52.4336C49.3913 52.4797 48.4548 52.6021 48.4967 53.3673L47.7549 53.3662C47.988 52.6115 46.9129 52.4797 46.2265 52.4336C42.5345 52.1863 38.4567 52.622 34.7242 52.4266C34.0812 52.3362 33.5291 52.1029 33.2214 51.6188C33.1809 51.5546 32.9756 51.1475 32.9756 51.1207V20.4133H47.897V12.9479L47.2739 13.3404C46.9392 13.8554 45.6609 17.8097 45.4108 17.938C45.2623 18.0139 44.9333 17.882 44.9944 17.7164L46.5122 13.6483L44.6619 14.6964L41.0765 18.7516C40.9244 18.9686 40.518 18.698 40.6097 18.5487L44.3564 14.329L44.9113 12.5979L40.6466 15.135C40.4477 15.2295 40.356 15.0778 40.3034 14.946L40.3247 14.8148L45.0577 11.989L45.3376 11.3737L36.286 13.7574C36.1737 13.7358 36.0522 13.4996 36.1318 13.4139L45.0534 11.0232C45.0015 10.7975 44.7088 10.6388 44.4509 10.6137C42.7008 10.4452 40.523 10.7864 38.7701 10.6091C38.6997 10.6021 38.5313 10.5799 38.5136 10.5181L38.5278 10.2166C38.5789 10.2078 38.6678 10.1483 38.694 10.1483H43.8455L42.1565 8.9976C41.4758 8.72056 36.3009 7.57041 36.1318 7.34995C36.0515 7.24555 36.1752 7.00001 36.335 7.00817L42.4073 8.61733L44.6271 8.57358L40.3581 5.98168C40.2153 5.87553 40.3631 5.59674 40.5393 5.59732L45.3675 8.4616L46.1185 8.51468L40.609 2.21455C40.5201 2.11248 40.7845 1.92352 40.8967 1.92235L46.6159 8.22364L46.8149 7.62524L44.9895 2.95468C45.0307 2.8357 45.4087 2.71555 45.4669 2.8981L47.1843 6.99884C47.2895 6.50601 47.8274 5.8662 47.8977 5.39669C48.1187 3.91469 47.8359 1.88269 47.8927 0.317864C47.897 0.207049 47.8864 0.0974006 47.9666 0H48.393L48.3923 0ZM48.2501 10.09C48.7625 9.64382 49.1895 9.11891 49.5952 8.60449C49.2136 7.77396 48.8541 6.93119 48.4463 6.10941C48.4072 6.03067 48.3596 5.84637 48.2509 5.83237V10.09H48.2501ZM48.037 10.09V5.89069L46.7601 8.59924L46.8397 8.76897L48.0377 10.0894L48.037 10.09ZM46.601 8.76138L44.2327 8.80454L42.9218 8.92294L47.8238 10.2061L46.601 8.76138ZM53.4371 8.86578L49.7899 8.75789L48.5351 10.2061L53.4371 8.8652V8.86578ZM47.7528 10.3822L42.8507 9.09908L45.6027 10.9561C45.7355 10.9859 46.9847 10.6394 47.239 10.5723C47.3854 10.5338 47.6753 10.493 47.7528 10.3828V10.3822ZM53.5082 9.09908L48.5351 10.4394C49.2712 10.5502 49.9505 10.871 50.6852 10.9561L51.1975 10.6715L53.5082 9.09908ZM47.8238 10.6155L45.7078 11.1527L44.8402 13.9977L47.8238 10.6155ZM51.5179 13.9977L50.6276 11.2005C49.9775 10.9199 49.2271 10.8144 48.5351 10.6155L51.5179 13.9983V13.9977ZM48.037 12.5979V10.7316L45.0527 14.1137L48.037 12.5979ZM48.2501 10.7316V12.5104L51.3062 14.1429L48.2501 10.7316ZM47.8949 21.0549H33.7551V35.6941H43.8092C44.426 34.2448 45.9807 33.1267 47.8949 33.0695V21.0549ZM62.6031 21.0549H48.3923V32.8362C48.8491 32.7703 49.2023 32.5907 49.6357 32.8362C49.9022 32.9873 50.0002 33.2556 50.2049 33.4189C50.4265 33.5962 50.86 33.7578 51.1264 33.9456C51.7396 34.3789 52.2789 35.0397 52.4431 35.6935H62.6039V21.0543L62.6031 21.0549ZM50.9253 34.548C53.7384 36.9113 50.7164 40.8371 46.8617 39.7208C43.3332 38.6983 43.5662 34.4226 47.2668 33.6913C47.4956 33.6464 48.4519 33.6271 48.3916 33.3909C48.3312 33.1547 47.0763 33.3985 46.8447 33.4609C43.2657 34.4261 42.9495 38.58 46.3772 39.8847C50.4756 41.4442 54.294 37.3067 51.3744 34.4996C50.9303 34.0727 50.4372 33.9403 50.023 33.6259C49.5732 33.2842 49.4062 32.5621 48.5358 33.1564C48.6743 33.2964 48.9294 33.3862 48.8896 33.5939C48.749 33.5968 48.636 33.5478 48.6765 33.7105C49.5256 33.742 50.3342 34.0511 50.9253 34.5475V34.548ZM47.8949 33.8866C45.4343 33.9596 43.9755 36.1525 44.9113 37.9687L47.8949 33.8866ZM48.4633 33.8866L51.341 37.9676C52.3123 36.6372 51.3112 34.5644 49.5291 34.0902C49.1845 33.9986 48.8093 33.9747 48.4633 33.8866ZM48.2494 34.0027L48.1024 34.0395L46.758 35.9851C47.6924 35.6352 48.7092 35.5553 49.5995 36.044L48.2487 34.0027H48.2494ZM48.0903 35.942C46.7978 36.005 46.8284 37.8124 48.496 37.5575C49.4837 37.4065 49.4233 35.8772 48.0903 35.942ZM43.7027 36.1024H33.7551V51.0041C33.7551 51.3546 34.4876 51.8282 34.9282 51.7909C38.6486 51.9676 42.6866 51.5581 46.3693 51.7897C46.8809 51.8218 47.4394 51.953 47.8942 52.142V40.4189C45.2339 40.3693 43.2742 38.2288 43.702 36.1029L43.7027 36.1024ZM47.1836 37.4438C46.9754 37.0676 46.8369 36.8052 47.0053 36.3928C47.0522 36.2785 47.2007 36.2283 47.1836 36.1024C47.1417 36.0645 46.2578 36.6057 46.2578 36.7731C46.2578 36.9341 47.1403 37.4858 47.1836 37.4438ZM62.6031 36.1024H52.6555V37.298C52.6555 37.3732 52.4893 37.8287 52.4445 37.9413C51.908 39.3003 50.2617 40.3717 48.5095 40.4271L48.3923 40.5058V52.1414C48.9017 51.9623 49.4282 51.8229 49.9881 51.7891C53.6581 51.5675 57.6549 51.96 61.359 51.7909C61.7469 51.7588 62.2116 51.603 62.4205 51.3208C62.4482 51.2834 62.6031 50.9662 62.6031 50.9457V36.1024ZM49.1739 37.3849C49.2712 37.4601 50.0826 36.9393 50.1004 36.7731C50.1004 36.569 49.1128 36.0312 49.1746 36.1893C49.5007 36.534 49.4602 37.0297 49.1746 37.3849H49.1739ZM45.2659 38.1437H51.0923L50.3811 37.0355L49.316 37.6474C48.5173 37.9221 47.7279 37.9197 46.9449 37.6112C46.5569 37.4584 46.358 37.214 46.0134 37.0344L45.2666 38.1431L45.2659 38.1437ZM51.0923 38.377H45.2659C46.5747 40.087 49.7636 40.076 51.0923 38.377Z" fill="#101511"/>
<path d="M95.359 61.5897C95.3931 61.8935 95.3945 62.4534 95.359 62.7561C94.9113 66.5349 90.0903 66.4422 86.583 66.3139C86.4878 66.3104 86.2867 66.3623 86.3343 66.227C86.3748 66.1115 86.9795 66.3932 87.0456 65.8776C86.8353 63.5237 87.3248 60.839 87.0498 58.5242C87.0342 58.3924 87.03 58.281 86.8722 58.2034C86.637 58.0885 86.296 58.2483 86.335 58.0325C89.0095 58.1037 92.7861 57.5548 94.5226 59.6807C94.9291 60.1782 95.2915 60.9942 95.359 61.5897ZM88.3366 58.7995L88.3594 65.5563C88.5477 65.8689 90.3375 65.7073 90.7447 65.6461C93.3801 65.2477 94.2072 63.6036 94.0118 61.5582C93.903 60.4197 93.0262 59.364 91.7345 58.9365C90.7667 58.6163 89.3008 58.4437 88.3374 58.7995H88.3366Z" fill="#101511"/>
<path d="M66.3696 66.3131C66.2473 66.2373 66.3795 66.2075 66.4754 66.1976C66.7071 66.1731 66.8925 66.2396 67.0424 66.0203L67.0808 58.5257C67.0709 58.3338 66.9678 58.2114 66.7447 58.16C66.582 58.1227 66.3127 58.2259 66.3696 58.0311C69.0675 58.1134 72.4788 57.5558 74.3966 59.5196C75.7601 60.9158 75.7324 63.6075 74.2537 64.9407C72.2529 66.7447 69.0327 66.2437 66.3688 66.3125L66.3696 66.3131ZM68.3704 58.7993L68.3932 65.5561C68.5374 65.7952 69.7809 65.7497 70.0985 65.7293C73.0259 65.5438 74.2651 63.9207 74.0456 61.6163C73.8978 60.0672 72.6124 58.9766 70.7785 58.6989C70.0232 58.5846 69.0689 58.5106 68.3712 58.7987L68.3704 58.7993Z" fill="#101511"/>
<path d="M21.0005 70.5714C23.3538 70.7574 25.2588 72.117 25.4442 74.0976C25.8727 78.6807 21.1469 79.1444 16.7337 78.8563C16.6093 78.8481 16.4601 78.8673 16.4175 78.7373L17.0399 78.6644C17.1167 78.5326 17.182 78.3885 17.1998 78.2409C17.4705 76.02 16.9937 73.4403 17.2019 71.1814C17.1962 71.0595 17.1479 70.8146 17.0285 70.7405C16.8388 70.6239 16.5226 70.7767 16.4182 70.5708C17.8904 70.6559 19.551 70.4565 21.0012 70.5708L21.0005 70.5714ZM19.3883 71.1132C19.2007 71.1214 18.6486 71.1809 18.5427 71.2952L18.4781 78.0076C18.5512 78.3319 19.6114 78.2853 19.934 78.2695C22.838 78.126 24.3706 76.6615 24.1617 74.2755C23.9727 72.1181 21.9143 71.0059 19.3883 71.1132Z" fill="#101511"/>
<path d="M48.5694 58.0322C49.815 58.1267 51.1373 58.7018 51.2972 59.8175C51.4286 60.7309 51.089 61.4652 50.0743 61.8927C49.67 62.063 49.2281 62.1096 48.8195 62.2613C50.264 63.2125 51.2844 64.4962 52.1555 65.8208L52.655 66.3148H50.9497C50.3962 65.2148 49.6089 64.1708 48.607 63.3094C48.482 63.2015 47.5789 62.4654 47.5036 62.4654H46.4022V65.994C46.4022 66.1439 46.9415 66.257 47.1121 66.1987V66.3148H44.4127C44.3573 66.1194 44.6251 66.2232 44.7886 66.1859C45.0117 66.1346 45.1147 66.0121 45.1247 65.8202C44.9271 63.4919 45.3833 60.8784 45.1268 58.5845C45.1026 58.367 45.0749 58.2282 44.7886 58.1623C44.6259 58.1244 44.3573 58.2288 44.4127 58.0334C45.7521 58.108 47.2485 57.9331 48.5694 58.0334V58.0322ZM46.4022 61.8816H47.5036C47.7423 61.8816 48.4806 61.7381 48.725 61.6594C50.4182 61.114 50.5561 59.1165 48.6795 58.7006C48.347 58.6271 46.4029 58.493 46.4029 58.8196V61.8816H46.4022Z" fill="#101511"/>
<path d="M51.3049 70.5715V70.6876C51.0783 70.6304 50.5944 70.7308 50.5944 70.9506V74.3042H55.4972V71.0673C55.4972 70.5739 54.9706 70.7949 54.7156 70.5715H57.4867C57.5293 70.8066 57.0476 70.6094 56.8642 70.7605C56.8003 70.813 56.7861 70.9331 56.7761 71.0084C56.9886 73.3606 56.494 76.0493 56.7719 78.3612C56.8145 78.7176 56.9623 78.6587 57.3126 78.7363C57.4284 78.7619 57.5215 78.6744 57.4867 78.8535H54.7156C54.6807 78.6744 54.7731 78.7619 54.8896 78.7363C55.1262 78.6838 55.4972 78.6383 55.4972 78.3577V74.8875H50.5944V78.4744C50.5944 78.6674 51.1053 78.7713 51.3049 78.7368V78.8535H48.6049C48.5715 78.6844 48.6503 78.7578 48.7697 78.7293C49.1086 78.6482 49.265 78.7229 49.3168 78.3589C49.1058 76.023 49.5932 73.3606 49.3204 71.0638C49.3048 70.932 49.3005 70.8206 49.1428 70.743C48.9076 70.6275 48.5672 70.7885 48.6056 70.5715H51.3057H51.3049Z" fill="#101511"/>
<path d="M12.8651 58.032L18.4074 64.6809V58.4694C18.4074 58.2542 17.9789 58.1889 17.7999 58.1492C17.684 58.1236 17.591 58.211 17.6258 58.032H20.0416V58.1486C19.8675 58.0874 19.26 58.2816 19.26 58.4111V66.3723L18.4216 66.36L12.5099 59.4318V65.9348C12.5099 66.2136 13.2012 66.132 13.2915 66.3139H10.8756C10.8202 66.1197 11.0873 66.2212 11.2515 66.1851C11.4888 66.1326 11.6494 65.9669 11.6586 65.761C11.4561 63.5383 11.9229 61.0018 11.6608 58.8164C11.6416 58.6555 11.5378 58.3866 11.405 58.2682C11.1939 58.0804 10.8749 58.2548 10.8756 58.032H12.8651Z" fill="#101511"/>
<path d="M75.3214 66.3135C75.288 66.1601 75.3491 66.2231 75.423 66.1916C75.693 66.0773 75.899 66.0201 76.0234 65.7524L79.9321 58.0094L80.8551 57.9802L84.9116 65.9939C85.0224 66.1467 85.4431 66.1146 85.4104 66.3135H82.7103C82.6734 66.1304 82.7771 66.2243 82.8851 66.1969C83.0926 66.145 83.3185 66.149 83.315 65.8988L82.2847 63.833L77.7998 63.8412C77.6854 64.2658 76.6792 65.7484 76.9187 66.0808C77.0523 66.2663 77.4772 66.0843 77.4523 66.3135H75.3207H75.3214ZM78.0925 63.2224H82.0715L80.0472 59.3141L78.0925 63.2224Z" fill="#101511"/>
<path d="M33.3995 70.5715V71.7963H33.1878C33.1978 71.5315 32.9221 71.1548 32.5824 71.1548H28.71V74.2459H31.9429C32.3764 74.2459 32.7274 73.9695 32.6897 73.6038H32.9022V75.4707H32.6897C32.7622 75.2771 32.4496 74.8292 32.2272 74.8292H28.71V78.1244C28.8379 78.251 28.9842 78.2592 29.1683 78.2732C29.8667 78.3257 32.0254 78.3385 32.645 78.2055C33.008 78.1274 33.2397 77.9442 33.4585 77.7074C33.6191 77.5336 33.5175 77.3254 33.8962 77.3966L33.5409 78.8541H26.7197C26.6842 78.6797 26.7751 78.7619 26.886 78.7316C27.0366 78.6902 27.2036 78.6774 27.3422 78.6068C27.3876 78.51 27.4168 78.4038 27.4296 78.2994C27.6953 76.0295 27.2306 73.4288 27.4338 71.1233C27.4402 71.002 27.3812 70.8142 27.2583 70.7424C27.0395 70.6153 26.6785 70.799 26.7204 70.5715H33.3995Z" fill="#101511"/>
<path d="M78.6607 70.5715V71.7963H78.449C78.466 71.5257 78.1889 71.1548 77.8436 71.1548H73.9711V74.2459H77.2041C77.6397 74.2459 78.0063 73.9811 77.9509 73.6038H78.1633V75.4707H77.9509C78.0234 75.2771 77.7107 74.8292 77.4883 74.8292H73.9711V78.1245C74.099 78.251 74.2454 78.2592 74.4294 78.2732C75.1059 78.3239 77.3839 78.3373 77.9665 78.1968C78.1207 78.1594 78.3978 78.0335 78.5115 77.9442C78.6252 77.855 78.9741 77.2525 79.1574 77.396L78.8021 78.8535H71.9809C71.9475 78.6849 72.0257 78.7573 72.1457 78.7293C72.5408 78.6359 72.6389 78.7182 72.6914 78.2994C72.9721 76.0458 72.4797 73.4166 72.695 71.1233C72.7014 71.002 72.6424 70.8142 72.5195 70.7424C72.3006 70.6153 71.9397 70.799 71.9816 70.5715H78.6607Z" fill="#101511"/>
<path d="M42.8499 58.032V59.3151C42.55 59.2912 42.646 58.9897 42.4278 58.8159C42.3632 58.7645 42.0207 58.6152 41.9617 58.6152H38.2669L38.1603 58.7027V61.7064H41.6775C41.9312 61.7064 42.1948 61.3325 42.1401 61.1226H42.3525V62.9312H42.1401C42.1756 62.5853 41.8949 62.2896 41.4643 62.2896H38.1603V65.5849C38.1603 65.659 38.3827 65.7231 38.4765 65.7336C39.1394 65.8071 41.2036 65.7919 41.8828 65.7243C42.2914 65.6835 42.6367 65.5301 42.8812 65.2606C43.0261 65.1008 43.0318 64.8092 43.3473 64.8564L42.9927 66.3139H36.1715C36.1161 66.1186 36.3839 66.2224 36.5474 66.1851C36.8337 66.1191 36.8614 65.9803 36.8856 65.7628C37.1421 63.4689 36.6859 60.8548 36.8835 58.5271C36.8337 58.1755 36.6788 58.2227 36.3456 58.1498C36.229 58.1241 36.1374 58.211 36.1722 58.0326H42.8513L42.8499 58.032Z" fill="#101511"/>
<path d="M2.77495 58.032C2.81758 58.267 2.33583 58.0699 2.1518 58.221C2.07648 58.3539 2.0104 58.4962 1.99264 58.6444C1.83774 59.9164 1.8889 62.243 1.98979 63.5465C2.08856 64.8156 2.69323 65.7593 4.37012 65.8503C5.99797 65.9389 7.33024 65.3189 7.46667 63.8958C7.63009 62.1893 7.33806 60.3107 7.46525 58.5855C7.45175 58.2542 7.16398 58.2245 6.85773 58.1486C6.74902 58.1218 6.64599 58.2157 6.68223 58.0326H9.09808C9.1535 58.2268 8.88704 58.1259 8.7222 58.1615C8.45788 58.2198 8.35911 58.379 8.32287 58.5919C7.93421 61.4947 9.94718 66.5968 4.36941 66.4918C-0.887909 66.3933 1.11085 61.1855 0.712236 58.4128C0.699447 58.3166 0.623418 58.2589 0.527495 58.2145C0.301542 58.1096 -0.0359664 58.2326 0.00311348 58.0326H2.77423L2.77495 58.032Z" fill="#101511"/>
<path d="M59.4205 58.0464C59.4808 58.0173 59.5526 58.0354 59.6187 58.0313L59.7608 59.8399C59.4766 59.8976 59.461 59.5856 59.3224 59.4124C59.0879 59.1202 58.727 58.8583 58.3433 58.6997C57.0494 58.1642 55.1416 58.5678 55.3547 59.9863C55.5665 61.393 59.9328 61.841 60.1871 63.9517C60.4181 65.8676 58.1237 66.6888 56.1207 66.4147C55.7896 66.3692 54.6825 66.0292 54.4843 66.1342C54.3877 66.1855 54.4012 66.3465 54.22 66.3126L54.1489 64.5052C54.2782 64.4813 54.2882 64.5379 54.3493 64.6026C54.5262 64.7892 54.6591 65.0581 54.8843 65.2424C56.2948 66.4001 59.2194 66.0257 58.8904 64.1407C58.5941 62.44 54.1575 62.307 54.1759 59.9169C54.1837 58.9172 55.138 58.1555 56.2777 57.9415C57.3208 57.7455 58.1713 57.9992 59.1583 58.2412C59.3565 58.2354 59.3778 58.0668 59.4219 58.0458L59.4205 58.0464Z" fill="#101511"/>
<path d="M28.923 58.032C28.9635 58.2577 28.5443 58.0757 28.3531 58.2344C28.3112 58.2694 28.2821 58.3038 28.28 58.3545L31.3744 64.8564L34.2798 58.6047C34.3992 58.2571 34.159 58.2501 33.8513 58.1545C33.7469 58.1224 33.646 58.2099 33.6837 58.0326H35.8153C35.8465 58.2116 35.6014 58.1358 35.4287 58.2699C35.3399 58.3393 35.222 58.5347 35.1623 58.6345L31.4817 66.4032L30.9587 66.4218L26.9726 58.5546C26.9107 58.4607 26.8255 58.3586 26.7232 58.2927C26.5484 58.1801 26.2627 58.207 26.2933 58.0332H28.9223L28.923 58.032Z" fill="#101511"/>
<path d="M47.3261 72.1755C47.3212 72.2058 47.2515 72.3394 47.2196 72.3797C45.6628 70.1249 41.7839 70.7034 40.8275 73.0825C40.0537 75.0054 40.6747 77.7798 43.4288 78.2908C44.6446 78.5165 46.5119 78.4319 47.5379 77.8043L47.54 78.0645C46.4252 78.8425 44.9643 79.0665 43.5254 78.9696C37.3423 78.555 37.5981 69.8735 44.9366 70.4042C45.4944 70.4445 46.3698 70.7501 46.7947 70.7478C46.8785 70.7478 46.951 70.7332 47.0263 70.704C47.1947 70.6399 47.1215 70.4777 47.3254 70.5133C47.2629 71.0312 47.41 71.6739 47.3254 72.1755H47.3261Z" fill="#101511"/>
<path d="M66.8659 70.5715C66.9022 70.8112 66.4744 70.6042 66.2556 70.7413C66.1497 70.8077 66.0992 71.0165 66.0843 71.1256L66.0957 78.1145C66.1199 78.1746 66.1781 78.202 66.2428 78.2271C66.4666 78.3128 68.9031 78.2965 69.3201 78.2726C69.7429 78.2481 70.1884 78.2055 70.5238 77.9775C70.791 77.7955 70.8777 77.5091 71.024 77.3966C71.1128 77.3283 71.1512 77.3254 71.2713 77.3377L70.845 78.8535H64.0948C64.06 78.6744 64.1531 78.7619 64.2689 78.7363C64.6192 78.6587 64.767 78.7176 64.8096 78.3612C65.0874 76.0487 64.5936 73.3606 64.8053 71.0084C64.7954 70.9331 64.7812 70.813 64.7172 70.7605C64.5339 70.6094 64.0522 70.8066 64.0948 70.5715H66.8659Z" fill="#101511"/>
<path d="M62.2476 70.5716C62.3662 70.6451 62.2405 70.6778 62.1417 70.6877C61.8106 70.7209 61.4738 70.6095 61.466 71.0079C61.677 73.3612 61.1853 76.0471 61.4617 78.3608C61.5093 78.7609 61.758 78.6833 62.1403 78.7381C62.2596 78.755 62.2611 78.7025 62.2468 78.853H59.3336C59.2761 78.6658 59.5894 78.7504 59.7649 78.7113C60.204 78.6127 60.1657 78.2313 60.1898 77.8936C60.3213 76.0284 60.3554 73.2079 60.1856 71.359C60.1628 71.1105 60.165 70.7565 59.8509 70.7005C59.664 70.6673 59.2768 70.7705 59.3336 70.571H62.2468L62.2476 70.5716Z" fill="#101511"/>
<path d="M64.5209 58.032C64.5322 58.1766 64.5393 58.1323 64.4143 58.1475C63.7542 58.225 63.7208 58.1335 63.6654 58.7587C63.4657 60.9995 63.8203 63.4392 63.6696 65.701C63.725 65.9605 63.6995 66.1419 64.064 66.1938C64.2338 66.2177 64.5798 66.1139 64.5209 66.3145H61.6076C61.5778 66.0876 61.9657 66.2661 62.2158 66.1431C62.2677 66.1174 62.3132 66.062 62.3523 66.0217L62.3878 58.4128C62.375 58.3166 62.2983 58.2589 62.2031 58.2145C61.9558 58.0996 61.5778 58.2431 61.6076 58.0326H64.5209V58.032Z" fill="#101511"/>
<path d="M24.7309 58.032C24.7885 58.2309 24.4595 58.1241 24.284 58.1609C24.0623 58.207 23.9564 58.3393 23.9479 58.5266C24.144 60.856 23.6914 63.4666 23.9458 65.7628C23.96 65.8917 23.9806 66.0614 24.1213 66.1436C24.3529 66.2784 24.7636 66.0777 24.7302 66.3145H21.888C21.8305 66.1151 22.1594 66.2224 22.3349 66.1856C22.5893 66.132 22.6796 65.9698 22.6732 65.7634C22.455 63.4724 22.9538 60.8368 22.6696 58.5872C22.644 58.3866 22.5986 58.211 22.3349 58.162C22.1594 58.1294 21.8305 58.2285 21.8887 58.0326H24.7309V58.032Z" fill="#101511"/>
<path d="M55.1778 30.2696C54.4686 30.1728 54.2661 29.5418 54.3919 29.0413C54.4701 28.7305 54.8907 28.4785 54.706 28.2073C54.4893 27.8894 54.0643 27.9863 53.7176 27.9099C52.3761 27.6136 52.1935 26.8221 52.0833 25.8102C52.0528 25.5326 52.1842 25.4259 52.0293 25.157C51.9675 25.0497 51.1298 24.0652 51.0616 24.0243C50.7674 23.85 50.0484 24.1696 49.8473 23.5636C49.5147 22.561 51.927 21.5333 52.3882 22.4688C52.6077 22.9139 52.1914 23.1518 52.2411 23.3437C52.2503 23.381 52.7157 23.9683 52.7619 23.9695C53.3993 23.2154 55.0492 23.4201 55.2069 24.355C55.2573 24.6531 55.1621 25.6247 54.6775 25.6638C54.4367 25.6831 53.8057 25.1774 53.9492 25.504C54.1098 25.8691 54.7607 26.359 54.9433 26.758C55.7228 26.7469 56.6031 26.8099 56.7594 27.5716C56.8554 28.0405 56.3956 28.4826 56.4496 28.6377C56.628 29.1487 57.2547 28.7841 57.7677 29.0763C58.5251 29.5085 57.7016 30.1967 57.7336 30.2685C58.2651 30.8465 58.6871 31.4647 59.1625 32.0724C59.6485 32.6936 61.0788 34.2292 61.1442 34.8696C61.1527 34.953 61.1456 35.0732 61.0049 35.0528C60.3164 34.9519 59.6457 33.7481 59.1561 33.3614C59.0851 33.5445 59.0467 34.1802 58.7298 34.1797C58.4754 34.1797 58.3809 33.7346 58.2566 33.5748C58.1322 33.415 57.8778 33.3036 57.7897 33.1415C57.6398 32.8656 57.7848 32.5711 57.5901 32.3139C57.2526 31.8695 56.3729 32.0129 56.0731 31.4011C55.845 30.9363 56.0873 30.6038 56.4212 30.2399C56.3736 30.1472 56.2571 30.2696 56.2443 30.2696C55.9359 30.2696 55.4549 30.3075 55.1785 30.2696H55.1778ZM52.0684 22.4688C51.4588 21.9334 49.632 23.0772 50.2068 23.6184C50.42 23.819 50.7887 23.6983 51.0552 23.7386C51.3216 23.7788 51.8389 24.5557 52.0663 24.7715C52.1096 24.8123 52.0635 24.8817 52.2283 24.8455L52.509 24.1742L51.8844 23.3437C51.8403 23.1926 52.4123 22.7698 52.0691 22.4688H52.0684ZM56.3495 28.2283C56.4532 27.9058 56.569 27.7401 56.3779 27.4182C56.0063 26.7918 54.9383 27.14 54.2711 27.0478C53.216 26.9026 53.1755 25.4643 53.9798 25.0252L54.6463 25.4031C55.1927 24.7907 54.9788 23.7327 53.8988 23.7327C52.3107 23.7327 52.1175 26.2109 52.7115 27.0449C53.3574 27.9524 54.6619 27.6632 55.7142 27.6713C56.0134 27.7501 56.0567 27.9804 56.1903 28.1531C56.2351 28.2108 56.1832 28.2569 56.3487 28.2277L56.3495 28.2283ZM54.5738 26.7696L53.8284 25.7787C53.53 26.1823 53.9421 26.8641 54.5738 26.7696ZM56.3502 28.9859C56.1938 28.839 55.683 28.0218 55.57 27.9653C55.457 27.9087 54.9575 27.9069 54.9291 28.0259C55.3135 28.4056 55.614 29.2781 56.3502 28.9859ZM54.9305 28.6366C54.7671 29.0174 54.4765 29.3289 54.7578 29.7395C55.1636 30.3303 56.5342 29.9016 57.1708 29.859C57.3641 29.8462 57.6135 30.0113 57.735 29.803C57.8565 29.5948 57.7698 29.3376 57.5055 29.2338C56.8852 28.9888 56.2152 29.4146 55.6361 29.3131C55.0868 29.2169 55.4364 28.7538 54.9298 28.6372L54.9305 28.6366ZM57.3307 30.1652C57.286 30.1437 56.7829 30.0935 56.8483 30.2393C57.1595 30.5187 57.2682 31.0203 57.8416 30.9106C57.8807 30.8826 57.3755 30.1862 57.3307 30.1647V30.1652ZM58.7653 33.8274C58.7753 33.5247 58.906 33.1689 58.8356 32.8662C58.798 32.7029 58.4448 32.5209 58.3702 32.2567C58.2814 31.9389 58.5102 31.6618 58.3575 31.3912C58.1734 31.0646 57.4671 31.2722 57.1268 31.1772C57.0294 30.8925 56.8618 30.626 56.564 30.4446C55.4741 31.8205 57.6625 31.4816 57.9667 32.4125C58.0846 32.7723 57.9233 33.145 58.442 33.3637L58.7646 33.8268L58.7653 33.8274ZM60.7548 34.6439L60.6731 34.3908L58.6964 31.961C58.5621 32.3349 58.9344 32.392 59.0815 32.6067C59.1703 32.7361 59.1575 32.8925 59.235 33.0056C59.6023 33.5387 60.2766 34.1732 60.7555 34.6439H60.7548Z" fill="#101511"/>
<path d="M43.7735 47.5337H45.4078V50.8873L45.3012 50.9748H44.0222L43.9156 50.8873V48.8168H35.922L35.8154 48.7293V47.5337C36.0165 47.5482 36.0861 47.5389 36.1878 47.4013C36.2894 47.2636 36.9452 45.8114 36.9736 45.6545C37.002 45.4976 36.909 45.3926 36.9196 45.2503C36.9658 44.6507 37.9087 44.4944 38.2448 44.9843C38.4572 45.294 38.2483 45.4463 38.318 45.7408C38.3777 45.9939 38.8928 47.1161 39.0477 47.3593C39.0882 47.4229 39.1166 47.4888 39.1905 47.5337H41.4287L40.3963 46.9522C38.5837 45.5285 39.4655 42.9529 41.9083 42.5324C44.8081 42.0332 46.9134 44.7849 45.0511 46.6868C44.6816 47.0642 44.2375 47.259 43.7735 47.5337ZM42.7006 42.7575C42.3013 42.7214 41.9432 42.7529 41.5708 42.8689L41.6426 43.1594C41.703 43.2055 42.2785 42.7564 42.4981 42.8923C42.594 42.95 42.5869 43.3174 42.5684 43.4248C42.4903 43.8849 42.0988 43.5531 41.8551 43.6522C41.7392 43.6995 41.6213 43.9707 41.4628 44.0337C41.2916 44.064 41.2752 43.8394 41.2824 43.7444L41.0123 43.7502C40.9917 43.7945 40.9505 43.854 40.9498 43.8978C40.9463 44.1771 41.8273 44.7137 42.1158 44.8397C42.6345 45.0666 43.2591 44.9674 42.9933 45.6405C42.8846 45.9163 42.535 45.9951 42.3702 46.2943C42.2054 46.5935 42.194 47.4135 41.6732 47.1861C41.5048 46.8495 41.6746 46.0931 41.4991 45.8271C41.4266 45.7169 41.0862 45.7245 41.0152 45.5682C40.9249 45.3699 40.8503 44.8741 41.212 44.8473L41.2134 44.7645C40.7772 44.5428 40.5697 44.0716 40.0474 44.0412C38.7748 46.047 41.4401 48.1869 43.9171 47.1563C44.2453 47.0198 44.877 46.5958 44.9118 46.2791C44.9907 45.5606 43.5355 44.7388 45.0219 44.4437C45.0482 44.1101 44.9175 44.278 44.71 44.2325C44.5224 44.1911 44.3896 44.0908 44.1984 44.092C44.2304 44.5323 43.9206 44.5411 43.4907 44.4396C43.468 44.418 43.5568 43.9532 43.5909 43.9153C43.6684 43.8289 44.0116 43.8978 44.0982 43.6271C44.1089 43.3828 43.8048 43.2597 43.9853 42.985L43.5589 42.9255C43.5341 42.9465 43.5909 43.4504 43.3216 43.4452C43.1468 43.4335 42.6793 42.9401 42.6985 42.7575H42.7006ZM43.419 42.81L42.9216 42.7517C42.8861 42.971 43.166 43.0702 43.3124 43.2177L43.419 42.8106V42.81ZM42.3524 43.0427C42.2366 42.936 41.4351 43.8138 41.3939 42.9261C41.1665 42.9488 39.9835 43.7875 40.1497 43.917C40.5654 43.8744 40.6841 44.1334 40.9306 44.3253C40.8717 44.1211 40.6557 43.8564 40.8539 43.6493C41.0045 43.4918 41.4074 43.5554 41.4643 43.742C41.7321 43.4708 41.9403 43.4032 42.3524 43.5087V43.0427ZM45.1236 44.0337C45.1932 43.9748 44.4052 43.0865 44.1295 43.1594C44.3228 43.4662 44.3505 43.6983 44.0584 43.9753C44.445 43.8581 44.7228 44.1684 45.1236 44.0337ZM45.1939 46.0756C45.4781 45.4918 45.493 44.9371 45.336 44.3264C45.211 44.3346 45.2763 44.4699 45.1648 44.5638C45.0006 44.7015 44.5935 44.6601 44.5516 44.8823C44.5303 44.9943 44.9523 45.7583 45.0489 45.9333C45.0809 45.991 45.0958 46.0697 45.1939 46.0762V46.0756ZM41.784 45.9881C41.8323 46.2313 41.784 46.6512 41.784 46.9213C41.784 46.9312 41.8799 47.0128 41.9254 47.0088C41.968 46.9813 42.0945 46.359 42.1585 46.2371C42.3269 45.9158 42.8548 45.7676 42.8562 45.4031C42.8569 45.1336 42.3134 45.1027 42.0661 44.9983C41.8003 44.8869 41.6263 44.6951 41.3584 44.6175L41.4984 44.9062C41.1402 44.9149 41.0536 45.2095 41.1566 45.4533C41.2212 45.6061 41.6966 45.5448 41.784 45.9875V45.9881ZM37.3246 45.5367C37.6515 45.8055 38.313 45.4235 37.9542 45.0491C37.6294 44.7108 36.904 45.1902 37.3246 45.5367ZM38.7997 47.5337L37.6273 45.9L36.4549 47.5337H38.7997ZM45.1236 47.767H36.0996V48.5835H44.1998V50.654C44.4258 50.829 44.8287 50.7082 45.1236 50.7415V47.767Z" fill="#101511"/>
<path d="M36.6675 38.0269L36.9559 38.6364L37.8761 38.7274L37.211 39.1899L37.2004 39.3107L42.4229 42.0799C42.295 42.2163 42.3177 42.1393 42.2047 42.0857C41.2576 41.6366 40.3808 41.0732 39.4329 40.6276C39.3434 40.5856 39.2759 40.5145 39.1558 40.5349L41.713 42.1388L41.5716 42.1965L39.0847 40.7098L41.183 42.2239L41.1105 42.3417L38.8005 40.7682L40.7893 42.4304L40.6842 42.5167L38.6591 40.8842L40.4341 42.6054C40.4618 42.6783 40.4177 42.722 40.3289 42.6917C40.206 42.6497 39.1814 41.5911 38.9789 41.4086C38.9341 41.3677 38.6122 41.0959 38.5881 41.1175L40.115 42.8089L40.0447 42.925L38.3038 41.1175L39.8649 43.1303L39.7256 43.2172L38.2328 41.3508L39.5807 43.3641C39.6134 43.4347 39.5565 43.4831 39.4762 43.4499C39.2681 43.3636 38.4197 41.7416 38.0907 41.5258C38.1973 41.7661 38.3244 42.0145 38.4552 42.2467C38.6783 42.6421 39.246 43.3601 39.3675 43.7141C39.4031 43.8173 39.3086 43.8337 39.2247 43.7724L37.9479 41.7008L39.1444 44.1894L39.0144 44.2664L37.8768 42.0507L39.013 44.9663C38.8097 44.9978 38.8986 44.9208 38.8524 44.8392C38.8062 44.7575 38.7671 44.6718 38.7273 44.5889C37.9628 42.974 37.3979 41.2324 36.6675 39.6011L35.8162 39.9505L35.991 39.2482L35.3188 38.7548C35.5654 38.6808 36.0301 38.784 36.2404 38.637C36.3562 38.5559 36.4245 38.2276 36.5104 38.101C36.5552 38.0351 36.5055 38.0019 36.6682 38.0264L36.6675 38.0269ZM36.6675 38.6685C36.4444 38.616 36.573 38.805 36.4579 38.8738C36.3712 38.9257 36.1779 38.8791 36.1012 38.9893C36.3783 39.0925 36.3648 39.2045 36.2418 39.4261C36.5204 39.3684 36.6071 39.2465 36.8806 39.4261C36.9133 39.3392 36.8096 39.194 36.8458 39.1304C36.8991 39.0371 37.0966 39.0604 37.0945 38.9601C36.8643 38.9234 36.6376 38.9041 36.6682 38.6679L36.6675 38.6685Z" fill="#101511"/>
<path d="M40.5047 22.4255C40.5487 22.1928 40.8599 22.2523 40.8599 22.4255V23.2712H44.6613L46.7404 27.0465C46.8036 29.4424 42.4977 29.4751 42.4693 27.0756L44.1284 23.9711H40.931L41.3573 30.62H42.8495V31.3782H41.4639C41.2848 31.3782 41.4291 31.7211 41.4319 31.8133C41.4419 32.1218 41.407 32.4321 41.4383 32.7406L41.5449 32.8281L42.2014 32.9016C42.1844 34.5988 39.2697 34.586 39.2342 32.9016L39.819 32.8275L39.9256 32.7406C39.9568 32.4321 39.922 32.1218 39.932 31.8133C39.9348 31.7211 40.079 31.3782 39.9 31.3782H38.5855V30.62H40.0066L40.4329 23.9711H37.3065L38.9237 27.0465C38.9798 29.4203 34.7649 29.4844 34.6377 27.1171L36.667 23.2712H40.5039C40.5388 23.0081 40.4556 22.6775 40.5039 22.4255H40.5047ZM36.9875 23.7378H44.4837C44.5072 23.8865 44.4325 24.0107 44.3757 24.1449C43.9934 25.0536 43.1543 26.0801 42.8459 26.9712C42.7059 27.3754 42.7919 27.6676 43.0967 27.9966C44.1846 29.1695 46.3929 28.616 46.4725 27.155L44.5434 23.5144L36.9868 23.5039L36.8226 23.6025C36.2492 24.8389 35.4328 26.0048 34.9567 27.2664C35.2338 29.0726 38.3453 29.0808 38.6601 27.2629L36.8908 23.8737L36.9875 23.7378ZM41.0027 30.6206L40.7924 26.2142L40.6482 25.1381L40.3625 30.6206H41.0027ZM42.5652 30.8533H38.8704V31.1449H42.5652V30.8533ZM40.2212 32.4863C40.3448 32.5132 40.3633 32.4438 40.4343 32.3994C40.7363 32.2122 41.2657 31.9387 41.0724 31.6121C40.7128 31.8337 40.0989 32.0483 40.2212 32.4863ZM41.1449 32.8369L41.1434 32.2536L40.2922 32.8077L41.1449 32.8369ZM41.8547 33.1279H39.5809C39.7891 34.1946 41.6472 34.1935 41.8547 33.1279Z" fill="#101511"/>
<path d="M53.0465 41.8765C53.6355 41.8118 54.177 41.3563 54.7873 41.351C54.5578 41.1568 53.8295 40.482 54.5742 40.6512L54.361 40.2161C54.4676 40.0749 54.5621 40.1665 54.7156 40.1851L54.5742 39.7775L55.1383 39.8929C55.4282 39.0764 55.5242 38.6052 55.8858 39.7792C56.05 39.918 56.2951 39.7716 56.4919 39.7781L56.3505 40.1857L56.7051 40.128L56.4926 40.6523L56.6888 40.6074L56.8479 40.6832L56.5637 41.1772C57.1804 41.2449 57.5798 41.5225 58.2257 41.463C58.5198 41.4356 58.7543 41.2857 59.0499 41.2945V41.82C59.1636 41.9109 59.8315 41.5919 59.8315 41.7908V45.6693L60.606 45.7335C60.6955 45.9125 60.5733 46.0782 60.6266 46.2701C60.6834 46.4748 61.0131 46.564 60.6841 46.8358L61.2213 46.8912C61.3116 47.2546 61.1247 47.5584 61.4686 47.857L58.7856 50.7458L49.6515 48.6462C49.3069 48.3615 49.2714 47.8751 49.6053 47.5701C49.7013 47.4826 50.2782 47.1496 50.3003 47.1181C50.3393 47.0633 50.2207 46.8352 50.2399 46.6964C50.296 46.2934 51.0506 46.0356 51.29 45.6868L51.2339 42.2282L51.8727 42.2871V41.8789C52.2429 41.8503 52.6863 41.9185 53.0451 41.8789L53.0465 41.8765ZM56.2084 40.0102L55.8119 39.9565L55.4986 39.4269C55.4815 39.7291 55.3231 40.2015 54.8584 40.0102L55.1419 40.4179L54.6452 40.3601L54.9998 40.8844L54.5742 40.913C55.0787 41.477 55.9185 41.4659 56.4912 40.9714L56.0656 40.8844L56.4195 40.4464L55.9946 40.4179L56.207 40.0102H56.2084ZM58.7664 41.5849C57.7354 42.0463 56.7733 41.0839 55.8169 41.6427L55.7118 45.8425C56.6596 45.3725 57.7411 45.5923 58.7664 45.7259V41.5849ZM52.2294 42.1682V45.7842C53.2789 45.6565 54.3226 45.4693 55.3551 45.7842L55.4979 41.6444C54.3475 41.3849 53.4522 42.3665 52.2287 42.1687L52.2294 42.1682ZM59.548 46.1342V41.9932L59.0463 42.1477L59.0506 46.0175C57.9919 45.9207 56.7058 45.513 55.7821 46.1336C57.0156 45.8338 58.2932 46.0432 59.548 46.1336V46.1342ZM51.8748 42.5175H51.5188L51.5906 46.2502L52.3004 46.133L51.9452 46.0758L51.8748 42.5175ZM54.7518 45.9009H53.2952L55.2485 46.1353L54.7518 45.9009ZM59.619 46.4264C58.6328 46.2852 57.5293 46.1773 56.526 46.2485C56.1956 46.2718 55.6791 46.4759 55.4737 46.4672C55.2684 46.4584 54.8207 46.2928 54.5301 46.2578C54.0434 46.1989 53.4011 46.2053 52.9122 46.2578C52.7964 46.2701 51.9437 46.4141 51.9437 46.4549L58.2342 47.5392C58.5937 47.5217 59.3334 46.6562 59.6183 46.4264H59.619ZM58.5539 48.4088L60.439 46.6573L60.3289 46.2508L58.5902 47.7101L58.5539 48.4088ZM52.0134 46.7197L50.6392 46.5383C50.237 47.2668 51.4329 47.2499 52.0162 47.3584L52.0134 46.7192V46.7197ZM52.7225 46.837L52.3011 46.7757L52.3047 47.4721L52.7261 47.5333L52.7225 46.837ZM55.9242 48.1755C55.8901 48.0075 56.0031 47.4704 55.8567 47.3858L53.0117 46.893L53.0529 47.5993L55.9242 48.1755ZM60.827 47.0679L60.3616 47.1228L58.5326 48.8596L58.3791 48.9075C55.8695 48.4111 53.3613 47.9043 50.8481 47.415C50.5269 47.3525 50.4154 47.1712 50.1695 47.5339L58.5923 49.2055L60.8277 47.0685L60.827 47.0679ZM58.8374 49.3711V50.2168C59.6425 49.4814 60.3864 48.6677 61.0863 47.8547L60.8632 47.4179L58.8374 49.3711ZM58.1979 47.7672L56.2802 47.4756L56.2752 48.1481L56.3214 48.2402L58.1987 48.6415V47.7666L58.1979 47.7672ZM50.7372 47.8839L49.918 47.7311C49.5783 47.8197 49.6267 48.2962 49.8313 48.4514C49.9947 48.5756 50.5255 48.5779 50.7372 48.6998V47.8833V47.8839ZM55.7821 48.8754L50.9504 47.9422V48.7587L55.7821 49.8669V48.8754ZM58.4822 49.4003L55.9953 48.9337V49.9252L58.4822 50.4501V49.4003Z" fill="#101511"/>
<path d="M48.0175 36.3472C48.7792 36.2073 48.9547 37.1439 48.1972 37.1994C47.6132 37.2419 47.4348 36.4546 48.0175 36.3472Z" fill="#101511"/>
<path d="M54.3081 24.7141C54.1404 24.577 54.2285 24.3501 54.4708 24.3198C55.094 24.2422 54.7081 25.0418 54.3081 24.7141Z" fill="#101511"/>
<path d="M43.0985 27.2372C42.896 27.1877 43.0566 26.9316 43.1006 26.8301C43.468 25.9833 44.0861 25.1312 44.4634 24.2773C44.4784 24.1688 44.7171 24.1712 44.7761 24.2394L46.2611 27.0949C46.2775 27.1439 46.183 27.2378 46.1538 27.2378H43.0985V27.2372ZM43.4182 27.0039H45.8341L44.661 24.6704C44.5182 24.6453 44.5615 24.7171 44.5189 24.7847C44.2339 25.2332 43.6122 26.3146 43.4516 26.7689C43.4239 26.8476 43.4054 26.9217 43.4182 27.0039Z" fill="#101511"/>
<path d="M35.2821 27.2372C35.0796 27.1877 35.2402 26.9316 35.2842 26.8301C35.6516 25.9833 36.2697 25.1312 36.647 24.2773C36.662 24.1688 36.9007 24.1712 36.9597 24.2394C37.3221 25.1422 37.9459 26.0014 38.3353 26.889C38.3616 26.9497 38.5264 27.2372 38.3374 27.2372H35.2821ZM35.6018 27.0039H38.0177L36.8446 24.6704C36.7252 24.6383 36.6271 24.906 36.5838 24.9813C36.3223 25.4426 35.793 26.3216 35.6352 26.7683C35.6075 26.8471 35.589 26.9211 35.6018 27.0034V27.0039Z" fill="#101511"/>
</svg>
