<svg width="138" height="44" viewBox="0 0 138 44" fill="none" xmlns="http://www.w3.org/2000/svg">
<path d="M125.946 34.585C126.019 34.585 126.127 34.6211 126.127 34.6934L127.573 38.6689L128.982 34.6934C129.019 34.6211 129.091 34.585 129.163 34.585H130.319C130.392 34.585 130.464 34.6211 130.464 34.6572H130.5V34.8018L128.043 41.3789C127.465 42.8968 126.633 43.2227 126.019 43.2227C125.73 43.2226 125.44 43.1865 125.151 43.1143C125.079 43.0782 125.007 43.0057 125.007 42.9336V41.957C125.007 41.8849 125.043 41.8126 125.079 41.8125H125.224C125.44 41.8848 125.332 41.8848 125.838 41.8848C126.344 41.8848 126.705 41.1622 126.85 40.6924L124.646 34.8018C124.609 34.7656 124.609 34.7295 124.646 34.6572C124.682 34.585 124.718 34.585 124.79 34.585H125.946ZM105.13 34.4404C107.66 34.4404 107.949 36.573 107.949 37.7656C107.949 38.9582 107.551 40.9463 105.021 40.9463C104.66 40.9463 104.299 40.9101 103.938 40.8379V42.9697C103.938 43.0781 103.865 43.1503 103.757 43.1504H102.673C102.564 43.1504 102.492 43.0781 102.492 42.9697V36.5732C102.492 36.0673 102.672 34.4766 105.13 34.4766V34.4404ZM6.75781 31.7305C6.9385 31.55 7.19145 31.5137 7.4082 31.6221C9.54043 32.7785 11.5641 33.8993 13.6602 34.6943C14.5998 35.0919 15.6482 35.4169 16.7324 35.7061C17.7803 35.959 18.792 36.1758 19.8037 36.2842L20.96 36.3926H21.3223C21.8281 36.4287 22.334 36.4287 22.8398 36.3926H24.3574L25.1162 36.3203L26.2373 36.1396C26.3456 36.1036 26.4542 36.0674 26.5625 36.0674L28.1162 35.7422L28.9111 35.5615L30.4287 35.1279L32.1279 34.6221C34.3324 33.9716 36.7896 33.212 39.4277 32.8506C39.6084 32.8145 39.7891 32.7783 39.9697 32.7783C40.4756 32.7422 40.9454 32.6699 41.4512 32.5977H42.9336L44.4512 32.6699C44.8125 32.6699 45.1738 32.7422 45.499 32.7783C45.6796 32.8144 45.8243 32.8505 45.9688 32.8506C46.4747 32.9229 47.0175 32.9951 47.5234 33.1035C50.0892 33.6095 52.6188 34.658 54.8232 36.1396C55.9074 36.8986 56.9198 37.7303 57.8232 38.5977C58.7627 39.5371 59.5937 40.5127 60.2441 41.5244L60.208 41.3799C60.3525 41.5606 60.3164 41.8496 60.1719 42.0303C59.9912 42.211 59.7383 42.2832 59.5215 42.1748C58.3289 41.6327 57.2805 41.1632 56.2324 40.7656C55.0401 40.332 53.9922 39.9707 53.0166 39.7178C50.9205 39.1757 48.7875 38.8506 46.7275 38.8506C44.6677 38.8145 42.6438 39.0673 40.6201 39.5371C39.1385 39.8985 37.6203 40.3681 36.0303 40.874C35.4521 41.0547 34.8379 41.2715 34.1875 41.4521C33.9346 41.5244 33.6094 41.6328 33.3203 41.7051L32.417 41.958C32.2003 41.9941 32.0194 42.0664 31.8027 42.1025L31.4775 42.1748C31.3691 42.2109 31.2598 42.2471 31.1514 42.2471C30.9707 42.2832 30.7538 42.3555 30.5371 42.3916L29.0918 42.6807L27.5742 42.8975C27.3214 42.9697 27.1044 42.9697 26.8516 42.9697H26.5264L25.5137 43.042H23.4541L22.4785 42.9336C21.2136 42.789 19.8401 42.5001 18.4668 42.0664C17.2019 41.6327 15.9729 41.0909 14.7803 40.4404C14.166 40.1152 13.5879 39.7178 13.082 39.3926L12.8291 39.2119C12.3954 38.8867 11.962 38.5606 11.5283 38.1992L11.167 37.9102C11.0586 37.8379 10.9863 37.7656 10.9141 37.6934L10.8057 37.585C10.7334 37.5127 10.6602 37.4404 10.5879 37.3682L9.79297 36.5732C9.46779 36.248 9.14256 35.8867 8.81738 35.4893C8.05846 34.5858 7.33606 33.5373 6.68555 32.3809C6.54106 32.164 6.57714 31.9111 6.75781 31.7305ZM86.3369 34.5137C87.4211 34.5137 89.3007 34.9469 89.3008 37.7656C89.3008 40.5845 87.4211 41.0186 86.3369 41.0186C85.2527 41.0185 83.374 40.5844 83.374 37.7656C83.3741 34.947 85.2166 34.5137 86.3369 34.5137ZM79.0732 32.4531C79.9045 32.4531 80.7723 32.6337 81.5674 32.959V33.0312C81.6394 33.0315 81.6757 33.1037 81.6758 33.1758V34.1875C81.6758 34.2595 81.6395 34.3315 81.6035 34.332H81.4229C80.7001 34.0429 80.9525 33.8623 79.1816 33.8623C77.4109 33.8624 76.6885 34.694 76.6885 36.7539C76.6885 38.8137 77.411 39.6445 79.1816 39.6445C79.9406 39.6445 80.7001 39.5001 81.4229 39.1748C81.495 39.139 81.5674 39.1748 81.6035 39.1748C81.6755 39.2109 81.6758 39.2473 81.6758 39.3193V40.332C81.6755 40.3686 81.6391 40.4762 81.5674 40.4766C80.7723 40.8018 80.8441 40.9824 79.0732 40.9824C77.3025 40.9824 75.2061 40.2592 75.2061 36.7178C75.2061 33.1762 77.3024 32.4532 79.0732 32.4531ZM97.5771 34.4404C99.2031 34.4406 100.143 35.3085 100.143 36.8262V40.6572C100.142 40.7654 100.07 40.8379 99.9619 40.8379H98.8779C98.7696 40.8379 98.6974 40.7654 98.6973 40.6572V36.7539C98.6973 36.1758 98.5164 35.7785 97.6494 35.7783C97.2157 35.7783 96.7452 35.8506 96.2754 36.0312C96.3837 36.2842 96.3838 36.5371 96.3838 36.8262V40.6572C96.3836 40.7654 96.3114 40.8379 96.2031 40.8379H95.1191C95.0109 40.8379 94.9386 40.7654 94.9385 40.6572V36.79C94.9385 36.3203 94.8662 35.8506 93.7461 35.8506C93.3848 35.8506 93.0234 35.8868 92.626 35.9951V40.6934C92.6258 40.8014 92.5533 40.8738 92.4453 40.874H91.3604C91.2522 40.8739 91.1799 40.8015 91.1797 40.6934V35.2363C91.1797 35.1641 91.216 35.092 91.2881 35.0918C91.6495 34.9111 92.6619 34.4766 93.8545 34.4766C94.4686 34.4766 95.0108 34.6212 95.4443 34.9102C96.2032 34.6211 96.9266 34.4766 97.6133 34.4766L97.5771 34.4404ZM120.272 34.4404C121.862 34.4406 122.838 35.3446 122.838 36.8262V40.6572C122.838 40.7654 122.766 40.8379 122.657 40.8379H121.573C121.465 40.8379 121.393 40.7654 121.393 40.6572V36.7539C121.393 36.2841 121.32 35.8146 120.236 35.8145C119.803 35.8145 119.404 35.8867 119.007 35.9951V40.6934C119.007 40.8016 118.934 40.874 118.826 40.874H117.742C117.634 40.874 117.562 40.8015 117.562 40.6934V35.2725C117.562 35.2002 117.598 35.128 117.67 35.1279C117.959 34.9472 118.971 34.4766 120.272 34.4766V34.4404ZM112.937 34.5137C113.329 34.5138 114.177 34.6198 115.032 34.9346V39.5371L115.141 40.6934H113.912L113.84 40.043H113.804C113.442 40.585 113.875 40.8379 112.177 40.8379C110.478 40.8378 109.828 40.0422 109.828 37.9463C109.828 35.8503 110.877 34.5137 112.937 34.5137ZM112.827 35.5977C111.707 35.598 111.31 36.9707 111.31 37.9463C111.31 38.9219 111.816 39.8619 112.538 39.8623C113.261 39.8623 113.695 39.3194 113.695 38.8135H113.731V35.7422C113.551 35.6699 113.947 35.5977 112.827 35.5977ZM86.3369 35.8145C85.5781 35.8145 84.8194 35.9589 84.8193 37.7295C84.8193 39.5002 85.578 39.6455 86.3369 39.6455C87.0958 39.6455 87.8545 39.5003 87.8545 37.7295C87.8544 35.9588 87.0958 35.8145 86.3369 35.8145ZM105.13 35.7783C103.937 35.7783 103.938 36.3203 103.938 36.501V39.4639C104.299 39.5723 104.66 39.6445 105.021 39.6445V39.6084C105.78 39.6084 106.503 39.5003 106.503 37.7656C106.503 36.031 106.322 35.7783 105.13 35.7783ZM0.25293 27.1045C0.542047 25.948 1.73513 25.2617 2.8916 25.5508C3.90319 25.804 4.55371 26.7793 4.51758 27.791V27.8994C4.48145 28.4053 4.44533 28.9473 4.44531 29.4893C4.44531 30.0314 4.48143 30.5741 4.55371 31.0801C4.62599 31.622 4.73438 32.128 4.91504 32.6338C5.09571 33.1397 5.27639 33.6455 5.56543 34.1514C5.63766 34.2958 5.71 34.4043 5.78223 34.5127L5.99902 34.874C6.07124 34.9823 6.17967 35.091 6.25195 35.2354C6.28804 35.3075 6.32441 35.3439 6.39648 35.416L6.54102 35.5967C6.90238 36.0665 7.33589 36.4648 7.80566 36.8984C8.05864 37.1153 8.31245 37.2959 8.56543 37.4766L8.96289 37.7656C9.10737 37.8739 9.25201 37.9463 9.39648 38.0186C9.97462 38.3799 10.5889 38.6689 11.2393 38.958V38.9941C10.5527 39.1748 9.79397 39.2109 9.07129 39.1748C8.3485 39.1387 7.589 39.0303 6.86621 38.7773C6.14356 38.5605 5.4209 38.2715 4.73438 37.8379L4.48145 37.6934C4.40923 37.6572 4.30079 37.5849 4.22852 37.5127C4.04792 37.4043 3.90322 37.2958 3.72266 37.1514C3.5782 37.0069 3.43345 36.8983 3.25293 36.7539C3.10837 36.6093 2.96292 36.501 2.81836 36.3203C2.52926 36.0312 2.24026 35.7413 2.02344 35.3799C1.77061 35.0547 1.55366 34.6933 1.33691 34.3682C0.903358 33.6455 0.614262 32.8867 0.361328 32.0557C0.14449 31.2606 0 30.4289 0 29.5977C9.36781e-06 28.7666 0.0361522 27.9355 0.25293 27.1045ZM115.068 34.9473C115.056 34.9428 115.044 34.939 115.032 34.9346V34.9111L115.068 34.9473ZM70.9424 7.76953C72.424 7.76957 73.7977 8.0595 75.0264 8.60156C76.291 9.14362 77.3388 9.90235 78.2422 10.8418H78.3506C79.2541 11.8176 79.9413 12.9021 80.4473 14.2031C80.9531 15.4679 81.2061 16.8778 81.2061 18.3594C81.206 19.8408 80.9531 21.2139 80.4473 22.5146C79.9413 23.8157 79.2541 24.9363 78.3506 25.876C77.4472 26.8154 76.3633 27.5741 75.1348 28.1162C73.8699 28.6583 72.5324 28.9482 71.0508 28.9482C70.3641 28.9482 69.7491 28.876 69.2432 28.6953C68.7373 28.5146 68.3037 28.2969 67.9062 28.0439C67.5088 27.7549 67.1474 27.4658 66.8584 27.1406C66.5332 26.8154 66.2441 26.4902 65.9551 26.165V33.6816C65.9551 34.0069 65.8467 34.2968 65.666 34.5137C65.4854 34.7304 65.16 34.8388 64.7627 34.8389H61.0762C60.9317 34.8389 60.787 34.8027 60.6426 34.7666C60.462 34.7305 60.3534 34.6581 60.209 34.5498C60.0646 34.4415 59.9561 34.3328 59.8838 34.1885C59.7754 34.0439 59.7393 33.8623 59.7393 33.6816V9.21582C59.7393 8.99903 59.7754 8.81837 59.8477 8.67383C59.9199 8.52928 60.0283 8.38478 60.1367 8.27637C60.2813 8.16796 60.4258 8.05957 60.5703 8.05957C60.7148 8.02347 60.8594 8.02344 61.0039 8.02344H63.4248C63.6416 8.02344 63.7861 8.0596 63.9307 8.13184C64.0752 8.16798 64.1836 8.27635 64.2559 8.38477C64.3281 8.49318 64.4004 8.6377 64.4727 8.78223C64.5449 8.92676 64.6182 9.07128 64.6543 9.25195L65.3408 11.2031C65.6299 10.8057 65.9551 10.4082 66.2441 10.0107C66.5332 9.61327 66.8945 9.25198 67.3281 8.92676C67.7256 8.56545 68.2315 8.31251 68.8096 8.0957C69.3878 7.87887 69.4607 7.76953 70.9424 7.76953ZM134.837 23.418C135.09 23.418 135.343 23.418 135.56 23.5264C135.812 23.5986 136.029 23.671 136.21 23.8154C136.427 23.9238 136.607 24.0693 136.788 24.25C136.969 24.4306 137.113 24.6113 137.222 24.8281C137.33 25.0449 137.438 25.2617 137.511 25.5146C137.583 25.7676 137.619 26.0205 137.619 26.2734C137.619 26.5264 137.619 26.7793 137.511 26.9961C137.438 27.2491 137.366 27.4658 137.222 27.6465C137.077 27.8272 136.969 28.0439 136.788 28.2246C136.607 28.4053 136.427 28.5498 136.21 28.6582C135.993 28.7666 135.776 28.875 135.523 28.9473C135.271 29.0195 135.018 29.0556 134.765 29.0557C134.512 29.0557 134.259 29.0556 134.042 28.9473C133.789 28.875 133.572 28.8027 133.392 28.6582C133.175 28.5498 132.993 28.4053 132.812 28.2246C132.632 28.044 132.487 27.8632 132.379 27.6465C132.271 27.4297 132.162 27.2128 132.09 26.96C132.018 26.7071 131.981 26.4541 131.981 26.2012C131.981 25.9483 131.982 25.6953 132.09 25.4785C132.162 25.2257 132.235 25.0087 132.379 24.8281C132.487 24.6115 132.632 24.4306 132.812 24.25C132.993 24.0693 133.175 23.9238 133.392 23.8154C133.608 23.7071 133.825 23.5986 134.078 23.5264C134.331 23.4542 134.584 23.418 134.837 23.418ZM40.9102 10.3721C42.175 10.3721 43.4041 10.6249 44.5244 11.0947C45.6446 11.5645 46.62 12.2157 47.4512 13.0469V13.083C48.2823 13.9142 48.9697 14.8895 49.4395 16.0098C49.9092 17.1301 50.1621 18.3592 50.1621 19.6602C50.1621 20.5273 50.0537 21.3584 49.8369 22.1533C49.6201 22.9484 49.294 23.7079 48.8965 24.3945C48.499 25.081 48.0293 25.6953 47.4512 26.2734C46.873 26.8516 46.2588 27.3213 45.5723 27.7188C44.8856 28.1163 44.1623 28.4423 43.3672 28.6592C42.6084 28.8759 41.7773 28.9844 40.9102 28.9844C40.0428 28.9844 39.2111 28.876 38.416 28.6592C37.621 28.4423 36.8624 28.1162 36.1758 27.7188C35.4892 27.3213 34.875 26.8516 34.2969 26.2734C33.7187 25.6952 33.2481 25.0812 32.8506 24.3945C32.453 23.7079 32.128 22.9484 31.9111 22.1533C31.6944 21.3584 31.586 20.5273 31.5859 19.6602C31.5859 18.7928 31.6943 17.9611 31.9111 17.166C32.1279 16.335 32.4532 15.6123 32.8506 14.9258C33.2481 14.2392 33.7187 13.6251 34.2969 13.0469C34.8751 12.4686 35.4891 11.9981 36.1758 11.6006C36.8623 11.2031 37.6211 10.9141 38.416 10.6973C39.2111 10.4804 39.6453 10.3721 40.9102 10.3721ZM8.96289 2.02344C18.2145 2.02346 25.0453 3.1077 28.4062 6.97461C30.1409 9.03455 31.2969 13.769 30.6465 16.5879C29.1648 23.8519 20.5637 28.659 13.9141 28.8037C11.565 28.8037 7.11914 28.8393 7.11914 26.5264C7.11913 24.2136 6.93849 22.8402 6.93848 19.2627C6.93848 15.685 7.29978 12.0347 7.2998 8.49316V8.27637C6.61344 8.2403 5.24173 8.31221 5.13184 8.2041C4.69823 7.73436 4.87885 3.90433 4.87891 3.07227C4.87891 2.27942 5.41788 2.20451 5.4209 2.2041C6.43281 2.16796 8.13169 2.02344 8.92676 2.02344H8.96289ZM122.767 7.80566C123.995 7.8057 125.079 8.05956 126.055 8.5293C127.03 8.99911 127.826 9.64926 128.513 10.4443C129.199 11.2755 129.705 12.2156 130.03 13.2998C130.392 14.3838 130.536 15.54 130.536 16.7686H130.608V27.3213C130.608 27.7187 130.536 28.0439 130.355 28.2607C130.175 28.4776 129.886 28.5869 129.524 28.5869H125.802C125.332 28.5869 125.007 28.5137 124.862 28.3691C124.682 28.2245 124.609 27.8992 124.609 27.4658V16.9854C124.609 16.5156 124.501 16.082 124.284 15.6846C124.067 15.2871 123.814 14.8897 123.453 14.6006C123.092 14.2754 122.73 14.0225 122.297 13.8418C121.863 13.6611 121.429 13.5527 120.959 13.5527C120.489 13.5528 120.164 13.625 119.767 13.8057C119.369 13.9863 119.008 14.2031 118.646 14.5283C118.321 14.8174 118.032 15.1787 117.779 15.6123C117.563 16.0098 117.418 16.4795 117.382 16.9492V27.4297C117.382 27.6102 117.382 27.7911 117.273 27.9717C117.165 28.1522 117.092 28.2969 116.948 28.4053C116.804 28.4775 116.659 28.5507 116.551 28.5869C116.442 28.5869 116.297 28.623 116.116 28.623H112.467C111.997 28.623 111.672 28.5137 111.455 28.2969C111.238 28.08 111.166 27.7549 111.166 27.3936V9.32422C111.166 9.10739 111.202 8.92678 111.311 8.74609C111.419 8.5654 111.527 8.45705 111.672 8.34863H111.563C111.708 8.27638 111.853 8.20409 111.997 8.16797C112.142 8.16791 112.286 8.13184 112.431 8.13184H114.852C115.032 8.13184 115.213 8.13182 115.357 8.24023C115.502 8.31251 115.61 8.42088 115.719 8.5293C115.827 8.63772 115.899 8.7822 115.936 8.92676C116.008 9.0713 116.044 9.21581 116.116 9.39648L116.442 10.8057C116.587 10.4805 116.876 10.1191 117.237 9.79395C117.599 9.43261 118.032 9.10744 118.574 8.81836C119.116 8.52929 119.73 8.27639 120.417 8.0957C121.104 7.915 121.899 7.80566 122.767 7.80566ZM56.7031 2.02344C56.8115 2.02344 56.92 2.02356 57.0283 2.0957C57.1367 2.16792 57.2452 2.24036 57.3535 2.34863C57.4619 2.45705 57.5342 2.60251 57.6064 2.74707H57.6426C57.7148 2.89158 57.751 3.07236 57.751 3.25293V27.3213C57.751 27.7187 57.6425 28.0439 57.3896 28.2607C57.1728 28.4776 56.8477 28.5869 56.4863 28.5869H52.7637C52.3301 28.5869 52.041 28.4775 51.8604 28.2607C51.6798 28.0439 51.6074 27.7548 51.6074 27.3213V3.25293C51.6074 2.89153 51.6797 2.6016 51.8604 2.38477C52.041 2.1681 52.3303 2.02348 52.7637 2.02344H56.7031ZM87.3496 2.02344C87.6025 2.02346 87.8556 2.09578 88.1807 2.27637C88.3252 2.38479 88.4336 2.53024 88.5059 2.71094C88.578 2.89151 88.6143 3.07234 88.6143 3.2168V10.2637C88.831 9.97463 89.0841 9.64941 89.4453 9.36035C89.8067 9.07123 90.205 8.81841 90.6748 8.56543C91.1446 8.34863 91.6504 8.13184 92.2285 7.9873C92.8067 7.84277 93.3847 7.76955 94.0352 7.76953C95.2639 7.76953 96.3123 8.02335 97.2158 8.49316C98.1191 8.96295 98.8418 9.61327 99.4561 10.4082C100.034 11.2394 100.468 12.1795 100.757 13.2637L100.721 13.2998C101.01 14.3838 101.155 15.54 101.155 16.7686V27.3213C101.155 27.7185 101.083 28.0439 100.902 28.2607C100.722 28.4776 100.432 28.5869 100.07 28.5869H96.3486C95.8788 28.5869 95.5528 28.5137 95.4082 28.3691C95.2279 28.2244 95.1553 27.8991 95.1553 27.4658V16.8047C95.1553 16.335 95.083 15.9014 94.9023 15.5039C94.7216 15.1064 94.4688 14.7451 94.1797 14.4561C93.8906 14.167 93.5293 13.9141 93.1318 13.7695C92.7344 13.5889 92.3008 13.5166 91.8672 13.5166C91.4336 13.5166 91.1084 13.5889 90.7471 13.7334C90.3857 13.878 90.0596 14.0947 89.7344 14.3838C89.4454 14.6728 89.1924 14.9981 88.9756 15.3955C88.7588 15.793 88.6504 16.2266 88.6143 16.7324V27.3574C88.6143 27.538 88.6141 27.7188 88.5059 27.8994C88.4336 28.08 88.3251 28.2246 88.1807 28.333C88.0362 28.4053 87.8916 28.4775 87.7832 28.5137C87.6748 28.5137 87.5303 28.5508 87.3496 28.5508H83.6992C83.2295 28.5508 82.9043 28.4414 82.6875 28.2246C82.4708 28.0078 82.3984 27.6826 82.3984 27.3213V3.25293C82.3984 2.89153 82.5068 2.60161 82.6875 2.34863C82.9043 2.13197 83.2297 2.02347 83.6992 2.02344H87.3496ZM107.985 8.0957C108.13 8.0957 108.238 8.09571 108.419 8.16797C108.563 8.24022 108.708 8.31253 108.853 8.4209C108.997 8.52931 109.105 8.67385 109.178 8.81836L109.142 8.85449C109.25 8.99903 109.286 9.17971 109.286 9.36035V27.3213C109.286 27.7187 109.178 28.0439 108.961 28.2607C108.744 28.4776 108.419 28.5869 107.985 28.5869H104.299C103.504 28.5869 103.106 28.1886 103.106 27.3574V9.36035C103.106 8.99907 103.215 8.70995 103.396 8.45703C103.576 8.20409 103.901 8.09573 104.299 8.0957H107.985ZM134.801 24.25C134.62 24.25 134.439 24.25 134.295 24.3223C134.114 24.3584 133.97 24.4307 133.825 24.5029C133.681 24.5752 133.536 24.6836 133.428 24.792C133.319 24.9004 133.21 25.0449 133.138 25.1895C133.065 25.3339 132.993 25.4787 132.957 25.6592C132.921 25.8397 132.885 25.9844 132.885 26.165C132.885 26.3456 132.885 26.5264 132.957 26.6709C132.993 26.8515 133.065 26.9961 133.138 27.1406C133.21 27.2852 133.319 27.4297 133.428 27.5381C133.536 27.6465 133.681 27.7549 133.825 27.8271C133.97 27.8994 134.114 27.9717 134.295 28.0078C134.476 28.0439 134.62 28.0801 134.801 28.0801C135.054 28.0801 135.307 28.0439 135.56 27.9355C135.812 27.8271 135.993 27.6826 136.174 27.502C136.354 27.3213 136.499 27.1045 136.607 26.8877C136.716 26.6709 136.752 26.418 136.752 26.1289C136.752 25.8399 136.752 25.7675 136.68 25.623C136.644 25.4424 136.571 25.2978 136.499 25.1533C136.427 25.0088 136.318 24.8643 136.21 24.7559C136.102 24.6475 135.957 24.5391 135.812 24.4668C135.668 24.3945 135.523 24.3223 135.343 24.2861C135.162 24.25 135.018 24.2139 134.837 24.2139L134.801 24.25ZM135.126 24.8643C135.234 24.8643 135.343 24.8643 135.451 24.9365C135.559 24.9727 135.632 25.0449 135.74 25.1172C135.849 25.1895 135.885 25.2979 135.921 25.4062C135.957 25.5146 135.993 25.6231 135.993 25.7314C135.993 25.9121 135.957 26.0567 135.885 26.165C135.812 26.3095 135.704 26.418 135.56 26.4902L136.029 27.4658C136.029 27.502 136.029 27.5381 135.957 27.5381H135.271C135.271 27.5381 135.198 27.5381 135.198 27.4658L134.801 26.5986H134.548V27.5381H133.753V24.8643H135.126ZM135.09 25.5146C135.054 25.4786 135.018 25.5145 134.981 25.5146H134.584V25.9844H134.981C135.054 25.9844 135.126 25.9843 135.162 25.9121C135.198 25.876 135.234 25.8037 135.234 25.7314H135.198V25.6592C135.198 25.6592 135.198 25.5871 135.162 25.5869C135.162 25.5869 135.126 25.5507 135.09 25.5146ZM40.8379 15.1426C40.2236 15.1426 39.6455 15.251 39.1396 15.5039C38.6337 15.7207 38.1993 16.082 37.8379 16.4795C37.4766 16.9131 37.1875 17.3829 37.0068 17.9248C36.8261 18.4669 36.7178 19.0458 36.7178 19.6602C36.7178 20.2744 36.8262 20.8525 37.0068 21.3945C37.2236 21.9365 37.4767 22.4063 37.8379 22.8037C38.1993 23.2012 38.6337 23.5273 39.1396 23.7441C39.6455 23.9969 40.2237 24.1055 40.8379 24.1055C41.4521 24.1055 41.9942 23.9609 42.5 23.7441C43.0059 23.5273 43.4033 23.2012 43.7646 22.8037C44.126 22.4062 44.3798 21.9366 44.5605 21.3945C44.7412 20.8526 44.8496 20.2744 44.8496 19.6602C44.8496 19.0458 44.7412 18.4669 44.5605 17.9248C44.3799 17.3828 44.126 16.877 43.7646 16.4795C43.4033 16.0821 43.0058 15.7568 42.5 15.5039C41.9941 15.251 41.4522 15.1426 40.8379 15.1426ZM70.5449 13.2637C69.8944 13.2637 69.2433 13.372 68.6289 13.625C68.0147 13.878 67.5088 14.2393 67.0391 14.6729C66.5693 15.1065 66.208 15.6484 65.9189 16.2266C65.6299 16.8047 65.4493 17.4551 65.4492 18.1055V18.3594C65.4493 19.0459 65.5938 19.7324 65.8467 20.3467C66.0996 20.9609 66.4609 21.5029 66.9307 21.9727C67.4004 22.4424 67.9424 22.8037 68.5566 23.0566C69.171 23.3096 69.8583 23.4551 70.5449 23.4551C71.2314 23.455 71.8457 23.3096 72.4238 23.0566C73.002 22.8037 73.5078 22.4424 73.9053 21.9727C74.3028 21.5029 74.6279 20.961 74.8447 20.3467V20.3105C75.0615 19.6963 75.1708 19.0097 75.1709 18.3232C75.1709 17.6366 75.0616 16.9855 74.8447 16.3711C74.6279 15.7568 74.3027 15.2149 73.9053 14.7451C73.4716 14.3115 73.002 13.9141 72.4238 13.6611C71.8457 13.4082 71.1953 13.2637 70.5449 13.2637ZM14.5283 8.5293C14.2031 8.5293 14.2032 8.74597 14.0586 9.39648C13.6972 11.2037 13.4082 19.5872 13.6973 22.2617H13.7334C17.7088 22.623 23.8887 19.7678 23.8887 12.4316C23.8881 8.96268 16.5884 8.52932 14.5283 8.5293ZM46.1143 4.08398C47.4876 4.08399 48.3906 5.06027 48.3906 6.57812C48.3906 6.83093 48.3545 7.04793 48.3545 7.26465V7.40918H45.1025C45.2472 8.02334 45.6445 8.27637 46.2588 8.27637C46.873 8.27637 47.3789 8.16791 47.8125 7.95117L48.0654 7.80664V9.03516H47.957C47.4512 9.25192 47.0899 9.36035 46.1865 9.36035C45.2831 9.36035 43.802 8.56551 43.8018 6.75879C43.8018 4.95181 44.5603 4.04785 46.0781 4.04785L46.1143 4.08398ZM39.6445 4.22852C40.0059 4.1201 40.3681 4.04785 40.7295 4.04785L40.7656 4.08398C42.0302 4.08418 42.7891 4.91592 42.7891 6.28906V9.28809H41.5605V6.25293C41.5605 5.31367 41.0547 5.24029 40.6572 5.24023C40.2597 5.24023 39.8975 5.3496 39.6445 5.42188V9.25195H38.416V2.31348H39.6445V4.22852ZM37.585 3.68652H35.417V9.25195H34.1875V3.68652H32.0557V2.53027H37.585V3.68652ZM46.0947 5.16797C45.5279 5.17207 45.1736 5.35924 45.0664 6.2168H47.126C47.0184 5.71495 46.7689 5.17665 46.0947 5.16797ZM108.058 0C108.419 1.99856e-05 108.744 0.108412 108.961 0.289062L108.925 0.25293C109.142 0.4336 109.286 0.758818 109.286 1.22852V4.37305C109.286 4.51752 109.286 4.62601 109.214 4.80664C109.142 4.95116 109.069 5.09571 108.961 5.24023C108.853 5.38476 108.708 5.49316 108.563 5.60156C108.419 5.70996 108.238 5.74608 108.058 5.74609H104.335C103.54 5.74603 103.143 5.3125 103.143 4.40918V1.26465C103.143 0.831085 103.251 0.505863 103.432 0.289062C103.612 0.108401 103.938 3.24843e-05 104.335 0H108.058Z" fill="#101511"/>
</svg>
