<svg width="154" height="50" viewBox="0 0 154 50" fill="none" xmlns="http://www.w3.org/2000/svg">
<path d="M2.022 9.222L0 2.898H1.386L2.526 6.87L2.73 7.602H2.772L2.988 6.882L4.206 2.898H5.454L6.678 6.87L6.894 7.602H6.936L7.134 6.87L8.286 2.898H9.6L7.578 9.222H6.312L5.022 5.208L4.812 4.482H4.77L4.56 5.208L3.3 9.222H2.022Z" fill="#1A1F18"/>
<path d="M10.6941 9.222V2.898H12.0861V9.222H10.6941ZM11.4021 1.71C11.1621 1.71 10.9561 1.626 10.7841 1.458C10.6121 1.286 10.5261 1.082 10.5261 0.846C10.5261 0.602 10.6121 0.4 10.7841 0.24C10.9561 0.0799999 11.1621 0 11.4021 0C11.6461 0 11.8481 0.0799999 12.0081 0.24C12.1721 0.4 12.2541 0.602 12.2541 0.846C12.2541 1.082 12.1721 1.286 12.0081 1.458C11.8481 1.626 11.6461 1.71 11.4021 1.71Z" fill="#1A1F18"/>
<path d="M16.2556 9.426C15.6796 9.426 15.2256 9.264 14.8936 8.94C14.5616 8.616 14.3956 8.15 14.3956 7.542V1.248H15.7816V7.368C15.7816 7.66 15.8436 7.878 15.9676 8.022C16.0916 8.166 16.2876 8.238 16.5556 8.238C16.6396 8.238 16.7316 8.228 16.8316 8.208C16.9316 8.184 17.0456 8.146 17.1736 8.094C17.3016 8.038 17.3656 8.01 17.3656 8.01L17.6116 9.078C17.6116 9.078 17.5356 9.114 17.3836 9.186C17.2316 9.254 17.0636 9.31 16.8796 9.354C16.6956 9.402 16.4876 9.426 16.2556 9.426ZM13.3036 4.056V2.898H17.4136V4.056H13.3036Z" fill="#1A1F18"/>
<path d="M18.8846 9.222V0.432H20.2706V3.774H20.3066C20.5106 3.462 20.7946 3.204 21.1586 3C21.5266 2.796 21.9566 2.694 22.4486 2.694C23.1766 2.694 23.7406 2.898 24.1406 3.306C24.5406 3.714 24.7406 4.272 24.7406 4.98V9.222H23.3486V5.298C23.3486 4.818 23.2306 4.46 22.9946 4.224C22.7626 3.984 22.4186 3.864 21.9626 3.864C21.4746 3.864 21.0706 4.032 20.7506 4.368C20.4346 4.704 20.2766 5.106 20.2766 5.574V9.222H18.8846Z" fill="#1A1F18"/>
<path d="M31.7095 9.432C31.2695 9.432 30.8875 9.376 30.5635 9.264C30.2435 9.152 29.9615 8.994 29.7175 8.79C29.4775 8.586 29.2935 8.376 29.1655 8.16C29.0375 7.944 28.9735 7.836 28.9735 7.836L29.9635 7.23C29.9635 7.23 30.0155 7.312 30.1195 7.476C30.2235 7.636 30.3515 7.782 30.5035 7.914C30.6595 8.046 30.8395 8.148 31.0435 8.22C31.2475 8.288 31.4815 8.322 31.7455 8.322C32.1135 8.322 32.4075 8.25 32.6275 8.106C32.8475 7.958 32.9575 7.756 32.9575 7.5C32.9575 7.256 32.8535 7.066 32.6455 6.93C32.4415 6.79 32.0535 6.652 31.4815 6.516C30.6535 6.316 30.0735 6.062 29.7415 5.754C29.4135 5.442 29.2495 5.032 29.2495 4.524C29.2495 3.98 29.4775 3.538 29.9335 3.198C30.3895 2.858 30.9655 2.688 31.6615 2.688C32.0175 2.688 32.3335 2.726 32.6095 2.802C32.8895 2.878 33.1415 2.992 33.3655 3.144C33.5895 3.296 33.7675 3.456 33.8995 3.624C34.0315 3.788 34.0975 3.87 34.0975 3.87L33.1495 4.518C33.1495 4.518 33.0995 4.462 32.9995 4.35C32.8995 4.234 32.7835 4.134 32.6515 4.05C32.5195 3.962 32.3715 3.898 32.2075 3.858C32.0475 3.818 31.8655 3.798 31.6615 3.798C31.3215 3.798 31.0495 3.866 30.8455 4.002C30.6415 4.134 30.5395 4.298 30.5395 4.494C30.5395 4.674 30.6175 4.832 30.7735 4.968C30.9335 5.1 31.3775 5.262 32.1055 5.454C32.8815 5.65 33.4355 5.904 33.7675 6.216C34.1035 6.524 34.2715 6.926 34.2715 7.422C34.2715 8.026 34.0315 8.512 33.5515 8.88C33.0715 9.248 32.4575 9.432 31.7095 9.432Z" fill="#1A1F18"/>
<path d="M37.8396 9.426C37.0996 9.426 36.5276 9.22 36.1236 8.808C35.7236 8.392 35.5236 7.804 35.5236 7.044V2.898H36.9096V6.78C36.9096 7.292 37.0256 7.67 37.2576 7.914C37.4896 8.154 37.8396 8.274 38.3076 8.274C38.7636 8.274 39.1476 8.112 39.4596 7.788C39.7716 7.46 39.9276 7.046 39.9276 6.546V2.898H41.3196V9.222H39.9936V7.704L40.6356 8.34H39.9576C39.7616 8.652 39.4796 8.912 39.1116 9.12C38.7436 9.324 38.3196 9.426 37.8396 9.426Z" fill="#1A1F18"/>
<path d="M43.119 11.844V2.898H44.469V4.218L44.169 3.87H44.505C44.713 3.522 45.011 3.24 45.399 3.024C45.787 2.804 46.227 2.694 46.719 2.694C47.583 2.694 48.301 3.002 48.873 3.618C49.445 4.23 49.731 5.044 49.731 6.06C49.731 7.072 49.435 7.886 48.843 8.502C48.251 9.118 47.545 9.426 46.725 9.426C46.209 9.426 45.761 9.322 45.381 9.114C45.001 8.906 44.723 8.648 44.547 8.34H44.511V11.844H43.119ZM46.395 8.25C46.975 8.25 47.441 8.046 47.793 7.638C48.149 7.23 48.327 6.7 48.327 6.048C48.327 5.392 48.143 4.866 47.775 4.47C47.411 4.07 46.953 3.87 46.401 3.87C45.837 3.87 45.371 4.076 45.003 4.488C44.639 4.9 44.457 5.422 44.457 6.054C44.457 6.706 44.633 7.236 44.985 7.644C45.341 8.048 45.811 8.25 46.395 8.25Z" fill="#1A1F18"/>
<path d="M51.1112 11.844V2.898H52.4612V4.218L52.1612 3.87H52.4972C52.7052 3.522 53.0032 3.24 53.3912 3.024C53.7792 2.804 54.2192 2.694 54.7112 2.694C55.5752 2.694 56.2932 3.002 56.8652 3.618C57.4372 4.23 57.7232 5.044 57.7232 6.06C57.7232 7.072 57.4272 7.886 56.8352 8.502C56.2432 9.118 55.5372 9.426 54.7172 9.426C54.2012 9.426 53.7532 9.322 53.3732 9.114C52.9932 8.906 52.7152 8.648 52.5392 8.34H52.5032V11.844H51.1112ZM54.3872 8.25C54.9672 8.25 55.4332 8.046 55.7852 7.638C56.1412 7.23 56.3192 6.7 56.3192 6.048C56.3192 5.392 56.1352 4.866 55.7672 4.47C55.4032 4.07 54.9452 3.87 54.3932 3.87C53.8292 3.87 53.3632 4.076 52.9952 4.488C52.6312 4.9 52.4492 5.422 52.4492 6.054C52.4492 6.706 52.6252 7.236 52.9772 7.644C53.3332 8.048 53.8032 8.25 54.3872 8.25Z" fill="#1A1F18"/>
<path d="M62.1094 9.426C61.0934 9.426 60.2674 9.108 59.6314 8.472C58.9994 7.836 58.6834 7.034 58.6834 6.066C58.6834 5.086 59.0034 4.278 59.6434 3.642C60.2834 3.006 61.1054 2.688 62.1094 2.688C63.1174 2.688 63.9414 3.01 64.5814 3.654C65.2214 4.298 65.5414 5.102 65.5414 6.066C65.5414 7.026 65.2254 7.826 64.5934 8.466C63.9614 9.106 63.1334 9.426 62.1094 9.426ZM62.1094 8.208C62.6974 8.208 63.1814 8.01 63.5614 7.614C63.9414 7.214 64.1314 6.698 64.1314 6.066C64.1314 5.434 63.9414 4.918 63.5614 4.518C63.1854 4.114 62.7014 3.912 62.1094 3.912C61.5174 3.912 61.0314 4.112 60.6514 4.512C60.2754 4.912 60.0874 5.43 60.0874 6.066C60.0874 6.702 60.2754 7.218 60.6514 7.614C61.0314 8.01 61.5174 8.208 62.1094 8.208Z" fill="#1A1F18"/>
<path d="M66.9198 9.222V2.898H68.2338V4.02L68.0898 3.876H68.2758C68.4038 3.528 68.6298 3.244 68.9538 3.024C69.2818 2.8 69.6358 2.688 70.0158 2.688C70.1478 2.688 70.2818 2.702 70.4178 2.73C70.5538 2.754 70.6798 2.79 70.7958 2.838C70.9118 2.886 70.9698 2.91 70.9698 2.91L70.7658 4.194C70.7658 4.194 70.7098 4.172 70.5978 4.128C70.4858 4.08 70.3658 4.042 70.2378 4.014C70.1138 3.986 69.9978 3.972 69.8898 3.972C69.4458 3.972 69.0718 4.14 68.7678 4.476C68.4638 4.812 68.3118 5.284 68.3118 5.892V9.222H66.9198Z" fill="#1A1F18"/>
<path d="M74.4861 9.426C73.9101 9.426 73.4561 9.264 73.1241 8.94C72.7921 8.616 72.6261 8.15 72.6261 7.542V1.248H74.0121V7.368C74.0121 7.66 74.0741 7.878 74.1981 8.022C74.3221 8.166 74.5181 8.238 74.7861 8.238C74.8701 8.238 74.9621 8.228 75.0621 8.208C75.1621 8.184 75.2761 8.146 75.4041 8.094C75.5321 8.038 75.5961 8.01 75.5961 8.01L75.8421 9.078C75.8421 9.078 75.7661 9.114 75.6141 9.186C75.4621 9.254 75.2941 9.31 75.1101 9.354C74.9261 9.402 74.7181 9.426 74.4861 9.426ZM71.5341 4.056V2.898H75.6441V4.056H71.5341Z" fill="#1A1F18"/>
<path d="M79.55 4.056V2.898H83.642V4.056H79.55ZM80.702 9.222V2.274C80.702 1.646 80.89 1.15 81.266 0.786C81.642 0.418 82.144 0.234 82.772 0.234C82.972 0.234 83.16 0.254 83.336 0.294C83.516 0.33 83.68 0.38 83.828 0.444C83.98 0.504 84.056 0.534 84.056 0.534L83.798 1.608C83.798 1.608 83.746 1.588 83.642 1.548C83.542 1.508 83.432 1.474 83.312 1.446C83.196 1.418 83.078 1.404 82.958 1.404C82.686 1.404 82.472 1.484 82.316 1.644C82.164 1.8 82.088 2.01 82.088 2.274V9.222H80.702Z" fill="#1A1F18"/>
<path d="M84.8846 9.222V2.898H86.1986V4.02L86.0546 3.876H86.2406C86.3686 3.528 86.5946 3.244 86.9186 3.024C87.2466 2.8 87.6006 2.688 87.9806 2.688C88.1126 2.688 88.2466 2.702 88.3826 2.73C88.5186 2.754 88.6446 2.79 88.7606 2.838C88.8766 2.886 88.9346 2.91 88.9346 2.91L88.7306 4.194C88.7306 4.194 88.6746 4.172 88.5626 4.128C88.4506 4.08 88.3306 4.042 88.2026 4.014C88.0786 3.986 87.9626 3.972 87.8546 3.972C87.4106 3.972 87.0366 4.14 86.7326 4.476C86.4286 4.812 86.2766 5.284 86.2766 5.892V9.222H84.8846Z" fill="#1A1F18"/>
<path d="M92.7422 9.426C91.7262 9.426 90.9002 9.108 90.2642 8.472C89.6322 7.836 89.3162 7.034 89.3162 6.066C89.3162 5.086 89.6362 4.278 90.2762 3.642C90.9162 3.006 91.7382 2.688 92.7422 2.688C93.7502 2.688 94.5742 3.01 95.2142 3.654C95.8542 4.298 96.1742 5.102 96.1742 6.066C96.1742 7.026 95.8582 7.826 95.2262 8.466C94.5942 9.106 93.7662 9.426 92.7422 9.426ZM92.7422 8.208C93.3302 8.208 93.8142 8.01 94.1942 7.614C94.5742 7.214 94.7642 6.698 94.7642 6.066C94.7642 5.434 94.5742 4.918 94.1942 4.518C93.8182 4.114 93.3342 3.912 92.7422 3.912C92.1502 3.912 91.6642 4.112 91.2842 4.512C90.9082 4.912 90.7202 5.43 90.7202 6.066C90.7202 6.702 90.9082 7.218 91.2842 7.614C91.6642 8.01 92.1502 8.208 92.7422 8.208Z" fill="#1A1F18"/>
<path d="M97.5526 9.222V2.898H98.8786V3.96L98.7646 3.792H98.9206C99.1166 3.472 99.4006 3.21 99.7726 3.006C100.149 2.798 100.557 2.694 100.997 2.694C101.485 2.694 101.901 2.8 102.245 3.012C102.593 3.224 102.839 3.534 102.983 3.942C103.203 3.554 103.509 3.25 103.901 3.03C104.297 2.806 104.737 2.694 105.221 2.694C105.941 2.694 106.491 2.898 106.871 3.306C107.255 3.714 107.447 4.284 107.447 5.016V9.222H106.061V5.316C106.061 4.828 105.949 4.466 105.725 4.23C105.505 3.99 105.177 3.87 104.741 3.87C104.313 3.87 103.947 4.032 103.643 4.356C103.343 4.68 103.193 5.092 103.193 5.592V9.222H101.807V5.31C101.807 4.814 101.691 4.45 101.459 4.218C101.231 3.986 100.905 3.87 100.481 3.87C100.057 3.87 99.6946 4.036 99.3946 4.368C99.0946 4.696 98.9446 5.094 98.9446 5.562V9.222H97.5526Z" fill="#1A1F18"/>
<path d="M21.4363 31.9242H13.0452V28.4253H24.8285C24.9799 28.76 25.018 29.2262 25.049 29.5987C25.6192 36.4728 21.1062 41.8371 14.1487 42.3012C7.39285 42.7514 1.06828 38.075 0.124156 31.341C-1.15449 22.2215 7.66071 14.9067 16.5466 17.3039C18.569 17.8496 20.3625 18.9622 21.8768 20.3741L19.4031 22.8166C17.9598 21.5273 16.2522 20.6742 14.3041 20.4394C7.7085 19.644 2.63206 25.4314 4.11953 31.7976C5.48894 37.6583 12.3838 40.6831 17.6891 37.6961C19.901 36.4505 21.1917 34.4439 21.4359 31.9242H21.4363Z" fill="#101511"/>
<path d="M74.9135 27.7491V26.3973H78.4065L78.4081 41.6466C78.2511 45.4481 76.4934 48.6748 72.506 49.4788C69.1777 50.15 65.9485 49.0652 64.0008 46.2892C63.7695 45.9592 63.3426 45.2785 63.221 44.9127C63.2089 44.8765 63.1736 44.8462 63.2073 44.8048L66.3381 43.4964C66.5943 43.9848 66.8577 44.4688 67.2248 44.8856C69.3094 47.2537 73.5144 46.8568 74.583 43.7424C74.9509 42.67 74.9256 41.5531 74.9135 40.4321C74.8513 40.4206 74.8204 40.4381 74.7714 40.4699C74.5035 40.6419 74.1858 41.065 73.8425 41.2995C70.9985 43.24 67.0324 42.1677 64.7956 39.8171C61.3118 36.1558 61.8785 30.2573 66.0124 27.3427C68.3753 25.6768 71.9514 25.2282 74.2722 27.2118C74.4746 27.3849 74.6597 27.6918 74.9139 27.7491H74.9135ZM70.3688 29.1527C66.8441 29.4488 65.2297 33.5903 66.716 36.5232C68.2243 39.4999 72.355 40.0229 74.2874 37.1684C76.3789 34.0791 74.5943 28.7976 70.3688 29.1527Z" fill="#101511"/>
<path d="M151.115 28.7437V26.6364H153.925L153.927 41.4884C153.717 46.3742 150.299 49.2983 145.392 49.0225C143.033 48.8899 140.84 47.5289 139.616 45.5585C139.539 45.4355 139.053 44.5924 139.111 44.5288L141.741 43.4552C142.297 45.0355 143.9 46.2464 145.593 46.359C148.335 46.5414 150.526 45.1748 151.022 42.4286C151.183 41.535 151.092 40.6222 151.114 39.7174L150.992 39.7437C149.026 42.585 144.979 43.0675 142.124 41.2448C137.64 38.3811 137.253 31.3717 141.197 27.8883C143.902 25.4995 148.136 25.4533 150.613 28.1864C150.744 28.3313 150.866 28.5534 150.995 28.6832C151.034 28.7222 151.047 28.7584 151.115 28.7437ZM145.887 28.7158C139.553 29.1983 139.988 40.1346 146.638 39.6772C152.954 39.2425 152.496 28.2123 145.887 28.7158Z" fill="#101511"/>
<path d="M34.0345 25.9324C40.1635 25.5654 44.4813 31.3214 42.3943 37.0343C39.8374 44.0338 29.4255 44.0804 26.8156 37.1139C24.8442 31.8516 28.3529 26.2728 34.0345 25.9324ZM34.2353 29.1531C30.3234 29.4509 28.744 34.1691 30.8784 37.1454C32.7888 39.8096 36.7709 39.638 38.4913 36.8668C40.5169 33.6035 38.3576 28.8391 34.2353 29.1531Z" fill="#101511"/>
<path d="M52.1814 25.9323C58.2606 25.5772 62.5138 31.2608 60.5303 36.9439C58.0489 44.0544 47.4559 44.1061 44.8926 37.0231C42.9843 31.75 46.5218 26.2627 52.181 25.9319L52.1814 25.9323ZM52.3023 29.153C48.4109 29.4711 46.8708 34.1805 48.9856 37.1453C50.9541 39.905 55.1194 39.6013 56.7338 36.6425C58.5413 33.3291 56.3494 28.8222 52.3027 29.153H52.3023Z" fill="#101511"/>
<path d="M101.532 32.0828L90.4907 36.5765C91.0574 37.8324 92.2208 38.7797 93.6135 38.9903C95.6583 39.2992 97.4076 38.4915 98.5445 36.8173L101.368 38.6468C101.42 38.7212 100.694 39.5647 100.589 39.6778C96.3458 44.2184 88.584 42.7213 86.666 36.7656C84.7348 30.7676 89.7402 24.3286 96.1916 26.219C98.9461 27.0262 100.692 29.4799 101.532 32.0828ZM97.2358 30.8504C96.9791 30.032 96.1434 29.4755 95.3391 29.2502C92.4585 28.4433 89.696 30.9686 89.8888 33.833L97.2358 30.8508V30.8504Z" fill="#101511"/>
<path d="M117.984 26.0914C123.861 25.7861 127.481 31.2033 126.001 36.6161C123.882 44.3723 112.493 44.1506 110.712 36.2511C109.579 31.2256 112.615 26.3705 117.983 26.0918L117.984 26.0914ZM118.065 28.7158C111.508 29.1684 111.995 40.1628 118.815 39.6772C125.259 39.2183 124.779 28.2525 118.065 28.7158Z" fill="#101511"/>
<path d="M84.5085 17.7302H80.895V41.8244H84.5085V17.7302Z" fill="#101511"/>
<path d="M131.402 29.0618L131.525 29.0371C132.367 27.0512 134.69 26.0075 136.796 26.244C137.047 26.2718 137.906 26.4223 138.082 26.5529C138.108 26.572 138.119 26.5819 138.11 26.6158L137.062 29.2605C135.78 28.8998 134.45 28.9627 133.332 29.7214C132.255 30.4527 131.646 31.7049 131.52 32.9764L131.524 41.6875L131.462 41.8248H128.631V26.597H131.401V29.0622L131.402 29.0618Z" fill="#101511"/>
<path d="M105.738 37.7793C108.708 37.4473 108.956 41.9287 106.087 42.0226C103.361 42.1118 103.053 38.0798 105.738 37.7793Z" fill="#101511"/>
</svg>
