<svg width="149" height="54" viewBox="0 0 149 54" fill="none" xmlns="http://www.w3.org/2000/svg">
<path d="M0 25.5746C0.214964 25.5134 0.151739 25.3439 0.17432 25.1922C0.673796 21.8467 2.4459 19.2641 5.43462 17.5829C5.57552 17.5607 6.04519 18.125 6.20145 18.2501C8.47483 20.0741 11.2694 20.9843 14.2184 20.8078C11.8836 25.3697 13.2971 30.9331 17.338 34.0454C11.3118 38.9931 2.03584 36.053 0.303479 28.4695C0.206835 28.0463 0.242964 27.5175 0.000903211 27.1919V25.5746H0Z" fill="#101511"/>
<path d="M79.3258 53.2435C77.8373 52.76 77.457 51.2012 77.7894 49.819C78.1913 48.1484 79.9002 47.4839 81.1467 48.8165V45.9216L81.6669 46.0494V53.0732H81.2334L81.1042 52.3927C80.8423 52.8895 80.397 53.0004 79.9336 53.2435H79.3267H79.3258ZM79.3899 48.5823C77.8346 48.8644 77.8165 52.4131 79.3023 52.7139C81.0202 53.0616 81.2858 51.2349 81.1376 49.976C81.0247 49.0214 80.4096 48.3977 79.3899 48.5823Z" fill="#101511"/>
<path d="M106.289 53.2428H105.595C105.377 53.0414 105.077 53.0263 104.821 52.8542C103.369 51.8748 103.644 48.4769 105.573 48.1549C107.502 47.8328 108.208 49.6089 108.013 51.2325C107.891 52.258 107.213 52.8702 106.289 53.2419V53.2428ZM105.572 48.5807C103.945 48.9098 103.934 53.0858 106.24 52.7265C108.029 52.4488 108.082 48.0723 105.572 48.5807Z" fill="#101511"/>
<path d="M142.094 53.2436H141.4C141.155 53.0351 140.852 53.0192 140.578 52.8169C139.218 51.8197 139.461 48.5434 141.309 48.1725C143.333 47.7662 144.015 49.5787 143.819 51.2333C143.697 52.2571 143.018 52.8719 142.095 53.2427L142.094 53.2436ZM141.377 48.5815C139.742 48.9124 139.742 53.0857 142.045 52.7273C143.834 52.4496 143.887 48.0732 141.377 48.5815Z" fill="#101511"/>
<path d="M84.7013 53.2436C83.0023 52.7868 82.5887 51.0807 83.0782 49.5636C83.2643 48.9861 83.7791 48.2817 84.4177 48.1548C86.0832 47.823 86.7787 49.1715 86.6089 50.6043H83.4016C83.4404 52.061 84.0157 52.9083 85.6054 52.7255C85.852 52.6971 86.076 52.5099 86.3424 52.5694L86.4354 52.8994L85.3958 53.2436H84.7022H84.7013ZM86.0886 50.1793C86.2042 47.9117 83.5786 48.0803 83.4007 50.1793H86.0886Z" fill="#101511"/>
<path d="M69.6165 53.2437C68.7657 52.9581 68.165 52.5162 67.9221 51.63C67.4777 50.0055 68.2012 47.8275 70.2614 48.1416C71.2667 48.2951 71.6668 49.7545 71.5241 50.6053H68.3168C68.3366 52.054 68.9409 52.9075 70.5206 52.7265C70.769 52.6981 70.9948 52.5154 71.2639 52.5633C71.3723 53.1834 70.6588 53.0042 70.3111 53.2437H69.6174H69.6165ZM71.0038 50.1794C71.1221 47.9109 68.4884 48.083 68.3159 50.1794H71.0038Z" fill="#101511"/>
<path d="M119.64 53.2433C118.561 52.9009 117.917 52.2071 117.821 51.0706C117.696 49.597 118.356 47.9513 120.118 48.1349C121.326 48.2609 121.628 49.6014 121.547 50.604H118.34C118.184 52.3561 119.611 53.2655 121.2 52.4768L121.251 52.9053L120.334 53.2424H119.64V53.2433ZM121.026 50.179C121.09 47.9025 118.492 48.0649 118.338 50.179H121.026Z" fill="#101511"/>
<path d="M56.3526 53.2437C55.5894 52.9686 54.9355 52.5827 54.6799 51.7789C54.1813 50.2175 54.7955 47.9233 56.8304 48.1353C58.0389 48.2613 58.3406 49.6018 58.2602 50.6043H55.0529C55.024 52.1098 55.6671 52.8843 57.2567 52.7255C57.4401 52.7069 57.9152 52.415 58.0001 52.6909C58.1211 53.0866 57.2251 53.0609 57.0472 53.2437H56.3535H56.3526ZM57.7399 50.1793C57.8041 47.9028 55.2055 48.0652 55.052 50.1793H57.7399Z" fill="#101511"/>
<path d="M93.0239 53.2437C90.6656 51.9981 92.5515 49.7473 94.6713 50.0942C94.8393 48.4964 93.6941 48.2533 92.4178 48.8167C92.0972 48.0989 93.6218 48.0714 94.0879 48.1557C95.897 48.4813 94.8818 51.8668 95.2783 53.0733H94.7581L94.7156 52.4789C94.4121 52.8773 94.0517 53.0148 93.6318 53.2445H93.0248L93.0239 53.2437ZM94.6713 50.52C93.7663 50.4508 92.5027 50.6487 92.4973 51.755C92.4937 52.5597 92.9823 52.8533 93.7564 52.7291C94.0427 52.683 94.6713 52.0824 94.6713 51.8402V50.5209V50.52Z" fill="#101511"/>
<path d="M131.084 53.2435C130.204 52.8487 129.797 52.0582 130.201 51.1418C130.502 50.4596 131.315 50.2129 132.005 50.1038C132.221 50.0692 132.488 50.1357 132.675 50.0807C132.886 50.0186 132.724 49.3524 132.665 49.1794C132.34 48.2265 131.191 48.5592 130.477 48.8165L130.419 48.5131C131.342 47.8175 132.945 47.9577 133.213 49.237C133.451 50.3744 133.069 51.8897 133.339 53.0732L132.917 53.0608L132.733 52.477C132.637 52.9499 132.075 52.9587 131.778 53.2426H131.084V53.2435ZM132.818 50.519C132.054 50.4737 130.991 50.5199 130.669 51.3458C130.471 51.8524 130.592 52.6287 131.219 52.7272C132.69 52.9596 132.901 51.6377 132.818 50.519Z" fill="#101511"/>
<path d="M148.769 41.4106C148.282 42.6261 146.545 42.7582 145.572 42.0512L145.786 41.6599C146.804 42.233 148.574 42.0698 148.211 40.5536C147.926 39.3639 145.624 39.5609 145.731 37.7901C145.814 36.407 147.613 35.9989 148.645 36.7263L148.457 37.1611C147.842 36.8825 146.733 36.6385 146.406 37.4316C145.754 39.0153 148.419 38.9594 148.768 40.2192V41.4106H148.769Z" fill="#101511"/>
<path d="M101.26 53.2435C100.039 52.9445 99.1522 52.3377 98.8081 51.0965C98.2364 49.0312 98.9526 46.3466 101.473 46.1736C101.854 46.1479 103.515 46.1053 103.035 46.7724C102.934 46.9126 102.364 46.5462 102.169 46.6039C99.7438 46.3688 98.9725 48.3445 99.1802 50.3903C99.388 52.4362 101.239 53.2328 103.079 52.477C103.095 52.6375 103.258 52.8168 103.081 52.9454L102.04 53.2435H101.259H101.26Z" fill="#101511"/>
<path d="M46.1226 53.243H45.429L44.3857 52.8615L44.3894 52.3922C45.6295 53.0576 47.5515 52.8331 47.3284 51.08C47.1496 49.6765 44.7561 49.7271 44.495 48.3289C44.1419 46.4348 46.0169 45.7117 47.5605 46.4295L47.4269 46.8234C47.3311 46.8997 46.8741 46.6388 46.6781 46.6113C45.5717 46.4561 44.626 47.0922 45.0153 48.2446C45.4046 49.3971 47.6183 49.3633 47.8333 51.0108C47.9932 52.236 47.2309 52.9227 46.1217 53.2447L46.1226 53.243Z" fill="#101511"/>
<path d="M135.852 53.243C135.65 53.062 135.352 52.9786 135.209 52.7258C135.159 52.6371 134.985 52.0764 134.985 52.0089V48.6465H134.292V48.2207H134.986L134.997 47.0833L135.505 46.8589V48.2207H136.806V48.6465H135.505V52.0941C135.505 52.1722 135.748 52.6415 135.852 52.6903L136.719 52.7329L136.373 53.243H135.852Z" fill="#101511"/>
<path d="M114.958 53.2432L114.215 52.9034L114.265 52.4767C115.165 52.9114 116.561 52.9318 116.34 51.5877C116.185 50.6464 114.073 50.728 114.272 49.2074C114.332 48.7452 114.749 48.2777 115.212 48.1721C115.58 48.0878 117.129 48.1011 116.56 48.731C116.433 48.8721 116.047 48.4764 115.869 48.5616C115.133 48.4445 114.629 48.8623 114.804 49.6075C114.99 50.4007 117.058 50.3412 116.867 52.0109C116.787 52.7056 116.153 53.0232 115.564 53.2432H114.957H114.958Z" fill="#101511"/>
<path d="M73.0835 53.2436L72.2173 52.9012C72.3591 52.1568 72.6454 52.6634 73.0455 52.7273C73.8458 52.855 74.6948 52.4398 74.4139 51.5553C74.133 50.6708 71.8199 50.5369 72.4133 48.9666C72.6987 48.2107 73.4854 48.0368 74.2333 48.1557C74.7291 48.2346 74.9016 48.3571 74.6424 48.8166C74.0571 48.3917 72.8857 48.405 72.826 49.2957C72.7547 50.3647 74.7878 50.2459 74.9079 51.5793C75.0001 52.6066 74.5656 52.8719 73.6904 53.2445H73.0835V53.2436Z" fill="#101511"/>
<path d="M50.4571 53.2435C47.2163 52.272 48.507 46.9978 52.0088 48.3135C52.0747 49.0223 51.6249 48.6027 51.2736 48.5681C50.0271 48.4457 49.2684 49.0791 49.1528 50.3025C49.0137 51.7717 49.6442 52.8842 51.2736 52.7254C51.456 52.7076 51.9347 52.414 52.0169 52.6908C52.1379 53.098 51.3323 53.0386 51.1507 53.2435H50.4571Z" fill="#101511"/>
<path d="M65.7152 53.2435C62.4474 52.2729 63.7472 46.9924 67.2733 48.3099L67.1839 48.7277C66.0603 48.3862 64.9927 48.4598 64.5465 49.669C63.842 51.5791 65.0433 53.3535 67.1848 52.5648L67.2643 52.8496L66.4089 53.2435H65.7152Z" fill="#101511"/>
<path d="M135.488 0.230177C144.852 -0.444964 149.797 6.98869 148.398 15.5473C147.277 22.4087 142.014 26.1171 135.03 25.6593C120.804 24.7278 120.809 1.28858 135.488 0.230177ZM136.007 4.6563C128.581 5.3554 128.576 20.4933 135.905 21.2225C144.907 22.1177 144.732 3.83566 136.007 4.6563Z" fill="#101511"/>
<path d="M22.4107 16.4675C24.2189 18.1425 26.7714 19.0155 29.2634 18.8531C30.0717 18.8008 30.8602 18.493 31.6406 18.4646C37.395 23.9615 34.5471 33.4969 26.8066 35.3404C18.9722 37.2062 11.798 30.1389 14.3026 22.4657C14.429 22.078 14.9014 20.7943 15.2536 20.6754C15.5589 20.5725 16.0412 20.5485 16.4034 20.443C18.806 19.7421 20.905 18.4557 22.4098 16.4675H22.4107Z" fill="#101511"/>
<path d="M12.0325 0.0599148C15.9136 -0.306489 19.5057 1.00387 21.8359 4.09479C18.999 7.35872 18.6955 11.5595 21.1694 15.1304C21.3211 15.3495 21.8621 15.8667 21.8143 16.0424C17.0643 22.3227 6.78934 21.1153 3.77262 13.8253C1.29872 7.84844 5.42007 0.684487 12.0325 0.0599148Z" fill="#101511"/>
<path d="M122.146 1.23426L121.025 5.73846C119.978 5.35431 118.882 5.02694 117.764 4.8983C110.956 4.11226 106.988 8.99528 108.514 15.4291C109.882 21.1922 116.104 21.9099 121.025 20.2119L121.891 24.6335C121.335 24.8172 120.786 25.023 120.214 25.1605C109.239 27.8017 99.8596 21.1168 102.69 9.56929C104.772 1.07457 114.493 -1.53639 122.146 1.23426Z" fill="#101511"/>
<path d="M27.6379 2.01727C34.9901 1.34568 39.8674 9.2797 35.1951 15.0579C31.2508 19.9365 23.0713 18.7805 20.8043 12.934C18.9012 8.02611 22.3153 2.50344 27.6379 2.01727Z" fill="#101511"/>
<path d="M79.8462 0.629883V2.07775H69.1829V11.5271H79.2392V13.0601H69.1829V23.787H80.4532V25.3191H67.4487V0.629883H79.8462Z" fill="#101511"/>
<path d="M63.1073 1.23539L62.5934 2.75956C58.0348 0.869875 51.8289 1.40218 48.6875 5.49118C45.8614 9.16941 45.6545 15.7168 48.0462 19.6425C51.0052 24.498 57.7088 25.0898 62.6286 23.028L63.194 24.4599C61.9936 24.9665 60.7156 25.3036 59.4177 25.4784C54.6433 26.1198 49.7858 25.1617 46.8684 21.1392C43.9755 17.1505 43.8454 10.6031 46.1639 6.33311C49.4191 0.335795 56.9763 -1.10942 63.1073 1.23539Z" fill="#101511"/>
<path d="M96.318 1.31248L95.5809 2.84198C94.6768 2.22627 93.4656 1.86963 92.3718 1.73744C88.7527 1.30184 85.0748 3.13652 85.8498 7.206C86.8586 12.5042 96.3026 11.1051 97.2609 17.7093C98.3104 24.9424 90.336 27.0592 84.7018 24.7641C84.4633 24.6674 83.3045 24.1378 83.3235 23.9302L84.0497 22.5107C88.0671 25.4233 96.1184 24.7277 95.5259 18.3906C94.9352 12.0713 84.5202 14.0248 84.0036 7.05961C83.5168 0.503378 91.4542 -1.25412 96.318 1.31071V1.31248Z" fill="#101511"/>
<path d="M111.577 41.4953C111.174 41.8049 110.911 42.2006 110.369 42.3088C106.482 43.0824 106.547 35.8785 110.298 36.4091C110.969 36.504 111.254 36.8544 111.664 37.3229L111.703 36.5519L112.189 36.5111V42.2218C112.226 44.6021 109.892 45.5541 107.932 44.4256L108.112 43.9634C109.062 44.4566 110.468 44.6873 111.183 43.7025C111.313 43.5233 111.579 42.9218 111.579 42.7293V41.4953H111.577ZM109.56 36.9183C107.635 37.2404 107.59 41.3835 109.404 41.7987C110.536 42.0577 111.456 41.3746 111.578 40.2612C111.734 38.8328 111.621 36.5741 109.56 36.9183Z" fill="#101511"/>
<path d="M80.4532 42.3466H79.9329V41.4958L79.2347 42.1283C76.9126 43.3757 75.5126 41.2092 75.6969 39.08C75.8956 36.7777 78.0317 35.3547 79.8471 37.2382V33.748C80.0576 33.7543 80.3132 33.6833 80.4541 33.8758V42.3466H80.4532ZM77.7417 36.9179C75.7628 37.3198 75.752 42.1106 78.1518 42.0094C79.7704 41.9411 79.9519 40.0417 79.8453 38.8156C79.7469 37.68 79.0387 36.6544 77.7417 36.9179Z" fill="#101511"/>
<path d="M139.06 33.7478V42.3463H138.54V41.4095C137.89 42.2674 137.044 42.7438 135.941 42.388C133.569 41.6224 133.825 36.6897 136.426 36.3969C137.31 36.2967 137.893 36.6019 138.453 37.2388V33.7487H139.06V33.7478ZM136.436 36.9186C134.354 37.2672 134.382 42.0633 136.759 42.0083C138.478 41.9684 138.569 39.8711 138.451 38.6441C138.349 37.5698 137.617 36.7207 136.436 36.9186Z" fill="#101511"/>
<path d="M87.9958 34.1736L87.8658 34.6846H84.7876V37.7489H87.6923L87.8224 38.2599H84.7876V41.8361H88.1692V42.3463H84.1807V34.1736H87.9958Z" fill="#101511"/>
<path d="M103.752 36.4074C107.497 35.8289 107.628 42.4073 104.16 42.5191C101.02 42.6203 100.806 36.8625 103.752 36.4074ZM103.751 36.9175C101.808 37.3096 101.751 41.6461 103.926 41.9868C106.653 42.4135 106.847 36.2929 103.751 36.9175Z" fill="#101511"/>
<path d="M95.603 36.4074C99.0912 35.8689 99.4363 41.5317 96.7348 42.3719C92.99 43.5367 92.4066 36.9006 95.603 36.4074ZM95.6012 36.9175C93.5148 37.3389 93.6873 42.1385 96.0989 42.0099C98.5755 41.8777 98.5403 36.324 95.6012 36.9175Z" fill="#101511"/>
<path d="M127.789 39.3669H123.888C123.767 41.4855 125.395 42.5634 127.354 41.6656L127.431 42.1659C125.378 43.0043 123.49 42.2112 123.291 39.9098C122.92 35.6141 127.98 34.9354 127.789 39.3678V39.3669ZM127.182 38.8559C127.14 36.1145 124.175 36.3354 123.888 38.8559H127.182Z" fill="#101511"/>
<path d="M140.88 39.3672C140.767 41.4973 142.372 42.5637 144.346 41.6658L144.423 42.1662C141.443 43.402 139.625 41.0288 140.451 38.2227C141.219 35.6117 144.569 35.7404 144.779 38.645C144.796 38.8792 144.847 39.2101 144.651 39.368H140.88V39.3672ZM144.175 38.8561C144.143 36.1139 141.146 36.3392 140.881 38.8561H144.175Z" fill="#101511"/>
<path d="M116.258 39.3666C116.07 41.5455 117.763 42.5365 119.726 41.6653L119.811 42.1719C117.096 43.1753 115.378 41.6697 115.652 38.8991C116.001 35.3867 120.46 35.5961 120.146 39.2255L120.03 39.3666H116.259H116.258ZM116.258 38.8556H119.466C119.61 36.1435 116.423 36.3183 116.258 38.8556Z" fill="#101511"/>
<path d="M68.6631 39.3668C68.4762 41.5324 70.1742 42.542 72.1306 41.6655L72.2155 42.1721C69.5555 43.156 67.8105 41.7303 68.058 38.9854C68.3831 35.3816 72.8315 35.5458 72.5506 39.2258L72.4349 39.3668H68.664H68.6631ZM68.6631 38.8558H71.9571C71.875 36.1544 68.8944 36.2963 68.6631 38.8558Z" fill="#101511"/>
<path d="M51.0641 39.367C50.8762 41.5459 52.5688 42.5369 54.5315 41.6657L54.6164 42.1722C51.8752 43.1464 50.1943 41.6985 50.4589 38.9003C50.5899 37.5137 51.5708 36.2601 53.1008 36.3887C54.3951 36.4979 54.9072 37.7772 54.9669 38.9021C54.9759 39.0751 55.0003 39.2588 54.8359 39.367H51.065H51.0641ZM54.2714 38.856C54.4032 36.1572 51.2122 36.3116 51.0641 38.856H54.2714Z" fill="#101511"/>
<path d="M49.6749 34.8548C46.0937 33.5231 44.3396 36.7329 45.2329 39.8567C45.8227 41.9212 47.8929 42.3426 49.7625 41.6648L49.8429 42.1678C46.0205 43.4799 43.767 40.6818 44.5139 37.063C45.027 34.5815 47.5162 33.3333 49.8483 34.3908L49.6758 34.8539L49.6749 34.8548Z" fill="#101511"/>
<path d="M60.4265 42.3459H59.8195V38.2169C59.8195 38.1131 59.5684 37.5569 59.4889 37.4344C58.8657 36.4745 57.4341 36.8622 56.9726 37.8053C56.9328 37.8869 56.7856 38.2569 56.7856 38.3021V42.3459H56.1787V36.9394C56.1787 36.8755 56.0007 36.722 56.129 36.5508C56.2112 36.4408 56.5128 36.4355 56.6185 36.5082L56.7847 37.4069C57.4585 36.0425 59.5368 36.0088 60.1835 37.4336C60.2287 37.5338 60.4265 38.0785 60.4265 38.1309V42.345V42.3459Z" fill="#101511"/>
<path d="M62.8544 34.8551V36.4725H64.2851L64.4152 36.9835H62.8544V41.2827C62.8544 41.3085 63.0341 41.7024 63.0721 41.7503C63.427 42.2054 64.1839 41.8603 64.2417 41.9206L64.3077 42.3074C63.8371 42.6028 62.8725 42.5363 62.5211 42.0359C62.4579 41.9455 62.2484 41.4415 62.2484 41.367V36.9826H61.2946C61.1744 36.2649 61.7435 36.5 62.2493 36.4725L62.261 35.0361L62.8562 34.8542L62.8544 34.8551Z" fill="#101511"/>
<path d="M129.869 34.8551V36.4725H131.344V36.9835H129.869V41.3679C129.869 41.9508 130.807 42.0998 131.256 41.9215L131.175 42.3944C130.694 42.5257 130.038 42.5328 129.651 42.1779C129.555 42.0901 129.263 41.54 129.263 41.4522V36.9826H128.309C128.189 36.2649 128.758 36.5 129.263 36.4725L129.275 35.0361L129.87 34.8542L129.869 34.8551Z" fill="#101511"/>
<path d="M92.8403 36.6534L92.7617 37.1511C91.4241 36.6392 90.0675 36.8521 89.5535 38.2991C88.7587 40.541 90.2996 42.8291 92.7635 41.6651L92.8448 42.1672C87.3524 44.2618 87.4454 34.7407 92.8403 36.6525V36.6534Z" fill="#101511"/>
<path d="M112.878 53.0735H112.358V49.5407C112.358 49.4201 112.05 48.8824 111.92 48.7778C111.437 48.3901 110.688 48.5098 110.273 48.941C110.156 49.0625 109.843 49.586 109.843 49.7111V53.0735H109.323V48.2206H109.756V48.902C110.382 48.2694 111.024 47.8959 111.948 48.2383C112.37 48.3945 112.877 49.1149 112.877 49.5398V53.0726L112.878 53.0735Z" fill="#101511"/>
<path d="M148.683 53.0735H148.163V49.5407C148.163 49.5114 147.962 49.0767 147.921 49.012C147.506 48.3732 146.584 48.4149 146.078 48.941C145.961 49.0625 145.648 49.586 145.648 49.7111V53.0735H145.128V48.2206H145.561V48.902C146.187 48.2694 146.83 47.8959 147.754 48.2383C148.175 48.3945 148.682 49.1149 148.682 49.5398V53.0726L148.683 53.0735Z" fill="#101511"/>
<path d="M62.8544 53.0738H62.3342V49.6263C62.3342 49.4879 62.0723 48.9325 61.9458 48.8154C61.5881 48.4854 60.8818 48.4694 60.47 48.7311C60.2758 48.8544 59.8205 49.4125 59.8205 49.6254V53.0729H59.3003V48.2201H59.7338V48.9014C60.3209 48.0675 61.7868 47.7632 62.4588 48.6504C62.56 48.7843 62.8535 49.4976 62.8535 49.6245V53.0721L62.8544 53.0738Z" fill="#101511"/>
<path d="M100.394 42.3466H99.7866V33.748C99.9971 33.7543 100.253 33.6833 100.394 33.8758V42.3466Z" fill="#101511"/>
<path d="M65.3682 36.4724H65.8884L65.9309 37.4935C66.3292 36.8388 66.8621 36.2887 67.7093 36.3872V36.9843C67.0382 36.8689 66.4349 37.3329 66.1919 37.9202C66.1341 38.0604 65.9751 38.6176 65.9751 38.7285V42.3464H65.3682V36.4724Z" fill="#101511"/>
<path d="M126.043 48.2325L127.485 52.3933L128.906 48.2715L129.436 48.2209L127.645 53.0765L127.191 53.064L125.535 48.2209L126.043 48.2325Z" fill="#101511"/>
<path d="M90.6828 53.0738H90.1626V45.9222C90.3487 45.9187 90.5636 45.8779 90.6828 46.05V53.0738Z" fill="#101511"/>
<path d="M114.352 36.4722V42.3462H113.745V36.5999C113.885 36.4074 114.141 36.4784 114.352 36.4722Z" fill="#101511"/>
<path d="M122.847 48.2209H123.281L123.323 48.9865C123.682 48.4817 124.058 48.0354 124.755 48.1348L124.746 48.5527C124.128 48.4941 123.367 49.2331 123.367 49.7956V53.0737H122.847V48.2209Z" fill="#101511"/>
<path d="M53.491 48.2209H52.9707V53.0738H53.491V48.2209Z" fill="#101511"/>
<path d="M138.367 48.2209H137.933V53.0738H138.367V48.2209Z" fill="#101511"/>
<path d="M83.0536 34.0032C83.1503 34.1132 82.2742 36.5849 82.1007 36.6851C81.9914 36.7481 81.8713 36.7295 81.7539 36.7268L82.35 34.1363L83.0536 34.0032Z" fill="#101511"/>
<path d="M87.7363 32.3867L86.2947 33.6518L85.6553 33.7467C86.2947 33.1186 86.6551 32.14 87.7363 32.3867Z" fill="#101511"/>
<path d="M113.891 34.4448C114.718 34.191 114.804 35.5032 113.965 35.3665C113.522 35.2947 113.511 34.5619 113.891 34.4448Z" fill="#101511"/>
<path d="M138.432 46.5398C138.759 46.8663 138.394 47.5166 137.931 47.2433C137.469 46.9701 138.024 46.1335 138.432 46.5398Z" fill="#101511"/>
<path d="M53.5559 47.1766C53.2181 47.559 52.5886 46.985 52.9698 46.5583C53.2976 46.1918 53.8793 46.8111 53.5559 47.1766Z" fill="#101511"/>
</svg>
