<svg width="51" height="52" viewBox="0 0 51 52" fill="none" xmlns="http://www.w3.org/2000/svg">
<path d="M12.0291 24.334C14.6839 23.9325 15.1032 28.0757 12.6004 28.3439C9.96149 28.6269 9.60783 24.6993 12.0291 24.334Z" fill="#F6F6F6"/>
<path d="M12.7276 19.6413C13.9598 19.3171 15.1792 20.5742 14.984 21.8511C14.6143 24.2534 11.0297 23.8305 11.2986 21.318C11.3786 20.566 12.0171 19.8289 12.7276 19.6413Z" fill="#F6F6F6"/>
<path d="M12.7812 29.2489C15.4697 28.8227 15.8057 32.7125 13.4069 33.0399C11.6642 33.2768 10.5808 30.9535 11.9106 29.7343C12.1075 29.5549 12.5268 29.29 12.7812 29.2505V29.2489Z" fill="#F6F6F6"/>
<path d="M15.3053 33.5006C16.0847 33.3838 17.1312 34.0387 17.2929 34.8515C17.7538 37.1682 14.6764 37.9663 13.9291 36.0461C13.5066 34.9617 14.1691 33.6701 15.3053 33.5006Z" fill="#F6F6F6"/>
<path d="M15.0889 15.5558C17.0589 15.2135 18.0782 17.7195 16.4636 18.8466C15.1897 19.7367 13.4918 18.5751 13.7319 17.03C13.8359 16.362 14.428 15.6693 15.0889 15.5558Z" fill="#F6F6F6"/>
<path d="M19.008 36.7026C19.7777 36.5808 20.7347 37.2933 20.8435 38.1012C21.0883 39.921 18.9728 40.928 17.8974 39.5311C17.0732 38.4599 17.715 36.9083 19.0096 36.7026H19.008Z" fill="#F6F6F6"/>
<path d="M19.171 12.4656C20.7121 12.4903 21.341 14.5668 20.096 15.5705C18.8509 16.5742 17.1066 15.3385 17.4683 13.8067C17.6699 12.9478 18.3164 12.4525 19.171 12.4656Z" fill="#F6F6F6"/>
<path d="M23.412 38.4714C24.8555 38.2871 25.7869 39.9046 24.8955 41.1008C24.3978 41.7688 23.4168 41.9268 22.7287 41.4628C21.5797 40.6878 21.9702 38.6557 23.412 38.4714Z" fill="#F6F6F6"/>
<path d="M23.4693 10.863C25.2248 10.7758 25.8137 13.3871 24.1222 14.0238C21.7634 14.9091 21.0801 10.9815 23.4693 10.863Z" fill="#F6F6F6"/>
<path d="M29.4182 41.086C29.2102 41.3032 28.7957 41.5204 28.4981 41.5467C27.093 41.6717 26.3969 39.7828 27.5635 38.8745C28.8917 37.8412 30.62 39.8256 29.4182 41.086Z" fill="#F6F6F6"/>
<path d="M28.1368 10.97C28.3497 10.9321 28.9066 11.1543 29.089 11.2908C30.134 12.0708 29.7083 13.856 28.3897 13.9399C26.5381 14.0584 26.2933 11.2958 28.1352 10.97H28.1368Z" fill="#F6F6F6"/>
<path d="M16.8074 24.8309C18.2668 24.5743 19.0094 26.478 17.966 27.2925C16.3993 28.515 14.7862 26.1621 16.2873 25.0695C16.4025 24.9856 16.6698 24.854 16.8074 24.8309Z" fill="#F6F6F6"/>
<path d="M18.1505 20.3571C18.4257 20.3192 18.861 20.464 19.0722 20.6516C20.0852 21.5483 19.2371 23.202 17.8832 22.812C16.6094 22.4467 16.8094 20.543 18.1489 20.3554L18.1505 20.3571Z" fill="#F6F6F6"/>
<path d="M19.2173 31.6462C18.1643 32.8655 16.228 31.2481 17.3834 29.9531C18.4636 28.7421 20.2831 30.4138 19.2173 31.6462Z" fill="#F6F6F6"/>
<path d="M32.4303 12.905C33.424 12.696 34.2354 13.6898 33.8145 14.659C33.6705 14.9897 33.0912 15.4109 32.7359 15.429C32.5231 15.4389 31.8862 15.0753 31.747 14.9075C31.2349 14.2954 31.6413 13.0695 32.4303 12.9033V12.905Z" fill="#F6F6F6"/>
<path d="M32.8 37.1518C33.8626 37.1485 34.4051 38.4632 33.6786 39.2579C33.2849 39.689 32.472 39.7334 32.0383 39.3385C31.2142 38.5866 31.6654 37.1551 32.7984 37.1518H32.8Z" fill="#F6F6F6"/>
<path d="M21.2628 33.0021C22.1942 32.8375 22.7735 33.448 22.6727 34.3974C22.5655 35.4159 21.1428 35.6791 20.5779 34.84C20.149 34.2032 20.4899 33.1403 21.2628 33.0037V33.0021Z" fill="#F6F6F6"/>
<path d="M21.3731 17.1057C22.2485 17.0267 22.7734 17.5763 22.6582 18.4829C22.5782 19.1148 21.97 19.536 21.3699 19.4504C21.0035 19.3978 20.717 19.2036 20.533 18.8745C20.3602 18.5652 20.3506 17.884 20.5538 17.5878C20.581 17.5483 20.9811 17.1863 21.0099 17.1732C21.0803 17.1403 21.2835 17.1139 21.3731 17.1057Z" fill="#F6F6F6"/>
<path d="M25.7178 15.9967C26.2155 15.8914 26.5675 16.0461 26.8588 16.4541C27.4541 17.2884 26.5339 18.399 25.5706 17.9992C24.668 17.6257 24.836 16.1843 25.7162 15.9967H25.7178Z" fill="#F6F6F6"/>
<path d="M25.8829 34.3266C26.9662 34.2163 27.4735 35.6018 26.619 36.2468C26.1869 36.5726 25.406 36.4508 25.1323 35.9555C24.7707 35.3007 25.1275 34.4039 25.8845 34.3266H25.8829Z" fill="#F6F6F6"/>
<path d="M22.1205 26.9552C22.0421 27.0193 21.594 27.1345 21.4804 27.1263C20.8739 27.0819 20.6147 26.5866 20.6851 26.0041C20.7715 25.2867 21.7509 25.0646 22.2198 25.5878C22.5158 25.9186 22.4566 26.6804 22.1221 26.9552H22.1205Z" fill="#F6F6F6"/>
<path d="M30.4453 33.2225C30.7589 33.2044 31.2182 33.5319 31.3286 33.833C31.6247 34.6425 30.6357 35.4767 29.9188 34.84C29.2979 34.2887 29.6579 33.2653 30.4437 33.2225H30.4453Z" fill="#F6F6F6"/>
<path d="M29.8303 17.6043C30.2544 17.1765 30.8289 17.2966 31.1809 17.7507C31.5378 18.2115 31.3666 18.7166 30.9121 19.021C30.0431 19.6035 29.1262 18.3151 29.8303 17.6043Z" fill="#F6F6F6"/>
<path d="M36.1866 34.3826C36.9275 34.2263 37.5628 34.8894 37.222 35.6133C36.7771 36.5578 35.4361 36.1876 35.5609 35.1197C35.5961 34.817 35.8922 34.4434 36.1866 34.3826Z" fill="#F6F6F6"/>
<path d="M44.4012 22.4006C44.6892 22.3431 45.1181 22.5537 45.2653 22.812C45.8238 23.791 44.4684 24.7519 43.8331 23.7334C43.5002 23.1987 43.8251 22.5158 44.4012 22.4006Z" fill="#F6F6F6"/>
<path d="M45.1492 28.8671C45.8933 29.6322 44.8131 30.9601 43.957 30.1209C43.1232 29.3031 44.4003 28.0971 45.1492 28.8671Z" fill="#F6F6F6"/>
<path d="M6.47844 28.8671C7.22737 28.0971 8.5044 29.3015 7.67065 30.121C6.8145 30.9601 5.73431 29.6323 6.47844 28.8671Z" fill="#F6F6F6"/>
<path d="M6.93273 22.2345C7.24959 22.2032 7.58405 22.4253 7.74087 22.7001C8.22096 23.5426 7.08156 24.4887 6.38544 23.7071C5.92136 23.1872 6.24941 22.3036 6.93273 22.2345Z" fill="#F6F6F6"/>
<path d="M9.86135 34.942C10.6327 34.0963 11.9721 35.4981 10.9431 36.2485C10.1222 36.8474 9.17003 35.7005 9.86135 34.942Z" fill="#F6F6F6"/>
<path d="M41.7653 34.942C42.4566 35.7005 41.5044 36.8458 40.6835 36.2485C39.6545 35.4982 40.9939 34.0979 41.7653 34.942Z" fill="#F6F6F6"/>
<path d="M41.7656 17.8429C41.0071 18.6738 39.6565 17.3229 40.6838 16.5364C41.4792 15.9276 42.4601 17.0827 41.7656 17.8429Z" fill="#F6F6F6"/>
<path d="M26.2567 6.55535C27.2281 6.44675 27.5721 7.87497 26.62 8.20076C25.4486 8.60224 25.0693 6.68698 26.2567 6.55535Z" fill="#F6F6F6"/>
<path d="M10.3132 16.2172C11.3998 16.107 11.5054 17.7639 10.5629 17.9136C9.33864 18.1061 9.24422 16.3258 10.3132 16.2172Z" fill="#F6F6F6"/>
<path d="M18.6853 7.05223C20.0343 6.73631 20.1591 8.87041 18.7861 8.69106C17.9332 8.58082 17.8819 7.23981 18.6853 7.05223Z" fill="#F6F6F6"/>
<path d="M13.9608 39.9029C14.7369 39.7203 15.3674 40.7042 14.7577 41.3295C14.2184 41.8807 13.2615 41.4611 13.3351 40.6434C13.3623 40.3505 13.6855 39.9671 13.9608 39.9029Z" fill="#F6F6F6"/>
<path d="M37.2613 39.9045C37.9718 39.7532 38.5287 40.5002 38.1767 41.1765C37.7862 41.9235 36.4884 41.5648 36.6356 40.5858C36.6756 40.3208 37.0069 39.9588 37.2613 39.9045Z" fill="#F6F6F6"/>
<path d="M26.2026 44.4327C26.5099 44.3916 26.7435 44.4377 26.9595 44.6746C27.7629 45.5631 26.3994 46.5751 25.7641 45.8494C25.3161 45.3377 25.5385 44.5216 26.2042 44.4327H26.2026Z" fill="#F6F6F6"/>
<path d="M37.1535 11.2497C38.0897 11.0045 38.6818 12.0526 37.9985 12.6697C37.1903 13.3986 36.1373 12.2024 36.8703 11.4537C36.9279 11.3945 37.0831 11.2678 37.1535 11.248V11.2497Z" fill="#F6F6F6"/>
<path d="M32.3743 7.21841C33.8978 6.89097 33.6594 9.3377 32.2655 8.79471C31.5966 8.53474 31.6478 7.37307 32.3743 7.21841Z" fill="#F6F6F6"/>
<path d="M32.4302 43.9358C33.7745 43.7005 33.7601 45.9399 32.3358 45.5533C31.5789 45.3476 31.6301 44.0757 32.4302 43.9358Z" fill="#F6F6F6"/>
<path d="M18.7921 43.9342C19.5731 43.768 20.0676 44.5249 19.7331 45.2324C19.6819 45.341 19.3682 45.5401 19.2514 45.5648C17.9728 45.8396 17.9232 44.1185 18.7921 43.9342Z" fill="#F6F6F6"/>
<path d="M13.748 11.0835C14.6314 10.8548 15.2891 11.7729 14.6954 12.4442C14.0857 13.1337 13.0119 12.5068 13.3287 11.536C13.38 11.3764 13.588 11.1246 13.7464 11.0835H13.748Z" fill="#F6F6F6"/>
<path d="M36.1876 16.4393C37.3414 16.1958 37.5126 18.2345 36.1796 18.0238C35.3842 17.8988 35.3762 16.6104 36.1876 16.4393Z" fill="#F6F6F6"/>
<path d="M23.5167 29.4677C24.7889 29.1699 24.8433 30.9798 23.7743 30.9519C22.8574 30.9272 22.8558 29.624 23.5167 29.4677Z" fill="#F6F6F6"/>
<path d="M23.2789 21.6322C23.6485 21.2916 24.3878 21.5022 24.4839 22.0419C24.6951 23.2168 22.9444 23.3122 23.0452 22.1407C23.0564 22.0173 23.194 21.7112 23.2789 21.6339V21.6322Z" fill="#F6F6F6"/>
<path d="M38.3109 30.5751C38.5238 30.3595 38.9575 30.3381 39.1831 30.5586C39.4567 30.8252 39.4631 31.1904 39.2103 31.4718C38.8598 31.8601 38.1797 31.5738 38.1525 31.0769C38.1477 30.9782 38.2469 30.6409 38.3109 30.5751Z" fill="#F6F6F6"/>
<path d="M38.5475 20.854C39.7062 20.5792 39.4725 22.4813 38.4531 21.9778C37.9474 21.7277 38.0723 20.9675 38.5475 20.854Z" fill="#F6F6F6"/>
<path d="M39.299 25.6569C39.6895 25.5401 40.1055 25.6652 40.1711 26.1193C40.312 27.1049 38.7661 27.0769 39.0045 26.0173C39.0285 25.912 39.1998 25.6882 39.299 25.6586V25.6569Z" fill="#F6F6F6"/>
<path d="M28.0799 29.6339C28.928 29.4364 28.9889 30.8038 28.1823 30.7231C27.5374 30.659 27.5438 29.7573 28.0799 29.6339Z" fill="#F6F6F6"/>
<path d="M28.5612 22.7034C28.0411 23.0769 27.3194 22.269 27.8827 21.8116C28.5612 21.2604 29.0493 22.3529 28.5612 22.7034Z" fill="#F6F6F6"/>
<path d="M33.6091 30.3513C34.2332 30.2048 34.39 31.0358 33.8955 31.197C33.2378 31.4126 33.0986 30.4714 33.6091 30.3513Z" fill="#F6F6F6"/>
<path d="M33.555 21.1863C34.1967 20.9905 34.4512 21.9202 33.7983 22.0469C33.2462 22.1555 33.0957 21.3262 33.555 21.1863Z" fill="#F6F6F6"/>
<path d="M34.7925 25.7672C35.4982 25.6092 35.5414 26.7281 34.8389 26.6393C34.4036 26.5833 34.3572 25.8659 34.7925 25.7672Z" fill="#F6F6F6"/>
<path d="M30.7103 25.991C30.9136 26.2114 30.7471 26.5471 30.3871 26.4632C29.8622 26.3414 30.3423 25.5911 30.7103 25.991Z" fill="#F6F6F6"/>
<path d="M26.0289 26.0008C26.3153 26.0123 26.2577 26.4467 25.9777 26.4221C25.7264 26.399 25.696 25.9877 26.0289 26.0008Z" fill="#F6F6F6"/>
<path d="M18.8418 3.65282C19.7273 3.65282 20.4452 2.91467 20.4452 2.00411C20.4452 1.09356 19.7273 0.355408 18.8418 0.355408C17.9562 0.355408 17.2383 1.09356 17.2383 2.00411C17.2383 2.91467 17.9562 3.65282 18.8418 3.65282Z" fill="#F6F6F6"/>
<path d="M11.2246 9.13533C12.1102 9.13533 12.8281 8.39718 12.8281 7.48663C12.8281 6.57607 12.1102 5.83792 11.2246 5.83792C10.339 5.83792 9.62109 6.57607 9.62109 7.48663C9.62109 8.39718 10.339 9.13533 11.2246 9.13533Z" fill="#F6F6F6"/>
<path d="M6.07418 15.2579C6.95976 15.2579 7.67766 14.5198 7.67766 13.6092C7.67766 12.6987 6.95976 11.9605 6.07418 11.9605C5.18861 11.9605 4.4707 12.6987 4.4707 13.6092C4.4707 14.5198 5.18861 15.2579 6.07418 15.2579Z" fill="#F6F6F6"/>
<path d="M1.60348 23.2563C2.48906 23.2563 3.20696 22.5181 3.20696 21.6076C3.20696 20.697 2.48906 19.9589 1.60348 19.9589C0.717902 19.9589 0 20.697 0 21.6076C0 22.5181 0.717902 23.2563 1.60348 23.2563Z" fill="#F6F6F6"/>
<path d="M1.60348 31.4389C2.48906 31.4389 3.20696 30.7008 3.20696 29.7902C3.20696 28.8797 2.48906 28.1415 1.60348 28.1415C0.717902 28.1415 0 28.8797 0 29.7902C0 30.7008 0.717902 31.4389 1.60348 31.4389Z" fill="#F6F6F6"/>
<path d="M4.11617 38.5438C5.00175 38.5438 5.71965 37.8057 5.71965 36.8951C5.71965 35.9845 5.00175 35.2464 4.11617 35.2464C3.2306 35.2464 2.5127 35.9845 2.5127 36.8951C2.5127 37.8057 3.2306 38.5438 4.11617 38.5438Z" fill="#F6F6F6"/>
<path d="M9.582 45.4924C10.4676 45.4924 11.1855 44.7542 11.1855 43.8437C11.1855 42.9331 10.4676 42.195 9.582 42.195C8.69642 42.195 7.97852 42.9331 7.97852 43.8437C7.97852 44.7542 8.69642 45.4924 9.582 45.4924Z" fill="#F6F6F6"/>
<path d="M18.582 51.7416C19.4676 51.7416 20.1855 51.0035 20.1855 50.0929C20.1855 49.1824 19.4676 48.4442 18.582 48.4442C17.6964 48.4442 16.9785 49.1824 16.9785 50.0929C16.9785 51.0035 17.6964 51.7416 18.582 51.7416Z" fill="#F6F6F6"/>
<path d="M27.5937 52C28.4793 52 29.1972 51.2618 29.1972 50.3513C29.1972 49.4407 28.4793 48.7026 27.5937 48.7026C26.7081 48.7026 25.9902 49.4407 25.9902 50.3513C25.9902 51.2618 26.7081 52 27.5937 52Z" fill="#F6F6F6"/>
<path d="M34.3935 52C35.2791 52 35.997 51.2618 35.997 50.3513C35.997 49.4407 35.2791 48.7026 34.3935 48.7026C33.5079 48.7026 32.79 49.4407 32.79 50.3513C32.79 51.2618 33.5079 52 34.3935 52Z" fill="#F6F6F6"/>
<path d="M40.833 46.3645C41.7185 46.3645 42.4365 45.6263 42.4365 44.7158C42.4365 43.8052 41.7185 43.0671 40.833 43.0671C39.9474 43.0671 39.2295 43.8052 39.2295 44.7158C39.2295 45.6263 39.9474 46.3645 40.833 46.3645Z" fill="#F6F6F6"/>
<path d="M46.0598 39.4044C46.6096 39.4044 47.0552 38.9462 47.0552 38.3809C47.0552 37.8157 46.6096 37.3575 46.0598 37.3575C45.5101 37.3575 45.0645 37.8157 45.0645 38.3809C45.0645 38.9462 45.5101 39.4044 46.0598 39.4044Z" fill="#F6F6F6"/>
<path d="M49.964 30.9519C50.4015 30.9519 50.7562 30.5872 50.7562 30.1374C50.7562 29.6876 50.4015 29.3229 49.964 29.3229C49.5265 29.3229 49.1719 29.6876 49.1719 30.1374C49.1719 30.5872 49.5265 30.9519 49.964 30.9519Z" fill="#F6F6F6"/>
<path d="M49.9644 22.3233C50.2004 22.3233 50.3917 22.1266 50.3917 21.884C50.3917 21.6414 50.2004 21.4447 49.9644 21.4447C49.7284 21.4447 49.5371 21.6414 49.5371 21.884C49.5371 22.1266 49.7284 22.3233 49.9644 22.3233Z" fill="#F6F6F6"/>
<path d="M46.0596 15.1362C46.5023 15.1362 46.8613 14.7671 46.8613 14.3118C46.8613 13.8565 46.5023 13.4875 46.0596 13.4875C45.6168 13.4875 45.2578 13.8565 45.2578 14.3118C45.2578 14.7671 45.6168 15.1362 46.0596 15.1362Z" fill="#F6F6F6"/>
<path d="M41.0634 8.96588C41.7705 8.96588 42.3436 8.37654 42.3436 7.64955C42.3436 6.92256 41.7705 6.33322 41.0634 6.33322C40.3564 6.33322 39.7832 6.92256 39.7832 7.64955C39.7832 8.37654 40.3564 8.96588 41.0634 8.96588Z" fill="#F6F6F6"/>
<path d="M34.9297 3.65282C35.8152 3.65282 36.5331 2.91467 36.5331 2.00411C36.5331 1.09356 35.8152 0.355408 34.9297 0.355408C34.0441 0.355408 33.3262 1.09356 33.3262 2.00411C33.3262 2.91467 34.0441 3.65282 34.9297 3.65282Z" fill="#F6F6F6"/>
<path d="M26.955 3.29741C27.8406 3.29741 28.5585 2.55926 28.5585 1.6487C28.5585 0.73815 27.8406 0 26.955 0C26.0695 0 25.3516 0.73815 25.3516 1.6487C25.3516 2.55926 26.0695 3.29741 26.955 3.29741Z" fill="#F6F6F6"/>
</svg>
