<svg width="154" height="43" viewBox="0 0 154 43" fill="none" xmlns="http://www.w3.org/2000/svg">
<path d="M57.7038 31.0976C52.3691 31.0976 48.7411 27.443 48.7411 21.6236C48.7411 16.1783 52.7057 12.3495 57.6328 12.3495C60.2035 12.3495 62.151 13.121 63.9524 15.0354L61.7894 17.6465C60.6112 16.4287 59.266 15.8314 57.6328 15.8314C54.6282 15.8314 52.707 18.2927 52.707 21.6249C52.707 25.3544 54.4612 27.6171 57.7051 27.6171C59.9156 27.6171 60.9978 26.647 62.1273 25.5531L64.3377 28.1641C62.7032 29.9792 60.7571 31.0976 57.7051 31.0976H57.7038Z" fill="#060616"/>
<path d="M85.6017 30.7992V20.3319C85.6017 19.7346 85.6491 19.1631 85.674 19.0883C85.6504 19.1631 85.5057 19.5114 85.3624 19.7849L81.4452 27.2194H79.979L75.9895 19.7849C75.8448 19.5359 75.7002 19.1876 75.6765 19.0883C75.6765 19.1631 75.7488 19.7346 75.7488 20.3319V30.7992H71.9039V12.6471H75.6765L80.4103 21.4993C80.5786 21.8218 80.7233 22.2449 80.7469 22.3198C80.7469 22.2694 80.8916 21.8218 81.0599 21.4993L85.5294 12.6471H89.4466V30.7979H85.6017V30.7992Z" fill="#060616"/>
<path d="M92.8589 30.7992V12.6471H96.7038V30.7979H92.8589V30.7992Z" fill="#060616"/>
<path d="M112.082 30.7992L104.345 20.2312C104.128 19.9087 103.936 19.5604 103.912 19.5101C103.912 19.5346 103.961 19.9822 103.961 20.4054V30.7992H100.116V12.6471H103.432L111.17 23.1144C111.41 23.4382 111.578 23.7852 111.602 23.86C111.602 23.8355 111.554 23.3879 111.554 22.9402V12.6457H115.398V30.7965H112.082V30.7992Z" fill="#060616"/>
<path d="M124.122 30.7992H118.812V12.6471H124.122C129.12 12.6471 133.254 15.8296 133.254 21.698C133.254 27.5664 128.785 30.7979 124.122 30.7979V30.7992ZM124.122 16.0037H122.657V27.4412H124.122C127.389 27.4412 129.288 24.7553 129.288 21.698C129.288 18.6406 127.197 16.0037 124.122 16.0037Z" fill="#060616"/>
<path d="M140.631 31.0972C138.204 31.0972 136.426 30.1774 134.743 28.8345L136.737 26.0493C137.771 26.8942 139.261 27.6154 140.702 27.6154C142.456 27.6154 142.937 26.9935 142.937 25.8996C142.937 24.0845 139.741 23.4627 138.276 22.6178C136.522 21.6231 135.128 20.4788 135.128 17.5943C135.128 13.8648 138.276 12.3477 141.375 12.3477C143.033 12.3477 145.028 12.8199 146.446 13.9138L144.715 16.8732C143.946 16.2759 142.648 15.8282 141.375 15.8282C139.597 15.8282 138.973 16.8732 138.973 17.593C138.973 19.2339 141.207 19.7319 143.25 20.6516C144.957 21.4218 146.784 22.6654 146.784 25.6492C146.784 29.0808 144.428 31.0945 140.632 31.0945L140.631 31.0972Z" fill="#060616"/>
<path d="M9.88445 20.1224C12.0659 19.7904 12.4105 23.2164 10.3539 23.4382C8.18554 23.6722 7.89494 20.4244 9.88445 20.1224Z" fill="#060616"/>
<path d="M10.4578 16.2418C11.4703 15.9738 12.4723 17.0133 12.3118 18.0692C12.0081 20.0557 9.06261 19.706 9.28352 17.6283C9.34927 17.0065 9.87394 16.397 10.4578 16.2418Z" fill="#060616"/>
<path d="M10.5025 24.1866C12.7116 23.8342 12.9877 27.0507 11.0166 27.3215C9.58465 27.5174 8.69443 25.5962 9.78715 24.5879C9.94889 24.4396 10.2934 24.2206 10.5025 24.1879V24.1866Z" fill="#060616"/>
<path d="M12.5762 27.7024C13.2165 27.6058 14.0765 28.1474 14.2093 28.8195C14.588 30.7353 12.0594 31.3952 11.4453 29.8073C11.0982 28.9107 11.6425 27.8426 12.5762 27.7024Z" fill="#060616"/>
<path d="M12.3986 12.8634C14.0173 12.5804 14.855 14.6526 13.5282 15.5847C12.4815 16.3208 11.0863 15.3602 11.2836 14.0825C11.369 13.5301 11.8556 12.9573 12.3986 12.8634Z" fill="#060616"/>
<path d="M15.6189 30.3502C16.2514 30.2495 17.0378 30.8387 17.1272 31.5068C17.3284 33.0116 15.59 33.8443 14.7064 32.6891C14.0292 31.8034 14.5565 30.5203 15.6202 30.3502H15.6189Z" fill="#060616"/>
<path d="M15.7531 10.3081C17.0194 10.3285 17.5361 12.0457 16.5131 12.8756C15.4901 13.7056 14.0568 12.6838 14.354 11.417C14.5196 10.7068 15.0509 10.2972 15.7531 10.3081Z" fill="#060616"/>
<path d="M19.2377 31.8129C20.4238 31.6605 21.1891 32.998 20.4566 33.9872C20.0477 34.5396 19.2416 34.6702 18.6762 34.2865C17.7321 33.6457 18.0529 31.9653 19.2377 31.8129Z" fill="#060616"/>
<path d="M19.285 8.98288C20.7275 8.91077 21.2114 11.0701 19.8215 11.5967C17.8833 12.3287 17.3218 9.08085 19.285 8.98288Z" fill="#060616"/>
<path d="M24.1727 33.9749C24.0017 34.1545 23.6612 34.3341 23.4166 34.3559C22.262 34.4593 21.69 32.8973 22.6486 32.1462C23.74 31.2918 25.1602 32.9327 24.1727 33.9749Z" fill="#060616"/>
<path d="M23.1194 9.07132C23.2943 9.04003 23.7519 9.22371 23.9018 9.33665C24.7604 9.98159 24.4107 11.4579 23.3272 11.5273C21.8058 11.6252 21.6046 9.34073 23.1181 9.07132H23.1194Z" fill="#060616"/>
<path d="M13.8109 20.5333C15.0101 20.321 15.6203 21.8953 14.7629 22.5688C13.4756 23.5797 12.1501 21.634 13.3835 20.7306C13.4782 20.6612 13.6978 20.5523 13.8109 20.5333Z" fill="#060616"/>
<path d="M14.9141 16.8337C15.1403 16.8024 15.498 16.9222 15.6715 17.0773C16.5039 17.8188 15.807 19.1862 14.6945 18.8638C13.6478 18.5617 13.8122 16.9875 14.9128 16.8324L14.9141 16.8337Z" fill="#060616"/>
<path d="M15.7912 26.169C14.926 27.1772 13.3349 25.8397 14.2843 24.7689C15.1719 23.7675 16.667 25.1499 15.7912 26.169Z" fill="#060616"/>
<path d="M26.6474 10.6714C27.464 10.4986 28.1307 11.3204 27.7848 12.1219C27.6665 12.3953 27.1905 12.7437 26.8986 12.7586C26.7237 12.7668 26.2003 12.4661 26.0859 12.3273C25.6651 11.8212 25.9991 10.8075 26.6474 10.6701V10.6714Z" fill="#060616"/>
<path d="M26.9525 30.7217C27.8256 30.7189 28.2714 31.8061 27.6744 32.4633C27.3509 32.8198 26.6829 32.8565 26.3265 32.5299C25.6493 31.9081 26.0202 30.7244 26.9511 30.7217H26.9525Z" fill="#060616"/>
<path d="M17.4717 27.2902C18.237 27.1541 18.713 27.6589 18.6302 28.444C18.5421 29.2862 17.3731 29.5039 16.9089 28.81C16.5565 28.2834 16.8366 27.4045 17.4717 27.2915V27.2902Z" fill="#060616"/>
<path d="M17.5624 14.1451C18.2817 14.0798 18.713 14.5343 18.6183 15.284C18.5526 15.8064 18.0529 16.1548 17.5598 16.084C17.2587 16.0405 17.0233 15.8799 16.8721 15.6078C16.7301 15.352 16.7222 14.7887 16.8892 14.5438C16.9115 14.5111 17.2403 14.2118 17.2639 14.2009C17.3218 14.1737 17.4888 14.1519 17.5624 14.1451Z" fill="#060616"/>
<path d="M21.1325 13.228C21.5415 13.141 21.8307 13.2689 22.0701 13.6063C22.5592 14.2961 21.8031 15.2146 21.0115 14.8839C20.2699 14.5751 20.408 13.3832 21.1312 13.228H21.1325Z" fill="#060616"/>
<path d="M21.268 28.3855C22.1582 28.2943 22.575 29.44 21.8728 29.9733C21.5178 30.2427 20.8761 30.142 20.6512 29.7325C20.3541 29.191 20.6473 28.4494 21.2693 28.3855H21.268Z" fill="#060616"/>
<path d="M18.1765 22.2898C18.1121 22.3429 17.7439 22.4382 17.6505 22.4313C17.1522 22.3946 16.9391 21.9851 16.997 21.5034C17.068 20.9102 17.8728 20.7265 18.258 21.1592C18.5013 21.4326 18.4526 22.0626 18.1778 22.2898H18.1765Z" fill="#060616"/>
<path d="M25.0169 27.4725C25.2746 27.4575 25.652 27.7283 25.7427 27.9773C25.986 28.6467 25.1733 29.3366 24.5842 28.81C24.074 28.3542 24.3699 27.5079 25.0155 27.4725H25.0169Z" fill="#060616"/>
<path d="M24.5119 14.5574C24.8604 14.2036 25.3325 14.3029 25.6217 14.6785C25.915 15.0595 25.7743 15.4772 25.4008 15.7289C24.6868 16.2105 23.9334 15.1452 24.5119 14.5574Z" fill="#060616"/>
<path d="M29.7349 28.4317C30.3437 28.3025 30.8658 28.8508 30.5857 29.4495C30.2201 30.2305 29.1182 29.9243 29.2208 29.0413C29.2497 28.7909 29.4929 28.4821 29.7349 28.4317Z" fill="#060616"/>
<path d="M36.4845 18.5236C36.7212 18.476 37.0736 18.6502 37.1946 18.8638C37.6535 19.6734 36.5397 20.468 36.0177 19.6257C35.7442 19.1835 36.0111 18.6189 36.4845 18.5236Z" fill="#060616"/>
<path d="M37.0986 23.8709C37.71 24.5036 36.8225 25.6016 36.119 24.9077C35.4339 24.2315 36.4832 23.2341 37.0986 23.8709Z" fill="#060616"/>
<path d="M5.3229 23.8709C5.9383 23.2341 6.98762 24.2301 6.30254 24.9077C5.59904 25.6016 4.71145 24.5036 5.3229 23.8709Z" fill="#060616"/>
<path d="M5.69635 18.3862C5.95671 18.3603 6.23153 18.544 6.3604 18.7713C6.75488 19.4679 5.81864 20.2503 5.24664 19.604C4.8653 19.174 5.13487 18.4433 5.69635 18.3862Z" fill="#060616"/>
<path d="M8.1027 28.8943C8.73651 28.195 9.83712 29.3542 8.9916 29.9747C8.31704 30.47 7.53464 29.5216 8.1027 28.8943Z" fill="#060616"/>
<path d="M34.3188 28.8943C34.8869 29.5216 34.1045 30.4686 33.4299 29.9747C32.5844 29.3542 33.685 28.1963 34.3188 28.8943Z" fill="#060616"/>
<path d="M34.3188 14.7547C33.6955 15.4418 32.5857 14.3247 33.4299 13.6743C34.0834 13.1709 34.8895 14.1261 34.3188 14.7547Z" fill="#060616"/>
<path d="M21.5756 5.42075C22.3738 5.33095 22.6565 6.51198 21.8741 6.78138C20.9116 7.11338 20.6 5.5296 21.5756 5.42075Z" fill="#060616"/>
<path d="M8.47483 13.4104C9.36768 13.3192 9.45447 14.6894 8.67996 14.8132C7.67403 14.9724 7.59645 13.5002 8.47483 13.4104Z" fill="#060616"/>
<path d="M15.3533 5.83166C16.4618 5.57042 16.5644 7.33516 15.4362 7.18685C14.7353 7.09568 14.6932 5.98677 15.3533 5.83166Z" fill="#060616"/>
<path d="M11.4716 32.9966C12.1093 32.8456 12.6274 33.6593 12.1264 34.1763C11.6833 34.6321 10.897 34.2852 10.9575 33.6089C10.9798 33.3667 11.2454 33.0497 11.4716 32.9966Z" fill="#060616"/>
<path d="M30.6172 32.998C31.2011 32.8728 31.6587 33.4906 31.3694 34.0498C31.0485 34.6675 29.9821 34.3709 30.1031 33.5613C30.1359 33.3422 30.4081 33.0429 30.6172 32.998Z" fill="#060616"/>
<path d="M21.5309 36.7425C21.7834 36.7084 21.9754 36.7465 22.1529 36.9425C22.813 37.6772 21.6927 38.514 21.1706 37.914C20.8025 37.4908 20.9852 36.8159 21.5323 36.7425H21.5309Z" fill="#060616"/>
<path d="M30.5291 9.30263C31.2984 9.09989 31.7849 9.96661 31.2234 10.4769C30.5594 11.0796 29.6941 10.0904 30.2964 9.47135C30.3437 9.42236 30.4713 9.31759 30.5291 9.30127V9.30263Z" fill="#060616"/>
<path d="M26.6027 5.96909C27.8545 5.69832 27.6586 7.72158 26.5133 7.27257C25.9636 7.05759 26.0057 6.09699 26.6027 5.96909Z" fill="#060616"/>
<path d="M26.6474 36.3315C27.752 36.137 27.7401 37.9888 26.5698 37.6691C25.9478 37.499 25.9899 36.4472 26.6474 36.3315Z" fill="#060616"/>
<path d="M15.4414 36.3302C16.0831 36.1928 16.4894 36.8187 16.2146 37.4037C16.1725 37.4935 15.9148 37.6582 15.8188 37.6786C14.7682 37.9058 14.7274 36.4826 15.4414 36.3302Z" fill="#060616"/>
<path d="M11.2967 9.16521C12.0226 8.97608 12.563 9.73531 12.0752 10.2904C11.5742 10.8606 10.6918 10.3422 10.9522 9.53938C10.9943 9.4074 11.1652 9.19922 11.2954 9.16521H11.2967Z" fill="#060616"/>
<path d="M29.7349 13.5941C30.683 13.3927 30.8237 15.0785 29.7283 14.9043C29.0748 14.8009 29.0682 13.7356 29.7349 13.5941Z" fill="#060616"/>
<path d="M19.3231 24.3675C20.3685 24.1213 20.4132 25.6179 19.5348 25.5948C18.7814 25.5744 18.7801 24.4968 19.3231 24.3675Z" fill="#060616"/>
<path d="M19.1285 17.8882C19.4323 17.6066 20.0398 17.7807 20.1187 18.227C20.2923 19.1985 18.8537 19.2774 18.9365 18.3086C18.9458 18.2066 19.0588 17.9535 19.1285 17.8896V17.8882Z" fill="#060616"/>
<path d="M31.4798 25.2832C31.6547 25.105 32.0111 25.0873 32.1965 25.2696C32.4213 25.49 32.4266 25.7921 32.2188 26.0248C31.9309 26.3459 31.372 26.1091 31.3496 25.6982C31.3457 25.6166 31.4272 25.3377 31.4798 25.2832Z" fill="#060616"/>
<path d="M31.6744 17.2446C32.6265 17.0174 32.4345 18.5903 31.5969 18.1739C31.1813 17.9671 31.2839 17.3385 31.6744 17.2446Z" fill="#060616"/>
<path d="M32.2925 21.2163C32.6133 21.1197 32.9552 21.2231 33.0091 21.5986C33.1248 22.4137 31.8546 22.3905 32.0505 21.5143C32.0702 21.4272 32.2109 21.2422 32.2925 21.2177V21.2163Z" fill="#060616"/>
<path d="M23.0734 24.505C23.7703 24.3417 23.8203 25.4724 23.1575 25.4057C22.6276 25.3526 22.6329 24.607 23.0734 24.505Z" fill="#060616"/>
<path d="M23.4692 18.774C23.0418 19.0828 22.4488 18.4148 22.9116 18.0365C23.4692 17.5807 23.8702 18.4842 23.4692 18.774Z" fill="#060616"/>
<path d="M27.6165 25.0982C28.1293 24.9771 28.2582 25.6642 27.8519 25.7976C27.3114 25.9758 27.197 25.1975 27.6165 25.0982Z" fill="#060616"/>
<path d="M27.5718 17.5195C28.0991 17.3576 28.3082 18.1263 27.7717 18.2311C27.318 18.3209 27.1944 17.6351 27.5718 17.5195Z" fill="#060616"/>
<path d="M28.5883 21.3075C29.1682 21.1769 29.2037 22.1021 28.6264 22.0286C28.2687 21.9823 28.2306 21.3891 28.5883 21.3075Z" fill="#060616"/>
<path d="M25.2351 21.4925C25.4021 21.6748 25.2654 21.9524 24.9695 21.883C24.5382 21.7823 24.9327 21.1619 25.2351 21.4925Z" fill="#060616"/>
<path d="M21.3876 21.5007C21.623 21.5102 21.5756 21.8694 21.3455 21.849C21.1391 21.83 21.1141 21.4898 21.3876 21.5007Z" fill="#060616"/>
<path d="M15.4822 3.0206C16.2099 3.0206 16.7998 2.41021 16.7998 1.65725C16.7998 0.904289 16.2099 0.293896 15.4822 0.293896C14.7545 0.293896 14.1646 0.904289 14.1646 1.65725C14.1646 2.41021 14.7545 3.0206 15.4822 3.0206Z" fill="#060616"/>
<path d="M9.22304 7.55422C9.95071 7.55422 10.5406 6.94383 10.5406 6.19087C10.5406 5.43791 9.95071 4.82752 9.22304 4.82752C8.49536 4.82752 7.90546 5.43791 7.90546 6.19087C7.90546 6.94383 8.49536 7.55422 9.22304 7.55422Z" fill="#060616"/>
<path d="M4.99154 12.6171C5.71922 12.6171 6.30911 12.0067 6.30911 11.2538C6.30911 10.5008 5.71922 9.89042 4.99154 9.89042C4.26386 9.89042 3.67396 10.5008 3.67396 11.2538C3.67396 12.0067 4.26386 12.6171 4.99154 12.6171Z" fill="#060616"/>
<path d="M1.31758 19.2312C2.04525 19.2312 2.63515 18.6208 2.63515 17.8678C2.63515 17.1148 2.04525 16.5044 1.31758 16.5044C0.589899 16.5044 0 17.1148 0 17.8678C0 18.6208 0.589899 19.2312 1.31758 19.2312Z" fill="#060616"/>
<path d="M1.31758 25.9976C2.04525 25.9976 2.63515 25.3872 2.63515 24.6342C2.63515 23.8813 2.04525 23.2709 1.31758 23.2709C0.589899 23.2709 0 23.8813 0 24.6342C0 25.3872 0.589899 25.9976 1.31758 25.9976Z" fill="#060616"/>
<path d="M3.38204 31.8728C4.10972 31.8728 4.69962 31.2624 4.69962 30.5094C4.69962 29.7564 4.10972 29.1461 3.38204 29.1461C2.65437 29.1461 2.06447 29.7564 2.06447 30.5094C2.06447 31.2624 2.65437 31.8728 3.38204 31.8728Z" fill="#060616"/>
<path d="M7.8739 37.6187C8.60158 37.6187 9.19148 37.0083 9.19148 36.2553C9.19148 35.5024 8.60158 34.892 7.8739 34.892C7.14622 34.892 6.55632 35.5024 6.55632 36.2553C6.55632 37.0083 7.14622 37.6187 7.8739 37.6187Z" fill="#060616"/>
<path d="M15.2692 42.7864C15.9968 42.7864 16.5867 42.176 16.5867 41.423C16.5867 40.6701 15.9968 40.0597 15.2692 40.0597C14.5415 40.0597 13.9516 40.6701 13.9516 41.423C13.9516 42.176 14.5415 42.7864 15.2692 42.7864Z" fill="#060616"/>
<path d="M22.6736 43C23.4013 43 23.9912 42.3896 23.9912 41.6366C23.9912 40.8837 23.4013 40.2733 22.6736 40.2733C21.946 40.2733 21.3561 40.8837 21.3561 41.6366C21.3561 42.3896 21.946 43 22.6736 43Z" fill="#060616"/>
<path d="M28.2608 43C28.9885 43 29.5784 42.3896 29.5784 41.6366C29.5784 40.8837 28.9885 40.2733 28.2608 40.2733C27.5332 40.2733 26.9433 40.8837 26.9433 41.6366C26.9433 42.3896 27.5332 43 28.2608 43Z" fill="#060616"/>
<path d="M33.5522 38.3398C34.2799 38.3398 34.8698 37.7294 34.8698 36.9765C34.8698 36.2235 34.2799 35.6131 33.5522 35.6131C32.8245 35.6131 32.2346 36.2235 32.2346 36.9765C32.2346 37.7294 32.8245 38.3398 33.5522 38.3398Z" fill="#060616"/>
<path d="M37.8468 32.5844C38.2985 32.5844 38.6647 32.2055 38.6647 31.7381C38.6647 31.2707 38.2985 30.8918 37.8468 30.8918C37.3951 30.8918 37.0289 31.2707 37.0289 31.7381C37.0289 32.2055 37.3951 32.5844 37.8468 32.5844Z" fill="#060616"/>
<path d="M41.0553 25.5948C41.4148 25.5948 41.7062 25.2933 41.7062 24.9213C41.7062 24.5493 41.4148 24.2478 41.0553 24.2478C40.6958 24.2478 40.4044 24.5493 40.4044 24.9213C40.4044 25.2933 40.6958 25.5948 41.0553 25.5948Z" fill="#060616"/>
<path d="M41.0553 18.4597C41.2492 18.4597 41.4064 18.297 41.4064 18.0964C41.4064 17.8957 41.2492 17.7331 41.0553 17.7331C40.8614 17.7331 40.7042 17.8957 40.7042 18.0964C40.7042 18.297 40.8614 18.4597 41.0553 18.4597Z" fill="#060616"/>
<path d="M37.8468 12.5164C38.2106 12.5164 38.5056 12.2112 38.5056 11.8348C38.5056 11.4583 38.2106 11.1531 37.8468 11.1531C37.483 11.1531 37.188 11.4583 37.188 11.8348C37.188 12.2112 37.483 12.5164 37.8468 12.5164Z" fill="#060616"/>
<path d="M33.7415 7.41408C34.3225 7.41408 34.7935 6.92674 34.7935 6.32557C34.7935 5.72441 34.3225 5.23707 33.7415 5.23707C33.1606 5.23707 32.6896 5.72441 32.6896 6.32557C32.6896 6.92674 33.1606 7.41408 33.7415 7.41408Z" fill="#060616"/>
<path d="M28.7013 3.0206C29.429 3.0206 30.0189 2.41021 30.0189 1.65725C30.0189 0.904289 29.429 0.293896 28.7013 0.293896C27.9737 0.293896 27.3838 0.904289 27.3838 1.65725C27.3838 2.41021 27.9737 3.0206 28.7013 3.0206Z" fill="#060616"/>
<path d="M22.149 2.7267C22.8766 2.7267 23.4665 2.11631 23.4665 1.36335C23.4665 0.610393 22.8766 0 22.149 0C21.4213 0 20.8314 0.610393 20.8314 1.36335C20.8314 2.11631 21.4213 2.7267 22.149 2.7267Z" fill="#060616"/>
</svg>
