<svg width="165" height="48" viewBox="0 0 165 48" fill="none" xmlns="http://www.w3.org/2000/svg">
<path d="M64.8231 34.7137C58.8302 34.7137 54.7546 30.6341 54.7546 24.138C54.7546 18.0596 59.2083 13.7856 64.7433 13.7856C67.6312 13.7856 69.8189 14.6467 71.8427 16.7837L69.4127 19.6984C68.0891 18.339 66.578 17.6723 64.7433 17.6723C61.368 17.6723 59.2098 20.4199 59.2098 24.1395C59.2098 28.3027 61.1804 30.8285 64.8246 30.8285C67.3077 30.8285 68.5234 29.7456 69.7923 28.5244L72.2755 31.4391C70.4393 33.4652 68.2531 34.7137 64.8246 34.7137H64.8231Z" fill="#CACACA"/>
<path d="M96.1629 34.3805V22.6961C96.1629 22.0293 96.2161 21.3914 96.2442 21.3078C96.2176 21.3914 96.0551 21.7802 95.8941 22.0855L91.4936 30.3845H89.8465L85.3647 22.0855C85.2023 21.8075 85.0398 21.4187 85.0132 21.3078C85.0132 21.3914 85.0944 22.0293 85.0944 22.6961V34.3805H80.7751V14.1176H85.0132L90.331 23.9992C90.5201 24.3592 90.6826 24.8316 90.7092 24.9151C90.7092 24.8589 90.8717 24.3592 91.0608 23.9992L96.0817 14.1176H100.482V34.379H96.1629V34.3805Z" fill="#CACACA"/>
<path d="M104.316 34.3805V14.1176H108.635V34.379H104.316V34.3805Z" fill="#CACACA"/>
<path d="M125.91 34.3805L117.219 22.5837C116.975 22.2237 116.759 21.8349 116.733 21.7787C116.733 21.806 116.787 22.3057 116.787 22.7781V34.3805H112.468V14.1176H116.193L124.885 25.8021C125.156 26.1636 125.345 26.5509 125.371 26.6344C125.371 26.6071 125.317 26.1074 125.317 25.6077V14.1161H129.636V34.3775H125.91V34.3805Z" fill="#CACACA"/>
<path d="M139.435 34.3805H133.471V14.1176H139.435C145.05 14.1176 149.694 17.6702 149.694 24.221C149.694 30.7718 144.674 34.379 139.435 34.379V34.3805ZM139.435 17.8646H137.79V30.632H139.435C143.106 30.632 145.239 27.6338 145.239 24.221C145.239 20.8081 142.891 17.8646 139.435 17.8646Z" fill="#CACACA"/>
<path d="M157.982 34.7132C155.255 34.7132 153.257 33.6864 151.367 32.1873L153.608 29.0783C154.769 30.0215 156.442 30.8264 158.061 30.8264C160.032 30.8264 160.572 30.1323 160.572 28.9112C160.572 26.885 156.981 26.1909 155.336 25.2477C153.365 24.1375 151.8 22.8601 151.8 19.6402C151.8 15.477 155.336 13.7835 158.818 13.7835C160.68 13.7835 162.921 14.3105 164.514 15.5317L162.57 18.8352C161.705 18.1684 160.248 17.6687 158.818 17.6687C156.82 17.6687 156.119 18.8352 156.119 19.6386C156.119 21.4704 158.629 22.0263 160.924 23.053C162.841 23.9127 164.893 25.3009 164.893 28.6317C164.893 32.4622 162.248 34.7101 157.983 34.7101L157.982 34.7132Z" fill="#CACACA"/>
<path d="M11.1039 22.4622C13.5546 22.0916 13.9416 25.916 11.6313 26.1636C9.1954 26.4248 8.86895 22.7994 11.1039 22.4622Z" fill="#CACACA"/>
<path d="M11.748 18.1304C12.8855 17.8312 14.0111 18.9916 13.8309 20.1702C13.4896 22.3878 10.1808 21.9974 10.4289 19.6781C10.5028 18.984 11.0922 18.3036 11.748 18.1304Z" fill="#CACACA"/>
<path d="M11.7982 26.999C14.2799 26.6056 14.5901 30.1961 12.3758 30.4984C10.7672 30.7171 9.76711 28.5725 10.9947 27.447C11.1763 27.2815 11.5634 27.0369 11.7982 27.0005V26.999Z" fill="#CACACA"/>
<path d="M14.1277 30.9236C14.8471 30.8158 15.8132 31.4203 15.9624 32.1706C16.3878 34.3091 13.5472 35.0458 12.8573 33.2733C12.4674 32.2724 13.0789 31.0801 14.1277 30.9236Z" fill="#CACACA"/>
<path d="M13.9283 14.3591C15.7467 14.0432 16.6877 16.3564 15.1972 17.3968C14.0214 18.2185 12.4541 17.1462 12.6757 15.72C12.7717 15.1034 13.3182 14.4639 13.9283 14.3591Z" fill="#CACACA"/>
<path d="M17.546 33.8793C18.2565 33.7669 19.1398 34.4246 19.2403 35.1703C19.4663 36.8502 17.5135 37.7797 16.5208 36.4902C15.7601 35.5014 16.3524 34.0692 17.5474 33.8793H17.546Z" fill="#CACACA"/>
<path d="M17.6966 11.5068C19.1191 11.5295 19.6996 13.4463 18.5504 14.3728C17.4011 15.2993 15.791 14.1587 16.1249 12.7446C16.311 11.9518 16.9078 11.4946 17.6966 11.5068Z" fill="#CACACA"/>
<path d="M21.6112 35.5121C22.9436 35.342 23.8033 36.835 22.9805 37.9392C22.5211 38.5558 21.6156 38.7016 20.9804 38.2733C19.9198 37.558 20.2803 35.6822 21.6112 35.5121Z" fill="#CACACA"/>
<path d="M21.6643 10.0274C23.2848 9.94691 23.8284 12.3573 22.267 12.9451C20.0897 13.7622 19.4589 10.1368 21.6643 10.0274Z" fill="#CACACA"/>
<path d="M27.155 37.9255C26.9629 38.126 26.5804 38.3265 26.3056 38.3508C25.0086 38.4662 24.3661 36.7226 25.4429 35.8842C26.669 34.9304 28.2643 36.7621 27.155 37.9255Z" fill="#CACACA"/>
<path d="M25.9718 10.1261C26.1683 10.0912 26.6824 10.2962 26.8508 10.4223C27.8154 11.1422 27.4224 12.7902 26.2052 12.8676C24.4961 12.977 24.2701 10.4269 25.9704 10.1261H25.9718Z" fill="#CACACA"/>
<path d="M15.5148 22.9209C16.862 22.6839 17.5474 24.4412 16.5843 25.193C15.1382 26.3215 13.6492 24.1496 15.0348 23.1411C15.1411 23.0636 15.3878 22.9421 15.5148 22.9209Z" fill="#CACACA"/>
<path d="M16.7542 18.7911C17.0083 18.7562 17.4101 18.8899 17.6051 19.063C18.5401 19.8908 17.7572 21.4172 16.5075 21.0572C15.3317 20.7201 15.5163 18.9628 16.7527 18.7896L16.7542 18.7911Z" fill="#CACACA"/>
<path d="M17.7395 29.2119C16.7675 30.3374 14.9801 28.8444 16.0467 27.649C17.0438 26.5312 18.7233 28.0743 17.7395 29.2119Z" fill="#CACACA"/>
<path d="M29.935 11.9123C30.8524 11.7194 31.6013 12.6368 31.2128 13.5314C31.0799 13.8367 30.5451 14.2255 30.2172 14.2422C30.0207 14.2513 29.4328 13.9156 29.3043 13.7607C28.8316 13.1957 29.2068 12.0642 29.935 11.9108V11.9123Z" fill="#CACACA"/>
<path d="M30.2778 34.294C31.2587 34.2909 31.7594 35.5045 31.0888 36.2381C30.7254 36.636 29.975 36.677 29.5747 36.3125C28.8139 35.6184 29.2305 34.297 30.2764 34.294H30.2778Z" fill="#CACACA"/>
<path d="M19.6273 30.4634C20.487 30.3116 21.0217 30.875 20.9286 31.7514C20.8297 32.6916 19.5165 32.9346 18.995 32.16C18.5991 31.5722 18.9138 30.591 19.6273 30.465V30.4634Z" fill="#CACACA"/>
<path d="M19.7293 15.7899C20.5373 15.717 21.0218 16.2243 20.9154 17.0612C20.8416 17.6444 20.2802 18.0332 19.7263 17.9542C19.388 17.9056 19.1236 17.7264 18.9537 17.4226C18.7942 17.1371 18.7853 16.5083 18.9729 16.2349C18.998 16.1985 19.3673 15.8643 19.3939 15.8522C19.4589 15.8218 19.6465 15.7975 19.7293 15.7899Z" fill="#CACACA"/>
<path d="M23.7397 14.7662C24.1991 14.669 24.5241 14.8118 24.793 15.1884C25.3425 15.9585 24.4931 16.9837 23.6038 16.6146C22.7707 16.2698 22.9258 14.9393 23.7382 14.7662H23.7397Z" fill="#CACACA"/>
<path d="M23.8919 31.6861C24.892 31.5843 25.3603 32.8632 24.5714 33.4586C24.1726 33.7593 23.4517 33.6469 23.1991 33.1898C22.8653 32.5853 23.1947 31.7575 23.8934 31.6861H23.8919Z" fill="#CACACA"/>
<path d="M20.419 24.8817C20.3467 24.9409 19.933 25.0472 19.8282 25.0397C19.2683 24.9986 19.029 24.5415 19.094 24.0038C19.1738 23.3416 20.0778 23.1365 20.5106 23.6195C20.7839 23.9248 20.7293 24.628 20.4205 24.8817H20.419Z" fill="#CACACA"/>
<path d="M28.1034 30.667C28.3929 30.6503 28.8169 30.9525 28.9188 31.2305C29.1921 31.9777 28.2792 32.7478 27.6174 32.16C27.0443 31.6512 27.3766 30.7065 28.1019 30.667H28.1034Z" fill="#CACACA"/>
<path d="M27.5361 16.2501C27.9276 15.8552 28.4579 15.9661 28.7829 16.3853C29.1123 16.8106 28.9542 17.2768 28.5347 17.5578C27.7326 18.0955 26.8862 16.9062 27.5361 16.2501Z" fill="#CACACA"/>
<path d="M33.4035 31.7377C34.0874 31.5935 34.6738 32.2056 34.3592 32.8738C33.9486 33.7457 32.7107 33.4039 32.8259 32.4182C32.8584 32.1387 33.1317 31.7939 33.4035 31.7377Z" fill="#CACACA"/>
<path d="M40.9858 20.6775C41.2517 20.6244 41.6476 20.8188 41.7835 21.0572C42.2991 21.961 41.0479 22.848 40.4614 21.9078C40.1542 21.4142 40.4541 20.7839 40.9858 20.6775Z" fill="#CACACA"/>
<path d="M41.6757 26.6466C42.3626 27.3528 41.3655 28.5786 40.5752 27.8039C39.8056 27.0491 40.9844 25.9358 41.6757 26.6466Z" fill="#CACACA"/>
<path d="M5.97968 26.6466C6.671 25.9358 7.84979 27.0476 7.08018 27.8039C6.28989 28.5785 5.29279 27.3528 5.97968 26.6466Z" fill="#CACACA"/>
<path d="M6.39913 20.5241C6.69161 20.4953 7.00034 20.7003 7.1451 20.954C7.58826 21.7316 6.5365 22.6049 5.89393 21.8835C5.46555 21.4035 5.76837 20.5879 6.39913 20.5241Z" fill="#CACACA"/>
<path d="M9.10242 32.2542C9.81442 31.4735 11.0508 32.7675 10.101 33.4601C9.3432 34.013 8.46428 32.9543 9.10242 32.2542Z" fill="#CACACA"/>
<path d="M38.5529 32.2542C39.1911 32.9543 38.3122 34.0115 37.5544 33.4601C36.6045 32.7675 37.8409 31.475 38.5529 32.2542Z" fill="#CACACA"/>
<path d="M38.5529 16.4703C37.8527 17.2373 36.606 15.9904 37.5543 15.2644C38.2885 14.7024 39.194 15.7686 38.5529 16.4703Z" fill="#CACACA"/>
<path d="M24.2376 6.05107C25.1342 5.95083 25.4518 7.26918 24.5729 7.56992C23.4916 7.94051 23.1415 6.17258 24.2376 6.05107Z" fill="#CACACA"/>
<path d="M9.52045 14.9697C10.5235 14.868 10.6209 16.3974 9.75089 16.5356C8.62085 16.7133 8.53369 15.07 9.52045 14.9697Z" fill="#CACACA"/>
<path d="M17.2476 6.50976C18.4929 6.21814 18.6081 8.18808 17.3407 8.02253C16.5533 7.92077 16.5061 6.68291 17.2476 6.50976Z" fill="#CACACA"/>
<path d="M12.8869 36.8335C13.6034 36.6649 14.1854 37.5731 13.6226 38.1503C13.1248 38.6591 12.2414 38.2718 12.3094 37.517C12.3345 37.2466 12.6329 36.8927 12.8869 36.8335Z" fill="#CACACA"/>
<path d="M34.3947 36.835C35.0505 36.6953 35.5646 37.3848 35.2396 38.0091C34.8792 38.6986 33.6812 38.3675 33.8171 37.4638C33.854 37.2193 34.1598 36.8851 34.3947 36.835Z" fill="#CACACA"/>
<path d="M24.1874 41.0148C24.471 40.9769 24.6867 41.0194 24.8861 41.2381C25.6276 42.0583 24.3691 42.9924 23.7826 42.3226C23.369 41.8502 23.5744 41.0969 24.1889 41.0148H24.1874Z" fill="#CACACA"/>
<path d="M34.2957 10.3843C35.1598 10.158 35.7064 11.1255 35.0756 11.6951C34.3297 12.3679 33.3577 11.2637 34.0342 10.5727C34.0874 10.518 34.2307 10.401 34.2957 10.3828V10.3843Z" fill="#CACACA"/>
<path d="M29.8848 6.66317C31.2911 6.36092 31.071 8.61944 29.7844 8.11822C29.1669 7.87824 29.2142 6.80594 29.8848 6.66317Z" fill="#CACACA"/>
<path d="M29.9351 40.5562C31.1759 40.339 31.1626 42.4061 29.8479 42.0492C29.1492 41.8593 29.1965 40.6853 29.9351 40.5562Z" fill="#CACACA"/>
<path d="M17.3465 40.5546C18.0673 40.4012 18.5238 41.0999 18.2151 41.753C18.1678 41.8532 17.8783 42.037 17.7704 42.0598C16.5902 42.3135 16.5444 40.7247 17.3465 40.5546Z" fill="#CACACA"/>
<path d="M12.6905 10.2309C13.5059 10.0198 14.113 10.8673 13.565 11.487C13.0022 12.1234 12.011 11.5447 12.3035 10.6486C12.3507 10.5013 12.5428 10.2689 12.689 10.2309H12.6905Z" fill="#CACACA"/>
<path d="M33.4035 15.1748C34.4685 14.95 34.6266 16.8318 33.3961 16.6374C32.6619 16.522 32.6545 15.3327 33.4035 15.1748Z" fill="#CACACA"/>
<path d="M21.7072 27.201C22.8816 26.926 22.9318 28.5968 21.945 28.571C21.0986 28.5482 21.0971 27.3452 21.7072 27.201Z" fill="#CACACA"/>
<path d="M21.4886 19.9682C21.8298 19.6538 22.5123 19.8482 22.6009 20.3464C22.7959 21.4309 21.1799 21.519 21.2729 20.4376C21.2833 20.3236 21.4103 20.0411 21.4886 19.9697V19.9682Z" fill="#CACACA"/>
<path d="M35.3637 28.2231C35.5601 28.0242 35.9605 28.0044 36.1687 28.208C36.4213 28.454 36.4273 28.7912 36.1939 29.0509C35.8704 29.4094 35.2426 29.1451 35.2174 28.6864C35.213 28.5953 35.3046 28.2839 35.3637 28.2231Z" fill="#CACACA"/>
<path d="M35.5823 19.2498C36.6518 18.9962 36.4361 20.752 35.4951 20.2872C35.0283 20.0563 35.1436 19.3546 35.5823 19.2498Z" fill="#CACACA"/>
<path d="M36.2766 23.6833C36.637 23.5755 37.0211 23.6909 37.0817 24.1101C37.2117 25.0199 35.7847 24.9941 36.0048 24.0159C36.027 23.9187 36.185 23.7122 36.2766 23.6848V23.6833Z" fill="#CACACA"/>
<path d="M25.9201 27.3544C26.703 27.1721 26.7591 28.4343 26.0146 28.3598C25.4193 28.3006 25.4252 27.4683 25.9201 27.3544Z" fill="#CACACA"/>
<path d="M26.3647 20.957C25.8846 21.3018 25.2184 20.556 25.7383 20.1338C26.3647 19.625 26.8152 20.6335 26.3647 20.957Z" fill="#CACACA"/>
<path d="M31.0238 28.0166C31.5999 27.8814 31.7446 28.6484 31.2882 28.7973C30.6811 28.9962 30.5526 28.1275 31.0238 28.0166Z" fill="#CACACA"/>
<path d="M30.9736 19.5566C31.5659 19.3759 31.8008 20.234 31.1981 20.351C30.6885 20.4512 30.5496 19.6857 30.9736 19.5566Z" fill="#CACACA"/>
<path d="M32.1154 23.7851C32.7668 23.6393 32.8067 24.6721 32.1582 24.5901C31.7564 24.5384 31.7136 23.8762 32.1154 23.7851Z" fill="#CACACA"/>
<path d="M28.3485 23.9916C28.5361 24.1952 28.3825 24.505 28.0501 24.4276C27.5656 24.3152 28.0088 23.6226 28.3485 23.9916Z" fill="#CACACA"/>
<path d="M24.0263 24.0008C24.2907 24.0114 24.2375 24.4124 23.979 24.3896C23.7471 24.3683 23.719 23.9886 24.0263 24.0008Z" fill="#CACACA"/>
<path d="M17.3924 3.37183C18.2098 3.37183 18.8725 2.69046 18.8725 1.84995C18.8725 1.00944 18.2098 0.328068 17.3924 0.328068C16.5749 0.328068 15.9122 1.00944 15.9122 1.84995C15.9122 2.69046 16.5749 3.37183 17.3924 3.37183Z" fill="#CACACA"/>
<path d="M10.361 8.43262C11.1785 8.43262 11.8411 7.75125 11.8411 6.91074C11.8411 6.07022 11.1785 5.38885 10.361 5.38885C9.54354 5.38885 8.88086 6.07022 8.88086 6.91074C8.88086 7.75125 9.54354 8.43262 10.361 8.43262Z" fill="#CACACA"/>
<path d="M5.60733 14.0842C6.42479 14.0842 7.08747 13.4029 7.08747 12.5624C7.08747 11.7218 6.42479 11.0405 5.60733 11.0405C4.78988 11.0405 4.1272 11.7218 4.1272 12.5624C4.1272 13.4029 4.78988 14.0842 5.60733 14.0842Z" fill="#CACACA"/>
<path d="M1.48013 21.4673C2.29759 21.4673 2.96027 20.786 2.96027 19.9455C2.96027 19.1049 2.29759 18.4236 1.48013 18.4236C0.662679 18.4236 0 19.1049 0 19.9455C0 20.786 0.662679 21.4673 1.48013 21.4673Z" fill="#CACACA"/>
<path d="M1.48013 29.0205C2.29759 29.0205 2.96027 28.3392 2.96027 27.4987C2.96027 26.6581 2.29759 25.9768 1.48013 25.9768C0.662679 25.9768 0 26.6581 0 27.4987C0 28.3392 0.662679 29.0205 1.48013 29.0205Z" fill="#CACACA"/>
<path d="M3.79935 35.5789C4.6168 35.5789 5.27948 34.8975 5.27948 34.057C5.27948 33.2165 4.6168 32.5351 3.79935 32.5351C2.98189 32.5351 2.31921 33.2165 2.31921 34.057C2.31921 34.8975 2.98189 35.5789 3.79935 35.5789Z" fill="#CACACA"/>
<path d="M8.84537 41.993C9.66283 41.993 10.3255 41.3116 10.3255 40.4711C10.3255 39.6306 9.66283 38.9492 8.84537 38.9492C8.02791 38.9492 7.36523 39.6306 7.36523 40.4711C7.36523 41.3116 8.02791 41.993 8.84537 41.993Z" fill="#CACACA"/>
<path d="M17.153 47.7615C17.9704 47.7615 18.6331 47.0802 18.6331 46.2397C18.6331 45.3992 17.9704 44.7178 17.153 44.7178C16.3355 44.7178 15.6729 45.3992 15.6729 46.2397C15.6729 47.0802 16.3355 47.7615 17.153 47.7615Z" fill="#CACACA"/>
<path d="M25.471 48C26.2884 48 26.9511 47.3186 26.9511 46.4781C26.9511 45.6376 26.2884 44.9562 25.471 44.9562C24.6535 44.9562 23.9908 45.6376 23.9908 46.4781C23.9908 47.3186 24.6535 48 25.471 48Z" fill="#CACACA"/>
<path d="M31.7476 48C32.565 48 33.2277 47.3186 33.2277 46.4781C33.2277 45.6376 32.565 44.9562 31.7476 44.9562C30.9301 44.9562 30.2675 45.6376 30.2675 46.4781C30.2675 47.3186 30.9301 48 31.7476 48Z" fill="#CACACA"/>
<path d="M37.6917 42.798C38.5091 42.798 39.1718 42.1166 39.1718 41.2761C39.1718 40.4356 38.5091 39.7542 37.6917 39.7542C36.8742 39.7542 36.2115 40.4356 36.2115 41.2761C36.2115 42.1166 36.8742 42.798 37.6917 42.798Z" fill="#CACACA"/>
<path d="M42.5162 36.3733C43.0237 36.3733 43.435 35.9503 43.435 35.4285C43.435 34.9068 43.0237 34.4838 42.5162 34.4838C42.0088 34.4838 41.5974 34.9068 41.5974 35.4285C41.5974 35.9503 42.0088 36.3733 42.5162 36.3733Z" fill="#CACACA"/>
<path d="M46.1205 28.571C46.5243 28.571 46.8517 28.2344 46.8517 27.8191C46.8517 27.4039 46.5243 27.0673 46.1205 27.0673C45.7167 27.0673 45.3893 27.4039 45.3893 27.8191C45.3893 28.2344 45.7167 28.571 46.1205 28.571Z" fill="#CACACA"/>
<path d="M46.1205 20.6061C46.3383 20.6061 46.5149 20.4246 46.5149 20.2006C46.5149 19.9766 46.3383 19.7951 46.1205 19.7951C45.9027 19.7951 45.7261 19.9766 45.7261 20.2006C45.7261 20.4246 45.9027 20.6061 46.1205 20.6061Z" fill="#CACACA"/>
<path d="M42.5162 13.9718C42.9249 13.9718 43.2563 13.6312 43.2563 13.2109C43.2563 12.7906 42.9249 12.45 42.5162 12.45C42.1075 12.45 41.7761 12.7906 41.7761 13.2109C41.7761 13.6312 42.1075 13.9718 42.5162 13.9718Z" fill="#CACACA"/>
<path d="M37.9044 8.27618C38.5571 8.27618 39.0861 7.73217 39.0861 7.06111C39.0861 6.39004 38.5571 5.84603 37.9044 5.84603C37.2517 5.84603 36.7227 6.39004 36.7227 7.06111C36.7227 7.73217 37.2517 8.27618 37.9044 8.27618Z" fill="#CACACA"/>
<path d="M32.2425 3.37183C33.0599 3.37183 33.7226 2.69046 33.7226 1.84995C33.7226 1.00944 33.0599 0.328068 32.2425 0.328068C31.425 0.328068 30.7623 1.00944 30.7623 1.84995C30.7623 2.69046 31.425 3.37183 32.2425 3.37183Z" fill="#CACACA"/>
<path d="M24.8816 3.04376C25.6991 3.04376 26.3618 2.36239 26.3618 1.52188C26.3618 0.681369 25.6991 0 24.8816 0C24.0642 0 23.4015 0.681369 23.4015 1.52188C23.4015 2.36239 24.0642 3.04376 24.8816 3.04376Z" fill="#CACACA"/>
</svg>
