<svg width="18" height="18" viewBox="0 0 18 18" fill="none" xmlns="http://www.w3.org/2000/svg">
<mask id="mask0_69_190" style="mask-type:luminance" maskUnits="userSpaceOnUse" x="0" y="0" width="18" height="18">
<path d="M18 0H0V18H18V0Z" fill="white"/>
</mask>
<g mask="url(#mask0_69_190)">
<path d="M14.3099 11.7902C13.8674 9.14273 11.3249 6.99023 8.63994 6.99023C5.72246 6.99023 3.15746 9.35273 2.90996 12.2627C2.81246 13.3877 3.17246 14.4527 3.91496 15.2552C4.64996 16.0577 5.68496 16.5002 6.80996 16.5002H10.3199C11.5874 16.5002 12.6974 16.0052 13.4549 15.1127C14.2124 14.2202 14.5124 13.0352 14.3099 11.7902Z" fill="#96AB3C"/>
<path d="M7.7102 5.895C8.92385 5.895 9.9077 4.91114 9.9077 3.6975C9.9077 2.48386 8.92385 1.5 7.7102 1.5C6.49655 1.5 5.5127 2.48386 5.5127 3.6975C5.5127 4.91114 6.49655 5.895 7.7102 5.895Z" fill="#96AB3C"/>
<path d="M12.705 6.77279C13.7157 6.77279 14.535 5.95348 14.535 4.94279C14.535 3.93212 13.7157 3.11279 12.705 3.11279C11.6943 3.11279 10.875 3.93212 10.875 4.94279C10.875 5.95348 11.6943 6.77279 12.705 6.77279Z" fill="#96AB3C"/>
<path d="M15.4127 9.69697C16.2204 9.69697 16.8752 9.04222 16.8752 8.23447C16.8752 7.42675 16.2204 6.77197 15.4127 6.77197C14.6049 6.77197 13.9502 7.42675 13.9502 8.23447C13.9502 9.04222 14.6049 9.69697 15.4127 9.69697Z" fill="#96AB3C"/>
<path d="M2.955 8.2347C3.96568 8.2347 4.785 7.41538 4.785 6.40471C4.785 5.39402 3.96568 4.57471 2.955 4.57471C1.94432 4.57471 1.125 5.39402 1.125 6.40471C1.125 7.41538 1.94432 8.2347 2.955 8.2347Z" fill="#96AB3C"/>
</g>
</svg>
