<svg width="131" height="50" viewBox="0 0 131 50" fill="none" xmlns="http://www.w3.org/2000/svg">
<path d="M23.325 0.0408703C43.2808 -1.08067 56.4059 21.1101 45.6041 38.2784C36.2089 53.2134 14.7074 53.8024 4.56549 39.3453C-6.67247 23.3259 4.07151 1.1234 23.325 0.0408703ZM23.5102 3.78387C19.0702 4.04914 14.7865 5.86506 11.4947 8.85712C18.7519 15.6136 30.451 15.6566 37.6927 8.85712C33.9011 5.35793 28.6661 3.4757 23.5102 3.78387ZM13.8063 25.4676C13.9549 20.3416 12.1141 15.3308 8.76235 11.5254C6.27125 14.3673 4.39954 18.003 4.00398 21.8104L13.8082 25.4695L13.8063 25.4676ZM44.9171 19.4776C44.0932 16.6767 42.673 14.0435 40.7048 11.9018C39.3946 13.3413 38.3449 15.0031 37.5114 16.7644L44.9171 19.4795V19.4776ZM34.177 15.4537C33.2894 15.7248 32.45 16.1364 31.5644 16.4133C27.1938 17.7826 22.7596 17.8704 18.3466 16.622C17.3741 16.347 16.446 15.9199 15.4773 15.6409C18.0418 21.6797 17.8951 28.5805 15.1995 34.5432C21.0481 31.7091 28.0448 31.7189 33.9937 34.2623C31.875 29.1657 31.5624 23.6048 33.1582 18.3053C33.4515 17.334 33.8722 16.4172 34.179 15.4537H34.177ZM45.7507 25.5612V23.7355L36.4385 20.1349C36.2745 20.0959 36.3247 20.1602 36.2841 20.25C36.0835 20.6966 36.0912 21.3735 35.931 21.8533L45.7527 25.5592L45.7507 25.5612ZM13.2448 29.0292L3.71647 25.4656C3.88627 30.1058 5.70974 34.5666 8.76235 38.0053C10.9196 35.4443 12.6968 32.3938 13.2448 29.0292ZM45.2799 29.2184L35.659 25.6548C35.7323 26.0664 35.6686 27.4395 35.9387 27.6638L44.8284 30.9484L45.2799 29.2184ZM43.4371 34.2643L36.865 31.8301C37.7178 34.1999 38.9991 36.441 40.7068 38.2862C41.2143 37.9897 43.5915 34.4769 43.4391 34.2643H43.4371ZM18.9931 36.7902C18.8792 36.9228 19.516 37.8649 19.6144 38.0795C20.4441 39.8954 20.6486 41.5806 20.2627 43.5467C20.1527 44.1085 19.8903 44.6273 19.7765 45.1169C19.7533 45.2163 19.6916 45.3041 19.7726 45.4036C22.2406 46.1253 24.9034 46.2911 27.4524 45.9458C27.7264 45.9088 29.5364 45.6025 29.546 45.4445C28.6507 43.4277 28.6912 41.0325 29.3164 38.9396L30.1558 36.6888C26.5513 35.5555 22.5917 35.733 18.9911 36.7882L18.9931 36.7902ZM32.8823 44.3698C34.6749 43.4862 36.4443 42.4564 37.8741 41.0345C37.9417 40.6444 34.2523 38.2667 33.6657 38.0171C32.423 39.911 32.0294 42.2223 32.8823 44.3698ZM16.3997 44.0889C16.8859 42.708 17.0789 41.4519 16.5637 40.0397C16.4421 39.7062 15.7726 38.3759 15.4291 38.3779C15.1126 38.3818 12.7045 40.1509 12.3244 40.4825L11.7706 41.0442C13.1734 42.2496 14.6785 43.3907 16.3978 44.087L16.3997 44.0889Z" fill="#1A1F18"/>
<path d="M102.97 32.9534V30.2383H104.267V35.1048L103.082 35.0853L100.842 32.3916V35.1048H99.5454V30.2383L100.802 30.3261L102.97 32.9534Z" fill="#1A1F18"/>
<path d="M54.4551 35.1048V30.2383H57.1874C57.2916 30.2383 57.9978 30.5133 58.1329 30.5933C59.5396 31.4261 59.5415 33.915 58.1329 34.7498C57.9997 34.8298 57.2916 35.1048 57.1874 35.1048H54.4551ZM55.7498 33.9832C56.7706 34.0964 57.9052 33.9306 57.8705 32.6354C57.8357 31.3403 56.7494 31.272 55.7498 31.3637V33.9832Z" fill="#1A1F18"/>
<path d="M79.9623 14.3296C81.6546 14.5715 81.9054 16.6956 80.2865 17.2768C80.7959 17.7293 81.1182 17.9985 81.8514 17.8951L81.9402 18.8079C81.1703 19.1707 80.5953 18.9406 79.9643 18.4432C79.5417 18.1097 79.2156 17.5148 78.712 17.3217V18.7728C78.3917 19.0596 77.8263 18.8548 77.4153 18.9133V14.3277C78.2064 14.4096 79.1963 14.2184 79.9623 14.3277V14.3296ZM79.9874 16.2723C80.1534 16.1046 80.163 15.6208 79.918 15.498C79.6324 15.3575 79.0458 15.5019 78.7139 15.4511V16.3874C79.0168 16.3503 79.779 16.483 79.9874 16.2703V16.2723Z" fill="#1A1F18"/>
<path d="M62.6943 16.8584V14.3306H63.8983V18.9162L62.8062 18.8967L60.7512 16.3903V18.9162H59.5471V14.3306L60.6161 14.4203L62.6943 16.8584Z" fill="#1A1F18"/>
<path d="M89.7316 24.718V22.1921H90.9357V26.7777C90.6597 26.7465 90.3201 26.8265 90.0577 26.7758C89.5908 26.6861 88.3095 24.6107 87.7866 24.2518V26.7777H86.5825V22.1921C86.8585 22.2233 87.1981 22.1434 87.4605 22.1941C87.9274 22.2838 89.2087 24.3591 89.7316 24.718Z" fill="#1A1F18"/>
<path d="M99.8235 18.9162V14.471L99.9624 14.3306H102.278C102.6 14.3306 103.474 14.785 103.712 15.0327C104.64 16.008 104.372 18.0443 103.127 18.6509C103.027 18.6997 102.425 18.9142 102.371 18.9142H99.8235V18.9162ZM101.12 17.8863C101.996 17.939 102.949 17.7771 102.978 16.718C103.013 15.4482 102.162 15.3663 101.12 15.4541V17.8863Z" fill="#1A1F18"/>
<path d="M64.3615 30.2383V31.3618H61.6755V32.1108H63.8984V33.1406H61.6755V33.9832H64.3615V35.1048H60.4734V30.2383H64.3615Z" fill="#1A1F18"/>
<path d="M89.5466 18.9162V14.3306H91.9085C91.9702 14.3306 92.5221 14.4964 92.6282 14.5393C94.224 15.1615 94.386 17.6094 93.0045 18.5261C92.8173 18.649 92.1921 18.9162 92.0011 18.9162H89.5466ZM90.7488 17.8863C91.675 17.9721 92.7015 17.7732 92.7015 16.6224C92.7015 15.3858 91.7039 15.3721 90.7488 15.4521V17.8844V17.8863Z" fill="#1A1F18"/>
<path d="M74.1751 30.2383V33.3727C74.1751 33.9091 75.4313 34.3051 75.8847 33.6029C75.9407 33.5171 76.1182 33.0606 76.1182 32.9982V30.2383H77.4149V33.1855C77.4149 33.2635 77.2335 33.8643 77.1833 33.9813C76.5813 35.3934 74.3121 35.5924 73.3415 34.4962C73.2315 34.3714 72.8784 33.7784 72.8784 33.6536V30.2383H74.1751Z" fill="#1A1F18"/>
<path d="M88.8056 35.1043H87.5089L87.1731 34.2754H85.2976L85.012 35.0614L83.7134 35.1043L85.5619 30.2827L87.094 30.3315L88.8056 35.1063V35.1043ZM86.3974 31.7358C86.1562 31.6929 86.2547 31.7709 86.2045 31.8685C86.1234 32.0284 85.6854 33.1714 85.751 33.2319H86.8605L86.3974 31.7358Z" fill="#1A1F18"/>
<path d="M93.5273 35.1043L95.4222 30.2319L96.8501 30.2495L98.6195 35.1043L97.3209 35.0614L97.0353 34.2734H95.1598L94.824 35.1043H93.5273ZM96.6745 33.2318L96.0281 31.6421L95.4724 33.2318H96.6764H96.6745Z" fill="#1A1F18"/>
<path d="M60.6334 22.2132C62.4974 21.8972 63.7343 23.046 63.5278 24.9517C63.3734 26.3677 61.741 27.146 60.4733 26.7286C58.2465 25.9971 58.4684 22.5799 60.6334 22.2132ZM60.9093 23.3347C59.9175 23.5415 59.8075 25.2599 60.7743 25.5797C62.7868 26.2449 62.9316 22.9134 60.9093 23.3347Z" fill="#1A1F18"/>
<path d="M76.3984 14.3306C76.3502 14.6914 76.5316 15.181 76.2595 15.4541H73.8977V16.1094H75.9353C75.8929 16.443 76.0608 16.8916 75.7964 17.1393H73.8977V17.8883H76.3984V18.9181H72.6956V14.3325H76.3984V14.3306Z" fill="#1A1F18"/>
<path d="M80.1936 22.1904C80.1454 22.5513 80.3268 23.0408 80.0547 23.3139H77.6929V23.9693H79.7305C79.6881 24.3028 79.8559 24.7514 79.5916 24.9991H77.6929V25.7481H80.1936V26.778H76.4907V22.3328L76.6297 22.1924H80.1936V22.1904Z" fill="#1A1F18"/>
<path d="M83.063 32.1088L81.8609 32.298C81.9168 31.8045 81.6795 31.3929 81.1643 31.3559C79.4856 31.2369 79.4161 34.2719 81.4209 33.9598C81.8821 33.8876 82.1908 33.5755 82.598 33.4214L83.0553 34.3869C81.0408 36.1053 78.2333 34.9682 78.6269 32.0736C78.9549 29.6589 83.2 29.3293 83.0611 32.1107L83.063 32.1088Z" fill="#1A1F18"/>
<path d="M55.2885 25.5614V26.7785H54.0845V22.1929H56.6315C56.7029 22.1929 57.1988 22.3957 57.2992 22.4542C58.1598 22.9497 58.3141 24.2916 57.6812 25.0328C57.55 25.1869 56.9789 25.5614 56.8168 25.5614H55.2885ZM55.2866 24.5315C55.7536 24.4925 56.6084 24.7266 56.7492 24.0888C56.9673 23.1096 55.9079 23.3164 55.2866 23.3144V24.5315Z" fill="#1A1F18"/>
<path d="M55.2885 14.3306V17.2778C55.2885 17.5216 55.8269 17.8707 56.0835 17.8805C56.3633 17.8922 57.0483 17.5762 57.0483 17.2778V14.3306H58.2524V17.465C58.2524 17.506 58.0131 18.0229 57.9591 18.1048C57.193 19.2965 55.0319 19.3141 54.3218 18.0677C54.2716 17.9799 54.0845 17.6074 54.0845 17.5586V14.3306H55.2885Z" fill="#1A1F18"/>
<path d="M102.867 22.2046L104.545 26.7766L103.341 26.7317L103.009 25.9281H101.271L100.939 26.7317L99.7349 26.7766L101.444 22.2826L102.869 22.2046H102.867ZM102.693 24.9977L102.184 23.5953L101.581 24.9977H102.693Z" fill="#1A1F18"/>
<path d="M99.0828 18.9152L97.8923 18.9035L97.543 18.0863L95.8334 18.1311L95.5536 18.9035L94.363 18.9152L96.0418 14.3433L97.4639 14.4232L99.0828 18.9152ZM97.2304 17.1364C97.2844 17.0837 96.8561 15.8139 96.6766 15.734L96.2135 17.1364H97.2304Z" fill="#1A1F18"/>
<path d="M84.2689 24.1564C83.991 22.3132 81.716 23.6512 82.5631 25.1765C83.0899 26.1264 84.2225 25.5998 84.9153 25.1843L85.3726 26.062C84.4811 26.9749 82.9104 27.1407 81.909 26.3059C80.8072 25.3852 80.8805 23.2728 82.1347 22.516C83.0127 21.9855 84.6586 21.966 85.168 23.0134C85.6987 24.1076 85.1565 23.9477 84.2689 24.1584V24.1564Z" fill="#1A1F18"/>
<path d="M85.9265 14.6205L85.6563 15.7343C85.0697 15.5022 84.7127 15.2857 84.0432 15.3695C83.7287 15.4085 83.5183 15.6328 83.8039 15.8747C84.2574 16.259 85.8454 16.0854 86.021 17.1893C86.295 18.9038 84.3673 19.2159 83.115 18.8161C82.2506 18.5391 82.5246 18.2563 82.8353 17.5112C83.1749 17.7881 84.8305 18.2075 84.8266 17.556C84.8266 17.1269 83.1286 17.084 82.6905 16.5301C82.3258 16.0698 82.3567 15.4066 82.6905 14.9365C83.3177 14.0549 85.0446 14.2538 85.9226 14.6186L85.9265 14.6205Z" fill="#1A1F18"/>
<path d="M99.0827 23.9691L97.9732 24.1564C97.9365 23.54 97.8169 23.2981 97.1859 23.3059C95.9356 23.3196 95.787 25.0828 96.7055 25.5783C97.624 26.0737 98.5154 25.1121 98.6196 25.1862L99.0692 26.06C97.2303 27.7414 94.5578 26.6354 94.9245 23.9301C95.2293 21.6773 99.2043 21.3984 99.0827 23.9691Z" fill="#1A1F18"/>
<path d="M68.4346 14.3306C68.836 15.259 69.0039 16.3103 69.411 17.2329C69.4612 17.346 69.4033 17.4592 69.5924 17.4202L70.6575 14.3306H71.9542L70.3353 18.8226L68.9421 18.922L67.1399 14.3306H68.4366H68.4346Z" fill="#1A1F18"/>
<path d="M68.4812 30.2383C68.6085 30.2792 69.28 31.5705 69.4325 31.8006C69.4749 31.8669 69.4055 31.9625 69.5907 31.9235L70.6095 30.2383H71.9525C71.9757 30.3748 71.9294 30.4684 71.8792 30.5855C71.7017 31.0107 70.1927 33.0294 70.1927 33.1855V35.1048H68.8961V33.1855C68.8961 33.0294 67.3871 31.0107 67.2096 30.5855C67.1594 30.4665 67.1131 30.3748 67.1363 30.2383H68.4793H68.4812Z" fill="#1A1F18"/>
<path d="M93.2495 30.2383V31.3618H91.8602V35.1048H90.5635V31.3618H89.0835V30.2383H93.2495Z" fill="#1A1F18"/>
<path d="M74.0828 23.3139V26.776H72.8787V23.3139H71.582V22.1904H75.3312C75.5493 22.3328 75.5203 23.1754 75.3833 23.273L74.0809 23.3139H74.0828Z" fill="#1A1F18"/>
<path d="M66.0288 22.1904V25.7462H68.2517C68.2092 26.0797 68.3771 26.5283 68.1128 26.776H64.8267V22.1904H66.0307H66.0288Z" fill="#1A1F18"/>
<path d="M66.3991 14.3306H65.1951V18.9162H66.3991V14.3306Z" fill="#1A1F18"/>
<path d="M88.25 14.3306H87.0459V18.9162H88.25V14.3306Z" fill="#1A1F18"/>
<path d="M70.4726 22.1904H69.2686V26.776H70.4726V22.1904Z" fill="#1A1F18"/>
<path d="M93.6198 22.1904H92.4158V26.776H93.6198V22.1904Z" fill="#1A1F18"/>
<path d="M97.2301 28.7427C96.8211 29.5034 96.356 30.383 95.3816 29.8194L95.9335 28.7875L97.2301 28.7427Z" fill="#1A1F18"/>
<path d="M79.4531 20.7876L78.8047 21.8623L77.7878 21.9091L78.2645 20.8032L79.4531 20.7876Z" fill="#1A1F18"/>
<path d="M23.7822 6.67968C27.0336 6.1628 27.296 11.078 24.2145 11.1385C21.5458 11.1912 21.1831 7.09318 23.7822 6.67968Z" fill="#1A1F18"/>
<path d="M130.471 14.3306V35.1989H109.732V14.3306H130.471ZM126.301 19.3902C124.787 18.6431 122.089 19.0859 122.13 21.21C122.174 23.6188 125.751 23.0356 125.713 25.0329C125.68 26.724 123.297 26.605 122.274 25.9399L122.054 26.7669C123.974 27.5822 126.817 27.2604 126.583 24.5746C126.396 22.4076 123.102 22.8425 123.052 21.1163C123.006 19.5267 125.103 19.7178 126.114 20.1333L126.299 19.3902H126.301ZM113.25 19.2907V27.0576C114.845 27.196 117.856 27.3579 118.068 25.1441C118.191 23.8607 117.566 23.2853 116.489 22.7996C118.097 22.2184 118.319 20.0299 116.646 19.3668C115.606 18.9552 114.319 19.0995 113.248 19.2926L113.25 19.2907ZM120.47 19.1971H119.544V27.0576H120.47V19.1971ZM116.952 28.5555C116.898 28.5009 116.677 28.6336 116.677 28.696C116.677 28.9554 117.091 28.696 116.952 28.5555ZM122.6 28.5555C122.261 28.5555 122.261 28.8345 122.6 28.8345V28.5555ZM124.266 28.5555H124.082V28.8345H124.266V28.5555ZM114.452 28.7428V30.1003C114.452 30.2895 113.848 30.4709 113.703 30.1998L113.433 28.7428V30.194C113.433 30.6133 114.637 30.6348 114.637 30.1003V28.7428H114.452ZM123.341 28.8364C123.015 28.7428 123.228 29.129 123.15 29.207L122.878 29.3045C123.442 29.1817 122.996 30.1471 123.197 30.4339L123.712 30.5216C123.803 30.1881 123.401 30.3949 123.341 30.3363V29.3065L123.714 29.2597L123.341 29.2129V28.8364ZM115.193 29.2109V30.5216L115.376 29.443C115.523 29.3318 115.86 29.209 115.986 29.3943L116.028 30.5216C116.256 30.824 116.223 29.9111 116.217 29.8156C116.2 29.5152 116.21 29.0978 115.797 29.1251C115.582 29.1407 115.438 29.3787 115.195 29.2109H115.193ZM119.824 29.8663C119.97 28.8949 118.726 28.9281 118.726 29.8195C118.726 30.3227 119.33 30.8435 119.731 30.3344C119.305 30.3656 118.93 30.3949 118.898 29.8663H119.824ZM121.952 29.2109C121.703 29.0783 121.302 29.129 121.161 29.3962C120.943 29.8097 121.707 29.9228 121.858 30.192L121.118 30.3324C120.912 30.4846 122.328 30.785 121.906 29.956C121.809 29.7649 121.248 29.7161 121.304 29.445L121.95 29.2109H121.952ZM125.749 29.8663C125.829 29.3767 125.657 29.0061 125.119 29.1758C124.58 29.3455 124.598 30.2525 125.03 30.4514C125.18 30.5216 125.748 30.6601 125.655 30.3344C125.284 30.3695 124.877 30.3519 124.914 29.8663H125.748H125.749ZM126.859 29.3026C126.728 28.9808 126.34 29.129 126.162 29.3026C125.819 29.8702 126.975 29.8702 126.72 30.3344H126.118C126.211 30.6211 126.78 30.5899 126.907 30.3344V29.9579L126.301 29.6322L126.394 29.3494L126.859 29.3045V29.3026ZM116.86 30.5197V29.209H116.767V30.5197H116.86ZM117.506 29.2109L117.336 29.3357C117.448 29.5249 117.668 30.5841 117.923 30.5216L118.432 29.2129L118.222 29.4177L117.83 30.2427L117.504 29.2129L117.506 29.2109ZM120.285 29.2109V30.5216L120.418 29.4859L120.843 29.3982C120.91 29.0237 120.478 29.3806 120.287 29.2109H120.285ZM122.6 29.2109H122.415V30.5216H122.6V29.2109ZM124.268 29.2109H124.082V30.5216H124.268V29.2109Z" fill="#EDA122"/>
<path d="M114.174 23.2205C115.295 23.1561 117.109 23.2576 117.143 24.7653C117.169 25.7991 116.339 26.3082 115.422 26.4018C115.075 26.4369 114.432 26.4778 114.174 26.2613V23.2205Z" fill="#EDA122"/>
<path d="M114.174 22.5647V19.8516H115.795C116.071 19.8516 116.64 20.269 116.758 20.5635C117.439 22.276 115.434 22.7461 114.174 22.5667V22.5647Z" fill="#EDA122"/>
<path d="M125.564 29.7706H124.962C124.619 29.7297 125.576 28.6881 125.564 29.7706Z" fill="#EDA122"/>
<path d="M119.638 29.7705C119.39 29.753 119.077 29.8642 118.899 29.6321C119.067 29.1444 119.745 29.1464 119.638 29.7705Z" fill="#EDA122"/>
</svg>
