<svg width="204" height="46" viewBox="0 0 204 46" fill="none" xmlns="http://www.w3.org/2000/svg">
<g clip-path="url(#clip0_71_2756)">
<path d="M25.9949 24.6541C24.6434 24.6388 23.5333 23.4961 23.5606 22.147C23.5839 20.859 24.6589 19.8119 25.9443 19.8233C27.3348 19.8348 28.4449 20.966 28.4216 22.3457C28.3982 23.6375 27.3115 24.6693 25.9949 24.6541Z" fill="#1A1F18"/>
<path d="M28.9282 15.7002C30.0111 15.6964 30.8952 16.5563 30.8913 17.6187C30.8913 18.6735 30.0266 19.5258 28.9516 19.5296C27.8688 19.5373 26.9846 18.6735 26.9846 17.6149C26.9846 16.5678 27.861 15.7079 28.9282 15.7002Z" fill="#1A1F18"/>
<path d="M31.9282 20.2943C33.0305 20.3134 33.8874 21.1656 33.868 22.2281C33.8524 23.2638 32.9682 24.1007 31.9088 24.0893C30.8415 24.0778 29.9729 23.1988 29.9963 22.1555C30.0197 21.1274 30.9 20.2752 31.9282 20.2943Z" fill="#1A1F18"/>
<path d="M20.6474 23.982C19.5801 23.982 18.7038 23.1106 18.7154 22.0635C18.7271 21.0392 19.6035 20.1755 20.6279 20.1832C21.7302 20.1908 22.5949 21.0392 22.5871 22.1017C22.5793 23.1374 21.7029 23.982 20.6435 23.982H20.6474Z" fill="#1A1F18"/>
<path d="M23.2573 19.5142C22.19 19.5104 21.3175 18.639 21.3292 17.5919C21.3448 16.5638 22.2212 15.7077 23.2456 15.7154C24.3479 15.7268 25.2126 16.5753 25.2009 17.6377C25.1892 18.6734 24.3128 19.5181 23.2534 19.5142H23.2573Z" fill="#1A1F18"/>
<path d="M29.1342 25.0093C30.2365 25.017 31.1012 25.8616 31.0896 26.9279C31.0779 27.9636 30.1976 28.812 29.1459 28.8044C28.0748 28.7967 27.2062 27.9292 27.2179 26.882C27.2296 25.8539 28.1021 25.0017 29.1342 25.0093Z" fill="#1A1F18"/>
<path d="M23.483 25.0094C24.5814 25.0209 25.4422 25.8769 25.4227 26.9432C25.4032 27.9789 24.5152 28.8235 23.4635 28.8044C22.4002 28.7853 21.5471 27.933 21.551 26.8935C21.551 25.8578 22.4352 24.9979 23.483 25.0094Z" fill="#1A1F18"/>
<path d="M31.1796 29.3169C32.0521 29.3169 32.7532 30.0125 32.7415 30.8685C32.7298 31.7399 31.982 32.4622 31.0978 32.4546C30.2409 32.4469 29.5476 31.759 29.5476 30.9182C29.5476 30.0469 30.2955 29.3169 31.1796 29.3169Z" fill="#1A1F18"/>
<path d="M31.6431 12.0347C32.5351 12.0424 33.2556 12.7532 33.2518 13.6131C33.2479 14.4654 32.539 15.1533 31.6704 15.1495C30.7901 15.1418 30.0695 14.4195 30.0812 13.552C30.089 12.7074 30.794 12.0271 31.647 12.0347H31.6431Z" fill="#1A1F18"/>
<path d="M19.931 8.86649C19.931 9.70728 19.2338 10.3837 18.3691 10.3837C17.516 10.3837 16.8188 9.69964 16.8149 8.85884C16.8149 8.00659 17.5238 7.31485 18.3924 7.32631C19.2532 7.33778 19.9349 8.01805 19.931 8.86649Z" fill="#1A1F18"/>
<path d="M10.6181 23.5533C9.73785 23.538 9.05621 22.8501 9.0718 21.994C9.08738 21.157 9.80406 20.4806 10.6532 20.4959C11.5062 20.5111 12.1956 21.2067 12.1878 22.0437C12.1761 22.8845 11.4633 23.5686 10.6181 23.5495V23.5533Z" fill="#1A1F18"/>
<path d="M35.6202 35.3134C35.6202 36.1542 34.9269 36.8345 34.0661 36.8383C33.2092 36.8383 32.5081 36.1581 32.5003 35.3211C32.4964 34.4841 33.1897 33.7886 34.0427 33.7847C34.9191 33.7771 35.6163 34.4574 35.6163 35.3134H35.6202Z" fill="#1A1F18"/>
<path d="M36.8162 20.5074C37.6965 20.4997 38.4054 21.1647 38.421 22.017C38.4366 22.8654 37.7277 23.5648 36.863 23.5686C36.0061 23.5686 35.3088 22.8922 35.3049 22.0476C35.3011 21.2182 35.9905 20.515 36.8162 20.5112V20.5074Z" fill="#1A1F18"/>
<path d="M21.0217 12.0889C21.902 12.1003 22.5953 12.7806 22.5875 13.6329C22.5797 14.4698 21.8708 15.1501 21.0178 15.1463C20.1492 15.1386 19.4559 14.4393 19.4714 13.587C19.487 12.7577 20.1881 12.0812 21.0217 12.0927V12.0889Z" fill="#1A1F18"/>
<path d="M21.4927 29.4776C22.3769 29.4852 23.0624 30.1655 23.0547 31.0216C23.0469 31.8624 22.3419 32.5427 21.4889 32.535C20.6242 32.5274 19.9192 31.8204 19.9386 30.9757C19.9542 30.1464 20.6592 29.47 21.4927 29.4776Z" fill="#1A1F18"/>
<path d="M17.6096 22.0403C17.6096 22.8811 16.9124 23.5652 16.0555 23.5652C15.1869 23.5652 14.4819 22.8658 14.4936 22.0174C14.5052 21.1919 15.2102 20.4963 16.036 20.504C16.9202 20.5116 17.6135 21.1842 17.6096 22.0365V22.0403Z" fill="#1A1F18"/>
<path d="M18.5561 33.8882C19.413 33.8882 20.1063 34.5685 20.1063 35.4131C20.1063 36.25 19.413 36.938 18.5561 36.9418C17.6992 36.9456 16.9981 36.2653 16.9903 35.4284C16.9825 34.5723 17.6797 33.8882 18.5561 33.8882Z" fill="#1A1F18"/>
<path d="M35.8969 8.85099C35.8969 9.6956 35.2074 10.3797 34.3505 10.3797C33.4897 10.3797 32.7886 9.70707 32.7808 8.86628C32.773 8.01402 33.478 7.31846 34.3427 7.32228C35.1996 7.32228 35.893 8.00638 35.893 8.85099H35.8969Z" fill="#1A1F18"/>
<path d="M27.5929 30.8909C27.5891 31.5864 27.0087 32.1482 26.2959 32.1482C25.5792 32.1482 24.9911 31.5673 24.9989 30.8603C25.0105 30.1647 25.5909 29.5991 26.2959 29.5991C27.0165 29.5991 27.5968 30.1762 27.5891 30.8871L27.5929 30.8909Z" fill="#1A1F18"/>
<path d="M27.5929 13.3839C27.5929 14.0909 27.0008 14.6604 26.2764 14.6527C25.5675 14.6451 24.9949 14.0718 24.9988 13.3763C24.9988 12.6807 25.5792 12.1113 26.2881 12.1074C27.0086 12.1036 27.5929 12.6769 27.5929 13.3839Z" fill="#1A1F18"/>
<path d="M36.5513 6.20646C35.8463 6.20646 35.2776 5.64466 35.2776 4.96057C35.2776 4.26118 35.8579 3.69556 36.5707 3.7032C37.2718 3.71085 37.8327 4.27265 37.8288 4.96439C37.8249 5.65613 37.2563 6.20646 36.5513 6.20646Z" fill="#1A1F18"/>
<path d="M39.1416 27.6323C38.4366 27.6323 37.8718 27.0782 37.8679 26.3903C37.864 25.6909 38.4405 25.1252 39.1572 25.1329C39.8583 25.1367 40.4231 25.7023 40.4192 26.3903C40.4153 27.0782 39.8427 27.6362 39.1416 27.6362V27.6323Z" fill="#1A1F18"/>
<path d="M25.1034 9.096C25.1034 9.78774 24.5464 10.3457 23.8453 10.3534C23.1403 10.3572 22.5678 9.81067 22.5561 9.12275C22.5444 8.42336 23.1209 7.8501 23.8337 7.8501C24.5348 7.8501 25.1034 8.40425 25.1073 9.096H25.1034Z" fill="#1A1F18"/>
<path d="M30.2722 9.11137C30.2683 9.80311 29.6957 10.3534 28.9946 10.3496C28.2896 10.3458 27.7209 9.78782 27.7209 9.0999C27.7209 8.40052 28.3052 7.8349 29.018 7.84636C29.7191 7.85783 30.28 8.41963 30.2722 9.11137Z" fill="#1A1F18"/>
<path d="M13.7962 27.6323C13.0912 27.6323 12.5264 27.0782 12.5225 26.3903C12.5186 25.6985 13.0795 25.1367 13.7806 25.1329C14.4934 25.1252 15.0776 25.6947 15.0737 26.3903C15.0698 27.082 14.5012 27.6361 13.8001 27.6361L13.7962 27.6323Z" fill="#1A1F18"/>
<path d="M36.7185 31.7211C36.0174 31.7211 35.4487 31.1631 35.4487 30.4714C35.4487 29.7758 36.0291 29.2102 36.7458 29.2179C37.4469 29.2255 38.0078 29.7873 38 30.479C37.9922 31.1708 37.4235 31.7211 36.7224 31.7173L36.7185 31.7211Z" fill="#1A1F18"/>
<path d="M37.9962 13.7278C38.0001 14.4196 37.4393 14.9814 36.7382 14.9852C36.0331 14.989 35.4567 14.4425 35.445 13.7546C35.4333 13.0552 36.0098 12.4819 36.7226 12.4819C37.4237 12.4819 37.9924 13.0361 37.9962 13.7278Z" fill="#1A1F18"/>
<path d="M17.4883 30.4594C17.4883 31.1512 16.9352 31.713 16.2302 31.7206C15.5174 31.7283 14.9331 31.1627 14.937 30.4671C14.937 29.7792 15.5096 29.2212 16.2107 29.2212C16.9157 29.2212 17.4844 29.7753 17.4883 30.4633V30.4594Z" fill="#1A1F18"/>
<path d="M34.0581 27.5742C33.357 27.5819 32.7845 27.0277 32.7728 26.3398C32.765 25.6557 33.3259 25.0863 34.027 25.071C34.7398 25.0595 35.3201 25.6175 35.324 26.3207C35.324 27.0086 34.7631 27.5666 34.0581 27.5742Z" fill="#1A1F18"/>
<path d="M37.8633 17.8167C37.8633 17.125 38.432 16.5708 39.1331 16.5708C39.8459 16.5708 40.4223 17.1441 40.4107 17.8396C40.399 18.5314 39.8264 19.0779 39.1253 19.0702C38.4203 19.0626 37.8594 18.5046 37.8633 17.8167Z" fill="#1A1F18"/>
<path d="M18.7083 19.2923C18.0072 19.2923 17.4385 18.7305 17.4385 18.0426C17.4385 17.3547 18.0072 16.7929 18.7083 16.7891C19.421 16.7853 19.9936 17.3509 19.9897 18.0541C19.9858 18.742 19.4133 19.2923 18.7083 19.2923Z" fill="#1A1F18"/>
<path d="M35.3239 17.8171C35.3239 18.5088 34.7669 19.063 34.0619 19.0706C33.3608 19.0783 32.7882 18.528 32.7765 17.8362C32.7649 17.1406 33.3452 16.5674 34.058 16.5674C34.7591 16.5674 35.3278 17.1254 35.3278 17.8171H35.3239Z" fill="#1A1F18"/>
<path d="M16.1526 6.20704C15.4515 6.20704 14.8828 5.64906 14.8789 4.96114C14.8789 4.27322 15.4437 3.71142 16.1448 3.7076C16.8576 3.69995 17.434 4.26558 17.4302 4.96878C17.4263 5.6567 16.8576 6.20704 16.1526 6.20704Z" fill="#1A1F18"/>
<path d="M17.4966 39.2574C17.4927 39.9415 16.9162 40.4994 16.2151 40.4918C15.514 40.488 14.9453 39.93 14.9453 39.2421C14.9453 38.5427 15.5296 37.9809 16.2424 37.9924C16.9435 38 17.5005 38.5656 17.4966 39.2574Z" fill="#1A1F18"/>
<path d="M6.11569 23.2178C5.39121 23.2254 4.81085 22.6789 4.80306 21.9795C4.79527 21.2916 5.36005 20.7222 6.05726 20.7145C6.76616 20.7031 7.35431 21.2687 7.35431 21.9681C7.35431 22.6407 6.78563 23.214 6.11179 23.2178H6.11569Z" fill="#1A1F18"/>
<path d="M40.1345 22.0937C40.1384 21.4134 40.7032 20.8555 41.3848 20.8555C42.1093 20.8555 42.6858 21.4058 42.6897 22.1014C42.6897 22.7969 42.1015 23.3702 41.3965 23.3587C40.6915 23.3473 40.1345 22.7855 40.1384 22.0975L40.1345 22.0937Z" fill="#1A1F18"/>
<path d="M37.6688 39.1427C37.6688 39.8345 37.1079 40.3886 36.4029 40.3924C35.7018 40.3924 35.1253 39.8421 35.1175 39.158C35.1097 38.4624 35.6901 37.8854 36.399 37.8892C37.1001 37.8892 37.6649 38.451 37.6688 39.1389V39.1427Z" fill="#1A1F18"/>
<path d="M13.8001 16.544C14.5051 16.544 15.0699 17.1019 15.0699 17.7937C15.0699 18.4892 14.4895 19.0549 13.7728 19.0434C13.0678 19.0358 12.5108 18.474 12.5186 17.7822C12.5264 17.0905 13.0951 16.5401 13.7962 16.544H13.8001Z" fill="#1A1F18"/>
<path d="M25.1035 34.5948C25.0996 35.2865 24.5309 35.8368 23.8259 35.833C23.1209 35.8292 22.5522 35.2712 22.5522 34.5871C22.5522 33.8877 23.1326 33.3259 23.8454 33.3336C24.5504 33.3412 25.1074 33.903 25.0996 34.5948H25.1035Z" fill="#1A1F18"/>
<path d="M30.2718 34.5718C30.2796 35.2635 29.7226 35.8253 29.0176 35.833C28.3126 35.8406 27.7361 35.2979 27.7205 34.61C27.7049 33.9106 28.2775 33.3373 28.9903 33.3335C29.6953 33.3297 30.264 33.88 30.2679 34.5718H30.2718Z" fill="#1A1F18"/>
<path d="M16.2186 12.4556C16.9236 12.4556 17.4844 13.0097 17.4883 13.7015C17.4883 14.4009 16.9119 14.9627 16.1952 14.955C15.4941 14.9474 14.9293 14.3856 14.9371 13.6938C14.9449 13.0059 15.5136 12.4518 16.2186 12.4556Z" fill="#1A1F18"/>
<path d="M18.72 25.2119C19.425 25.2119 19.9859 25.7661 19.9898 26.4578C19.9898 27.1572 19.4133 27.719 18.6967 27.7114C17.9955 27.7037 17.4308 27.1419 17.4386 26.4502C17.4463 25.7623 18.015 25.2081 18.72 25.2119Z" fill="#1A1F18"/>
<path d="M46.5968 20.917C47.2628 20.9208 47.7809 21.4253 47.777 22.0712C47.777 22.7094 47.2356 23.2292 46.5851 23.2177C45.9424 23.2063 45.4283 22.6903 45.4322 22.0597C45.4322 21.433 45.9619 20.9132 46.5968 20.917Z" fill="#1A1F18"/>
<path d="M6.85531 30.6206C6.85531 31.0371 6.40348 31.4766 5.97892 31.4766C5.56994 31.4766 5.06359 31.018 5.08306 30.6282C5.10643 30.1581 5.51152 29.7912 5.98282 29.7645C6.40348 29.7415 6.85531 30.2116 6.85531 30.6206Z" fill="#1A1F18"/>
<path d="M5.97881 12.7534C6.41115 12.7534 6.85129 13.1853 6.85519 13.6095C6.85519 14.0222 6.40336 14.4923 5.9827 14.4694C5.5114 14.4426 5.07516 14.0566 5.09074 13.598C5.10632 13.1471 5.48414 12.8069 5.97881 12.7572V12.7534Z" fill="#1A1F18"/>
<path d="M45.9773 13.6127C45.9773 13.1732 46.3902 12.7337 46.8264 12.7604C47.2704 12.7834 47.7106 13.0929 47.7145 13.6165C47.7184 14.1057 47.2237 14.4497 46.8381 14.465C46.4019 14.4841 45.9773 14.0407 45.9773 13.6127Z" fill="#1A1F18"/>
<path d="M26.4128 4.30322C26.9153 4.30322 27.2658 4.63954 27.2619 5.1058C27.2619 5.6676 26.7634 5.95041 26.3895 5.93894C25.848 5.92366 25.5053 5.5453 25.5131 5.10197C25.5248 4.63954 25.8831 4.26118 26.4089 4.30704L26.4128 4.30322Z" fill="#1A1F18"/>
<path d="M45.9773 30.6044C45.9773 30.1725 46.4252 29.7215 46.8498 29.7674C47.2822 29.8132 47.7184 30.1266 47.7145 30.6235C47.7106 31.1356 47.2822 31.4299 46.842 31.4719C46.4058 31.5139 45.9734 31.0553 45.9773 30.6044Z" fill="#1A1F18"/>
<path d="M10.2091 30.6089C10.2364 30.1197 10.6571 29.7872 11.0972 29.7681C11.5179 29.749 11.9775 30.2267 11.9697 30.6319C11.9619 31.0446 11.4906 31.507 11.0738 31.4765C10.6415 31.4421 10.1936 31.0828 10.2091 30.6089Z" fill="#1A1F18"/>
<path d="M10.2089 13.6209C10.1816 13.1737 10.6685 12.7495 11.0736 12.761C11.5682 12.7763 11.9344 13.1355 11.9616 13.6018C11.985 14.0107 11.5098 14.4961 11.093 14.4655C10.6568 14.4349 10.2439 14.1368 10.2089 13.6209Z" fill="#1A1F18"/>
<path d="M26.4084 39.9302C25.8825 39.9684 25.5086 39.5747 25.5203 39.1008C25.532 38.6575 25.8825 38.2983 26.3928 38.2944C26.829 38.2944 27.2653 38.6155 27.2575 39.1276C27.2497 39.6015 26.9108 39.9302 26.4084 39.9302Z" fill="#1A1F18"/>
<path d="M40.8628 13.6096C40.8628 13.1013 41.3185 12.7573 41.7275 12.7573C42.191 12.7573 42.6078 13.1701 42.6078 13.6019C42.6078 14.1102 42.1482 14.4198 41.7314 14.4618C41.3068 14.5039 40.8667 14.0453 40.8628 13.6096Z" fill="#1A1F18"/>
<path d="M28.9365 1.68525C28.4846 1.68525 28.0718 1.26868 28.0873 0.821527C28.1068 0.309409 28.508 0.0380633 28.952 -0.000154418C29.4155 -0.0383722 29.8557 0.408776 29.8206 0.863567C29.7856 1.32218 29.474 1.66996 28.9365 1.68143V1.68525Z" fill="#1A1F18"/>
<path d="M31.5191 4.30299C31.9554 4.23802 32.3877 4.66224 32.3682 5.13232C32.3449 5.57947 31.9865 5.93489 31.5035 5.93871C31.0556 5.93871 30.5609 5.50303 30.6155 5.10557C30.6661 4.73485 30.9543 4.23802 31.5191 4.30299Z" fill="#1A1F18"/>
<path d="M42.6037 30.6358C42.6037 31.1097 42.1479 31.4919 41.7156 31.469C41.2404 31.446 40.8587 31.1288 40.8704 30.6091C40.8821 30.074 41.2949 29.7797 41.7429 29.7759C42.1479 29.7721 42.6231 30.1543 42.6037 30.6358Z" fill="#1A1F18"/>
<path d="M28.0833 43.3766C28.0833 42.9371 28.5 42.5397 28.9596 42.5435C29.466 42.5473 29.801 42.9295 29.8165 43.3843C29.8321 43.8276 29.3998 44.2556 28.9518 44.2251C28.4922 44.1945 28.0871 43.862 28.0833 43.3728V43.3766Z" fill="#1A1F18"/>
<path d="M31.4991 39.9264C31.2693 39.9569 31.0668 39.8767 30.8954 39.7009C30.7279 39.5327 30.6228 39.3149 30.615 39.097C30.6033 38.6843 31.0551 38.2983 31.503 38.2945C31.9782 38.2906 32.3444 38.6499 32.3677 39.097C32.3911 39.5136 31.9938 39.9875 31.4991 39.9264Z" fill="#1A1F18"/>
<path d="M21.2827 39.9301C20.8815 39.9912 20.4336 39.6244 20.4297 39.1275C20.4258 38.6727 20.8075 38.2867 21.2905 38.2906C21.828 38.2906 22.1513 38.7186 22.1513 39.1084C22.1513 39.5288 21.8125 39.9836 21.2827 39.9301Z" fill="#1A1F18"/>
<path d="M24.714 43.3624C24.7101 43.8898 24.305 44.1841 23.8649 44.2262C23.4287 44.2682 22.9729 43.8325 22.9768 43.4007C22.9768 42.9573 23.3741 42.5293 23.8571 42.5408C24.3011 42.5522 24.714 42.9382 24.714 43.3624Z" fill="#1A1F18"/>
<path d="M23.8531 1.68589C23.4013 1.70499 22.9923 1.29224 22.9767 0.852738C22.9612 0.417056 23.3818 -0.0109832 23.8414 0.00430387C24.2816 0.0157692 24.7217 0.359729 24.7178 0.871847C24.7139 1.29989 24.301 1.68971 23.857 1.68971L23.8531 1.68589Z" fill="#1A1F18"/>
<path d="M18.7506 1.68533C18.3456 1.72737 17.8587 1.28404 17.8626 0.829253C17.8626 0.408858 18.3261 -0.0344677 18.7584 -7.16969e-05C19.218 0.0381461 19.6075 0.34771 19.6037 0.833075C19.6037 1.28787 19.2103 1.68151 18.7506 1.68533Z" fill="#1A1F18"/>
<path d="M21.2742 5.93929C20.7718 5.94311 20.4134 5.51125 20.4329 5.08321C20.4563 4.57874 20.8029 4.30739 21.3872 4.29593C21.7416 4.29211 22.1779 4.66282 22.1506 5.14054C22.1233 5.59915 21.7689 5.9584 21.2742 5.93929Z" fill="#1A1F18"/>
<path d="M11.0968 4.30322C11.5486 4.30322 11.9888 4.70451 11.9654 5.11726C11.9459 5.44211 11.6265 5.94659 11.0851 5.93894C10.6333 5.93512 10.2048 5.53383 10.2048 5.10197C10.2048 4.63954 10.5827 4.30322 11.0968 4.30322Z" fill="#1A1F18"/>
<path d="M49.3809 18.6927C48.8629 18.6927 48.5201 18.2303 48.5045 17.8443C48.4889 17.4583 48.9758 17.015 49.3809 17.0035C49.821 16.9959 50.2534 17.4163 50.2573 17.8481C50.2573 18.28 49.8288 18.6927 49.3848 18.6927H49.3809Z" fill="#1A1F18"/>
<path d="M3.40021 18.6926C2.93281 18.6811 2.57836 18.2837 2.57446 17.7945C2.57446 17.2862 3.04187 17.0339 3.43137 17.011C3.84424 16.9881 4.3467 17.4887 4.30775 17.8709C4.25712 18.3486 3.78582 18.7461 3.40021 18.6926Z" fill="#1A1F18"/>
<path d="M33.2126 0.863436C33.1697 0.316922 33.6644 0.0188234 34.0773 0.00353629C34.5135 -0.0155726 34.9381 0.42011 34.9342 0.840505C34.9264 1.31058 34.4473 1.70423 34.0617 1.68894C33.6138 1.67365 33.2165 1.29912 33.2165 0.863436H33.2126Z" fill="#1A1F18"/>
<path d="M11.0698 39.9298C10.5712 39.9298 10.2012 39.5782 10.2012 39.1043C10.2012 38.6877 10.6296 38.2941 11.0737 38.2979C11.5138 38.2979 11.95 38.6953 11.9617 39.1119C11.9734 39.5132 11.5177 39.9336 11.0659 39.9336L11.0698 39.9298Z" fill="#1A1F18"/>
<path d="M14.482 9.37891C14.5131 9.84517 14.0613 10.1891 13.5939 10.17C13.0875 10.1509 12.7643 9.76491 12.7759 9.32158C12.7876 8.84386 13.1771 8.50754 13.6757 8.52665C14.1509 8.54576 14.4975 8.90119 14.4859 9.37891H14.482Z" fill="#1A1F18"/>
<path d="M18.7548 42.5443C19.2028 42.5443 19.604 42.9418 19.6001 43.3775C19.6001 43.8361 19.195 44.2374 18.7354 44.2336C18.2913 44.2297 17.8512 43.8017 17.859 43.3698C17.8707 42.9342 18.342 42.5023 18.751 42.5443H18.7548Z" fill="#1A1F18"/>
<path d="M33.2131 43.37C33.2131 42.9343 33.6143 42.5636 34.0545 42.5407C34.4595 42.5216 34.9347 42.9381 34.9347 43.3815C34.9347 43.8171 34.4985 44.2605 34.0584 44.2261C33.6611 44.1955 33.1781 43.9242 33.217 43.37H33.2131Z" fill="#1A1F18"/>
<path d="M44.2672 18.6927C43.7959 18.6927 43.4375 18.3143 43.4414 17.8328C43.4414 17.4009 43.8504 16.9996 44.2867 17.0034C44.719 17.0073 45.1436 17.4162 45.1475 17.8328C45.1475 18.2952 44.7424 18.6965 44.2711 18.6927H44.2672Z" fill="#1A1F18"/>
<path d="M14.4858 34.8658C14.4858 35.3473 14.1236 35.6913 13.6289 35.7028C13.1654 35.7104 12.7681 35.3588 12.772 34.8887C12.772 34.4339 13.107 34.0556 13.6367 34.0518C14.0807 34.0518 14.5053 34.3843 14.4858 34.8658Z" fill="#1A1F18"/>
<path d="M0.887711 21.311C1.39017 21.311 1.70567 21.6282 1.70567 22.125C1.70567 22.6219 1.37459 22.9047 0.840971 22.9276C0.330721 22.9505 -0.00814681 22.4996 -0.000356738 22.1059C0.00743333 21.7237 0.326826 21.2384 0.887711 21.311Z" fill="#1A1F18"/>
<path d="M38.3271 9.35587C38.3271 8.85904 38.6699 8.5189 39.1802 8.53419C39.6748 8.54565 40.0176 8.82464 40.0215 9.37498C40.0215 9.87181 39.6164 10.1814 39.1607 10.1699C38.6543 10.1584 38.3271 9.84888 38.3271 9.35587Z" fill="#1A1F18"/>
<path d="M41.7351 4.30322C42.2141 4.30322 42.6037 4.66629 42.6037 5.10962C42.6037 5.52619 42.1479 5.9313 41.7078 5.94276C41.2326 5.95423 40.8392 5.44211 40.8353 5.11344C40.8275 4.70069 41.2793 4.30322 41.739 4.30704L41.7351 4.30322Z" fill="#1A1F18"/>
<path d="M38.3276 34.8621C38.2536 34.4799 38.6587 34.0442 39.1689 34.0519C39.6208 34.0595 40.018 34.35 40.0219 34.8621C40.0219 35.4506 39.5584 35.7029 39.1689 35.699C38.6704 35.6952 38.3276 35.3551 38.3276 34.8621Z" fill="#1A1F18"/>
<path d="M7.68896 17.8519C7.68896 17.4086 8.08236 16.9882 8.51471 17.0112C8.91201 17.0303 9.37551 17.3131 9.37162 17.829C9.37162 18.3297 9.01328 18.6927 8.51471 18.6927C8.07068 18.6927 7.68896 18.3029 7.68896 17.8519Z" fill="#1A1F18"/>
<path d="M14.4699 0.867642C14.4699 1.29568 14.0687 1.68168 13.6286 1.6855C13.2624 1.68932 12.7989 1.39505 12.7716 0.863821C12.7522 0.428138 13.1728 -0.00754443 13.6208 9.91249e-05C14.0142 0.0039209 14.5556 0.36699 14.4699 0.867642Z" fill="#1A1F18"/>
<path d="M50.2539 26.3824C50.2422 26.8371 49.8294 27.2231 49.3658 27.2002C48.8283 27.1696 48.4856 26.7187 48.5089 26.3403C48.5323 25.9161 48.9335 25.5072 49.4204 25.5377C49.8605 25.5645 50.2617 25.9543 50.2539 26.3862V26.3824Z" fill="#1A1F18"/>
<path d="M41.7042 39.9297C41.2718 39.9297 40.8161 39.5131 40.8317 39.1195C40.8434 38.787 41.2407 38.2749 41.7081 38.294C42.1599 38.3131 42.6039 38.7106 42.6 39.1233C42.6 39.5628 42.1872 39.9335 41.7003 39.9297H41.7042Z" fill="#1A1F18"/>
<path d="M39.9942 0.832821C39.9942 1.32965 39.6515 1.68508 39.1685 1.68508C38.7283 1.68508 38.3544 1.29143 38.3194 0.859573C38.2804 0.397139 38.7595 0.00731747 39.1685 -0.00414786C39.6164 -0.0156132 39.9942 0.374208 39.9942 0.828999V0.832821Z" fill="#1A1F18"/>
<path d="M2.57881 26.3784C2.57881 25.9083 2.95663 25.5414 3.43183 25.5376C3.95765 25.5338 4.28873 25.9542 4.30042 26.3555C4.3121 26.7873 3.9226 27.1963 3.42014 27.1925C2.93716 27.1925 2.53986 26.8332 2.57881 26.3746V26.3784Z" fill="#1A1F18"/>
<path d="M51.9477 21.3097C52.4658 21.2485 52.8046 21.711 52.8124 22.1046C52.8202 22.4944 52.4852 22.9301 51.9399 22.9339C51.4725 22.9378 51.0713 22.4906 51.083 22.1237C51.0947 21.6345 51.4297 21.3097 51.9477 21.3097Z" fill="#1A1F18"/>
<path d="M7.68919 9.34862C7.68919 8.85561 8.01637 8.53076 8.51494 8.53076C9.04077 8.53076 9.329 8.85561 9.36405 9.3792C9.39132 9.79959 8.94729 10.1703 8.53052 10.1703C8.03195 10.1703 7.60739 9.75755 7.68529 9.3448L7.68919 9.34862Z" fill="#1A1F18"/>
<path d="M9.35617 34.8697C9.35617 35.3742 9.0251 35.699 8.51485 35.699C8.01239 35.699 7.71247 35.3627 7.67741 34.8544C7.65015 34.457 8.02797 34.0442 8.52653 34.0519C8.96667 34.0595 9.42239 34.4035 9.35228 34.8697H9.35617Z" fill="#1A1F18"/>
<path d="M14.4702 43.3775C14.5443 43.8591 14.034 44.2183 13.625 44.226C13.1849 44.2374 12.772 43.8209 12.7759 43.3814C12.7798 42.8539 13.2277 42.5367 13.6406 42.5406C14.0807 42.5444 14.4702 42.9342 14.4702 43.3737V43.3775Z" fill="#1A1F18"/>
<path d="M7.68879 26.3665C7.68879 25.8964 8.04324 25.541 8.51454 25.541C9.02868 25.541 9.36365 25.8812 9.37534 26.3895C9.38702 26.9245 8.90015 27.1997 8.51843 27.1958C8.12114 27.1958 7.62257 26.8633 7.69268 26.3665H7.68879Z" fill="#1A1F18"/>
<path d="M44.2902 25.5376C44.7498 25.5376 45.151 25.9274 45.1354 26.3937C45.1199 26.9173 44.7343 27.181 44.2708 27.2001C43.8267 27.2192 43.4567 26.8255 43.4333 26.3937C43.4022 25.8128 43.8851 25.5376 44.2902 25.5376Z" fill="#1A1F18"/>
<path d="M45.1049 9.36355C45.1945 9.79923 44.7037 10.1852 44.2792 10.1699C43.8351 10.1547 43.4417 9.86803 43.4339 9.39413C43.4262 8.79411 43.8312 8.53805 44.2714 8.5304C44.7816 8.52276 45.1049 8.85143 45.1049 9.35973V9.36355Z" fill="#1A1F18"/>
<path d="M45.1051 34.8621C45.1051 35.378 44.7818 35.722 44.2754 35.6952C43.7418 35.6685 43.438 35.401 43.438 34.8353C43.438 34.3309 43.8548 34.0557 44.2793 34.0519C44.7234 34.0442 45.1946 34.4073 45.109 34.8621H45.1051Z" fill="#1A1F18"/>
<path d="M39.9948 43.3805C39.9948 43.8391 39.6365 44.2404 39.1846 44.2289C38.764 44.2175 38.3044 43.8582 38.3238 43.4111C38.3433 42.9525 38.7094 42.5474 39.1535 42.5474C39.6443 42.5474 39.9909 42.8913 39.9948 43.3805Z" fill="#1A1F18"/>
</g>
<path d="M67.7756 20.313H65.313L70.2011 6.77816H72.6267L77.5148 20.313H75.0152L73.9228 17.1839H68.868L67.7756 20.313ZM71.1084 10.8145L69.5716 15.1842H73.2377L71.6824 10.8145C71.5713 10.4627 71.4417 10.0554 71.4046 9.77767C71.3491 10.0369 71.238 10.4442 71.1084 10.8145ZM80.0081 9.33329C79.2305 9.33329 78.6195 8.72228 78.6195 7.96315C78.6195 7.20401 79.2305 6.61152 80.0081 6.61152C80.7488 6.61152 81.3598 7.20401 81.3598 7.96315C81.3598 8.72228 80.7488 9.33329 80.0081 9.33329ZM78.8787 20.313V11.1663H81.1376V20.313H78.8787ZM87.5546 11.1663H88.8692V10.0554C88.8692 7.57432 90.1838 6.53745 92.165 6.53745C92.5168 6.53745 92.9427 6.55597 93.3315 6.63003V8.55564H92.5353C91.3874 8.55564 91.1096 9.14814 91.1096 10.0554V11.1663H93.2945V13.0549H91.1096V20.313H88.8692V13.0549H87.5546V11.1663ZM93.928 15.7211C93.928 12.8698 95.9833 10.9071 98.8161 10.9071C101.649 10.9071 103.704 12.8698 103.704 15.7211C103.704 18.5725 101.649 20.5352 98.8161 20.5352C95.9833 20.5352 93.928 18.5725 93.928 15.7211ZM96.1869 15.7211C96.1869 17.3875 97.2608 18.517 98.8161 18.517C100.371 18.517 101.445 17.3875 101.445 15.7211C101.445 14.0547 100.371 12.9253 98.8161 12.9253C97.2608 12.9253 96.1869 14.0547 96.1869 15.7211ZM111.235 11.1293V13.2216H110.401C108.772 13.2216 107.754 14.0918 107.754 15.8693V20.313H105.495V11.1848H107.624L107.754 12.518C108.142 11.6107 109.013 10.9997 110.235 10.9997C110.549 10.9997 110.864 11.0367 111.235 11.1293ZM123.809 20.5352C119.865 20.5352 117.31 17.7949 117.31 13.5548C117.31 9.35181 119.957 6.55597 123.92 6.55597C127.123 6.55597 129.511 8.42604 129.974 11.333H127.475C127.012 9.75915 125.66 8.83338 123.864 8.83338C121.365 8.83338 119.791 10.6479 119.791 13.5363C119.791 16.4062 121.383 18.2578 123.864 18.2578C125.697 18.2578 127.104 17.295 127.549 15.7952H130.011C129.493 18.6466 127.012 20.5352 123.809 20.5352ZM133.99 20.313H131.75V6.53745H133.99V20.313ZM137.489 9.33329C136.712 9.33329 136.101 8.72228 136.101 7.96315C136.101 7.20401 136.712 6.61152 137.489 6.61152C138.23 6.61152 138.841 7.20401 138.841 7.96315C138.841 8.72228 138.23 9.33329 137.489 9.33329ZM136.36 20.313V11.1663H138.619V20.313H136.36ZM143.212 20.313H140.953V11.1663H143.026L143.212 12.2402C143.674 11.4811 144.6 10.8886 145.915 10.8886C147.303 10.8886 148.266 11.5737 148.748 12.6291C149.211 11.5737 150.284 10.8886 151.673 10.8886C153.895 10.8886 155.117 12.2217 155.117 14.3325V20.313H152.877V14.925C152.877 13.6104 152.173 12.9253 151.099 12.9253C150.007 12.9253 149.174 13.6289 149.174 15.1286V20.313H146.915V14.9065C146.915 13.6289 146.23 12.9438 145.156 12.9438C144.082 12.9438 143.212 13.6474 143.212 15.1286V20.313ZM160.056 20.5537C158.112 20.5537 156.927 19.4242 156.927 17.7023C156.927 16.0174 158.149 14.962 160.316 14.7954L163.056 14.5917V14.388C163.056 13.1475 162.315 12.6476 161.167 12.6476C159.834 12.6476 159.093 13.203 159.093 14.1658H157.168C157.168 12.1847 158.797 10.8886 161.278 10.8886C163.741 10.8886 165.259 12.2217 165.259 14.7583V20.313H163.278L163.111 18.9614C162.723 19.9056 161.482 20.5537 160.056 20.5537ZM160.797 18.8503C162.186 18.8503 163.074 18.0171 163.074 16.6099V16.1285L161.167 16.2766C159.76 16.4062 159.223 16.8691 159.223 17.6097C159.223 18.4429 159.779 18.8503 160.797 18.8503ZM170.462 20.313H168.203V13.0549H166.444V11.1663H168.203V8.31494H170.462V11.1663H172.24V13.0549H170.462V20.313ZM177.646 20.5537C174.924 20.5537 173.017 18.5725 173.017 15.7397C173.017 12.8698 174.887 10.8886 177.572 10.8886C180.312 10.8886 182.052 12.7216 182.052 15.573V16.2581L175.165 16.2766C175.331 17.8875 176.183 18.7021 177.683 18.7021C178.923 18.7021 179.738 18.2207 179.997 17.3505H182.089C181.7 19.3502 180.034 20.5537 177.646 20.5537ZM177.59 12.7401C176.257 12.7401 175.442 13.4623 175.22 14.8324H179.812C179.812 13.5733 178.942 12.7401 177.59 12.7401ZM68.9976 36.5537C67.0535 36.5537 65.8685 35.4242 65.8685 33.7023C65.8685 32.0174 67.0905 30.962 69.2568 30.7954L71.9971 30.5917V30.388C71.9971 29.1475 71.2565 28.6476 70.1086 28.6476C68.7754 28.6476 68.0348 29.203 68.0348 30.1658H66.1092C66.1092 28.1847 67.7386 26.8886 70.2197 26.8886C72.6822 26.8886 74.2005 28.2217 74.2005 30.7583V36.313H72.2193L72.0527 34.9614C71.6639 35.9056 70.4233 36.5537 68.9976 36.5537ZM69.7383 34.8503C71.1269 34.8503 72.0157 34.0171 72.0157 32.6099V32.1285L70.1086 32.2766C68.7014 32.4062 68.1644 32.8691 68.1644 33.6097C68.1644 34.4429 68.7199 34.8503 69.7383 34.8503ZM78.6785 36.313H76.4196V27.1663H78.5119L78.697 28.3513C79.271 27.4255 80.3819 26.8886 81.6225 26.8886C83.9184 26.8886 85.1034 28.3143 85.1034 30.6843V36.313H82.8445V31.2212C82.8445 29.6844 82.0853 28.9438 80.9189 28.9438C79.5302 28.9438 78.6785 29.9066 78.6785 31.3879V36.313ZM91.0814 36.5537C88.4337 36.5537 86.7858 34.6096 86.7858 31.7767C86.7858 28.9253 88.4522 26.8886 91.211 26.8886C92.4886 26.8886 93.618 27.4255 94.192 28.3328V22.5375H96.4324V36.313H94.3587L94.2105 34.8873C93.6551 35.9427 92.4701 36.5537 91.0814 36.5537ZM91.5813 34.48C93.1552 34.48 94.1735 33.3505 94.1735 31.7026C94.1735 30.0547 93.1552 28.9068 91.5813 28.9068C90.0075 28.9068 89.0447 30.0733 89.0447 31.7026C89.0447 33.332 90.0075 34.48 91.5813 34.48ZM104.11 36.313V22.7782H109.498C112.165 22.7782 113.794 24.1668 113.794 26.4257C113.794 27.9255 113.127 28.9994 111.85 29.5363C113.275 29.9992 113.998 31.0731 113.998 32.6469C113.998 34.9614 112.387 36.313 109.591 36.313H104.11ZM109.295 24.8704H106.48V28.555H109.35C110.646 28.555 111.368 27.8699 111.368 26.6664C111.368 25.4999 110.628 24.8704 109.295 24.8704ZM109.498 30.5547H106.48V34.2207H109.498C110.831 34.2207 111.572 33.5727 111.572 32.3507C111.572 31.2027 110.813 30.5547 109.498 30.5547ZM116.967 25.3333C116.189 25.3333 115.578 24.7223 115.578 23.9631C115.578 23.204 116.189 22.6115 116.967 22.6115C117.707 22.6115 118.318 23.204 118.318 23.9631C118.318 24.7223 117.707 25.3333 116.967 25.3333ZM115.837 36.313V27.1663H118.096V36.313H115.837ZM119.893 31.7211C119.893 28.8698 121.948 26.9071 124.781 26.9071C127.614 26.9071 129.669 28.8698 129.669 31.7211C129.669 34.5725 127.614 36.5352 124.781 36.5352C121.948 36.5352 119.893 34.5725 119.893 31.7211ZM122.152 31.7211C122.152 33.3875 123.226 34.517 124.781 34.517C126.337 34.517 127.41 33.3875 127.41 31.7211C127.41 30.0547 126.337 28.9253 124.781 28.9253C123.226 28.9253 122.152 30.0547 122.152 31.7211ZM135.218 36.5537C132.571 36.5537 130.923 34.6096 130.923 31.7767C130.923 28.9253 132.589 26.8886 135.348 26.8886C136.626 26.8886 137.755 27.4255 138.329 28.3328V22.5375H140.569V36.313H138.496L138.348 34.8873C137.792 35.9427 136.607 36.5537 135.218 36.5537ZM135.718 34.48C137.292 34.48 138.311 33.3505 138.311 31.7026C138.311 30.0547 137.292 28.9068 135.718 28.9068C134.145 28.9068 133.182 30.0733 133.182 31.7026C133.182 33.332 134.145 34.48 135.718 34.48ZM144.053 25.3333C143.275 25.3333 142.664 24.7223 142.664 23.9631C142.664 23.204 143.275 22.6115 144.053 22.6115C144.794 22.6115 145.405 23.204 145.405 23.9631C145.405 24.7223 144.794 25.3333 144.053 25.3333ZM142.924 36.313V27.1663H145.182V36.313H142.924ZM150.108 36.313L146.479 27.1663H148.886L150.479 31.3693C150.868 32.4618 151.182 33.4061 151.293 33.906C151.423 33.332 151.756 32.3692 152.145 31.3693L153.812 27.1663H156.144L152.33 36.313H150.108ZM161.083 36.5537C158.361 36.5537 156.454 34.5725 156.454 31.7397C156.454 28.8698 158.324 26.8886 161.009 26.8886C163.749 26.8886 165.49 28.7216 165.49 31.573V32.2581L158.602 32.2766C158.768 33.8875 159.62 34.7021 161.12 34.7021C162.36 34.7021 163.175 34.2207 163.434 33.3505H165.527C165.138 35.3502 163.471 36.5537 161.083 36.5537ZM161.027 28.7401C159.694 28.7401 158.88 29.4623 158.657 30.8324H163.249C163.249 29.5733 162.379 28.7401 161.027 28.7401ZM173.037 27.1293V29.2216H172.204C170.575 29.2216 169.556 30.0918 169.556 31.8693V36.313H167.297V27.1848H169.427L169.556 28.518C169.945 27.6107 170.815 26.9997 172.037 26.9997C172.352 26.9997 172.667 27.0367 173.037 27.1293ZM173.863 33.5357H176.01C176.029 34.3318 176.621 34.8317 177.658 34.8317C178.714 34.8317 179.288 34.4059 179.288 33.7393C179.288 33.2764 179.047 32.9432 178.232 32.758L176.584 32.3692C174.937 31.9989 174.14 31.2212 174.14 29.7585C174.14 27.9625 175.659 26.8886 177.769 26.8886C179.825 26.8886 181.213 28.0736 181.232 29.8511H179.084C179.066 29.0734 178.547 28.5735 177.677 28.5735C176.788 28.5735 176.27 28.9808 176.27 29.6659C176.27 30.1844 176.677 30.5176 177.455 30.7028L179.103 31.0916C180.639 31.4434 181.417 32.147 181.417 33.5542C181.417 35.4057 179.843 36.5537 177.584 36.5537C175.307 36.5537 173.863 35.3317 173.863 33.5357ZM184.266 25.3333C183.489 25.3333 182.878 24.7223 182.878 23.9631C182.878 23.204 183.489 22.6115 184.266 22.6115C185.007 22.6115 185.618 23.204 185.618 23.9631C185.618 24.7223 185.007 25.3333 184.266 25.3333ZM183.137 36.313V27.1663H185.396V36.313H183.137ZM190.84 36.313H188.581V29.0549H186.822V27.1663H188.581V24.3149H190.84V27.1663H192.618V29.0549H190.84V36.313ZM193.226 40.553V38.6645H194.577C195.466 38.6645 196.022 38.4608 196.41 37.3869L196.67 36.7018L192.985 27.1663H195.374L197.725 33.8319L200.206 27.1663H202.539L198.058 38.3497C197.373 40.0531 196.41 40.7567 194.911 40.7567C194.281 40.7567 193.726 40.6826 193.226 40.553Z" fill="url(#paint0_linear_71_2756)"/>
<defs>
<linearGradient id="paint0_linear_71_2756" x1="65.1094" y1="25.7543" x2="203.976" y2="25.7543" gradientUnits="userSpaceOnUse">
<stop/>
</linearGradient>
<clipPath id="clip0_71_2756">
<rect width="52.8128" height="44.2332" fill="white"/>
</clipPath>
</defs>
</svg>
