<svg width="212" height="38" viewBox="0 0 212 38" fill="none" xmlns="http://www.w3.org/2000/svg">
<path d="M3.62012 27.9353C4.10917 27.8681 5.83077 27.8768 6.22363 28.0515L6.21875 28.0564C6.39658 28.1384 8.88005 30.5967 9.03516 30.8288C9.43697 31.4349 9.49938 33.3014 9.29199 33.9988C9.07959 34.715 6.63858 36.3646 6.22363 37.2458H3.1123L0 34.1443V31.0417C1.07882 30.4509 2.50672 28.0805 3.62012 27.9353ZM11.4512 32.1355C11.1707 31.192 12.5109 29.1071 13.6045 30.0017C14.461 30.6547 17.9167 34.7044 18.584 34.7732C18.8843 34.8018 18.9916 34.7005 19.209 34.57C20.5061 33.8052 22.2672 31.0177 23.666 30.1267C25.055 29.2407 26.0958 31.0224 25.834 32.282L20.9609 37.2409H16.3975C15.7775 36.0503 11.7179 33.0453 11.4512 32.1355ZM31.124 28.0554C31.6368 27.8193 33.8478 27.8568 34.3467 28.1433L34.3564 28.1384C34.5255 28.2403 37.0516 30.7615 37.1533 30.9304C37.4388 31.4246 37.4724 33.6218 37.2402 34.1394C36.8773 34.9228 34.7049 36.2779 34.2363 37.2409H31.124C30.6547 36.2828 28.4774 34.9278 28.1191 34.1394C27.9403 33.7472 27.9204 31.617 28.0518 31.1921C28.114 30.9837 30.9254 28.1483 31.124 28.0554ZM4.50879 29.823C4.23671 29.8968 1.88852 32.3126 1.87695 32.5847C1.8572 33.1942 4.04904 35.3918 4.67871 35.3777L4.68359 35.3728C5.01258 35.3629 7.48535 32.9236 7.48535 32.5847C7.12115 31.9854 5.05599 29.6817 4.50879 29.823ZM33.1025 29.9968C32.8951 29.8615 32.8021 29.7498 32.5127 29.8269C32.2543 29.8921 29.8723 32.327 29.8701 32.5896C30.1753 33.1605 32.2555 35.3622 32.6719 35.3777C33.2814 35.3915 35.4885 33.214 35.4736 32.5847C35.4621 32.3264 33.4363 30.219 33.1025 29.9968ZM150.117 30.6853C150.307 30.6823 150.495 30.7181 150.67 30.7907C150.818 30.8502 150.945 30.9508 151.037 31.0808C151.127 31.21 151.174 31.364 151.173 31.5212C151.172 31.6394 151.147 31.7564 151.101 31.865C151.056 31.9707 150.987 32.0645 150.897 32.1365C150.806 32.2069 150.7 32.2558 150.587 32.281C150.713 32.2984 150.832 32.3506 150.931 32.4314L150.936 32.4363C151.034 32.5152 151.112 32.617 151.163 32.7322C151.216 32.8572 151.243 32.9919 151.241 33.1277C151.247 33.3082 151.196 33.4864 151.096 33.6365C150.991 33.7849 150.847 33.9007 150.68 33.9704C150.501 34.0475 150.288 34.0866 150.041 34.0866C149.804 34.0866 149.595 34.0524 149.416 33.9753C149.237 33.9016 149.087 33.7914 148.967 33.6452L149.319 33.2107C149.4 33.3056 149.499 33.3848 149.609 33.4431C149.74 33.5001 149.883 33.5281 150.025 33.5251C150.214 33.5251 150.354 33.4867 150.456 33.4099C150.553 33.3282 150.602 33.2095 150.602 33.0554C150.601 32.8906 150.549 32.7604 150.433 32.6736C150.316 32.5867 150.147 32.5378 149.915 32.5378H149.784V32.0691H149.929C150.112 32.0691 150.258 32.0248 150.364 31.9372C150.415 31.8988 150.455 31.849 150.482 31.7917C150.509 31.7345 150.522 31.6713 150.52 31.6081C150.522 31.5339 150.504 31.4604 150.467 31.3962C150.429 31.3383 150.374 31.2943 150.302 31.2654C150.23 31.2357 150.148 31.2214 150.056 31.2214C149.922 31.2195 149.79 31.2528 149.673 31.3181C149.558 31.3843 149.463 31.4792 149.396 31.5935L149.01 31.1589C149.08 31.0592 149.172 30.975 149.276 30.9118C149.389 30.8382 149.518 30.7814 149.663 30.7419C149.808 30.7038 149.959 30.6853 150.117 30.6853ZM164.211 0.0173116V34.0866H163.795V0.0173116H164.211ZM173.403 30.0837C173.559 30.0821 173.713 30.1037 173.862 30.1472C174.005 30.1923 174.142 30.2553 174.27 30.3347C174.397 30.4187 174.501 30.5342 174.57 30.6697C174.644 30.8188 174.684 30.9821 174.69 31.1482H174.245C174.238 31.0557 174.211 30.9657 174.168 30.8835C174.125 30.8014 174.066 30.7284 173.994 30.6697C173.849 30.5473 173.646 30.4858 173.384 30.4851C173.139 30.4864 172.939 30.5432 172.784 30.655C172.629 30.7703 172.552 30.9303 172.552 31.1345C172.552 31.4189 172.735 31.6139 173.089 31.7058L173.747 31.8796V31.8747C174.061 31.9617 174.304 32.0839 174.474 32.2419C174.641 32.4013 174.724 32.6198 174.724 32.8962C174.724 33.2542 174.594 33.5295 174.333 33.7224C174.072 33.916 173.737 34.0134 173.331 34.0134C173.103 34.0134 172.896 33.975 172.716 33.9118C172.537 33.8486 172.402 33.7568 172.3 33.6501C172.198 33.5389 172.122 33.4226 172.072 33.3015C172.024 33.1811 171.995 33.0548 171.995 32.9245H172.44C172.451 33.0217 172.481 33.116 172.529 33.2009C172.578 33.2857 172.643 33.3601 172.721 33.4187C172.885 33.5483 173.109 33.6127 173.394 33.612C173.659 33.6107 173.873 33.5494 174.037 33.4284C174.201 33.302 174.279 33.132 174.279 32.9245C174.279 32.7645 174.231 32.6386 174.129 32.5368C174.027 32.4402 173.867 32.3587 173.655 32.3054L172.982 32.1267C172.731 32.0642 172.523 31.9525 172.358 31.7927C172.193 31.6327 172.116 31.4198 172.116 31.1531C172.113 30.9427 172.179 30.737 172.305 30.5681C172.427 30.3995 172.585 30.277 172.779 30.1999C172.973 30.1229 173.176 30.0837 173.403 30.0837ZM176.038 30.1765V32.6296C176.038 32.9286 176.125 33.1679 176.299 33.3464C176.474 33.5251 176.721 33.6129 177.01 33.613C177.3 33.613 177.543 33.5252 177.718 33.3464C177.897 33.1716 177.983 32.925 177.983 32.6296H177.979V30.1765H178.419V32.6296C178.419 33.0406 178.293 33.3747 178.031 33.6316C177.772 33.8864 177.431 34.0141 177.01 34.0134C176.734 34.0134 176.488 33.9609 176.275 33.8454C176.061 33.7289 175.894 33.564 175.776 33.3513C175.66 33.1386 175.603 32.8961 175.603 32.6247V30.1765H176.038ZM180.61 30.0837C180.766 30.0821 180.92 30.1037 181.069 30.1472C181.212 30.1923 181.349 30.2553 181.477 30.3347C181.603 30.4188 181.707 30.5343 181.776 30.6697C181.85 30.8188 181.891 30.982 181.897 31.1482H181.452C181.444 31.0557 181.418 30.9656 181.375 30.8835C181.332 30.8014 181.272 30.7284 181.2 30.6697C181.055 30.5472 180.852 30.4858 180.591 30.4851C180.345 30.4864 180.145 30.5432 179.991 30.655C179.836 30.7703 179.759 30.9303 179.759 31.1345C179.759 31.4189 179.942 31.6139 180.295 31.7058L180.954 31.8796V31.8747C181.268 31.9616 181.509 32.084 181.679 32.2419C181.847 32.4013 181.931 32.6196 181.931 32.8962C181.931 33.2542 181.8 33.5295 181.539 33.7224C181.278 33.916 180.944 34.0134 180.537 34.0134C180.31 34.0134 180.102 33.975 179.923 33.9118C179.744 33.8486 179.609 33.7568 179.507 33.6501C179.405 33.5389 179.329 33.4226 179.279 33.3015C179.231 33.1811 179.201 33.0548 179.201 32.9245H179.646C179.657 33.0217 179.687 33.1159 179.735 33.2009C179.784 33.2859 179.85 33.36 179.928 33.4187C180.092 33.5483 180.316 33.6127 180.601 33.612C180.866 33.6107 181.08 33.5495 181.243 33.4284C181.408 33.302 181.485 33.132 181.485 32.9245C181.485 32.7645 181.437 32.6386 181.336 32.5368C181.234 32.4402 181.074 32.3587 180.862 32.3054L180.189 32.1267C179.938 32.0642 179.73 31.9525 179.565 31.7927C179.4 31.6327 179.323 31.4198 179.323 31.1531C179.32 30.9427 179.386 30.737 179.512 30.5681C179.633 30.3997 179.791 30.277 179.985 30.1999C180.179 30.1229 180.383 30.0837 180.61 30.0837ZM135.755 30.7663V32.7507H136.162V33.3074H135.755V33.9997H135.136V33.3074H133.785V32.7556L135.334 30.7663H135.755ZM200.981 30.1814C201.292 30.1814 201.543 30.2586 201.731 30.4275C201.921 30.5901 202.016 30.8163 202.017 31.1052C202.017 31.3225 201.964 31.507 201.857 31.6433C201.744 31.7838 201.59 31.8862 201.417 31.9372V31.9519C201.54 31.9718 201.659 32.0101 201.771 32.0642C201.869 32.112 201.956 32.1794 202.026 32.2624L202.021 32.2663C202.092 32.3482 202.145 32.4436 202.177 32.5466C202.215 32.6533 202.23 32.7708 202.23 32.8913C202.229 33.2263 202.109 33.4863 201.871 33.6706C201.633 33.8502 201.316 33.9405 200.918 33.9411H199.587V30.1814H200.981ZM185.192 30.1765V30.5681H184.04V33.9372H183.604V30.5681H182.449V30.1765H185.192ZM195.402 30.1765V30.5681H194.251V33.9372H193.811V30.5681H192.654V30.1765H195.402ZM188.145 30.1765V30.5769H186.354V31.8132H188.043V32.2156H186.354V33.5407H188.145V33.9363H185.908V30.1765H188.145ZM189.559 30.1765L191.48 33.1814H191.504V30.1765H191.935V33.9363H191.504L189.573 30.9265H189.559V33.9363H189.113V30.1765H189.559ZM197.509 30.1765L198.859 33.9363H198.38L197.993 32.78H196.57L196.183 33.9363H195.732L197.088 30.1765H197.509ZM203.586 30.1765V33.5407H205.337V33.9363H203.141V30.1765H203.586ZM208.283 30.1765V30.5769H206.493V31.8132H208.182V32.2156H206.493V33.5407H208.283V33.9363H206.048V30.1765H208.283ZM97.3877 30.8825C97.5184 30.8815 97.649 30.8973 97.7754 30.9304C97.8929 30.962 98.0079 31.0032 98.1191 31.0525C98.2208 31.0958 98.3179 31.1493 98.4092 31.2116L98.1572 31.6716C98.1361 31.6506 98.1007 31.6244 98.0508 31.5935C98.0014 31.5639 97.9402 31.5317 97.8672 31.4968C97.7116 31.4225 97.5415 31.3835 97.3691 31.3816C97.2474 31.3747 97.1264 31.4032 97.0205 31.4636C96.9428 31.5176 96.9033 31.5984 96.9033 31.7058C96.9028 31.7879 96.9289 31.8509 96.9814 31.8943C97.0479 31.946 97.1236 31.9848 97.2041 32.0095C97.3058 32.0391 97.4311 32.0775 97.5762 32.1159C97.7498 32.1535 97.9191 32.2106 98.0801 32.2859L98.0752 32.2898V32.3005C98.2047 32.3572 98.3168 32.4476 98.3994 32.5622C98.4783 32.6915 98.5166 32.8416 98.5098 32.9929C98.5135 33.1283 98.4837 33.2624 98.4229 33.3835C98.3652 33.4893 98.2839 33.5805 98.1855 33.6501C98.0841 33.7179 97.9683 33.7679 97.8379 33.7995C97.7076 33.8341 97.5611 33.8493 97.4209 33.8493C97.2807 33.8493 97.1314 33.8301 96.9863 33.8005C96.8412 33.7709 96.7046 33.7289 96.5693 33.6706C96.4341 33.6124 96.3138 33.5435 96.1973 33.4665L96.4492 32.9782C96.4779 33.0029 96.5219 33.0316 96.585 33.0749C96.648 33.1182 96.7249 33.1527 96.8164 33.196C96.9121 33.2373 97.0113 33.2709 97.1123 33.2966C97.2179 33.3252 97.3271 33.3406 97.4365 33.3415C97.5951 33.3415 97.713 33.3154 97.79 33.2634C97.867 33.2114 97.9053 33.1366 97.9053 33.0398C97.9068 33.0006 97.8997 32.9614 97.8838 32.9255C97.8679 32.8896 97.8436 32.858 97.8135 32.8327C97.7503 32.7794 97.6634 32.7414 97.5527 32.7019C97.4411 32.6634 97.3055 32.6291 97.1504 32.5857C96.9629 32.5373 96.807 32.475 96.6865 32.4118C96.5746 32.3575 96.4795 32.2736 96.4111 32.1697C96.3479 32.0729 96.3184 31.9476 96.3184 31.8025C96.3103 31.624 96.3599 31.4472 96.459 31.2986C96.5542 31.1594 96.6891 31.0515 96.8457 30.989C97.0096 30.918 97.1903 30.8826 97.3877 30.8825ZM52.3887 30.8777C52.6364 30.8719 52.8813 30.9304 53.0996 31.0476C53.2971 31.1592 53.4422 31.314 53.5439 31.5115L53.123 31.8269C53.0513 31.6815 52.9484 31.5699 52.8135 31.4929C52.6779 31.4152 52.5329 31.3767 52.3789 31.3767C52.2617 31.3769 52.1458 31.4034 52.04 31.4538C51.9366 31.5047 51.8448 31.577 51.7725 31.6667C51.6994 31.7595 51.643 31.8647 51.6035 31.9812C51.5234 32.2303 51.526 32.4988 51.6094 32.7468C51.6472 32.8585 51.7064 32.9618 51.7842 33.0505C51.8622 33.1394 51.9574 33.2123 52.0635 33.2644C52.1861 33.3204 52.3204 33.3464 52.4551 33.3396C52.5899 33.3327 52.7215 33.2927 52.8379 33.2243C52.9584 33.1572 53.0714 33.0607 53.1768 32.9343V32.737H52.5859V32.3152H53.6465V33.82H53.1768V33.4919C52.941 33.7282 52.6679 33.8458 52.3584 33.8445C52.1649 33.8444 51.9862 33.8101 51.8164 33.7331C51.6477 33.6551 51.5024 33.5539 51.3721 33.4138C51.2443 33.2742 51.1453 33.1141 51.0762 32.9343C51.009 32.7555 50.9697 32.5568 50.9697 32.3445C50.9703 32.1508 51.0062 31.9586 51.0762 31.7781C51.1476 31.6048 51.2498 31.446 51.377 31.3083C51.5038 31.1729 51.6565 31.0641 51.8262 30.989C52.0014 30.9159 52.1891 30.879 52.3887 30.8777ZM56.2275 30.8738C56.4272 30.8738 56.6245 30.9179 56.8047 31.0036C56.9734 31.0888 57.1242 31.2056 57.249 31.3474H57.2578C57.3793 31.49 57.4758 31.6524 57.5439 31.8269C57.6111 32.0007 57.6464 32.1744 57.6465 32.3679C57.6471 32.5588 57.6102 32.7484 57.5391 32.9255C57.4709 33.1033 57.3696 33.2638 57.2441 33.4001C57.1146 33.5412 56.9568 33.6537 56.7812 33.7302C56.6055 33.8068 56.4153 33.8457 56.2236 33.8445C56.0102 33.8445 55.8115 33.8005 55.6416 33.7185C55.4737 33.6414 55.3227 33.5297 55.1973 33.3845C55.0719 33.2393 54.9744 33.0847 54.9014 32.906C54.8292 32.7272 54.7949 32.5567 54.7949 32.3591C54.796 32.167 54.832 31.9767 54.9014 31.7976C54.968 31.6206 55.0707 31.4589 55.2021 31.323C55.3313 31.1854 55.4853 31.0736 55.6562 30.9939C55.8311 30.9168 56.0201 30.8738 56.2275 30.8738ZM76.6348 30.8738C76.8339 30.874 77.0311 30.9181 77.2109 31.0036C77.3801 31.0887 77.532 31.2054 77.6572 31.3474H77.666C77.7858 31.4911 77.8818 31.6531 77.9512 31.8269C78.0193 32.0006 78.0527 32.1744 78.0527 32.3679C78.0527 32.5615 78.0194 32.7506 77.9463 32.9255C77.8791 33.1008 77.7786 33.2621 77.6514 33.4001C77.5218 33.5412 77.3641 33.6537 77.1885 33.7302C77.0125 33.8068 76.8218 33.8458 76.6299 33.8445C76.4177 33.8444 76.2196 33.8004 76.0498 33.7185C75.8799 33.6408 75.7309 33.5294 75.6045 33.3845C75.4783 33.2395 75.3816 33.0845 75.3096 32.906C75.2365 32.7272 75.2031 32.5567 75.2031 32.3591C75.2042 32.167 75.2402 31.9768 75.3096 31.7976C75.3762 31.6207 75.478 31.4588 75.6094 31.323C75.7385 31.1854 75.8934 31.0736 76.0645 30.9939C76.2381 30.9169 76.4276 30.8738 76.6348 30.8738ZM111.525 30.8747C111.723 30.8764 111.918 30.9202 112.098 31.0036C112.267 31.0887 112.419 31.2054 112.544 31.3474H112.553C112.674 31.4901 112.77 31.6524 112.838 31.8269C112.906 32.0007 112.939 32.1744 112.939 32.3679C112.94 32.5588 112.904 32.7484 112.833 32.9255C112.766 33.1033 112.665 33.2638 112.539 33.4001C112.41 33.5419 112.251 33.6546 112.075 33.7312C111.899 33.8077 111.709 33.8464 111.518 33.8445C111.305 33.8445 111.106 33.8004 110.937 33.7185C110.767 33.6408 110.618 33.5294 110.491 33.3845C110.365 33.2395 110.268 33.0845 110.196 32.906C110.123 32.7272 110.09 32.5567 110.09 32.3591C110.089 32.1668 110.125 31.9761 110.196 31.7976C110.263 31.6206 110.366 31.4589 110.497 31.323C110.626 31.1855 110.78 31.0736 110.951 30.9939C111.132 30.9135 111.328 30.8731 111.525 30.8747ZM60.4658 30.9021C60.5916 30.8993 60.7152 30.9365 60.8184 31.0085C60.9182 31.081 60.9983 31.1782 61.0508 31.2898C61.1036 31.3996 61.1305 31.5204 61.1289 31.6423C61.129 31.7817 61.0914 31.9182 61.0215 32.0388C60.9506 32.1657 60.8409 32.2669 60.708 32.3259L60.7119 32.3298H60.7217C60.8791 32.3734 61.0188 32.4665 61.1191 32.5954C61.2202 32.7342 61.2707 32.9035 61.2637 33.0749C61.265 33.2222 61.2199 33.3666 61.1338 33.4861C61.0471 33.6036 60.9274 33.6931 60.79 33.7429C60.6399 33.8012 60.4844 33.8298 60.3154 33.8298H58.9033V30.9021H60.4658ZM69.1377 30.9021C69.2648 30.9027 69.3904 30.9308 69.5059 30.9841C69.6714 31.0671 69.8111 31.1943 69.9092 31.3513C70.0073 31.5083 70.0605 31.6896 70.0625 31.8747C70.0632 31.9953 70.0415 32.1154 69.999 32.2282C69.9557 32.3367 69.8936 32.4365 69.8154 32.5232L69.8262 32.5329C69.7465 32.6167 69.6515 32.6848 69.5459 32.7322L70.2129 33.8298H69.584L68.9834 32.8474H68.4131V33.8298H67.8418V30.9021H69.1377ZM104.253 30.8972L105.328 33.8259H104.742L104.5 33.0993H103.426L103.184 33.8259H102.598L103.678 30.8972H104.253ZM107.543 30.8982C107.863 30.8989 108.129 30.9645 108.342 31.0954L108.347 31.1003C108.555 31.225 108.722 31.4093 108.825 31.6286C108.932 31.8511 108.985 32.0959 108.985 32.363C108.985 32.6579 108.927 32.9162 108.812 33.1374C108.695 33.3509 108.52 33.5271 108.308 33.6452C108.09 33.7657 107.838 33.8259 107.543 33.8259H106.479V30.8982H107.543ZM63.1016 30.8972V33.8249H62.5303V30.8972H63.1016ZM82.1943 30.8972C82.5135 30.8979 82.7795 30.9636 82.9922 31.0945L82.9971 31.0993C83.2052 31.2243 83.3722 31.4085 83.4766 31.6277C83.5831 31.8508 83.6367 32.0958 83.6367 32.363C83.6367 32.6573 83.5787 32.9152 83.4629 33.1365C83.3414 33.3498 83.1762 33.5237 82.959 33.6452C82.7407 33.7658 82.4897 33.8249 82.1943 33.8249H81.1289V30.8972H82.1943ZM66.5254 30.8972V31.3962H65.0977V32.0974H66.3271V32.5622H65.0986V33.3259H66.5645V33.8191H64.5312V30.8972H66.5254ZM71.8525 30.8972L73.3633 32.8279V30.9031H73.9297V33.8191H73.46L71.9688 31.9421V33.8191H71.3984V30.8972H71.8525ZM86.8936 30.8972V31.3962H85.4668V32.0974H86.6963V32.5622H85.4668V33.3259H86.9326V33.8191H84.8994V30.8972H86.8936ZM88.7734 30.8972V33.3259H90.2637V33.8191H88.2021V30.8972H88.7734ZM95.1162 30.8972V31.3962H93.6943V32.0974H94.9229V32.5622H93.6943L93.6934 33.3259H95.1553V33.8191H93.1221V30.8972H95.1162ZM101.963 30.8972V31.3952H101.028V33.8191H100.462V31.3952H99.5234V30.8972H101.963ZM118.293 30.0505V33.7234H118.085V30.0505H118.293ZM200.038 32.1892V33.53H200.706C200.84 33.53 200.958 33.5252 201.06 33.5154C201.16 33.5107 201.257 33.4925 201.354 33.4616C201.437 33.4423 201.516 33.4066 201.586 33.3562C201.648 33.3072 201.699 33.244 201.731 33.1716V33.1628C201.771 33.0798 201.784 32.9873 201.784 32.8806C201.784 32.6595 201.713 32.4795 201.567 32.363C201.421 32.2471 201.224 32.1892 200.977 32.1892H200.038ZM128.744 30.6892C128.961 30.6857 129.174 30.7483 129.354 30.8689H129.35C129.532 30.9941 129.678 31.1646 129.775 31.363C129.881 31.5654 129.935 31.8074 129.935 32.074C129.935 32.3395 129.877 32.5765 129.775 32.7849C129.685 32.9838 129.539 33.1527 129.355 33.2702C129.172 33.3877 128.957 33.4489 128.739 33.447C128.522 33.447 128.313 33.3897 128.134 33.2732C127.95 33.1576 127.81 32.9922 127.703 32.7849C127.597 32.5815 127.544 32.3395 127.544 32.074C127.544 31.8074 127.597 31.5704 127.703 31.363C127.801 31.164 127.95 30.9935 128.134 30.8689C128.318 30.7483 128.517 30.6892 128.744 30.6892ZM146.957 30.6892C147.174 30.6858 147.386 30.7485 147.566 30.8689L147.562 30.8679C147.743 30.9931 147.89 31.1627 147.987 31.3611C148.094 31.5646 148.147 31.8062 148.147 32.073C148.147 32.3396 148.089 32.5765 147.987 32.7839C147.887 32.9924 147.741 33.1576 147.562 33.2732C147.383 33.3896 147.17 33.447 146.952 33.447C146.735 33.447 146.526 33.3897 146.348 33.2732C146.164 33.1576 146.024 32.9923 145.917 32.7849C145.81 32.5814 145.757 32.3396 145.757 32.074C145.757 31.8074 145.81 31.5704 145.917 31.363C146.015 31.1639 146.164 30.9935 146.348 30.8689C146.531 30.7484 146.73 30.6892 146.957 30.6892ZM153.296 30.6892C153.513 30.6858 153.725 30.7484 153.905 30.8689L153.9 30.8679C154.082 30.9931 154.229 31.1627 154.326 31.3611C154.433 31.5646 154.486 31.8062 154.486 32.073C154.486 32.3396 154.428 32.5765 154.326 32.7839C154.224 32.9924 154.079 33.1566 153.9 33.2732C153.722 33.3897 153.508 33.447 153.291 33.447C153.074 33.447 152.865 33.3897 152.687 33.2732C152.504 33.1566 152.361 32.9937 152.256 32.7849C152.149 32.5814 152.096 32.3396 152.096 32.074C152.096 31.8073 152.149 31.5704 152.256 31.363C152.354 31.1639 152.503 30.9935 152.687 30.8689C152.87 30.7484 153.069 30.6892 153.296 30.6892ZM125.614 30.6853C125.799 30.6803 125.982 30.7148 126.151 30.7868C126.288 30.8477 126.405 30.9445 126.49 31.0671C126.569 31.1896 126.609 31.3328 126.605 31.4782C126.61 31.5797 126.591 31.6809 126.549 31.7732C126.505 31.8552 126.452 31.9326 126.394 31.9958C126.335 32.059 126.263 32.1134 126.195 32.1657C126.127 32.2181 126.054 32.258 125.986 32.3015C125.895 32.3548 125.803 32.3977 125.726 32.4411C125.649 32.4846 125.581 32.5237 125.522 32.5671C125.464 32.6105 125.416 32.6536 125.367 32.698L125.358 32.6931C125.319 32.7366 125.275 32.7901 125.241 32.8425H126.649V33.405H124.419C124.419 33.2647 124.433 33.1377 124.453 33.0271C124.477 32.9056 124.515 32.8036 124.568 32.7068C124.628 32.6051 124.703 32.5138 124.792 32.4363C124.897 32.3365 125.016 32.2517 125.145 32.1843C125.275 32.1171 125.382 32.054 125.479 32.0056C125.563 31.9628 125.646 31.9156 125.726 31.865C125.783 31.8288 125.834 31.7835 125.876 31.7302C125.909 31.6854 125.926 31.6306 125.924 31.5749C125.925 31.5135 125.909 31.4531 125.876 31.4011C125.84 31.3486 125.792 31.305 125.735 31.2751C125.677 31.2417 125.6 31.2256 125.503 31.2263C125.371 31.2255 125.241 31.2623 125.13 31.3327C125.078 31.365 125.028 31.402 124.98 31.4441C124.932 31.4875 124.893 31.5266 124.85 31.57L124.462 31.1247C124.513 31.0718 124.57 31.0244 124.632 30.9841C124.714 30.9298 124.802 30.8825 124.893 30.8435C125.001 30.7987 125.113 30.762 125.227 30.7331C125.353 30.6986 125.479 30.6853 125.614 30.6853ZM131.986 30.6853C132.171 30.6802 132.354 30.7148 132.523 30.7868C132.659 30.8479 132.776 30.9446 132.861 31.0671C132.94 31.1894 132.98 31.3327 132.978 31.4782C132.982 31.5798 132.963 31.681 132.92 31.7732C132.876 31.8552 132.822 31.9326 132.765 31.9958C132.707 32.059 132.635 32.1125 132.567 32.1657C132.499 32.2181 132.427 32.258 132.358 32.3015C132.267 32.3548 132.175 32.3977 132.097 32.4411C132.02 32.4846 131.953 32.5237 131.895 32.5671C131.841 32.6082 131.789 32.6516 131.739 32.698L131.729 32.6931C131.691 32.7366 131.647 32.7901 131.613 32.8425H133.021V33.405H130.791C130.791 33.2647 130.805 33.1377 130.824 33.0271C130.849 32.9056 130.887 32.8036 130.94 32.7068C131.001 32.606 131.076 32.515 131.163 32.4363C131.269 32.3365 131.388 32.2516 131.517 32.1843C131.647 32.1172 131.754 32.054 131.851 32.0056C131.935 31.9628 132.017 31.9156 132.097 31.865C132.154 31.8288 132.205 31.7835 132.247 31.7302C132.28 31.6854 132.297 31.6306 132.295 31.5749C132.297 31.5134 132.281 31.4526 132.247 31.4011C132.211 31.3486 132.163 31.305 132.106 31.2751C132.049 31.2417 131.971 31.2256 131.874 31.2263C131.742 31.2257 131.613 31.2625 131.502 31.3327C131.449 31.365 131.399 31.4019 131.352 31.4441C131.303 31.4875 131.265 31.5266 131.222 31.57L130.834 31.1247C130.885 31.0719 130.942 31.0244 131.003 30.9841C131.086 30.9297 131.173 30.8824 131.265 30.8435C131.373 30.7987 131.485 30.762 131.599 30.7331C131.724 30.6986 131.851 30.6853 131.986 30.6853ZM143.823 30.6853C144.007 30.6804 144.191 30.7149 144.36 30.7868C144.497 30.8464 144.615 30.9435 144.699 31.0671C144.778 31.1894 144.818 31.3328 144.815 31.4782C144.82 31.5799 144.8 31.6809 144.757 31.7732C144.713 31.8552 144.659 31.9326 144.602 31.9958C144.544 32.0589 144.471 32.1125 144.404 32.1657C144.336 32.2181 144.264 32.258 144.196 32.3015C144.105 32.3548 144.013 32.3977 143.935 32.4411C143.858 32.4846 143.789 32.5236 143.731 32.5671C143.678 32.6082 143.626 32.6516 143.576 32.698L143.566 32.6931C143.528 32.7366 143.485 32.7902 143.451 32.8425H144.859V33.405H142.628C142.628 33.2647 142.643 33.1377 142.662 33.0271C142.687 32.9056 142.725 32.8035 142.778 32.7068C142.839 32.6061 142.914 32.5149 143.001 32.4363C143.107 32.3365 143.226 32.2515 143.354 32.1843C143.485 32.1172 143.592 32.054 143.688 32.0056C143.773 31.9628 143.855 31.9156 143.935 31.865C143.992 31.8289 144.042 31.7833 144.084 31.7302C144.117 31.6854 144.135 31.6306 144.133 31.5749C144.135 31.5134 144.118 31.4526 144.084 31.4011C144.048 31.3487 144 31.305 143.944 31.2751C143.886 31.2415 143.809 31.2256 143.712 31.2263C143.58 31.2256 143.451 31.2626 143.34 31.3327C143.287 31.3649 143.237 31.402 143.189 31.4441C143.141 31.4875 143.102 31.5266 143.059 31.57L142.672 31.1247C142.723 31.0718 142.779 31.0244 142.841 30.9841C142.924 30.9298 143.011 30.8824 143.103 30.8435C143.211 30.7988 143.323 30.762 143.437 30.7331C143.562 30.6986 143.688 30.6853 143.823 30.6853ZM56.1992 31.3913C56.0752 31.3902 55.9519 31.4184 55.8408 31.4734C55.7376 31.528 55.6466 31.6034 55.5742 31.695C55.4275 31.8862 55.351 32.1221 55.3564 32.363C55.3566 32.4882 55.3759 32.6132 55.415 32.7322C55.4551 32.8446 55.5123 32.9502 55.584 33.0456C55.6567 33.1411 55.7519 33.2179 55.8604 33.2693C55.969 33.3207 56.0889 33.3459 56.209 33.3415C56.3363 33.3439 56.4623 33.3153 56.5762 33.2585C56.6789 33.2011 56.7691 33.1236 56.8418 33.031C56.9139 32.9403 56.9656 32.8314 57.0049 32.7165H56.9971C57.0345 32.5968 57.0531 32.4788 57.0518 32.363C57.0517 32.2373 57.0317 32.1165 56.9922 32.0007C56.9527 31.8841 56.8963 31.7788 56.8232 31.6853C56.7517 31.5944 56.6609 31.5205 56.5576 31.4685C56.456 31.4152 56.3295 31.3914 56.1992 31.3913ZM59.4639 32.5671V33.3415H60.3105C60.3768 33.3435 60.4427 33.327 60.5 33.2937C60.5571 33.2604 60.6038 33.2115 60.6348 33.1531V33.1472C60.668 33.0903 60.6842 33.0246 60.6826 32.9587C60.6825 32.8931 60.6679 32.828 60.6387 32.7693C60.6094 32.7106 60.566 32.6594 60.5137 32.6199C60.4636 32.5823 60.4014 32.5638 60.3389 32.5671H59.4639ZM76.6104 31.3913C76.4864 31.3903 76.364 31.4184 76.2529 31.4734C76.1497 31.528 76.0587 31.6033 75.9863 31.695C75.8399 31.8863 75.7628 32.1222 75.7686 32.363C75.7684 32.4882 75.7884 32.6132 75.8271 32.7322C75.8673 32.8446 75.9244 32.9502 75.9961 33.0456C76.0689 33.1412 76.1638 33.2179 76.2725 33.2693C76.381 33.3206 76.5001 33.3458 76.6201 33.3415C76.7478 33.3444 76.8749 33.3162 76.9893 33.2595C77.1973 33.1411 77.3507 32.9462 77.418 32.7165H77.4102C77.4486 32.5962 77.4629 32.4794 77.4629 32.363C77.4629 32.2374 77.4438 32.1165 77.4043 32.0007C77.3654 31.8841 77.3094 31.7788 77.2363 31.6853C77.1645 31.5941 77.0725 31.5205 76.9688 31.4685C76.867 31.4152 76.7417 31.3913 76.6104 31.3913ZM111.493 31.3913C111.369 31.3901 111.246 31.4182 111.135 31.4734C111.031 31.5268 110.94 31.6024 110.869 31.695C110.723 31.8865 110.646 32.1222 110.65 32.363C110.65 32.4882 110.67 32.6132 110.709 32.7322C110.749 32.8447 110.807 32.9502 110.879 33.0456C110.952 33.141 111.046 33.2179 111.154 33.2693C111.263 33.3206 111.382 33.3456 111.502 33.3415C111.63 33.3444 111.757 33.3162 111.871 33.2595C112.08 33.1418 112.233 32.9466 112.3 32.7165H112.292C112.33 32.5962 112.345 32.4794 112.345 32.363C112.345 32.2374 112.326 32.1165 112.287 32.0007C112.248 31.8841 112.191 31.7788 112.117 31.6853C112.046 31.5944 111.955 31.5206 111.852 31.4685C111.75 31.4151 111.624 31.3913 111.493 31.3913ZM81.6904 31.405V33.3318H82.1846C82.3539 33.3379 82.5215 33.2916 82.6641 33.1999C82.7608 33.1353 82.8425 33.0514 82.9043 32.9538L82.9541 32.862C83.0222 32.7159 83.0557 32.5615 83.0557 32.3679C83.0556 32.1744 83.0124 32.0091 82.9502 31.864C82.8901 31.7224 82.7856 31.6035 82.6533 31.5251C82.523 31.4483 82.368 31.405 82.1846 31.405H81.6904ZM107.04 31.405V33.3318H107.534C107.703 33.3379 107.869 33.292 108.012 33.2009C108.109 33.1365 108.191 33.0527 108.253 32.9548L108.303 32.862C108.371 32.7169 108.404 32.5614 108.404 32.3689C108.404 32.1744 108.361 32.0101 108.298 31.865C108.238 31.7237 108.135 31.6048 108.003 31.5261C107.872 31.4482 107.718 31.4051 107.534 31.405H107.04ZM128.744 31.2595C128.636 31.2597 128.53 31.2954 128.444 31.3611C128.354 31.4365 128.285 31.5358 128.246 31.6472C128.197 31.7671 128.173 31.9093 128.173 32.074C128.173 32.2186 128.198 32.3623 128.246 32.4988C128.282 32.6115 128.351 32.7108 128.444 32.7839C128.53 32.8497 128.636 32.8853 128.744 32.8855C128.851 32.8877 128.956 32.8522 129.039 32.7849C129.129 32.708 129.197 32.6095 129.237 32.4988C129.291 32.3783 129.314 32.233 129.314 32.073C129.314 31.9139 129.286 31.7687 129.237 31.6482C129.198 31.5366 129.13 31.4371 129.039 31.3611C128.955 31.2943 128.851 31.2584 128.744 31.2595ZM146.957 31.2595C146.849 31.2595 146.743 31.2953 146.657 31.3611C146.567 31.437 146.498 31.5361 146.459 31.6472C146.41 31.767 146.387 31.9094 146.387 32.074C146.387 32.2186 146.411 32.3623 146.459 32.4988C146.496 32.6107 146.566 32.7094 146.657 32.7839C146.743 32.8498 146.849 32.8854 146.957 32.8855C147.064 32.8878 147.169 32.8523 147.253 32.7849C147.342 32.708 147.411 32.6095 147.451 32.4988C147.505 32.3783 147.528 32.233 147.528 32.073C147.528 31.914 147.5 31.7687 147.451 31.6482C147.412 31.5366 147.344 31.4371 147.253 31.3611C147.169 31.2941 147.064 31.2583 146.957 31.2595ZM153.296 31.2595C153.187 31.2595 153.081 31.2951 152.995 31.3611C152.905 31.4368 152.836 31.536 152.797 31.6472C152.749 31.767 152.725 31.9094 152.725 32.074C152.725 32.2186 152.749 32.3623 152.797 32.4988C152.835 32.6107 152.903 32.7096 152.995 32.7839C153.081 32.8499 153.187 32.8855 153.296 32.8855C153.403 32.887 153.507 32.8515 153.591 32.7849C153.68 32.7078 153.749 32.6095 153.789 32.4988C153.842 32.3783 153.867 32.233 153.867 32.073C153.867 31.914 153.837 31.7687 153.789 31.6482C153.75 31.5368 153.681 31.4372 153.591 31.3611C153.504 31.2935 153.406 31.2595 153.296 31.2595ZM134.409 32.7507H135.209V31.6999L134.409 32.7507ZM138.986 31.0808C139.147 31.081 139.304 31.1292 139.438 31.2185C139.571 31.3078 139.675 31.4345 139.736 31.5827C139.798 31.731 139.814 31.8942 139.782 32.0515C139.751 32.2089 139.673 32.354 139.56 32.4675C139.446 32.5808 139.302 32.6578 139.145 32.6892C138.987 32.7205 138.824 32.7045 138.676 32.6433C138.527 32.5819 138.4 32.4779 138.311 32.3445C138.221 32.2112 138.174 32.0546 138.174 31.8943C138.174 31.6787 138.26 31.4715 138.412 31.3191C138.564 31.1669 138.771 31.0811 138.986 31.0808ZM103.562 32.6921H104.369L103.968 31.4831L103.562 32.6921ZM197.281 30.7185L196.7 32.4216H197.876L197.295 30.7185H197.281ZM68.4082 31.3913V32.3396H69.1191C69.1867 32.3385 69.2522 32.3161 69.3066 32.2761C69.3669 32.2336 69.4146 32.1751 69.4434 32.1072L69.4424 32.1023C69.4782 32.0286 69.4947 31.9468 69.4912 31.865C69.493 31.7852 69.4759 31.706 69.4404 31.6345C69.4049 31.5628 69.3519 31.5007 69.2871 31.4538C69.2336 31.4123 69.1674 31.3901 69.0996 31.3913H68.4082ZM59.4688 31.3816L59.4785 31.3962V32.1325H60.2334C60.293 32.1314 60.3515 32.1139 60.4023 32.0827C60.4518 32.0474 60.4949 32.0027 60.5283 31.9519C60.5635 31.8938 60.58 31.8263 60.5762 31.7585C60.5762 31.6767 60.5627 31.6135 60.5332 31.5603C60.5068 31.5074 60.4663 31.462 60.417 31.4294C60.3681 31.3975 60.3104 31.3811 60.252 31.3816H59.4688ZM200.038 31.7976H200.629C200.947 31.7976 201.184 31.7488 201.34 31.6521C201.494 31.5602 201.572 31.3959 201.572 31.1726C201.573 30.9713 201.513 30.8199 201.393 30.7185C201.273 30.6184 201.116 30.5681 200.923 30.5681H200.038V31.7976ZM16.3213 24.8923C17.1482 24.8192 17.8944 26.4442 18.5811 26.5124C19.4722 26.5994 20.1938 24.6488 21.1719 24.9294C21.6994 25.0801 22.7035 26.5752 22.5361 27.1267C22.3998 27.5623 19.2941 30.6543 18.9062 30.7429C18.2137 30.901 15.015 27.7609 14.8174 27.1267C14.6043 26.449 15.7403 24.9453 16.3213 24.8923ZM180.35 23.8611C180.505 23.8594 180.66 23.8809 180.81 23.9245C180.953 23.9687 181.089 24.0316 181.216 24.112C181.343 24.1958 181.447 24.3108 181.517 24.446C181.59 24.5954 181.631 24.7592 181.637 24.9255H181.192C181.185 24.8328 181.158 24.7422 181.115 24.6599C181.072 24.5776 181.012 24.5048 180.94 24.446C180.795 24.3249 180.592 24.2641 180.331 24.2634C180.084 24.2634 179.885 24.3158 179.729 24.4314C179.575 24.5478 179.498 24.7074 179.498 24.9099C179.498 25.1964 179.682 25.3893 180.035 25.4812L180.693 25.656C181.008 25.7416 181.25 25.8651 181.419 26.0251C181.587 26.1831 181.671 26.4 181.671 26.6765C181.671 27.0347 181.541 27.311 181.279 27.5046C181.017 27.6982 180.683 27.7946 180.277 27.7947C180.05 27.7947 179.842 27.7612 179.663 27.6931V27.6882C179.486 27.625 179.347 27.5381 179.246 27.4275C179.144 27.3155 179.068 27.1994 179.019 27.0788C178.97 26.9575 178.941 26.8321 178.941 26.7009H179.387C179.396 26.7982 179.426 26.8923 179.475 26.9773C179.523 27.0624 179.589 27.1363 179.668 27.1941C179.831 27.3245 180.056 27.3897 180.341 27.3884C180.606 27.3877 180.82 27.3267 180.983 27.2058C181.148 27.0794 181.225 26.9092 181.226 26.7019C181.226 26.5418 181.177 26.4159 181.075 26.3142C180.973 26.2175 180.815 26.1351 180.602 26.0808L179.929 25.9031C179.677 25.8398 179.468 25.7285 179.304 25.5691C179.141 25.4091 179.061 25.1962 179.062 24.9304C179.059 24.7197 179.125 24.5137 179.251 24.3445C179.373 24.1753 179.531 24.052 179.725 23.9763C179.918 23.8992 180.122 23.8611 180.35 23.8611ZM204.064 23.8708C204.515 23.8708 204.878 24.0167 205.148 24.321C205.42 24.6262 205.556 25.0368 205.556 25.5691V26.1355C205.556 26.6622 205.42 27.0703 205.148 27.3601C204.874 27.6499 204.509 27.7947 204.055 27.7947C203.6 27.7946 203.231 27.6495 202.971 27.3601C202.709 27.0697 202.574 26.6628 202.574 26.1355V25.57C202.574 25.0416 202.709 24.6268 202.98 24.3259C203.246 24.0256 203.614 23.8758 204.064 23.8757V23.8708ZM194.442 23.8708C194.893 23.8709 195.256 24.0168 195.526 24.321C195.798 24.6262 195.933 25.0369 195.933 25.5691V26.1306C195.933 26.6572 195.797 27.0655 195.526 27.3552C195.252 27.6449 194.887 27.7897 194.433 27.7898C193.978 27.7898 193.61 27.6457 193.349 27.3552C193.087 27.0648 192.951 26.658 192.951 26.1306V25.5652C192.951 25.0366 193.087 24.622 193.358 24.321C193.624 24.0217 193.992 23.8708 194.442 23.8708ZM183.978 23.9519L185.326 27.7116H184.848L184.461 26.5564H183.037L182.651 27.7126H182.201L183.557 23.9529L183.552 23.9519H183.978ZM173.466 23.9529C173.727 23.9486 173.988 23.9966 174.23 24.0935C174.434 24.174 174.612 24.309 174.743 24.4841V24.4792C174.871 24.6593 174.966 24.8609 175.023 25.074C175.082 25.2912 175.11 25.5523 175.11 25.8288C175.11 26.1044 175.082 26.3615 175.023 26.5788C174.964 26.7981 174.874 26.9952 174.753 27.1697C174.626 27.3498 174.449 27.4897 174.244 27.572C174.026 27.6642 173.766 27.7103 173.466 27.7116H172.285V23.9529H173.466ZM178.258 23.9529V24.3493L176.463 24.3484V25.5866H178.152V25.989H176.463V27.3103H178.258V27.7116H176.018V23.9529H178.258ZM187.388 23.9529C187.571 23.9497 187.753 23.9805 187.925 24.0437C188.07 24.0922 188.2 24.1774 188.303 24.2907C188.487 24.5046 188.587 24.7789 188.583 25.0613C188.583 25.3458 188.519 25.573 188.384 25.7429L188.374 25.7419C188.239 25.9118 188.075 26.038 187.876 26.1101L188.646 27.7116H188.138L187.44 26.2019H186.492V27.7116H186.047V23.9529H187.388ZM190.911 23.9529C191.094 23.9497 191.277 23.9804 191.449 24.0437C191.594 24.0922 191.724 24.1775 191.826 24.2907C192.011 24.5046 192.11 24.7788 192.106 25.0613C192.106 25.3457 192.043 25.573 191.908 25.7429L191.898 25.7419C191.763 25.9118 191.598 26.038 191.4 26.1101L192.169 27.7116H191.661L190.965 26.2019H190.017V27.7116H189.57V23.9529H190.911ZM197.339 23.9529V27.3103H199.097V27.7116H196.899V23.9529H197.339ZM200.251 27.3103H202.008V27.7116H199.806V23.9529L200.251 23.9509V27.3103ZM194.438 24.2722C194.295 24.2681 194.153 24.2956 194.022 24.3532C193.892 24.411 193.776 24.4978 193.683 24.6062C193.484 24.8284 193.387 25.1533 193.387 25.5691V26.1355C193.381 26.3256 193.407 26.5158 193.465 26.697C193.512 26.8438 193.589 26.9788 193.692 27.0935C193.785 27.1909 193.897 27.2685 194.021 27.321C194.147 27.3743 194.282 27.3991 194.438 27.3991C194.58 27.4006 194.721 27.374 194.854 27.321C194.988 27.2659 195.108 27.1809 195.205 27.073C195.302 26.965 195.374 26.8364 195.415 26.697C195.466 26.5317 195.492 26.3442 195.492 26.1355V25.5642C195.492 25.1485 195.396 24.8334 195.197 24.6062C195.004 24.3839 194.748 24.2722 194.438 24.2722ZM204.055 24.2722C203.912 24.2681 203.77 24.2955 203.64 24.3532C203.509 24.411 203.393 24.4978 203.3 24.6062C203.101 24.8284 203.005 25.1534 203.005 25.5691V26.1355C202.999 26.3256 203.025 26.5157 203.083 26.697C203.13 26.8437 203.207 26.9789 203.31 27.0935C203.403 27.1908 203.515 27.2685 203.639 27.321C203.764 27.3744 203.9 27.3991 204.055 27.3991C204.197 27.4008 204.339 27.3741 204.472 27.321C204.606 27.2658 204.726 27.1809 204.823 27.073C204.92 26.965 204.993 26.8364 205.033 26.697C205.085 26.5317 205.111 26.3442 205.11 26.1355V25.5642C205.11 25.1484 205.013 24.8334 204.814 24.6062C204.621 24.3839 204.365 24.2722 204.055 24.2722ZM172.72 24.3445V27.3113H173.445C174.253 27.3113 174.661 26.8217 174.661 25.8298C174.66 24.8388 174.254 24.3438 173.445 24.3445H172.72ZM87.0361 26.2888C76.7479 26.2019 77.8659 10.6103 89.291 12.0622C93.2256 12.5655 91.9452 13.8551 91.4697 16.9636L89.9297 16.7956C90.1184 14.7388 89.058 14.0074 87.0693 14.1091C85.4433 14.1971 84.6215 14.854 84.0791 16.3161C82.9322 19.4271 83.7653 24.2232 87.8682 24.238C91.096 24.2515 88.9764 20.8028 91.9131 21.1267C91.841 22.0658 91.7109 25.2009 90.9414 25.6316C90.4722 25.8983 87.6413 26.2887 87.0361 26.2888ZM183.754 24.4949L183.174 26.198H184.35L183.769 24.4949H183.754ZM70.3271 13.906H68.667V21.8572C68.6671 22.3028 69.4857 23.4682 69.9639 23.6618C70.6664 23.9473 72.2095 23.9141 72.9355 23.6286C73.2982 23.4881 74.27 22.5836 74.2705 22.2693V13.9011H72.8184L73.1504 12.2468H77.8613L78.374 13.6062C78.3014 14.066 77.1217 13.8863 76.7539 13.906C76.3666 18.5325 78.66 25.627 71.8896 26.1062C68.1585 26.3669 65.4491 25.2683 65.1299 21.2468C64.9412 18.8906 65.2799 16.2918 65.1396 13.906L63.5664 13.7077L63.7021 12.2654L69.9932 12.2419L70.3271 13.906ZM156.009 13.9001L155.999 13.906H154.532C154.179 17.6325 154.319 21.3534 154.653 25.07L151.668 26.0661L145.096 16.5964L145.202 24.238H146.862L146.475 25.7673L141.602 25.8591L141.055 24.3396L142.482 24.2038C142.661 23.8611 142.7 23.4884 142.729 23.1062C142.884 21.0246 143.078 17.4722 142.928 15.4538C142.894 14.9363 142.647 14.4384 142.725 13.9011H141.272L141.621 12.2419L146.373 12.4402L152.272 20.7195V13.9001L150.699 13.7029L151.155 12.2751L155.66 12.2409L156.009 13.9001ZM60.9043 13.7029C60.6375 14.0603 59.9166 13.7229 59.4375 14.1091C59.1521 14.3422 56.095 20.1993 56.0254 20.6277C55.8604 21.6828 56.3547 22.7957 56.248 23.8894L56.5586 24.199L56.5488 24.2136L57.8506 24.2624L58.0781 25.8923H50.4033L50.6211 24.2527L52.2705 24.2429C52.2369 23.1631 52.6377 22.1373 52.4639 21.0486C52.1632 19.219 49.5028 16.0354 48.8496 14.114L47.29 13.9099L47.5234 12.28L53.7412 12.3474L53.9404 13.9109C53.5769 13.9978 52.8272 13.6357 52.9053 14.2107C52.9875 14.8356 54.0129 17.5407 54.3418 18.1501C54.7004 18.8081 54.9375 18.978 55.2764 18.237C55.5375 17.6739 56.8771 14.1293 56.6406 13.9011C56.5784 13.8438 55.7555 14.0463 55.6152 13.5671L55.8174 12.2605L60.7822 12.2507L60.9043 13.7029ZM110.783 11.9411C114.18 11.9658 118.1 11.5355 121.473 11.8249C121.855 11.8595 122.217 11.8397 122.542 12.1013V12.0964C123.345 12.7455 122.643 15.4931 122.406 16.4909L121.032 16.3835L120.732 14.0993H118.036L118.273 23.8845C118.477 24.5037 119.987 24.1265 120.529 24.2243L120.297 25.8542L112.655 25.8679L112.438 24.2282C112.979 24.1314 114.49 24.5087 114.693 23.8894L114.931 14.1052L112.423 14.197L111.92 16.3835L110.7 16.5574C110.357 16.4467 110.172 14.6566 110.158 14.2116C110.12 13.3442 109.955 12.44 110.783 11.9411ZM129.437 12.3816C130.468 11.9264 131.654 12.0187 132.752 12.0681L137.106 24.1072L138.582 24.2282L138.346 25.8581H131.967L131.735 24.2282C132.301 24.18 132.998 24.4313 133.385 23.9187L132.747 21.9831C131.552 22.0454 130.081 21.8039 128.924 21.9441C127.937 22.0646 127.907 23.3865 127.796 24.2282H129.456L129.461 24.2331L129.059 25.7907L124.074 25.8679L123.856 24.2282L125.125 24.1072L129.437 12.3816ZM107.671 24.0925L109.142 24.2243L108.91 25.8542H102.521L102.29 24.2243C102.856 24.18 103.552 24.4313 103.939 23.9177L103.199 21.9392C102.019 22.0695 100.629 21.8039 99.4775 21.9392C98.418 22.065 98.4662 23.3383 98.3506 24.2234L99.9189 24.4265L99.5654 25.8532H94.6338L94.4023 24.2234L95.6699 24.1023L99.8936 12.449L103.291 12.2751L103.296 12.2654H103.307L107.671 24.0925ZM31.4834 11.4577C31.841 11.3807 32.185 11.3571 32.4854 11.6179L37.1543 16.2634L37.2422 20.9187L32.4854 25.6853C31.5557 26.2899 29.5673 25.1234 29.915 23.9626H29.9209C30.1582 23.1495 33.9813 20.1645 34.6631 19.1765C34.7419 19.0957 34.801 18.9974 34.8369 18.8904C34.8728 18.7833 34.8843 18.6693 34.8701 18.5574C34.7823 17.6905 30.3362 14.4475 29.9678 13.2917C29.7073 12.4689 30.782 11.608 31.4834 11.4577ZM5.13867 11.4616C6.08726 11.1815 8.18113 12.5127 7.28223 13.6062C6.62378 14.4532 2.55354 17.8984 2.48633 18.5622C2.45769 18.8565 2.56398 18.9632 2.69531 19.1814C3.45898 20.4726 6.25532 22.2259 7.15039 23.6189L7.15625 23.6238C8.07997 25.0563 6.27056 26.0428 4.99316 25.782L0.00878906 20.9284V16.3835C1.2032 15.769 4.22879 11.7284 5.13867 11.4616ZM186.507 24.3445V25.8064H187.334C187.601 25.8064 187.799 25.7432 187.939 25.6228C188.074 25.497 188.143 25.3212 188.143 25.0954C188.143 24.8544 188.074 24.6682 187.935 24.5378C187.794 24.4081 187.6 24.3438 187.354 24.3445H186.507ZM190.03 24.3445V25.8064H190.858C191.124 25.8063 191.323 25.7432 191.463 25.6228C191.598 25.4971 191.666 25.3211 191.666 25.0954C191.667 24.8545 191.598 24.6682 191.458 24.5378C191.318 24.4081 191.124 24.3438 190.878 24.3445H190.03ZM17.1572 14.1482C17.5929 14.0168 19.9359 14.0328 20.3281 14.2107C20.5242 14.3012 23.1341 16.9458 23.1924 17.1443C23.3178 17.5756 23.3038 19.9074 23.125 20.2995C23.0332 20.4921 20.3776 23.0924 20.1777 23.154C19.7421 23.2844 17.399 23.2703 17.0078 23.0915C16.812 23.0012 14.2018 20.3564 14.1436 20.1579C14.0171 19.727 14.0331 17.3948 14.2109 17.0036C14.3043 16.8087 16.9587 14.2065 17.1572 14.1482ZM26.7119 14.7575C26.9046 14.724 27.0117 14.753 27.1865 14.8064C27.6699 14.957 30.8131 18.1102 30.835 18.5466L30.8301 18.5378C30.8637 19.2531 27.544 22.5592 26.8672 22.5593C26.3871 22.5593 24.9888 21.475 24.9404 20.9909C24.8628 20.1633 26.4978 19.4225 26.5664 18.7409C26.6682 17.6957 24.0461 16.9746 25.3281 15.6687C25.4486 15.5482 26.6042 14.778 26.7119 14.7575ZM10.3223 14.7585C10.8846 14.667 12.3588 15.7651 12.4082 16.3064C12.485 17.1351 10.8498 17.8748 10.7822 18.5574C10.6953 19.4465 12.6507 20.1633 12.3691 21.1365L12.374 21.1316C12.253 21.5426 10.9273 22.5577 10.4824 22.5583C9.86808 22.5583 6.54486 19.2706 6.51855 18.7556C6.48892 18.0828 9.71271 14.8553 10.3223 14.7585ZM180.172 17.6618C180.377 17.6579 180.58 17.6936 180.771 17.7673C180.936 17.8309 181.084 17.933 181.202 18.0642C181.309 18.1841 181.394 18.3222 181.454 18.4714C181.512 18.6116 181.541 18.7598 181.541 18.9157H181.105C181.105 18.8037 181.082 18.6927 181.038 18.5896C180.994 18.4865 180.93 18.3931 180.85 18.3152C180.681 18.1414 180.452 18.0545 180.162 18.0544C180.021 18.0489 179.88 18.0756 179.752 18.1335C179.624 18.1915 179.511 18.2793 179.422 18.3884C179.233 18.6107 179.142 18.9345 179.142 19.3513V19.9021C179.142 20.3236 179.233 20.6421 179.417 20.8562C179.6 21.0687 179.854 21.1745 180.177 21.1745C180.467 21.1745 180.69 21.0932 180.854 20.9431C180.933 20.8726 180.995 20.786 181.037 20.6892C181.079 20.5923 181.099 20.487 181.097 20.3816H181.531C181.531 20.5169 181.503 20.6476 181.449 20.7829C181.389 20.9236 181.307 21.0539 181.207 21.1697C181.1 21.2961 180.96 21.3885 180.776 21.4656C180.593 21.5327 180.385 21.572 180.151 21.572L180.155 21.5857C179.711 21.5832 179.356 21.4391 179.102 21.156C178.845 20.8702 178.717 20.4591 178.716 19.9226V19.3513C178.716 18.8178 178.846 18.4026 179.106 18.1062C179.373 17.8069 179.726 17.6618 180.172 17.6618ZM173.391 17.6325C173.546 17.6309 173.701 17.6515 173.851 17.695C173.994 17.7395 174.131 17.8038 174.257 17.8845C174.384 17.9683 174.488 18.0834 174.558 18.2185C174.631 18.3678 174.672 18.5309 174.678 18.697H174.233C174.226 18.6045 174.199 18.5145 174.156 18.4324C174.113 18.3502 174.053 18.2773 173.981 18.2185C173.836 18.0974 173.633 18.0353 173.372 18.0339C173.125 18.0339 172.926 18.0873 172.771 18.2029C172.616 18.3194 172.539 18.4796 172.539 18.6824C172.539 18.9679 172.723 19.1618 173.076 19.2536L173.734 19.4284C174.049 19.5147 174.291 19.6371 174.46 19.7956C174.628 19.955 174.712 20.173 174.712 20.449C174.712 20.8072 174.582 21.0835 174.32 21.2771C174.059 21.4707 173.725 21.5671 173.318 21.5671C173.091 21.5671 172.883 21.5287 172.704 21.4656C172.525 21.4024 172.389 21.3154 172.287 21.2038C172.185 21.0933 172.109 20.9773 172.06 20.8562C172.011 20.7347 171.982 20.6087 171.982 20.4773H172.428C172.437 20.5748 172.467 20.6695 172.516 20.7546C172.564 20.8397 172.63 20.9137 172.709 20.9714C172.872 21.1011 173.097 21.1654 173.382 21.1648C173.646 21.1634 173.861 21.1023 174.024 20.9812V20.9773C174.189 20.8508 174.267 20.6808 174.267 20.4734C174.267 20.3134 174.218 20.1884 174.116 20.0866C174.014 19.9899 173.856 19.9076 173.643 19.8542L172.97 19.6745C172.718 19.612 172.509 19.5006 172.345 19.3406C172.182 19.1818 172.102 18.9685 172.104 18.7019C172.1 18.4913 172.166 18.2851 172.292 18.1159C172.414 17.9476 172.572 17.8251 172.766 17.7488C172.959 17.6717 173.163 17.6325 173.391 17.6325ZM183.797 17.7341C183.98 17.7312 184.163 17.7623 184.335 17.8259C184.48 17.8744 184.609 17.9597 184.712 18.073C184.896 18.2869 184.996 18.561 184.992 18.8435C184.992 19.128 184.929 19.3552 184.794 19.5251H184.784C184.649 19.695 184.484 19.8202 184.286 19.8923L185.055 21.4939H184.547L183.851 19.9841H182.902V21.4939H182.457V17.7341H183.797ZM197.061 17.7341C197.244 17.7313 197.426 17.7623 197.598 17.8259C197.743 17.8744 197.873 17.9596 197.976 18.073C198.16 18.2869 198.26 18.5611 198.256 18.8435C198.256 19.128 198.193 19.3552 198.057 19.5251H198.048C197.913 19.695 197.747 19.8202 197.549 19.8923L198.319 21.4939H197.812L197.113 19.9841H196.165V21.4939H195.721V17.7341H197.061ZM177.872 17.7302V18.1316H176.076V19.3699H177.77V19.7673H176.076V21.0925H177.872V21.49H175.636V17.7302H177.872ZM188.225 17.7302V18.1316H186.434V19.3699H188.122V19.7673H186.434V21.0925H188.225V21.49H185.988V17.7302H188.225ZM191.539 17.7302V18.1208H190.392V21.49H189.951V18.1208H188.795V17.7302H191.539ZM193.655 17.7302L195.004 21.489H194.525L194.138 20.3337H192.71L192.324 21.49H191.874L193.229 17.7302H193.655ZM199.697 17.7302V21.49H199.253V17.7302H199.697ZM202.207 17.7302L203.558 21.49H203.079L203.074 21.489L202.687 20.3337H201.264L200.877 21.49H200.427L201.781 17.7302H202.207ZM206.81 17.7302C207.071 17.7259 207.331 17.7739 207.574 17.8708C207.778 17.9516 207.956 18.0869 208.087 18.2624V18.2575C208.215 18.4377 208.309 18.6391 208.367 18.8523C208.425 19.0706 208.454 19.3315 208.454 19.6072C208.454 19.8828 208.425 20.1398 208.367 20.3572C208.308 20.5764 208.218 20.7735 208.097 20.948C207.969 21.1282 207.793 21.2681 207.588 21.3503C207.369 21.4425 207.11 21.4886 206.81 21.49H205.628V17.7302H206.81ZM211.597 17.7302V18.1316H209.801V19.3699H211.495V19.7673H209.801V21.0925H211.597V21.49H209.366V17.7302H211.597ZM18.4111 15.9919C18.0388 16.0986 15.9199 18.2894 15.9678 18.7409C16.0063 19.1321 18.1352 21.3245 18.7598 21.3396H18.7646C19.476 21.3001 21.4648 19.3359 21.3828 18.5515C21.3288 18.0768 19.0789 15.8033 18.4111 15.9919ZM206.063 18.1267V21.0925H206.789C207.597 21.0925 208.005 20.6039 208.005 19.612C208.004 18.6208 207.598 18.126 206.789 18.1267H206.063ZM101.128 15.3425C100.756 15.3 100.727 15.6091 100.62 15.8659C100.073 17.1809 99.8315 18.9302 99.3711 20.3034H102.687L101.128 15.3425ZM130.385 15.3435L128.826 20.3034H132.141C131.715 18.9342 131.435 17.1631 130.894 15.8659C130.792 15.6102 130.762 15.3002 130.385 15.3435ZM193.422 18.2712L192.842 19.9753H194.018L193.437 18.2712H193.422ZM201.976 18.2712L201.395 19.9753H202.571L201.99 18.2712H201.976ZM182.912 18.1208V19.5827H183.734C184.001 19.5827 184.199 19.5205 184.34 19.3991H184.344C184.479 19.2747 184.547 19.0984 184.547 18.8718C184.548 18.6304 184.479 18.4448 184.34 18.3152C184.199 18.1854 184.005 18.1202 183.759 18.1208H182.912ZM196.175 18.1208V19.5827H196.998C197.264 19.5827 197.462 19.5205 197.603 19.3991H197.607C197.743 19.2747 197.812 19.0984 197.812 18.8718C197.813 18.6303 197.743 18.4449 197.603 18.3152C197.462 18.1854 197.268 18.1202 197.021 18.1208H196.175ZM200.355 16.7615L199.624 17.3181H199.13L199.827 16.7615H200.355ZM91.4688 16.9743V16.9646H91.4707C91.4702 16.9677 91.4692 16.9712 91.4688 16.9743ZM188.775 1.37376C189.319 1.41812 189.848 1.56911 190.333 1.81809C192.487 2.94137 193.175 5.82941 192.996 7.9011C192.923 8.68944 192.541 11.5445 190.349 12.6531H190.344C189.877 12.8864 189.369 13.0274 188.849 13.0681H181.676V11.7956L182.979 11.3513V2.5427L181.676 2.45091V1.37376H188.775ZM198.572 1.39134C199.338 1.27 202.303 1.48897 202.811 2.01145C202.961 2.24731 203.102 2.48927 203.231 2.73704C203.285 3.05614 202.816 5.51039 202.54 5.60227L201.466 5.61692C201.234 4.43636 201.447 3.45367 199.971 3.29856C199.259 3.22644 197.978 3.20694 198.146 4.20969C198.418 5.8294 202.816 6.16847 203.242 8.6843C203.494 10.1464 203.043 11.0609 201.911 11.9421C199.826 13.5632 197.212 13.1857 194.889 12.2995C194.666 12.0487 194.652 8.68608 194.807 8.57786L196.012 8.47727L196.665 10.698C197.091 11.2253 199.368 11.2452 199.665 10.8337C200.652 9.4595 197.483 8.36083 196.689 7.8718L196.685 7.8679H196.675C195.354 7.05878 194.511 6.19777 194.72 4.51829C194.899 3.06113 197.242 1.59978 198.572 1.39134ZM175.635 1.39134C176.399 1.26982 179.366 1.48884 179.874 2.01145C180.024 2.24731 180.165 2.48927 180.295 2.73704C180.348 3.05614 179.879 5.51039 179.604 5.60227L178.529 5.61692C178.296 4.43649 178.51 3.45377 177.034 3.29856C176.323 3.22644 175.04 3.20694 175.209 4.20969C175.481 5.82947 179.879 6.16852 180.305 8.6843L180.3 8.67942H180.291C180.542 10.1416 180.092 11.056 178.96 11.9372C176.874 13.5579 174.261 13.1807 171.938 12.2947C171.716 12.0437 171.701 8.67966 171.856 8.57395L173.061 8.47239L173.715 10.6931C174.141 11.2203 176.419 11.2404 176.715 10.8288C177.702 9.45477 174.533 8.35602 173.738 7.8679C172.417 7.05878 171.576 6.19777 171.783 4.51829C171.962 3.0612 174.304 1.59987 175.635 1.39134ZM18.5645 6.55051C19.1987 6.52186 22.3396 9.58566 22.5283 10.1804C22.7168 10.7811 21.8164 12.0633 21.3076 12.3103C20.2438 12.8322 19.5126 10.7028 18.5791 10.7907C17.8917 10.8534 17.147 12.4884 16.3193 12.4109L16.3145 12.4157C15.7781 12.3624 14.6882 10.8103 14.7559 10.3357C14.828 9.83285 18.0849 6.57075 18.5645 6.55051ZM73.1504 12.2468H73.1484L73.1523 12.237L73.1504 12.2468ZM133.823 9.23704L133.929 10.6013L130.18 11.2019L129.952 10.7849C130.233 10.2969 130.223 9.37213 130.842 9.18821L133.823 9.23704ZM185.887 2.98997V11.071H187.241C187.691 11.0703 188.133 10.9523 188.522 10.7282C188.912 10.5042 189.236 10.1817 189.463 9.79368C189.922 9.01047 190.181 8.1265 190.218 7.21946C190.251 6.15985 189.974 5.11361 189.42 4.20969C188.96 3.44507 188.123 2.99001 187.232 2.98997H185.887ZM3.11719 0.161843C3.51381 -0.0119599 5.64745 -0.0270937 6.07812 0.0993429C6.28724 0.162292 9.13665 2.96526 9.22852 3.16282C9.46537 3.67222 9.4318 5.8714 9.1416 6.37083C9.04482 6.54464 6.51532 9.06427 6.34473 9.16282C5.85076 9.44833 3.63975 9.48287 3.12207 9.25071L3.11719 9.24583C2.32783 8.89215 0.968174 6.71992 0 6.25559V3.15305C0.96817 2.68767 2.32785 0.515515 3.11719 0.161843ZM31.2754 0.105202C31.7068 -0.0251059 33.8402 -0.0100838 34.2373 0.167702C34.4395 0.265551 37.2474 3.09616 37.3096 3.30442C37.4358 3.7313 37.4198 5.85804 37.2422 6.25071C37.1503 6.45315 34.3015 9.24861 34.0918 9.31321C33.6611 9.44458 31.5276 9.42942 31.1299 9.25169C30.9324 9.15987 28.1233 6.32661 28.0576 6.11497C27.9312 5.69024 27.9453 3.56054 28.124 3.1677C28.2159 2.96518 31.0679 0.167442 31.2754 0.105202ZM16.5342 0.0954366C17.1053 -0.0734845 20.5979 -0.0160045 21.0684 0.25071L25.8301 5.01731C26.2756 5.70382 25.2351 7.40243 24.5771 7.49973C24.3203 7.54715 24.0974 7.4951 23.8652 7.38841C22.7854 6.88933 20.4202 3.55013 19.2051 2.73313C19.1219 2.65579 19.023 2.59737 18.915 2.56223C18.8071 2.52712 18.6928 2.51542 18.5801 2.52903C17.9083 2.59621 14.4532 6.64748 13.6006 7.30149L13.5957 7.29661C12.4982 8.17112 11.0664 5.9894 11.5156 5.01731C12.5609 4.31974 15.6875 0.347356 16.5342 0.0954366ZM32.5186 1.94309C32.2522 2.01688 29.8773 4.44569 29.877 4.70676L32.6826 7.49973C33.0264 7.49973 35.4706 5.03081 35.4805 4.70676C35.4942 4.03885 33.1903 1.76922 32.5186 1.94309ZM4.51562 1.93821C3.96189 2.02098 1.86311 4.12103 1.87793 4.70676C1.88792 5.03657 4.33516 7.49766 4.6748 7.49876L7.48145 4.70676C7.48145 4.40149 5.10049 1.88974 4.51465 1.94309L4.51562 1.93821ZM76.3369 1.4011C77.3437 0.579292 79.7928 0.332777 79.0371 2.12766C75.9063 -0.214725 75.5052 6.16805 79.0371 4.61009L79.0137 5.4138C76.1398 6.71095 74.0093 3.28805 76.3369 1.4011ZM121.878 0.786843C125.42 0.715047 124.767 5.87724 121.467 5.64524C118.577 5.44173 118.941 0.845131 121.878 0.786843ZM65.9785 0.883523V5.43333L64.9424 5.54954L62.8662 2.33079V5.43333H61.8262V0.883523L63.249 0.918679L64.9424 3.98118V0.883523H65.9785ZM141.252 0.908913L142.732 5.42356L141.727 5.39915L141.465 4.41673V4.41184C141.393 4.35355 141.28 4.39151 141.188 4.37669C140.908 4.33919 139.983 4.33969 139.751 4.41673C139.316 4.56734 139.447 5.84896 138.169 5.41868L139.641 0.898171L141.252 0.908913ZM71.7627 0.908913L73.2344 5.42844C71.5357 5.72354 72.5468 4.31042 70.8438 4.38352H70.8486C69.4364 4.44099 70.2777 5.74728 68.6758 5.42844L70.1523 0.908913H71.7627ZM91.1338 0.883523C91.5695 0.98034 91.6855 4.77042 91.6855 5.43333H90.6504V2.12864C89.9628 2.37957 89.7349 5.30309 89.6045 5.41868L88.5547 5.30637L87.7461 2.12766C87.4413 2.10962 87.3792 2.86816 87.3594 3.08176C87.2764 3.86026 87.3646 4.65385 87.3359 5.43333L87.3311 5.44309C86.9191 5.35517 86.2852 5.72339 86.2852 5.12766C86.2941 3.8355 86.6862 2.2288 86.7109 0.898171L88.1436 0.913796L89.0967 4.19895L90.0508 0.913796L91.1338 0.883523ZM106.214 0.883523C106.678 0.893402 107.162 0.782467 107.578 1.07786C108.106 1.45541 108.648 3.502 109.326 3.98606V0.883523H110.361V5.42356L109.209 5.44798L107.249 2.32591V5.42844H106.214V0.883523ZM48.1387 0.893288C49.5525 0.931719 52.3294 0.36642 51.8701 2.64134C51.7733 3.11554 51.2408 3.30443 51.2744 3.64329C51.2938 3.87608 52.3968 5.35135 52.2803 5.43333L51.0654 5.40012C50.7612 4.70759 50.6161 3.81665 49.6924 3.77317C49.0433 3.74353 49.5123 5.07965 49.377 5.43333L49.3867 5.43821H48.1387C48.4619 3.94065 48.4619 2.39085 48.1387 0.893288ZM58.708 0.884499L58.7129 1.71262H56.4287V2.95481L58.084 2.7468L58.0889 3.46848L56.4287 3.57005L56.4238 4.69212L58.7129 4.81419L58.709 5.4343H55.1865V0.884499H58.708ZM103.109 0.884499V1.71262H100.826V2.95481L102.49 2.7468V3.46848L100.826 3.57005V4.69212L103.109 4.81419V5.4343H99.5859V0.884499H103.109ZM96.2607 0.888405C96.0138 2.39401 95.9169 3.9376 96.2607 5.43333H94.8086C95.1672 3.95736 95.0803 2.37425 94.8086 0.888405H96.2607ZM117.216 0.883523V1.71165H115.764V5.43333H114.52V1.71165H113.068V0.883523H117.216ZM135.879 5.42844L134.635 5.43333V2.12864L133.58 5.40891L132.588 5.40501L131.625 2.12278L131.315 5.43333L130.275 5.322L130.691 0.883523L132.128 0.908913L133.082 4.19309L134.035 0.90403L135.468 0.883523L135.879 5.42844ZM144.594 1.19016C144.435 0.651788 145.514 0.913796 145.81 0.913796C146.032 1.44125 146.133 2.02222 146.365 2.53977C147.009 3.96607 147.227 1.10216 147.527 0.913796L148.746 0.888405C148.05 2.39895 146.98 3.65702 147.295 5.43333H146.041C146.505 3.7489 144.986 2.5051 144.594 1.19016ZM83.1963 0.883523V5.42844H81.9473V0.883523H83.1963ZM153.619 1.08665L155.172 5.42356H153.933L153.735 4.48509H151.838V4.48997L151.64 5.42844H150.401L151.862 0.893288L153.619 1.08665ZM122.352 1.65794C120.271 0.671788 119.894 5.7719 122.575 4.77415C123.088 3.94718 123.407 2.15582 122.352 1.65794ZM71.1631 1.71165C70.6506 1.64845 70.8339 1.71558 70.7275 2.00169C70.6318 2.25719 70.2593 3.70111 70.335 3.77805H71.5791L71.1631 1.71165ZM139.824 3.77708H141.068L140.55 1.71653L139.824 3.77708ZM152.061 3.77219H153.512L152.686 1.71165L152.061 3.77219ZM49.3721 1.50852V3.15794C50.113 3.24092 50.8439 3.11035 50.834 2.23899L50.5332 1.69309L49.377 1.50364L49.3721 1.50852Z" fill="#1A1F18"/>
</svg>
