<svg width="172" height="50" viewBox="0 0 172 50" fill="none" xmlns="http://www.w3.org/2000/svg">
<path d="M67.3966 36.0819C61.1658 36.0819 56.9285 31.8417 56.9285 25.0897C56.9285 18.7719 61.559 14.3296 67.3137 14.3296C70.3162 14.3296 72.5908 15.2247 74.6949 17.4459L72.1684 20.4753C70.7923 19.0624 69.2212 18.3694 67.3137 18.3694C63.8043 18.3694 61.5605 21.2252 61.5605 25.0913C61.5605 29.4184 63.6093 32.0437 67.3982 32.0437C69.9799 32.0437 71.2439 30.9181 72.5631 29.6489L75.1449 32.6784C73.2358 34.7843 70.9628 36.0819 67.3982 36.0819H67.3966Z" fill="#1A1F18"/>
<path d="M99.9808 35.7352V23.5906C99.9808 22.8976 100.036 22.2345 100.065 22.1477C100.038 22.2345 99.8687 22.6387 99.7013 22.956L95.1261 31.5818H93.4137L88.754 22.956C88.585 22.6671 88.4161 22.2629 88.3885 22.1477C88.3885 22.2345 88.4729 22.8976 88.4729 23.5906V35.7352H83.9822V14.6743H88.3885L93.9174 24.9451C94.114 25.3192 94.2829 25.8102 94.3106 25.897C94.3106 25.8386 94.4795 25.3192 94.6761 24.9451L99.8964 14.6743H104.472V35.7336H99.9808V35.7352Z" fill="#1A1F18"/>
<path d="M108.457 35.7352V14.6743H112.948V35.7336H108.457V35.7352Z" fill="#1A1F18"/>
<path d="M130.909 35.7348L121.872 23.4734C121.619 23.0992 121.395 22.6951 121.367 22.6367C121.367 22.6651 121.424 23.1845 121.424 23.6755V35.7348H116.933V14.6739H120.806L129.843 26.8186C130.124 27.1943 130.321 27.5968 130.349 27.6837C130.349 27.6553 130.292 27.1359 130.292 26.6165V14.6724H134.782V35.7317H130.909V35.7348Z" fill="#1A1F18"/>
<path d="M144.971 35.7352H138.77V14.6743H144.971C150.809 14.6743 155.637 18.3668 155.637 25.1756C155.637 31.9843 150.417 35.7336 144.971 35.7336V35.7352ZM144.971 18.5689H143.26V31.8391H144.971C148.788 31.8391 151.005 28.7228 151.005 25.1756C151.005 21.6283 148.563 18.5689 144.971 18.5689Z" fill="#1A1F18"/>
<path d="M164.254 36.0811C161.419 36.0811 159.342 35.0139 157.376 33.4558L159.706 30.2242C160.913 31.2046 162.653 32.0413 164.337 32.0413C166.385 32.0413 166.947 31.3198 166.947 30.0506C166.947 27.9447 163.214 27.2232 161.503 26.2429C159.454 25.0889 157.826 23.7612 157.826 20.4145C157.826 16.0874 161.503 14.3271 165.123 14.3271C167.06 14.3271 169.389 14.8749 171.045 16.1442L169.024 19.5778C168.125 18.8847 166.61 18.3654 165.123 18.3654C163.046 18.3654 162.317 19.5778 162.317 20.4129C162.317 22.3167 164.926 22.8945 167.313 23.9617C169.307 24.8552 171.44 26.2981 171.44 29.7601C171.44 33.7415 168.689 36.0779 164.255 36.0779L164.254 36.0811Z" fill="#1A1F18"/>
<path d="M11.545 23.3476C14.093 22.9624 14.4954 26.9374 12.0933 27.1947C9.56075 27.4663 9.22134 23.698 11.545 23.3476Z" fill="#1A1F18"/>
<path d="M12.2144 18.8445C13.397 18.5335 14.5673 19.7396 14.3799 20.9646C14.0251 23.2695 10.5849 22.8638 10.8429 20.4531C10.9197 19.7317 11.5325 19.0245 12.2144 18.8445Z" fill="#1A1F18"/>
<path d="M12.2667 28.063C14.8469 27.6541 15.1694 31.3861 12.8672 31.7002C11.1947 31.9276 10.1549 29.6985 11.4312 28.5287C11.6201 28.3566 12.0225 28.1025 12.2667 28.0646V28.063Z" fill="#1A1F18"/>
<path d="M14.6886 32.1419C15.4365 32.0298 16.4409 32.6581 16.5961 33.438C17.0384 35.6607 14.085 36.4264 13.3678 34.5841C12.9623 33.5437 13.5981 32.3045 14.6886 32.1419Z" fill="#1A1F18"/>
<path d="M14.4813 14.9246C16.3719 14.5962 17.3503 17.0005 15.8006 18.0819C14.5781 18.936 12.9486 17.8214 13.179 16.3391C13.2788 15.6981 13.847 15.0335 14.4813 14.9246Z" fill="#1A1F18"/>
<path d="M18.2426 35.2138C18.9813 35.0969 19.8998 35.7805 20.0042 36.5556C20.2392 38.3016 18.2088 39.2678 17.1768 37.9275C16.3858 36.8998 17.0017 35.4111 18.2442 35.2138H18.2426Z" fill="#1A1F18"/>
<path d="M18.3991 11.9602C19.878 11.9839 20.4816 13.9762 19.2868 14.9391C18.0919 15.9021 16.4178 14.7165 16.7649 13.2468C16.9584 12.4228 17.5789 11.9476 18.3991 11.9602Z" fill="#1A1F18"/>
<path d="M22.4693 36.9113C23.8546 36.7345 24.7485 38.2863 23.893 39.434C23.4154 40.075 22.4739 40.2265 21.8135 39.7813C20.7108 39.0378 21.0855 37.0881 22.4693 36.9113Z" fill="#1A1F18"/>
<path d="M22.5246 10.4229C24.2094 10.3393 24.7746 12.8446 23.1512 13.4556C20.8874 14.3049 20.2316 10.5366 22.5246 10.4229Z" fill="#1A1F18"/>
<path d="M28.2331 39.4195C28.0334 39.6279 27.6356 39.8363 27.35 39.8615C26.0015 39.9815 25.3334 38.1692 26.4531 37.2978C27.7278 36.3064 29.3865 38.2103 28.2331 39.4195Z" fill="#1A1F18"/>
<path d="M27.0028 10.5251C27.2071 10.4888 27.7416 10.7019 27.9167 10.8329C28.9195 11.5812 28.511 13.2941 27.2455 13.3746C25.4685 13.4882 25.2336 10.8377 27.0013 10.5251H27.0028Z" fill="#1A1F18"/>
<path d="M16.1308 23.8239C17.5314 23.5776 18.2441 25.4042 17.2427 26.1856C15.7391 27.3585 14.191 25.1011 15.6316 24.0528C15.7422 23.9723 15.9987 23.846 16.1308 23.8239Z" fill="#1A1F18"/>
<path d="M17.4195 19.5322C17.6836 19.4959 18.1014 19.6348 18.3041 19.8147C19.2763 20.6751 18.4623 22.2617 17.163 21.8875C15.9405 21.5371 16.1325 19.7106 17.4179 19.5306L17.4195 19.5322Z" fill="#1A1F18"/>
<path d="M18.4438 30.3627C17.4332 31.5325 15.5749 29.9807 16.6837 28.7383C17.7204 27.5764 19.4666 29.1803 18.4438 30.3627Z" fill="#1A1F18"/>
<path d="M31.1236 12.3824C32.0773 12.1819 32.856 13.1354 32.4521 14.0653C32.3138 14.3826 31.7579 14.7867 31.4169 14.8041C31.2127 14.8136 30.6014 14.4647 30.4678 14.3036C29.9763 13.7164 30.3664 12.5403 31.1236 12.3808V12.3824Z" fill="#1A1F18"/>
<path d="M31.4799 35.6445C32.4997 35.6414 33.0203 36.9027 32.3231 37.6652C31.9453 38.0788 31.1651 38.1215 30.7488 37.7426C29.9579 37.0211 30.391 35.6477 31.4784 35.6445H31.4799Z" fill="#1A1F18"/>
<path d="M20.4067 31.6634C21.3005 31.5055 21.8565 32.0912 21.7597 33.0021C21.6568 33.9793 20.2915 34.2318 19.7493 33.4267C19.3377 32.8158 19.6648 31.796 20.4067 31.6649V31.6634Z" fill="#1A1F18"/>
<path d="M20.5125 16.4125C21.3526 16.3367 21.8564 16.864 21.7458 17.7338C21.669 18.34 21.0854 18.7442 20.5094 18.6621C20.1577 18.6116 19.8828 18.4253 19.7062 18.1095C19.5403 17.8128 19.5311 17.1592 19.7262 16.875C19.7523 16.8371 20.1362 16.4898 20.1639 16.4772C20.2315 16.4456 20.4265 16.4204 20.5125 16.4125Z" fill="#1A1F18"/>
<path d="M24.6823 15.3481C25.1599 15.2471 25.4978 15.3955 25.7773 15.787C26.3487 16.5874 25.4656 17.653 24.541 17.2694C23.6748 16.911 23.8361 15.5281 24.6808 15.3481H24.6823Z" fill="#1A1F18"/>
<path d="M24.8406 32.9337C25.8803 32.8279 26.3672 34.1572 25.547 34.776C25.1324 35.0886 24.3829 34.9717 24.1202 34.4966C23.7732 33.8683 24.1156 33.0079 24.8421 32.9337H24.8406Z" fill="#1A1F18"/>
<path d="M21.2297 25.862C21.1545 25.9236 20.7245 26.0341 20.6154 26.0262C20.0333 25.9836 19.7845 25.5084 19.8521 24.9495C19.935 24.2612 20.875 24.0481 21.325 24.5501C21.6091 24.8674 21.5523 25.5984 21.2313 25.862H21.2297Z" fill="#1A1F18"/>
<path d="M29.2192 31.8747C29.5202 31.8573 29.961 32.1715 30.067 32.4604C30.3511 33.2371 29.402 34.0375 28.7139 33.4265C28.118 32.8977 28.4636 31.9158 29.2177 31.8747H29.2192Z" fill="#1A1F18"/>
<path d="M28.6293 16.8905C29.0363 16.48 29.5877 16.5952 29.9255 17.031C30.268 17.473 30.1037 17.9576 29.6675 18.2497C28.8336 18.8085 27.9535 17.5724 28.6293 16.8905Z" fill="#1A1F18"/>
<path d="M34.7297 32.988C35.4408 32.838 36.0505 33.4742 35.7234 34.1688C35.2964 35.0749 34.0094 34.7197 34.1292 33.6952C34.163 33.4047 34.4471 33.0464 34.7297 32.988Z" fill="#1A1F18"/>
<path d="M42.6131 21.4921C42.8896 21.4368 43.3012 21.6389 43.4425 21.8868C43.9785 22.8261 42.6776 23.748 42.0679 22.7708C41.7485 22.2577 42.0602 21.6026 42.6131 21.4921Z" fill="#1A1F18"/>
<path d="M43.3302 27.6965C44.0444 28.4306 43.0077 29.7046 42.186 28.8995C41.3858 28.1149 42.6114 26.9577 43.3302 27.6965Z" fill="#1A1F18"/>
<path d="M6.2172 27.6967C6.93596 26.9579 8.16155 28.1135 7.36138 28.8997C6.53972 29.7048 5.50304 28.4308 6.2172 27.6967Z" fill="#1A1F18"/>
<path d="M6.65319 21.3329C6.95728 21.3029 7.27827 21.516 7.42878 21.7797C7.88953 22.5879 6.79602 23.4957 6.12794 22.7458C5.68255 22.2469 5.99739 21.3992 6.65319 21.3329Z" fill="#1A1F18"/>
<path d="M9.46381 33.525C10.2041 32.7136 11.4896 34.0586 10.502 34.7785C9.71415 35.3531 8.80034 34.2528 9.46381 33.525Z" fill="#1A1F18"/>
<path d="M40.0836 33.5249C40.7471 34.2526 39.8333 35.3514 39.0454 34.7783C38.0578 34.0584 39.3433 32.715 40.0836 33.5249Z" fill="#1A1F18"/>
<path d="M40.0836 17.1196C39.3556 17.9168 38.0593 16.6208 39.0453 15.8662C39.8086 15.2821 40.7501 16.3903 40.0836 17.1196Z" fill="#1A1F18"/>
<path d="M25.1999 6.28982C26.1322 6.18563 26.4624 7.5559 25.5486 7.86848C24.4243 8.25367 24.0603 6.41611 25.1999 6.28982Z" fill="#1A1F18"/>
<path d="M9.89864 15.5597C10.9415 15.454 11.0428 17.0437 10.1382 17.1873C8.96332 17.372 8.87271 15.6639 9.89864 15.5597Z" fill="#1A1F18"/>
<path d="M17.9325 6.767C19.2272 6.4639 19.347 8.51142 18.0293 8.33934C17.2107 8.23357 17.1615 6.94697 17.9325 6.767Z" fill="#1A1F18"/>
<path d="M13.3985 38.2845C14.1434 38.1093 14.7485 39.0533 14.1634 39.6532C13.6458 40.1821 12.7274 39.7795 12.798 38.9949C12.8241 38.7139 13.1344 38.3461 13.3985 38.2845Z" fill="#1A1F18"/>
<path d="M35.7601 38.286C36.442 38.1408 36.9764 38.8575 36.6386 39.5063C36.2638 40.2231 35.0183 39.8789 35.1596 38.9396C35.1979 38.6854 35.5159 38.3381 35.7601 38.286Z" fill="#1A1F18"/>
<path d="M25.1477 42.6305C25.4426 42.5911 25.6668 42.6353 25.8741 42.8626C26.6451 43.7151 25.3366 44.686 24.7269 43.9898C24.2969 43.4988 24.5103 42.7158 25.1492 42.6305H25.1477Z" fill="#1A1F18"/>
<path d="M35.6573 10.7943C36.5557 10.5591 37.124 11.5647 36.4682 12.1567C35.6926 12.856 34.682 11.7083 35.3854 10.99C35.4407 10.9332 35.5897 10.8116 35.6573 10.7927V10.7943Z" fill="#1A1F18"/>
<path d="M31.0712 6.92604C32.5333 6.61189 32.3045 8.95935 30.9668 8.43839C30.3248 8.18897 30.374 7.07443 31.0712 6.92604Z" fill="#1A1F18"/>
<path d="M31.1235 42.1539C32.4136 41.9281 32.3998 44.0767 31.0329 43.7057C30.3065 43.5084 30.3556 42.2881 31.1235 42.1539Z" fill="#1A1F18"/>
<path d="M18.0353 42.1526C18.7848 41.9932 19.2594 42.7194 18.9384 43.3982C18.8893 43.5024 18.5882 43.6934 18.4761 43.7171C17.249 43.9807 17.2014 42.3294 18.0353 42.1526Z" fill="#1A1F18"/>
<path d="M13.1942 10.6344C14.0419 10.4149 14.6732 11.2958 14.1034 11.9399C13.5182 12.6014 12.4877 11.9999 12.7918 11.0685C12.8409 10.9154 13.0406 10.6738 13.1926 10.6344H13.1942Z" fill="#1A1F18"/>
<path d="M34.7298 15.7733C35.8371 15.5397 36.0014 17.4956 34.7221 17.2936C33.9588 17.1736 33.9511 15.9375 34.7298 15.7733Z" fill="#1A1F18"/>
<path d="M22.5689 28.2725C23.7899 27.9868 23.8421 29.7233 22.8162 29.6964C21.9362 29.6728 21.9346 28.4225 22.5689 28.2725Z" fill="#1A1F18"/>
<path d="M22.3418 20.7551C22.6966 20.4283 23.4061 20.6304 23.4983 21.1482C23.701 22.2753 22.0208 22.3669 22.1176 21.2429C22.1283 21.1245 22.2604 20.8309 22.3418 20.7567V20.7551Z" fill="#1A1F18"/>
<path d="M36.7674 29.3355C36.9717 29.1287 37.3879 29.1082 37.6045 29.3197C37.8671 29.5754 37.8732 29.9259 37.6306 30.1958C37.2942 30.5684 36.6415 30.2937 36.6154 29.817C36.6108 29.7222 36.706 29.3986 36.7674 29.3355Z" fill="#1A1F18"/>
<path d="M36.995 20.0086C38.1069 19.745 37.8827 21.5699 36.9044 21.0868C36.4191 20.8469 36.5389 20.1175 36.995 20.0086Z" fill="#1A1F18"/>
<path d="M37.7168 24.6166C38.0915 24.5046 38.4908 24.6245 38.5538 25.0602C38.689 26.0059 37.2054 25.979 37.4342 24.9624C37.4572 24.8613 37.6216 24.6466 37.7168 24.6182V24.6166Z" fill="#1A1F18"/>
<path d="M26.9491 28.4323C27.7631 28.2429 27.8215 29.5547 27.0474 29.4774C26.4285 29.4158 26.4346 28.5507 26.9491 28.4323Z" fill="#1A1F18"/>
<path d="M27.4113 21.7828C26.9122 22.1412 26.2195 21.3661 26.7601 20.9272C27.4113 20.3984 27.8798 21.4466 27.4113 21.7828Z" fill="#1A1F18"/>
<path d="M32.2553 29.12C32.8543 28.9795 33.0048 29.7768 32.5302 29.9315C31.899 30.1383 31.7654 29.2353 32.2553 29.12Z" fill="#1A1F18"/>
<path d="M32.2033 20.3272C32.8191 20.1393 33.0633 21.0312 32.4367 21.1528C31.9068 21.257 31.7625 20.4613 32.2033 20.3272Z" fill="#1A1F18"/>
<path d="M33.3903 24.7222C34.0676 24.5707 34.1091 25.6441 33.4349 25.5589C33.0171 25.5052 32.9726 24.8169 33.3903 24.7222Z" fill="#1A1F18"/>
<path d="M29.4741 24.9372C29.6691 25.1487 29.5094 25.4708 29.1639 25.3903C28.6601 25.2734 29.1209 24.5536 29.4741 24.9372Z" fill="#1A1F18"/>
<path d="M24.9805 24.9466C25.2554 24.9576 25.2001 25.3744 24.9313 25.3507C24.6902 25.3286 24.661 24.934 24.9805 24.9466Z" fill="#1A1F18"/>
<path d="M18.0828 3.50543C18.9327 3.50543 19.6217 2.79723 19.6217 1.92361C19.6217 1.05 18.9327 0.341797 18.0828 0.341797C17.2329 0.341797 16.5439 1.05 16.5439 1.92361C16.5439 2.79723 17.2329 3.50543 18.0828 3.50543Z" fill="#1A1F18"/>
<path d="M10.7725 8.7652C11.6224 8.7652 12.3114 8.05699 12.3114 7.18338C12.3114 6.30977 11.6224 5.60156 10.7725 5.60156C9.92263 5.60156 9.23364 6.30977 9.23364 7.18338C9.23364 8.05699 9.92263 8.7652 10.7725 8.7652Z" fill="#1A1F18"/>
<path d="M5.83015 14.6392C6.68006 14.6392 7.36905 13.931 7.36905 13.0574C7.36905 12.1838 6.68006 11.4756 5.83015 11.4756C4.98025 11.4756 4.29126 12.1838 4.29126 13.0574C4.29126 13.931 4.98025 14.6392 5.83015 14.6392Z" fill="#1A1F18"/>
<path d="M1.53889 22.3135C2.3888 22.3135 3.07779 21.6053 3.07779 20.7317C3.07779 19.8581 2.3888 19.1499 1.53889 19.1499C0.688987 19.1499 0 19.8581 0 20.7317C0 21.6053 0.688987 22.3135 1.53889 22.3135Z" fill="#1A1F18"/>
<path d="M1.53889 30.1636C2.3888 30.1636 3.07779 29.4554 3.07779 28.5818C3.07779 27.7082 2.3888 27 1.53889 27C0.688987 27 0 27.7082 0 28.5818C0 29.4554 0.688987 30.1636 1.53889 30.1636Z" fill="#1A1F18"/>
<path d="M3.95027 36.9805C4.80018 36.9805 5.48917 36.2723 5.48917 35.3987C5.48917 34.5251 4.80018 33.8169 3.95027 33.8169C3.10036 33.8169 2.41138 34.5251 2.41138 35.3987C2.41138 36.2723 3.10036 36.9805 3.95027 36.9805Z" fill="#1A1F18"/>
<path d="M9.19661 43.6475C10.0465 43.6475 10.7355 42.9393 10.7355 42.0657C10.7355 41.1921 10.0465 40.4839 9.19661 40.4839C8.3467 40.4839 7.65771 41.1921 7.65771 42.0657C7.65771 42.9393 8.3467 43.6475 9.19661 43.6475Z" fill="#1A1F18"/>
<path d="M17.8341 49.6421C18.684 49.6421 19.373 48.9339 19.373 48.0603C19.373 47.1867 18.684 46.4785 17.8341 46.4785C16.9842 46.4785 16.2952 47.1867 16.2952 48.0603C16.2952 48.9339 16.9842 49.6421 17.8341 49.6421Z" fill="#1A1F18"/>
<path d="M26.4823 49.8907C27.3322 49.8907 28.0211 49.1825 28.0211 48.3089C28.0211 47.4353 27.3322 46.7271 26.4823 46.7271C25.6323 46.7271 24.9434 47.4353 24.9434 48.3089C24.9434 49.1825 25.6323 49.8907 26.4823 49.8907Z" fill="#1A1F18"/>
<path d="M33.0079 49.8907C33.8578 49.8907 34.5468 49.1825 34.5468 48.3089C34.5468 47.4353 33.8578 46.7271 33.0079 46.7271C32.158 46.7271 31.469 47.4353 31.469 48.3089C31.469 49.1825 32.158 49.8907 33.0079 49.8907Z" fill="#1A1F18"/>
<path d="M39.1883 44.4844C40.0382 44.4844 40.7272 43.7762 40.7272 42.9026C40.7272 42.029 40.0382 41.3208 39.1883 41.3208C38.3384 41.3208 37.6494 42.029 37.6494 42.9026C37.6494 43.7762 38.3384 44.4844 39.1883 44.4844Z" fill="#1A1F18"/>
<path d="M44.2043 37.8066C44.7319 37.8066 45.1596 37.367 45.1596 36.8247C45.1596 36.2824 44.7319 35.8428 44.2043 35.8428C43.6767 35.8428 43.249 36.2824 43.249 36.8247C43.249 37.367 43.6767 37.8066 44.2043 37.8066Z" fill="#1A1F18"/>
<path d="M47.9516 29.6967C48.3715 29.6967 48.7119 29.3468 48.7119 28.9152C48.7119 28.4836 48.3715 28.1338 47.9516 28.1338C47.5318 28.1338 47.1914 28.4836 47.1914 28.9152C47.1914 29.3468 47.5318 29.6967 47.9516 29.6967Z" fill="#1A1F18"/>
<path d="M47.9516 21.4182C48.178 21.4182 48.3616 21.2295 48.3616 20.9967C48.3616 20.7639 48.178 20.5752 47.9516 20.5752C47.7251 20.5752 47.5415 20.7639 47.5415 20.9967C47.5415 21.2295 47.7251 21.4182 47.9516 21.4182Z" fill="#1A1F18"/>
<path d="M44.2043 14.5227C44.6292 14.5227 44.9737 14.1686 44.9737 13.7318C44.9737 13.295 44.6292 12.9409 44.2043 12.9409C43.7793 12.9409 43.4348 13.295 43.4348 13.7318C43.4348 14.1686 43.7793 14.5227 44.2043 14.5227Z" fill="#1A1F18"/>
<path d="M39.4093 8.60203C40.0879 8.60203 40.638 8.0366 40.638 7.3391C40.638 6.6416 40.0879 6.07617 39.4093 6.07617C38.7308 6.07617 38.1807 6.6416 38.1807 7.3391C38.1807 8.0366 38.7308 8.60203 39.4093 8.60203Z" fill="#1A1F18"/>
<path d="M33.5223 3.50543C34.3722 3.50543 35.0612 2.79723 35.0612 1.92361C35.0612 1.05 34.3722 0.341797 33.5223 0.341797C32.6724 0.341797 31.9834 1.05 31.9834 1.92361C31.9834 2.79723 32.6724 3.50543 33.5223 3.50543Z" fill="#1A1F18"/>
<path d="M25.8697 3.16363C26.7196 3.16363 27.4086 2.45543 27.4086 1.58182C27.4086 0.708204 26.7196 0 25.8697 0C25.0198 0 24.3308 0.708204 24.3308 1.58182C24.3308 2.45543 25.0198 3.16363 25.8697 3.16363Z" fill="#1A1F18"/>
</svg>
