<svg width="318" height="118" viewBox="0 0 318 118" fill="none" xmlns="http://www.w3.org/2000/svg">
<g clip-path="url(#clip0_113_554)">
<path d="M0 0.849121H11.662L22.0294 28.4364C23.6846 32.9046 25.412 37.7956 26.4216 41.0596L31.0301 28.2943L41.109 0.849121H52.6989L30.8824 53.3278H21.9539L0 0.849121Z" fill="#13306B"/>
<path d="M59.9746 0.849121H70.7747V53.3278H59.9746V0.849121Z" fill="#13306B"/>
<path d="M93.807 10.5635H78.3984V0.849121H120.229V10.5635H104.82V53.3244H93.8036V10.5635H93.807Z" fill="#13306B"/>
<path d="M126.203 23.6839C126.203 8.79104 134.771 6.10352e-05 149.459 6.10352e-05C164.146 6.10352e-05 172.57 8.79442 172.57 23.6839V53.3277H161.77V39.2161H137.003V53.3277H126.203V23.6839ZM161.77 29.5018V23.6873C161.77 14.893 157.377 9.71783 149.459 9.71783C141.54 9.71783 137.003 14.8964 137.003 23.6873V29.5018H161.77Z" fill="#13306B"/>
<path d="M183.367 0.849121H194.167V43.61H218.429V53.3244H183.367V0.849121Z" fill="#13306B"/>
<path d="M1.15137 90.9073C1.15137 74.8102 11.3024 63.8173 28.4383 63.8173C45.5742 63.8173 55.7253 74.8102 55.7253 90.9073C55.7253 107.004 45.5742 117.997 28.4383 117.997C11.3024 117.997 1.15137 106.933 1.15137 90.9073ZM44.4238 90.9073C44.4238 80.4115 38.9534 73.5316 28.4418 73.5316C17.9301 73.5316 12.4597 80.4115 12.4597 90.9073C12.4597 101.403 17.9301 108.283 28.4418 108.283C38.9534 108.283 44.4238 101.403 44.4238 90.9073Z" fill="#13306B"/>
<path d="M61.0503 90.9072C61.0503 74.7391 71.1292 63.8172 88.1209 63.8172C94.5289 63.8172 101.727 65.9448 106.191 69.6316L101.438 77.8577C97.1181 74.7391 93.0145 73.5316 88.3338 73.5316C78.4713 73.5316 72.3518 80.3404 72.3518 90.9072C72.3518 101.474 78.327 108.283 88.3338 108.283C93.3029 108.283 98.4128 106.155 102.228 102.184L108.203 110.268C103.09 115.305 95.8922 117.997 87.3963 117.997C70.9095 117.997 61.0469 107.004 61.0469 90.9072H61.0503Z" fill="#13306B"/>
<path d="M116.772 64.6665H154.355V74.3809H127.573V85.6546H152.483V95.1559H127.573V107.424H155.364V117.138H116.772V64.6597V64.6665Z" fill="#13306B"/>
<path d="M164.296 87.5045C164.296 72.6116 172.864 63.8172 187.551 63.8172C202.239 63.8172 210.662 72.6116 210.662 87.5045V117.148H199.862V103.037H175.096V117.148H164.296V87.5045ZM199.862 93.3189V87.5045C199.862 78.7101 195.47 73.535 187.551 73.535C179.632 73.535 175.096 78.7101 175.096 87.5045V93.3189H199.862Z" fill="#13306B"/>
<path d="M221.604 64.6663H229.162L256.737 83.3171V64.6663H267.537V117.145H256.737V95.5852L232.404 79.204V117.145H221.604V64.6663Z" fill="#13306B"/>
<path d="M276.819 111.824L281.716 103.456C286.613 107.64 292.805 108.422 297.554 108.422C303.746 108.422 307.056 106.081 307.056 102.536C307.056 98.423 301.225 96.7216 296.472 95.4465C287.616 93.0348 277.898 89.9161 277.898 79.1363C277.898 69.7771 285.099 63.8172 297.554 63.8172C303.818 63.8172 310.009 64.9503 315.913 68.5695L311.593 76.8667C306.696 74.0998 301.586 73.3929 297.554 73.3929C292.228 73.3929 288.842 75.4494 288.842 78.6391C288.842 82.397 293.955 83.8852 298.993 85.3059C308.21 87.8596 318 91.0493 318 101.829C318 111.472 310.871 117.997 297.554 117.997C290.786 117.997 283.083 116.722 276.819 111.828V111.824Z" fill="#13306B"/>
<path d="M317.777 16.9243V26.4797C316.025 25.9892 314.415 25.1199 312.66 24.6193C295.404 19.6945 290.016 32.2468 274.016 34.5231C262.32 36.1873 258.683 32.8319 249.377 27.8361C242.083 23.9192 232.839 21.9472 225.232 26.1245L225.054 25.6003C233.519 20.0023 242.636 15.8926 253.106 17.7936C264.456 19.8535 274.02 30.0076 285.963 28.9523C291.75 28.4415 296.128 24.0883 301.001 21.4669C306.111 18.717 311.884 16.7518 317.777 16.9243Z" fill="url(#paint0_linear_113_554)"/>
<path d="M317.059 9.85147C308.058 17.0392 294.013 20.5332 282.825 16.8396C277.993 15.2431 273.831 11.5055 269.03 9.54367C262.392 6.82757 255.37 6.39123 248.776 9.48955C256.843 3.18467 266.506 -0.275571 276.891 1.44948C289.027 3.46542 300.864 16.3187 313.663 11.634C314.985 11.1503 315.768 10.1863 317.059 9.85147Z" fill="url(#paint1_linear_113_554)"/>
<path d="M317.772 50.5409C313.895 50.6323 309.592 50.2602 305.921 48.941C301.587 47.3851 297.779 43.9485 293.462 42.0983C286.776 39.23 279.314 38.4284 272.49 41.3373C281.034 34.7145 292.164 31.173 302.95 34.1699C308.094 35.6007 313.057 38.7362 317.772 41.1614V50.5409Z" fill="url(#paint2_linear_113_554)"/>
<path d="M225.057 33.5569C240.795 32.7857 252.801 50.5232 268.9 43.4708C260.249 49.8602 248.127 52.8097 237.554 49.7385C232.911 48.3889 229.023 45.5307 225.054 42.9364V33.5569H225.057Z" fill="url(#paint3_linear_113_554)"/>
<path d="M225.054 9.84454C231.548 11.8842 237.595 14.5157 244.46 11.9721C239.02 16.0209 231.829 18.1552 225.054 18.693V9.84454Z" fill="url(#paint4_linear_113_554)"/>
</g>
<defs>
<linearGradient id="paint0_linear_113_554" x1="225.054" y1="25.9351" x2="317.777" y2="25.9351" gradientUnits="userSpaceOnUse">
<stop stop-color="#BADCE7"/>
<stop offset="0.11" stop-color="#8CC7D4"/>
<stop offset="0.24" stop-color="#5FB3C2"/>
<stop offset="0.31" stop-color="#4EACBC"/>
<stop offset="0.42" stop-color="#3E8DA8"/>
<stop offset="0.6" stop-color="#29608B"/>
<stop offset="0.77" stop-color="#194077"/>
<stop offset="0.91" stop-color="#0F2D6A"/>
<stop offset="1" stop-color="#0C2666"/>
</linearGradient>
<linearGradient id="paint1_linear_113_554" x1="248.776" y1="9.66882" x2="317.059" y2="9.66882" gradientUnits="userSpaceOnUse">
<stop stop-color="#80D0DE"/>
<stop offset="0.12" stop-color="#79C6D7"/>
<stop offset="0.32" stop-color="#68ADC5"/>
<stop offset="0.57" stop-color="#4C84A7"/>
<stop offset="0.87" stop-color="#264B7F"/>
<stop offset="1" stop-color="#13306B"/>
</linearGradient>
<linearGradient id="paint2_linear_113_554" x1="272.49" y1="41.8244" x2="317.772" y2="41.8244" gradientUnits="userSpaceOnUse">
<stop stop-color="#80D0DE"/>
<stop offset="0.54" stop-color="#467BA1"/>
<stop offset="1" stop-color="#13306B"/>
</linearGradient>
<linearGradient id="paint3_linear_113_554" x1="225.057" y1="42.2464" x2="268.903" y2="42.2464" gradientUnits="userSpaceOnUse">
<stop stop-color="#C2E3EC"/>
<stop offset="1" stop-color="#52B6C4"/>
</linearGradient>
<linearGradient id="paint4_linear_113_554" x1="225.054" y1="14.2688" x2="244.46" y2="14.2688" gradientUnits="userSpaceOnUse">
<stop stop-color="#C2E3EC"/>
<stop offset="1" stop-color="#9DD3DE"/>
</linearGradient>
<clipPath id="clip0_113_554">
<rect width="318" height="118" fill="white"/>
</clipPath>
</defs>
</svg>
