<svg width="438" height="54" viewBox="0 0 438 54" fill="none" xmlns="http://www.w3.org/2000/svg">
<path d="M45.8328 52.7322L12.7832 26.1811L12.8184 52.5736H0V0L33.0848 24.7188V0.722359L45.8152 0.810451V52.7146L45.8328 52.7322Z" fill="#101511"/>
<path d="M78.9529 51.6046C78.1606 51.9569 77.5971 52.1684 77.2274 52.2917C74.639 53.2783 71.9274 53.7893 69.1102 53.7893C65.3774 53.7893 61.8559 52.926 58.5456 51.1817C55.2354 49.4199 52.5766 47.0414 50.6398 44.011C48.6677 40.9454 47.6641 37.4921 47.6641 33.7218C47.6641 30.8676 48.2275 28.2072 49.3896 25.7406C50.5341 23.2916 52.1188 21.1774 54.1261 19.3627C56.0981 17.5656 58.3871 16.1738 60.9931 15.2224C63.599 14.2357 66.3106 13.7248 69.1102 13.7248C71.9098 13.7248 74.6038 14.2181 77.2274 15.1871C79.8509 16.1561 82.1575 17.548 84.0943 19.3451C86.1368 21.2127 87.7391 23.3269 88.8484 25.723C89.9929 28.1896 90.574 30.8324 90.574 33.7042L90.5388 52.7674L78.9353 52.6617V51.5693V51.6046H78.9529ZM60.7113 29.0177C59.7957 30.4447 59.3556 32.0304 59.3556 33.757C59.3556 36.3469 60.324 38.5669 62.2784 40.4521C64.1977 42.3196 66.4867 43.2358 69.1278 43.2358C71.769 43.2358 74.0756 42.302 75.9948 40.4521C77.9493 38.5669 78.9177 36.3469 78.9177 33.757C78.9177 32.0657 78.4775 30.48 77.5619 29.0177C76.6463 27.5906 75.4666 26.4277 73.9523 25.582C72.4557 24.754 70.8534 24.3311 69.1278 24.3311C67.4023 24.3311 65.8528 24.754 64.3385 25.582C62.8243 26.4277 61.6093 27.5906 60.729 29.0177H60.7113Z" fill="#101511"/>
<path d="M98.3215 25.212H90.6094L93.2329 15.1871H98.3215V0.757568L109.995 0.84566V15.2047H117.76L115.154 25.2297H109.995V37.6507C109.995 40.963 112.073 42.6191 116.211 42.6191C117.549 42.6191 118.57 42.4606 119.275 42.1258L115.894 53.7716C115.295 53.8773 114.679 53.9126 114.098 53.9126C110.594 53.9126 107.706 53.3488 105.382 52.2388C103.04 51.1289 101.28 49.4199 100.065 47.1471C98.8674 44.9095 98.2687 42.0377 98.2687 38.5493V25.2297H98.2863L98.3215 25.212Z" fill="#101511"/>
<path d="M137.268 43.2005H137.937C140.913 43.0948 142.41 41.0334 142.41 37.0164V15.2047H154.119V37.0164C154.119 47.6404 148.731 53.2254 137.955 53.8245H137.286C126.51 53.2431 121.122 47.6404 121.122 37.0164V15.2047H132.831V37.0164C132.831 41.0334 134.328 43.0948 137.304 43.2005H137.268Z" fill="#101511"/>
<path d="M175.143 24.983C174.544 24.5778 173.752 24.3311 172.766 24.2959H172.097C169.121 24.4192 167.624 26.4982 167.624 30.5152V52.6969H155.915V30.5152C155.915 19.856 161.303 14.2533 172.079 13.7072H172.748C173.558 13.7248 174.35 13.8129 175.125 13.9362V25.0006L175.143 24.983Z" fill="#101511"/>
<path d="M208.246 51.6046C207.454 51.9569 206.89 52.1684 206.52 52.2917C203.932 53.2783 201.22 53.7893 198.403 53.7893C194.67 53.7893 191.149 52.926 187.839 51.1817C184.528 49.4199 181.87 47.0414 179.933 44.011C177.961 40.9454 176.957 37.4921 176.957 33.7218C176.957 30.8676 177.52 28.2072 178.683 25.7406C179.827 23.2916 181.412 21.1774 183.419 19.3627C185.391 17.5656 187.68 16.1738 190.286 15.2224C192.892 14.2357 195.604 13.7248 198.403 13.7248C201.203 13.7248 203.897 14.2181 206.52 15.1871C209.144 16.1561 211.45 17.548 213.387 19.3451C215.43 21.2127 217.032 23.3269 218.141 25.723C219.286 28.1896 219.867 30.8324 219.867 33.7042L219.832 52.7674L208.228 52.6617V51.5693V51.6046H208.246ZM190.004 29.0177C189.089 30.4447 188.649 32.0304 188.649 33.757C188.649 36.3469 189.617 38.5669 191.571 40.4521C193.491 42.3196 195.78 43.2358 198.421 43.2358C201.062 43.2358 203.369 42.302 205.288 40.4521C207.242 38.5669 208.211 36.3469 208.211 33.757C208.211 32.0657 207.77 30.48 206.855 29.0177C205.939 27.5906 204.76 26.4277 203.245 25.582C201.749 24.754 200.146 24.3311 198.421 24.3311C196.695 24.3311 195.146 24.754 193.632 25.582C192.117 26.4277 190.902 27.5906 190.022 29.0177H190.004Z" fill="#101511"/>
<path d="M238.712 12.2541H228.728L225.541 0.432068H260.704L263.767 12.2541H251.442V52.3714H238.712V12.2541Z" fill="#101511"/>
<path d="M295.55 25.4852C296.641 27.9518 297.187 30.5769 297.187 33.3959V33.713C297.187 33.8364 297.187 33.9773 297.152 34.1183L297.064 34.7525H292.521V34.8406H267.342C267.624 36.8844 268.54 38.6638 270.001 40.1614C271.885 42.029 274.086 42.9451 276.586 42.9451C279.087 42.9451 281.323 42.0114 283.171 40.1614L283.26 40.0733L283.365 39.9324L283.471 39.8267L283.559 39.721L289.845 48.724C288.049 50.1863 286.2 51.2963 284.351 52.0539C281.869 53.0229 279.28 53.5162 276.586 53.5162C272.941 53.5162 269.578 52.6529 266.462 50.9087C263.275 49.1468 260.739 46.7507 258.891 43.6851C256.989 40.6371 256.038 37.2191 256.038 33.3959C256.038 30.5417 256.584 27.8989 257.676 25.4852C258.767 23.0362 260.282 20.922 262.218 19.1073C264.173 17.2397 266.356 15.8479 268.804 14.8965C271.304 13.9275 273.91 13.4341 276.604 13.4341C279.298 13.4341 281.886 13.9275 284.369 14.8965C286.834 15.8479 289.035 17.2397 290.989 19.0544C292.909 20.8339 294.423 22.9834 295.532 25.4676H295.55V25.4852ZM276.639 24.0052C275.002 24.0052 273.47 24.4281 272.026 25.2562C271.163 25.8023 270.283 26.5423 269.455 27.5289H283.805C282.978 26.5599 282.133 25.7847 281.235 25.2562C279.808 24.4281 278.259 24.0052 276.621 24.0052H276.639Z" fill="#101511"/>
<path d="M327.859 26.2075C326.802 25.3442 325.658 24.6747 324.425 24.2342C323.14 23.7938 321.767 23.5647 320.323 23.5647C317.629 23.5647 315.375 24.428 313.509 26.1723C311.625 27.9165 310.691 30.0483 310.691 32.6207C310.691 34.6292 311.096 36.4262 311.906 37.9943C312.699 39.58 313.843 40.8485 315.375 41.747C316.872 42.6984 318.58 43.1741 320.534 43.1741C323.404 43.1741 325.869 42.258 327.929 40.4256L334.339 48.5478C333.405 49.5168 332.12 50.3801 330.465 51.1553C328.792 51.8953 327.049 52.4767 325.271 52.8291C323.492 53.1991 321.837 53.3752 320.34 53.3752C316.097 53.3752 312.364 52.4943 309.107 50.7149C305.849 48.9178 303.367 46.5569 301.641 43.6146C299.898 40.6371 299.035 37.4481 299.035 34.0477C299.035 30.9469 299.563 28.1455 300.62 25.6437C301.694 23.0714 303.173 20.8867 305.039 19.0544C306.906 17.2749 309.142 15.8655 311.801 14.8436C314.424 13.8569 317.277 13.346 320.323 13.346C322.806 13.346 325.235 13.7336 327.595 14.5264C329.972 15.3369 332.102 16.4645 333.916 17.9268L327.841 26.1899L327.859 26.2075Z" fill="#101511"/>
<path d="M347.862 0.396362V17.0987C348.988 15.9535 350.362 15.055 352.017 14.3854C353.69 13.7159 355.415 13.3988 357.123 13.3988C366.526 13.3988 371.209 18.8958 371.209 29.925V52.4062L359.5 52.4414V30.7178C359.5 28.4802 358.99 26.7889 357.968 25.6613C356.947 24.5337 355.503 23.9875 353.637 23.9875C351.77 23.9875 350.432 24.5513 349.393 25.6613C348.337 26.7889 347.809 28.4802 347.809 30.7178V52.3886L336.1 52.4766V0.449217L347.809 0.41398H347.826L347.862 0.396362Z" fill="#101511"/>
<path d="M412.416 50.6089H389.156C382.342 50.6089 376.901 45.2177 376.901 38.4169C376.901 27.3349 376.901 16.2353 376.884 5.15322C376.884 3.86707 377.025 3.26804 378.574 3.28566C394.386 3.33851 410.198 3.30327 426.009 3.32089C432.471 3.32089 437.965 8.80025 437.965 15.231C437.982 26.4892 437.965 37.7827 438 49.0409C438 50.3623 437.613 50.6442 436.38 50.6266C428.386 50.5737 420.392 50.6089 412.398 50.6089H412.416ZM405.408 34.5585C408.578 34.5585 408.595 34.5585 409.616 36.9194C409.898 37.6065 410.286 37.8532 410.972 37.8355C411.694 37.8179 412.434 37.8355 413.156 37.8355C414.511 37.8355 414.952 37.2189 414.494 35.968C412.715 31.211 410.955 26.4364 409.141 21.7146C407.856 18.3495 408.754 19.1071 405.074 18.9661C403.894 18.9309 403.419 19.3537 403.014 20.4461C401.341 25.0974 399.545 29.731 397.802 34.3647C396.305 38.3465 396.129 37.8003 400.355 37.8355C401.077 37.8355 401.94 37.9412 402.045 36.9194C402.327 34.5937 403.771 34.1709 405.426 34.5585H405.408ZM423.262 18.5609C418.596 18.5433 414.811 21.6618 413.825 26.5068C412.98 30.6296 415.11 35.1399 418.808 37.1308C422.47 39.0688 426.995 38.4698 429.883 35.5804C430.288 35.1751 431.08 34.7523 430.675 34.118C430.024 33.0785 428.879 32.5147 427.858 31.8805C427.171 31.44 426.872 32.3386 426.379 32.6205C425.692 33.0257 425.041 33.4309 424.231 33.5719C421.871 33.9595 419.723 32.8847 418.649 30.7353C417.54 28.4625 418.015 26.0311 419.935 24.3221C421.731 22.7365 424.125 22.4898 426.097 24.005C427.207 24.8507 427.964 24.8331 428.862 23.9169C429.161 23.635 429.531 23.3884 429.901 23.1769C430.869 22.6308 430.816 22.067 430.059 21.3446C428.193 19.5475 426.044 18.4728 423.21 18.5609H423.227H423.262ZM390.318 26.1369C390.318 24.8683 390.336 23.5822 390.318 22.3136C390.213 18.3847 391.146 19.0014 386.867 18.8956C385.758 18.878 385.388 19.2656 385.406 20.358C385.441 25.6788 385.441 31.0172 385.406 36.338C385.406 37.5184 385.917 37.7651 386.938 37.7474C389.121 37.7122 391.305 37.7474 393.47 37.7298C396.622 37.677 395.9 38.2584 396.464 35.087C396.499 34.9109 396.464 34.7171 396.499 34.5409C396.675 33.5719 396.235 33.2547 395.301 33.2723C394.086 33.3076 392.872 33.2371 391.657 33.29C390.653 33.3252 390.248 32.9904 390.283 31.9333C390.336 29.9953 390.283 28.0573 390.283 26.1369H390.301H390.318Z" fill="#A2DD00"/>
</svg>
