<svg width="262" height="111" viewBox="0 0 262 111" fill="none" xmlns="http://www.w3.org/2000/svg">
<g clip-path="url(#clip0_196_171)">
<path d="M243.9 58.04L231.96 38.7L220.76 38.59L220.81 57.83L209.56 57.81L209.54 0.609985L236.66 0.769985C245.2 0.819985 251.55 8.93999 252.93 15.85C254.74 24.86 250.45 32.6 243 36.36L256.08 57.77L243.91 58.03L243.9 58.04ZM237.27 28.22C241.26 27.32 242.16 21.54 242.02 18.82C241.9 16.28 239.8 11.38 236.47 10.89C231.19 10.11 226.24 10.31 220.75 10.4L220.77 29.02C226.27 28.87 232.07 29.39 237.26 28.22H237.27Z" fill="#2B2B2B"/>
<path d="M38.9897 43.64L18.8497 43.43L13.4697 57.81L1.92969 57.85L23.1497 0.710006L34.5697 0.600006L55.7097 57.83H44.0997L38.9897 43.63V43.64ZM36.7397 35.57L28.8597 12.31L20.6297 35.75L36.7397 35.57Z" fill="#2B2B2B"/>
<path d="M138.73 25.04L138.79 34.16L115.9 34.13L115.91 57.85L104.64 57.81L104.62 0.629996L143.36 0.589996L143.47 10.37L115.9 10.4L115.88 25.06L138.73 25.04Z" fill="#2B2B2B"/>
<path d="M166.63 35.12C173.3 33.2 178.25 32.56 181.71 25.93L188.08 34.25C191 31.01 190.56 26.07 187.98 22.92L189.24 19.98C189.97 18.27 195.89 20.94 196.72 19.74L199.34 15.94C204.01 26.39 203.35 38.88 196.15 48.31C186.85 60.49 169.98 63.03 157.89 53.88C159.66 51.3 159.33 49.08 158.89 45.63C158.48 42.36 163.2 36.11 166.63 35.13V35.12Z" fill="#2B2B2B"/>
<path d="M28.6898 110.15L28.5198 87.69L20.0398 103.43C19.6998 104.06 17.8298 105.06 17.2898 104.81C16.5698 104.47 15.2998 103.39 14.8398 102.54L6.97977 87.62L6.80977 110.08L0.00976562 109.85L0.0697656 75.27L7.38977 75.3L17.6998 95.2L28.2098 75.31L35.4298 75.28L35.4798 109.83L28.6998 110.17L28.6898 110.15Z" fill="#2B2B2B"/>
<path d="M161.66 23.83C154.03 29.74 157.38 40.53 150.28 45.39C144.54 35.74 144.41 23.74 150.25 13.8C154.6 6.4 162.07 1.5 169.52 0.349995C178.79 -1.08 187.68 1.92 193.45 8.06C185.49 6.41 177.05 7.81999 172.17 13.61C168.93 17.45 166.08 20.4 161.66 23.83Z" fill="#2B2B2B"/>
<path d="M73.2495 57.7L61.9495 57.83L61.9395 0.619985L73.2195 0.609985L73.2495 57.7Z" fill="#2B2B2B"/>
<path d="M100.26 109.83L82.8596 88.18L82.5696 109.93L75.8496 110V75.52L81.2696 75.35L99.3096 98.04L99.4296 75.49L106.17 75.56L106.14 109.97L100.26 109.83Z" fill="#2B2B2B"/>
<path d="M253.459 109.96C246.259 111.4 240.199 109.76 233.779 106.23L236.849 100.34C246.839 107.45 255.909 103.65 254.409 100.49C251.219 93.76 232.829 97.26 235.399 83.46C235.839 81.08 238.389 77.7 241.309 76.53C247.999 73.83 253.979 75.07 260.209 78.99L257.199 84.18C250.039 79.79 242.729 80.14 242.089 84.54C241.909 85.75 243.789 87.99 245.099 88.38L254.389 91.13C258.989 92.49 261.579 96.03 261.539 100.21C261.499 104.73 258.829 108.89 253.459 109.97V109.96Z" fill="#2B2B2B"/>
<path d="M198.8 95.11L184.01 95.1L184.14 104.23L201.36 104.1L201.3 110.1H177.16V75.33L200.88 75.3L201.02 81.21L184.01 81.24L184.07 89.68L198.8 89.61V95.11Z" fill="#2B2B2B"/>
<path d="M132.59 101.64L120.42 101.47L117.11 110.22L110.14 110.05L123.09 75.3L129.88 75.2L142.73 109.78L135.88 110.05L132.6 101.64H132.59ZM131.32 96.58L126.43 82.55L121.47 96.73L131.32 96.59V96.58Z" fill="#2B2B2B"/>
<path d="M228.47 95.13L213.61 95.02L213.57 104.33L230.01 104.36C231.4 104.78 231.42 109.38 229.98 110.09H206.67L206.63 75.31L230.29 75.34L230.4 81.26L213.62 81.23L213.51 89.54L228.08 89.69L228.47 95.13Z" fill="#2B2B2B"/>
<path d="M61.7994 101.56L49.5594 101.5L46.4694 109.83L39.3994 109.92L52.2394 75.35L59.0494 75.14L71.9394 109.9L65.0094 109.95L61.8094 101.56H61.7994ZM60.5694 96.61L55.6294 82.69L50.6194 96.7L60.5594 96.61H60.5694Z" fill="#2B2B2B"/>
<path d="M161.71 109.83L154.88 110L154.92 81.23L143.64 81.22L143.78 75.31H172.77L172.9 81.27L161.67 81.15L161.71 109.83Z" fill="#2B2B2B"/>
</g>
<defs>
<clipPath id="clip0_196_171">
<rect width="261.54" height="110.48" fill="white"/>
</clipPath>
</defs>
</svg>
