<svg width="297" height="199" viewBox="0 0 297 199" fill="none" xmlns="http://www.w3.org/2000/svg">
<g clip-path="url(#clip0_123_352)">
<path d="M240.477 171.005C242.394 172.08 242.969 175.729 242.545 177.873L243.678 178.965L244.555 181.284L245.635 181.533C246.966 180.743 248.557 181.353 249.156 183.004C250.108 185.624 250.602 184.305 250.707 184.66L250.881 185.258L251.77 183.294C251.305 182.306 251.723 181.365 252.031 180.389C252.258 179.668 252.734 179.081 253.646 178.919C254.825 178.71 257.004 181.499 257.085 179.424L257.201 176.397L257.283 174.532C257.352 172.928 256.185 170.964 255.29 170.424C253.867 169.558 252.694 168.5 252.542 166.56C252.502 166.054 252.322 165.403 251.991 164.938C251.171 165.432 250.747 166.496 250.701 167.396L249.917 167.553L247.756 168.041C247.628 168.07 247.32 168.233 247.204 168.268C247.047 168.32 246.861 168.001 246.605 167.64L246.088 167.995C245.937 168.099 246.123 168.75 246.147 168.843C245.06 167.989 244.41 171.464 241.801 170.366C239.652 169.459 239.995 167.687 239.727 165.235L240.25 164.985C240.947 162.963 241.296 162.643 242.586 161.987C245.083 160.708 245.961 158.768 246.989 159.75L247.349 158.942C249.353 159.134 251.293 160.633 251.892 162.823C252.008 163.248 252.037 164.41 252.577 164.264C253.118 164.119 253.338 163.23 253.623 162.69C256.708 162.01 255.813 164.131 256.708 163.021L258.218 165.136L259.124 165.938L259.932 167.396L261.587 171.69C263.58 176.856 261.285 175.363 261.587 180.429L260.96 180.981C260.426 181.452 259.955 181.533 259.24 181.615C258.654 181.679 258.433 182.945 258.421 183.585C258.369 186.618 256.586 187.513 254.274 187.815L254.111 188.03C254.047 188.111 253.687 187.867 253.594 187.867L252.211 187.925L251.102 185.566C249.04 186.368 251.584 188.32 247.669 189.535L246.158 188.884C244.979 188.378 244.439 186.432 243.672 185.496L242.94 185.31L241.888 185.037C240.442 184.538 239.524 183.044 238.577 181.76C237.404 180.168 237.253 177.96 237.392 176.06C237.479 174.857 237.218 173.538 237.77 172.457C238.054 171.905 238.287 171.284 238.403 170.848L240.483 170.993L240.477 171.005Z" fill="#101511"/>
<path d="M171.835 186.316C171.359 185.764 170.691 185.217 169.924 184.799C169.436 184.532 169.152 182.887 168.112 183.654L166.903 181.876C166.764 180.488 166.712 179.628 167.537 178.28L168.733 176.31C169.012 175.996 169.088 175.88 168.687 176.043L166.119 175.554C166.119 175.554 166.119 175.066 166.125 174.846C165.259 173.875 165.695 172.951 166.125 171.934L166.689 170.586C166.781 168.553 167.723 166.85 169.367 165.717C169.68 165.502 169.907 164.857 170.122 164.578L171.504 162.765C171.684 162.527 172.097 162.394 172.492 162.353L174.24 160.685L174.676 160.953C174.874 161.069 176.216 159.634 176.982 159.814L178.51 160.18C178.94 160.284 179.858 160.883 179.939 161.371C180.003 161.76 180.09 162.504 180.096 162.911C180.131 164.799 178.731 166.664 177.11 167.117L174.659 167.797C174.304 167.896 173.648 168.344 173.381 168.529C173.201 168.977 172.91 169.331 172.428 169.732C172.376 169.692 172.614 169.982 172.567 170.081L172.335 170.557L171.318 172.632C171.016 173.933 170.377 175.124 169.384 175.723C169.68 175.926 169.767 176.176 169.808 176.647C171.353 178.425 172.596 177.658 173.421 180.325L175.193 181.51C176.436 180.999 176.982 181.882 178.045 183.027C178.173 183.166 177.836 183.695 177.842 183.922C177.86 184.596 177.778 185.241 177.343 185.833C176.012 187.669 173.462 188.175 171.841 186.304L171.835 186.316Z" fill="#101511"/>
<path d="M272.747 177.687C272.572 176.56 272.468 175.752 272.491 174.677C272.514 173.602 271.8 173.23 271.701 171.65C271.666 171.121 272.479 170.261 272.7 169.79L273.682 167.716C274.071 166.891 274.966 166.705 275.616 167.152L277.156 166.751C277.005 163.869 276.639 163.346 278.852 161.557C279.694 160.877 281.948 159.581 282.68 159.54L284.231 159.453C285.283 159.395 286.259 161.005 286.201 162.01C286.079 164.166 284.917 165.665 283.743 167.123C282.21 169.035 281.501 168.192 278.701 167.251C278.207 167.083 277.801 168.088 277.911 168.622C278.08 169.471 278.021 170.238 277.923 171.045L278.399 170.987C278.544 170.97 278.771 171.446 278.765 171.615C278.736 172.376 278.37 172.812 277.789 173.311L278.277 173.341C278.405 173.346 279.369 175.485 277.237 177.896C276.029 179.261 274.536 179.784 272.729 179.076L272.741 177.681L272.747 177.687Z" fill="#101511"/>
<path d="M192.243 171.284C191.227 173.887 190.065 175.194 187.503 174.352C186.434 173.997 185.975 172.55 185.749 171.539C185.615 171.417 185.197 171.185 185.278 171.063L185.673 170.488L184.866 170.615L185.156 169.947C185.214 169.819 184.982 169.529 184.842 169.54L183.849 169.622C184.215 167.832 180.59 168.46 181.519 164.299C182.095 161.725 184.976 160.563 187.311 161.388C187.497 161.452 187.944 161.528 187.944 161.69L187.933 162.359C188.508 162.452 188.99 162.777 189.24 163.352C189.873 164.793 190.919 166.792 192.051 167.757L192.173 169.79L192.232 171.284H192.243Z" fill="#101511"/>
<path d="M184.813 187.687L182.362 188.465C181.978 188.587 181.148 188.489 180.741 188.489L179.573 186.722L180.509 183.712C180.718 183.044 182.106 182.562 182.594 182.074C183.187 181.481 183.965 181.069 184.65 180.737C184.633 180.203 184.796 179.616 185.127 179.169C186.48 177.321 187.985 175.27 190.268 176.542L190.901 176.897C191.035 176.972 191.058 177.327 191.058 177.571L191.081 178.89C191.093 179.349 191.128 179.86 190.942 180.261C189.251 183.852 189.158 186.298 184.807 187.681L184.813 187.687Z" fill="#101511"/>
<path d="M288.792 172.777L288.205 170.86L288.844 169.848L286.875 169.262L286.625 167.408C286.509 166.531 286.857 165.369 287.06 164.427C287.328 163.201 288.054 162.556 289.076 162.016C289.436 161.824 290.186 161.255 290.528 161.429L291.626 161.987L293.166 162.812C293.799 163.91 294.421 168.524 294.45 169.326C294.531 171.714 292.968 173.736 291.179 174.654C290.343 174.532 289.036 173.62 288.78 172.777H288.792Z" fill="#101511"/>
<path d="M215.172 184.503C214.963 185.2 215.16 186.002 215.282 186.606C215.381 187.983 213.888 188.75 212.889 189.035C209.804 189.912 211.483 188.21 208.183 186.897L205.93 186.002L204.541 183.846L204.477 181.493C204.437 180.005 205.749 179.308 206.853 179.169C207.887 179.041 209.032 179.372 209.31 180.534L209.618 181.824L209.125 182.109C209.026 182.167 209.101 182.614 209.212 182.579L210.101 182.295C210.257 182.242 210.437 182.701 210.496 182.76C211.617 182.469 213.214 181.934 213.958 182.614C214.103 182.748 214.545 182.975 214.608 183.131L215.178 184.514L215.172 184.503Z" fill="#101511"/>
<path d="M216.613 166.961C215.05 166.176 214.794 167.64 214.022 166.176C213.452 166.432 212.703 166.821 212.023 166.978C211.576 167.083 210.983 165.897 210.577 165.659C210.066 165.357 209.101 164.753 209.101 164.09L211.036 160.598C211.495 159.773 213.528 159.122 214.271 159.645C215.439 160.47 216.189 161.103 217.641 160.255C218.297 159.872 219.32 160.435 219.941 161.103C220.662 161.882 220.574 164.119 219.697 165.647C219.012 166.85 218.065 167.693 216.613 166.961Z" fill="#101511"/>
<path d="M222.044 186.984L219.006 188.14C218.599 187.257 218.477 187.036 218.117 186.449C216.944 184.526 217.978 181.539 219.906 180.697C220.255 180.546 220.615 180.383 220.76 180.116L221.696 178.419C222.718 176.554 225.111 176.658 225.599 177.083C225.896 177.344 226.134 178.204 226.366 178.547C226.796 179.192 227.307 179.674 227.052 180.697C226.459 183.073 225.989 181.9 224.362 184.892C223.688 186.135 223.374 186.484 222.05 186.984H222.044Z" fill="#101511"/>
<path d="M212.163 178.768C211.077 178.826 209.735 177.809 209.717 176.391C209.7 174.973 211.152 173.835 211.657 173.643C212.273 173.41 213.615 174.567 213.557 174.596L214.341 174.218C214.359 174.166 214.388 173.974 214.324 173.991L213.574 174.23L213.72 173.393C213.452 173.358 212.848 173.306 212.825 173.056L212.744 172.219C212.726 172.051 212.488 172.016 212.122 171.836C212.209 171.167 212.633 170.127 213.104 169.744C214.248 168.826 216.636 169.604 216.973 170.087C217.159 170.354 217.728 173.044 217.716 173.19C217.664 173.904 216.009 174.933 216.624 174.898L217.316 174.857C217.757 174.828 218.477 175.276 218.721 175.694C219.087 176.339 218.942 177.338 218.652 177.937C217.838 179.61 216.479 180.772 214.678 180.185L214.051 177.518C213.383 178.129 212.732 178.739 212.157 178.773L212.163 178.768Z" fill="#101511"/>
<path d="M202.781 176.257C202.421 175.49 202.142 174.584 201.968 173.98C202.984 171.162 201.968 171.603 203.472 169.401C203.077 168.303 203.484 167.088 204.262 166.112C205.14 165.008 206.598 164.096 207.765 165.043C209.293 166.281 210.583 169.128 208.869 170.737L207.527 171.992L207.986 173.515C207.545 176.246 203.519 177.85 202.775 176.257H202.781Z" fill="#101511"/>
<path d="M180.851 179.192C180.021 179.442 179.521 178.721 179.097 177.867C178.574 178.297 177.372 180.505 176.157 179.186C175.797 178.797 175.687 177.687 175.797 177.164C175.931 176.513 176.744 175.944 177.406 175.398C176.471 175.351 175.495 174.909 174.577 174.346L174.461 171.859C175.728 170.72 177.197 168.64 178.714 170.226C179.172 170.708 179.358 171.098 179.591 171.876L180.694 170.947L180.543 171.836L181.45 171.894C181.659 171.905 181.444 172.562 181.438 172.806L183.082 174.009C183.738 174.491 183.442 176.17 183.192 177.181C182.96 178.117 181.757 178.919 180.857 179.192H180.851Z" fill="#101511"/>
<path d="M227.412 169.75C227.348 170.958 227.22 173.19 226.436 173.939C225.111 175.212 224.769 173.829 223.711 173.742C223.421 173.718 222.979 174.538 222.672 174.584C221.452 174.77 220.319 173.038 220.22 171.673C220.127 170.395 220.72 169.68 221.37 168.954C221.562 167.454 220.993 165.595 222.079 164.137C222.457 163.637 223.7 163.312 224.374 163.573C224.891 163.771 225.605 164.776 225.64 165.351C225.803 168.466 227.598 166.066 227.406 169.755L227.412 169.75Z" fill="#101511"/>
<path d="M291.812 185.827C289.529 187.931 288.925 186.908 286.886 188.994L285.056 187.989L284.754 186.06C286.845 180.615 284.057 184.044 286.723 179.523C287.171 178.762 287.688 178.529 288.507 178.361C288.908 178.28 289.692 177.983 290.104 178.361C290.953 179.128 290.906 180.447 290.86 181.551C291.226 181.696 292.045 181.934 292.265 182.219C293.026 183.207 292.73 184.985 291.818 185.827H291.812Z" fill="#101511"/>
<path d="M283.407 184.044C283.174 184.787 281.908 187.71 281.24 187.925C278.602 188.762 279.509 189.169 277.841 188.413C277.208 188.128 277.04 187.78 276.685 187.129L276.029 185.915C275.483 184.898 275.21 184.02 275.349 182.986C275.628 180.929 278.004 179.482 279.236 180.255C279.358 180.331 279.544 180.842 279.666 180.796L280.229 180.586C280.583 180.987 281.385 181.08 281.844 180.83L281.856 181.679C282.884 181.859 283.784 182.8 283.401 184.044H283.407Z" fill="#101511"/>
<path d="M280.479 176.984C280.525 176.234 281.153 175.421 281.757 174.846L280.909 173.073L281.757 172.382L280.914 172.556C281.577 169.936 281.612 173.079 283.976 170.249C284.731 171.324 285.631 172.492 286.549 173.503C286.84 175.31 284.743 174.857 284.522 178.099C284.47 178.71 282.094 178.5 281.914 178.466C281.652 178.413 281.71 177.472 281.623 177.228C281.42 177.222 280.548 177.28 280.479 176.995V176.984Z" fill="#101511"/>
<path d="M295.013 181.185C294.781 181.243 294.415 180.482 294.316 180.29L292.823 179.424L292.376 177.594C292.881 175.688 293.962 174.113 295.484 173.085L296.733 173.451L297 176.269C297.047 176.746 296.646 180.796 295.013 181.185Z" fill="#101511"/>
<path d="M248.581 172.748C248.441 173.259 248.313 173.724 248.476 173.887C248.691 174.102 249.098 174.241 249.603 174.479L249.022 174.7C249.202 175.833 249.278 177.373 248.197 177.867C247.622 178.134 247.053 178.326 246.652 178.163C245.961 177.879 244.857 176.257 245.2 174.561C245.374 173.707 245.682 172.765 246.46 172.632L248.581 172.254C248.563 172.074 248.424 171.65 248.534 171.563L249.144 171.086L249.702 170.784C250.039 170.598 250.48 172.109 250.724 172.045C250.869 172.004 251.218 171.836 251.346 171.731C252.142 171.074 253.089 171.115 253.629 172.155C254.831 174.462 255.186 174.753 253.815 176.984L252.31 176.949C251.293 176.926 251.195 174.404 249.533 174.055L248.592 172.76L248.581 172.748Z" fill="#101511"/>
<path d="M32.9555 152.568V194.195C32.9555 196.501 31.0849 198.372 28.7787 198.372H25.9903V170.093L21.4068 179.802H16.5736L11.6591 169.692V194.195C11.6591 196.501 9.7885 198.372 7.48225 198.372H4.69385V152.574H11.6591L18.9321 168.733L25.9903 152.574H32.9555V152.568Z" fill="#101511"/>
<path d="M47.6004 159.372V171.318H54.2112V174.404C54.2112 176.554 52.4743 178.291 50.3249 178.291H47.6004V191.22L55.6519 191.196V194.282C55.6635 196.426 53.9324 198.175 51.783 198.181L40.6235 198.21V152.301L44.1729 152.364C44.1729 152.364 46.4037 152.405 49.0817 152.405H55.6635V155.491C55.6635 157.64 53.9265 159.378 51.7772 159.378H49.0817C48.5647 159.378 48.0651 159.378 47.5945 159.378L47.6004 159.372ZM41.8435 148.245C41.5065 147.152 42.2211 145.955 43.441 145.578L54.7166 142.086L55.3324 144.067C55.6693 145.159 54.9548 146.356 53.7348 146.734L42.4592 150.226L41.8435 148.245Z" fill="#101511"/>
<path d="M84.6571 162.533C84.6571 166.687 81.1135 172.818 79.028 176.066C81.1135 179.314 84.6571 185.444 84.6571 189.598V198.175H82.2869C79.7483 198.175 77.6977 196.118 77.6977 193.585V189.604C77.6977 187.954 75.8504 184.16 73.73 180.708C71.4586 184.177 69.4777 188.018 69.4777 189.604V198.181H67.1076C64.5689 198.181 62.5183 196.124 62.5183 193.59V189.61C62.5183 185.444 66.2304 179.354 68.4553 176.077C66.2304 172.8 62.5183 166.705 62.5183 162.544V152.382H64.8885C67.4271 152.382 69.4777 154.439 69.4777 156.978V162.544C69.4777 164.131 71.4586 167.972 73.7242 171.44C75.8446 167.995 77.6977 164.195 77.6977 162.544V152.382H80.0678C82.6064 152.382 84.6571 154.439 84.6571 156.978V162.544V162.533Z" fill="#101511"/>
<path d="M99.0756 156.38V198.169H96.1187C93.9054 198.169 92.1104 196.374 92.1104 194.16V152.37H95.0672C97.2805 152.37 99.0756 154.166 99.0756 156.38Z" fill="#101511"/>
<path d="M119.727 162.056V160.894C119.727 160.11 119.059 159.471 118.246 159.471H113.238C113.227 159.883 113.227 160.36 113.227 160.737V190.586C113.227 190.981 113.227 191.388 113.227 191.766H118.246C119.071 191.766 119.431 191.679 119.57 191.626C119.622 191.487 119.727 191.115 119.727 190.342V183.84C119.727 181.231 121.813 179.122 124.386 179.122H126.692V190.348C126.692 193.515 125.594 198.826 118.24 198.826H112.425C111.31 198.826 108.347 198.826 106.958 196.025C106.25 194.601 106.25 193.091 106.25 190.586V160.737C106.25 159.163 106.25 157.542 106.825 156.048C107.719 153.742 109.759 152.411 112.419 152.411H118.234C122.893 152.411 126.686 156.211 126.686 160.889V166.775H124.38C121.807 166.775 119.721 164.66 119.721 162.056H119.727Z" fill="#101511"/>
<path d="M154.187 160.894V190.441C154.187 195.641 151.323 199 146.897 199H140.181C137.561 199 135.528 197.774 134.459 195.537C133.687 193.922 133.582 192.056 133.582 190.441V160.889C133.582 159.273 133.687 157.408 134.459 155.793C135.528 153.561 137.561 152.33 140.181 152.33H146.897C151.329 152.33 154.187 155.688 154.187 160.889V160.894ZM147.222 190.441V160.894C147.222 160.069 147.077 159.587 146.99 159.395C146.966 159.395 146.932 159.395 146.897 159.395H140.617C140.576 159.703 140.547 160.174 140.547 160.9V190.447C140.547 191.167 140.582 191.644 140.617 191.952H146.897C146.932 191.952 146.966 191.952 146.99 191.952C147.083 191.76 147.222 191.278 147.222 190.453V190.441Z" fill="#101511"/>
<path d="M12.2283 18.4136H0V0.935486H46.2294V18.4078H34.0418V62.0509H12.2283V18.4136Z" fill="#101511"/>
<path d="M52.3639 0.935486H93.3941V18.4078H74.1774V27.1469H89.0082V35.886H74.1774V44.5786H93.3941V62.0509H52.3639V0.935486Z" fill="#101511"/>
<path d="M119.686 31.4932C119.686 35.9267 120.128 39.3607 121.005 41.8069C121.888 44.2532 123.218 45.4734 125.013 45.4734C126.408 45.4734 127.511 44.6425 128.336 42.9807C129.161 41.3189 129.713 38.954 129.998 35.886H151.811C151.102 44.5495 148.407 51.2201 143.736 55.8976C139.066 60.5692 132.763 62.9109 124.839 62.9109C120.552 62.9109 116.701 62.2136 113.291 60.8249C109.881 59.4304 106.999 57.3851 104.641 54.689C102.282 51.9929 100.493 48.6867 99.273 44.782C98.0531 40.8773 97.4431 36.4496 97.4431 31.5048C97.4431 26.5601 98.0531 22.0569 99.273 18.1638C100.493 14.2707 102.282 10.9703 104.641 8.25679C106.999 5.54326 109.881 3.49213 113.291 2.0976C116.701 0.703065 120.546 0.00579834 124.839 0.00579834C132.281 0.00579834 138.578 2.30097 143.736 6.89131C148.895 11.4817 151.468 18.2045 151.468 27.0714L129.992 27.1585C129.707 24.0034 129.155 21.5978 128.331 19.936C127.506 18.2742 126.396 17.4433 125.008 17.4433C123.218 17.4433 121.882 18.6693 120.999 21.1272C120.116 23.585 119.681 27.0423 119.681 31.5048L119.686 31.4932Z" fill="#101511"/>
<path d="M156.842 0.935486H178.656V23.649H186.498V0.935486H208.311V62.0509H186.498V32.388H178.656V62.0509H156.842V0.935486Z" fill="#101511"/>
<path d="M19.1528 93.149H17.6192L24.5031 131.47H4.60083V77.8033H26.0367L37.3007 116.124H38.8343L31.9504 77.8033H51.8933V131.47H30.4168L19.1528 93.149Z" fill="#101511"/>
<path d="M69.9657 77.8091H93.4231L106.593 131.475H86.6903L85.0812 118.001H78.3077L76.6985 131.475H56.7963L69.9657 77.8091ZM79.2429 110.331H84.1459L82.0894 93.0793H81.3052L79.2487 110.331H79.2429Z" fill="#101511"/>
<path d="M116.77 93.149H106.035V77.8033H146.629V93.149H135.929V131.47H116.77V93.149Z" fill="#101511"/>
<path d="M152.014 77.8091H171.173V112.016C171.173 113.341 171.417 114.485 171.905 115.462C172.393 116.432 173.293 116.92 174.618 116.92C175.942 116.92 176.843 116.432 177.331 115.462C177.819 114.491 178.063 113.341 178.063 112.016V77.8091H197.221V111.638C197.221 125.363 189.687 132.219 174.624 132.219C159.561 132.219 152.026 125.357 152.026 111.638V77.8091H152.014Z" fill="#101511"/>
<path d="M203.35 131.475V77.8091H222.509C230.218 77.8091 236.23 78.7446 240.541 80.6156C244.857 82.4866 247.25 86.0543 247.727 91.3187C247.75 91.8939 247.761 92.4517 247.761 93.0037C247.761 97.6173 246.414 101.301 243.718 104.044C240.802 107.013 236.312 108.495 230.247 108.495H229.608V109.244C230.828 111.917 235.992 113.248 245.101 113.248C246.524 113.248 247.779 113.184 248.877 113.062L248.952 131.475C247.454 131.725 245.833 131.847 244.09 131.847C230.746 131.847 224.06 124.898 224.037 111.005H222.503V131.475H203.344H203.35ZM222.509 103.329C224.304 103.329 225.646 102.888 226.529 101.998C227.412 101.115 227.859 99.8718 227.859 98.2739C227.859 96.676 227.418 95.3919 226.529 94.4913C225.64 93.5906 224.304 93.1432 222.509 93.1432V103.323V103.329Z" fill="#101511"/>
<path d="M255.842 77.8091H291.871V93.1548H274.995V100.825H288.013V108.495H274.995V116.13H291.871V131.475H255.842V77.8091Z" fill="#101511"/>
<path d="M231.641 22.8471V25.5897C231.641 27.42 230.154 28.9075 228.324 28.9075H225.925C225.477 28.9075 225.042 28.9075 224.635 28.9075V39.2852H230.38V42.0278C230.38 43.8581 228.893 45.3456 227.063 45.3456H224.635V58.8319C224.635 60.9411 222.927 62.6494 220.819 62.6494H218.576V22.7599L221.655 22.8122C221.655 22.8122 223.595 22.8471 225.919 22.8471H231.635H231.641Z" fill="#101511"/>
<path d="M256.58 30.0754V55.4501C256.58 59.9127 254.088 62.8005 250.236 62.8005H244.398C242.121 62.8005 240.355 61.743 239.425 59.8255C238.751 58.4368 238.664 56.8331 238.664 55.4501V30.0754C238.664 28.6925 238.757 27.0888 239.425 25.7001C240.355 23.7826 242.121 22.7309 244.398 22.7309H250.236C254.088 22.7309 256.58 25.6129 256.58 30.0813V30.0754ZM250.521 55.4501V30.0754C250.521 29.3666 250.399 28.954 250.318 28.7855C250.294 28.7855 250.271 28.7855 250.236 28.7855H244.776C244.741 29.0528 244.712 29.4537 244.712 30.0754V55.4501C244.712 56.0661 244.741 56.4728 244.77 56.7401H250.23C250.265 56.7401 250.288 56.7401 250.312 56.7401C250.393 56.5716 250.515 56.1648 250.515 55.4501H250.521Z" fill="#101511"/>
<path d="M279.085 44.2125C279.968 45.4037 280.496 46.868 280.496 48.4543V58.5239C280.496 60.7959 278.655 62.6436 276.377 62.6436H274.437V48.4543C274.437 47.7105 273.746 47.2631 273.078 47.2631H270.115V58.5239C270.115 60.7959 268.274 62.6436 265.996 62.6436H264.056V22.8123H273.252C276.976 22.8123 281.327 26.0662 281.327 35.241C281.327 39.6396 280.363 42.4287 279.085 44.2067V44.2125ZM275.268 35.2469C275.268 30.7437 273.955 28.8785 273.252 28.8785H270.115V41.2085H273.252C274.46 41.2085 275.268 38.8145 275.268 35.2469Z" fill="#101511"/>
</g>
<defs>
<clipPath id="clip0_123_352">
<rect width="297" height="199" fill="white"/>
</clipPath>
</defs>
</svg>
