<svg width="20" height="20" viewBox="0 0 20 20" fill="none" xmlns="http://www.w3.org/2000/svg">
<path d="M10 0C4.48 0 0 4.48 0 10C0 15.52 4.48 20 10 20C15.52 20 20 15.52 20 10C20 4.48 15.53 0 10 0ZM13 12.23L10.1 13.9C9.74003 14.11 9.34003 14.21 8.95003 14.21C8.55003 14.21 8.16003 14.11 7.8 13.9C7.08 13.48 6.65 12.74 6.65 11.9V8.55C6.65 7.72 7.08 6.97 7.8 6.55C8.52003 6.13 9.38003 6.13 10.11 6.55L13.01 8.22C13.73 8.64 14.16 9.38 14.16 10.22C14.16 11.06 13.73 11.81 13 12.23Z" fill="#232A20"/>
</svg>
