<svg width="68" height="57" viewBox="0 0 68 57" fill="none" xmlns="http://www.w3.org/2000/svg">
<path d="M28.3629 0.0591089C48.7401 -0.762466 72.6522 6.8317 66.2094 32.187C61.6907 49.9752 45.0268 61.4502 26.8602 54.8722C13.5259 50.0347 7.43973 39.4136 1.69951 27.2792C-0.376047 22.8848 -0.543605 19.0634 1.159 14.4691C5.12634 3.7616 18.0824 0.475302 28.3629 0.0591089ZM30.4384 4.72371C19.3634 5.28584 7.32081 9.73424 7.38027 22.7659C7.40189 26.9062 11.8179 36.1219 14.0718 39.7866C24.9793 57.5423 49.1941 61.4935 60.2205 41.4838C63.442 35.6409 65.3013 27.6305 64.1122 21.0039C61.388 5.89121 42.9404 4.0805 30.4384 4.7183V4.72371Z" fill="#D5EBEE" fill-opacity="0.24"/>
<path d="M30.4383 4.72357C42.9403 4.08577 61.3879 5.89648 64.1121 21.0091C65.3066 27.6358 63.4418 35.6407 60.2204 41.4891C49.1994 61.4987 24.9846 57.5476 14.0717 39.7919C11.8177 36.1218 7.40176 26.9061 7.38014 22.7712C7.31528 9.7395 19.3578 5.29111 30.4383 4.72898V4.72357ZM35.4975 9.25845C26.2277 9.61519 15.5094 11.788 14.904 23.0144C14.5527 29.4735 18.72 39.3 22.8225 44.2673C29.8005 52.71 43.9078 56.3855 52.7722 48.6778C58.9232 43.3268 62.1338 32.5382 61.723 24.5711C60.9771 10.1989 46.9887 8.81523 35.5029 9.25845H35.4975Z" fill="#ADD8DE" fill-opacity="0.77"/>
<path d="M35.4977 9.25821C46.9835 8.81499 60.9719 10.1987 61.7178 24.5709C62.134 32.538 58.9234 43.3265 52.767 48.6776C43.908 56.3853 29.7953 52.7098 22.8173 44.267C18.7148 39.2997 14.5529 29.4733 14.8988 23.0142C15.5042 11.7878 26.2171 9.61494 35.4923 9.25821H35.4977ZM41.7189 13.7931C33.7032 13.9552 22.693 14.1228 22.2984 24.5763C22.0174 31.9704 24.6334 41.3645 30.3358 46.348C35.9301 51.2342 46.5997 52.9206 52.3183 47.4506C56.8046 43.159 58.745 33.446 58.999 27.4356C59.5071 15.3606 52.0697 13.5877 41.7243 13.7985L41.7189 13.7931Z" fill="#84C6CE" fill-opacity="0.92"/>
<path d="M41.7188 13.7931C52.0642 13.5823 59.5016 15.3551 58.9935 27.4301C58.7395 33.4406 56.7991 43.159 52.3128 47.4452C46.5942 52.9152 35.93 51.2288 30.3303 46.3426C24.6279 41.3591 22.0173 31.965 22.2929 24.5708C22.6875 14.1174 33.6977 13.9552 41.7134 13.7877L41.7188 13.7931ZM37.3353 20.6251H33.249C33.249 20.6251 33.0545 20.8035 33.0545 20.8197V28.0139H37.2056C37.2542 28.0139 37.4812 27.2301 37.465 27.1058H34.0922V24.7708H36.8813C37.1299 24.7708 37.0867 23.9438 37.0759 23.733H34.0922V21.6575H37.011C37.211 21.6575 37.4218 20.8413 37.3353 20.6197V20.6251ZM45.6321 23.733V20.8197C45.6321 20.5494 44.5944 20.5494 44.5944 20.8197V28.0139H45.6321V24.7762H49.2644V28.0139H50.1724V20.6305C49.9886 20.6089 49.2644 20.5981 49.2644 20.8251V23.7384H45.6321V23.733ZM32.1518 20.7548H27.1629C27.0008 20.7548 26.7575 21.4629 26.8386 21.6629H29.0439V28.0139H29.9519V21.6629H31.8329C31.9734 21.6629 32.2383 20.8305 32.1572 20.7548H32.1518ZM43.562 21.2737C43.5187 21.2143 42.362 20.7873 42.1891 20.7656C36.8326 20.0306 36.7191 28.4679 41.6864 28.1436C41.9621 28.1274 43.4701 27.722 43.5512 27.6085C43.6647 27.4518 43.4431 26.7707 43.2269 26.7221C42.4323 27.095 41.708 27.3491 40.8054 27.1977C38.2488 26.7653 38.465 21.517 41.3999 21.5764C41.9188 21.5872 42.9566 22.1007 43.2215 22.0575C43.3079 22.0412 43.6052 21.3278 43.562 21.2737ZM33.449 28.9165L32.7356 29.0463L29.579 33.7973L29.4276 34.4892H32.6707V36.1756H33.449C33.4923 35.9161 33.3896 34.5486 33.449 34.4892C33.5193 34.4189 34.6165 34.7486 34.6165 33.9054C34.6165 33.7433 33.449 33.9 33.449 33.8406V28.9165ZM39.5352 28.9219L39.146 28.976L36.1732 36.1702C36.3354 36.1431 36.7191 36.2296 36.8056 36.154C36.9083 36.0675 37.4866 34.0027 37.7407 33.6514C37.8866 33.446 37.9515 33.4622 38.1785 33.4406C38.519 33.4028 40.6757 33.4082 40.8432 33.5109C41.2756 33.9919 41.5945 35.6891 41.9404 36.0459C42.108 36.2188 42.3188 36.1756 42.5242 36.1702L39.5352 28.9219ZM44.5998 28.9165C44.5079 28.9327 44.0809 28.8895 44.0809 28.9165V36.1756H47.6482C47.7834 36.1756 47.8969 35.808 47.8428 35.6567H44.5998V28.9165ZM49.913 28.9165C49.8211 28.9327 49.3941 28.8895 49.3941 28.9165V36.1756H53.156C53.156 36.1756 53.1831 35.6567 53.156 35.6567H49.913V28.9165Z" fill="#5DB3BE"/>
<path d="M32.8003 30.4736V33.841H30.4653L32.4328 30.6898L32.8003 30.4736Z" fill="#5DB3BE"/>
<path d="M40.5783 33.0624H37.9839C38.4271 32.1273 38.6811 31.0625 39.146 30.1436C39.2054 30.0193 39.2271 29.8355 39.4108 29.8247C39.6757 30.9328 40.4324 31.9489 40.5783 33.0624Z" fill="#CF0A2C"/>
</svg>
