<svg width="19" height="19" viewBox="0 0 19 19" fill="none" xmlns="http://www.w3.org/2000/svg">
<g clip-path="url(#clip0_1547_1746)">
<mask id="mask0_1547_1746" style="mask-type:luminance" maskUnits="userSpaceOnUse" x="0" y="0" width="19" height="19">
<path d="M19 0H0V19H19V0Z" fill="white"/>
</mask>
<g mask="url(#mask0_1547_1746)">
<path d="M11.8752 18.0104H7.12516C2.82641 18.0104 0.989746 16.1737 0.989746 11.875V7.12498C0.989746 2.82623 2.82641 0.989563 7.12516 0.989563H11.8752C16.1739 0.989563 18.0106 2.82623 18.0106 7.12498V11.875C18.0106 16.1737 16.1739 18.0104 11.8752 18.0104ZM7.12516 2.17706C3.47558 2.17706 2.17725 3.4754 2.17725 7.12498V11.875C2.17725 15.5246 3.47558 16.8229 7.12516 16.8229H11.8752C15.5247 16.8229 16.8231 15.5246 16.8231 11.875V7.12498C16.8231 3.4754 15.5247 2.17706 11.8752 2.17706H7.12516Z" fill="white" fill-opacity="0.55"/>
<path d="M12.4688 7.71875H6.53125C6.20667 7.71875 5.9375 7.44958 5.9375 7.125C5.9375 6.80042 6.20667 6.53125 6.53125 6.53125H12.4688C12.7933 6.53125 13.0625 6.80042 13.0625 7.125C13.0625 7.44958 12.7933 7.71875 12.4688 7.71875Z" fill="white" fill-opacity="0.55"/>
<path d="M12.4688 12.4688H6.53125C6.20667 12.4688 5.9375 12.1996 5.9375 11.875C5.9375 11.5504 6.20667 11.2812 6.53125 11.2812H12.4688C12.7933 11.2812 13.0625 11.5504 13.0625 11.875C13.0625 12.1996 12.7933 12.4688 12.4688 12.4688Z" fill="white" fill-opacity="0.55"/>
</g>
</g>
<defs>
<clipPath id="clip0_1547_1746">
<rect width="19" height="19" fill="white"/>
</clipPath>
</defs>
</svg>
