<svg width="22" height="22" viewBox="0 0 22 22" fill="none" xmlns="http://www.w3.org/2000/svg">
<g clip-path="url(#clip0_1548_1768)">
<mask id="mask0_1548_1768" style="mask-type:luminance" maskUnits="userSpaceOnUse" x="0" y="0" width="22" height="22">
<path d="M22 0H0V22H22V0Z" fill="white"/>
</mask>
<g mask="url(#mask0_1548_1768)">
<path d="M11.0002 20.2395C10.7252 20.2395 10.4502 20.1754 10.221 20.047C8.50683 19.112 5.491 18.122 3.60266 17.8745L3.33683 17.8379C2.136 17.6912 1.146 16.5637 1.146 15.3445V4.27121C1.146 3.54704 1.43016 2.88704 1.95266 2.41037C2.47516 1.93371 3.1535 1.70454 3.8685 1.76871C5.88516 1.92454 8.9285 2.93287 10.6518 4.01454L10.8718 4.14287C10.936 4.17954 11.0735 4.17954 11.1285 4.15204L11.2752 4.06037C12.9985 2.97871 16.0418 1.95204 18.0677 1.77787C18.086 1.77787 18.1593 1.77787 18.1777 1.77787C18.8468 1.71371 19.5343 1.95204 20.0477 2.42871C20.5702 2.90537 20.8543 3.56537 20.8543 4.28954V15.3537C20.8543 16.582 19.8643 17.7004 18.6543 17.847L18.3518 17.8837C16.4635 18.1312 13.4385 19.1304 11.761 20.0562C11.541 20.1845 11.2752 20.2395 11.0002 20.2395ZM3.6485 3.13454C3.35516 3.13454 3.08933 3.23537 2.8785 3.42787C2.64933 3.63871 2.521 3.94121 2.521 4.27121V15.3445C2.521 15.8854 2.9885 16.4079 3.511 16.4812L3.786 16.5179C5.8485 16.7929 9.011 17.8287 10.8443 18.8279C10.9268 18.8645 11.046 18.8737 11.0918 18.8554C12.9252 17.8379 16.106 16.7929 18.1777 16.5179L18.4893 16.4812C19.0118 16.417 19.4793 15.8854 19.4793 15.3445V4.28037C19.4793 3.94121 19.351 3.64787 19.1218 3.42787C18.8835 3.21704 18.581 3.11621 18.2418 3.13454C18.2235 3.13454 18.1502 3.13454 18.1318 3.13454C16.381 3.29037 13.5577 4.23454 12.0177 5.19704L11.871 5.29787C11.3668 5.60954 10.6518 5.60954 10.166 5.30704L9.946 5.17871C8.3785 4.21621 5.55516 3.28121 3.7585 3.13454C3.72183 3.13454 3.68516 3.13454 3.6485 3.13454Z" fill="white" fill-opacity="0.48"/>
<path d="M11 19.4702C10.6242 19.4702 10.3125 19.1585 10.3125 18.7827V5.03271C10.3125 4.65688 10.6242 4.34521 11 4.34521C11.3758 4.34521 11.6875 4.65688 11.6875 5.03271V18.7827C11.6875 19.1677 11.3758 19.4702 11 19.4702Z" fill="white" fill-opacity="0.48"/>
<path d="M7.10449 8.47021H5.04199C4.66616 8.47021 4.35449 8.15855 4.35449 7.78271C4.35449 7.40688 4.66616 7.09521 5.04199 7.09521H7.10449C7.48033 7.09521 7.79199 7.40688 7.79199 7.78271C7.79199 8.15855 7.48033 8.47021 7.10449 8.47021Z" fill="white" fill-opacity="0.48"/>
<path d="M7.79199 11.2202H5.04199C4.66616 11.2202 4.35449 10.9085 4.35449 10.5327C4.35449 10.1568 4.66616 9.84515 5.04199 9.84515H7.79199C8.16783 9.84515 8.47949 10.1568 8.47949 10.5327C8.47949 10.9085 8.16783 11.2202 7.79199 11.2202Z" fill="white" fill-opacity="0.48"/>
</g>
</g>
<defs>
<clipPath id="clip0_1548_1768">
<rect width="22" height="22" fill="white"/>
</clipPath>
</defs>
</svg>
