<svg width="117" height="62" viewBox="0 0 117 62" fill="none" xmlns="http://www.w3.org/2000/svg">
<path d="M116.545 20.5486V22.5342H113.636V30.7557H111.379V22.5342H108.471V20.5486H116.545Z" fill="black"/>
<path d="M32.3168 57.7995C32.5859 57.7995 32.8136 57.9959 32.6998 58.5234L31.4472 58.8129C31.6646 58.2338 32.0269 57.8098 32.3168 57.8098M33.0103 59.8057H32.7619C32.441 60.178 32.1201 60.4676 31.7785 60.4676C31.4369 60.4676 31.2609 60.2711 31.2609 59.8057C31.2609 59.6196 31.2816 59.4231 31.3127 59.2576L33.3208 58.5958C33.7142 57.665 33.238 57.2617 32.6894 57.2617C31.7371 57.2617 30.6606 58.8543 30.6606 60.2401C30.6606 60.8606 30.9608 61.2018 31.4266 61.2018C31.9752 61.2018 32.5341 60.6744 32.9999 59.7954M32.6066 56.8894L34.0247 55.5657V55.4106H33.2587L32.3789 56.8894H32.5963H32.6066ZM28.2591 57.8201H28.9215L27.8657 60.7158C27.7726 60.964 27.8968 61.2122 28.1555 61.2122C28.7559 61.2122 29.729 60.6227 30.0706 59.8057H29.8843C29.6151 60.0953 29.0976 60.4676 28.6525 60.5503L29.6255 57.8201H30.6191L30.7434 57.4065H29.7807L30.1533 56.362H29.7703L29.0872 57.4065L28.2591 57.5202V57.8201ZM27.3585 57.6857C27.4414 57.4168 27.255 57.2617 27.1101 57.2617C26.5304 57.2617 25.8369 57.7788 25.5677 58.5234H25.7541C25.9404 58.2545 26.2613 57.9546 26.5615 57.9132L25.4539 60.8088C25.3504 61.0777 25.5574 61.2328 25.7023 61.2328C26.2509 61.2328 26.903 60.7054 27.1825 59.9712H26.9962C26.8099 60.2401 26.489 60.54 26.1889 60.5813L27.3688 57.6857H27.3585ZM27.5552 56.2275C27.8244 56.2275 28.0313 56.0207 28.0313 55.7518C28.0313 55.483 27.814 55.2761 27.5552 55.2761C27.2964 55.2761 27.079 55.4933 27.079 55.7518C27.079 56.0104 27.2861 56.2275 27.5552 56.2275ZM21.1581 60.6744C21.0132 61.0053 21.1581 61.2122 21.4893 61.2122C21.6757 61.2122 21.7792 61.1605 21.8517 60.9433L22.628 58.906C22.9903 58.4717 23.7149 58.0063 24.0151 58.0063C24.2221 58.0063 24.1911 58.1718 24.0565 58.4406L22.8764 60.7158C22.7626 60.9329 22.9075 61.2122 23.1662 61.2122C23.7459 61.2122 24.4395 60.6951 24.7086 59.9505H24.5223C24.3359 60.2194 24.0151 60.5193 23.7149 60.5607L24.7293 58.513C24.8535 58.2441 24.9156 58.0063 24.9156 57.8098C24.9156 57.4685 24.7293 57.2617 24.3774 57.2617C23.8805 57.2617 23.3629 57.8305 22.7729 58.5337V57.9959C22.7729 57.6133 22.6487 57.2617 22.2968 57.2617C22.0794 57.2617 21.862 57.4478 21.6757 57.7167V57.7891C22.0587 57.7684 22.2243 58.3372 21.9552 58.9267L21.1685 60.6744H21.1788H21.1581ZM21.1374 58.1511C21.272 57.6754 21.1995 57.2617 20.8372 57.2617C20.4025 57.2617 20.2989 57.5926 19.8642 58.5337V57.9959C19.8642 57.6133 19.74 57.2617 19.3881 57.2617C18.9844 57.2617 18.6117 57.8925 18.3322 58.5234H18.5185C18.7049 58.2338 18.9015 58.0683 19.0361 58.0683C19.2017 58.0683 19.3052 58.3372 19.0361 58.937L18.2494 60.6847C18.1045 61.0157 18.2494 61.2225 18.5807 61.2225C18.767 61.2225 18.8705 61.1708 18.943 60.9536L19.7193 58.9163C19.9367 58.6475 20.1333 58.42 20.3818 58.1511H21.1478H21.1374ZM16.6657 57.7995C16.9348 57.7995 17.1626 57.9959 17.0487 58.5234L15.7962 58.8129C16.0032 58.2338 16.3759 57.8098 16.6657 57.8098M17.3696 59.8057H17.1212C16.8003 60.178 16.4794 60.4676 16.1378 60.4676C15.7962 60.4676 15.6202 60.2711 15.6202 59.8057C15.6202 59.6196 15.6409 59.4231 15.672 59.2576L17.6801 58.5958C18.0734 57.665 17.5973 57.2617 17.0487 57.2617C16.0964 57.2617 15.0198 58.8543 15.0198 60.2401C15.0198 60.8606 15.32 61.2018 15.7858 61.2018C16.3344 61.2018 16.8934 60.6744 17.3592 59.7954M12.6183 57.8201H13.2808L12.225 60.7158C12.1318 60.964 12.2561 61.2122 12.5148 61.2122C13.1152 61.2122 14.0882 60.6227 14.4298 59.8057H14.2435C13.9743 60.0953 13.4568 60.4676 13.0117 60.5503L13.9847 57.8201H14.9784L15.1027 57.4065H14.1296L14.5023 56.362H14.1193L13.4361 57.4065L12.608 57.5202V57.8201H12.6183ZM8.94365 60.0849C8.94365 59.1956 9.93737 57.9856 10.4963 57.9856C10.6206 57.9856 10.7448 57.9959 10.8379 58.027L10.2583 59.5679C9.91669 59.9712 9.39914 60.4676 9.17141 60.4676C9.03685 60.4676 8.95401 60.3538 8.95401 60.0849M11.9973 57.0962L11.6868 57.0756L11.3451 57.4168H11.2727C9.61648 57.4168 8.17767 59.2783 8.17767 60.633C8.17767 61.0157 8.40541 61.2225 8.7677 61.2225C9.20245 61.2225 9.62682 60.6124 10.0926 59.9505L10.072 60.178C10.0202 60.8399 10.2169 61.2122 10.5688 61.2122C10.9725 61.2122 11.3452 60.5813 11.6247 59.9505H11.4383C11.252 60.2401 11.0553 60.4055 10.9208 60.4055C10.7655 60.4055 10.6516 60.1263 10.9208 59.5368L11.9869 57.0859L11.9973 57.0962ZM8.46754 58.1511C8.6021 57.6754 8.5296 57.2617 8.16731 57.2617C7.73256 57.2617 7.62904 57.5926 7.19429 58.5337V57.9959C7.19429 57.6133 7.07012 57.2617 6.71817 57.2617C6.31448 57.2617 5.94181 57.8925 5.66233 58.5234H5.84864C6.03496 58.2338 6.23164 58.0683 6.3662 58.0683C6.53182 58.0683 6.63534 58.3372 6.3662 58.937L5.5795 60.6847C5.43458 61.0157 5.57951 61.2225 5.91075 61.2225C6.09707 61.2225 6.20056 61.1708 6.27301 60.9536L7.04936 58.9163C7.26673 58.6475 7.46342 58.42 7.71185 58.1511H8.47783H8.46754ZM2.89856 61.0674L2.97103 60.8502C2.00836 60.6744 1.88409 60.6744 2.26709 59.6092L2.66044 58.5337H3.72665C4.20281 58.5337 4.21312 58.7199 4.14066 59.2576H4.42017L5.06194 57.4995H4.7825C4.53407 57.9132 4.3477 58.2235 3.83014 58.2235H2.77435L3.3333 56.6929C3.49892 56.2069 3.61281 56.1034 4.26493 56.1034H4.73069C5.40352 56.1034 5.49667 56.2793 5.49667 56.9721H5.76581L5.98321 55.7725H1.96693L1.89446 55.9897C2.6708 56.1448 2.75365 56.2172 2.381 57.2307L1.50111 59.6092C1.13881 60.602 0.983562 60.6848 0.0933549 60.8502L0.03125 61.0674H2.90886H2.89856Z" fill="black"/>
<path d="M22.5766 48.7193C22.8457 48.7193 23.0735 48.9157 22.9596 49.4432L21.7071 49.7327C21.9141 49.1536 22.2868 48.7296 22.5766 48.7296M23.2702 50.7255H23.0218C22.7009 51.0978 22.38 51.3874 22.0384 51.3874C21.6968 51.3874 21.5208 51.1909 21.5208 50.7255C21.5208 50.5394 21.5415 50.3429 21.5726 50.1774L23.5807 49.5156C23.974 48.5848 23.4979 48.1815 22.9493 48.1815C21.997 48.1815 20.9204 49.7741 20.9204 51.1599C20.9204 51.7804 21.2206 52.1216 21.6864 52.1216C22.235 52.1216 22.794 51.5942 23.2598 50.7152M22.8665 47.8092L24.2846 46.4855V46.3304H23.5186L22.6388 47.8092H22.8561H22.8665ZM18.5189 48.7399H19.1814L18.1256 51.6356C18.0324 51.8838 18.1567 52.132 18.4154 52.132C19.0158 52.132 19.9888 51.5425 20.3304 50.7255H20.1441C19.8749 51.0151 19.3574 51.3874 18.9123 51.4701L19.8853 48.7399H20.879L21.0032 48.3263H20.0406L20.4132 47.2818H20.0302L19.347 48.3263L18.5189 48.44V48.7399ZM17.6184 48.6055C17.7012 48.3366 17.5149 48.1815 17.37 48.1815C16.7903 48.1815 16.0968 48.6986 15.8276 49.4432H16.0139C16.2003 49.1743 16.5211 48.8744 16.8213 48.833L15.7138 51.7286C15.6103 51.9975 15.8173 52.1526 15.9622 52.1526C16.5108 52.1526 17.1629 51.6252 17.4424 50.891H17.2561C17.0698 51.1599 16.7489 51.4598 16.4487 51.5011L17.6287 48.6055H17.6184ZM17.8254 47.1473C18.0945 47.1473 18.3016 46.9405 18.3016 46.6716C18.3016 46.4028 18.0842 46.1959 17.8254 46.1959C17.5666 46.1959 17.3492 46.4131 17.3492 46.6716C17.3492 46.9302 17.5563 47.1473 17.8254 47.1473ZM13.9541 51.4908L15.9829 46.1856L15.9208 46.1028L14.6476 46.2476V46.4027L14.896 46.5889C15.1134 46.7544 15.0513 46.9302 14.8442 47.4679L13.2605 51.6459C13.1466 51.8631 13.2916 52.1423 13.5503 52.1423C14.13 52.1423 14.7511 51.6252 15.0306 50.8806H14.8442C14.6579 51.1495 14.2646 51.4494 13.9644 51.4908M10.093 51.0047C10.093 50.1154 11.0867 48.9054 11.6457 48.9054C11.7699 48.9054 11.8941 48.9157 11.9873 48.9468L11.4076 50.4877C11.066 50.891 10.5485 51.3874 10.3208 51.3874C10.1862 51.3874 10.1034 51.2736 10.1034 51.0047M13.157 48.016L12.8465 47.9953L12.5049 48.3366H12.4324C10.7762 48.3366 9.33738 50.1981 9.33738 51.5528C9.33738 51.9355 9.56512 52.1423 9.92741 52.1423C10.3622 52.1423 10.7866 51.5322 11.2524 50.8703L11.2317 51.0978C11.1799 51.7597 11.3766 52.132 11.7285 52.132C12.1322 52.132 12.5049 51.5011 12.7844 50.8703H12.598C12.4117 51.1599 12.2151 51.3253 12.0805 51.3253C11.9252 51.3253 11.8114 51.0461 12.0805 50.4566L13.1466 48.0057L13.157 48.016ZM5.75583 52.8352C5.75583 52.4526 6.12853 52.2147 6.65645 51.9975C6.82207 52.0803 7.09115 52.1733 7.44309 52.2974C7.9917 52.4732 8.20913 52.556 8.20913 52.7214C8.20913 53.0834 7.60876 53.3419 6.78066 53.3419C6.09748 53.3419 5.75583 53.1971 5.75583 52.8352ZM7.26714 50.4877C7.01871 50.4877 6.92553 50.2912 6.92553 50.0533C6.92553 49.4121 7.27752 48.4607 7.81578 48.4607C8.06421 48.4607 8.15733 48.6572 8.15733 48.8951C8.15733 49.5362 7.8054 50.4877 7.26714 50.4877ZM8.84054 52.4836C8.84054 52.0182 8.42651 51.8527 7.75368 51.6459C7.17401 51.4804 6.90487 51.4287 6.90487 51.2322C6.90487 51.0771 7.02907 50.891 7.2775 50.7669C8.22981 50.7152 8.84054 49.8568 8.84054 49.1433C8.84054 48.9881 8.80947 48.8537 8.75772 48.7399H9.56514L9.68935 48.3263H8.40581C8.25054 48.2332 8.06422 48.1815 7.88825 48.1815C6.87383 48.1815 6.23201 49.0709 6.23201 49.7844C6.23201 50.3325 6.58395 50.6738 7.00835 50.7462C6.5322 50.953 6.27339 51.2012 6.27339 51.5011C6.27339 51.6666 6.32521 51.7907 6.45977 51.8941C5.37289 52.2147 4.93811 52.5767 4.93811 53.0937C4.93811 53.6108 5.60061 53.797 6.38731 53.797C7.72262 53.797 8.83018 53.0731 8.83018 52.4732M3.75805 49.3811C4.23421 49.3811 4.24458 49.5673 4.17213 50.105H4.45163L5.0934 48.347H4.8139C4.56547 48.7606 4.37916 49.0709 3.8616 49.0709H2.80575L3.33368 47.6127C3.4993 47.1267 3.61319 47.0336 4.26531 47.0336H4.73107C5.4039 47.0336 5.49705 47.2094 5.49705 47.8919H5.76619L5.98359 46.6923H1.97767L1.9052 46.9095C2.68155 47.0646 2.76432 47.137 2.39168 48.1505L1.51185 50.529C1.14956 51.5218 0.994303 51.6046 0.104097 51.77L0.0419922 51.9872H4.50337L5.30044 50.7152H4.98985C4.48264 51.1909 3.84089 51.6563 2.95069 51.6563C1.77065 51.6563 1.87412 51.6045 2.26747 50.529L2.69191 49.3811H3.76841H3.75805ZM4.33772 46.3304L5.75583 45.3582V45.2031H4.89672L4.11002 46.3304H4.32742H4.33772Z" fill="black"/>
<path d="M22.1108 39.6394C22.38 39.6394 22.6077 39.8358 22.4938 40.3633L21.2413 40.6528C21.4483 40.0737 21.821 39.6497 22.1108 39.6497M22.794 41.6456H22.5456C22.2247 42.0179 21.9038 42.3075 21.5622 42.3075C21.2206 42.3075 21.0446 42.111 21.0446 41.6456C21.0446 41.4595 21.0653 41.263 21.0964 41.0975L23.1045 40.4357C23.4979 39.5049 23.0217 39.1016 22.4731 39.1016C21.5208 39.1016 20.4442 40.6942 20.4442 42.08C20.4442 42.7005 20.7445 43.0417 21.2103 43.0417C21.7589 43.0417 22.3178 42.5143 22.7836 41.6353M22.3903 38.7293L23.8084 37.4056V37.2505H23.0424L22.1626 38.7293H22.38H22.3903ZM18.2395 39.66H18.7673L17.7116 42.5557C17.6184 42.8039 17.7426 43.0521 18.0014 43.0521C18.6017 43.0521 19.5748 42.4626 19.9164 41.6456H19.73C19.4609 41.9352 18.9434 42.3075 18.4983 42.3902L19.4712 39.66H20.465L20.5892 39.2464H19.6265L19.9991 38.2019H19.6162L18.933 39.2464L18.2498 39.3601V39.66H18.2395ZM17.7012 39.991C17.8358 39.5153 17.7633 39.1016 17.401 39.1016C16.9662 39.1016 16.8628 39.4325 16.428 40.3736V39.8359C16.428 39.4532 16.3038 39.1016 15.9518 39.1016C15.5481 39.1016 15.1755 39.7324 14.896 40.3633H15.0823C15.2686 40.0737 15.4653 39.9082 15.5999 39.9082C15.7655 39.9082 15.869 40.1771 15.5999 40.7769L14.8132 42.5247C14.6683 42.8556 14.8132 43.0624 15.1444 43.0624C15.3307 43.0624 15.4343 43.0107 15.5067 42.7935L16.2831 40.7562C16.5005 40.4874 16.6972 40.2599 16.9456 39.991H17.7116H17.7012ZM13.2398 39.6394C13.509 39.6394 13.7367 39.8358 13.6228 40.3633L12.3703 40.6528C12.5773 40.0737 12.95 39.6497 13.2398 39.6497M13.9333 41.6456H13.6849C13.364 42.0179 13.0431 42.3075 12.7015 42.3075C12.3599 42.3075 12.184 42.111 12.184 41.6456C12.184 41.4595 12.2047 41.263 12.2357 41.0975L14.2439 40.4357C14.6372 39.5049 14.1611 39.1016 13.6125 39.1016C12.6601 39.1016 11.5836 40.6942 11.5836 42.08C11.5836 42.7005 11.8838 43.0417 12.3496 43.0417C12.8982 43.0417 13.4572 42.5143 13.923 41.6353M8.99578 42.4626C8.80945 42.4626 8.51966 42.2868 8.51966 42.1213C8.51966 42.0696 8.60246 41.8421 8.70597 41.5629L9.03722 40.6942C9.38916 40.2805 9.91708 39.8359 10.2069 39.8359C10.3829 39.8359 10.5278 39.9496 10.5278 40.2185C10.5278 41.0148 9.78252 42.4626 8.98548 42.4626M11.2834 39.9082C11.2834 39.3188 11.0661 39.1016 10.6624 39.1016C10.1552 39.1016 9.67896 39.6394 9.19245 40.3012L10.4139 37.1057L10.3518 37.0229L9.0786 37.1677V37.3229L9.32702 37.509C9.5444 37.6745 9.4823 37.871 9.27528 38.388L7.96065 41.7594C7.86749 42.0076 7.75368 42.2971 7.75368 42.3695C7.75368 42.7211 8.22983 43.0417 8.65423 43.0417C9.6376 43.0417 11.2938 41.263 11.2938 39.8876M7.32924 39.5256C7.41205 39.2567 7.22574 39.1016 7.08082 39.1016C6.50115 39.1016 5.80763 39.6187 5.5385 40.3633H5.72481C5.91113 40.0944 6.23199 39.7945 6.53218 39.7531L5.42465 42.6488C5.32114 42.9176 5.52815 43.0728 5.67307 43.0728C6.22168 43.0728 6.87381 42.5453 7.15329 41.8111H6.96697C6.78065 42.08 6.45973 42.3799 6.15955 42.4212L7.3396 39.5256H7.32924ZM7.53628 38.0674C7.80541 38.0674 8.01246 37.8606 8.01246 37.5917C8.01246 37.3228 7.79506 37.116 7.53628 37.116C7.2775 37.116 7.0601 37.3332 7.0601 37.5917C7.0601 37.8503 7.26715 38.0674 7.53628 38.0674ZM4.60686 37.6021H1.95695L1.88448 37.8192C2.66082 37.9744 2.74367 38.0468 2.37102 39.0602L1.51185 41.4388C1.14956 42.4316 0.994304 42.5143 0.104097 42.6798L0.0419922 42.8969H4.06864L4.94847 41.3457H4.63795C4.14109 41.8938 3.56139 42.5764 2.67118 42.5764C1.99835 42.5764 1.90519 42.4626 2.27783 41.4491L3.137 39.0706C3.4993 38.0778 3.65455 37.9951 4.54476 37.8296L4.60686 37.6021Z" fill="black"/>
<path d="M22.8974 5.03644C22.9906 5.05712 23.1562 5.05712 23.1562 5.10883C23.1045 5.30532 22.8042 5.36737 22.6593 5.55351H22.5869C22.5144 5.60522 22.5351 5.71898 22.4626 5.71898C22.3902 5.69829 22.3178 5.71898 22.2453 5.73966C22.3385 5.83273 22.4627 5.90513 22.6179 5.88444C22.6386 5.88444 22.6904 5.93615 22.6904 5.97752C22.6904 5.97752 22.7111 5.97752 22.7421 5.95683C22.7629 5.95683 22.7939 5.95683 22.7939 5.97752V6.07059C22.7214 6.16366 22.5972 6.1223 22.4937 6.14298C22.6904 6.19469 22.8974 6.19469 23.063 6.14298C23.208 6.09127 23.0631 5.84308 23.1562 5.71898C23.1045 5.71898 23.1562 5.64659 23.1044 5.64659C23.1562 5.59488 23.1976 5.52249 23.2493 5.50181C23.3011 5.50181 23.3736 5.48112 23.3943 5.42942C23.3943 5.37771 23.3011 5.35702 23.3218 5.30531C23.4667 5.21224 23.6013 5.04678 23.5392 4.90199C23.5185 4.8296 23.3218 4.8296 23.1872 4.7779C23.0527 4.72619 22.9078 4.7779 22.7629 4.79858C22.6387 4.79858 22.504 4.87097 22.3902 4.89165C22.2246 4.94336 22.059 5.03644 21.9141 5.15019C22.0797 5.0778 22.266 5.05712 22.4626 5.00541C22.6076 5.00541 22.7422 4.97439 22.8871 5.00541V5.03644H22.8974Z" fill="white"/>
<path d="M5.58009 27.1158V25.3785H10.5177V25.8438C10.5177 26.6918 10.3831 27.4468 10.0932 28.119C9.80339 28.7808 9.43076 29.3289 8.94425 29.7219C8.20931 30.3321 7.91947 30.4251 7.3191 30.6423C6.71872 30.8595 6.06661 30.9629 5.39378 30.9629C4.64849 30.9629 3.95494 30.8388 3.30281 30.5699C2.65068 30.301 2.07104 29.9494 1.58453 29.4944C1.10837 29.029 0.715053 28.4706 0.445921 27.7984C0.156086 27.1365 0.0214844 26.4126 0.0214844 25.6473C0.0214844 25.0372 0.114666 24.4477 0.300988 23.8893C0.48731 23.3308 0.746091 22.8448 1.07733 22.4208C1.40857 21.9968 1.80191 21.6141 2.23666 21.3142C2.68177 20.9936 3.17862 20.7661 3.71688 20.5903C4.25515 20.4145 4.81412 20.3318 5.40414 20.3318C6.78086 20.3318 7.89878 20.6524 8.75793 21.2936C9.61709 21.9347 10.145 22.8138 10.3417 23.941H8.04369C7.88843 23.4446 7.57793 23.0516 7.11212 22.7724C6.64632 22.4932 6.07697 22.3484 5.40414 22.3484C4.52429 22.3484 3.79968 22.6586 3.18896 23.2791C2.57824 23.8996 2.28841 24.6856 2.28841 25.6473C2.28841 26.6091 2.58859 27.3951 3.18896 28.0156C3.78933 28.6361 4.53464 28.9463 5.40414 28.9463C6.12873 28.9463 6.72909 28.7912 7.20525 28.4706C7.6814 28.15 8.01266 27.695 8.18863 27.1055H5.59046L5.58009 27.1158Z" fill="black"/>
<path d="M18.312 30.5802C17.6495 30.849 16.9353 30.9732 16.2108 30.9732C15.4862 30.9732 14.772 30.8387 14.0991 30.5802C13.4263 30.3216 12.8466 29.9597 12.3498 29.5046C11.8529 29.0496 11.4595 28.4808 11.1697 27.8086C10.8799 27.1364 10.7246 26.4229 10.7246 25.6576C10.7246 24.8923 10.8695 24.1788 11.1697 23.5066C11.4699 22.8344 11.8529 22.2759 12.3498 21.8105C12.8466 21.3555 13.4263 20.9936 14.0991 20.735C14.772 20.4765 15.4758 20.342 16.2108 20.342C16.9457 20.342 17.6495 20.4661 18.312 20.735C18.9745 21.0039 19.5645 21.3555 20.0614 21.8105C20.5582 22.2656 20.9516 22.8344 21.2414 23.5066C21.5313 24.1684 21.6762 24.8923 21.6762 25.6576C21.6762 26.4229 21.5313 27.1364 21.2414 27.8086C20.9516 28.4808 20.5582 29.0393 20.0614 29.5046C19.5645 29.9597 18.9849 30.3216 18.312 30.5802ZM13.9024 28.0362C14.5132 28.6463 15.2791 28.9669 16.2004 28.9669C17.1217 28.9669 17.8877 28.6566 18.4984 28.0362C19.1091 27.426 19.4196 26.6297 19.4196 25.6679C19.4196 24.7062 19.1091 23.9099 18.4984 23.2997C17.8877 22.6896 17.1217 22.369 16.2004 22.369C15.2791 22.369 14.5132 22.6792 13.9024 23.2997C13.2917 23.9099 12.9812 24.7062 12.9812 25.6679C12.9812 26.6297 13.2917 27.426 13.9024 28.0362Z" fill="black"/>
<path d="M28.3635 30.5074C27.7527 30.8177 27.0489 30.9728 26.2622 30.9728C25.4755 30.9728 24.7716 30.8177 24.1609 30.5074C23.5501 30.1972 23.0637 29.7318 22.7014 29.1113C22.3391 28.4908 22.1631 27.7462 22.1631 26.8879V20.5588H24.4196V27.0844C24.4196 27.6531 24.5853 28.1185 24.9268 28.4701C25.2684 28.8217 25.7136 28.9975 26.2622 28.9975C26.8108 28.9975 27.2559 28.8321 27.5975 28.4701C27.9391 28.1185 28.1047 27.6531 28.1047 27.0844V20.5588H30.3612V26.8879C30.3612 27.7462 30.1853 28.4805 29.823 29.1113C29.4607 29.7421 28.9742 30.1972 28.3635 30.5074Z" fill="black"/>
<path d="M37.7107 30.7555H35.0505L31.2412 20.5381H33.622L36.0752 27.529C36.2305 28.0357 36.3443 28.3563 36.3857 28.4804C36.4272 28.3563 36.5203 28.0357 36.6963 27.529L39.1391 20.5381H41.52L37.7107 30.7555Z" fill="black"/>
<path d="M49.2213 30.7555H42.5137V20.5381H49.0453V22.5237H44.7702V24.4162H48.3725V26.4017H44.7702V28.7596H49.2213V30.7452V30.7555Z" fill="black"/>
<path d="M56.1352 26.9085L58.1122 30.7555H55.6901L53.92 27.3428H52.3777V30.7555H50.1211V20.5381H53.9614C55.1414 20.5381 56.1144 20.838 56.8183 21.4275C57.5222 22.0169 57.8949 22.8546 57.8949 23.9405C57.8949 24.6437 57.7396 25.2538 57.4291 25.7502C57.1185 26.2466 56.6734 26.6293 56.1248 26.8981L56.1352 26.9085ZM53.8889 22.4513H52.3984V25.4503H53.8889C54.4375 25.4503 54.8723 25.3262 55.1932 25.0573C55.5141 24.7885 55.6693 24.4265 55.6693 23.9508C55.6693 23.4751 55.5141 23.0925 55.1932 22.8443C54.8723 22.5961 54.4375 22.4513 53.8889 22.4513Z" fill="black"/>
<path d="M61.5593 30.7555H59.3027V20.5381H61.5593L66.1656 27.1567C66.1449 26.774 66.1345 26.35 66.1345 25.8743V20.5381H68.3911V30.7555H66.1345L61.5282 24.1369C61.5489 24.5196 61.5593 24.9436 61.5593 25.4193V30.7555Z" fill="black"/>
<path d="M77.1998 30.7555H70.4922V20.5381H77.0238V22.5237H72.7487V24.4162H76.351V26.4017H72.7487V28.7596H77.1998V30.7452V30.7555Z" fill="black"/>
<path d="M83.855 25.5125L85.6459 20.5486H88.451V30.766H86.2669V25.6056C86.2669 25.2436 86.298 24.7059 86.3497 23.9923L84.0724 30.766H82.4577L80.1804 23.9923C80.2425 24.7162 80.2632 25.254 80.2632 25.6056V30.766H78.0791V20.5486H80.8842L82.6751 25.5125C82.6751 25.5125 82.7164 25.6159 82.7785 25.7917C82.8406 25.9676 82.882 26.0813 82.9028 26.133C82.9235 26.1847 82.9545 26.2881 83.0062 26.4536C83.058 26.6191 83.0891 26.7328 83.1202 26.8259C83.1512 26.919 83.1616 27.0224 83.1926 27.1672C83.2237 27.312 83.234 27.4257 83.2444 27.5395C83.2444 27.4257 83.2754 27.312 83.2961 27.1672C83.3168 27.0224 83.3479 26.919 83.3686 26.8156C83.3996 26.7225 83.4307 26.5984 83.4824 26.4536C83.5342 26.3088 83.5652 26.1951 83.5963 26.1227C83.6273 26.0503 83.6584 25.9469 83.7205 25.7917C83.7826 25.6366 83.8033 25.5436 83.824 25.5022L83.855 25.5125Z" fill="black"/>
<path d="M96.939 30.7555H90.2314V20.5381H96.7631V22.5237H92.488V24.4162H96.0902V26.4017H92.488V28.7596H96.939V30.7452V30.7555Z" fill="black"/>
<path d="M100.232 30.7555H97.9756V20.5381H100.232L104.838 27.1567C104.818 26.774 104.807 26.35 104.807 25.8743V20.5381H107.064V30.7555H104.807L100.201 24.1369C100.222 24.5196 100.232 24.9436 100.232 25.4193V30.7555Z" fill="black"/>
<path d="M14.9789 12.0376L15.4033 11.6032C15.662 11.293 15.9415 11.0137 16.2417 10.7449L16.5212 10.4967C16.5212 10.4967 16.5626 10.4346 16.5626 10.4036L16.2314 10.5897C16.2314 10.5897 16.19 10.5897 16.2314 10.538L16.4591 10.3519H16.4177C16.1072 10.3415 15.8173 10.476 15.6207 10.7345H15.5275C15.1548 10.8793 14.8754 11.2102 14.5027 11.355L14.0369 11.5412C13.8402 11.5619 13.6332 11.5619 13.4366 11.5412L12.5049 11.7273L12.0391 11.9135H11.9977C11.9977 11.9135 11.9771 11.9652 11.9564 11.9652L11.8218 12.11C11.6769 12.203 11.5319 12.3168 11.3973 12.4512H11.356L10.9315 12.8856H10.8901C10.8901 12.8856 10.9316 12.8339 10.9833 12.7925C10.9833 12.7615 11.004 12.7201 11.0247 12.6994C11.0765 12.6477 11.1076 12.5857 11.1179 12.5133L11.5423 12.2237C11.5423 12.2237 11.5009 12.203 11.5009 12.172H11.4077C11.3663 12.2651 11.3146 12.3581 11.2214 12.3581C11.2214 12.3581 11.2421 12.3064 11.2628 12.3064L11.4491 12.1617L11.7286 11.9755H11.77L11.3456 12.1617H11.3042C11.3042 12.1617 11.3042 12.2134 11.2628 12.1617L11.3973 12.0169H11.4388C12.2358 11.3964 13.3434 11.5412 14.275 11.1999L14.5027 11.0551C14.5959 11.0034 14.6891 10.869 14.8754 10.8069C15.0617 10.6414 15.217 10.4243 15.2998 10.1864H15.2584C14.9168 10.3209 14.5648 10.3933 14.1922 10.4346C13.6643 10.6415 13.095 10.7449 12.5153 10.7242H12.6499C12.6499 10.7242 12.6912 10.6311 12.743 10.5794H12.8362C12.8362 10.5794 12.8569 10.5277 12.8776 10.5277H12.9708C12.8776 10.4346 12.743 10.6208 12.5981 10.5277C12.4532 10.4346 12.6395 10.4346 12.6912 10.3829H12.7844C12.7844 10.3829 12.8051 10.3105 12.8258 10.2898C13.1985 10.0416 13.5711 9.9072 13.892 9.66935C14.2129 9.43149 13.7989 9.76242 13.7057 9.72105C13.6126 9.67969 13.7057 9.62798 13.7471 9.62798C14.0266 9.5349 14.2854 9.43149 14.5442 9.28671C14.451 9.28671 14.3578 9.37978 14.2647 9.28671H14.3992V9.19364C14.3992 9.19364 14.4199 9.14193 14.4406 9.14193H14.3992L14.5338 9.04885H14.4924C14.5648 8.94544 14.689 8.89373 14.8236 8.90407C14.7822 8.85236 14.689 8.90407 14.689 8.85236C14.689 8.80065 14.7305 8.80066 14.7822 8.80066H14.689C14.689 8.80066 14.6476 8.77997 14.6476 8.74895C14.6476 8.71792 14.6683 8.69724 14.689 8.69724C14.7822 8.50075 14.865 8.29392 14.9168 8.07675H14.8754C14.5752 8.33528 14.2336 8.50075 13.8506 8.60417H13.716C13.5814 8.65588 13.4159 8.63519 13.2916 8.55246L13.0639 8.36631L12.4118 8.02504C11.8114 7.7665 11.1593 7.61138 10.5072 7.54933C10.797 7.44591 11.0868 7.36318 11.387 7.30113C11.7803 7.12532 12.2151 7.04259 12.6499 7.05294C12.5567 7.00123 12.4635 7.05294 12.4221 7.05294C12.0598 7.03225 11.6872 7.07362 11.356 7.19772L10.6106 7.38386C10.4761 7.43557 10.3829 7.63206 10.238 7.57001V7.47694C10.4554 7.14601 10.7867 6.92883 11.1696 6.85644C11.6044 6.80474 12.0495 6.81508 12.4739 6.90815L13.4469 7.0943C13.5401 7.0943 13.5815 7.28045 13.6746 7.3425C13.7678 7.40455 13.9541 7.3425 14.1404 7.43557C14.3268 7.52865 14.099 7.3425 14.1404 7.29079C14.1819 7.23908 14.3268 7.29079 14.4717 7.23908C14.6166 7.18738 14.2854 6.89781 14.1922 6.71166C14.3682 6.88747 14.5752 7.06327 14.7926 7.18737C14.9271 7.28045 15.217 7.33215 15.1652 7.18737C15.0099 6.90815 14.8133 6.65996 14.6063 6.4221V6.32903H14.5131V6.08083C14.4199 6.02912 14.4717 5.93605 14.3785 5.89468C14.2853 5.85331 14.3785 5.55341 14.3371 5.41897C14.2854 5.28453 14.2543 5.12941 14.2439 4.98463C14.1508 4.57096 14.068 4.1573 14.0162 3.74364C13.9748 3.26793 14.2957 2.88529 14.5234 2.45095C14.658 2.10967 14.9064 1.83045 15.217 1.63396C15.2998 1.32372 15.4654 1.04449 15.6828 0.816979C15.8691 0.568782 16.1383 0.382636 16.4281 0.289562L17.1216 0H22.0902L22.1834 0.0930741L22.556 0.279218C22.732 0.361951 22.8976 0.496394 23.0218 0.661858C23.0632 0.754932 23.1564 0.910054 23.115 1.00313C23.0735 1.0962 23.0218 1.3444 22.9286 1.38577C22.7527 1.45816 22.556 1.49952 22.3697 1.47884L22.0902 1.38577C22.4835 1.52021 22.8251 1.7684 23.0632 2.10967L23.2909 2.20275C23.2909 2.20275 23.1978 2.29582 23.2495 2.34753H23.2909C23.4255 2.29582 23.3841 2.05797 23.5704 2.16138C23.6843 2.20275 23.7464 2.33719 23.705 2.47163C23.705 2.50265 23.6843 2.52334 23.6636 2.54402L23.3841 2.79221C23.3427 2.84392 23.3427 2.92666 23.3841 2.97836L23.5187 3.26793L23.6532 3.83671C23.7775 4.20901 23.8396 4.59164 23.8396 4.97428C23.8396 5.16043 23.7464 5.35692 23.7982 5.54307C23.881 5.72921 23.9741 5.93605 24.0776 6.11185C24.1915 6.21527 24.295 6.33937 24.3571 6.49449C24.4917 6.74269 24.7815 7.02191 24.6884 7.31147C24.5952 7.60104 24.3157 7.45625 24.1294 7.60104C23.943 7.74582 24.1294 7.94231 24.2225 8.03538C24.3157 8.12845 24.0362 8.41802 23.8913 8.51109C23.7464 8.60417 24.0259 8.5628 24.0259 8.60417C24.0259 8.64553 24.2122 8.79031 24.1191 8.94544C24.0259 9.10056 23.6946 9.19363 23.8913 9.42115C24.088 9.64866 23.8913 9.80379 23.8499 9.94857C23.7775 10.1451 23.5911 10.3002 23.3841 10.3312C23.2495 10.4139 23.0735 10.4346 22.9183 10.3829H22.7837C22.3697 10.3002 21.9453 10.2381 21.5209 10.1968L21.1483 10.2898L20.8688 10.5794H20.7342L20.5479 10.869C20.5479 10.869 20.5478 10.9207 20.5064 10.9207L20.3201 11.3964C20.1855 11.9652 20.227 12.4926 20.3616 12.596C20.4961 12.6994 21.2 12.8856 21.7072 13.1648L22.3076 13.4544H12.0702C12.5981 13.1338 13.1364 12.8545 13.6954 12.596C14.1508 12.4202 14.5752 12.1617 14.9582 11.8307M11.1696 10.083C11.1696 10.083 11.0351 10.1347 11.0351 10.083C11.0351 10.0313 11.2214 9.93823 11.3663 9.89686C11.5112 9.85549 11.4595 9.80378 11.5009 9.84515L11.6872 9.93822C11.5526 10.083 11.356 10.0313 11.18 10.083M7.35004 9.51422H7.30859C7.62948 9.1109 7.90903 8.6869 8.1471 8.22153C8.44729 8.04572 8.72677 7.82855 8.98555 7.60104C9.3789 7.12532 9.84468 6.74269 10.3829 6.46347C10.59 6.41176 10.8281 6.4221 11.0351 6.51517C10.9419 6.60825 10.8073 6.60825 10.7038 6.65996H10.6624V6.56688C10.4347 6.85644 10.0621 7.00123 9.86538 7.33216C9.66871 7.66309 9.63768 7.90094 9.30644 7.95265C8.9752 8.00436 9.3064 7.90094 9.26499 7.90094C8.57146 8.40768 7.91937 8.99714 7.3604 9.66935M9.39956 7.97333C9.39956 7.97333 9.35818 8.02504 9.35818 8.06641C9.35818 8.10777 9.31675 8.15948 9.26499 8.15948H9.22361C9.22361 8.06641 9.31676 7.91128 9.40993 7.91128M10.5589 11.748C10.5589 11.748 10.5175 11.7997 10.5175 11.8411C10.5175 11.8824 10.5589 11.8411 10.5589 11.8928L10.3726 11.9859C10.3726 11.9859 10.3312 12.0065 10.3312 12.0376H10.238C10.238 12.0376 10.0517 12.0893 10.1034 12.0376L10.2898 11.8514C10.2898 11.8514 10.3829 11.7997 10.3829 11.7583H10.5693M10.1449 11.5618L9.81364 11.748L9.48239 11.8928H9.44101L9.21325 12.0789H9.07868C9.07868 12.0789 9.058 12.1306 9.0373 12.1306H8.99585C8.99585 12.1306 8.99587 12.1823 8.95447 12.1823H8.91309C8.91309 12.1823 8.8199 12.234 8.8199 12.2754L8.68533 12.4202H8.55075L8.64394 12.3271H8.73707C8.73707 12.3271 8.7785 12.234 8.83026 12.234C8.83026 12.234 8.85094 12.1823 8.87164 12.1823C8.87164 12.1823 8.91309 12.1306 8.91309 12.0893C8.91309 12.0893 9.00621 11.9962 9.00621 11.9445L8.91309 12.0376C8.91309 12.0376 8.87164 12.0169 8.87164 11.9859C8.89234 11.9859 8.91309 11.9652 8.91309 11.9341H8.95447L9.04766 11.7894H9.14078V11.6963C9.42027 11.4481 9.79291 11.5101 10.1138 11.3137C10.4347 11.1172 10.3933 11.3654 10.4864 11.3137H10.7142L10.1138 11.748M10.6106 9.98993C10.6106 9.98993 10.6521 9.98993 10.7038 9.89686H10.5175L10.0931 10.0416L9.58588 10.2278C9.3271 10.3829 9.06836 10.538 8.78888 10.6621C8.60255 10.7449 8.59216 10.7242 8.74743 10.6104L8.93375 10.4656C9.13042 10.2071 9.36854 9.97959 9.62732 9.80379V9.71071C9.73084 9.62798 9.82395 9.5349 9.90676 9.42115C9.94817 9.30739 10.031 9.22466 10.1345 9.17295H10.0413C9.94817 9.17295 9.85506 9.22466 9.7619 9.12124L9.8964 9.02817H9.85502C9.81362 8.9351 9.89643 8.88339 9.98959 8.88339L10.2691 8.79032C10.0828 8.73861 9.89641 8.84202 9.71009 8.7386C9.8136 8.40768 10.062 8.1388 10.3622 7.97333H10.4037C10.4037 8.11811 10.3623 8.22153 10.2174 8.22153L10.8177 8.40768C10.8177 8.40768 10.797 8.45938 10.7763 8.45938C10.7556 8.45938 10.7349 8.4387 10.7349 8.40768C10.8281 8.50075 11.0144 8.45938 11.1075 8.55246C11.2007 8.64553 10.973 8.55246 10.9212 8.55246C11.6665 8.80065 12.4946 8.93509 13.1571 9.46251C12.5981 9.62798 12.0184 9.72105 11.4284 9.71071H11.2007C11.1075 9.71071 11.0144 9.71071 10.973 9.80379H10.6417" fill="white"/>
<path d="M14.9783 12.0376L15.4026 11.6032C15.6614 11.293 15.9409 11.0137 16.2411 10.7449L16.5206 10.4967C16.5206 10.4967 16.562 10.4346 16.562 10.4036L16.2308 10.5897C16.2308 10.5897 16.1894 10.5897 16.2308 10.538L16.4585 10.3519H16.4171C16.1066 10.3415 15.8167 10.476 15.62 10.7345H15.5269C15.1542 10.8793 14.8747 11.2102 14.5021 11.355L14.0363 11.5412C13.8396 11.5618 13.6326 11.5618 13.436 11.5412L12.5043 11.7273L12.0385 11.9135H11.9971C11.9971 11.9135 11.9764 11.9652 11.9557 11.9652L11.8212 12.11L11.3967 12.4512C11.3967 12.4512 11.3553 12.4719 11.3553 12.5029L10.9309 12.8856H10.8895C10.8895 12.8856 10.931 12.8339 10.9827 12.7925C10.9827 12.7615 11.0034 12.7201 11.0241 12.6994C11.0758 12.6477 11.1069 12.5857 11.1173 12.5133L11.5417 12.2237C11.5417 12.2237 11.5003 12.203 11.5003 12.172H11.4071C11.3657 12.2651 11.3139 12.3581 11.2208 12.3581C11.2208 12.3581 11.2415 12.3064 11.2622 12.3064L11.4485 12.1617L11.728 11.9755H11.7694L11.345 12.1617H11.3036C11.3036 12.1617 11.3036 12.2134 11.2622 12.1617L11.3967 12.0169H11.4382C12.2352 11.3964 13.3428 11.5412 14.2744 11.1999L14.5021 11.0551C14.5953 11.0034 14.6885 10.869 14.8748 10.8069C15.0611 10.6414 15.2164 10.4243 15.2992 10.1864H15.2578C14.9162 10.3209 14.5642 10.3933 14.1916 10.4346C13.6637 10.6415 13.0943 10.7449 12.5147 10.7242H12.6492C12.6492 10.7242 12.6906 10.6311 12.7424 10.5794H12.8356C12.8356 10.5794 12.8562 10.5277 12.8769 10.5277H12.9701C12.877 10.4346 12.7424 10.6208 12.5975 10.5277C12.4526 10.4346 12.6389 10.4346 12.6906 10.3829H12.7838C12.7838 10.3829 12.8045 10.3105 12.8252 10.2898C13.1978 10.0416 13.5705 9.9072 13.8914 9.66935C14.2123 9.43149 13.7983 9.76242 13.7051 9.72105C13.6119 9.67969 13.7051 9.62798 13.7465 9.62798C14.026 9.5349 14.2848 9.43149 14.5435 9.28671C14.4504 9.28671 14.3572 9.37978 14.264 9.28671H14.3986V9.19363C14.3986 9.19363 14.4193 9.14193 14.44 9.14193H14.3986L14.5332 9.04885H14.4917C14.5642 8.94544 14.6884 8.89373 14.823 8.90407C14.7816 8.85236 14.6884 8.90407 14.6884 8.85236C14.6884 8.80065 14.7298 8.80065 14.7816 8.80065H14.6884C14.6884 8.80065 14.647 8.77997 14.647 8.74895C14.647 8.71792 14.6677 8.69724 14.6884 8.69724C14.7816 8.50075 14.8644 8.29392 14.9162 8.07675H14.8748C14.5746 8.33528 14.233 8.50075 13.85 8.60417H13.7154C13.5808 8.65587 13.4152 8.63519 13.291 8.55246L13.0633 8.36631L12.4112 8.02504C11.8108 7.7665 11.1587 7.61138 10.5065 7.54933C10.7964 7.44591 11.0862 7.36318 11.3864 7.30113C11.7797 7.12532 12.2145 7.04259 12.6492 7.05293C12.5561 7.00123 12.4629 7.05293 12.4215 7.05293C12.0592 7.03225 11.6866 7.07362 11.3553 7.19772L10.61 7.38386C10.4755 7.43557 10.3823 7.63206 10.2374 7.57001V7.47694C10.4548 7.14601 10.786 6.92883 11.169 6.85644C11.6038 6.80474 12.0489 6.81508 12.4733 6.90815L13.4463 7.0943C13.5395 7.0943 13.5808 7.28045 13.674 7.3425C13.7672 7.40455 13.9535 7.3425 14.1398 7.43557C14.3261 7.52864 14.0984 7.3425 14.1398 7.29079C14.1812 7.23908 14.3262 7.29079 14.4711 7.23908C14.616 7.18738 14.2847 6.89781 14.1916 6.71166C14.4193 6.85644 14.5642 7.0943 14.792 7.18737C15.0197 7.28045 15.2163 7.33215 15.1646 7.18737C15.0093 6.90815 14.8127 6.65996 14.6056 6.4221V6.32903H14.5125V6.08083C14.4193 6.02912 14.4711 5.93604 14.4193 5.89468C14.3676 5.85331 14.3779 5.55341 14.3261 5.41897C14.2744 5.28453 14.2433 5.12941 14.233 4.98463C14.1398 4.57096 14.057 4.1573 14.0053 3.74364C13.9639 3.26793 14.2847 2.88529 14.5125 2.45095C14.647 2.10967 14.8954 1.83045 15.206 1.63396C15.2888 1.32372 15.4544 1.04449 15.6718 0.816979C15.8581 0.568782 16.1273 0.382636 16.4171 0.289562L17.1106 0H0V13.5371H12.0799C12.6079 13.2165 13.1461 12.9373 13.7051 12.6787C14.1605 12.5029 14.5849 12.2444 14.9679 11.9135M11.169 10.2174C11.169 10.2174 11.0345 10.2692 11.0345 10.2174C11.0345 10.1657 11.2208 10.0727 11.3657 10.0313C11.5106 9.98993 11.4589 9.93822 11.5003 9.97959L11.6866 10.0727C11.552 10.2174 11.3554 10.1657 11.1794 10.2174M7.34942 9.64866H7.30797C7.62886 9.24534 7.9084 8.82134 8.14648 8.35597C8.46737 8.14914 8.7365 7.8906 8.98493 7.5907C9.37828 7.11498 9.84406 6.73234 10.3823 6.45312C10.5893 6.40142 10.8274 6.41176 11.0345 6.50483C10.9413 6.5979 10.8067 6.5979 10.7032 6.64961H10.6618V6.55654C10.4341 6.8461 10.0614 6.99088 9.86476 7.32181C9.66809 7.65274 9.63706 7.8906 9.30582 7.9423C8.97458 7.99401 9.30578 7.8906 9.26437 7.8906C8.57084 8.39733 7.91875 8.98681 7.35978 9.65901M9.39894 7.97333C9.39894 7.97333 9.35756 8.02504 9.35756 8.06641C9.35756 8.10777 9.31613 8.15948 9.26437 8.15948H9.22299C9.22299 8.06641 9.31614 7.91128 9.4093 7.91128M10.5583 11.748C10.5583 11.748 10.5169 11.7997 10.5169 11.8411C10.5169 11.8824 10.5583 11.8411 10.5583 11.8928L10.372 11.9859H10.2374C10.2374 11.9859 10.0511 12.0376 10.1028 11.9859L10.2891 11.7997C10.2891 11.7997 10.3823 11.748 10.3823 11.7066C10.403 11.7066 10.4237 11.6859 10.4237 11.6549H10.5583M10.1443 11.4584L9.81302 11.6446L9.48177 11.7894H9.44039L9.21263 11.9755H9.07806C9.07806 11.9755 9.05738 12.0272 9.03667 12.0272H8.99523C8.99523 12.0272 8.99525 12.0789 8.95385 12.0789H8.91246C8.91246 12.0789 8.81927 12.1306 8.81927 12.172L8.6847 12.3168H8.55013L8.64332 12.2237H8.73645C8.73645 12.2237 8.77788 12.1306 8.82964 12.1306C8.82964 12.1306 8.85032 12.0789 8.87102 12.0789C8.87102 12.0789 8.91246 12.0272 8.91246 11.9859C8.91246 11.9859 9.00559 11.8928 9.00559 11.8411L8.91246 11.9341C8.91246 11.9341 8.87102 11.9135 8.87102 11.8824C8.89172 11.8824 8.91246 11.8618 8.91246 11.8307H8.95385L9.04704 11.6859H9.14016V11.5929C9.41964 11.3447 9.79229 11.4067 10.1132 11.2102C10.4341 11.0137 10.3926 11.2619 10.4858 11.2102H10.7136L10.1132 11.6446M10.61 9.88652C10.61 9.88652 10.6515 9.88652 10.7032 9.79344H10.5169L10.0925 9.93822L9.58526 10.1244C9.32648 10.2795 9.06774 10.4346 8.78825 10.5587C8.60193 10.6415 8.59154 10.6208 8.74681 10.507L8.93312 10.3622C9.1298 10.1037 9.36792 9.87617 9.6267 9.70037V9.60729C9.73021 9.52456 9.82333 9.43149 9.90614 9.31773C9.94755 9.20398 10.0304 9.12124 10.1339 9.06953H10.0407C9.94755 9.06953 9.85443 9.12124 9.76127 9.01783L9.89578 8.92475H9.8544C9.81299 8.83168 9.89581 8.77997 9.98897 8.77997L10.2685 8.6869C10.0822 8.63519 9.89579 8.73861 9.70947 8.63519C9.81298 8.30426 10.0614 8.03538 10.3616 7.86991H10.403C10.403 8.0147 10.3616 8.11811 10.2167 8.11811L10.8171 8.30426C10.8171 8.30426 10.7964 8.35597 10.7757 8.35597C10.755 8.35597 10.7343 8.33529 10.7343 8.30426C10.8275 8.39733 11.0138 8.35597 11.1069 8.44904C11.2001 8.54212 10.9724 8.44904 10.9206 8.44904C11.6659 8.69724 12.494 8.83168 13.1564 9.3591C12.6078 9.55559 12.0282 9.67969 11.4278 9.70037H11.2C11.1069 9.70037 11.0138 9.70037 10.9724 9.79344H10.6411" fill="#293273"/>
<path d="M36.2196 0.113525H22.0798L22.173 0.206599L22.5456 0.392748C22.7216 0.47548 22.8872 0.609923 23.0114 0.775388C23.0528 0.868462 23.1459 1.02358 23.1045 1.11666C23.0631 1.20973 23.0114 1.45793 22.9182 1.49929C22.7422 1.57168 22.5456 1.61305 22.3593 1.59237L22.0798 1.49929C22.4731 1.63373 22.8147 1.88193 23.0528 2.2232L23.2805 2.31628C23.2805 2.31628 23.1873 2.40935 23.2391 2.46106H23.2805C23.4151 2.40935 23.3737 2.17149 23.56 2.27491C23.6738 2.31628 23.736 2.45072 23.6946 2.58516C23.6946 2.61618 23.6739 2.63687 23.6532 2.65755L23.3737 2.90574C23.3323 2.95745 23.3323 3.04018 23.3737 3.09189L23.5082 3.38145L23.6428 3.95024C23.767 4.32254 23.8291 4.70517 23.8291 5.08781C23.8291 5.27396 23.736 5.47045 23.8291 5.6566C23.8809 5.85309 23.9534 6.04957 24.0569 6.22538C24.1707 6.3288 24.2742 6.4529 24.3363 6.60802C24.5226 6.85622 24.7607 7.13544 24.6676 7.425C24.5744 7.71456 24.295 7.56978 24.1086 7.71457C23.9223 7.85935 24.1086 8.05583 24.2018 8.14891C24.2949 8.24198 24.0154 8.53155 23.8705 8.62462C23.7256 8.7177 24.0051 8.67633 24.0051 8.71769C24.0051 8.75906 24.1914 8.90384 24.0983 9.05897C24.0051 9.21409 23.6738 9.30716 23.8705 9.53468C24.0672 9.76219 23.8705 9.91732 23.8291 10.0621C23.7567 10.2586 23.5703 10.4137 23.3633 10.4447C23.2287 10.5275 23.0528 10.5481 22.8976 10.4964H22.763C22.3489 10.4137 21.9245 10.3517 21.5001 10.3103L21.1275 10.4034L20.848 10.6929H20.7134L20.5271 10.9825C20.5271 10.9825 20.5271 11.0342 20.4857 11.0342L20.2994 11.5099C20.1648 12.0787 20.2062 12.6061 20.3408 12.7095C20.4753 12.8129 21.1792 12.9991 21.6864 13.2783L22.2868 13.5679H36.1885V0.144553L36.2196 0.113525Z" fill="#E00814"/>
<path d="M22.9174 5.06723H23.1451C23.1037 5.31542 22.8139 5.35679 22.6379 5.54294H22.5965C22.5033 5.59464 22.5551 5.72908 22.4619 5.72908H22.2342C22.317 5.85318 22.4516 5.92557 22.6068 5.91523L22.7 6.00831H22.7931V6.15309C22.7 6.24616 22.6068 6.2048 22.5136 6.24616H23.0726C23.2072 6.15309 23.0726 5.90489 23.1658 5.77045C23.2589 5.63601 23.1658 5.71874 23.1244 5.71874C23.083 5.71874 23.2176 5.57396 23.259 5.57396C23.3004 5.57396 23.3935 5.52226 23.3935 5.48089C23.3935 5.43952 23.3003 5.38782 23.3521 5.33611C23.4038 5.2844 23.6316 5.08791 23.5798 4.95347C23.5281 4.81903 23.3521 4.8604 23.2072 4.80869C23.0727 4.77766 22.9173 4.79835 22.7828 4.86039L22.4102 4.95347L21.9443 5.20167C22.1203 5.12928 22.317 5.07757 22.5033 5.05689C22.6379 5.0362 22.7828 5.0362 22.9277 5.05689" fill="#9C9B9B"/>
</svg>
