<svg width="145" height="43" viewBox="0 0 145 43" fill="none" xmlns="http://www.w3.org/2000/svg">
<path d="M68.9956 5.91181C67.7955 5.43223 66.8724 4.71285 66.8724 3.18186C66.8724 1.18974 68.414 0 70.3526 0C72.2912 0 73.6298 1.24508 73.6575 3.30176L72.125 3.66145C71.9681 2.24114 71.3127 1.60476 70.3157 1.60476C69.4387 1.60476 68.5986 2.08435 68.5986 3.02508C68.5986 3.9658 69.4387 4.30705 70.1126 4.56528L71.6912 5.19243C73.0759 5.73658 74.0267 6.48362 74.0267 8.07917C74.0267 10.1358 72.402 11.2887 70.3619 11.2887C68.1648 11.2887 66.5585 9.95139 66.54 7.70103L68.0725 7.38746C68.2571 8.81699 68.9587 9.67471 70.3341 9.67471C71.285 9.67471 72.282 9.26891 72.282 8.18062C72.282 7.16611 71.4234 6.87098 70.5003 6.51129L68.9864 5.90259L68.9956 5.91181Z" fill="black"/>
<path d="M79.6769 11.1971L79.6493 10.6161C79.0215 11.0035 78.3845 11.2894 77.7291 11.2894C76.4183 11.2894 74.9043 10.4317 74.9043 7.99684V3.29321H76.5568V7.8585C76.5568 9.41715 77.3229 9.73072 77.9138 9.73072C78.5876 9.73072 79.3816 9.34336 79.5939 8.07984V3.29321H81.2279V11.1971H79.6678H79.6769Z" fill="black"/>
<path d="M83.8957 7.78398C84.0804 9.41641 84.9851 9.72999 85.7236 9.72999C86.4621 9.72999 87.1083 9.41641 87.5607 8.75237L88.9915 9.13051C88.5669 10.4586 87.3575 11.2979 85.7513 11.2979C83.9234 11.2979 82.1787 10.2188 82.1787 7.27673C82.1787 4.33465 83.9696 3.20947 85.7051 3.20947C87.4406 3.20947 89.2131 4.28854 89.2131 7.25828V7.78398H83.8957ZM87.4683 6.4559C87.2375 5.03559 86.4067 4.7589 85.7513 4.7589C84.9851 4.7589 84.1912 5.16471 83.9142 6.4559H87.4683Z" fill="black"/>
<path d="M96.4322 9.12123C96.0445 10.4954 95.0013 11.2886 93.4874 11.2886C91.7057 11.2886 89.9609 10.2095 89.9609 7.249C89.9609 4.28848 91.7242 3.2002 93.5058 3.2002C94.9367 3.2002 96.0629 3.90113 96.4507 5.30299C95.9337 5.43211 95.5183 5.57045 95.0198 5.69035C94.6321 5.0632 94.1151 4.75885 93.4412 4.75885C92.6473 4.75885 91.6318 5.19232 91.6318 7.249C91.6318 9.30569 92.6288 9.72993 93.4227 9.72993C94.1059 9.72993 94.6228 9.40713 95.0106 8.75232L96.4322 9.13045V9.12123Z" fill="black"/>
<path d="M97.0137 11.1972V9.68464H98.6015V4.80578H97.0137V3.29325H100.226V9.68464H101.814V11.1972H97.0137ZM99.3954 2.29718C98.7677 2.29718 98.3061 1.79915 98.3061 1.20889C98.3061 0.618633 98.7769 0.120605 99.3954 0.120605C100.014 0.120605 100.503 0.618633 100.503 1.20889C100.503 1.79915 100.005 2.29718 99.3954 2.29718Z" fill="black"/>
<path d="M107.104 11.1964L107.076 10.6154C106.439 11.0673 105.747 11.2886 105.036 11.2886C103.54 11.2886 102.294 10.56 102.294 8.95527C102.294 7.35051 103.429 6.60346 105.119 6.49279L107.02 6.36367V6.1331C107.02 5.22926 106.522 4.7589 105.617 4.7589C104.98 4.7589 104.417 4.98947 103.993 5.47828L102.654 5.09092C103.014 3.98419 104.214 3.20947 105.691 3.20947C107.528 3.20947 108.673 4.40843 108.673 5.98553V11.2056H107.104V11.1964ZM107.011 7.70097L105.137 7.83009C104.306 7.89465 103.956 8.25434 103.956 8.89071C103.956 9.29652 104.113 9.72999 105.174 9.72999C105.747 9.72999 106.42 9.60087 107.011 8.9645V7.70097Z" fill="black"/>
<path d="M70.1221 28.4703C68.1558 27.6771 66.6511 26.5058 66.6511 24.0157C66.6511 20.76 69.1805 18.8232 72.3377 18.8232C75.4948 18.8232 77.6919 20.8615 77.738 24.2186L75.2363 24.7996C74.9778 22.4847 73.907 21.4425 72.2823 21.4425C70.8514 21.4425 69.4759 22.2357 69.4759 23.7574C69.4759 25.2792 70.8514 25.8418 71.9499 26.2753L74.5255 27.2898C76.7964 28.1844 78.3473 29.4018 78.3473 32.0026C78.3473 35.3597 75.6979 37.2504 72.3561 37.2504C68.7651 37.2504 66.1341 35.0646 66.1064 31.3939L68.6081 30.8867C68.9128 33.2292 70.0575 34.6311 72.3099 34.6311C73.8608 34.6311 75.4948 33.9671 75.4948 32.1871C75.4948 30.527 74.0916 30.0474 72.5869 29.4571L70.1129 28.4611H70.1221V28.4703Z" fill="black"/>
<path d="M93.3127 31.5228C93.6174 34.1975 95.0944 34.7047 96.2945 34.7047C97.4945 34.7047 98.5654 34.1975 99.3039 33.0999L101.649 33.7087C100.956 35.876 98.9716 37.2502 96.3498 37.2502C93.3681 37.2502 90.5156 35.4979 90.5156 30.6836C90.5156 25.8693 93.4512 24.0339 96.276 24.0339C99.1009 24.0339 102.009 25.7955 102.009 30.6559V31.5228H93.3127ZM99.147 29.3647C98.7685 27.0498 97.4115 26.5887 96.3407 26.5887C95.0944 26.5887 93.7928 27.2527 93.3312 29.3647H99.147Z" fill="black"/>
<path d="M111.673 37.1031V34.6314H114.276V26.6629H111.673V24.1912H116.926V34.6314H119.529V37.1031H111.673ZM115.568 22.5403C114.571 22.5403 113.787 21.7011 113.787 20.6589C113.787 19.6167 114.581 18.7498 115.568 18.7498C116.556 18.7498 117.406 19.589 117.406 20.6589C117.406 21.7287 116.593 22.5403 115.568 22.5403Z" fill="black"/>
<path d="M128.658 35.988C127.458 37.0301 126.461 37.2607 125.52 37.2607C122.944 37.2607 119.935 35.5084 119.935 30.6387C119.935 25.7691 122.944 24.0444 125.492 24.0444C126.637 24.0444 127.578 24.4041 128.732 25.391L128.806 24.192H131.354V37.1039C131.354 40.1843 129.166 42.4808 125.723 42.4808C123.073 42.4808 121.107 41.1527 120.47 38.9392L122.815 38.3305C123.553 39.4281 124.624 39.9353 125.824 39.9353C127.634 39.9353 128.658 38.8193 128.658 37.1039V35.988ZM128.658 29.7718C128.326 27.5306 127.024 26.5899 125.575 26.5899C124.329 26.5899 122.695 27.3001 122.695 30.6664C122.695 34.0327 124.301 34.7152 125.63 34.7152C126.849 34.7152 128.335 34.1065 128.667 32.0406V29.7718H128.658Z" fill="black"/>
<path d="M135.823 31.5228C136.128 34.1975 137.605 34.7047 138.805 34.7047C140.005 34.7047 141.076 34.1975 141.815 33.0999L144.159 33.7087C143.467 35.876 141.482 37.2502 138.861 37.2502C135.879 37.2502 133.026 35.4979 133.026 30.6836C133.026 25.8693 135.962 24.0339 138.787 24.0339C141.612 24.0339 144.52 25.7955 144.52 30.6559V31.5228H135.823ZM141.667 29.3647C141.288 27.0498 139.931 26.5887 138.861 26.5887C137.614 26.5887 136.313 27.2527 135.851 29.3647H141.667Z" fill="black"/>
<path d="M110.556 24.2197C110.076 24.0905 109.586 24.0444 109.31 24.0444C108.294 24.0444 107.195 24.7085 106.226 25.6769L106.125 24.2012H103.604V37.1131H106.309V29.6519C106.669 27.586 107.916 26.9035 109.06 26.9035C109.448 26.9035 109.9 26.9773 110.565 27.1064V24.2289H110.556V24.2197Z" fill="black"/>
<path d="M83.2589 37.1031L78.6709 24.1912H81.468L84.579 33.3955L87.6992 24.1912H90.4964L85.9083 37.1031H83.2589Z" fill="black"/>
<path d="M25.9219 0.102051H18.5183V14.9046H0V22.3013H18.5183V37.1039H25.9219V22.3013H59.2658V14.9046H25.9219V0.102051Z" fill="#FFD600"/>
<path d="M18.5183 0.102051H0V14.9046H18.5183V0.102051Z" fill="#005694"/>
<path d="M59.2566 0.102295H25.9219V14.9049H59.2566V0.102295Z" fill="#005694"/>
<path d="M18.5183 22.3013H0V37.1039H18.5183V22.3013Z" fill="#005694"/>
<path d="M59.2566 22.3013H25.9219V37.1039H59.2566V22.3013Z" fill="#005694"/>
</svg>
