<svg width="119" height="38" viewBox="0 0 119 38" fill="none" xmlns="http://www.w3.org/2000/svg">
<path d="M30.9818 32.0696C30.3606 32.7523 29.7127 33.2842 29.0383 33.7984C23.1814 38.187 15.2745 38.4707 8.8762 34.5343C2.41581 30.5624 -0.965227 23.1594 0.241659 15.6234C1.4308 8.22931 7.18125 2.08527 14.5468 0.453955C19.3211 -0.601082 23.8203 0.18798 27.9734 2.76794C28.1065 2.84773 28.2396 2.92753 28.355 3.02505C28.5147 3.15804 28.5147 3.32649 28.4349 3.48608C28.3461 3.6368 28.1953 3.68999 28.0355 3.6368C27.858 3.57473 27.6805 3.48608 27.5119 3.41515C18.061 -0.955715 6.88839 3.77865 3.72031 13.5045C0.614358 23.0175 6.64879 33.1955 16.5346 35.146C21.5396 36.1301 26.1364 35.146 30.3517 32.2912C30.5025 32.1937 30.6268 32.0164 30.9818 32.0696Z" fill="black"/>
<path d="M29.1717 27.3887C30.778 25.0924 31.6299 22.5568 31.7008 19.7818C31.8695 13.2477 27.2194 7.76856 20.7679 6.89084C14.8754 6.08405 9.00962 9.96729 7.28803 15.8099C6.39174 18.8863 6.6402 21.8919 7.88258 24.8353C7.92695 24.9417 7.97135 25.0481 8.0246 25.1545C8.11334 25.3673 8.13107 25.5712 7.89146 25.6953C7.65186 25.8194 7.49215 25.6953 7.35904 25.5003C6.76447 24.6491 6.27639 23.7271 5.91254 22.7607C3.19705 15.6148 6.79108 7.74196 14.059 4.89603C22.383 1.64226 31.7364 6.79332 33.2716 15.5882C34.0259 19.9502 32.8723 23.8601 29.7752 27.1227C29.5444 27.371 29.5355 27.3621 29.1806 27.3976L29.1717 27.3887Z" fill="black"/>
<path d="M13.2158 12.0336C16.872 7.78691 23.3413 7.83124 27.1217 12.1755C29.5887 15.0214 30.272 18.3195 29.0296 21.8836C27.8049 25.3768 25.2758 27.5666 21.6108 28.2848C19.1704 28.7635 16.8986 28.2493 14.8487 26.8219C14.618 26.6623 14.3074 26.485 14.5115 26.1392C14.7067 25.82 14.9818 26.0062 15.2303 26.1038C19.1615 27.5312 23.288 26.2367 25.4267 22.912C28.4971 18.1334 25.6308 11.7411 19.9868 10.8013C17.8304 10.4378 15.8071 10.8013 13.8903 11.8386C13.695 11.9361 13.5264 12.14 13.2158 12.0514V12.0336Z" fill="black"/>
<path d="M63.7452 10.7825C65.7508 8.32667 68.8212 9.17779 69.8329 11.1992C69.9482 11.1992 69.9749 11.1105 70.0192 11.0308C70.7647 9.68315 71.9449 9.1512 73.4446 9.28418C74.9089 9.41717 75.8141 10.2683 76.3022 11.6159C76.5773 12.3872 76.6483 13.1852 76.7015 13.9919C76.7725 14.9672 76.8257 15.9424 76.8523 16.9265C76.8701 17.4142 76.9411 17.8397 77.3759 18.1323C77.5356 18.2387 77.6155 18.3805 77.5623 18.5756C77.509 18.7972 77.3138 18.7972 77.1452 18.7972H74.8911C74.7225 18.7972 74.5273 18.7972 74.4563 18.5845C74.3853 18.3805 74.5007 18.2476 74.6516 18.1412C75.0598 17.8752 75.1485 17.494 75.113 17.0418C74.9799 15.4725 75.042 13.8856 74.7758 12.3252C74.7225 12.006 74.6249 11.6868 74.5007 11.3854C74.1812 10.6229 73.6399 10.1176 72.7702 10.0555C71.8739 9.98459 71.1995 10.3747 70.7203 11.1017C70.3653 11.6425 70.2588 12.2454 70.2854 12.9103C70.3476 14.2313 70.3299 15.5612 70.321 16.8822C70.321 17.3787 70.3387 17.8397 70.8268 18.15C70.9777 18.2387 71.0664 18.4071 70.9777 18.6022C70.8978 18.7706 70.738 18.7884 70.5783 18.7884H68.3243C68.1557 18.7884 67.9693 18.7706 67.9161 18.5579C67.8717 18.3539 67.9693 18.221 68.129 18.1146C68.5195 17.8575 68.5816 17.4851 68.5727 17.0595C68.555 15.8272 68.5727 14.5948 68.5727 13.3713C68.5727 12.7862 68.5017 12.2276 68.2888 11.678C67.8539 10.552 66.9931 9.95799 65.9637 10.0644C64.9521 10.1708 64.1001 11.0219 63.896 12.1124C63.7984 12.6621 63.8073 13.2206 63.8162 13.7792C63.8162 14.8697 63.8606 15.969 63.8517 17.0684C63.8517 17.5028 63.9316 17.8663 64.3309 18.0968C64.5084 18.1944 64.6504 18.3451 64.5883 18.5579C64.5173 18.8061 64.2954 18.7795 64.1091 18.7795C63.3548 18.7795 62.6004 18.7795 61.855 18.7795C61.6598 18.7795 61.4468 18.7795 61.3847 18.5401C61.3226 18.3185 61.4734 18.1855 61.6509 18.0791C61.997 17.8663 62.1035 17.5472 62.1035 17.1482C62.1035 15.3396 62.1035 13.5398 62.1035 11.7223C62.1035 11.3056 61.9792 10.9953 61.6331 10.7382C61.1894 10.4013 61.225 10.2062 61.7219 9.96685C62.1745 9.75407 62.6271 9.54129 63.0885 9.34624C63.55 9.14233 63.7186 9.25758 63.7452 9.76294C63.7629 10.0378 63.7452 10.3304 63.7452 10.7559V10.7825Z" fill="black"/>
<path d="M41.7471 10.952C41.7648 12.5124 42.1731 13.9486 43.096 15.2253C45.35 18.3372 49.2458 18.0358 51.0206 14.6402C51.1803 14.321 51.2602 13.7713 51.7838 13.993C52.2452 14.1969 51.9524 14.6402 51.8725 14.9594C50.9496 18.3195 47.3467 19.9242 44.1254 18.4259C39.7859 16.4222 38.5524 10.2782 41.7737 6.75844C44.1076 4.20508 48.5269 4.16962 50.8875 6.68752C51.2779 7.09535 51.5796 7.56523 51.7039 8.12378C51.7926 8.55821 51.7305 8.95717 51.3046 9.16109C50.8875 9.37387 50.4438 9.31181 50.1598 8.93058C49.7427 8.38089 49.4055 7.76915 49.0061 7.2106C47.8259 5.57929 45.7671 5.16259 44.0366 6.22649C42.8919 6.93576 42.2529 7.99966 41.9246 9.27634C41.7826 9.81716 41.756 10.3757 41.7649 10.9343V10.952H41.7471Z" fill="black"/>
<path d="M41.7465 27.6286C41.7909 29.5437 42.3322 31.2636 43.7255 32.6467C45.9263 34.8366 48.9967 34.5085 50.6739 31.9108C50.8514 31.636 51.0023 31.3434 51.1442 31.0508C51.2774 30.7849 51.4371 30.5632 51.7566 30.6607C52.076 30.7671 52.014 31.0597 51.9607 31.308C51.6324 32.7531 50.9224 33.9766 49.6534 34.7745C47.8342 35.9271 45.9085 36.0157 43.9828 35.0671C39.883 33.0634 38.6317 27.3449 41.4714 23.7986C43.8497 20.8374 48.7838 20.7576 51.0733 23.6479C51.375 24.0291 51.6057 24.4458 51.6944 24.9334C51.7654 25.3235 51.6678 25.6781 51.3129 25.8821C50.949 26.0948 50.5586 26.0505 50.2391 25.7668C50.0705 25.6161 49.9285 25.4299 49.7954 25.2437C49.6002 24.96 49.4227 24.6586 49.254 24.3571C47.6922 21.5733 44.0095 21.8481 42.4831 24.5433C41.9418 25.5008 41.7022 26.547 41.7377 27.6464L41.7465 27.6286Z" fill="black"/>
<path d="M15.9582 15.6233C15.9582 16.0311 15.7452 16.3946 15.6742 16.7759C15.2748 18.6643 16.1445 20.5616 17.7685 21.2886C20.1911 22.3702 22.8268 20.6148 22.9066 17.8664C22.9244 17.4763 22.8533 17.095 22.8001 16.7227C22.7735 16.5099 22.7202 16.2882 22.9687 16.1641C23.2438 16.0311 23.4036 16.2173 23.5544 16.3946C24.7524 17.8575 24.9388 19.4888 24.2555 21.2176C23.3769 23.4164 21.0697 24.7551 18.6293 24.5069C16.3486 24.2764 14.4052 22.5209 13.9704 20.2513C13.7041 18.8593 13.997 17.5738 14.9021 16.4567C15.1861 16.102 15.5055 15.7563 15.9847 15.6322L15.9582 15.6233Z" fill="black"/>
<path d="M84.7417 17.796C83.384 19.1525 81.0945 19.3653 79.5681 18.3546C78.6097 17.7251 78.2903 16.8119 78.3701 15.7214C78.4589 14.6841 79.0179 13.9482 79.9497 13.5581C81.3962 12.9553 82.825 12.9907 84.2626 13.8064C84.1916 12.8045 84.085 11.8648 83.6325 10.9959C83.2686 10.2955 82.6741 9.9586 81.902 9.94973C81.13 9.94973 80.5798 10.2955 80.2159 10.9693C80.0651 11.253 79.9231 11.5544 79.7456 11.8204C79.5415 12.1307 79.2575 12.2371 78.8937 12.0953C78.5299 11.9534 78.3967 11.6786 78.4322 11.3239C78.5032 10.5969 78.9736 10.1536 79.5681 9.81674C82.2836 8.26522 85.4428 9.74582 85.8954 12.8134C86.1084 14.2408 86.2238 15.6771 86.3569 17.1045C86.4013 17.6187 86.5787 17.9999 87.1023 18.1506C87.2798 18.2038 87.4395 18.2748 87.4306 18.4875C87.4218 18.7003 87.2443 18.7624 87.0756 18.8067C86.5609 18.9308 86.0462 18.9397 85.5227 18.8333C85.0257 18.7269 84.8482 18.3102 84.7417 17.8049V17.796ZM82.3989 18.2925C83.6236 18.2925 84.511 17.4325 84.5021 16.2622C84.4844 14.693 83.7123 13.8152 82.3102 13.8064C81.0323 13.8064 80.1094 14.6309 80.1006 15.8012C80.0828 17.2286 81.0589 18.2925 82.3989 18.2925Z" fill="black"/>
<path d="M62.3879 30.8909C62.3879 33.666 60.4622 35.6696 57.7822 35.6696C54.8893 35.6696 52.6885 33.5152 52.6885 30.6782C52.6885 28.0007 54.7827 25.9172 57.4627 25.9349C60.267 25.9527 62.3791 28.0716 62.3879 30.8821M54.4899 30.1817C54.4899 31.7775 55.0578 33.2315 56.0429 34.1536C57.5515 35.5898 59.5837 35.1377 60.3291 33.2049C60.48 32.806 60.5776 32.3893 60.6042 31.9726C60.693 30.3058 60.4178 28.7365 59.1932 27.4953C57.7201 26.0059 55.4927 26.5201 54.7561 28.4794C54.552 29.0291 54.481 29.5965 54.4899 30.1728V30.1817Z" fill="black"/>
<path d="M94.0862 14.09C94.0507 10.7122 97.1123 8.40703 100.192 9.49753C101.186 9.85217 101.931 10.4816 102.224 11.5367C102.499 12.5208 102.224 13.0261 101.257 13.3542C99.6858 13.8773 98.124 14.4092 96.5355 14.888C96.0563 15.0387 96.0475 15.2337 96.2249 15.6238C96.7663 16.8207 97.6448 17.5921 98.9848 17.6807C100.236 17.7605 101.239 17.2906 101.869 16.1647C101.993 15.9519 102.144 15.7568 102.41 15.8987C102.659 16.0317 102.534 16.2622 102.481 16.4661C102.064 17.8314 100.68 18.8421 99.0557 18.9663C96.1894 19.1968 94.1129 17.1576 94.0862 14.0989M95.8877 14.3738C97.281 13.8773 98.6298 13.3985 99.952 12.9198C100.6 12.6892 100.742 12.3701 100.556 11.714C100.28 10.8008 99.464 10.0472 98.612 9.95856C97.6714 9.86103 96.8195 10.3487 96.3137 11.2796C95.799 12.2371 95.7457 13.2567 95.8877 14.3826V14.3738Z" fill="black"/>
<path d="M110.318 30.7314C110.318 27.3358 113.468 25.075 116.547 26.2541C117.541 26.6353 118.242 27.318 118.491 28.3731C118.704 29.2242 118.411 29.7473 117.577 30.031C116.006 30.5541 114.435 31.0949 112.856 31.5648C112.296 31.7332 112.279 31.946 112.501 32.407C113.033 33.5064 113.832 34.2422 115.083 34.3575C116.379 34.4728 117.435 34.0649 118.1 32.8769C118.216 32.6641 118.375 32.4602 118.641 32.5932C118.899 32.7173 118.783 32.9656 118.73 33.1606C118.331 34.5614 116.787 35.6253 115.065 35.6785C112.27 35.7672 110.3 33.728 110.309 30.7402L110.318 30.7314ZM112.066 30.1285V30.6516C112.066 30.9619 112.19 31.0594 112.501 30.9442C113.778 30.4831 115.065 30.0221 116.352 29.5611C116.716 29.4281 116.911 29.1621 116.876 28.7632C116.796 27.8766 115.979 26.9191 115.092 26.6885C114.258 26.4669 113.335 26.8304 112.776 27.6283C112.252 28.3819 112.057 29.233 112.066 30.1285Z" fill="black"/>
<path d="M71.6613 30.7754C71.6435 27.4685 74.5454 25.1988 77.6158 26.1475C78.6896 26.4844 79.4883 27.1227 79.8078 28.2487C80.074 29.1884 79.79 29.7293 78.876 30.0396C77.252 30.5804 75.6281 31.1212 73.9863 31.6354C73.6491 31.7418 73.6225 31.8659 73.7378 32.1585C74.2082 33.3199 74.9802 34.1622 76.2758 34.3395C77.6247 34.5168 78.7517 34.1267 79.4528 32.8589C79.5593 32.655 79.7013 32.4777 79.9498 32.5841C80.2603 32.7082 80.145 32.983 80.0651 33.1781C79.5238 34.6055 78.4412 35.4034 76.9592 35.6162C73.9508 36.0683 71.6613 33.976 71.6436 30.7843H71.6613V30.7754ZM73.4006 30.1194V30.6956C73.4006 30.9971 73.5515 31.0414 73.8089 30.9528C75.1134 30.4829 76.4178 30.013 77.7223 29.5431C78.1039 29.4012 78.237 29.1175 78.1838 28.7186C78.0862 27.8408 77.2875 26.9188 76.4267 26.6883C75.5926 26.4666 74.6696 26.8213 74.1105 27.6103C73.5781 28.3551 73.3917 29.215 73.4006 30.1105V30.1194Z" fill="black"/>
<path d="M82.5409 30.1016C82.5232 30.935 82.6829 31.7418 83.0734 32.4866C83.7123 33.6923 84.7062 34.3661 86.0728 34.4016C87.3152 34.437 88.1938 33.8164 88.7617 32.7437C88.8771 32.5309 89.0191 32.3181 89.2942 32.4599C89.5515 32.5841 89.4361 32.8146 89.3829 33.0185C88.9303 34.7296 87.2797 35.8024 85.283 35.6694C82.5853 35.4832 80.6862 33.3199 80.7661 30.5183C80.846 27.8763 82.8782 25.9258 85.5759 25.9524C86.7828 25.9701 87.8921 26.3071 88.7706 27.1936C89.0368 27.4596 89.2321 27.761 89.3208 28.1245C89.3918 28.4349 89.374 28.7629 89.0723 28.9579C88.7795 29.1441 88.4512 29.1353 88.1406 28.9579C87.8477 28.7806 87.6879 28.488 87.5104 28.2132C86.6141 26.839 85.8066 26.4223 84.6441 26.7149C83.4993 26.9986 82.6474 28.1423 82.532 29.5254C82.5143 29.7204 82.532 29.9066 82.532 30.1016V30.1194L82.5409 30.1016Z" fill="black"/>
<path d="M70.0016 27.7784C70.0016 29.7821 70.0016 31.7769 70.0016 33.7806C70.0016 34.2239 70.0727 34.5696 70.4897 34.8001C70.6672 34.8888 70.8003 35.0484 70.7204 35.27C70.6494 35.4739 70.4631 35.4828 70.2856 35.4828H68.0316C67.8275 35.4828 67.6322 35.4651 67.5701 35.2346C67.508 35.0129 67.65 34.8711 67.8186 34.7647C68.1558 34.5519 68.2357 34.2416 68.2357 33.8692V23.4253C68.2357 23.0174 68.1203 22.6717 67.792 22.4057C67.3749 22.0688 67.5258 21.8294 67.934 21.6344C68.3333 21.4393 68.7326 21.2443 69.132 21.0492C69.8064 20.7212 70.0105 20.8453 70.0105 21.5812V27.7518V27.7695L70.0016 27.7784Z" fill="black"/>
<path d="M88.6898 13.6465C88.6898 12.556 88.6543 11.6694 88.6898 10.7829C88.7164 10.3307 88.5567 10.1977 88.1396 10.2598C87.9532 10.2864 87.7491 10.2598 87.5628 10.2598C87.2877 10.2598 87.1368 10.1888 87.1279 9.86967C87.1279 9.5239 87.2788 9.47071 87.5894 9.45298C89.0625 9.39978 89.2932 9.187 89.5683 7.69754C89.6304 7.37837 89.7458 7.21878 90.0919 7.22765C90.4557 7.24538 90.4735 7.50249 90.4824 7.75073C90.5001 8.17629 90.5179 8.59299 90.4824 9.01855C90.4558 9.38205 90.6065 9.47957 90.9438 9.47071C91.5827 9.44411 92.2128 9.47071 92.8517 9.47071C93.1534 9.47071 93.4463 9.44411 93.4374 9.8874C93.4374 10.2952 93.1446 10.2686 92.8695 10.2686C92.2217 10.2686 91.5561 10.2864 90.9083 10.2686C90.5889 10.2686 90.4646 10.3573 90.4735 10.6853C90.4913 12.5117 90.4557 14.3381 90.4912 16.1644C90.5178 17.3081 91.1657 17.8489 92.1241 17.5918C92.5855 17.4677 92.905 17.1751 93.0293 16.7141C93.1003 16.457 93.1889 16.2531 93.4906 16.3329C93.7924 16.4215 93.7215 16.6786 93.6948 16.9092C93.5262 18.1238 92.5678 18.9572 91.3076 18.9838C89.9676 19.0192 89.0359 18.31 88.7874 17.0155C88.5655 15.8364 88.743 14.6395 88.6898 13.6554V13.6465Z" fill="black"/>
<path d="M93.0656 30.1987C93.0656 31.1031 93.0656 32.0074 93.0656 32.9117C93.0656 33.6741 93.4472 34.215 94.0152 34.3214C94.734 34.4632 95.3374 34.1086 95.6213 33.3461C95.7101 33.1333 95.7899 32.9383 96.065 33.0092C96.3401 33.089 96.2958 33.3372 96.278 33.5323C96.1893 34.6228 95.3107 35.5005 94.1571 35.6424C92.8792 35.7931 91.8765 35.2434 91.4772 34.1352C91.2908 33.6209 91.2464 33.089 91.2464 32.5482C91.2464 30.8548 91.2287 29.1614 91.2464 27.468C91.2464 27.0691 91.1487 26.9006 90.7317 26.9538C90.5187 26.9804 90.3057 26.9538 90.0927 26.9538C89.7999 26.9538 89.6846 26.812 89.6846 26.5283C89.6846 26.2268 89.8354 26.1204 90.1105 26.1293H90.1637C91.6457 26.0495 91.841 25.8811 92.125 24.365C92.1782 24.0724 92.2846 23.9128 92.6041 23.9128C92.9591 23.9128 93.0213 24.1256 93.0213 24.4005C93.0213 24.7994 93.039 25.2073 93.0213 25.6062C92.9946 25.9963 93.1188 26.1559 93.5448 26.1293C94.1926 26.1027 94.8581 26.1293 95.506 26.1293C95.7988 26.1293 95.9852 26.218 95.9852 26.546C95.9852 26.874 95.8077 26.9627 95.506 26.9538C94.8936 26.9538 94.2725 26.9893 93.6602 26.9361C93.1189 26.8918 93.0124 27.0957 93.039 27.5833C93.0745 28.4433 93.039 29.3121 93.039 30.181L93.0567 30.1987H93.0656Z" fill="black"/>
<path d="M105.907 34.1622C106.83 31.9014 107.682 29.8091 108.534 27.7168C108.702 27.2912 108.498 27.0164 108.161 26.8036C108.001 26.7061 107.815 26.5908 107.886 26.3514C107.966 26.112 108.187 26.1475 108.374 26.1475H109.998C110.166 26.1475 110.362 26.1298 110.433 26.3426C110.495 26.5376 110.397 26.6883 110.229 26.777C109.607 27.105 109.394 27.6902 109.155 28.2842C108.276 30.474 107.38 32.6639 106.501 34.8449C106.35 35.235 106.164 35.501 105.676 35.4921C105.188 35.4921 104.851 35.4034 104.629 34.8981C103.591 32.5664 102.499 30.2524 101.443 27.9295C101.257 27.5217 101.053 27.1405 100.689 26.8568C100.52 26.7238 100.36 26.5553 100.449 26.316C100.538 26.0943 100.76 26.1298 100.946 26.1298H103.2C103.395 26.1298 103.599 26.1032 103.697 26.3248C103.786 26.5287 103.635 26.6617 103.502 26.7681C103.12 27.0696 103.138 27.4065 103.316 27.8409C104.176 29.8889 105.002 31.9458 105.907 34.1622Z" fill="black"/>
<path d="M65.7859 27.6994C65.7859 29.6854 65.7859 31.6625 65.7859 33.6484C65.7859 34.136 65.8303 34.5705 66.3184 34.8276C66.4692 34.9162 66.5935 35.0492 66.5313 35.2531C66.4692 35.4571 66.3006 35.4925 66.1231 35.4925H63.807C63.6295 35.4925 63.452 35.4748 63.3899 35.262C63.3455 35.1024 63.3899 34.934 63.5408 34.863C64.0466 34.5705 64.0377 34.1006 64.0377 33.6041C64.0377 30.2794 64.0377 26.9458 64.0377 23.6211C64.0377 23.1424 63.9844 22.7168 63.5674 22.3888C63.2656 22.1583 63.3012 21.8923 63.6561 21.715C64.1353 21.4756 64.6145 21.2185 65.1026 21.0057C65.573 20.7929 65.7682 20.9348 65.7771 21.4756V27.7083L65.7859 27.6994Z" fill="black"/>
<path d="M55.2258 11.0574C55.2258 13.0611 55.2258 15.0559 55.2258 17.0685C55.2258 17.5118 55.2968 17.8576 55.7227 18.0881C55.9002 18.1767 56.0422 18.3274 55.9712 18.558C55.9002 18.8062 55.6783 18.7707 55.492 18.7707H53.2912C53.1226 18.7707 52.9185 18.7973 52.8386 18.5934C52.7587 18.3806 52.8563 18.2122 53.0427 18.1058C53.442 17.8576 53.5042 17.4941 53.5042 17.0596C53.5042 13.6729 53.5042 10.2861 53.5042 6.89936C53.5042 6.41174 53.4154 6.00391 53.0072 5.67587C52.6878 5.41876 52.7854 5.17939 53.1137 5.01093C53.5663 4.78929 54.01 4.55878 54.4626 4.35486C55.0483 4.08889 55.2346 4.20414 55.2346 4.84248V11.0752L55.2258 11.0574Z" fill="black"/>
<path d="M99.331 30.2439C99.331 31.4142 99.3488 32.5933 99.331 33.7636C99.331 34.2069 99.4109 34.5527 99.8279 34.7743C100.005 34.863 100.147 35.0137 100.085 35.2354C100.014 35.457 99.8102 35.4836 99.615 35.4836H97.4231C97.2278 35.4836 97.0237 35.4836 96.935 35.2708C96.8551 35.058 96.9793 34.8985 97.1479 34.7921C97.5206 34.5616 97.6094 34.2158 97.6094 33.808C97.5917 32.0969 97.5917 30.3857 97.6094 28.6746C97.6094 28.187 97.5296 27.7703 97.1303 27.4423C96.8197 27.194 96.8463 26.9635 97.2012 26.7862C97.6982 26.538 98.1951 26.272 98.7098 26.0503C99.1535 25.8553 99.3488 26.006 99.3577 26.5114C99.3577 27.7614 99.3577 29.0115 99.3577 30.2616L99.331 30.2439Z" fill="black"/>
<path d="M59.5125 13.5133C59.5125 14.7102 59.5302 15.8982 59.5125 17.0862C59.5125 17.5118 59.6012 17.8398 59.9828 18.0526C60.1692 18.159 60.3644 18.2831 60.2757 18.5491C60.1958 18.7707 59.9917 18.7619 59.7876 18.7619H57.5335C57.356 18.7619 57.1697 18.7619 57.1076 18.5491C57.0543 18.3629 57.1342 18.2033 57.294 18.0969C57.7465 17.831 57.7998 17.4231 57.7909 16.9532C57.7732 15.3042 57.7732 13.6463 57.7909 11.9884C57.7909 11.483 57.7199 11.0397 57.2851 10.7117C57.01 10.4989 57.01 10.2506 57.3383 10.0822C57.853 9.81622 58.3588 9.55911 58.8913 9.31973C59.2906 9.14242 59.5125 9.29314 59.5125 9.74529V13.4956V13.5133Z" fill="black"/>
<path d="M99.6771 23.1156C99.6771 23.8869 99.2156 24.3479 98.4081 24.3568C97.6005 24.3568 97.0947 23.9046 97.0947 23.151C97.0947 22.3974 97.5829 21.9098 98.3638 21.8921C99.1358 21.8743 99.6594 22.3531 99.6683 23.1067" fill="black"/>
<path d="M58.571 5.2063C59.3608 5.2063 59.8755 5.67619 59.8755 6.42979C59.8755 7.18338 59.3963 7.66214 58.5887 7.66214C57.7812 7.66214 57.2754 7.19225 57.2754 6.44752C57.2754 5.70279 57.7901 5.21516 58.571 5.2063Z" fill="black"/>
<path d="M15.9668 15.6322C15.9668 15.6322 15.9668 15.5968 15.9934 15.5879H16.0289C16.0289 15.5879 15.9845 15.6145 15.9668 15.6234V15.6322Z" fill="black"/>
</svg>
