<svg width="64" height="53" viewBox="0 0 64 53" fill="none" xmlns="http://www.w3.org/2000/svg">
<path d="M63.4468 29.3547C63.2382 29.6122 63.0418 29.8452 62.8455 30.0659C62.9805 30.1027 63.0909 30.1272 63.2136 30.164C63.1155 30.2621 63.0418 30.3724 62.9314 30.4215C62.7841 30.4828 62.5999 30.5073 62.4158 30.5441C62.6245 30.5932 62.8209 30.6422 63.0541 30.6913C62.7595 30.9855 62.4036 30.9365 62.0722 30.9488C62.2563 31.0469 62.4281 31.1204 62.5877 31.194C62.5877 31.2308 62.5631 31.2676 62.5508 31.3044C62.1826 31.2676 61.8267 31.2185 61.4585 31.1817V31.2553C61.6181 31.3411 61.7776 31.4147 61.9127 31.5128C61.9986 31.5741 62.0476 31.6845 62.109 31.7703C61.9863 31.7948 61.8636 31.8684 61.7531 31.8561C61.4094 31.7948 61.078 31.7213 60.7221 31.709C61.0535 31.8439 61.3726 31.9788 61.704 32.1136C61.704 32.1627 61.6794 32.2117 61.6672 32.2608C61.4217 32.2608 61.1517 32.2853 60.9062 32.2608C60.6608 32.224 60.403 32.1136 60.1576 32.0401C60.133 32.0769 60.1207 32.1136 60.0961 32.1382C60.3171 32.2608 60.538 32.3834 60.7712 32.4938C60.8694 32.5428 60.9922 32.5183 61.0781 32.5796C61.164 32.6409 61.2499 32.739 61.2621 32.8248C61.2621 32.8861 61.1271 33.0088 61.0535 33.0088C60.7958 33.0088 60.5257 32.9842 60.2557 32.9229C59.9611 32.8616 59.6912 32.7267 59.3966 32.6654C59.2862 32.6409 59.1511 32.7267 59.0283 32.7635C59.0897 32.8616 59.1143 33.0088 59.2002 33.0578C59.4088 33.1927 59.642 33.2663 59.8752 33.3889C60.047 33.487 60.2434 33.5606 60.403 33.6832C60.4766 33.7445 60.538 33.8916 60.5135 33.9652C60.4766 34.051 60.3417 34.1246 60.2312 34.1369C59.5684 34.1982 58.9548 34.0633 58.4025 33.6954C58.157 33.536 57.8992 33.2908 57.6047 33.5973C57.531 33.6709 57.4697 33.769 57.4083 33.8671C57.5065 33.9284 57.5924 34.0265 57.7029 34.0633C58.157 34.1982 58.6234 34.3085 59.0775 34.4434C59.3107 34.5047 59.5438 34.6028 59.4825 34.9094C59.4211 35.2037 59.1879 35.1914 58.967 35.1914C58.3656 35.1914 57.8379 35.0075 57.3224 34.7132C56.9542 34.5047 56.5737 34.3085 56.0582 34.6396C57.2364 35.0688 58.3411 35.4734 59.4334 35.8658V35.9762C59.2984 36.0375 59.1634 36.1356 59.0283 36.1478C58.0465 36.2091 57.0646 36.2459 56.1564 35.8168C55.9723 35.7309 55.7759 35.6206 55.6654 35.4612C55.4568 35.1669 55.3218 35.2527 55.15 35.4612C55.1254 35.4979 55.0886 35.5347 54.9904 35.6328C56.3037 36.111 57.5801 36.577 58.8688 37.0552C58.2797 37.7419 54.6959 37.4108 54.34 36.3072C54.1681 36.4912 53.9962 36.6751 53.8121 36.8713C54.3767 37.1165 54.9536 37.3863 55.5673 37.6193C56.1932 37.8523 56.8437 38.0239 57.482 38.2324C57.6047 38.2692 57.6905 38.404 57.801 38.4776C57.6905 38.5389 57.5801 38.6493 57.4574 38.6615C56.0459 38.9068 54.6958 38.8455 53.4317 38.073C53.2721 37.9749 53.1003 37.8768 52.953 37.7787C52.9899 37.7174 53.0144 37.6806 53.0512 37.6193C52.9039 37.7909 52.7567 37.9871 52.6462 38.1097C53.0267 38.2814 53.4071 38.4776 53.8121 38.6493C54.8431 39.0907 55.8864 39.4954 56.9173 39.9368C57.1015 40.0104 57.2487 40.1575 57.4205 40.2801C57.2242 40.366 57.0278 40.5008 56.8191 40.5131C56.4018 40.5376 55.9846 40.5131 55.5673 40.4518C54.9536 40.3537 54.3276 40.2433 53.7385 40.0717C53.2598 39.9368 52.818 39.6793 52.3516 39.4708C52.3148 39.8019 52.6462 39.949 52.8425 40.0594C53.714 40.5376 54.6345 40.9668 55.5304 41.4205C55.9723 41.6289 56.4018 41.8374 56.8805 42.0581C56.4877 42.4873 56.0582 42.426 55.6777 42.3769C54.929 42.2788 54.1681 42.1194 53.3826 41.9723C53.4562 42.193 53.5176 42.3524 53.8244 42.426C54.5731 42.6222 55.3095 42.8797 56.0459 43.1372C56.1809 43.1862 56.2669 43.3088 56.3773 43.4069C56.2423 43.4928 56.1195 43.6276 55.9723 43.6399C55.4445 43.6644 54.9045 43.6399 54.3767 43.6399C54.3154 43.6399 54.254 43.6154 54.2295 43.5786C54.2049 43.5541 54.2295 43.4805 54.2295 43.456H55.8618C55.2236 43.3333 54.6222 43.2107 53.984 43.0636C53.9226 43.0145 53.8981 43.0023 53.8736 43.0023C53.8981 43.0513 53.9104 43.0881 53.9349 43.1372C54.2908 43.9955 54.6467 44.8538 54.9781 45.6631C55.1131 45.6018 55.2236 45.5282 55.3095 45.5282C55.42 45.5528 55.6041 45.7122 55.5918 45.7244C55.4936 45.8961 55.3832 46.0432 55.2359 46.2394C55.3218 46.4234 55.4323 46.7054 55.555 46.9874H52.3394C51.9343 46.0065 51.5415 45.0255 51.1365 44.0323H45.4048C44.9998 45.0132 44.6071 46.0065 44.2021 46.9874H41.0723C43.0237 42.4137 44.9507 37.8645 46.9022 33.2908H49.5533C49.6515 33.2908 49.7865 33.3889 49.811 33.4625C50.3265 34.6887 50.842 35.9271 51.3697 37.1533C51.4188 37.2759 51.5048 37.374 51.5661 37.4966C51.7011 37.7541 51.8116 38.0117 51.9466 38.2937C52.0693 38.1588 52.2411 37.9871 52.4252 37.7787C51.7379 37.607 51.5538 37.0675 51.382 36.5525C51.0506 35.5347 51.0138 34.5047 51.2716 33.4625C51.2961 33.3398 51.382 33.2295 51.4434 33.1191C51.4925 33.1191 51.5416 33.0946 51.5784 33.0946C51.7012 33.4257 51.8239 33.7322 51.9466 34.0633C52.2534 34.8971 52.548 35.7187 52.8548 36.5402C52.9162 36.7119 52.9776 36.8713 53.0267 37.0062C53.1617 36.8713 53.3457 36.6751 53.5053 36.5034C52.818 36.0252 52.6462 35.2282 52.6216 34.3944C52.5971 33.72 52.5848 33.0578 52.8425 32.4079C52.8916 32.2976 52.953 32.1872 53.0144 32.0769H53.1248C53.1985 32.2853 53.3089 32.4815 53.358 32.6777C53.5667 33.6587 53.7508 34.6519 54.2417 35.547C54.2786 35.6083 54.2663 35.7064 54.2785 35.7677C54.4504 35.596 54.6222 35.4121 54.7941 35.2404C54.2049 35.0565 54.1803 34.4925 54.119 33.9897C54.0208 33.2295 54.1436 32.4692 54.4136 31.7335C54.475 31.5619 54.6222 31.4392 54.7818 31.2185C54.9904 32.4692 55.1868 33.6096 55.3709 34.7622C55.5304 34.6519 55.6655 34.5538 55.7882 34.4557C55.9846 34.284 56.0214 34.1246 55.9968 33.8303C55.9355 32.972 55.7882 32.0891 56.2791 31.2921C56.3896 31.1204 56.5368 30.961 56.7209 30.7403C57.1137 31.6845 56.8683 32.5673 56.856 33.4502C57.3347 33.3398 57.4083 33.0946 57.2855 32.4692C57.1505 31.758 57.1996 31.0468 57.7274 30.446C57.7519 30.4092 57.801 30.3847 57.8992 30.3111C57.9606 30.4828 58.0588 30.6177 58.0588 30.7526C58.0588 31.1449 57.9851 31.5251 57.9606 31.9175C57.9606 32.0646 57.9852 32.2117 58.0097 32.3589H58.1693C58.2061 32.1872 58.2674 32.0156 58.292 31.8316C58.3288 31.5128 58.3165 31.194 58.3902 30.8874C58.4393 30.679 58.5866 30.4951 58.7093 30.2621C59.2125 30.7526 58.7829 31.3657 59.1756 31.8194C59.1756 31.6354 59.1756 31.4515 59.2002 31.2676C59.2247 31.0346 59.2247 30.8139 59.2738 30.5809C59.2984 30.4828 59.3843 30.4215 59.4457 30.3357C59.5439 30.4215 59.6788 30.4828 59.7157 30.5809C59.7893 30.7893 59.8016 31.0223 59.8507 31.3044C59.8753 30.8629 59.912 30.4828 59.9489 30.0904C60.0961 30.1395 60.2434 30.4215 60.403 30.9242C60.5134 30.5564 60.6362 30.213 60.7467 29.8452C60.808 29.8452 60.8694 29.8452 60.9185 29.8452C60.9799 30.0536 61.0167 30.2498 61.0781 30.446H61.1762C61.2376 30.2008 61.299 29.9555 61.3481 29.7103C61.3726 29.7103 61.3971 29.6858 61.4217 29.6858C61.4708 29.8207 61.5199 29.9678 61.5935 30.164C61.6794 29.9678 61.7408 29.7839 61.839 29.6245C61.9004 29.5141 62.0108 29.4283 62.109 29.3302C62.1826 29.4283 62.2686 29.5386 62.3545 29.6612C62.4159 29.5264 62.4895 29.3792 62.5631 29.2198C62.6981 28.9378 62.7718 28.9378 62.9682 29.1953C63.1523 29.134 63.3241 29.0849 63.5328 29.0236C63.5573 29.0849 63.5573 29.134 63.5573 29.2198M48.8414 38.5144C48.6573 38.0484 48.4609 37.5825 48.24 37.0552C47.6386 38.5267 47.074 39.9 46.4972 41.3101H49.9951C49.6023 40.3782 49.2219 39.4831 48.8414 38.5267M53.4194 37.8032C53.5544 37.9013 53.6771 38.0117 53.8244 38.0975C54.4381 38.4531 55.1254 38.5634 55.825 38.6125C56.2423 38.637 56.6596 38.6125 57.1628 38.588C56.3037 38.3059 55.5673 38.0484 54.8308 37.8155C54.4995 37.7174 54.1681 37.607 53.8367 37.5702C53.7017 37.5457 53.5421 37.7051 53.4317 37.8155M55.6041 36.9694C56.4264 37.2637 57.2855 37.1901 58.1324 37.1656C57.2364 36.8713 56.3405 36.6015 55.4322 36.3563C55.1745 36.2827 54.8922 36.2582 54.6222 36.2091L54.5854 36.344C54.8063 36.6996 55.1991 36.7855 55.6041 36.9694ZM54.0576 39.4708C53.9226 39.4095 53.7998 39.3482 53.6526 39.2992C53.2107 39.152 52.7812 38.8945 52.2779 39.0049C52.9162 39.9 55.3831 40.3414 56.1932 40.2801C55.5672 40.0471 54.8308 39.7651 54.0453 39.4463M53.984 41.3346C53.6649 41.212 53.3458 41.1017 52.9898 40.9668C53.1126 41.4573 53.2353 41.7516 53.7753 41.8374C54.5977 41.9723 55.4077 42.2053 56.2668 42.1317C55.5304 41.8742 54.7818 41.6167 53.9963 41.3224M51.9711 36.4299C51.7747 35.5102 51.5907 34.5783 51.3943 33.6709C51.2347 34.6641 51.2102 35.6819 51.6029 36.6628C51.7379 36.9939 51.8116 37.4108 52.2779 37.5702C52.1552 37.1778 52.0693 36.8345 51.9466 36.4299M52.8671 33.1314C52.6585 34.1859 52.8057 36.062 53.6526 36.3072C53.4439 35.032 52.9039 33.8426 52.9653 32.5428C52.9407 32.7145 52.904 32.8984 52.8794 33.1437M57.9115 36.0129H58.6479C57.9851 35.7922 57.3346 35.5347 56.6719 35.3508C56.3773 35.265 56.0705 34.9339 55.69 35.2527C55.8373 35.3631 55.9722 35.4612 56.1073 35.5593C56.635 35.8781 57.2487 35.9394 57.8992 36.0129M53.1248 38.5389C52.8793 38.5757 52.6093 38.6125 52.3639 38.6493C53.8858 38.9436 55.1254 39.9736 56.7209 40.0962C55.4568 39.6425 54.2417 39.2624 53.1248 38.5389ZM54.6468 34.3944C54.5977 33.5851 54.5485 32.7635 54.5117 32.0156C54.0699 33.1191 54.1803 34.7745 54.7449 35.0075C54.7081 34.8113 54.6713 34.6396 54.6468 34.3821M52.4866 36.4789C52.278 35.9394 52.0448 35.3876 51.8361 34.8481C51.8116 34.8481 51.787 34.8481 51.7748 34.8726C51.9957 35.7187 52.2166 36.5647 52.4498 37.4353C52.8794 37.1043 52.7321 36.8222 52.4866 36.4912M58.3043 33.1804C58.2429 33.205 58.1692 33.2417 58.0711 33.2785C58.7093 33.6096 59.2493 34.0265 59.9857 33.9039C59.8016 33.8058 59.6298 33.6954 59.4457 33.6096C59.0775 33.4502 58.7216 33.3153 58.3043 33.1682M56.3037 33.1437C56.3528 32.5919 56.4018 32.0523 56.4387 31.4638C56.1441 31.9665 56.0337 33.1069 56.23 33.9529C56.2546 33.7077 56.2791 33.4625 56.3037 33.1314M57.4205 34.4189C57.2119 34.3453 57.0155 34.2718 56.8191 34.1982C57.5801 34.5293 58.2674 35.1301 59.2615 34.9339C58.6233 34.7622 58.0465 34.6028 57.4328 34.4189M53.2844 40.6357C53.1125 40.5376 52.9285 40.4273 52.7566 40.3169C52.7321 40.3414 52.7075 40.366 52.6953 40.3782C52.7566 40.4886 52.8057 40.6602 52.9039 40.697C53.3826 40.9055 53.8858 41.0649 54.389 41.2488C54.389 41.2243 54.4136 41.1998 54.4136 41.1875C54.0577 41.0036 53.7017 40.8196 53.2844 40.6235M57.6292 31.2798V30.912C57.2856 31.6232 57.4206 32.2731 57.531 32.9229C57.5801 32.6654 57.6292 32.3957 57.6292 32.1259C57.6292 31.8561 57.6047 31.5986 57.6292 31.2798ZM54.8677 34.1982L54.9658 34.8726C54.9658 34.8726 55.0395 34.8726 55.0886 34.8481C55.15 34.2104 54.745 33.6219 54.7941 32.972C54.7572 32.972 54.7204 32.972 54.6959 32.972C54.7572 33.3521 54.8063 33.72 54.8677 34.1737M53.9594 35.8535C53.9594 35.7555 53.984 35.6451 53.9349 35.5715C53.7876 35.2037 53.6281 34.8603 53.4685 34.4925C53.5421 34.9584 53.6772 35.4121 53.7999 35.8658C53.7999 35.8903 53.8613 35.8903 53.9472 35.8413M55.0027 43.1617H55.285V43.1249C54.7695 42.9655 54.2295 42.8061 53.714 42.6467L53.6771 42.7448C54.0453 43.0268 54.5363 42.99 55.015 43.1494M56.5246 32.9965C56.5246 33.2785 56.5001 33.5606 56.4878 33.8303H56.5737C56.6105 33.1559 56.6596 32.4815 56.6964 31.8071H56.6105C56.586 32.175 56.5491 32.5428 56.5246 32.9842V32.9965Z" fill="black"/>
<path d="M14.1942 0.0247111C14.722 1.1896 15.2252 2.35449 15.7161 3.51938C16.1703 4.59843 16.6366 5.66522 17.0908 6.74427C17.6308 8.00726 18.1586 9.27024 18.6986 10.5332C19.0791 11.4283 19.4595 12.3112 19.84 13.2063C19.9014 13.3412 19.9628 13.5006 20.0364 13.6723H17.0048C16.9189 13.6723 16.7962 13.5742 16.7594 13.4884C16.3666 12.5687 15.9984 11.6368 15.6179 10.7049H10.0949C10.009 10.7049 9.87401 10.7662 9.84947 10.8398C9.48126 11.6981 9.14981 12.5565 8.78161 13.4148C8.73251 13.5129 8.60981 13.66 8.51163 13.66C7.54202 13.6846 6.57239 13.66 5.56596 13.66C5.78689 13.145 5.99557 12.6545 6.21649 12.115C3.85999 12.6791 2.08032 11.6 0.28839 10.2389C0.693415 10.3248 1.02478 10.4229 1.34389 10.4351C1.8471 10.4351 2.36263 10.4351 2.84129 10.3493C3.72498 10.1776 4.59635 9.93239 5.48004 9.71167C5.16093 9.18441 4.7314 8.96369 4.14228 9.11083C3.01312 9.39286 1.9453 9.24571 0.889778 8.77976C0.619762 8.65714 0.325247 8.59583 0.0184102 8.49773C-0.00613673 8.46095 -0.00613673 8.43643 0.0184102 8.37512C1.19666 8.43643 2.19079 7.97047 3.13584 7.5413C3.00083 7.27154 2.87808 7.0263 2.7308 6.7688C2.6817 6.68296 2.60808 6.58487 2.52217 6.56035C1.40528 6.10665 0.987987 5.03986 0.374314 4.12021C0.779338 4.36545 1.13531 4.72105 1.56488 4.89272C2.00672 5.06438 2.52216 5.05212 2.97628 5.10117C3.65132 4.26735 3.50404 3.33545 3.35676 2.37901C3.45494 2.44032 3.50407 2.50163 3.54089 2.5752C3.63908 2.78366 3.72497 3.01664 3.82315 3.23735C4.32637 4.37772 4.76823 5.53034 4.30184 6.80559C4.2282 7.01404 4.24047 7.36963 4.37547 7.5413C4.64549 7.90916 5.02594 8.17893 5.34505 8.48547C5.50461 7.46773 5.95871 6.54808 6.70739 5.72653C7.24742 5.12569 7.84884 4.52486 8.03294 3.65426C8.09431 3.75235 8.09429 3.86271 8.09429 3.94854C8.09429 4.52486 8.11884 5.11343 8.09429 5.68975C8.0452 6.65844 7.79974 7.56583 7.18607 8.33833C6.9406 8.64488 6.67063 8.92691 6.38834 9.20893C6.17969 9.42965 6.16736 9.66263 6.32691 9.8956C6.47419 10.1041 6.67059 10.2757 6.87923 10.5087C7.1247 9.93239 7.32113 9.44191 7.54205 8.95143C7.99617 7.88464 8.46255 6.83011 8.91667 5.76332C9.53034 4.3164 10.144 2.85723 10.7577 1.41032C10.9541 0.94436 11.1258 0.478406 11.3099 0.0124512H14.182M14.231 7.22249C13.7524 6.04534 13.2614 4.88045 12.7705 3.66652C12.1814 5.10117 11.6168 6.49903 11.04 7.90916H14.5257C14.4275 7.68844 14.3415 7.47999 14.2433 7.22249H14.231Z" fill="black"/>
<path d="M37.6855 0.0249552C37.7223 4.56188 37.7223 9.08655 37.7223 13.6357H34.6785V4.8807C34.3103 5.42023 34.0035 5.87392 33.6966 6.33987C32.8129 7.67643 31.9415 9.02525 31.0455 10.3741C30.8982 10.607 30.8 10.7174 30.5791 10.3741C29.4009 8.55929 28.1981 6.76904 26.983 4.92974V13.6357H23.9883V0.0617443C25.0929 0.0249584 26.173 0.0249584 27.3144 0.0617443C27.3758 0.15984 27.4126 0.24567 27.4494 0.30698C28.2104 1.54544 28.9713 2.77164 29.7445 3.99784C30.1005 4.57415 30.481 5.1382 30.8615 5.71451C31.7329 4.32891 32.5552 2.99235 33.3898 1.64354C33.7212 1.10401 34.0403 0.552222 34.3594 0.0126953C35.464 0.0126953 36.5441 0.0126953 37.6855 0.0126953V0.0249552Z" fill="black"/>
<path d="M49.4684 0.0245245C49.7875 0.723457 50.0697 1.41013 50.3643 2.10906C50.8921 3.37204 51.4321 4.63503 51.9721 5.91028C52.4262 6.97707 52.8804 8.04386 53.3345 9.09839C53.8746 10.3736 54.4146 11.6489 54.9546 12.9241C55.0528 13.1571 55.1632 13.3778 55.286 13.6598H52.7945C52.279 13.6598 51.9271 13.4228 51.7389 12.9486C51.4689 12.2497 51.1866 11.5508 50.9043 10.8518C50.8675 10.766 50.7326 10.6802 50.6466 10.6802C48.8179 10.6802 46.9646 10.6802 45.1359 10.6802C44.7554 11.6121 44.3749 12.5195 43.9822 13.4391C43.9331 13.5372 43.7857 13.6476 43.6875 13.6476C42.7302 13.6721 41.7729 13.6476 40.791 13.6476C41.2206 12.6298 41.6256 11.6244 42.0552 10.6311C42.5953 9.34363 43.1352 8.05612 43.6998 6.76861C44.2399 5.51789 44.7922 4.27943 45.3322 3.01645C45.725 2.10906 46.0809 1.18941 46.4736 0.269765C46.4982 0.196193 46.5595 0.12262 46.6086 0.0245245C47.5537 5.61857e-07 48.511 0 49.4806 0M47.2346 5.53015C46.9032 6.32718 46.5718 7.11194 46.2527 7.90897H49.7384C49.1493 6.48658 48.5847 5.08872 47.9955 3.65407C47.7501 4.29169 47.5169 4.89253 47.2469 5.53015H47.2346Z" fill="black"/>
<path d="M14.7828 45.0875C13.7641 43.7755 12.77 42.488 11.7881 41.176C11.1622 40.3544 10.5363 39.5329 9.92259 38.7236C9.88577 38.6745 9.86117 38.6255 9.78753 38.5151V47.0127H6.73145V33.3896C7.63968 33.3896 8.52337 33.3528 9.41934 33.4141C9.64026 33.4387 9.87348 33.782 10.0576 34.015C11.2113 35.5232 12.3527 37.0437 13.4941 38.5519C14.2796 39.5819 15.0529 40.6119 15.8875 41.691V33.4141H18.8699V47.0372H16.4152C16.3293 47.0372 16.2311 46.9759 16.182 46.9023C15.7279 46.3015 15.2738 45.7129 14.8074 45.0998H14.7828V45.0875Z" fill="black"/>
<path d="M35.3654 18.0365C36.2368 18.711 36.8873 19.5325 37.3537 20.5012C37.7956 21.4208 38.0164 22.4141 38.0164 23.4318C38.0164 26.3379 36.4332 28.9497 33.5735 30.0778C32.8125 30.3721 32.0393 30.5192 31.217 30.5805C29.7687 30.6786 28.4063 30.4211 27.1422 29.7467C25.2521 28.729 24.0738 27.1472 23.6443 25.0259C23.3252 23.4931 23.4724 22.0094 24.1352 20.5993C25.0311 18.6619 26.553 17.3989 28.5904 16.7981C29.5723 16.5038 30.5788 16.4302 31.622 16.5528C32.923 16.6877 34.0767 17.1537 35.169 17.8404C35.2426 17.8894 35.3041 17.963 35.3777 18.0365M33.9539 26.1785C34.0399 26.0559 34.1503 25.9578 34.2117 25.8229C34.6904 24.9032 34.9236 23.9468 34.7517 22.8923C34.5676 21.7642 34.0767 20.8323 33.1807 20.1333C32.2234 19.3976 31.1311 19.1524 29.9283 19.3854C28.5905 19.6429 27.6454 20.4154 27.0808 21.6048C26.6635 22.4876 26.5776 23.4318 26.774 24.4005C26.9826 25.4673 27.4981 26.3502 28.4064 27C29.2778 27.6254 30.2351 27.8707 31.3029 27.7235C32.4075 27.5764 33.2912 27.0859 33.9785 26.154L33.9539 26.1785Z" fill="black"/>
<path d="M14.3788 16.7132H17.7295C17.7295 17.4857 17.7909 18.2337 17.7049 18.9817C17.6804 19.2515 17.3368 19.4967 17.1158 19.742C16.4163 20.5758 15.7166 21.3973 15.0048 22.2189C14.4893 22.8197 13.9738 23.396 13.4583 23.9846C12.7464 24.8061 12.0469 25.64 11.3473 26.4615C11.0159 26.8416 10.6723 27.2218 10.2918 27.6509H17.3368C17.619 27.6509 17.7418 27.7122 17.7295 28.0188C17.705 28.7668 17.7295 29.5393 17.7295 30.3118H6.31521C6.31521 29.5883 6.25379 28.8403 6.33971 28.1169C6.37653 27.8103 6.74476 27.5283 6.97795 27.2463C7.71436 26.3757 8.45076 25.5173 9.19945 24.659C9.87449 23.8865 10.5496 23.114 11.2246 22.3292C11.9119 21.5322 12.5992 20.7106 13.2865 19.9136C13.4215 19.7542 13.5934 19.6316 13.7529 19.4967C13.7284 19.4722 13.7283 19.4354 13.7038 19.3986H6.57291V16.6887H14.3911L14.3788 16.7132Z" fill="black"/>
<path d="M30.9352 33.4016H32.0397V47.0124H29.0205V33.4016H30.9352Z" fill="black"/>
<path d="M28.0993 15.5235H26.8105C27.056 15.2293 27.2524 14.9595 27.4734 14.7143C28.0379 14.0766 28.6025 13.4267 29.1794 12.8014C29.2776 12.7033 29.4494 12.6297 29.5844 12.6297C30.3699 12.6052 31.1431 12.6052 31.9286 12.6297C32.0759 12.6297 32.2477 12.7523 32.3582 12.875C32.7264 13.2796 33.07 13.7088 33.4382 14.1134C33.8433 14.5671 34.2483 15.0208 34.7025 15.5235C33.8433 15.5235 33.0455 15.5481 32.2478 15.499C32.0268 15.4745 31.8059 15.2415 31.5972 15.0821C31.3763 14.9227 31.1677 14.7265 30.9222 14.5916C30.8363 14.5303 30.6522 14.5548 30.554 14.6162C30.1367 14.8737 29.7439 15.1802 29.3389 15.45C29.2652 15.499 29.1671 15.5235 29.0689 15.5358C28.7621 15.5358 28.443 15.5358 28.0993 15.5358V15.5235Z" fill="black"/>
<path d="M55.1751 44.2772C55.4329 44.3508 55.6537 44.4121 55.8869 44.498C55.9851 44.5347 56.0588 44.6206 56.1324 44.6819C56.0588 44.7677 55.9974 44.8903 55.8992 44.9149C55.5556 45.013 55.1996 45.062 54.856 45.1356C54.8314 45.0988 54.8069 45.0743 54.7946 45.0375C54.856 44.9762 54.8928 44.9026 54.9664 44.8781C55.0523 44.8413 55.1629 44.829 55.261 44.7677C54.856 44.8045 54.635 44.6451 54.5859 44.1914C54.7823 44.2159 54.9542 44.2527 55.1751 44.2895V44.2772Z" fill="black"/>
<path d="M46.8056 50.0905C46.8056 49.7963 46.6706 49.6614 46.241 49.6614H45.6396V50.532H46.241C46.6092 50.532 46.8056 50.3848 46.8056 50.0905Z" fill="black"/>
<path d="M54.4267 48.2386H7.07579C6.78122 48.2386 6.69531 48.3244 6.69531 48.6187C6.71986 50.0779 6.69527 51.5493 6.73209 53.0085C22.0126 53.0085 37.244 53.0085 52.4876 52.984C52.5367 52.9227 52.5735 52.8859 52.6226 52.8614C53.5308 52.6406 54.2427 52.0643 54.39 51.1815C54.5618 50.2373 54.4267 49.2318 54.4267 48.2263V48.2386ZM29.3153 51.9417C28.5789 51.9417 28.272 51.5861 28.2107 51.0956L28.5788 51.0098C28.6402 51.4144 28.8857 51.6106 29.3276 51.6106C29.7326 51.6106 29.9167 51.4512 29.9167 51.206C29.9167 50.9607 29.7571 50.8381 29.2417 50.7523C28.5421 50.6174 28.3089 50.3722 28.3089 49.9798C28.3089 49.5506 28.628 49.2686 29.2539 49.2686C29.8799 49.2686 30.1499 49.5751 30.2358 50.0288L29.843 50.1024C29.7571 49.7591 29.6344 49.5874 29.2294 49.5874C28.8612 49.5874 28.6893 49.7345 28.6893 49.9553C28.6893 50.176 28.7998 50.3231 29.3644 50.4212C30.113 50.5684 30.2972 50.8259 30.2972 51.1815C30.2972 51.6229 30.0026 51.9294 29.3153 51.9294V51.9417ZM32.2609 51.8927H31.8681V49.3299H32.2609V51.8927ZM35.7343 49.6732H34.3474V50.4212H35.5993V50.7646H34.3474V51.5493H35.7343V51.8927H33.9546V49.3299H35.7343V49.6732ZM40.1773 51.8927H39.7845V50.6297C39.7845 50.3354 39.7845 49.9553 39.8091 49.661H39.7232C39.625 49.9675 39.5023 50.3599 39.3673 50.7032L38.9376 51.7455H38.5327L38.1153 50.6787C37.9803 50.3109 37.8699 49.9553 37.7717 49.661H37.698V51.8927H37.3298V49.3299H37.9804L38.4345 50.5193C38.4958 50.691 38.6185 51.0588 38.7167 51.3409H38.7904C38.8763 51.0466 38.9991 50.7032 39.0727 50.507L39.539 49.3299H40.1527V51.8927H40.1773ZM42.8775 50.9853H42.2638V51.8927H41.871V49.3299H42.8652C43.4666 49.3299 43.7734 49.5997 43.7734 50.1637C43.7734 50.6419 43.4543 50.9975 42.8775 50.9975V50.9853ZM47.345 51.8927H46.8909L46.179 50.8749H45.639V51.8927H45.2462V49.3299H46.2772C46.9154 49.3299 47.1855 49.5997 47.1855 50.0779C47.1855 50.4825 46.9768 50.7523 46.5718 50.8381L47.3327 51.8436V51.8927H47.345ZM50.6589 49.6732H49.272V50.4212H50.5238V50.7646H49.272V51.5493H50.6589V51.8927H48.8792V49.3299H50.6589V49.6732Z" fill="black"/>
<path d="M42.8293 49.6738H42.2646V50.6548H42.8293C43.222 50.6548 43.3815 50.4954 43.3815 50.1643C43.3815 49.8332 43.2465 49.6738 42.817 49.6738H42.8293Z" fill="black"/>
</svg>
