<svg width="374" height="47" viewBox="0 0 374 47" fill="none" xmlns="http://www.w3.org/2000/svg">
<path d="M39.1358 45.027L10.9153 22.3555L10.9454 44.8916H0V0L28.2505 21.1069V0.616809L39.1207 0.692029V45.012L39.1358 45.027Z" fill="#101511"/>
<path d="M67.4162 44.0642C66.7396 44.3651 66.2585 44.5456 65.9428 44.6509C63.7326 45.4934 61.4173 45.9297 59.0117 45.9297C55.8243 45.9297 52.8173 45.1925 49.9908 43.7031C47.1642 42.1987 44.8939 40.1678 43.2401 37.5802C41.5562 34.9625 40.6992 32.0139 40.6992 28.7944C40.6992 26.3573 41.1803 24.0856 42.1726 21.9794C43.1499 19.8883 44.503 18.083 46.217 16.5335C47.9009 14.999 49.8555 13.8105 52.0806 12.9981C54.3058 12.1556 56.6211 11.7194 59.0117 11.7194C61.4022 11.7194 63.7026 12.1406 65.9428 12.968C68.183 13.7954 70.1525 14.9839 71.8064 16.5184C73.5504 18.1131 74.9186 19.9184 75.8658 21.9644C76.843 24.0706 77.3392 26.3272 77.3392 28.7794L77.3091 45.0571L67.4011 44.9668V44.0341V44.0642H67.4162ZM51.84 24.7776C51.0582 25.9962 50.6824 27.3502 50.6824 28.8245C50.6824 31.036 51.5093 32.9316 53.1782 34.5413C54.817 36.1359 56.7715 36.9182 59.0267 36.9182C61.2819 36.9182 63.2515 36.1209 64.8903 34.5413C66.5592 32.9316 67.3861 31.036 67.3861 28.8245C67.3861 27.3803 67.0102 26.0263 66.2284 24.7776C65.4466 23.5591 64.4393 22.5662 63.1463 21.844C61.8683 21.137 60.5001 20.7759 59.0267 20.7759C57.5533 20.7759 56.2302 21.137 54.9372 21.844C53.6442 22.5662 52.6068 23.5591 51.8551 24.7776H51.84Z" fill="#101511"/>
<path d="M83.9554 21.5281H77.3701L79.6103 12.968H83.9554V0.646851L93.9235 0.722071V12.983H100.554L98.3287 21.5431H93.9235V32.1492C93.9235 34.9775 95.6976 36.3916 99.2308 36.3916C100.373 36.3916 101.245 36.2563 101.847 35.9704L98.9602 45.9146C98.449 46.0048 97.9228 46.0349 97.4266 46.0349C94.4347 46.0349 91.969 45.5535 89.9844 44.6057C87.9847 43.658 86.4813 42.1987 85.4438 40.258C84.4215 38.3474 83.9103 35.8952 83.9103 32.9165V21.5431H83.9253L83.9554 21.5281Z" fill="#101511"/>
<path d="M117.211 36.8881H117.782C120.323 36.7979 121.601 35.0377 121.601 31.6076V12.983H131.599V31.6076C131.599 40.6792 126.998 45.4482 117.797 45.9597H117.226C108.024 45.4633 103.424 40.6792 103.424 31.6076V12.983H113.422V31.6076C113.422 35.0377 114.7 36.7979 117.241 36.8881H117.211Z" fill="#101511"/>
<path d="M149.551 21.3325C149.04 20.9865 148.363 20.7759 147.521 20.7458H146.95C144.409 20.8511 143.131 22.6263 143.131 26.0564V44.9969H133.133V26.0564C133.133 16.9547 137.733 12.1707 146.935 11.7043H147.506C148.198 11.7193 148.874 11.7945 149.536 11.8999V21.3476L149.551 21.3325Z" fill="#101511"/>
<path d="M177.818 44.0642C177.141 44.3651 176.66 44.5456 176.344 44.6509C174.134 45.4934 171.819 45.9297 169.413 45.9297C166.226 45.9297 163.219 45.1925 160.392 43.7031C157.566 42.1987 155.295 40.1678 153.641 37.5802C151.958 34.9625 151.101 32.0139 151.101 28.7944C151.101 26.3573 151.582 24.0856 152.574 21.9794C153.551 19.8883 154.904 18.083 156.618 16.5335C158.302 14.999 160.257 13.8105 162.482 12.9981C164.707 12.1556 167.023 11.7194 169.413 11.7194C171.804 11.7194 174.104 12.1406 176.344 12.968C178.584 13.7954 180.554 14.9839 182.208 16.5184C183.952 18.1131 185.32 19.9184 186.267 21.9644C187.244 24.0706 187.741 26.3272 187.741 28.7794L187.71 45.0571L177.803 44.9668V44.0341V44.0642H177.818ZM162.241 24.7776C161.46 25.9962 161.084 27.3502 161.084 28.8245C161.084 31.036 161.911 32.9316 163.58 34.5413C165.218 36.1359 167.173 36.9182 169.428 36.9182C171.683 36.9182 173.653 36.1209 175.292 34.5413C176.961 32.9316 177.787 31.036 177.787 28.8245C177.787 27.3803 177.412 26.0263 176.63 24.7776C175.848 23.5591 174.841 22.5662 173.548 21.844C172.27 21.137 170.902 20.7759 169.428 20.7759C167.955 20.7759 166.632 21.137 165.339 21.844C164.046 22.5662 163.008 23.5591 162.256 24.7776H162.241Z" fill="#101511"/>
<path d="M203.832 10.4635H195.307L192.586 0.368896H222.611L225.227 10.4635H214.702V44.7189H203.832V10.4635Z" fill="#101511"/>
<path d="M252.365 21.7613C253.297 23.8675 253.763 26.1091 253.763 28.5161V28.7869C253.763 28.8922 253.763 29.0126 253.733 29.1329L253.658 29.6745H249.779V29.7497H228.279C228.52 31.4948 229.302 33.0143 230.55 34.293C232.158 35.8877 234.038 36.67 236.173 36.67C238.308 36.67 240.217 35.8727 241.796 34.293L241.871 34.2178L241.961 34.0975L242.051 34.0072L242.126 33.9169L247.494 41.6045C245.96 42.8531 244.382 43.8009 242.803 44.4478C240.683 45.2752 238.473 45.6965 236.173 45.6965C233.06 45.6965 230.189 44.9593 227.528 43.47C224.806 41.9655 222.641 39.9195 221.063 37.3019C219.439 34.6992 218.627 31.7807 218.627 28.5161C218.627 26.079 219.093 23.8223 220.025 21.7613C220.957 19.6702 222.25 17.8649 223.904 16.3153C225.573 14.7207 227.437 13.5322 229.527 12.7198C231.662 11.8924 233.887 11.4711 236.188 11.4711C238.488 11.4711 240.698 11.8924 242.818 12.7198C244.923 13.5322 246.802 14.7207 248.471 16.2702C250.11 17.7897 251.403 19.625 252.35 21.7463H252.365V21.7613ZM236.218 20.4976C234.819 20.4976 233.511 20.8587 232.279 21.5657C231.542 22.0321 230.79 22.6639 230.084 23.5064H242.337C241.63 22.679 240.909 22.0171 240.142 21.5657C238.924 20.8587 237.601 20.4976 236.203 20.4976H236.218Z" fill="#101511"/>
<path d="M279.954 22.3781C279.052 21.6409 278.075 21.0692 277.022 20.6931C275.925 20.317 274.752 20.1215 273.519 20.1215C271.219 20.1215 269.294 20.8586 267.7 22.348C266.092 23.8374 265.295 25.6577 265.295 27.8541C265.295 29.5692 265.641 31.1037 266.332 32.4426C267.009 33.7966 267.986 34.8797 269.294 35.647C270.572 36.4594 272.03 36.8656 273.699 36.8656C276.15 36.8656 278.255 36.0833 280.014 34.5187L285.487 41.454C284.69 42.2814 283.592 43.0186 282.179 43.6805C280.751 44.3124 279.262 44.8088 277.744 45.1097C276.225 45.4257 274.812 45.5761 273.534 45.5761C269.911 45.5761 266.723 44.8239 263.942 43.3044C261.16 41.7699 259.04 39.754 257.567 37.2417C256.078 34.6992 255.342 31.9762 255.342 29.0727C255.342 26.4249 255.793 24.0329 256.695 21.8967C257.612 19.7002 258.875 17.8348 260.469 16.2702C262.062 14.7507 263.972 13.5472 266.242 12.6746C268.482 11.8322 270.918 11.3959 273.519 11.3959C275.639 11.3959 277.714 11.7268 279.728 12.4038C281.758 13.0959 283.577 14.0587 285.126 15.3073L279.939 22.363L279.954 22.3781Z" fill="#101511"/>
<path d="M297.034 0.338379V14.6002C297.996 13.6223 299.168 12.8551 300.582 12.2834C302.01 11.7117 303.483 11.4409 304.942 11.4409C312.97 11.4409 316.97 16.1347 316.97 25.5523V44.7486L306.972 44.7787V26.2293C306.972 24.3187 306.536 22.8744 305.664 21.9116C304.792 20.9488 303.559 20.4824 301.965 20.4824C300.371 20.4824 299.229 20.9638 298.342 21.9116C297.439 22.8744 296.988 24.3187 296.988 26.2293V44.7335L286.99 44.8088V0.383511L296.988 0.353423H297.003L297.034 0.338379Z" fill="#101511"/>
<path d="M352.156 43.214H332.295C326.476 43.214 321.83 38.6105 321.83 32.8035C321.83 23.3408 321.83 13.863 321.815 4.40023C321.815 3.30201 321.936 2.79051 323.259 2.80556C336.76 2.85069 350.261 2.8206 363.763 2.83565C369.28 2.83565 373.971 7.51436 373.971 13.0055C373.986 22.6186 373.971 32.2619 374.001 41.8751C374.001 43.0034 373.671 43.2441 372.618 43.2291C365.792 43.1839 358.967 43.214 352.141 43.214H352.156ZM346.172 29.5088C348.878 29.5088 348.893 29.5088 349.765 31.5248C350.006 32.1115 350.337 32.3221 350.923 32.3071C351.539 32.292 352.171 32.3071 352.787 32.3071C353.945 32.3071 354.321 31.7805 353.93 30.7124C352.411 26.6505 350.908 22.5735 349.359 18.5417C348.262 15.6683 349.029 16.3152 345.886 16.1948C344.879 16.1647 344.473 16.5258 344.127 17.4585C342.699 21.4302 341.165 25.3868 339.677 29.3434C338.399 32.7433 338.249 32.277 341.857 32.3071C342.473 32.3071 343.21 32.3973 343.3 31.5248C343.541 29.5389 344.774 29.1779 346.187 29.5088H346.172ZM361.417 15.8488C357.433 15.8338 354.201 18.4966 353.359 22.6337C352.637 26.154 354.456 30.0053 357.613 31.7053C360.741 33.3601 364.605 32.8486 367.07 30.3814C367.416 30.0354 368.093 29.6743 367.747 29.1327C367.191 28.2451 366.213 27.7637 365.341 27.2221C364.755 26.846 364.499 27.6133 364.078 27.854C363.492 28.2 362.936 28.546 362.244 28.6664C360.23 28.9974 358.395 28.0797 357.478 26.2443C356.531 24.3036 356.937 22.2275 358.576 20.7682C360.109 19.4143 362.154 19.2036 363.838 20.4974C364.785 21.2195 365.432 21.2045 366.198 20.4222C366.454 20.1815 366.77 19.9709 367.085 19.7904C367.912 19.324 367.867 18.8426 367.221 18.2258C365.627 16.6913 363.793 15.7736 361.372 15.8488H361.387H361.417ZM333.287 22.3178C333.287 21.2346 333.302 20.1364 333.287 19.0532C333.197 15.6984 333.994 16.2249 330.34 16.1346C329.393 16.1196 329.077 16.4506 329.092 17.3833C329.122 21.9266 329.122 26.485 329.092 31.0283C329.092 32.0363 329.528 32.2469 330.4 32.2318C332.265 32.2017 334.129 32.2318 335.978 32.2168C338.67 32.1717 338.053 32.6681 338.534 29.9602C338.564 29.8097 338.534 29.6442 338.564 29.4938C338.715 28.6664 338.339 28.3956 337.542 28.4106C336.504 28.4407 335.467 28.3805 334.43 28.4257C333.573 28.4558 333.227 28.1699 333.257 27.2673C333.302 25.6124 333.257 23.9576 333.257 22.3178H333.272H333.287Z" fill="#A2DD00"/>
</svg>
