<svg width="178" height="88" viewBox="0 0 178 88" fill="none" xmlns="http://www.w3.org/2000/svg">
<path d="M86.8851 0H10C4.47715 0 0 4.47714 0 9.99999V77.1064C0 82.6292 4.47715 87.1064 10 87.1064H168C173.523 87.1064 178 82.6292 178 77.1064V35.1335C178 29.6106 173.523 25.1335 168 25.1335L115.56 25.1335C112.389 25.1335 109.406 23.6297 107.52 21.0805L94.9246 4.05299C93.0389 1.50381 90.056 0 86.8851 0Z" fill="#B9DE51" fill-opacity="0.99"/>
<circle cx="147.888" cy="57.8878" r="18.8878" fill="#FBFFF0"/>
<circle cx="147.888" cy="57.8878" r="18.7413" stroke="white" stroke-opacity="0.9" stroke-width="0.293002"/>
<rect x="136.613" y="47.6455" width="21.1576" height="21.1576" stroke="white" stroke-opacity="0.9" stroke-width="1.15661"/>
<path d="M146.415 59.1655H148.692V64.471C148.692 65.2521 149.665 65.6205 150.181 65.031L155.759 58.6939C156.245 58.1412 155.855 57.279 155.118 57.279H152.841V51.9735C152.841 51.1924 151.868 50.824 151.352 51.4135L145.774 57.7506C145.295 58.3033 145.686 59.1655 146.415 59.1655Z" fill="#0E4A40"/>
<path d="M145.811 52.8799H140.653C140.351 52.8799 140.1 52.6294 140.1 52.3272C140.1 52.0251 140.351 51.7746 140.653 51.7746H145.811C146.113 51.7746 146.364 52.0251 146.364 52.3272C146.364 52.6294 146.113 52.8799 145.811 52.8799Z" fill="#0E4A40"/>
<path d="M145.074 64.67H140.653C140.351 64.67 140.1 64.4194 140.1 64.1173C140.1 63.8152 140.351 63.5646 140.653 63.5646H145.074C145.376 63.5646 145.627 63.8152 145.627 64.1173C145.627 64.4194 145.376 64.67 145.074 64.67Z" fill="#0E4A40"/>
<path d="M142.863 58.7749H140.653C140.351 58.7749 140.1 58.5244 140.1 58.2223C140.1 57.9202 140.351 57.6696 140.653 57.6696H142.863C143.166 57.6696 143.416 57.9202 143.416 58.2223C143.416 58.5244 143.166 58.7749 142.863 58.7749Z" fill="#0E4A40"/>
</svg>
