<svg width="24" height="24" viewBox="0 0 24 24" fill="none" xmlns="http://www.w3.org/2000/svg">
<path d="M15.6536 1.93372H7.56081C4.03171 1.93372 1.93359 4.03183 1.93359 7.55126V15.644C1.93359 19.1634 4.03171 21.2616 7.55114 21.2616H15.6439C19.1633 21.2616 21.2614 19.1634 21.2614 15.644V7.55126C21.2711 4.03183 19.173 1.93372 15.6536 1.93372Z" fill="#0E4A40"/>
<path d="M16.7755 8.75025L14.513 16.0405C13.9715 17.7712 11.5447 17.8002 10.9742 16.0792L10.2974 14.0777C10.1137 13.5266 9.6786 13.0819 9.12748 12.9078L7.11638 12.231C5.40501 11.6605 5.43402 9.21435 7.16472 8.69224L14.455 6.42008C15.8859 5.98499 17.2299 7.32895 16.7755 8.75025Z" fill="#B9DE51"/>
</svg>
