<svg width="133" height="49" viewBox="0 0 133 49" fill="none" xmlns="http://www.w3.org/2000/svg">
<path d="M2.98808 17.068C4.69555 16.7905 6.04149 17.7894 6.79069 19.1982C7.16094 19.8898 7.09124 20.9315 7.93627 21.3115C9.70037 22.1098 12.6623 20.2186 14.1912 23.1429C16.099 26.7888 10.8808 30.3193 8.24553 26.729C7.68799 25.9691 6.9867 22.6776 5.31843 23.8388C3.99862 24.7567 7.23063 27.4974 7.10431 29.3033C6.80811 33.5852 0 33.312 0 29.0898C0 27.2071 1.99496 26.1612 2.05594 24.8548C2.12127 23.3564 0.966988 23.1856 0.461715 22.1738C-0.596745 20.0606 0.622879 17.4564 2.99243 17.0722L2.98808 17.068Z" fill="#B9DE51"/>
<path d="M32.0017 17.2684C32.4852 14.2202 29.5755 14.3141 30.2812 10.9757C31.0347 7.4195 36.8061 7.93179 37.0849 11.6715C37.2722 14.1733 35.1117 14.5532 35.0595 16.1712C35.0159 17.4904 36.5143 18.2375 36.8846 19.3218C38.2261 23.2793 32.7422 25.8792 30.5251 22.0711C30.0503 21.2557 29.9763 19.9963 29.0136 19.5609C27.3715 18.8138 25.3025 20.7989 23.3729 18.3826C20.5634 14.8649 25.8165 10.7195 28.7087 13.9C29.8325 15.1381 29.4361 17.6953 32.0061 17.2641L32.0017 17.2684Z" fill="#B9DE51"/>
<path d="M10.0924 4.38006C12.9977 3.78665 15.1233 5.99379 14.3611 8.81141C14.0649 9.90004 12.5055 10.788 12.4794 11.9108C12.4489 13.1104 14.0475 13.9685 14.3654 15.0187C15.8725 19.988 8.55915 21.3242 7.68363 17.0892C7.08689 14.2119 9.90073 13.3324 9.61325 11.7315C9.48693 11.0356 9.09491 10.677 8.3762 10.899C6.64695 11.4327 7.24805 14.8266 4.4342 15.2621C-1.22398 16.1372 -1.14558 8.65345 3.43237 8.53392C4.53439 8.50403 5.63205 9.20417 6.70793 8.53392C7.884 7.79963 7.52247 4.90943 10.0924 4.38433V4.38006Z" fill="#B9DE51"/>
<path d="M28.6132 22.3276C29.419 23.1088 29.5889 24.2956 29.467 25.3587C29.2448 27.2712 26.7968 28.0269 27.925 30.0974C30.8477 30.2084 29.676 26.0929 32.8863 25.7173C38.4051 25.0769 38.2221 32.3856 33.6529 32.4625C32.0717 32.4881 31.0394 31.455 29.859 33.201C29.4626 33.7859 29.3842 34.5117 29.0096 35.1093C26.8753 38.5289 21.3913 36.087 22.8505 32.0569C23.2556 30.9341 24.6581 30.2212 24.6538 29.0813C24.6538 27.8518 23.0378 26.8614 22.7285 25.7301C21.7659 22.2038 26.0956 19.8728 28.6176 22.3233L28.6132 22.3276Z" fill="#B9DE51"/>
<path d="M17.4536 25.7813C21.7135 24.8207 23.8392 29.8156 20.4068 31.9075C18.1331 33.2907 16.0162 30.9853 14.8009 33.3248C15.8593 35.1093 16.9526 34.2043 18.4206 34.1701C23.4297 34.0634 23.3078 41.7948 17.6714 40.894C15.1885 40.497 15.4238 37.2225 13.9079 36.6206C12.7449 36.1595 11.7823 36.8084 10.5409 36.6889C7.59203 36.4029 6.55535 32.5308 8.76374 30.7036C10.7195 29.0899 12.684 30.7121 14.0735 29.9309C15.3018 29.235 15.341 26.2594 17.4579 25.7813H17.4536Z" fill="#B9DE51"/>
<path d="M16.0905 14.4425C14.2437 12.6153 15.0887 9.14449 17.7109 8.61085C18.7389 8.40166 22.3629 9.45187 22.3629 7.68018C22.3629 6.04937 19.5055 6.83062 18.6735 6.83062C13.2636 6.84343 14.3961 -1.37464 19.8278 0.200667C22.119 0.866651 21.7226 3.56474 23.0206 4.28622C24.4972 5.11016 26.2003 3.50924 28.1822 4.95221C30.5561 6.6812 29.7068 10.7838 26.5444 11.0357C25.2682 11.1382 24.1357 10.4423 23.0206 11.0613C22.0013 11.6291 22.0449 13.3112 21.1999 14.2546C19.9933 15.5951 17.3624 15.6891 16.0949 14.4339L16.0905 14.4425Z" fill="#B9DE51"/>
<path d="M42.9917 19.668V2.68109H48.541C49.7824 2.68109 50.6971 2.7494 51.3069 2.88601C53.2757 3.32146 54.9135 4.81565 54.9135 7.10818C54.9135 8.55541 54.2122 9.84042 52.9011 10.5534C54.8003 11.198 55.7585 12.5513 55.7585 14.5023C55.7585 16.1331 55.0573 17.623 53.7462 18.5196C52.3872 19.4588 51.4986 19.668 48.7588 19.668H42.9961H42.9917ZM48.9853 9.12747C50.0873 9.12747 50.671 8.66641 50.671 7.77416C50.671 6.88191 50.1091 6.48915 49.0071 6.48915H47.2255V9.12747H48.9809H48.9853ZM49.5036 15.8556C50.745 15.8556 51.516 15.3262 51.516 14.2248C51.516 13.2386 50.8365 12.7562 49.5254 12.7562H47.2299V15.8556H49.5036Z" fill="#144239"/>
<path d="M56.8081 5.57129V2.67682H60.6978V5.57129H56.8081ZM56.8081 19.6679V6.92887H60.6978V19.6679H56.8081Z" fill="#144239"/>
<path d="M68.7302 20.0563C64.7708 20.0563 61.7261 17.1875 61.7261 13.2855C61.7261 9.38352 64.8405 6.51466 68.7302 6.51466C72.6199 6.51466 75.7343 9.38352 75.7343 13.2428C75.7343 17.1021 72.6417 20.0606 68.7302 20.0606V20.0563ZM71.8446 13.2855C71.8446 11.5864 70.5335 10.0708 68.7041 10.0708C66.9922 10.0708 65.6114 11.5394 65.6114 13.2855C65.6114 15.0316 66.9705 16.5002 68.7258 16.5002C70.4812 16.5002 71.8402 14.9846 71.8402 13.2855H71.8446Z" fill="#144239"/>
<path d="M49.7824 27.7024C49.5951 26.4857 49.0811 26.0503 48.2143 26.0503C47.3954 26.0503 46.6898 26.6223 46.6898 27.3822C46.6898 28.394 47.6263 28.8508 49.5254 29.6534C53.3455 31.2586 54.3037 32.6162 54.3037 34.8404C54.3037 38.1234 52.0082 40.053 48.2623 40.053C44.5163 40.053 42.0073 38.1234 42.0073 34.4733V34.1061H46.411C46.4328 35.5064 47.1385 36.4243 48.2361 36.4243C49.1508 36.4243 49.9 35.7113 49.9 34.7935C49.9 33.4401 47.9791 32.8425 46.411 32.2234C43.5754 31.1007 42.2904 29.6278 42.2904 27.4249C42.2904 24.5305 45.1479 22.4215 48.3319 22.4215C49.4775 22.4215 50.4881 22.6734 51.3984 23.1345C53.2496 24.0737 54.1382 25.4313 54.1644 27.7024H49.7824Z" fill="#144239"/>
<path d="M64.6095 31.9033C64.0476 30.708 63.0414 30.1146 61.7042 30.1146C59.9227 30.1146 58.7074 31.5618 58.7074 33.3506C58.7074 35.1393 59.9967 36.5866 61.8 36.5866C63.1111 36.5866 64.0258 35.9889 64.6095 34.8875H68.5689C67.798 38.0765 65.0102 40.1428 61.6824 40.1428C57.8406 40.1428 54.7959 37.0903 54.7959 33.325C54.7959 29.5596 57.8624 26.5541 61.6127 26.5541C65.032 26.5541 67.8197 28.6673 68.5472 31.9033H64.6139H64.6095Z" fill="#144239"/>
<path d="M79.293 39.7329V38.354H79.245C78.6831 39.4768 77.1368 40.1684 75.425 40.1684C71.5832 40.1684 68.9131 37.2056 68.9131 33.3506C68.9131 29.4956 71.7008 26.5541 75.425 26.5541C77.0192 26.5541 78.4915 27.1731 79.245 28.3429H79.293V26.9896H83.1827V39.7287H79.293V39.7329ZM79.293 33.3506C79.293 31.5618 77.8163 30.1146 75.9913 30.1146C74.1662 30.1146 72.8072 31.5618 72.8072 33.3975C72.8072 35.2333 74.2359 36.6122 76.0392 36.6122C77.8425 36.6122 79.293 35.1906 79.293 33.3548V33.3506Z" fill="#144239"/>
<path d="M92.9963 39.7329V32.6632C92.9963 30.9428 92.3865 30.1359 90.9578 30.1359C89.3897 30.1359 88.732 30.9855 88.732 32.7059V39.7287H84.8423V26.9896H88.4707V28.3429H88.5186C89.3375 27.0323 90.4874 26.5541 92.0555 26.5541C94.3989 26.5541 96.8817 27.8391 96.8817 31.6045V39.7329H92.992H92.9963Z" fill="#144239"/>
<path d="M106.63 39.7329V32.6632C106.63 30.9428 106.02 30.1359 104.592 30.1359C103.024 30.1359 102.366 30.9855 102.366 32.7059V39.7287H98.4761V26.9896H102.104V28.3429H102.152C102.971 27.0323 104.121 26.5541 105.689 26.5541C108.033 26.5541 110.516 27.8391 110.516 31.6045V39.7329H106.626H106.63Z" fill="#144239"/>
<path d="M115.246 34.5203C115.455 35.9675 116.696 36.9324 118.29 36.9324C119.344 36.9324 120.024 36.5439 120.656 35.737H124.637C123.395 38.5162 121.03 40.1428 118.29 40.1428C114.544 40.1428 111.404 37.18 111.404 33.3933C111.404 29.6065 114.401 26.5541 118.221 26.5541C122.041 26.5541 125.081 29.5596 125.081 33.5085C125.081 33.8757 125.059 34.1745 124.99 34.5203H115.246ZM121.196 31.9503C120.891 30.6397 119.719 29.7688 118.221 29.7688C116.814 29.7688 115.598 30.597 115.294 31.9503H121.196Z" fill="#144239"/>
<path d="M126.044 39.7329V26.9938H129.698V28.3471H129.746C130.426 26.9938 131.502 26.5584 133 26.5584V30.3921C130.683 30.4134 129.934 31.263 129.934 32.7102V39.7329H126.044Z" fill="#144239"/>
<path d="M110.785 43.5919H113.033C114.318 43.5919 114.897 44.0274 114.897 44.9282C114.897 45.6198 114.496 46.004 113.817 46.1491V46.226C114.745 46.3327 115.137 46.67 115.137 47.4043C115.137 48.241 114.592 48.8259 113.237 48.8259H110.785V43.5834V43.5919ZM111.8 45.8802H113.002C113.564 45.8802 113.921 45.6625 113.921 45.1032C113.921 44.6037 113.682 44.3689 113.046 44.3689H111.8V45.8802ZM111.8 48.0831H113.207C113.839 48.0831 114.135 47.7757 114.135 47.3317C114.135 46.8536 113.895 46.5803 113.155 46.5803H111.8V48.0831Z" fill="#91B430"/>
<path d="M117.798 48.8344H116.783V43.5919H120.642V44.4585H117.798V45.7521H120.372V46.6059H117.798V47.9677H120.634V48.8344H117.798Z" fill="#91B430"/>
<path d="M121.906 44.5098V43.5919H126.218V44.5098H124.567V48.8344H123.552V44.5098H121.901H121.906Z" fill="#91B430"/>
<path d="M128.126 47.4981L127.664 48.8344H126.61L128.596 43.5919H129.968L131.954 48.8344H130.865L130.395 47.4981H128.121H128.126ZM129.162 44.4585C128.992 45.0007 128.814 45.5514 128.618 46.1107L128.387 46.7553H130.142L129.92 46.1107C129.724 45.5514 129.546 45.0007 129.393 44.4585H129.162Z" fill="#91B430"/>
</svg>
