<svg width="11" height="8" viewBox="0 0 11 8" fill="none" xmlns="http://www.w3.org/2000/svg">
<path d="M-1.68103e-07 3.84421C-1.68103e-07 3.61302 0.192644 3.42136 0.423828 3.42136L8.98828 3.42136L6.28809 0.720184C6.12457 0.556664 6.12457 0.286048 6.28809 0.122528C6.45163 -0.0407722 6.7223 -0.0409191 6.88574 0.122528L10.3076 3.54538C10.4711 3.7089 10.4711 3.97952 10.3076 4.14304L6.88574 7.56589C6.80128 7.65035 6.6939 7.6898 6.58691 7.68991C6.47997 7.68991 6.3726 7.65016 6.28809 7.56589C6.12457 7.40237 6.12457 7.13175 6.28809 6.96823L8.98828 4.26706L0.423828 4.26706C0.19274 4.26706 0.000157352 4.07526 -1.68103e-07 3.84421Z" fill="white"/>
</svg>
