<svg width="18" height="18" viewBox="0 0 18 18" fill="none" xmlns="http://www.w3.org/2000/svg">
<g clip-path="url(#clip0_1619_1599)">
<mask id="mask0_1619_1599" style="mask-type:luminance" maskUnits="userSpaceOnUse" x="0" y="0" width="18" height="18">
<path d="M18 0H0V18H18V0Z" fill="white"/>
</mask>
<g mask="url(#mask0_1619_1599)">
<path d="M6.75 16.5H11.25C15 16.5 16.5 15 16.5 11.25V6.75C16.5 3 15 1.5 11.25 1.5H6.75C3 1.5 1.5 3 1.5 6.75V11.25C1.5 15 3 16.5 6.75 16.5Z" stroke="white" stroke-width="1.125" stroke-linecap="round" stroke-linejoin="round"/>
<path d="M13.7848 11.452V5.68443C13.7848 5.10694 13.3198 4.68695 12.7498 4.73195H12.7198C11.7148 4.81445 10.1923 5.33196 9.33734 5.86446L9.25484 5.91696C9.11984 5.99946 8.88734 5.99946 8.74484 5.91696L8.62484 5.84196C7.77734 5.30946 6.25484 4.80694 5.24984 4.72444C4.67984 4.67944 4.21484 5.10696 4.21484 5.67696V11.452C4.21484 11.9095 4.58983 12.3445 5.04733 12.397L5.18232 12.4195C6.21732 12.5545 7.82234 13.087 8.73734 13.5895L8.75984 13.597C8.88734 13.672 9.09734 13.672 9.21734 13.597C10.1323 13.087 11.7448 12.562 12.7873 12.4195L12.9448 12.397C13.4098 12.3445 13.7848 11.917 13.7848 11.452Z" stroke="white" stroke-width="1.125" stroke-linecap="round" stroke-linejoin="round"/>
<path d="M9 6.07471V13.2447" stroke="white" stroke-width="1.125" stroke-linecap="round" stroke-linejoin="round"/>
</g>
</g>
<defs>
<clipPath id="clip0_1619_1599">
<rect width="18" height="18" fill="white"/>
</clipPath>
</defs>
</svg>
