<svg width="18" height="18" viewBox="0 0 18 18" fill="none" xmlns="http://www.w3.org/2000/svg">
<g clip-path="url(#clip0_1619_1704)">
<mask id="mask0_1619_1704" style="mask-type:luminance" maskUnits="userSpaceOnUse" x="0" y="0" width="18" height="18">
<path d="M18 0H0V18H18V0Z" fill="white"/>
</mask>
<g mask="url(#mask0_1619_1704)">
<path d="M11.9997 17.0623H5.99968C2.53468 17.0623 1.88968 15.4498 1.72468 13.8823L1.16218 7.87485C1.07968 7.08732 1.05718 5.92482 1.83718 5.05482C2.51218 4.30482 3.62968 3.94482 5.24968 3.94482H12.7497C14.3772 3.94482 15.4947 4.31232 16.1622 5.05482C16.9422 5.92482 16.9197 7.08732 16.8372 7.88235L16.2747 13.8748C16.1097 15.4498 15.4647 17.0623 11.9997 17.0623ZM5.24968 5.06232C3.98218 5.06232 3.11218 5.30982 2.66968 5.80482C2.30218 6.20982 2.18218 6.83232 2.27968 7.76235L2.84218 13.7698C2.96968 14.9548 3.29218 15.9373 5.99968 15.9373H11.9997C14.6997 15.9373 15.0297 14.9548 15.1572 13.7623L15.7197 7.76985C15.8172 6.83232 15.6972 6.20982 15.3297 5.80482C14.8872 5.30982 14.0172 5.06232 12.7497 5.06232H5.24968Z" fill="white"/>
<path d="M12 5.0625C11.6925 5.0625 11.4375 4.8075 11.4375 4.5V3.9C11.4375 2.565 11.4375 2.0625 9.6 2.0625H8.4C6.5625 2.0625 6.5625 2.565 6.5625 3.9V4.5C6.5625 4.8075 6.3075 5.0625 6 5.0625C5.6925 5.0625 5.4375 4.8075 5.4375 4.5V3.9C5.4375 2.58 5.4375 0.9375 8.4 0.9375H9.6C12.5625 0.9375 12.5625 2.58 12.5625 3.9V4.5C12.5625 4.8075 12.3075 5.0625 12 5.0625Z" fill="white"/>
<path d="M9 12.5625C6.9375 12.5625 6.9375 11.2875 6.9375 10.5225V9.75C6.9375 8.6925 7.1925 8.4375 8.25 8.4375H9.75C10.8075 8.4375 11.0625 8.6925 11.0625 9.75V10.5C11.0625 11.28 11.0625 12.5625 9 12.5625ZM8.0625 9.5625C8.0625 9.6225 8.0625 9.69 8.0625 9.75V10.5225C8.0625 11.295 8.0625 11.4375 9 11.4375C9.9375 11.4375 9.9375 11.3175 9.9375 10.515V9.75C9.9375 9.69 9.9375 9.6225 9.9375 9.5625C9.8775 9.5625 9.81 9.5625 9.75 9.5625H8.25C8.19 9.5625 8.1225 9.5625 8.0625 9.5625Z" fill="white"/>
<path d="M10.4996 11.0777C10.2221 11.0777 9.97463 10.8677 9.94463 10.5827C9.90713 10.2752 10.1246 9.99018 10.4321 9.95268C12.4121 9.70518 14.3096 8.95518 15.9071 7.79268C16.1546 7.60518 16.5071 7.66518 16.6946 7.92018C16.8746 8.16768 16.8221 8.52018 16.5671 8.70768C14.8121 9.98268 12.7421 10.8002 10.5671 11.0777C10.5446 11.0777 10.5221 11.0777 10.4996 11.0777Z" fill="white"/>
<path d="M7.49957 11.0857C7.47707 11.0857 7.45457 11.0857 7.43207 11.0857C5.37707 10.8532 3.37457 10.1032 1.64207 8.91816C1.38707 8.74566 1.31957 8.39316 1.49207 8.13816C1.66457 7.88316 2.01707 7.81566 2.27207 7.98816C3.85457 9.06816 5.67706 9.75066 7.55207 9.96816C7.85957 10.0057 8.08457 10.2832 8.04707 10.5907C8.02457 10.8757 7.78457 11.0857 7.49957 11.0857Z" fill="white"/>
</g>
</g>
<defs>
<clipPath id="clip0_1619_1704">
<rect width="18" height="18" fill="white"/>
</clipPath>
</defs>
</svg>
