<svg width="18" height="18" viewBox="0 0 18 18" fill="none" xmlns="http://www.w3.org/2000/svg">
<g clip-path="url(#clip0_1619_1632)">
<mask id="mask0_1619_1632" style="mask-type:luminance" maskUnits="userSpaceOnUse" x="0" y="0" width="18" height="18">
<path d="M18 0H0V18H18V0Z" fill="white"/>
</mask>
<g mask="url(#mask0_1619_1632)">
<path d="M2.25 6.83203V11.1596C2.25 12.7496 2.25 12.7496 3.75 13.7621L7.875 16.1471C8.4975 16.5071 9.51 16.5071 10.125 16.1471L14.25 13.7621C15.75 12.7496 15.75 12.7496 15.75 11.1671V6.83203C15.75 5.24953 15.75 5.24953 14.25 4.23703L10.125 1.85203C9.51 1.49203 8.4975 1.49203 7.875 1.85203L3.75 4.23703C2.25 5.24953 2.25 5.24953 2.25 6.83203Z" stroke="white" stroke-width="1.5" stroke-linecap="round" stroke-linejoin="round"/>
<path d="M9 11.25C10.2427 11.25 11.25 10.2427 11.25 9C11.25 7.75732 10.2427 6.75 9 6.75C7.75732 6.75 6.75 7.75732 6.75 9C6.75 10.2427 7.75732 11.25 9 11.25Z" stroke="white" stroke-width="1.5" stroke-linecap="round" stroke-linejoin="round"/>
</g>
</g>
<defs>
<clipPath id="clip0_1619_1632">
<rect width="18" height="18" fill="white"/>
</clipPath>
</defs>
</svg>
