<svg width="18" height="18" viewBox="0 0 18 18" fill="none" xmlns="http://www.w3.org/2000/svg">
<g clip-path="url(#clip0_1619_1739)">
<mask id="mask0_1619_1739" style="mask-type:luminance" maskUnits="userSpaceOnUse" x="0" y="0" width="18" height="18">
<path d="M18 0H0V18H18V0Z" fill="white"/>
</mask>
<g mask="url(#mask0_1619_1739)">
<path d="M9 16.5596C8.775 16.5596 8.55 16.5071 8.3625 16.4021C6.96 15.6371 4.4925 14.8271 2.9475 14.6246L2.73 14.5946C1.7475 14.4746 0.9375 13.5521 0.9375 12.5546V3.49464C0.9375 2.90214 1.17 2.36214 1.5975 1.97214C2.025 1.58214 2.58 1.39464 3.165 1.44714C4.815 1.57464 7.305 2.39964 8.715 3.28464L8.895 3.38964C8.9475 3.41964 9.06 3.41964 9.105 3.39714L9.225 3.32214C10.635 2.43714 13.125 1.59714 14.7825 1.45464C14.7975 1.45464 14.8575 1.45464 14.8725 1.45464C15.42 1.40214 15.9825 1.59714 16.4025 1.98714C16.83 2.37714 17.0625 2.91714 17.0625 3.50964V12.5621C17.0625 13.5671 16.2525 14.4821 15.2625 14.6021L15.015 14.6321C13.47 14.8346 10.995 15.6521 9.6225 16.4096C9.4425 16.5146 9.225 16.5596 9 16.5596ZM2.985 2.56464C2.745 2.56464 2.5275 2.64714 2.355 2.80464C2.1675 2.97714 2.0625 3.22464 2.0625 3.49464V12.5546C2.0625 12.9971 2.445 13.4246 2.8725 13.4846L3.0975 13.5146C4.785 13.7396 7.3725 14.5871 8.8725 15.4046C8.94 15.4346 9.0375 15.4421 9.075 15.4271C10.575 14.5946 13.1775 13.7396 14.8725 13.5146L15.1275 13.4846C15.555 13.4321 15.9375 12.9971 15.9375 12.5546V3.50214C15.9375 3.22464 15.8325 2.98464 15.645 2.80464C15.45 2.63214 15.2025 2.54964 14.925 2.56464C14.91 2.56464 14.85 2.56464 14.835 2.56464C13.4025 2.69214 11.0925 3.46464 9.8325 4.25214L9.7125 4.33464C9.3 4.58964 8.715 4.58964 8.3175 4.34214L8.1375 4.23714C6.855 3.44964 4.545 2.68464 3.075 2.56464C3.045 2.56464 3.015 2.56464 2.985 2.56464Z" fill="white"/>
<path d="M9 15.9302C8.6925 15.9302 8.4375 15.6752 8.4375 15.3677V4.11768C8.4375 3.81018 8.6925 3.55518 9 3.55518C9.3075 3.55518 9.5625 3.81018 9.5625 4.11768V15.3677C9.5625 15.6827 9.3075 15.9302 9 15.9302Z" fill="white"/>
<path d="M5.8125 6.93018H4.125C3.8175 6.93018 3.5625 6.67518 3.5625 6.36768C3.5625 6.06018 3.8175 5.80518 4.125 5.80518H5.8125C6.12 5.80518 6.375 6.06018 6.375 6.36768C6.375 6.67518 6.12 6.93018 5.8125 6.93018Z" fill="white"/>
<path d="M6.375 9.18011H4.125C3.8175 9.18011 3.5625 8.92511 3.5625 8.61761C3.5625 8.31011 3.8175 8.05511 4.125 8.05511H6.375C6.6825 8.05511 6.9375 8.31011 6.9375 8.61761C6.9375 8.92511 6.6825 9.18011 6.375 9.18011Z" fill="white"/>
</g>
</g>
<defs>
<clipPath id="clip0_1619_1739">
<rect width="18" height="18" fill="white"/>
</clipPath>
</defs>
</svg>
