<svg width="19" height="19" viewBox="0 0 19 19" fill="none" xmlns="http://www.w3.org/2000/svg">
<g clip-path="url(#clip0_1619_1771)">
<mask id="mask0_1619_1771" style="mask-type:luminance" maskUnits="userSpaceOnUse" x="0" y="0" width="19" height="19">
<path d="M19 0H0V19H19V0Z" fill="white"/>
</mask>
<g mask="url(#mask0_1619_1771)">
<path d="M11.8747 18.0104H7.12467C2.82592 18.0104 0.989258 16.1737 0.989258 11.875V7.12498C0.989258 2.82623 2.82592 0.989563 7.12467 0.989563H11.8747C16.1734 0.989563 18.0101 2.82623 18.0101 7.12498V11.875C18.0101 16.1737 16.1734 18.0104 11.8747 18.0104ZM7.12467 2.17706C3.47509 2.17706 2.17676 3.4754 2.17676 7.12498V11.875C2.17676 15.5246 3.47509 16.8229 7.12467 16.8229H11.8747C15.5243 16.8229 16.8226 15.5246 16.8226 11.875V7.12498C16.8226 3.4754 15.5243 2.17706 11.8747 2.17706H7.12467Z" fill="white"/>
<path d="M12.4688 7.71875H6.53125C6.20667 7.71875 5.9375 7.44958 5.9375 7.125C5.9375 6.80042 6.20667 6.53125 6.53125 6.53125H12.4688C12.7933 6.53125 13.0625 6.80042 13.0625 7.125C13.0625 7.44958 12.7933 7.71875 12.4688 7.71875Z" fill="white"/>
<path d="M12.4688 12.4688H6.53125C6.20667 12.4688 5.9375 12.1996 5.9375 11.875C5.9375 11.5504 6.20667 11.2812 6.53125 11.2812H12.4688C12.7933 11.2812 13.0625 11.5504 13.0625 11.875C13.0625 12.1996 12.7933 12.4688 12.4688 12.4688Z" fill="white"/>
</g>
</g>
<defs>
<clipPath id="clip0_1619_1771">
<rect width="19" height="19" fill="white"/>
</clipPath>
</defs>
</svg>
