<svg width="18" height="18" viewBox="0 0 18 18" fill="none" xmlns="http://www.w3.org/2000/svg">
<path d="M8.75836 16.6049C4.43015 16.6049 0.912109 13.0868 0.912109 8.7586C0.912109 4.43039 4.43015 0.912354 8.75836 0.912354C9.05761 0.912354 9.30577 1.16051 9.30577 1.45977C9.30577 1.75902 9.05761 2.00718 8.75836 2.00718C5.03595 2.00718 2.00694 5.0362 2.00694 8.7586C2.00694 12.481 5.03595 15.51 8.75836 15.51C12.4808 15.51 15.5098 12.481 15.5098 8.7586C15.5098 8.45935 15.7579 8.21119 16.0572 8.21119C16.3565 8.21119 16.6046 8.45935 16.6046 8.7586C16.6046 13.0868 13.0866 16.6049 8.75836 16.6049Z" fill="white"/>
<path d="M9.48797 8.57626C9.34929 8.57626 9.21062 8.52517 9.10113 8.41568C8.88947 8.20402 8.88947 7.85367 9.10113 7.64201L15.0862 1.65698C15.2978 1.44531 15.6482 1.44531 15.8599 1.65698C16.0715 1.86865 16.0715 2.21899 15.8599 2.43066L9.87481 8.41568C9.76533 8.52517 9.62665 8.57626 9.48797 8.57626Z" fill="white"/>
<path d="M16.0571 5.53252C15.7579 5.53252 15.5097 5.28436 15.5097 4.98511V2.00718H12.5318C12.2325 2.00718 11.9844 1.75902 11.9844 1.45977C11.9844 1.16051 12.2325 0.912354 12.5318 0.912354H16.0571C16.3564 0.912354 16.6045 1.16051 16.6045 1.45977V4.98511C16.6045 5.28436 16.3564 5.53252 16.0571 5.53252Z" fill="white"/>
</svg>
