<svg width="180" height="36" viewBox="0 0 180 36" fill="none" xmlns="http://www.w3.org/2000/svg">
<g clip-path="url(#clip0_104_197)">
<path d="M20.8059 19.7328C19.7241 19.7206 18.8356 18.806 18.8574 17.7262C18.8762 16.6954 19.7366 15.8573 20.7654 15.8664C21.8783 15.8756 22.7668 16.781 22.7481 17.8853C22.7294 18.9192 21.8596 19.7451 20.8059 19.7328Z" fill="#E5FF0D" fill-opacity="0.88"/>
<path d="M23.1537 12.5659C24.0203 12.5628 24.728 13.2511 24.7249 14.1014C24.7249 14.9457 24.0328 15.6278 23.1724 15.6309C22.3057 15.637 21.598 14.9457 21.598 14.0984C21.598 13.2602 22.2995 12.572 23.1537 12.5659Z" fill="#E5FF0D" fill-opacity="0.88"/>
<path d="M25.5546 16.2429C26.4368 16.2582 27.1227 16.9403 27.1071 17.7906C27.0946 18.6196 26.3869 19.2895 25.539 19.2803C24.6848 19.2711 23.9896 18.5676 24.0083 17.7325C24.027 16.9097 24.7315 16.2276 25.5546 16.2429Z" fill="#E5FF0D" fill-opacity="0.88"/>
<path d="M16.5258 19.1945C15.6716 19.1945 14.9702 18.4971 14.9795 17.659C14.9889 16.8392 15.6903 16.1479 16.5102 16.154C17.3925 16.1601 18.0846 16.8392 18.0783 17.6896C18.0721 18.5185 17.3706 19.1945 16.5227 19.1945H16.5258Z" fill="#E5FF0D" fill-opacity="0.88"/>
<path d="M18.6146 15.6187C17.7604 15.6157 17.0621 14.9183 17.0715 14.0801C17.0839 13.2573 17.7854 12.5721 18.6053 12.5782C19.4875 12.5874 20.1796 13.2665 20.1702 14.1168C20.1609 14.9458 19.4595 15.6218 18.6115 15.6187H18.6146Z" fill="#E5FF0D" fill-opacity="0.88"/>
<path d="M23.3185 20.0172C24.2008 20.0233 24.8928 20.6993 24.8835 21.5527C24.8741 22.3817 24.1696 23.0607 23.3279 23.0546C22.4705 23.0485 21.7753 22.3541 21.7847 21.516C21.794 20.6932 22.4924 20.011 23.3185 20.0172Z" fill="#E5FF0D" fill-opacity="0.88"/>
<path d="M18.7953 20.0172C19.6744 20.0264 20.3634 20.7116 20.3478 21.565C20.3322 22.394 19.6214 23.07 18.7797 23.0547C17.9286 23.0394 17.2459 22.3572 17.249 21.5252C17.249 20.6963 17.9566 20.008 18.7953 20.0172Z" fill="#E5FF0D" fill-opacity="0.88"/>
<path d="M24.9555 23.4646C25.6538 23.4646 26.215 24.0213 26.2056 24.7065C26.1963 25.4039 25.5977 25.9821 24.89 25.9759C24.2042 25.9698 23.6493 25.4192 23.6493 24.7463C23.6493 24.0489 24.2478 23.4646 24.9555 23.4646Z" fill="#E5FF0D" fill-opacity="0.88"/>
<path d="M25.3264 9.63243C26.0403 9.63855 26.6171 10.2075 26.614 10.8957C26.6108 11.5779 26.0434 12.1285 25.3482 12.1254C24.6437 12.1193 24.067 11.5412 24.0763 10.8468C24.0825 10.1708 24.6468 9.62631 25.3295 9.63243H25.3264Z" fill="#E5FF0D" fill-opacity="0.88"/>
<path d="M15.9522 7.09673C15.9522 7.76968 15.3942 8.3111 14.7021 8.3111C14.0194 8.3111 13.4614 7.76356 13.4582 7.09061C13.4582 6.40849 14.0256 5.85483 14.7208 5.86401C15.4098 5.87318 15.9554 6.41766 15.9522 7.09673Z" fill="#E5FF0D" fill-opacity="0.88"/>
<path d="M8.49858 18.8518C7.79402 18.8396 7.24846 18.289 7.26093 17.6038C7.2734 16.9339 7.84702 16.3925 8.52664 16.4047C9.20937 16.417 9.76117 16.9737 9.75493 17.6436C9.74558 18.3165 9.17508 18.8641 8.49858 18.8488V18.8518Z" fill="#E5FF0D" fill-opacity="0.88"/>
<path d="M28.5097 28.264C28.5097 28.937 27.9548 29.4814 27.2658 29.4845C26.58 29.4845 26.0188 28.94 26.0126 28.2701C26.0095 27.6002 26.5644 27.0435 27.2471 27.0405C27.9486 27.0343 28.5066 27.5788 28.5066 28.264H28.5097Z" fill="#E5FF0D" fill-opacity="0.88"/>
<path d="M29.4669 16.4138C30.1715 16.4077 30.7388 16.9399 30.7513 17.622C30.7638 18.3011 30.1964 18.8609 29.5043 18.8639C28.8185 18.8639 28.2604 18.3225 28.2573 17.6465C28.2542 16.9827 28.806 16.4199 29.4669 16.4169V16.4138Z" fill="#E5FF0D" fill-opacity="0.88"/>
<path d="M16.8253 9.67522C17.5298 9.6844 18.0848 10.2289 18.0785 10.911C18.0723 11.5809 17.5049 12.1254 16.8222 12.1223C16.127 12.1162 15.572 11.5564 15.5845 10.8743C15.597 10.2105 16.1581 9.66911 16.8253 9.67828V9.67522Z" fill="#E5FF0D" fill-opacity="0.88"/>
<path d="M17.2023 23.5932C17.91 23.5993 18.4587 24.1438 18.4525 24.829C18.4462 25.5019 17.882 26.0464 17.1992 26.0403C16.5071 26.0342 15.9429 25.4683 15.9585 24.7923C15.9709 24.1285 16.5352 23.5871 17.2023 23.5932Z" fill="#E5FF0D" fill-opacity="0.88"/>
<path d="M14.0942 17.6405C14.0942 18.3135 13.5362 18.861 12.8504 18.861C12.1552 18.861 11.5909 18.3012 11.6002 17.6222C11.6096 16.9615 12.1739 16.4047 12.8348 16.4109C13.5424 16.417 14.0974 16.9553 14.0942 17.6375V17.6405Z" fill="#E5FF0D" fill-opacity="0.88"/>
<path d="M14.8519 27.1232C15.5377 27.1232 16.0926 27.6677 16.0926 28.3437C16.0926 29.0136 15.5377 29.5642 14.8519 29.5672C14.166 29.5703 13.6049 29.0258 13.5986 28.3559C13.5924 27.6707 14.1504 27.1232 14.8519 27.1232Z" fill="#E5FF0D" fill-opacity="0.88"/>
<path d="M28.7312 7.08427C28.7312 7.76028 28.1794 8.30781 27.4935 8.30781C26.8045 8.30781 26.2434 7.76945 26.2371 7.0965C26.2309 6.41437 26.7952 5.85766 27.4873 5.86072C28.1731 5.86072 28.728 6.40826 28.728 7.08427H28.7312Z" fill="#E5FF0D" fill-opacity="0.88"/>
<path d="M22.0849 24.7248C22.0817 25.2815 21.6172 25.7312 21.0467 25.7312C20.4731 25.7312 20.0024 25.2663 20.0086 24.7004C20.018 24.1436 20.4825 23.6909 21.0467 23.6909C21.6235 23.6909 22.088 24.1528 22.0817 24.7218L22.0849 24.7248Z" fill="#E5FF0D" fill-opacity="0.88"/>
<path d="M22.0848 10.7123C22.0848 11.2781 21.611 11.7339 21.0311 11.7278C20.4637 11.7217 20.0054 11.2628 20.0086 10.7061C20.0086 10.1494 20.4731 9.69365 21.0405 9.69059C21.6172 9.68753 22.0848 10.1464 22.0848 10.7123Z" fill="#E5FF0D" fill-opacity="0.88"/>
<path d="M29.255 4.96757C28.6907 4.96757 28.2356 4.51792 28.2356 3.97038C28.2356 3.41061 28.7001 2.95789 29.2706 2.96401C29.8317 2.97013 30.2807 3.41978 30.2775 3.97344C30.2744 4.52709 29.8193 4.96757 29.255 4.96757Z" fill="#E5FF0D" fill-opacity="0.88"/>
<path d="M31.328 22.1157C30.7637 22.1157 30.3117 21.6722 30.3086 21.1216C30.3054 20.5618 30.7668 20.1091 31.3404 20.1152C31.9016 20.1183 32.3536 20.571 32.3505 21.1216C32.3474 21.6722 31.8891 22.1188 31.328 22.1188V22.1157Z" fill="#E5FF0D" fill-opacity="0.88"/>
<path d="M20.0922 7.28018C20.0922 7.83384 19.6464 8.28043 19.0852 8.28655C18.5209 8.28961 18.0627 7.85219 18.0533 7.3016C18.044 6.74182 18.5054 6.28299 19.0759 6.28299C19.637 6.28299 20.0922 6.72653 20.0953 7.28018H20.0922Z" fill="#E5FF0D" fill-opacity="0.88"/>
<path d="M24.2294 7.29251C24.2262 7.84616 23.768 8.28664 23.2068 8.28358C22.6425 8.28052 22.1874 7.83393 22.1874 7.28333C22.1874 6.72356 22.655 6.27084 23.2255 6.28002C23.7867 6.2892 24.2356 6.73885 24.2294 7.29251Z" fill="#E5FF0D" fill-opacity="0.88"/>
<path d="M11.0422 22.1157C10.4779 22.1157 10.0259 21.6722 10.0227 21.1216C10.0196 20.5679 10.4685 20.1183 11.0297 20.1152C11.6002 20.1091 12.0678 20.5649 12.0647 21.1216C12.0616 21.6752 11.6064 22.1188 11.0453 22.1188L11.0422 22.1157Z" fill="#E5FF0D" fill-opacity="0.88"/>
<path d="M29.3888 25.3887C28.8276 25.3887 28.3725 24.9422 28.3725 24.3885C28.3725 23.8318 28.837 23.3791 29.4106 23.3852C29.9718 23.3913 30.4207 23.841 30.4144 24.3946C30.4082 24.9483 29.9531 25.3887 29.3919 25.3857L29.3888 25.3887Z" fill="#E5FF0D" fill-opacity="0.88"/>
<path d="M30.4115 10.9875C30.4146 11.5412 29.9657 11.9908 29.4045 11.9939C28.8403 11.997 28.3789 11.5595 28.3695 11.0089C28.3602 10.4492 28.8216 9.99035 29.3921 9.99035C29.9532 9.99035 30.4084 10.4339 30.4115 10.9875Z" fill="#E5FF0D" fill-opacity="0.88"/>
<path d="M13.9973 24.3791C13.9973 24.9328 13.5546 25.3824 12.9904 25.3886C12.4199 25.3947 11.9522 24.942 11.9553 24.3853C11.9553 23.8347 12.4136 23.3881 12.9748 23.3881C13.539 23.3881 13.9942 23.8316 13.9973 24.3822V24.3791Z" fill="#E5FF0D" fill-opacity="0.88"/>
<path d="M27.2594 22.07C26.6982 22.0761 26.24 21.6325 26.2306 21.0819C26.2244 20.5344 26.6733 20.0786 27.2344 20.0664C27.8049 20.0572 28.2695 20.5038 28.2726 21.0667C28.2726 21.6172 27.8237 22.0638 27.2594 22.07Z" fill="#E5FF0D" fill-opacity="0.88"/>
<path d="M30.3051 14.2605C30.3051 13.7069 30.7603 13.2633 31.3214 13.2633C31.8919 13.2633 32.3533 13.7222 32.344 14.2789C32.3346 14.8325 31.8763 15.27 31.3152 15.2638C30.7509 15.2577 30.302 14.8111 30.3051 14.2605Z" fill="#E5FF0D" fill-opacity="0.88"/>
<path d="M14.9736 15.4412C14.4124 15.4412 13.9573 14.9916 13.9573 14.441C13.9573 13.8904 14.4124 13.4407 14.9736 13.4377C15.5441 13.4346 16.0023 13.8873 15.9992 14.4502C15.9961 15.0008 15.5378 15.4412 14.9736 15.4412Z" fill="#E5FF0D" fill-opacity="0.88"/>
<path d="M28.2726 14.2605C28.2726 14.8141 27.8268 15.2577 27.2626 15.2638C26.7014 15.2699 26.2431 14.8294 26.2338 14.2758C26.2244 13.7191 26.6889 13.2602 27.2594 13.2602C27.8206 13.2602 28.2758 13.7068 28.2758 14.2605H28.2726Z" fill="#E5FF0D" fill-opacity="0.88"/>
<path d="M12.9282 4.96779C12.367 4.96779 11.9119 4.52119 11.9088 3.9706C11.9088 3.42 12.3608 2.97035 12.922 2.96729C13.4925 2.96117 13.9538 3.41388 13.9507 3.97672C13.9476 4.52731 13.4925 4.96779 12.9282 4.96779Z" fill="#E5FF0D" fill-opacity="0.88"/>
<path d="M14.0038 31.4209C14.0007 31.9684 13.5393 32.415 12.9782 32.4089C12.417 32.4058 11.9619 31.9592 11.9619 31.4086C11.9619 30.8489 12.4295 30.3992 13 30.4084C13.5612 30.4145 14.007 30.8672 14.0038 31.4209Z" fill="#E5FF0D" fill-opacity="0.88"/>
<path d="M4.89484 18.5827C4.31498 18.5888 3.85047 18.1514 3.84424 17.5916C3.838 17.041 4.29004 16.5853 4.84807 16.5792C5.41546 16.57 5.8862 17.0227 5.8862 17.5825C5.8862 18.1208 5.43105 18.5797 4.89172 18.5827H4.89484Z" fill="#E5FF0D" fill-opacity="0.88"/>
<path d="M32.1229 17.6835C32.126 17.139 32.578 16.6924 33.1236 16.6924C33.7034 16.6924 34.1648 17.1329 34.1679 17.6896C34.1679 18.2463 33.6972 18.7051 33.1329 18.6959C32.5687 18.6868 32.1229 18.2371 32.126 17.6865L32.1229 17.6835Z" fill="#E5FF0D" fill-opacity="0.88"/>
<path d="M30.1493 31.3291C30.1493 31.8828 29.7004 32.3263 29.1361 32.3294C28.575 32.3294 28.1136 31.8889 28.1073 31.3414C28.1011 30.7847 28.5656 30.3228 29.133 30.3258C29.6942 30.3258 30.1462 30.7755 30.1493 31.3261V31.3291Z" fill="#E5FF0D" fill-opacity="0.88"/>
<path d="M11.0453 13.242C11.6096 13.242 12.0617 13.6886 12.0617 14.2422C12.0617 14.7989 11.5971 15.2517 11.0235 15.2425C10.4593 15.2364 10.0135 14.7867 10.0197 14.2331C10.0259 13.6794 10.4811 13.2389 11.0422 13.242H11.0453Z" fill="#E5FF0D" fill-opacity="0.88"/>
<path d="M20.0924 27.6889C20.0893 28.2426 19.6341 28.683 19.0698 28.68C18.5056 28.6769 18.0504 28.2303 18.0504 27.6828C18.0504 27.123 18.5149 26.6734 19.0854 26.6795C19.6497 26.6856 20.0955 27.1353 20.0893 27.6889H20.0924Z" fill="#E5FF0D" fill-opacity="0.88"/>
<path d="M24.2289 27.6705C24.2351 28.2242 23.7893 28.6738 23.2251 28.6799C22.6608 28.6861 22.1994 28.2517 22.1869 27.7011C22.1745 27.1413 22.6327 26.6825 23.2032 26.6794C23.7675 26.6764 24.2227 27.1169 24.2258 27.6705H24.2289Z" fill="#E5FF0D" fill-opacity="0.88"/>
<path d="M12.9811 9.96889C13.5453 9.96889 13.9942 10.4124 13.9974 10.9661C13.9974 11.5259 13.536 11.9755 12.9623 11.9694C12.4012 11.9633 11.9492 11.5136 11.9554 10.96C11.9616 10.4094 12.4168 9.96583 12.9811 9.96889Z" fill="#E5FF0D" fill-opacity="0.88"/>
<path d="M14.983 20.1795C15.5472 20.1795 15.9962 20.623 15.9993 21.1767C15.9993 21.7364 15.5379 22.1861 14.9643 22.18C14.4031 22.1739 13.9511 21.7242 13.9573 21.1705C13.9636 20.62 14.4187 20.1764 14.983 20.1795Z" fill="#E5FF0D" fill-opacity="0.88"/>
<path d="M37.2951 16.7412C37.8282 16.7443 38.2428 17.148 38.2397 17.665C38.2397 18.1758 37.8064 18.5918 37.2857 18.5826C36.7713 18.5735 36.3598 18.1605 36.363 17.6558C36.363 17.1542 36.7869 16.7381 37.2951 16.7412Z" fill="#E5FF0D" fill-opacity="0.88"/>
<path d="M5.48689 24.5078C5.48689 24.8412 5.12526 25.193 4.78546 25.193C4.45812 25.193 4.05284 24.8259 4.06843 24.5139C4.08713 24.1377 4.41135 23.844 4.78857 23.8226C5.12526 23.8043 5.48689 24.1805 5.48689 24.5078Z" fill="#E5FF0D" fill-opacity="0.88"/>
<path d="M4.78531 10.2076C5.13136 10.2076 5.48364 10.5533 5.48675 10.8928C5.48675 11.2232 5.12512 11.5994 4.78843 11.581C4.41121 11.5596 4.06205 11.2507 4.07452 10.8836C4.08699 10.5227 4.38939 10.2504 4.78531 10.2107V10.2076Z" fill="#E5FF0D" fill-opacity="0.88"/>
<path d="M36.7992 10.8957C36.7992 10.5439 37.1296 10.1921 37.4788 10.2135C37.8342 10.2319 38.1865 10.4797 38.1896 10.8987C38.1927 11.2903 37.7968 11.5656 37.4882 11.5778C37.139 11.5931 36.7992 11.2383 36.7992 10.8957Z" fill="#E5FF0D" fill-opacity="0.88"/>
<path d="M21.1402 3.44444C21.5424 3.44444 21.8229 3.71362 21.8198 4.0868C21.8198 4.53645 21.4208 4.76281 21.1215 4.75363C20.6882 4.74139 20.4138 4.43857 20.4201 4.08374C20.4294 3.71362 20.7162 3.41079 21.1371 3.44749L21.1402 3.44444Z" fill="#E5FF0D" fill-opacity="0.88"/>
<path d="M36.7992 24.4955C36.7992 24.1498 37.1577 23.7889 37.4975 23.8256C37.8436 23.8623 38.1927 24.1131 38.1896 24.5108C38.1865 24.9207 37.8436 25.1562 37.4913 25.1899C37.1421 25.2235 36.7961 24.8564 36.7992 24.4955Z" fill="#E5FF0D" fill-opacity="0.88"/>
<path d="M8.17113 24.4985C8.19295 24.1069 8.52964 23.8408 8.88192 23.8255C9.21861 23.8102 9.58648 24.1926 9.58024 24.5168C9.57401 24.8472 9.19679 25.2173 8.86322 25.1928C8.51717 25.1653 8.15866 24.8778 8.17113 24.4985Z" fill="#E5FF0D" fill-opacity="0.88"/>
<path d="M8.171 10.902C8.14918 10.5441 8.53887 10.2046 8.86309 10.2137C9.25901 10.226 9.55206 10.5135 9.57388 10.8867C9.59259 11.214 9.21225 11.6025 8.87868 11.578C8.52952 11.5535 8.19906 11.3149 8.171 10.902Z" fill="#E5FF0D" fill-opacity="0.88"/>
<path d="M21.1368 31.9593C20.716 31.9899 20.4167 31.6748 20.426 31.2955C20.4354 30.9407 20.716 30.6531 21.1244 30.6501C21.4735 30.6501 21.8227 30.907 21.8164 31.3169C21.8102 31.6962 21.539 31.9593 21.1368 31.9593Z" fill="#E5FF0D" fill-opacity="0.88"/>
<path d="M32.7057 10.8927C32.7057 10.4859 33.0704 10.2106 33.3978 10.2106C33.7687 10.2106 34.1023 10.541 34.1023 10.8866C34.1023 11.2935 33.7344 11.5412 33.4009 11.5749C33.0611 11.6085 32.7088 11.2415 32.7057 10.8927Z" fill="#E5FF0D" fill-opacity="0.88"/>
<path d="M23.1601 1.34902C22.7985 1.34902 22.468 1.0156 22.4805 0.657713C22.4961 0.247825 22.8172 0.0306453 23.1726 5.66226e-05C23.5436 -0.0305321 23.8959 0.327355 23.8678 0.691361C23.8397 1.05842 23.5903 1.33678 23.1601 1.34596V1.34902Z" fill="#E5FF0D" fill-opacity="0.88"/>
<path d="M25.2273 3.44455C25.5764 3.39255 25.9225 3.73208 25.9069 4.10832C25.8882 4.46621 25.6014 4.75068 25.2148 4.75374C24.8563 4.75374 24.4604 4.40503 24.504 4.08691C24.5446 3.7902 24.7753 3.39255 25.2273 3.44455Z" fill="#E5FF0D" fill-opacity="0.88"/>
<path d="M34.099 24.52C34.099 24.8993 33.7343 25.2052 33.3882 25.1868C33.0079 25.1685 32.7024 24.9146 32.7117 24.4986C32.7211 24.0703 33.0516 23.8348 33.4101 23.8317C33.7343 23.8287 34.1146 24.1346 34.099 24.52Z" fill="#E5FF0D" fill-opacity="0.88"/>
<path d="M22.4771 34.7183C22.4771 34.3665 22.8106 34.0484 23.1785 34.0515C23.5838 34.0545 23.8519 34.3604 23.8644 34.7244C23.8768 35.0793 23.5308 35.4218 23.1723 35.3974C22.8044 35.3729 22.4802 35.1068 22.4771 34.7152V34.7183Z" fill="#E5FF0D" fill-opacity="0.88"/>
<path d="M25.2113 31.9562C25.0274 31.9807 24.8653 31.9165 24.7281 31.7758C24.5941 31.6412 24.5099 31.4668 24.5037 31.2925C24.4943 30.9621 24.8559 30.6532 25.2144 30.6501C25.5948 30.647 25.8878 30.9346 25.9065 31.2925C25.9252 31.6259 25.6073 32.0052 25.2113 31.9562Z" fill="#E5FF0D" fill-opacity="0.88"/>
<path d="M17.034 31.959C16.7129 32.0079 16.3544 31.7143 16.3513 31.3166C16.3482 30.9526 16.6537 30.6437 17.0403 30.6467C17.4705 30.6467 17.7292 30.9893 17.7292 31.3013C17.7292 31.6378 17.458 32.0018 17.034 31.959Z" fill="#E5FF0D" fill-opacity="0.88"/>
<path d="M19.7805 34.7063C19.7774 35.1284 19.4532 35.3639 19.1009 35.3976C18.7518 35.4312 18.387 35.0825 18.3901 34.7369C18.3901 34.382 18.7081 34.0394 19.0947 34.0486C19.4501 34.0578 19.7805 34.3667 19.7805 34.7063Z" fill="#E5FF0D" fill-opacity="0.88"/>
<path d="M19.0915 1.3491C18.7299 1.36439 18.4026 1.03404 18.3901 0.682267C18.3776 0.333556 18.7143 -0.00903713 19.0822 0.00319834C19.4345 0.0123749 19.7867 0.287673 19.7836 0.697561C19.7805 1.04015 19.45 1.35216 19.0947 1.35216L19.0915 1.3491Z" fill="#E5FF0D" fill-opacity="0.88"/>
<path d="M15.0074 1.34886C14.6832 1.38251 14.2935 1.02768 14.2966 0.663678C14.2966 0.327202 14.6676 -0.0276261 15.0136 -9.63179e-05C15.3815 0.0304924 15.6933 0.278261 15.6901 0.666737C15.6901 1.03074 15.3753 1.34581 15.0074 1.34886Z" fill="#E5FF0D" fill-opacity="0.88"/>
<path d="M17.0273 4.75373C16.6252 4.75679 16.3384 4.41114 16.354 4.06855C16.3727 3.66478 16.6501 3.4476 17.1177 3.43842C17.4014 3.43536 17.7506 3.73207 17.7288 4.11443C17.707 4.48149 17.4233 4.76903 17.0273 4.75373Z" fill="#E5FF0D" fill-opacity="0.88"/>
<path d="M8.88162 3.44444C9.24325 3.44444 9.59553 3.76562 9.57682 4.09597C9.56123 4.35598 9.3056 4.75975 8.87226 4.75363C8.51063 4.75057 8.16771 4.42939 8.16771 4.08374C8.16771 3.71362 8.47011 3.44444 8.88162 3.44444Z" fill="#E5FF0D" fill-opacity="0.88"/>
<path d="M39.5235 14.9608C39.1089 14.9608 38.8346 14.5907 38.8221 14.2818C38.8096 13.9728 39.1993 13.618 39.5235 13.6088C39.8758 13.6027 40.2219 13.9392 40.225 14.2848C40.225 14.6305 39.8821 14.9608 39.5267 14.9608H39.5235Z" fill="#E5FF0D" fill-opacity="0.88"/>
<path d="M2.72146 14.961C2.34736 14.9518 2.06367 14.6337 2.06055 14.2422C2.06055 13.8353 2.43465 13.6335 2.7464 13.6151C3.07686 13.5968 3.47901 13.9975 3.44784 14.3034C3.40731 14.6857 3.03009 15.0038 2.72146 14.961Z" fill="#E5FF0D" fill-opacity="0.88"/>
<path d="M26.5827 0.691355C26.5484 0.253937 26.9443 0.0153455 27.2748 0.00311002C27.6239 -0.0121843 27.9637 0.336527 27.9606 0.673002C27.9544 1.04924 27.5709 1.36431 27.2623 1.35207C26.9038 1.33984 26.5858 1.04007 26.5858 0.691355H26.5827Z" fill="#E5FF0D" fill-opacity="0.88"/>
<path d="M8.86016 31.9592C8.46112 31.9592 8.16496 31.6778 8.16496 31.2985C8.16496 30.965 8.50788 30.65 8.86328 30.653C9.21555 30.653 9.56471 30.9712 9.57407 31.3046C9.58342 31.6257 9.21867 31.9622 8.85704 31.9622L8.86016 31.9592Z" fill="#E5FF0D" fill-opacity="0.88"/>
<path d="M11.5909 7.50657C11.6158 7.87975 11.2542 8.15505 10.8801 8.13976C10.4748 8.12446 10.2161 7.81552 10.2254 7.46069C10.2348 7.07833 10.5465 6.80915 10.9455 6.82444C11.3259 6.83974 11.6033 7.12421 11.594 7.50657H11.5909Z" fill="#E5FF0D" fill-opacity="0.88"/>
<path d="M15.0109 34.0513C15.3695 34.0513 15.6906 34.3694 15.6874 34.7181C15.6874 35.0852 15.3632 35.4064 14.9954 35.4033C14.64 35.4003 14.2877 35.0577 14.2939 34.712C14.3033 34.3633 14.6805 34.0177 15.0078 34.0513H15.0109Z" fill="#E5FF0D" fill-opacity="0.88"/>
<path d="M26.583 34.712C26.583 34.3633 26.9041 34.0666 27.2564 34.0483C27.5806 34.033 27.9609 34.3664 27.9609 34.7212C27.9609 35.0699 27.6118 35.4247 27.2595 35.3972C26.9415 35.3727 26.5549 35.1556 26.5861 34.712H26.583Z" fill="#E5FF0D" fill-opacity="0.88"/>
<path d="M35.4306 14.9611C35.0534 14.9611 34.7666 14.6583 34.7697 14.2729C34.7697 13.9272 35.097 13.606 35.4462 13.6091C35.7922 13.6121 36.1321 13.9394 36.1352 14.2729C36.1352 14.643 35.8109 14.9642 35.4337 14.9611H35.4306Z" fill="#E5FF0D" fill-opacity="0.88"/>
<path d="M11.5941 27.906C11.5941 28.2914 11.3042 28.5667 10.9083 28.5759C10.5373 28.582 10.2193 28.3006 10.2224 27.9244C10.2224 27.5604 10.4905 27.2575 10.9145 27.2545C11.2699 27.2545 11.6097 27.5206 11.5941 27.906Z" fill="#E5FF0D" fill-opacity="0.88"/>
<path d="M0.710549 17.0564C1.11271 17.0564 1.36522 17.3103 1.36522 17.708C1.36522 18.1056 1.10024 18.332 0.673139 18.3503C0.264746 18.3687 -0.00647686 18.0077 -0.000241853 17.6927C0.00599315 17.3868 0.261628 16.9983 0.710549 17.0564Z" fill="#E5FF0D" fill-opacity="0.88"/>
<path d="M30.6762 7.48817C30.6762 7.09051 30.9505 6.81827 31.3589 6.83051C31.7548 6.83969 32.0292 7.06298 32.0323 7.50346C32.0323 7.90111 31.7081 8.14888 31.3433 8.1397C30.938 8.13053 30.6762 7.88276 30.6762 7.48817Z" fill="#E5FF0D" fill-opacity="0.88"/>
<path d="M33.4038 3.44444C33.7873 3.44444 34.099 3.73503 34.099 4.08986C34.099 4.42327 33.7343 4.74751 33.382 4.75669C33.0017 4.76587 32.6868 4.35598 32.6837 4.09292C32.6774 3.76256 33.0391 3.44444 33.4069 3.44749L33.4038 3.44444Z" fill="#E5FF0D" fill-opacity="0.88"/>
<path d="M30.6766 27.903C30.6174 27.5972 30.9416 27.2484 31.35 27.2546C31.7116 27.2607 32.0296 27.4932 32.0327 27.903C32.0327 28.3741 31.6618 28.576 31.35 28.5729C30.951 28.5699 30.6766 28.2976 30.6766 27.903Z" fill="#E5FF0D" fill-opacity="0.88"/>
<path d="M6.15406 14.2879C6.15406 13.9331 6.46893 13.5966 6.81497 13.615C7.13296 13.6303 7.50394 13.8566 7.50082 14.2696C7.50082 14.6703 7.21401 14.9609 6.81497 14.9609C6.45958 14.9609 6.15406 14.6489 6.15406 14.2879Z" fill="#E5FF0D" fill-opacity="0.88"/>
<path d="M11.5815 0.694309C11.5815 1.0369 11.2604 1.34585 10.9081 1.34891C10.615 1.35197 10.2441 1.11643 10.2222 0.69125C10.2066 0.342539 10.5433 -0.00617191 10.9018 -5.41769e-05C11.2167 0.00300469 11.65 0.293597 11.5815 0.694309Z" fill="#E5FF0D" fill-opacity="0.88"/>
<path d="M40.2221 21.1155C40.2128 21.4795 39.8823 21.7884 39.5113 21.7701C39.0811 21.7456 38.8068 21.3847 38.8255 21.0818C38.8442 20.7423 39.1653 20.415 39.555 20.4395C39.9072 20.4609 40.2283 20.7729 40.2221 21.1186V21.1155Z" fill="#E5FF0D" fill-opacity="0.88"/>
<path d="M33.3791 31.9593C33.0331 31.9593 32.6683 31.6258 32.6808 31.3108C32.6902 31.0447 33.0081 30.6348 33.3822 30.6501C33.7439 30.6654 34.0993 30.9835 34.0962 31.3138C34.0962 31.6656 33.7657 31.9623 33.376 31.9593H33.3791Z" fill="#E5FF0D" fill-opacity="0.88"/>
<path d="M32.0105 0.666851C32.0105 1.0645 31.7362 1.34898 31.3496 1.34898C30.9973 1.34898 30.6981 1.03391 30.67 0.688263C30.6388 0.31814 31.0223 0.00613536 31.3496 -0.00304124C31.7081 -0.0122178 32.0105 0.299787 32.0105 0.663792V0.666851Z" fill="#E5FF0D" fill-opacity="0.88"/>
<path d="M2.06404 21.1124C2.06404 20.7361 2.36644 20.4425 2.74678 20.4394C3.16764 20.4364 3.43263 20.7728 3.44198 21.094C3.45133 21.4397 3.13958 21.767 2.73743 21.7639C2.35086 21.7639 2.03287 21.4764 2.06404 21.1093V21.1124Z" fill="#E5FF0D" fill-opacity="0.88"/>
<path d="M41.5777 17.0564C41.9924 17.0074 42.2636 17.3776 42.2698 17.6926C42.2761 18.0046 42.008 18.3533 41.5715 18.3564C41.1974 18.3595 40.8763 18.0016 40.8857 17.7079C40.895 17.3164 41.1631 17.0564 41.5777 17.0564Z" fill="#E5FF0D" fill-opacity="0.88"/>
<path d="M6.15425 7.48212C6.15425 7.08753 6.41612 6.82753 6.81516 6.82753C7.23602 6.82753 7.46672 7.08753 7.49478 7.5066C7.5166 7.84307 7.1612 8.13978 6.82763 8.13978C6.42859 8.13978 6.08878 7.80942 6.15113 7.47907L6.15425 7.48212Z" fill="#E5FF0D" fill-opacity="0.88"/>
<path d="M7.48847 27.9092C7.48847 28.3129 7.22348 28.5729 6.81509 28.5729C6.41293 28.5729 6.17288 28.3038 6.14483 27.8969C6.123 27.5788 6.4254 27.2484 6.82444 27.2546C7.17672 27.2607 7.54147 27.536 7.48535 27.9092H7.48847Z" fill="#E5FF0D" fill-opacity="0.88"/>
<path d="M11.5816 34.7184C11.6409 35.1038 11.2325 35.3913 10.9051 35.3974C10.5529 35.4066 10.2224 35.0732 10.2255 34.7214C10.2286 34.2993 10.5872 34.0454 10.9176 34.0485C11.2699 34.0515 11.5816 34.3635 11.5816 34.7153V34.7184Z" fill="#E5FF0D" fill-opacity="0.88"/>
<path d="M6.15385 21.1034C6.15385 20.7272 6.43755 20.4427 6.81476 20.4427C7.22628 20.4427 7.49438 20.7149 7.50373 21.1217C7.51309 21.55 7.1234 21.7702 6.81788 21.7672C6.4999 21.7672 6.10086 21.501 6.15697 21.1034H6.15385Z" fill="#E5FF0D" fill-opacity="0.88"/>
<path d="M35.4491 20.4394C35.8169 20.4394 36.138 20.7514 36.1256 21.1246C36.1131 21.5437 35.8045 21.7547 35.4335 21.77C35.0781 21.7853 34.7819 21.4702 34.7632 21.1246C34.7383 20.6596 35.1249 20.4394 35.4491 20.4394Z" fill="#E5FF0D" fill-opacity="0.88"/>
<path d="M36.101 7.4942C36.1727 7.84292 35.7799 8.15186 35.4401 8.13963C35.0847 8.12739 34.7698 7.89797 34.7636 7.51868C34.7573 7.03843 35.0815 6.83349 35.4338 6.82737C35.8422 6.82125 36.101 7.08432 36.101 7.49115V7.4942Z" fill="#E5FF0D" fill-opacity="0.88"/>
<path d="M36.1012 27.9031C36.1012 28.316 35.8425 28.5913 35.4372 28.5699C35.0101 28.5485 34.7669 28.3344 34.7669 27.8816C34.7669 27.4779 35.1005 27.2576 35.4403 27.2546C35.7957 27.2485 36.1729 27.539 36.1043 27.9031H36.1012Z" fill="#E5FF0D" fill-opacity="0.88"/>
<path d="M32.0109 34.7211C32.0109 35.0882 31.7241 35.4094 31.3625 35.4002C31.0258 35.391 30.6579 35.1035 30.6735 34.7456C30.6891 34.3785 30.9822 34.0543 31.3376 34.0543C31.7304 34.0543 32.0078 34.3296 32.0109 34.7211Z" fill="#E5FF0D" fill-opacity="0.88"/>
</g>
<path d="M54.4656 16.7287H52.203L56.6943 4.29263H58.9229L63.4142 16.7287H61.1175L60.1138 13.8536H55.4694L54.4656 16.7287ZM57.5279 8.00132L56.1158 12.0162H59.4843L58.0553 8.00132C57.9532 7.67809 57.8341 7.30381 57.8001 7.04863C57.749 7.2868 57.647 7.66107 57.5279 8.00132ZM65.7051 6.64033C64.9906 6.64033 64.4292 6.07892 64.4292 5.38142C64.4292 4.68391 64.9906 4.13951 65.7051 4.13951C66.3856 4.13951 66.947 4.68391 66.947 5.38142C66.947 6.07892 66.3856 6.64033 65.7051 6.64033ZM64.6673 16.7287V8.32455H66.7429V16.7287H64.6673ZM72.639 8.32455H73.8468V7.30381C73.8468 5.02416 75.0547 4.07146 76.875 4.07146C77.1983 4.07146 77.5896 4.08848 77.9468 4.15653V5.92581H77.2153C76.1605 5.92581 75.9053 6.47021 75.9053 7.30381V8.32455H77.9128V10.0598H75.9053V16.7287H73.8468V10.0598H72.639V8.32455ZM78.4949 12.5096C78.4949 9.88969 80.3833 8.08638 82.9862 8.08638C85.5891 8.08638 87.4775 9.88969 87.4775 12.5096C87.4775 15.1295 85.5891 16.9328 82.9862 16.9328C80.3833 16.9328 78.4949 15.1295 78.4949 12.5096ZM80.5704 12.5096C80.5704 14.0407 81.5572 15.0785 82.9862 15.0785C84.4152 15.0785 85.402 14.0407 85.402 12.5096C85.402 10.9785 84.4152 9.94073 82.9862 9.94073C81.5572 9.94073 80.5704 10.9785 80.5704 12.5096ZM94.3964 8.29053V10.2129H93.6309C92.1338 10.2129 91.1981 11.0125 91.1981 12.6457V16.7287H89.1226V8.34157H91.079L91.1981 9.56646C91.5554 8.73285 92.355 8.17144 93.4778 8.17144C93.767 8.17144 94.0562 8.20547 94.3964 8.29053ZM105.95 16.9328C102.326 16.9328 99.9784 14.415 99.9784 10.5191C99.9784 6.65734 102.411 4.08848 106.052 4.08848C108.995 4.08848 111.19 5.80673 111.615 8.47767H109.318C108.893 7.03161 107.651 6.181 106.001 6.181C103.704 6.181 102.258 7.84821 102.258 10.5021C102.258 13.1391 103.721 14.8403 106.001 14.8403C107.685 14.8403 108.978 13.9556 109.386 12.5776H111.649C111.172 15.1975 108.893 16.9328 105.95 16.9328ZM115.305 16.7287H113.246V4.07146H115.305V16.7287ZM118.52 6.64033C117.805 6.64033 117.244 6.07892 117.244 5.38142C117.244 4.68391 117.805 4.13951 118.52 4.13951C119.2 4.13951 119.762 4.68391 119.762 5.38142C119.762 6.07892 119.2 6.64033 118.52 6.64033ZM117.482 16.7287V8.32455H119.558V16.7287H117.482ZM123.777 16.7287H121.702V8.32455H123.607L123.777 9.31127C124.203 8.61376 125.053 8.06937 126.261 8.06937C127.537 8.06937 128.422 8.69883 128.864 9.66853C129.289 8.69883 130.276 8.06937 131.552 8.06937C133.594 8.06937 134.716 9.29426 134.716 11.2337V16.7287H132.658V11.7781C132.658 10.5702 132.011 9.94073 131.025 9.94073C130.021 9.94073 129.255 10.5872 129.255 11.9652V16.7287H127.18V11.7611C127.18 10.5872 126.55 9.95774 125.564 9.95774C124.577 9.95774 123.777 10.6042 123.777 11.9652V16.7287ZM139.255 16.9498C137.468 16.9498 136.38 15.9121 136.38 14.3299C136.38 12.7818 137.502 11.8121 139.493 11.659L142.011 11.4718V11.2847C142.011 10.1449 141.33 9.68554 140.275 9.68554C139.051 9.68554 138.37 10.1959 138.37 11.0806H136.601C136.601 9.26023 138.098 8.06937 140.378 8.06937C142.64 8.06937 144.035 9.29426 144.035 11.625V16.7287H142.215L142.062 15.4868C141.704 16.3544 140.565 16.9498 139.255 16.9498ZM139.935 15.3847C141.211 15.3847 142.028 14.6191 142.028 13.3262V12.8839L140.275 13.02C138.983 13.1391 138.489 13.5644 138.489 14.2449C138.489 15.0104 139 15.3847 139.935 15.3847ZM148.816 16.7287H146.74V10.0598H145.124V8.32455H146.74V5.70465H148.816V8.32455H150.449V10.0598H148.816V16.7287ZM155.416 16.9498C152.915 16.9498 151.163 15.1295 151.163 12.5266C151.163 9.88969 152.881 8.06937 155.348 8.06937C157.866 8.06937 159.465 9.75359 159.465 12.3735V13.003L153.136 13.02C153.29 14.5 154.072 15.2486 155.45 15.2486C156.59 15.2486 157.338 14.8063 157.577 14.0067H159.499C159.142 15.844 157.611 16.9498 155.416 16.9498ZM155.365 9.77061C154.14 9.77061 153.392 10.4341 153.187 11.693H157.407C157.407 10.5362 156.607 9.77061 155.365 9.77061ZM55.5885 31.9498C53.8022 31.9498 52.7134 30.9121 52.7134 29.3299C52.7134 27.7818 53.8362 26.8121 55.8266 26.659L58.3445 26.4718V26.2847C58.3445 25.1449 57.664 24.6855 56.6092 24.6855C55.3843 24.6855 54.7038 25.1959 54.7038 26.0806H52.9345C52.9345 24.2602 54.4316 23.0694 56.7113 23.0694C58.9739 23.0694 60.3689 24.2943 60.3689 26.625V31.7287H58.5486L58.3955 30.4868C58.0382 31.3544 56.8984 31.9498 55.5885 31.9498ZM56.269 30.3847C57.5449 30.3847 58.3615 29.6191 58.3615 28.3262V27.8839L56.6092 28.02C55.3163 28.1391 54.8229 28.5644 54.8229 29.2449C54.8229 30.0104 55.3333 30.3847 56.269 30.3847ZM64.4834 31.7287H62.4079V23.3246H64.3303L64.5004 24.4133C65.0278 23.5627 66.0485 23.0694 67.1884 23.0694C69.2979 23.0694 70.3867 24.3793 70.3867 26.5569V31.7287H68.3112V27.0503C68.3112 25.6382 67.6137 24.9577 66.5419 24.9577C65.266 24.9577 64.4834 25.8424 64.4834 27.2034V31.7287ZM75.8794 31.9498C73.4467 31.9498 71.9326 30.1635 71.9326 27.5606C71.9326 24.9407 73.4637 23.0694 75.9985 23.0694C77.1724 23.0694 78.2101 23.5627 78.7375 24.3963V19.0715H80.796V31.7287H78.8906L78.7545 30.4187C78.2441 31.3884 77.1554 31.9498 75.8794 31.9498ZM76.3388 30.0444C77.7848 30.0444 78.7205 29.0067 78.7205 27.4926C78.7205 25.9785 77.7848 24.9237 76.3388 24.9237C74.8927 24.9237 74.0081 25.9955 74.0081 27.4926C74.0081 28.9897 74.8927 30.0444 76.3388 30.0444ZM87.8505 31.7287V19.2926H92.8011C95.2509 19.2926 96.748 20.5686 96.748 22.6441C96.748 24.0221 96.1356 25.0088 94.9617 25.5021C96.2717 25.9274 96.9351 26.9142 96.9351 28.3602C96.9351 30.4868 95.4551 31.7287 92.8862 31.7287H87.8505ZM92.614 21.215H90.0281V24.6005H92.665C93.8559 24.6005 94.5194 23.971 94.5194 22.8652C94.5194 21.7934 93.8389 21.215 92.614 21.215ZM92.8011 26.4378H90.0281V29.8063H92.8011C94.026 29.8063 94.7065 29.2108 94.7065 28.088C94.7065 27.0332 94.009 26.4378 92.8011 26.4378ZM99.6634 21.6403C98.9489 21.6403 98.3874 21.0789 98.3874 20.3814C98.3874 19.6839 98.9489 19.1395 99.6634 19.1395C100.344 19.1395 100.905 19.6839 100.905 20.3814C100.905 21.0789 100.344 21.6403 99.6634 21.6403ZM98.6256 31.7287V23.3246H100.701V31.7287H98.6256ZM102.352 27.5096C102.352 24.8897 104.24 23.0864 106.843 23.0864C109.446 23.0864 111.335 24.8897 111.335 27.5096C111.335 30.1295 109.446 31.9328 106.843 31.9328C104.24 31.9328 102.352 30.1295 102.352 27.5096ZM104.428 27.5096C104.428 29.0407 105.414 30.0785 106.843 30.0785C108.272 30.0785 109.259 29.0407 109.259 27.5096C109.259 25.9785 108.272 24.9407 106.843 24.9407C105.414 24.9407 104.428 25.9785 104.428 27.5096ZM116.433 31.9498C114.001 31.9498 112.486 30.1635 112.486 27.5606C112.486 24.9407 114.018 23.0694 116.552 23.0694C117.726 23.0694 118.764 23.5627 119.291 24.3963V19.0715H121.35V31.7287H119.444L119.308 30.4187C118.798 31.3884 117.709 31.9498 116.433 31.9498ZM116.893 30.0444C118.339 30.0444 119.274 29.0067 119.274 27.4926C119.274 25.9785 118.339 24.9237 116.893 24.9237C115.447 24.9237 114.562 25.9955 114.562 27.4926C114.562 28.9897 115.447 30.0444 116.893 30.0444ZM124.551 21.6403C123.836 21.6403 123.275 21.0789 123.275 20.3814C123.275 19.6839 123.836 19.1395 124.551 19.1395C125.231 19.1395 125.792 19.6839 125.792 20.3814C125.792 21.0789 125.231 21.6403 124.551 21.6403ZM123.513 31.7287V23.3246H125.588V31.7287H123.513ZM130.114 31.7287L126.78 23.3246H128.992L130.455 27.1864C130.812 28.1901 131.101 29.0577 131.203 29.5171C131.322 28.9897 131.629 28.105 131.986 27.1864L133.517 23.3246H135.66L132.156 31.7287H130.114ZM140.198 31.9498C137.697 31.9498 135.945 30.1295 135.945 27.5266C135.945 24.8897 137.663 23.0694 140.13 23.0694C142.648 23.0694 144.247 24.7536 144.247 27.3735V28.003L137.918 28.02C138.071 29.5 138.854 30.2486 140.232 30.2486C141.372 30.2486 142.12 29.8063 142.359 29.0067H144.281C143.924 30.844 142.393 31.9498 140.198 31.9498ZM140.147 24.7706C138.922 24.7706 138.174 25.4341 137.969 26.693H142.188C142.188 25.5362 141.389 24.7706 140.147 24.7706ZM151.182 23.2905V25.2129H150.416C148.919 25.2129 147.984 26.0125 147.984 27.6457V31.7287H145.908V23.3416H147.864L147.984 24.5665C148.341 23.7329 149.14 23.1714 150.263 23.1714C150.552 23.1714 150.842 23.2055 151.182 23.2905ZM151.94 29.1768H153.914C153.931 29.9083 154.475 30.3677 155.428 30.3677C156.397 30.3677 156.925 29.9764 156.925 29.3639C156.925 28.9386 156.704 28.6324 155.955 28.4623L154.441 28.105C152.927 27.7648 152.195 27.0503 152.195 25.7063C152.195 24.0561 153.59 23.0694 155.53 23.0694C157.418 23.0694 158.694 24.1582 158.711 25.7913H156.738C156.721 25.0768 156.244 24.6175 155.445 24.6175C154.628 24.6175 154.152 24.9918 154.152 25.6212C154.152 26.0976 154.526 26.4038 155.241 26.5739L156.755 26.9312C158.167 27.2544 158.881 27.9009 158.881 29.1938C158.881 30.8951 157.435 31.9498 155.36 31.9498C153.267 31.9498 151.94 30.827 151.94 29.1768ZM161.499 21.6403C160.785 21.6403 160.223 21.0789 160.223 20.3814C160.223 19.6839 160.785 19.1395 161.499 19.1395C162.18 19.1395 162.741 19.6839 162.741 20.3814C162.741 21.0789 162.18 21.6403 161.499 21.6403ZM160.462 31.7287V23.3246H162.537V31.7287H160.462ZM167.539 31.7287H165.464V25.0598H163.848V23.3246H165.464V20.7047H167.539V23.3246H169.173V25.0598H167.539V31.7287ZM169.731 35.6245V33.8892H170.973C171.79 33.8892 172.3 33.7021 172.658 32.7154L172.896 32.0859L169.51 23.3246H171.705L173.865 29.449L176.145 23.3246H178.289L174.172 33.6C173.542 35.1652 172.658 35.8116 171.28 35.8116C170.701 35.8116 170.191 35.7436 169.731 35.6245Z" fill="url(#paint0_linear_104_197)"/>
<defs>
<linearGradient id="paint0_linear_104_197" x1="52.0159" y1="20.2283" x2="179.66" y2="20.2283" gradientUnits="userSpaceOnUse">
<stop stop-color="#F6F6F6"/>
<stop offset="1" stop-color="#F9FFD0"/>
</linearGradient>
<clipPath id="clip0_104_197">
<rect width="42.2702" height="35.4033" fill="white"/>
</clipPath>
</defs>
</svg>
