<svg width="52" height="44" viewBox="0 0 52 44" fill="none" xmlns="http://www.w3.org/2000/svg">
<g clip-path="url(#clip0_43_392)">
<path d="M25.397 24.0874C24.0765 24.0725 22.9919 22.956 23.0185 21.638C23.0414 20.3796 24.0917 19.3566 25.3475 19.3678C26.706 19.379 27.7906 20.4842 27.7677 21.8321C27.7449 23.0942 26.6832 24.1023 25.397 24.0874Z" fill="white"/>
<path d="M28.2629 15.3389C29.3208 15.3351 30.1847 16.1753 30.1809 17.2133C30.1809 18.2438 29.3361 19.0765 28.2858 19.0802C27.2279 19.0877 26.364 18.2438 26.364 17.2096C26.364 16.1865 27.2202 15.3463 28.2629 15.3389Z" fill="white"/>
<path d="M31.1931 19.8272C32.2701 19.8459 33.1073 20.6785 33.0882 21.7166C33.073 22.7284 32.2092 23.5462 31.1741 23.535C30.1314 23.5237 29.2828 22.665 29.3056 21.6456C29.3285 20.6412 30.1885 19.8085 31.1931 19.8272Z" fill="white"/>
<path d="M20.1725 23.43C19.1298 23.43 18.2736 22.5787 18.285 21.5556C18.2964 20.5549 19.1527 19.7111 20.1535 19.7186C21.2304 19.726 22.0753 20.5549 22.0676 21.593C22.06 22.6048 21.2038 23.43 20.1687 23.43H20.1725Z" fill="white"/>
<path d="M22.7219 19.0653C21.6793 19.0615 20.8268 18.2102 20.8382 17.1871C20.8535 16.1827 21.7097 15.3463 22.7105 15.3538C23.7875 15.365 24.6323 16.1939 24.6209 17.2319C24.6094 18.2438 23.7532 19.069 22.7181 19.0653H22.7219Z" fill="white"/>
<path d="M28.4644 24.4344C29.5414 24.4418 30.3862 25.267 30.3748 26.3088C30.3634 27.3207 29.5033 28.1496 28.4759 28.1421C27.4294 28.1346 26.5807 27.2871 26.5922 26.264C26.6036 25.2596 27.456 24.4269 28.4644 24.4344Z" fill="white"/>
<path d="M22.9429 24.4344C24.0161 24.4456 24.8571 25.282 24.838 26.3238C24.819 27.3357 23.9514 28.1608 22.9239 28.1422C21.885 28.1235 21.0516 27.2909 21.0554 26.2752C21.0554 25.2634 21.9193 24.4232 22.9429 24.4344Z" fill="white"/>
<path d="M30.4622 28.6428C31.3146 28.6428 31.9996 29.3224 31.9881 30.1588C31.9767 31.0101 31.2461 31.7158 30.3822 31.7083C29.545 31.7009 28.8677 31.0288 28.8677 30.2073C28.8677 29.356 29.5983 28.6428 30.4622 28.6428Z" fill="white"/>
<path d="M30.9153 11.7581C31.7867 11.7656 32.4907 12.4601 32.4869 13.3002C32.4831 14.1329 31.7905 14.805 30.9419 14.8012C30.0819 14.7938 29.3779 14.0881 29.3893 13.2405C29.3969 12.4153 30.0857 11.7507 30.9191 11.7581H30.9153Z" fill="white"/>
<path d="M19.4726 8.66309C19.4726 9.48455 18.7914 10.1454 17.9466 10.1454C17.1132 10.1454 16.432 9.47708 16.4282 8.65562C16.4282 7.82297 17.1208 7.14714 17.9694 7.15834C18.8104 7.16954 19.4764 7.83417 19.4726 8.66309Z" fill="white"/>
<path d="M10.3736 23.012C9.51354 22.9971 8.84758 22.325 8.8628 21.4886C8.87803 20.6709 9.57823 20.01 10.4078 20.0249C11.2412 20.0398 11.9148 20.7194 11.9072 21.5371C11.8957 22.3586 11.1994 23.0269 10.3736 23.0083V23.012Z" fill="white"/>
<path d="M34.8009 34.5012C34.8009 35.3226 34.1235 35.9873 33.2825 35.991C32.4453 35.991 31.7603 35.3264 31.7527 34.5086C31.7489 33.6909 32.4263 33.0114 33.2597 33.0076C34.1159 33.0002 34.7971 33.6648 34.7971 34.5012H34.8009Z" fill="white"/>
<path d="M35.969 20.036C36.829 20.0285 37.5216 20.6782 37.5368 21.5108C37.552 22.3398 36.8594 23.0231 36.0146 23.0268C35.1774 23.0268 34.4963 22.3659 34.4924 21.5407C34.4886 20.7305 35.1622 20.0434 35.969 20.0397V20.036Z" fill="white"/>
<path d="M20.538 11.8105C21.398 11.8217 22.0754 12.4864 22.0678 13.319C22.0602 14.1368 21.3676 14.8014 20.5342 14.7976C19.6856 14.7902 19.0082 14.1069 19.0234 13.2742C19.0387 12.464 19.7236 11.8031 20.538 11.8143V11.8105Z" fill="white"/>
<path d="M20.9983 28.7999C21.8621 28.8073 22.5318 29.472 22.5242 30.3084C22.5166 31.1298 21.8278 31.7944 20.9944 31.787C20.1496 31.7795 19.4608 31.0887 19.4799 30.2635C19.4951 29.4533 20.1839 28.7924 20.9983 28.7999Z" fill="white"/>
<path d="M17.2044 21.5333C17.2044 22.3548 16.5232 23.0231 15.686 23.0231C14.8374 23.0231 14.1486 22.3398 14.1601 21.5109C14.1715 20.7044 14.8603 20.0248 15.667 20.0323C16.5308 20.0398 17.2082 20.6969 17.2044 21.5296V21.5333Z" fill="white"/>
<path d="M18.1287 33.1086C18.9659 33.1086 19.6433 33.7733 19.6433 34.5985C19.6433 35.4162 18.9659 36.0883 18.1287 36.092C17.2915 36.0957 16.6066 35.4311 16.5989 34.6134C16.5913 33.777 17.2725 33.1086 18.1287 33.1086Z" fill="white"/>
<path d="M35.0708 8.64762C35.0708 9.4728 34.3972 10.1412 33.56 10.1412C32.719 10.1412 32.034 9.48401 32.0264 8.66255C32.0188 7.8299 32.7076 7.15033 33.5524 7.15407C34.3896 7.15407 35.067 7.82243 35.067 8.64762H35.0708Z" fill="white"/>
<path d="M26.9576 30.181C26.9538 30.8606 26.3868 31.4094 25.6904 31.4094C24.9902 31.4094 24.4156 30.8419 24.4232 30.1511C24.4346 29.4716 25.0016 28.9189 25.6904 28.9189C26.3944 28.9189 26.9614 29.4828 26.9538 30.1773L26.9576 30.181Z" fill="white"/>
<path d="M26.9575 13.0762C26.9575 13.767 26.3791 14.3233 25.6713 14.3159C24.9787 14.3084 24.4193 13.7483 24.4231 13.0688C24.4231 12.3892 24.9901 11.8329 25.6827 11.8291C26.3867 11.8254 26.9575 12.3855 26.9575 13.0762Z" fill="white"/>
<path d="M35.7097 6.06368C35.0209 6.06368 34.4653 5.5148 34.4653 4.84644C34.4653 4.16314 35.0323 3.61053 35.7287 3.61799C36.4137 3.62546 36.9617 4.17434 36.9579 4.85017C36.9541 5.52601 36.3985 6.06368 35.7097 6.06368Z" fill="white"/>
<path d="M38.2405 26.9965C37.5517 26.9965 36.9999 26.4551 36.9961 25.783C36.9923 25.0997 37.5555 24.5471 38.2557 24.5545C38.9407 24.5583 39.4925 25.1109 39.4887 25.783C39.4849 26.4551 38.9255 27.0002 38.2405 27.0002V26.9965Z" fill="white"/>
<path d="M24.526 8.88668C24.526 9.56251 23.9819 10.1077 23.2969 10.1151C22.6081 10.1189 22.0487 9.58491 22.0373 8.91281C22.0259 8.22952 22.5891 7.66943 23.2855 7.66943C23.9704 7.66943 24.526 8.21085 24.5299 8.88668H24.526Z" fill="white"/>
<path d="M29.5761 8.90185C29.5723 9.57768 29.0129 10.1154 28.3279 10.1116C27.6391 10.1079 27.0835 9.56275 27.0835 8.89065C27.0835 8.20735 27.6543 7.65474 28.3507 7.66594C29.0357 7.67714 29.5837 8.22602 29.5761 8.90185Z" fill="white"/>
<path d="M13.4783 26.9965C12.7895 26.9965 12.2377 26.4551 12.2339 25.783C12.2301 25.1071 12.7781 24.5583 13.4631 24.5545C14.1595 24.547 14.7303 25.1034 14.7265 25.783C14.7227 26.4588 14.1671 27.0002 13.4821 27.0002L13.4783 26.9965Z" fill="white"/>
<path d="M35.8739 30.9914C35.1889 30.9914 34.6333 30.4463 34.6333 29.7704C34.6333 29.0909 35.2003 28.5383 35.9005 28.5457C36.5855 28.5532 37.1335 29.1021 37.1259 29.7779C37.1183 30.4537 36.5627 30.9914 35.8777 30.9877L35.8739 30.9914Z" fill="white"/>
<path d="M37.1216 13.4121C37.1255 14.0879 36.5775 14.6368 35.8925 14.6405C35.2037 14.6442 34.6405 14.1103 34.6291 13.4382C34.6177 12.7549 35.1809 12.1948 35.8773 12.1948C36.5622 12.1948 37.1178 12.7362 37.1216 13.4121Z" fill="white"/>
<path d="M17.0863 29.7593C17.0863 30.4352 16.546 30.984 15.8572 30.9915C15.1608 30.999 14.59 30.4464 14.5938 29.7668C14.5938 29.0947 15.1532 28.5496 15.8382 28.5496C16.5269 28.5496 17.0825 29.091 17.0863 29.7631V29.7593Z" fill="white"/>
<path d="M33.2747 26.9402C32.5897 26.9477 32.0303 26.4063 32.0189 25.7342C32.0113 25.0658 32.5593 24.5095 33.2442 24.4946C33.9406 24.4834 34.5076 25.0285 34.5114 25.7155C34.5114 26.3876 33.9635 26.9328 33.2747 26.9402Z" fill="white"/>
<path d="M36.9925 17.4074C36.9925 16.7316 37.548 16.1902 38.233 16.1902C38.9294 16.1902 39.4926 16.7503 39.4812 17.4298C39.4698 18.1057 38.9104 18.6396 38.2254 18.6321C37.5366 18.6247 36.9886 18.0795 36.9925 17.4074Z" fill="white"/>
<path d="M18.2772 18.8485C17.5922 18.8485 17.0366 18.2997 17.0366 17.6276C17.0366 16.9555 17.5922 16.4066 18.2772 16.4029C18.9736 16.3991 19.533 16.9517 19.5292 17.6388C19.5254 18.3109 18.966 18.8485 18.2772 18.8485Z" fill="white"/>
<path d="M34.5114 17.4075C34.5114 18.0833 33.9672 18.6247 33.2784 18.6322C32.5934 18.6397 32.034 18.102 32.0226 17.4262C32.0112 16.7466 32.5782 16.1865 33.2746 16.1865C33.9596 16.1865 34.5152 16.7317 34.5152 17.4075H34.5114Z" fill="white"/>
<path d="M15.7812 6.06434C15.0963 6.06434 14.5407 5.5192 14.5369 4.8471C14.5369 4.175 15.0887 3.62612 15.7736 3.62239C16.47 3.61492 17.0332 4.16754 17.0294 4.85457C17.0256 5.52667 16.47 6.06434 15.7812 6.06434Z" fill="white"/>
<path d="M17.0936 38.3547C17.0898 39.0231 16.5266 39.5682 15.8417 39.5608C15.1567 39.557 14.6011 39.0119 14.6011 38.3398C14.6011 37.6565 15.1719 37.1076 15.8683 37.1188C16.5533 37.1263 17.0974 37.6789 17.0936 38.3547Z" fill="white"/>
<path d="M5.97416 22.6834C5.26635 22.6909 4.69934 22.1569 4.69173 21.4736C4.68412 20.8015 5.23591 20.2452 5.91708 20.2377C6.60968 20.2265 7.1843 20.7791 7.1843 21.4624C7.1843 22.1196 6.6287 22.6797 5.97036 22.6834H5.97416Z" fill="white"/>
<path d="M39.2112 21.586C39.215 20.9214 39.7668 20.3762 40.4327 20.3762C41.1405 20.3762 41.7038 20.9139 41.7076 21.5935C41.7076 22.273 41.1329 22.8331 40.4441 22.8219C39.7554 22.8107 39.2112 22.2618 39.215 21.5897L39.2112 21.586Z" fill="white"/>
<path d="M36.8022 38.2423C36.8022 38.9181 36.2542 39.4596 35.5654 39.4633C34.8805 39.4633 34.3173 38.9256 34.3096 38.2572C34.302 37.5777 34.869 37.0139 35.5616 37.0176C36.2466 37.0176 36.7984 37.5665 36.8022 38.2386V38.2423Z" fill="white"/>
<path d="M13.4823 16.1641C14.1711 16.1641 14.7229 16.7092 14.7229 17.3851C14.7229 18.0646 14.1559 18.6172 13.4557 18.606C12.7669 18.5986 12.2227 18.0497 12.2303 17.3739C12.2379 16.698 12.7935 16.1603 13.4785 16.1641H13.4823Z" fill="white"/>
<path d="M24.526 33.7991C24.5222 34.475 23.9666 35.0127 23.2778 35.0089C22.589 35.0052 22.0334 34.46 22.0334 33.7917C22.0334 33.1084 22.6005 32.5595 23.2969 32.567C23.9856 32.5744 24.5298 33.1233 24.5222 33.7991H24.526Z" fill="white"/>
<path d="M29.5756 33.7767C29.5832 34.4525 29.0391 35.0014 28.3503 35.0089C27.6615 35.0163 27.0983 34.4861 27.0831 33.814C27.0678 33.1307 27.6272 32.5706 28.3236 32.5669C29.0124 32.5632 29.568 33.1009 29.5718 33.7767H29.5756Z" fill="white"/>
<path d="M15.8458 12.1687C16.5346 12.1687 17.0826 12.7101 17.0864 13.386C17.0864 14.0693 16.5232 14.6181 15.823 14.6107C15.138 14.6032 14.5862 14.0543 14.5938 13.3785C14.6014 12.7064 15.157 12.165 15.8458 12.1687Z" fill="white"/>
<path d="M18.2887 24.6326C18.9775 24.6326 19.5255 25.174 19.5293 25.8498C19.5293 26.5331 18.9661 27.082 18.2659 27.0745C17.5809 27.0671 17.0291 26.5182 17.0367 25.8424C17.0443 25.1703 17.5999 24.6289 18.2887 24.6326Z" fill="white"/>
<path d="M45.5241 20.4353C46.1748 20.4391 46.6809 20.9319 46.6771 21.563C46.6771 22.1865 46.1482 22.6943 45.5127 22.6831C44.8848 22.6719 44.3824 22.1678 44.3863 21.5518C44.3863 20.9394 44.9038 20.4316 45.5241 20.4353Z" fill="white"/>
<path d="M6.6971 29.916C6.6971 30.323 6.25567 30.7524 5.84087 30.7524C5.4413 30.7524 4.94659 30.3044 4.96562 29.9235C4.98845 29.4642 5.38422 29.1058 5.84468 29.0796C6.25567 29.0572 6.6971 29.5165 6.6971 29.916Z" fill="white"/>
<path d="M5.84143 12.4602C6.26383 12.4602 6.69385 12.8821 6.69765 13.2966C6.69765 13.6999 6.25622 14.1591 5.84523 14.1367C5.38477 14.1106 4.95856 13.7335 4.97378 13.2854C4.98901 12.8448 5.35814 12.5125 5.84143 12.4639V12.4602Z" fill="white"/>
<path d="M44.9192 13.3001C44.9192 12.8707 45.3226 12.4413 45.7488 12.4674C46.1826 12.4898 46.6126 12.7923 46.6164 13.3038C46.6202 13.7818 46.1369 14.1178 45.7602 14.1328C45.334 14.1514 44.9192 13.7183 44.9192 13.3001Z" fill="white"/>
<path d="M25.8045 4.20459C26.2954 4.20459 26.6379 4.53317 26.6341 4.9887C26.6341 5.53758 26.147 5.81389 25.7816 5.80269C25.2527 5.78775 24.9178 5.4181 24.9254 4.98497C24.9368 4.53317 25.2869 4.16352 25.8007 4.20832L25.8045 4.20459Z" fill="white"/>
<path d="M44.9192 29.901C44.9192 29.479 45.3568 29.0384 45.7716 29.0832C46.194 29.128 46.6203 29.4342 46.6164 29.9196C46.6126 30.42 46.194 30.7075 45.764 30.7485C45.3378 30.7896 44.9154 30.3415 44.9192 29.901Z" fill="white"/>
<path d="M9.97353 29.9048C10.0002 29.4268 10.4112 29.102 10.8412 29.0833C11.2522 29.0646 11.7012 29.5314 11.6936 29.9272C11.686 30.3304 11.2255 30.7822 10.8183 30.7523C10.3959 30.7187 9.95831 30.3678 9.97353 29.9048Z" fill="white"/>
<path d="M9.97348 13.3076C9.94684 12.8708 10.4225 12.4563 10.8183 12.4675C11.3016 12.4824 11.6593 12.8334 11.6859 13.289C11.7088 13.6885 11.2445 14.1627 10.8373 14.1328C10.4111 14.1029 10.0077 13.8117 9.97348 13.3076Z" fill="white"/>
<path d="M25.8005 39.0119C25.2868 39.0493 24.9215 38.6647 24.9329 38.2017C24.9443 37.7685 25.2868 37.4176 25.7853 37.4138C26.2115 37.4138 26.6377 37.7275 26.6301 38.2278C26.6225 38.6908 26.2914 39.0119 25.8005 39.0119Z" fill="white"/>
<path d="M39.9224 13.2968C39.9224 12.8002 40.3676 12.4641 40.7672 12.4641C41.22 12.4641 41.6272 12.8674 41.6272 13.2893C41.6272 13.7859 41.1782 14.0883 40.771 14.1294C40.3562 14.1705 39.9262 13.7224 39.9224 13.2968Z" fill="white"/>
<path d="M28.2702 1.64668C27.8288 1.64668 27.4254 1.23968 27.4406 0.802821C27.4596 0.302481 27.8516 0.0373759 28.2854 3.7123e-05C28.7383 -0.0373016 29.1683 0.399562 29.134 0.843893C29.0998 1.29196 28.7953 1.63174 28.2702 1.64294V1.64668Z" fill="white"/>
<path d="M30.7932 4.20445C31.2194 4.14098 31.6418 4.55544 31.6227 5.0147C31.5999 5.45157 31.2498 5.79882 30.7779 5.80255C30.3403 5.80255 29.857 5.37689 29.9103 4.98857C29.9598 4.62638 30.2414 4.14098 30.7932 4.20445Z" fill="white"/>
<path d="M41.6234 29.9312C41.6234 30.3942 41.1781 30.7676 40.7557 30.7452C40.2915 30.7228 39.9185 30.4129 39.9299 29.9051C39.9414 29.3823 40.3447 29.0948 40.7824 29.0911C41.1781 29.0874 41.6424 29.4607 41.6234 29.9312Z" fill="white"/>
<path d="M27.437 42.3794C27.437 41.95 27.8442 41.5617 28.2932 41.5655C28.7879 41.5692 29.1152 41.9426 29.1304 42.3869C29.1457 42.82 28.7233 43.2382 28.2856 43.2084C27.8366 43.1785 27.4408 42.8536 27.437 42.3757V42.3794Z" fill="white"/>
<path d="M30.7742 39.0082C30.5497 39.0381 30.3518 38.9597 30.1844 38.7879C30.0207 38.6236 29.918 38.4108 29.9104 38.198C29.899 37.7947 30.3404 37.4176 30.778 37.4138C31.2423 37.4101 31.6 37.7611 31.6228 38.198C31.6457 38.605 31.2575 39.068 30.7742 39.0082Z" fill="white"/>
<path d="M20.7927 39.0115C20.4007 39.0713 19.9631 38.7128 19.9593 38.2274C19.9555 37.7831 20.3284 37.406 20.8003 37.4097C21.3254 37.4097 21.6413 37.8279 21.6413 38.2087C21.6413 38.6195 21.3102 39.0638 20.7927 39.0115Z" fill="white"/>
<path d="M24.145 42.365C24.1412 42.8803 23.7454 43.1678 23.3154 43.2089C22.8892 43.2499 22.444 42.8243 22.4478 42.4024C22.4478 41.9692 22.8359 41.551 23.3078 41.5622C23.7416 41.5734 24.145 41.9506 24.145 42.365Z" fill="white"/>
<path d="M23.3044 1.64671C22.863 1.66538 22.4634 1.26212 22.4482 0.832727C22.4329 0.407065 22.8439 -0.0111291 23.293 0.00380644C23.723 0.0150081 24.153 0.351057 24.1492 0.851396C24.1454 1.26959 23.742 1.65045 23.3082 1.65045L23.3044 1.64671Z" fill="white"/>
<path d="M18.3196 1.64652C17.9238 1.6876 17.4481 1.25447 17.4519 0.810136C17.4519 0.39941 17.9048 -0.0337199 18.3272 -0.000114969C18.7762 0.0372238 19.1568 0.339668 19.153 0.81387C19.153 1.2582 18.7686 1.64279 18.3196 1.64652Z" fill="white"/>
<path d="M20.7851 5.80286C20.2942 5.80659 19.9441 5.38467 19.9631 4.96647C19.986 4.4736 20.3247 4.2085 20.8955 4.19729C21.2418 4.19356 21.668 4.55575 21.6413 5.02248C21.6147 5.47055 21.2684 5.82153 20.7851 5.80286Z" fill="white"/>
<path d="M10.8417 4.20459C11.2831 4.20459 11.7131 4.59665 11.6903 4.99991C11.6713 5.31728 11.3592 5.81016 10.8302 5.80269C10.3888 5.79895 9.97021 5.4069 9.97021 4.98497C9.97021 4.53317 10.3393 4.20459 10.8417 4.20459Z" fill="white"/>
<path d="M48.2457 18.2625C47.7396 18.2625 47.4047 17.8107 47.3895 17.4336C47.3743 17.0565 47.85 16.6234 48.2457 16.6122C48.6758 16.6047 49.0982 17.0154 49.102 17.4373C49.102 17.8593 48.6834 18.2625 48.2495 18.2625H48.2457Z" fill="white"/>
<path d="M3.32214 18.2625C2.86548 18.2513 2.51919 17.863 2.51538 17.3851C2.51538 16.8885 2.97204 16.642 3.35258 16.6196C3.75596 16.5972 4.24686 17.0864 4.20881 17.4598C4.15934 17.9265 3.69888 18.3148 3.32214 18.2625Z" fill="white"/>
<path d="M32.4483 0.844133C32.4065 0.310188 32.8898 0.0189461 33.2932 0.00401062C33.7194 -0.0146588 34.1342 0.411003 34.1304 0.821729C34.1227 1.281 33.6547 1.66559 33.2779 1.65065C32.8403 1.63571 32.4521 1.26979 32.4521 0.844133H32.4483Z" fill="white"/>
<path d="M10.8149 39.0119C10.3278 39.0119 9.96631 38.6684 9.96631 38.2054C9.96631 37.7984 10.3849 37.4138 10.8187 37.4175C11.2487 37.4175 11.675 37.8058 11.6864 38.2128C11.6978 38.6049 11.2526 39.0156 10.8111 39.0156L10.8149 39.0119Z" fill="white"/>
<path d="M14.1485 9.163C14.179 9.61853 13.7375 9.95458 13.2809 9.93591C12.7862 9.91724 12.4703 9.54012 12.4817 9.10699C12.4932 8.64026 12.8737 8.31168 13.3608 8.33035C13.8251 8.34902 14.1638 8.69627 14.1523 9.163H14.1485Z" fill="white"/>
<path d="M18.3226 41.5655C18.7602 41.5655 19.1522 41.9538 19.1484 42.3795C19.1484 42.8276 18.7526 43.2196 18.3036 43.2159C17.8698 43.2122 17.4398 42.794 17.4474 42.372C17.4588 41.9464 17.9192 41.5244 18.3188 41.5655H18.3226Z" fill="white"/>
<path d="M32.449 42.3722C32.449 41.9465 32.8409 41.5843 33.271 41.5619C33.6667 41.5432 34.131 41.9502 34.131 42.3834C34.131 42.809 33.7048 43.2421 33.2748 43.2085C32.8866 43.1787 32.4147 42.9136 32.4528 42.3722H32.449Z" fill="white"/>
<path d="M43.2487 18.2625C42.7882 18.2625 42.4381 17.8928 42.4419 17.4223C42.4419 17.0004 42.8415 16.6084 43.2677 16.6121C43.6901 16.6158 44.1049 17.0153 44.1087 17.4223C44.1087 17.8741 43.7129 18.2662 43.2525 18.2625H43.2487Z" fill="white"/>
<path d="M14.152 34.0644C14.152 34.5348 13.7981 34.8709 13.3148 34.8821C12.8619 34.8895 12.4738 34.546 12.4776 34.0868C12.4776 33.6424 12.8048 33.2728 13.3224 33.269C13.7562 33.269 14.171 33.5939 14.152 34.0644Z" fill="white"/>
<path d="M0.867771 20.8206C1.35867 20.8206 1.66692 21.1305 1.66692 21.6159C1.66692 22.1013 1.34345 22.3776 0.822106 22.4C0.323592 22.4224 -0.00748238 21.9818 0.000128518 21.5972C0.00773942 21.2238 0.319786 20.7496 0.867771 20.8206Z" fill="white"/>
<path d="M37.4456 9.14043C37.4456 8.65502 37.7804 8.32271 38.2789 8.33764C38.7622 8.34884 39.0971 8.62142 39.1009 9.15909C39.1009 9.6445 38.7052 9.94694 38.2599 9.93574C37.7652 9.92454 37.4456 9.6221 37.4456 9.14043Z" fill="white"/>
<path d="M40.7752 4.20459C41.2432 4.20459 41.6238 4.55931 41.6238 4.99244C41.6238 5.39943 41.1785 5.79522 40.7485 5.80642C40.2843 5.81762 39.8999 5.31729 39.8961 4.99617C39.8885 4.59291 40.3299 4.20459 40.779 4.20832L40.7752 4.20459Z" fill="white"/>
<path d="M37.4453 34.0607C37.373 33.6873 37.7688 33.2617 38.2673 33.2691C38.7087 33.2766 39.0969 33.5604 39.1007 34.0607C39.1007 34.6357 38.6478 34.8822 38.2673 34.8784C37.7802 34.8747 37.4453 34.5424 37.4453 34.0607Z" fill="white"/>
<path d="M7.51147 17.4407C7.51147 17.0076 7.89583 16.5969 8.31823 16.6193C8.70639 16.638 9.15923 16.9143 9.15543 17.4183C9.15543 17.9075 8.80533 18.2622 8.31823 18.2622C7.88441 18.2622 7.51147 17.8813 7.51147 17.4407Z" fill="white"/>
<path d="M14.1366 0.847687C14.1366 1.26588 13.7447 1.643 13.3146 1.64674C12.9569 1.65047 12.5041 1.36296 12.4774 0.843953C12.4584 0.418291 12.8694 -0.00737091 13.307 9.68451e-05C13.6914 0.00383072 14.2203 0.358549 14.1366 0.847687Z" fill="white"/>
<path d="M49.098 25.775C49.0866 26.2193 48.6832 26.5965 48.2304 26.5741C47.7052 26.5442 47.3704 26.1036 47.3932 25.7339C47.416 25.3195 47.808 24.9199 48.2837 24.9498C48.7137 24.976 49.1056 25.3568 49.098 25.7787V25.775Z" fill="white"/>
<path d="M40.7444 39.0117C40.322 39.0117 39.8768 38.6047 39.892 38.2201C39.9034 37.8953 40.2916 37.3949 40.7482 37.4136C41.1896 37.4323 41.6235 37.8206 41.6197 38.2238C41.6197 38.6532 41.2163 39.0154 40.7406 39.0117H40.7444Z" fill="white"/>
<path d="M39.0736 0.814054C39.0736 1.29946 38.7387 1.64671 38.2668 1.64671C37.8368 1.64671 37.4715 1.26212 37.4372 0.840191C37.3992 0.388392 37.8673 0.00753638 38.2668 -0.00366525C38.7045 -0.0148669 39.0736 0.365988 39.0736 0.81032V0.814054Z" fill="white"/>
<path d="M2.51894 25.7714C2.51894 25.3122 2.88807 24.9537 3.35233 24.95C3.86607 24.9462 4.18953 25.357 4.20095 25.749C4.21236 26.171 3.83182 26.5705 3.34091 26.5667C2.86904 26.5667 2.48088 26.2158 2.51894 25.7677V25.7714Z" fill="white"/>
<path d="M50.7528 20.8203C51.2589 20.7606 51.59 21.2124 51.5976 21.5969C51.6052 21.9778 51.2779 22.4035 50.7452 22.4072C50.2885 22.4109 49.8965 21.9741 49.908 21.6156C49.9194 21.1377 50.2466 20.8203 50.7528 20.8203Z" fill="white"/>
<path d="M7.51164 9.13328C7.51164 8.65161 7.8313 8.33423 8.3184 8.33423C8.83213 8.33423 9.11374 8.65161 9.14798 9.16315C9.17462 9.57388 8.7408 9.93606 8.33362 9.93606C7.84652 9.93606 7.43173 9.5328 7.50783 9.12954L7.51164 9.13328Z" fill="white"/>
<path d="M9.14028 34.0682C9.14028 34.5611 8.81682 34.8784 8.31831 34.8784C7.8274 34.8784 7.53438 34.5499 7.50013 34.0533C7.4735 33.6649 7.84263 33.2617 8.32972 33.2691C8.75974 33.2766 9.20498 33.6127 9.13648 34.0682H9.14028Z" fill="white"/>
<path d="M14.1368 42.3798C14.2091 42.8502 13.7106 43.2012 13.3111 43.2087C12.881 43.2199 12.4777 42.8129 12.4815 42.3835C12.4853 41.8682 12.9229 41.5583 13.3263 41.562C13.7563 41.5658 14.1368 41.9466 14.1368 42.376V42.3798Z" fill="white"/>
<path d="M7.51172 25.7601C7.51172 25.3009 7.85802 24.9536 8.31848 24.9536C8.8208 24.9536 9.14807 25.2859 9.15948 25.7825C9.1709 26.3053 8.69522 26.5741 8.32229 26.5704C7.93413 26.5704 7.44703 26.2455 7.51553 25.7601H7.51172Z" fill="white"/>
<path d="M43.2712 24.95C43.7203 24.95 44.1122 25.3308 44.097 25.7863C44.0818 26.2979 43.705 26.5555 43.2522 26.5742C42.8184 26.5929 42.4569 26.2083 42.434 25.7863C42.4036 25.2188 42.8754 24.95 43.2712 24.95Z" fill="white"/>
<path d="M44.0667 9.14834C44.1543 9.574 43.6748 9.95112 43.26 9.93619C42.8262 9.92125 42.4418 9.64121 42.4342 9.17821C42.4266 8.59199 42.8223 8.34182 43.2524 8.33436C43.7509 8.32689 44.0667 8.648 44.0667 9.14461V9.14834Z" fill="white"/>
<path d="M44.0667 34.0607C44.0667 34.5648 43.7509 34.9009 43.2562 34.8747C42.7348 34.8486 42.438 34.5872 42.438 34.0346C42.438 33.5417 42.8452 33.2729 43.26 33.2692C43.6938 33.2617 44.1542 33.6164 44.0705 34.0607H44.0667Z" fill="white"/>
<path d="M39.0743 42.3833C39.0743 42.8314 38.7242 43.2234 38.2828 43.2122C37.8718 43.201 37.4227 42.8501 37.4417 42.4132C37.4608 41.9651 37.8185 41.5693 38.2523 41.5693C38.7318 41.5693 39.0705 41.9054 39.0743 42.3833Z" fill="white"/>
</g>
<defs>
<clipPath id="clip0_43_392">
<rect width="51.5981" height="43.2159" fill="white"/>
</clipPath>
</defs>
</svg>
