<svg width="155" height="39" viewBox="0 0 155 39" fill="none" xmlns="http://www.w3.org/2000/svg">
<path d="M154.099 30.0696C153.951 36.0061 149.12 38.728 143.736 38.9224C140.254 39.0456 136.682 38.5725 133.438 37.3022C133.322 36.9004 133.386 36.4792 133.373 36.0709C133.303 34.4247 133.2 32.7657 133.142 31.1195C133.123 30.5751 133.11 30.0113 133.116 29.4734L134.427 29.0586C135.673 32.8434 138.346 37.1078 142.907 36.5634C146.576 36.1227 148.163 31.6185 145.06 29.2984C141.385 26.5441 134.832 26.7644 133.842 20.9576C132.699 14.2694 138.571 10.7956 144.417 10.7243C147.083 10.6919 149.917 11.1261 152.364 12.2214L152.641 18.9809L151.356 19.3244C150.443 16.2719 148.529 12.8176 144.989 12.6103C142.297 12.4482 140.755 14.4184 140.967 17.0367C141.218 20.0956 145.76 21.2881 148.092 22.2732C151.478 23.7054 153.951 25.4682 154.118 29.4799C154.125 29.6808 154.118 29.8817 154.118 30.0826L154.099 30.0696Z" fill="#D9D9D9"/>
<path d="M87.6693 0C87.6564 0.440697 87.5986 0.881394 87.5729 1.31561C87.4894 3.02655 87.4829 4.75045 87.3866 6.46139L87.3416 12.6506C87.9198 12.4497 88.4852 12.1645 89.0634 11.9571C94.1195 10.1101 98.9186 10.9396 102.086 15.5086C105.735 20.7581 105.112 29.6628 100.852 34.4068C95.308 40.583 86.5771 39.1442 79.3302 37.6018L79.4715 34.7826C79.5486 27.4269 79.645 20.0452 79.5165 12.683C79.4779 10.499 79.6578 6.73359 78.8355 4.79582C78.2509 3.4154 77.0623 3.57094 75.7903 3.37003L75.7517 2.30718L87.65 0.00648083L87.6693 0ZM87.5793 36.8371C88.4017 36.8176 89.2304 37.2065 90.0399 37.1157C93.8497 36.6686 95.5329 30.9914 95.9441 27.7704C96.4131 24.1022 96.2525 19.0277 93.8818 16.0077C92.3335 14.0375 89.9949 13.681 87.6564 14.368C87.5279 14.4069 87.2902 14.4328 87.2645 14.5754C87.3223 20.8359 87.3095 27.1482 87.4444 33.4346L87.5857 36.8371H87.5793Z" fill="#D9D9D9"/>
<path d="M31.1205 0.789062L31.4418 11.1908L31.3647 11.301L29.5851 11.8194C28.3258 7.74948 26.0708 3.8545 21.4452 3.38788C19.2223 3.16105 16.7938 3.45917 14.5452 3.33603L14.4038 3.3814L14.2432 5.58488C14.0762 9.88815 13.9862 14.1785 14.0119 18.4882L18.4963 18.3975C21.1625 18.1253 22.2546 15.5654 22.7943 13.2582H24.3555V25.9995H22.7943C22.2996 23.8414 21.2845 21.3333 18.8882 20.8278C17.2692 20.6658 15.6309 20.7436 14.0119 20.6658C14.0119 22.2017 14.0119 23.7442 14.0569 25.2801C14.1083 26.8939 14.179 28.5335 14.2882 30.1408C14.3974 31.748 14.436 34.1718 15.4832 35.3773C16.646 36.7188 18.4706 36.6216 20.0831 36.7447V38.3196H0V36.7447C1.40055 36.5114 3.08378 36.5438 4.09244 35.3773C4.95333 34.3792 5.17176 32.0915 5.28741 30.7888C5.84634 24.5608 5.7821 18.1123 5.47372 11.8843C5.39662 10.2835 5.35165 8.61791 5.19746 7.01714C5.00473 5.05993 4.61925 3.43972 2.60194 2.72683C1.74748 2.42871 0.886588 2.42871 0 2.31206V0.789062H31.1205Z" fill="#D9D9D9"/>
<path d="M40.847 10.7236C47.0724 10.5227 51.8201 13.4261 53.709 19.5116C55.8162 26.31 53.6961 34.6509 46.8797 37.7163C43.3012 39.3235 38.0202 39.3559 34.4481 37.7163C26.9122 34.2555 25.4795 22.3762 30.073 16.0573C32.7585 12.3633 36.3627 10.8662 40.847 10.7236ZM40.5836 12.5188C36.459 12.8493 35.9451 19.6218 35.8102 22.765C35.6495 26.4656 35.8808 33.2316 38.502 36.0442C40.0054 37.658 42.3696 37.5932 43.8151 35.9276C46.038 33.3676 46.1794 27.3794 46.1151 24.113C46.0637 21.5142 45.8967 18.9284 45.0101 16.4656C44.2777 14.4177 43.0699 12.3179 40.5836 12.5188Z" fill="#D9D9D9"/>
<path d="M131.434 23.5826H114.794C114.711 26 115.039 28.4108 116.259 30.5171C117.551 32.753 119.388 34.2177 121.945 34.7232C124.759 35.287 127.913 34.8334 130.181 32.9928L130.971 33.9001C130.323 34.8787 129.391 35.7147 128.434 36.3823C120.345 42.0336 108.62 38.0543 106.944 27.9507C105.652 20.1607 109.552 12.2088 117.763 10.9904C119.985 10.6598 122.446 10.7052 124.573 11.4829C129.468 13.2587 131.55 18.6702 131.434 23.5891V23.5826ZM123.211 21.5476C123.178 19.4155 123.14 17.0953 122.452 15.0603C121.399 11.969 118.559 11.5931 116.825 14.341C115.507 16.4278 115.058 19.2469 114.987 21.6837L123.217 21.5476H123.211Z" fill="#D9D9D9"/>
<path d="M54.7048 13.0628L66.5196 10.7492L66.4746 16.9578C67.3869 14.5145 69.2757 12.3434 71.6528 11.2676C73.5609 10.4057 75.6874 10.639 77.557 11.4945L74.7045 18.7659C74.2483 18.591 73.8179 18.3058 73.3553 18.1114C71.852 17.4568 70.2458 17.1587 68.6268 17.5022C67.8173 17.6707 66.8537 18.0466 66.4361 18.8048C66.102 23.2442 66.0699 27.7549 66.4746 32.1878C66.6031 33.5876 66.693 35.5643 68.0551 36.342C68.9802 36.8734 70.143 36.666 71.1645 36.841V38.3251H54.7048V36.8669L54.7819 36.8021C56.0476 36.7179 57.1205 36.5234 57.795 35.3439C58.5017 34.0996 58.5467 30.8786 58.6174 29.3621C58.7523 26.3939 58.7459 23.3349 58.566 20.3732C58.4825 18.9863 58.4246 16.3292 57.5959 15.2404C56.8506 14.2618 55.8484 14.2034 54.7048 14.1905V13.0758V13.0628Z" fill="#D9D9D9"/>
</svg>
