<svg width="148" height="112" viewBox="0 0 148 112" fill="none" xmlns="http://www.w3.org/2000/svg">
<path d="M53.2426 0C53.6806 0.156474 54.2268 0.0485609 54.6973 0.0701435C80.9185 1.32193 102.684 23.2175 103.571 49.4242C103.587 49.845 103.636 50.7731 103.571 51.1346C103.538 51.3126 103.214 51.6256 103.019 51.6202C101.792 51.4907 100.256 51.7767 99.0662 51.6202C98.8121 51.5878 98.7039 51.4206 98.5687 51.2263C98.4552 48.6634 98.2605 46.1112 97.8171 43.5807C94.4698 24.4585 79.2476 9.24815 60.1102 5.81112C28.9411 0.226617 1.2598 26.7786 5.53177 58.0356C6.47268 64.9313 9.07912 71.7406 13.005 77.4654L26.5672 63.5122L34.5271 61.1975C35.2625 61.2406 35.7113 61.8018 35.9601 62.4439L36.198 63.3557C36.7334 62.3467 37.5445 61.3162 38.3178 60.4583C39.3019 59.3737 40.2915 58.6399 41.3676 57.7119C42.8169 56.4601 43.8551 54.5716 43.8659 52.6238C43.8767 50.676 42.3302 49.7695 41.8002 47.9997C40.7566 44.5303 42.4762 42.5231 42.6709 39.2534C42.6925 38.8972 42.6546 38.5357 42.6709 38.1796C43.0332 38.498 43.363 39.016 43.6009 39.4422C44.9474 41.8163 45.6342 45.3397 44.9582 47.9997C44.6987 49.0249 44.1633 49.9907 44.0822 51.0644C44.0281 51.7821 44.1417 52.5752 44.0822 53.2928C43.9524 54.9277 43.217 56.0554 42.2977 57.3396C42.3518 57.3881 43.1738 56.8162 43.2873 56.7299C45.207 55.3918 46.8455 53.7353 47.7431 51.5231C48.5164 49.6238 47.9648 47.6166 48.1 45.6364C48.3272 42.3289 51.6366 40.8721 52.3125 37.8775C52.6153 36.5393 52.4639 35.1581 52.4964 33.793L52.9236 34.6671C54.097 37.7965 54.1295 42.1832 53.2048 45.3828C52.1287 49.1004 49.1545 50.0824 47.1808 53.1148C47.0672 53.2874 46.467 54.2695 46.5427 54.372C49.4033 52.2623 52.345 50.2011 55.065 47.908C55.5138 47.5303 56.206 47.0069 56.5574 46.5753C58.0013 44.7893 58.2392 40.1706 57.6714 38.0339C57.2821 36.5501 56.0221 36.1023 55.265 34.9368C54.2322 33.3451 53.9672 31.23 54.0592 29.3739C54.1511 27.5178 54.8649 25.6185 54.508 23.6977C55.9031 25.4837 56.9143 27.8739 57.5633 30.0484C58.1527 32.0232 58.0391 32.7354 57.9364 34.7318C57.8066 37.1598 58.3744 39.399 58.2392 41.7893C58.1635 43.1436 57.7742 44.4656 57.4173 45.7605C59.8128 43.0465 62.5707 39.5771 63.3385 35.9566C63.809 33.7228 62.9438 33.0861 62.2246 31.203C60.7321 27.3128 62.5923 26.0016 62.9276 22.4027C63.0844 20.7247 63.0303 18.9873 62.8897 17.3146C63.6792 18.2049 64.128 19.543 64.512 20.6761C65.4853 23.525 66.41 27.2912 65.5718 30.2426C65.2852 31.2462 64.7174 32.1203 64.3984 33.0807C64.0794 34.0412 63.9874 35.0717 63.7279 36.0537C63.079 38.5034 61.8136 40.5375 60.4725 42.6472C60.5266 42.7012 60.8889 42.4206 60.9754 42.3666C62.3868 41.4116 64.1226 40.0249 65.2366 38.7462C66.2694 37.5591 67.0806 35.8595 68.254 34.8505C69.7086 33.5987 72.2231 33.3829 74.0401 32.7516C75.7435 32.1581 77.5279 31.3218 78.9718 30.248C79.0204 30.2318 79.0204 30.3074 79.0096 30.3559C78.7987 31.0358 77.2684 32.8271 76.7384 33.4422C74.4402 36.1239 72.3259 37.9746 68.8272 38.9188C67.1941 39.3613 66.091 39.3343 64.5714 40.2462C61.5757 42.0429 58.6988 44.6382 56.4114 47.2551C56.3466 47.3253 55.8761 47.8756 55.9302 47.9242C60.2346 46.4458 64.1713 43.2515 68.9732 44.158C71.3147 44.6004 73.6507 45.9763 74.8404 48.0699C73.8995 47.9026 72.9261 47.8972 71.9744 47.9997C70.6117 48.1454 69.0868 48.7443 67.7295 48.6688C65.4529 48.5393 63.3115 46.8181 61.0998 46.8073C56.3898 46.7749 50.8038 51.7767 47.0888 54.4529C45.3314 55.7209 43.5577 56.9727 41.7786 58.2191C42.8169 58.1273 43.8876 58.1058 44.9204 57.9385C48.0892 57.4313 48.9328 55.4349 51.3283 53.7838C53.7239 52.1328 56.5196 51.5878 59.4992 51.7227C57.4064 53.8594 54.7459 56.0878 51.8312 56.9565C49.6033 57.6255 46.8833 57.9709 44.5635 58.3216C43.601 58.4673 41.8002 58.4889 40.9891 58.8396C40.3132 59.1363 38.8045 60.9223 38.2853 61.5644C37.9555 61.9798 37.658 62.4223 37.3174 62.827C37.7067 62.8431 38.0474 62.6327 38.4584 62.6489C39.7616 62.6975 40.2591 63.6957 40.9513 64.6237C42.1571 66.2478 43.3738 68.1201 44.4229 69.8521C44.6716 70.2676 45.4071 71.3629 45.4936 71.7568C45.5855 72.1938 45.4503 72.5175 45.2448 72.8845C44.2877 74.5841 42.514 76.3593 41.3893 78.0265C41.346 78.0913 41.1297 78.3341 41.1946 78.388L41.8651 78.3502L48.1109 75.5985L54.8379 68.9402C55.7788 68.5787 56.4655 68.8377 56.9792 69.6579C58.2771 71.7352 56.1194 73.7154 54.8541 75.1938C53.7996 76.4294 51.5663 79.1326 50.2739 79.9096C47.9919 81.2801 45.0988 82.1488 42.6979 83.3358C42.5357 83.4761 42.3734 83.6596 42.7195 83.6596C43.4604 83.6596 44.5527 83.5139 45.3206 83.433C46.1479 83.3466 47.7269 83.2657 48.4029 82.8718C49.479 82.2405 50.7227 81.0157 51.8096 80.2549C52.8046 79.5535 54.5026 78.2046 55.7571 78.8898C56.4277 79.2567 56.8657 80.9617 56.5629 81.6524C56.2384 82.3916 54.1186 84.0103 53.3886 84.5768C51.642 85.9365 50.6957 86.6757 48.5164 87.2908C46.7157 87.798 44.8663 88.1218 43.0494 88.5588C43.0494 88.6613 43.2603 88.7045 43.3468 88.7423C43.9579 88.9905 46.5102 89.9293 47.0077 89.8808C48.0243 89.7782 49.6087 88.3916 50.528 87.8142C51.8853 86.9617 54.1024 85.3646 54.919 87.6685C55.1893 88.4239 55.2056 88.8556 54.627 89.4545C52.6856 90.852 50.7714 92.3304 48.7598 93.6253C48.2569 93.9491 47.5485 94.4886 46.9482 94.5696C46.5697 94.6181 45.9478 94.5372 45.5423 94.4994C43.1846 94.2944 40.8269 93.7386 38.4638 93.6037C33.5267 93.8304 28.5842 94.5804 23.6525 94.7962C23.4416 94.807 23.328 94.8178 23.1279 94.726C22.7711 94.5696 21.8464 93.8358 21.4678 93.5606C9.05749 84.6793 0.783934 69.8629 0.0809517 54.5554C0.0593215 54.086 0.167473 53.541 0.0106535 53.104C0.0322837 52.1652 -0.0217918 51.2209 0.0106535 50.2821C0.929938 23.2876 23.4416 0.911865 50.4848 0H53.2372H53.2426ZM36.4035 64.5536L35.8681 64.4025C35.4734 64.9636 34.9921 65.2874 34.4081 65.6219C32.8507 66.5122 31.0879 66.987 29.4223 67.6291C29.006 68.1093 28.622 68.6165 28.2435 69.1237C27.7676 69.755 26.6645 71.1417 26.3779 71.7945C26.2806 72.0158 26.2589 72.0967 26.3238 72.3449C26.7456 73.8826 27.8487 75.6362 28.2868 77.2226C28.4003 77.4977 28.5842 77.4815 28.8491 77.46C29.7414 77.3844 32.7804 76.8233 33.5429 76.4941C34.4892 76.0841 36.8145 74.2064 37.75 73.4888C38.3448 73.0301 39.1289 72.4798 39.6534 71.9726C40.0266 71.6111 40.1617 71.5571 39.9292 71.0337C39.0262 68.9996 37.1227 67.1219 36.4522 64.9205C36.4197 64.8072 36.4413 64.6129 36.4089 64.559L36.4035 64.5536Z" fill="white"/>
<path d="M139.303 105.392L139.471 105.295L143.262 96.597C143.478 96.2948 145.073 96.3434 145.29 96.4837C145.349 96.5215 145.398 96.5754 145.425 96.6456C146.111 100.708 146.869 104.777 147.48 108.856C147.55 109.32 147.934 110.771 147.48 110.982C147.296 111.068 145.133 111.079 144.965 110.998C144.716 110.879 144.651 110.205 144.608 109.946C144.197 107.685 144.089 105.203 143.624 102.98C143.608 102.894 143.592 102.802 143.483 102.791L139.925 110.939C139.666 111.403 138.963 111.392 138.736 110.906C137.53 108.403 136.675 105.592 135.453 103.115C135.399 103.002 135.356 102.834 135.215 102.791L133.804 110.906C133.707 111.03 133.539 111.025 133.393 111.036C133.047 111.063 131.365 111.079 131.165 110.949C130.927 110.798 130.954 110.431 130.981 110.189L133.447 96.829C133.479 96.6995 133.609 96.4891 133.728 96.4405C133.966 96.3326 135.578 96.2894 135.729 96.6725L139.314 105.392H139.303Z" fill="white"/>
<path d="M87.921 96.3548C93.5124 95.9015 97.8006 101.308 95.7349 106.601C93.4746 112.385 84.9901 113.124 81.8429 107.718C78.9661 102.77 82.3025 96.808 87.921 96.3548ZM87.7696 99.1767C85.374 99.4627 83.7193 101.999 83.9248 104.308C84.2979 108.549 89.7542 110.227 92.2416 106.682C94.648 103.256 92.0361 98.6695 87.7696 99.1767Z" fill="white"/>
<path d="M101.558 76.0945C101.499 76.4398 101.245 76.5531 100.931 76.5801C100.499 76.6178 99.4008 76.634 98.9952 76.5747C98.7627 76.5369 98.5897 76.3804 98.5248 76.1538L98.5085 62.7241C98.5248 62.4651 98.7086 62.1791 98.9898 62.1629C101.558 62.3464 105.511 61.4183 107.177 63.9543C108.475 65.9291 108.047 69.1233 105.809 70.2294C105.528 70.3697 105.192 70.4129 104.933 70.5424C104.862 70.5801 104.814 70.5208 104.841 70.6664L108.61 75.6682C108.88 76.1269 108.653 76.4937 108.145 76.5639C107.842 76.6071 105.776 76.6125 105.587 76.5315C105.468 76.4506 105.387 76.3319 105.3 76.224C104.057 74.6862 103.035 72.4308 101.775 70.974C101.71 70.8985 101.704 70.8175 101.564 70.8499V76.0837L101.558 76.0945ZM101.558 68.7024C103.37 68.7294 105.057 68.3625 104.754 66.1449C104.684 65.6323 104.262 65.1629 103.808 64.9363C103.565 64.8122 102.889 64.6179 102.64 64.6179H101.558V68.7024Z" fill="white"/>
<path d="M103.716 110.631C103.689 110.76 103.452 111.009 103.306 111.036C102.986 111.095 101.494 111.084 101.142 111.041C100.823 110.998 100.721 110.76 100.667 110.474L100.732 97.0338C100.856 96.7101 101.126 96.6561 101.44 96.6292C102.965 96.4889 106.199 96.5482 107.605 97.0932C110.708 98.3018 110.936 103.298 107.934 104.739C107.653 104.874 107.367 104.917 107.091 105.014C107.01 105.041 106.961 104.976 106.993 105.127L110.779 110.194C110.968 110.572 110.909 110.96 110.449 111.036C110.173 111.079 107.907 111.073 107.74 111.003L103.944 105.446L103.716 105.397V110.631ZM103.716 103.163H105.02C105.382 103.163 106.204 102.796 106.474 102.532C107.226 101.798 107.118 100.174 106.242 99.5644C106.036 99.4241 105.317 99.1489 105.09 99.1489H103.711V103.158L103.716 103.163Z" fill="white"/>
<path d="M115.386 96.6464C115.786 96.5763 117.36 96.5763 117.668 96.7867C117.749 96.8407 117.798 96.9054 117.83 96.9972L117.863 105.808C117.814 109.332 123.173 109.634 123.454 106.105C123.67 103.337 123.216 100.24 123.454 97.4828C123.481 97.1806 123.514 96.8677 123.811 96.722C124.146 96.5601 125.947 96.5709 126.266 96.7651C126.466 96.8839 126.515 97.0295 126.515 97.2615C126.255 100.321 126.888 103.995 126.418 106.974C125.477 112.893 115.716 113.033 114.91 106.612C114.543 103.688 115.008 100.38 114.829 97.4126C114.867 97.0133 114.964 96.7274 115.402 96.6518L115.386 96.6464Z" fill="white"/>
<path d="M94.6158 76.4083C94.4211 76.5054 94.221 76.5594 94.0047 76.5756C93.6478 76.608 92.0796 76.6187 91.8525 76.4893C91.4632 76.268 90.9062 74.2015 90.6088 73.7213L90.36 73.5972L85.0066 73.6134C84.7091 73.7159 84.0062 76.2411 83.5736 76.4893C83.4708 76.5486 83.4005 76.5594 83.287 76.5756C82.9084 76.6187 81.1996 76.6187 80.9455 76.4569C80.7833 76.349 80.6967 76.1439 80.7184 75.9497L86.6072 62.0613C86.645 61.9965 86.6991 61.9534 86.764 61.921C86.937 61.8401 88.4836 61.8239 88.7161 61.867C88.8892 61.8994 88.9811 62.0397 89.0676 62.1854L94.6753 75.6799L94.6212 76.4083H94.6158ZM85.9258 71.0828H89.5759L87.8239 66.626L85.9258 71.0828Z" fill="white"/>
<path d="M72.5963 71.3017V76.1686C72.5963 76.3251 72.2773 76.5463 72.1097 76.5733C71.7203 76.6326 70.5036 76.6272 70.1034 76.5787C69.7033 76.5301 69.6222 76.3628 69.5681 76.0013C69.7628 71.7765 69.2436 67.2064 69.5465 63.0194C69.5843 62.496 69.5951 62.2154 70.1791 62.1669C71.5959 62.0374 75.3271 62.0374 76.5763 62.55C80.0101 63.969 80.0804 69.6992 76.5709 70.9888C76.3492 71.0697 75.5164 71.3017 75.3217 71.3017H72.6017H72.5963ZM72.5963 68.701H73.7481C74.1645 68.701 75.0189 68.4798 75.3758 68.2424C76.3113 67.6165 76.2572 65.7981 75.3271 65.1938C75.192 65.1075 74.5376 64.8377 74.4187 64.8377H72.5963V68.701Z" fill="white"/>
<path d="M124.546 61.9626C125.801 61.8277 127.239 62.0651 128.364 62.6425C128.921 62.9285 129.662 63.3169 129.305 64.0346C129.191 64.2612 128.348 65.3403 128.142 65.4051C127.731 65.5292 127.418 65.0543 127.109 64.8655C126.179 64.3097 124.514 64.3151 123.984 65.4105C123.167 67.1047 126.412 67.682 127.499 68.1946C129.705 69.236 130.473 70.9896 129.965 73.3852C129.181 77.0866 124.395 77.7881 121.61 75.851C121.221 75.5813 120.209 74.6964 120.172 74.2377C120.112 73.5687 121.177 73.0453 121.551 72.5597C122.172 72.2036 122.518 73.0399 122.892 73.3798C123.973 74.3726 126.304 74.4913 126.882 72.8996C127.656 70.7629 124.763 70.3798 123.405 69.754C121.491 68.8745 120.599 67.8169 120.772 65.6155C120.929 63.6677 122.67 62.1677 124.557 61.9626H124.546Z" fill="white"/>
<path d="M72.5956 99.2993V102.197H76.6513C77.1866 102.197 77.165 104.28 76.9163 104.614C76.8514 104.7 76.5864 104.873 76.5053 104.873H72.5956V110.63C72.5956 110.733 72.3198 111.013 72.1847 111.035C71.9575 111.078 69.9838 111.062 69.8432 110.997C69.6593 110.916 69.5998 110.641 69.562 110.458C69.7567 106.254 69.2375 101.717 69.5404 97.5512C69.5782 97.0008 69.6323 96.6932 70.2488 96.6285C72.282 96.7688 74.5748 96.4396 76.581 96.6285C77.138 96.6825 77.311 96.8497 77.3651 97.4109C77.3975 97.7616 77.4732 99.3101 76.9541 99.3101H72.601L72.5956 99.2993Z" fill="white"/>
<path d="M103.857 93.5747C103.792 93.6772 102.473 93.742 102.3 93.5531L100.705 89.7222L100.483 89.6467L94.567 89.6575L92.9231 93.5531C92.7555 93.7258 91.4468 93.7636 91.3657 93.456L97.5844 79.4111L97.9035 79.4327L103.765 92.9704L103.846 93.5747H103.857ZM99.9962 88.233L97.6169 82.5892L95.2321 88.233H99.9962Z" fill="white"/>
<path d="M129.364 92.2482C129.58 92.3184 129.71 93.6133 129.288 93.6619H122.437C122.21 93.6241 122.178 93.3705 122.172 93.1817L122.242 79.671L122.653 79.5469L129.267 79.5685L129.451 79.644C129.564 80.0433 129.667 80.6368 129.359 80.9605H123.848L123.735 81.0738V85.1584L123.848 85.2717H129.207L129.321 85.385V86.6098C129.245 86.5882 129.159 86.6853 129.137 86.6853H123.74V92.2536H129.359L129.364 92.2482Z" fill="white"/>
<path d="M82.3517 80.9542V85.26H87.8241L87.9377 85.3733V86.4848C87.9377 86.4848 87.7646 86.6682 87.7538 86.6682H82.3571V92.2365H87.9052C87.9052 92.2365 88.0891 92.4092 88.0891 92.42V93.5315C88.0242 93.6394 87.9431 93.634 87.8349 93.6448C85.7747 93.8876 83.2385 93.456 81.1296 93.6448L80.8646 93.5369L80.8322 79.6755L81.1296 79.5244C83.2277 79.6916 85.6287 79.3193 87.6889 79.5244C87.7971 79.5352 88.0945 79.5837 88.0945 79.7132V80.8247L87.9809 80.938H82.3625L82.3517 80.9542Z" fill="white"/>
<path d="M112.861 79.3482C113.65 79.278 114.413 79.3374 115.186 79.51C115.759 79.6395 117.641 80.2708 117.776 80.8643C117.836 81.1287 117.847 82.1863 117.528 82.2294C117.036 82.1053 116.657 81.6737 116.165 81.4309C112.769 79.7313 108.848 81.5604 107.924 85.197C106.68 90.0909 111.752 94.1376 116.251 91.7959C116.798 91.51 117.647 90.4794 117.782 91.5585C117.928 92.7186 117.468 92.902 116.5 93.3067C110.638 95.7509 104.62 90.4848 106.529 84.3985C107.383 81.6737 110.011 79.6072 112.861 79.3536V79.3482Z" fill="white"/>
<path d="M113.229 62.1848C113.537 62.12 115.11 62.12 115.44 62.174C115.684 62.2117 115.813 62.3412 115.851 62.584L115.862 76.1001C115.862 76.3483 115.597 76.5372 115.37 76.575C115.002 76.6343 113.748 76.6235 113.369 76.575C113.11 76.5372 112.915 76.4617 112.882 76.1703L112.872 62.5787C112.861 62.3736 113.045 62.2279 113.229 62.1902V62.1848Z" fill="white"/>
<path d="M71.1092 87.4962V93.5501L70.9956 93.6634H69.7303L69.5789 93.4422L69.541 80.0286L69.6383 79.6401C69.7519 79.5538 69.8925 79.5592 70.0277 79.543C73.3425 79.2678 77.3766 79.7157 76.9926 84.0376C76.7222 87.0915 73.6724 87.7012 71.1146 87.4908L71.1092 87.4962ZM71.1092 86.0825H72.8613C75.7543 86.0825 76.4789 82.0844 73.959 81.1995C73.7265 81.1185 73.0073 80.9621 72.7855 80.9621H71.2228L71.1092 81.0754V86.0879V86.0825Z" fill="white"/>
</svg>
