<svg width="265" height="54" viewBox="0 0 265 54" fill="none" xmlns="http://www.w3.org/2000/svg">
<path d="M94.8564 27.4015C93.8346 26.4336 92.627 25.6514 91.645 24.909C92.1095 24.3919 92.6801 23.8086 93.1976 23.1722C95.3341 20.5737 95.6393 17.6305 94.6441 14.5149C93.2772 10.2326 88.9777 8.21746 84.8905 8.1114C79.1312 7.9523 73.3587 8.03185 67.5994 8.03185H66.6572V43.5892H83.9217C86.39 43.6024 88.7919 43.2445 91.1142 42.3297C93.8611 41.2293 95.7853 39.3732 96.6479 36.5493C97.1123 35.0512 97.2052 33.5 96.9531 31.9091C96.6744 30.1723 96.117 28.5947 94.8564 27.4015ZM75.1369 15.6816C78.1094 15.7611 81.0023 15.6286 83.8421 15.9865C86.6554 16.3312 87.0933 18.996 85.8592 20.6267C85.2488 21.4222 84.28 21.7271 83.3644 21.7802C80.8165 21.926 78.2686 21.9392 75.7075 21.9392C75.5217 21.9392 75.1634 21.568 75.1634 21.3692C75.1236 19.5529 75.1369 17.7233 75.1369 15.6816ZM86.0848 35.5417C85.262 35.7406 84.3862 35.8599 83.5369 35.8732C81.0023 35.9129 78.4677 35.8732 75.9331 35.8997C75.3227 35.8997 75.1369 35.7141 75.1369 35.1042C75.1634 33.2349 75.1369 31.3655 75.1369 29.3636C77.4459 29.3636 79.6222 29.2973 81.7985 29.3769C83.2715 29.4299 84.771 29.5359 86.2042 29.8541C87.7436 30.1988 88.4469 31.2727 88.4203 32.7046C88.3938 34.0303 87.4649 35.2103 86.0848 35.5417Z" fill="black"/>
<path d="M31.16 37.3973C29.3553 35.2893 29.0102 33.7249 30.4699 31.3253C31.3591 29.8537 30.7354 28.5411 29.5278 27.8782C27.5903 26.8044 25.5998 25.7835 23.5562 24.935C20.013 23.4502 16.4168 22.0979 13.0993 20.1357C10.4983 18.5978 8.16276 16.7285 6.62341 14.0371C5.52199 12.128 5.04426 10.0598 4.95137 7.79272C4.76559 8.11091 4.56653 8.41584 4.38075 8.73403C1.24899 13.8648 -0.277087 19.38 0.0413976 25.4388C0.20064 28.3157 0.718177 31.0866 1.66036 33.7912C2.8016 37.0526 4.50018 40.0224 6.75611 42.6739C9.3438 45.7232 12.3827 48.1759 15.9656 49.9657C18.9116 51.4373 22.0168 52.3653 25.3078 52.8028C27.9752 53.1608 30.6026 53.068 33.2301 52.7233C33.5486 52.6835 33.96 52.3256 34.0927 52.0206C34.5306 50.9865 34.9022 49.9127 35.2207 48.8388C36.0434 46.0016 35.7117 43.297 33.96 40.8576C33.0974 39.6511 32.1155 38.5242 31.16 37.3973Z" fill="black"/>
<path d="M52.8563 7.59425C50.8127 4.62451 48.3311 2.09228 45.3055 0.130126C45.0932 -0.00245185 44.7084 -0.042227 44.4695 0.0505774C43.4477 0.44831 42.4392 0.912334 41.4306 1.33658C36.8922 3.21919 32.314 5.02224 28.0941 7.56773C25.878 8.89351 23.7547 10.3253 22.3348 12.5659C21.459 13.958 21.2467 15.4296 21.804 17.0338C22.6533 19.46 24.5908 20.7857 26.7273 21.7801C31.1861 23.8615 36.0429 24.657 40.7937 25.7441C43.5937 26.3805 46.3804 27.0169 48.9548 28.3692C51.4098 29.6552 52.0866 31.7366 50.6003 34.07C49.6582 35.5549 48.4904 36.9204 47.3757 38.2992C44.6686 41.6402 41.9084 44.9281 39.2278 48.2823C38.352 49.3827 37.6486 50.6157 36.879 51.7691H36.8392C36.9851 51.8752 37.0117 51.9017 37.0249 51.9017C41.3643 50.6555 45.1994 48.4812 48.5302 45.4584C51.861 42.4357 54.316 38.803 55.9748 34.6268C57.3549 31.1931 57.9653 27.6002 58.0317 23.9278C58.0582 22.4032 57.7928 20.8653 57.5672 19.3539C56.9302 15.0716 55.3113 11.1606 52.8563 7.59425ZM34.8752 17.9486C34.6628 18.28 34.1055 18.3861 33.6676 18.5452C33.4685 18.5982 33.2297 18.5452 33.0173 18.5452C31.0401 18.4258 29.0894 18.2137 27.6031 16.6891C26.8467 15.9201 26.9131 15.5356 27.9083 15.2175C30.3898 14.422 32.5529 15.0981 34.4107 16.8084C34.7027 17.0736 35.0079 17.7364 34.8752 17.9486ZM40.17 19.6058C40.1036 19.7914 39.825 19.9637 39.6126 20.0035C38.3785 20.2554 36.9188 19.3539 36.4145 17.9088H36.4278C36.9851 17.9486 37.5027 17.869 37.9406 18.0281C38.6306 18.28 39.2941 18.638 39.9311 19.0092C40.0904 19.102 40.2231 19.4467 40.17 19.6058ZM41.2847 21.3956C42.2401 20.7857 43.5937 21.1967 43.8989 22.1115C42.9302 22.2176 42.0543 22.1115 41.2847 21.3956Z" fill="black"/>
<path d="M143.054 17.4055C141.952 15.2975 140.44 13.5077 138.542 12.0361C135.437 9.63647 131.907 8.2444 128.006 8.11182C123.149 7.93947 118.278 8.03227 113.422 8.03227C112.559 8.03227 112.121 8.46978 112.121 9.35805V43.5896H113.063C117.734 43.5896 122.405 43.6029 127.077 43.5896C127.886 43.5896 128.709 43.5631 129.505 43.4173C132.756 42.8074 135.808 41.7203 138.436 39.599C140.878 37.6236 142.722 35.2372 143.85 32.2807C145.005 29.2712 145.164 26.1954 144.819 23.0401C144.593 21.0381 143.97 19.1688 143.054 17.4055ZM134.919 30.6235C133.606 33.3148 131.363 34.9058 128.497 35.3565C126.479 35.6747 124.383 35.5156 122.326 35.5687H120.933V16.093C123.029 16.093 125.086 16.0665 127.143 16.093C128.762 16.1195 130.261 16.6101 131.628 17.4453C134.057 18.9302 135.344 21.1575 135.808 23.9283C136.193 26.2617 135.954 28.5023 134.919 30.6235Z" fill="black"/>
<path d="M250.676 42.4095C250.676 42.4095 250.676 42.4493 250.689 42.4625C250.702 42.436 250.716 42.4095 250.729 42.383C250.729 42.383 250.716 42.3697 250.702 42.3564C250.702 42.3697 250.676 42.3962 250.676 42.4095Z" fill="black"/>
<path d="M261.995 36.8944C261.915 36.0326 262.021 35.1709 261.955 34.3091C261.902 33.5402 261.703 32.7712 261.57 32.0023L261.225 32.0421V36.258C259.619 35.0648 260.163 33.6993 260.469 32.3205C260.323 32.3337 260.19 32.347 260.004 32.347C260.071 32.1083 260.11 31.8962 260.163 31.6841C260.057 31.6576 259.938 31.6178 259.818 31.5913C259.566 32.2144 259.818 32.9568 259.487 33.5932C259.327 33.6197 259.049 33.6595 258.836 33.6993C258.292 31.114 258.306 28.5553 258.691 26.0495C258.067 26.1821 257.602 26.2749 256.992 26.4075C256.886 24.2465 256.793 22.0457 256.687 19.8582C256.753 19.8582 256.819 19.8582 256.886 19.8582C256.899 20.1366 256.926 20.415 256.952 20.6934H257.125C257.164 19.9377 257.218 19.182 257.257 18.4263H257.509C257.642 19.4339 257.815 20.4415 257.894 21.4624C257.961 22.5097 257.682 23.5836 258.2 24.684C258.452 24.3791 258.651 24.1404 258.85 23.9018C258.253 23.3582 258.266 20.7862 258.982 19.5532C259.168 20.0968 259.381 20.468 259.42 20.8525C259.513 21.5287 259.487 22.2313 259.513 22.9207C259.593 22.9207 259.659 22.9207 259.739 22.9207C259.925 22.629 260.11 22.3374 260.309 22.0325C261.252 21.9927 261.796 21.237 261.424 20.3752C261.318 20.4813 261.199 20.5874 261.079 20.7067C260.946 20.3222 260.814 19.9642 260.681 19.6063L260.84 19.5267C261.026 19.7521 261.212 19.9642 261.424 20.2029C262.154 18.4926 261.928 16.8752 261.384 15.0589C261.225 16.5437 261.092 17.843 260.96 19.1423C260.575 18.0286 260.323 16.9415 260.23 15.8278C260.124 14.7009 260.19 13.5607 260.163 12.4338C260.163 12.3145 260.124 12.1422 260.044 12.0891C259.513 11.7444 258.969 11.4262 258.385 11.0683C257.602 12.3012 257.868 13.627 257.709 14.8202C257.363 14.8733 257.058 14.913 256.713 14.9661C256.673 13.7994 256.727 12.6062 256.567 11.4527C256.488 10.8164 256.182 10.1137 255.758 9.63643C255.333 9.15915 254.63 9.05309 253.966 9.38454C253.966 9.38454 253.966 9.38453 253.966 9.37128C253.887 9.10612 253.807 8.82771 253.648 8.28414C253.382 8.69513 253.157 8.92051 253.09 9.18567C252.998 9.57014 253.024 9.96788 252.998 10.3656C253.064 10.6308 253.117 10.9092 253.17 11.1876C253.741 11.1478 253.608 10.7103 253.661 10.3524C253.714 10.0607 253.834 9.76901 253.927 9.47734C253.966 9.59666 254.019 9.72924 253.993 9.82204C253.635 11.0418 253.727 12.1819 253.993 13.4679C254.325 15.0323 254.072 16.7028 254.072 18.2407C253.542 17.8297 253.807 17.4718 253.475 16.7691C253.011 15.7748 253.409 15.0854 253.542 14.2634C253.568 14.0778 253.21 13.8259 253.011 13.5872C253.621 12.8581 253.144 12.0228 253.09 11.2009C253.024 10.9357 252.971 10.6573 252.918 10.3789C252.878 10.0077 252.838 9.64969 252.799 9.27847L252.56 9.30499C252.56 10.5114 252.599 11.7312 252.56 12.9509C252.493 15.0589 252.334 17.1668 252.281 19.2748C252.268 19.9245 252.56 20.5874 252.573 21.2502C252.626 22.9207 252.639 24.5912 252.573 26.2617C252.56 26.6727 252.148 27.0704 251.909 27.4681L251.591 27.3488V24.1669C251.657 24.1537 251.763 24.1537 251.763 24.1537V25.8109C251.883 25.8109 251.989 25.8242 252.095 25.8242C252.122 25.3999 252.308 24.9226 252.162 24.5779C251.724 23.5571 251.87 22.4302 251.578 21.3563C251.18 19.8449 251.472 18.1347 251.525 16.5172C251.538 15.8411 251.843 15.1782 251.803 14.5153C251.684 12.5266 251.71 10.5645 252.281 8.53604C251.737 8.45649 251.219 8.41672 250.742 8.2974C249.919 8.08528 250.184 9.07961 249.68 9.21219C249.654 8.56255 249.454 8.28414 249.083 8.35043V18.5854C248.539 18.2938 248.34 17.9225 248.34 17.3392C248.366 14.6479 248.34 11.9698 248.366 9.27847C248.366 8.69513 248.234 8.2046 247.636 8.11179C246.999 8.00573 246.323 8.08528 245.765 8.08528C245.473 8.58907 245.221 9.02657 244.956 9.46408C244.89 9.43757 244.823 9.41105 244.757 9.38454C244.903 9.09287 245.089 8.81445 245.195 8.49626C245.221 8.3902 245.075 8.11179 244.996 8.11179C244.598 8.07202 244.186 8.09853 243.788 8.09853C243.841 8.65536 243.908 9.09287 243.908 9.53037C243.921 10.3391 244.146 11.2671 243.841 11.9433C243.562 12.5531 243.589 12.9376 243.722 13.5475C243.908 14.3695 243.775 15.271 243.775 16.146V18.36C243.576 18.1214 243.483 17.8695 243.456 17.6176C243.337 16.4907 243.284 15.3505 243.111 14.2369C242.992 13.4944 242.594 12.7653 243.111 12.0228C243.164 11.9433 243.098 11.7577 243.085 11.6251C243.018 11.0285 242.846 10.4319 242.912 9.86182C243.085 8.33717 242.66 7.89967 241.147 8.21785C240.962 8.27088 240.776 8.24437 240.351 8.27088C240.179 9.21219 239.98 10.1667 239.847 11.1213C239.754 11.8505 239.714 12.5797 239.688 13.3088C239.674 14.2104 239.688 15.1252 239.688 16.2786C240.099 15.7085 240.351 15.3638 240.63 14.9793C240.51 16.968 240.391 18.8771 240.258 20.879C240.033 20.7464 239.873 20.6536 239.688 20.5343C239.223 21.4226 239.223 22.2048 239.98 22.8147C240.59 23.3185 240.524 23.9548 240.471 24.5912C240.444 24.9094 240.325 25.2143 240.258 25.5325C240.046 26.4473 240.325 26.7787 241.453 26.7787C240.484 26.381 241.307 26.0098 241.32 25.6386C241.399 24.0476 241.532 22.4567 241.638 20.8658C241.678 20.3487 241.665 19.8317 241.678 19.3146C241.731 17.896 241.731 16.5172 241.227 15.1384C241.001 14.502 241.041 13.6801 241.227 13.0304C241.36 12.5797 241.97 12.288 242.435 11.8505C242.448 12.1819 242.474 12.4338 242.474 12.699C242.395 14.807 242.249 16.9282 242.222 19.0362C242.182 21.5154 242.249 24.0079 242.249 26.5003C242.249 27.4284 242.249 28.3697 242.063 29.2712C241.917 29.9738 241.506 30.6367 241.227 31.2864C241.107 31.0875 240.988 30.8489 240.855 30.6102C240.762 30.6235 240.67 30.65 240.577 30.6633C240.67 32.864 240.776 35.0516 240.882 37.438C240.378 36.9872 240.059 36.7088 239.754 36.4304C239.688 36.4702 239.621 36.5099 239.555 36.5497C240.059 37.8755 240.563 39.2013 241.081 40.527C241.134 40.421 241.187 40.3149 241.253 40.1691C242.05 41.0043 242.634 41.8926 242.66 43.1256C242.753 42.9797 242.859 42.8339 242.939 42.7146C243.151 42.7543 243.39 42.7941 243.629 42.8339V42.1843C243.629 41.8926 243.456 41.5214 243.589 41.349C243.947 40.8452 243.695 40.6198 243.324 40.3812C243.297 40.3812 243.324 40.2884 243.324 40.2088C243.549 40.1558 243.775 40.1028 244.08 40.0365C244.08 40.7657 244.053 41.4418 244.08 42.118C244.107 42.6748 244.173 43.2449 244.279 43.7884C244.306 43.9078 244.558 44.0403 244.717 44.0536C244.823 44.0669 245.035 43.8945 245.049 43.7752C245.195 42.7809 245.314 41.7998 245.42 40.8055C245.447 40.5403 245.42 40.2751 245.42 40.01C245.513 39.9967 245.606 39.9967 245.699 39.9967C245.726 40.6066 245.752 41.2164 245.779 41.8263C245.805 42.6218 245.341 43.5631 246.575 44.1199V42.8604C246.787 42.7941 246.999 42.7278 247.398 42.5952C247.106 41.8528 246.84 41.2032 246.562 40.5138C247.384 40.8187 247.636 41.3623 247.53 42.118C247.49 42.3433 247.477 42.6085 247.544 42.8206C247.69 43.2581 247.889 43.6691 248.074 44.0934C248.366 43.4305 248.499 42.8339 248.605 42.2373C248.645 42.0252 248.698 41.76 248.605 41.6142C248.127 40.8983 248.366 40.3547 249.229 39.7448V42.3964C249.308 42.6748 249.428 43.0195 249.521 43.3642C249.587 43.6559 249.348 44.1994 249.932 44.0403C249.906 43.9741 249.866 43.921 249.839 43.8547C250.105 43.404 250.383 42.9399 250.689 42.4096C250.344 41.3358 249.945 40.4607 250.954 39.652C250.848 40.5138 251.326 41.3755 250.742 42.3831C251.047 42.7676 251.233 42.993 251.365 43.1786C251.525 42.9267 251.644 42.5024 251.803 42.5024C252.082 42.4759 252.361 42.7278 252.653 42.8206C252.878 42.9002 253.25 43.0195 253.356 42.9134C253.834 42.4096 254.232 42.5687 254.577 43.0195C254.802 43.3112 254.935 43.6824 255.187 44.1994C255.612 43.0593 255.373 41.9589 255.426 40.8983C255.466 39.9304 255.705 38.9626 255.453 37.9683C255.771 38.2334 256.169 38.5251 256.196 38.83C256.249 39.599 256.116 40.3812 256.09 41.1634C256.09 41.6142 256.023 42.1047 256.156 42.529C256.249 42.7941 256.647 42.9532 257.125 43.3377C257.018 41.9058 256.926 40.6331 256.819 39.2543C257.111 39.4797 257.31 39.6255 257.509 39.7713C257.642 39.4266 257.655 39.1482 257.549 38.9228C257.31 38.3925 256.846 37.9285 256.766 37.3849C256.62 36.3243 256.607 35.2239 256.634 34.15C256.687 32.4 256.766 30.6367 256.926 28.9C256.992 28.2106 257.324 27.5344 257.536 26.845C257.629 26.8715 257.709 26.8848 257.801 26.8981C257.947 27.2958 258.186 27.6803 258.2 28.078C258.239 29.0193 258.213 29.9606 258.146 30.9019C258.067 32.1481 257.841 33.3944 258.014 34.6671C258.133 35.5156 258 36.4039 258.067 37.2789C258.133 38.1937 258.306 39.0952 258.425 39.9967L258.783 40.0365C259.075 38.8566 259.367 37.6899 259.646 36.5099C260.004 37.8755 259.699 39.3869 260.469 40.6066C261.384 40.6596 261.729 39.5725 262.632 39.7448C262.658 39.7581 262.738 39.6653 262.738 39.6388C262.658 39.1482 262.618 38.6577 262.486 38.1804C262.366 37.7429 262.048 37.3319 262.008 36.8944H261.995ZM258.279 12.5399C258.531 12.8846 258.876 13.3354 259.208 13.7861C259.288 13.9054 259.381 14.0513 259.381 14.1838C259.301 15.377 259.195 16.5702 259.089 17.8695C258.558 17.0475 258.146 13.9585 258.279 12.5399ZM242.368 39.0952C241.307 38.5649 241.147 37.7959 241.307 36.8149C241.386 36.3111 241.253 35.7542 241.227 35.2239C241.214 35.0118 241.2 34.7864 241.2 34.5743V31.9095C241.413 32.3205 241.532 32.5459 241.758 32.9966C241.983 32.4663 242.143 32.0818 242.368 31.525V39.0952ZM243.071 34.0705C243.138 32.811 243.204 31.7769 243.257 30.7561H243.496C243.363 31.7769 243.947 32.864 243.071 34.0705ZM245.5 14.0115V20.4945C245.022 18.3203 244.943 16.1593 245.5 14.0115ZM245.606 29.1651H245.381V24.5117L245.619 24.4851C245.858 26.0496 245.686 27.6007 245.606 29.1651ZM246.641 25.8905C247.225 24.22 246.416 22.5628 246.734 20.9055C246.827 20.4017 246.601 19.8317 246.601 19.3013C246.628 17.7767 246.708 16.2653 246.761 14.7407C246.814 13.3884 246.867 12.0228 246.933 10.6573C246.946 10.5645 247.013 10.4849 247.053 10.3921C247.132 10.3921 247.199 10.4186 247.278 10.4186C247.278 11.7312 247.252 13.0437 247.278 14.3562C247.331 17.1668 247.398 19.9642 247.451 22.7616C247.451 23.1594 247.411 23.5704 247.411 23.9681C247.411 24.9624 247.504 25.97 247.411 26.9511C247.344 27.667 247.053 28.3564 246.853 29.0591H246.601V28.025C246.601 27.309 246.416 26.5268 246.641 25.8905ZM247.398 38.4853C247.185 38.0213 246.973 37.544 246.761 37.0668C247.822 37.133 247.597 37.8225 247.398 38.4853ZM248.406 19.8714H248.419C249.003 20.2427 249.295 20.6669 249.202 21.4889C249.07 22.6025 249.216 23.7294 249.229 24.8564V25.9037C249.123 25.9037 249.03 25.9302 248.937 25.9302C248.672 23.9416 248.406 21.9396 248.141 19.951C248.234 19.9245 248.313 19.8979 248.406 19.8714ZM248.764 38.8698C249.003 38.3793 248.884 37.5308 248.446 36.6558C248.565 36.7618 248.685 36.8679 249.003 37.1463C248.963 36.2713 248.924 35.6349 248.897 34.9985H248.711C248.645 35.1709 248.592 35.3565 248.526 35.5421L248.313 35.4626C248.459 34.9986 248.605 34.5345 248.764 34.0175H248.99C248.764 33.7258 248.406 33.5004 248.393 33.2485C248.287 31.8034 248.207 30.3583 248.22 28.9132C248.234 28.3166 248.393 27.6537 249.216 27.3223V39.5327C249.043 39.2808 248.897 39.0687 248.764 38.8698ZM250.078 15.2047C250.091 14.6214 250.145 14.038 250.237 13.4547C250.264 13.3088 250.503 13.2028 250.821 12.9509V20.8127C250.277 20.1366 249.919 19.5135 250.091 18.5324C250.277 17.4585 250.078 16.3184 250.078 15.2047ZM251.007 23.8355C250.901 24.4321 250.981 25.0552 250.981 25.6651V28.9265C250.994 29.1651 250.981 29.3905 250.981 29.6159V36.8944C249.826 35.7012 249.866 34.3357 249.892 32.9701C249.906 32.5061 249.866 32.0288 249.906 31.5648C249.919 31.4322 250.105 31.3261 250.211 31.2068C250.277 31.1273 250.37 31.0345 250.37 30.9417C250.37 30.2523 250.41 29.5761 250.37 28.8867C250.317 28.0382 250.41 27.1102 250.078 26.381C249.335 24.6973 250.038 22.987 249.614 21.237C250.914 21.9529 251.219 22.6556 251.007 23.8355ZM251.591 31.4587C251.657 31.4587 251.71 31.4322 251.763 31.4189C251.817 31.6046 251.87 31.7902 251.909 31.936C252.108 31.525 252.321 31.114 252.52 30.6898C252.586 30.703 252.653 30.7163 252.719 30.7295V37.491C252.308 37.027 252.865 36.1785 251.883 35.9399C251.79 34.5213 251.697 32.9834 251.591 31.4587ZM252.334 41.7865C252.241 41.2164 252.148 40.6464 252.055 40.0763C252.188 40.0498 252.308 40.0365 252.44 40.01C252.533 40.5801 252.639 41.1369 252.732 41.707C252.599 41.7335 252.467 41.76 252.334 41.7865ZM254.404 25.3999C254.537 27.1897 254.617 28.9928 254.617 30.7826C254.617 31.6046 254.364 32.4133 254.272 33.222C254.165 34.2163 253.701 35.4095 254.086 36.1652C254.683 37.3187 254.311 38.4058 254.484 39.4929C254.51 39.6388 254.457 39.7846 254.298 39.957C254.232 39.7846 254.152 39.6255 254.086 39.4532C254.033 39.4664 253.993 39.4664 253.94 39.4664C254.059 40.3149 254.165 41.1767 254.285 42.0252L254.139 42.118C253.993 41.8661 253.714 41.6142 253.727 41.3755C253.834 39.7316 253.913 38.0876 253.674 36.4304C253.409 34.6804 253.382 32.8906 253.409 31.0875L253.502 31.3261C254.378 29.9208 254.418 28.7541 253.568 27.9719V29.0325C253.475 29.0193 253.382 29.0193 253.29 29.0193C253.382 28.3829 253.382 27.7068 253.581 27.0969C253.927 26.023 254.059 25.0022 253.581 23.8222C253.502 24.0609 253.462 24.1537 253.449 24.2332C253.396 24.2332 253.303 24.2332 253.303 24.2332V19.6858C254.112 20.2294 254.577 20.7995 254.51 21.7408C254.471 22.4037 254.789 23.1461 254.59 23.7294C254.391 24.3128 254.378 24.8166 254.417 25.4132L254.404 25.3999ZM255.24 34.6273C255.373 34.1368 255.147 33.5534 255.081 33.0099C255.054 32.758 254.975 32.4928 254.975 32.2277C254.962 30.9549 254.855 29.6822 255.001 28.436C255.214 26.6462 254.776 24.8829 254.975 23.1063C255.001 22.8147 255.187 22.5362 255.214 22.2446C255.214 22.0855 255.094 21.9131 255.001 21.7275C255.32 21.8601 255.572 21.9662 255.824 22.0722L256.05 21.9131C255.877 21.4624 255.665 21.0249 255.545 20.5608C255.413 20.0438 255.333 19.5135 255.254 18.9832C255.254 18.8241 255.32 18.6252 255.254 18.5059C255.068 18.1479 255.147 17.9756 255.426 17.6441C255.691 17.3392 255.612 16.7293 255.612 16.2521C255.625 15.3373 255.731 14.4092 255.559 13.521C255.439 12.8448 255.386 12.288 255.798 11.7312C255.837 11.6649 255.904 11.6251 255.983 11.5588C256.09 15.8013 256.328 20.0173 256.236 24.22C256.143 28.4094 256.315 32.5989 256.315 37.027C255.612 36.205 254.962 35.6879 255.24 34.6273ZM260.92 39.5062C261.159 38.8168 259.633 38.6444 260.668 37.8622C261.544 38.4986 261.57 38.6709 260.92 39.5062Z" fill="black"/>
<path d="M233.159 37.0261C233.172 36.4958 233.371 36.0185 232.893 35.5412C232.747 35.3954 232.946 34.9181 233 34.4276C232.27 34.0033 232.256 32.4522 230.77 32.6378C230.505 31.8158 230.253 31.0469 230.027 30.2646C229.855 29.6548 229.722 29.0317 229.576 28.4086L229.31 28.4616C229.284 28.7267 229.257 28.9919 229.218 29.3764C229.058 28.5544 228.912 27.8915 228.753 27.1226C228.222 27.6131 227.877 27.918 227.479 28.2892C226.948 26.7646 227.546 25.1074 226.683 23.7286C226.922 25.1206 227.081 26.4994 226.603 28.1699C226.258 27.7324 225.9 27.4938 225.82 27.1756C225.674 26.6055 225.648 26.0089 225.635 25.4123C225.635 25.1074 225.834 24.7759 225.781 24.4843C225.701 23.9805 225.489 23.4899 225.263 22.7873C225.091 24.0468 224.931 25.1339 224.785 26.2078H224.586C224.52 26.1017 224.467 25.9956 224.4 25.8763C224.347 26.0089 224.294 26.1415 224.241 26.2741C224.175 26.2475 224.122 26.221 224.055 26.1945C224.188 25.8763 224.347 25.5714 224.44 25.24C224.493 25.0411 224.493 24.8024 224.454 24.6036C224.387 24.3119 224.188 24.0468 224.175 23.7551C224.135 23.0259 224.215 22.2702 224.135 21.541C224.069 20.9312 223.843 20.3478 223.684 19.738C223.06 19.8308 223.392 19.274 223.352 18.9823C223.299 18.5448 223.299 18.1205 223.286 17.683C223.18 17.6963 223.087 17.7095 222.981 17.7095C223.007 18.3459 223.047 18.9823 223.087 19.8175C222.835 19.4065 222.662 19.1414 222.503 18.8762C222.33 18.5846 222.171 18.2929 221.985 18.0145C221.786 17.7228 221.454 17.4709 221.388 17.166C221.242 16.5031 221.149 15.8004 221.216 15.1375C221.468 12.6848 220.061 10.9481 218.827 9.14502C218.562 9.84768 218.256 10.5106 218.084 11.2C217.832 12.1413 217.726 13.1091 218.336 14.0106C218.376 13.8383 218.416 13.6527 218.482 13.2947C218.548 13.7057 218.615 13.9443 218.615 14.183C218.641 14.647 218.814 15.3762 218.601 15.522C217.978 15.933 218.296 16.3705 218.336 16.8213C218.416 17.6565 218.469 18.4785 218.535 19.3137C218.562 19.6054 218.588 19.9103 218.615 20.202C218.668 20.1887 218.721 20.1755 218.774 20.1755C218.867 19.1281 218.946 18.0675 219.026 17.0069C219.278 17.8289 219.345 18.6243 219.398 19.4198C219.451 20.255 219.517 21.0903 219.544 21.9255C219.557 22.7077 219.517 23.4767 219.544 24.2589C219.61 26.2741 219.61 26.2873 219.265 26.5922C219.199 25.2797 219.145 23.9937 219.079 22.6414C218.88 22.8536 218.761 22.9729 218.575 23.1717C218.575 22.1774 218.654 21.3157 218.548 20.4804C218.429 19.6187 218.137 18.7702 217.858 17.6963C217.765 18.1868 217.712 18.452 217.659 18.7171C217.58 18.7304 217.487 18.7304 217.394 18.7304L217.195 13.9178C217.062 13.9178 216.929 13.9178 216.783 13.9178V17.219C216.783 17.219 216.651 17.2455 216.571 17.2455C216.319 16.9538 216.067 16.6622 215.815 16.3705L215.602 16.397C215.682 17.1129 215.085 17.7361 215.443 18.505C214.634 19.274 216.027 19.9766 215.443 20.7721C215.695 20.7058 215.868 20.666 216.04 20.6262C216.12 20.7853 216.239 20.9179 216.239 21.0638C216.319 22.8138 216.399 24.5505 216.425 26.3006C216.425 26.4464 216.08 26.5922 215.762 26.8441C215.815 27.2419 215.841 27.8385 215.974 28.4086C216.067 28.8063 216.478 29.2173 216.412 29.5752C216.266 30.4237 216.306 31.259 216.306 32.0942V33.4067H216.093C216.027 32.7041 215.961 31.9882 215.881 31.2855C215.748 30.0127 215.576 28.7267 215.496 27.4407C215.456 26.8972 215.443 26.221 215.735 25.81C216.226 25.1074 216.319 23.4369 215.655 22.7077L215.788 25.0146C215.655 25.0146 215.536 25.0146 215.403 25.0146V20.8119H215.231C215.151 20.9047 215.072 21.0107 214.979 21.1433C214.846 20.8384 214.753 20.613 214.647 20.3744C214.501 20.7853 214.501 21.13 214.501 21.488C214.541 23.0392 214.66 24.5903 214.607 26.1282C214.594 26.579 214.116 27.0165 213.851 27.4673C213.771 27.4275 213.691 27.401 213.612 27.3612V22.8801H212.802C213.081 23.8214 212.776 24.6964 212.935 25.6642C213.134 26.8441 212.776 28.1169 212.696 29.3499C212.67 29.7609 212.763 30.1984 212.763 30.6226V32.7041H212.484C212.391 30.8745 212.285 29.0449 212.179 27.043C211.17 27.9976 211.276 29.4029 210.599 30.5696V28.223C209.617 29.6018 210.042 30.954 210.148 32.2533C210.201 32.9692 209.737 33.5923 209.02 33.4995V32.6378L208.808 32.6113C208.728 33.062 208.569 33.5261 208.569 33.9768C208.543 35.5147 208.529 37.0526 208.582 38.5905C208.609 39.1606 208.861 39.7174 208.954 40.2875C209.02 40.7648 209.073 41.2553 209.02 41.7326C208.981 42.0906 208.742 42.4088 208.635 42.6739C208.927 42.833 209.126 42.886 209.219 43.0054C209.671 43.6417 210.586 43.7743 211.197 43.2573C211.449 43.4031 211.701 43.5357 212.139 43.7876V41.2023C212.245 41.1758 212.338 41.1625 212.431 41.1493C212.563 41.7857 212.643 42.4353 212.842 43.0584C213.015 43.6152 213.307 44.1323 213.545 44.6626C213.917 43.9334 214.103 43.1777 214.315 42.4485C214.355 42.316 214.474 42.1834 214.567 42.0508V43.602C214.952 43.3236 215.178 43.1645 215.456 42.9656C215.496 43.2175 215.509 43.3898 215.536 43.5754C215.815 43.3368 216.04 43.0451 216.054 42.7535C216.093 41.905 216.08 41.0432 216.027 40.1947C215.961 38.9485 215.854 37.689 215.762 36.4428C215.841 36.4428 215.934 36.4162 216.014 36.4162C216.133 36.867 216.239 37.3178 216.385 37.8348C217.619 37.8481 216.77 38.9883 217.155 39.5981C217.593 38.7894 217.301 37.9276 217.381 37.1189C217.46 36.3897 217.54 35.6606 217.235 34.7723C217.513 34.9579 217.646 35.0374 217.739 35.1037C217.818 34.9314 217.872 34.8121 218.004 34.5204V36.92H218.124C218.203 36.6416 218.27 36.3632 218.402 35.8727C218.548 36.5621 218.654 36.9863 218.787 37.5829C218.867 36.9333 219.079 36.403 218.946 35.992C218.694 35.2363 218.999 34.9977 219.663 34.8783C219.676 35.1833 219.69 35.4882 219.703 35.8992C219.822 35.6871 219.889 35.5943 219.968 35.4484C220.114 35.7136 220.247 35.9522 220.366 36.1776C220.419 36.1644 220.526 36.1378 220.526 36.1378V33.7647C220.526 33.7647 220.605 33.7514 220.645 33.7514C220.738 33.9238 220.818 34.0829 221.003 34.4276C221.295 33.778 221.534 33.2476 221.76 32.7438C221.839 33.473 221.932 34.2287 222.025 35.1037C222.503 34.348 221.972 33.42 222.702 32.8632C222.662 33.7514 222.569 34.6132 223.392 35.3689C223.418 34.295 222.901 33.3007 223.525 32.3726L223.764 34.6264C223.87 34.6132 223.963 34.6132 224.069 34.6132V28.5809C224.162 28.5809 224.268 28.5809 224.361 28.5809C224.095 31.0203 225.104 33.4995 224.016 36.0318L226.855 39.5716C227.479 39.0678 227.081 38.6833 226.922 38.2723C226.563 37.3443 226.816 36.9863 227.837 36.9598C227.904 37.4769 227.944 37.9807 228.05 38.4845C228.09 38.6436 228.262 38.7629 228.382 38.9087C228.435 38.7496 228.527 38.5773 228.527 38.4049C228.607 37.2647 228.66 36.1378 228.727 34.9977C228.833 35.0109 228.939 35.0242 229.045 35.0242C228.965 35.7799 228.859 36.5356 228.833 37.2913C228.806 38.0602 228.859 38.8292 228.859 39.5981C228.859 40.7206 229.045 41.463 229.417 41.8254V40.8576H229.669C229.669 41.2156 229.722 41.5868 229.669 41.9315C229.523 42.8728 230.478 43.0451 230.823 43.6417C230.85 43.6815 231.221 43.6152 231.261 43.5224C231.58 42.7535 231.779 42.8993 232.071 43.5489C232.15 43.7213 232.588 43.8273 232.827 43.7876C233.013 43.7611 233.278 43.4429 233.278 43.244C233.318 42.4485 233.278 41.6398 233.252 40.8443C233.225 39.5583 233.132 38.2723 233.159 36.9863V37.0261ZM214.594 27.9578V32.6378C214.381 32.5317 214.289 32.4919 214.289 32.4919C214.501 31.7363 213.904 31.2192 213.718 30.5961C213.386 29.4427 213.97 28.5942 214.594 27.9578ZM213.904 35.4352C214.381 35.939 214.7 37.9674 214.527 39.0015C214.315 38.6038 214.156 38.3121 213.904 37.8613V35.4352ZM214.302 39.2402C214.74 40.1417 214.541 41.0962 214.567 42.0375C214.501 41.8652 214.395 41.6928 214.381 41.5205C214.302 40.7648 214.249 40.0091 214.302 39.2402ZM218.057 28.3423C217.394 27.6926 217.115 26.9767 217.235 26.1282C217.314 25.5581 217.566 24.9748 217.54 24.418C217.5 23.6358 217.274 22.8668 217.128 22.0979C217.115 21.9918 217.102 21.8857 217.089 21.7797C217.155 21.7134 217.235 21.6206 217.248 21.5941C217.46 21.7797 217.858 21.952 217.872 22.1509C218.031 23.7551 218.137 25.3593 218.217 26.9767C218.243 27.401 218.124 27.8517 218.057 28.3423ZM220.048 19.4861C219.915 18.3459 219.782 17.1925 219.636 15.9197C219.384 16.2644 219.252 16.4368 219.119 16.6224C219.053 16.5826 218.92 16.5163 218.92 16.5163L219.663 11.2C219.782 11.2 219.889 11.2265 219.995 11.2265C220.287 13.9576 220.539 16.7019 220.048 19.4861ZM221.242 21.2759V25.5316H221.07C221.003 24.113 220.924 22.7077 220.844 21.2891L221.255 21.2626L221.242 21.2759ZM221.056 19.1281C221.163 19.6584 221.269 20.202 221.401 20.8516C220.061 20.4804 221.149 19.6452 221.056 19.1281ZM222.994 24.8953V26.0354H222.861C222.742 24.5108 222.622 22.9994 222.503 21.3952C223.087 21.6736 223.127 21.8857 222.941 22.5088C222.728 23.238 222.967 24.0998 222.994 24.8953ZM227.267 33.5526C227.174 34.0299 226.749 34.295 226.643 34.6927C226.471 35.3821 226.444 36.1113 226.338 36.92C225.555 36.0185 224.865 35.1435 224.905 33.9503C224.945 32.8367 225.091 31.7363 225.183 30.6226H225.396V34.8386C225.688 34.7855 225.86 34.7458 226.046 34.706V30.7817H226.179L226.471 34.0299H226.736V30.7154C227.227 31.2325 227.439 32.6378 227.267 33.5526ZM228.05 34.1757C228.05 34.1757 227.944 34.2022 227.891 34.2022C227.851 34.0431 227.758 33.8973 227.758 33.7382C227.731 32.8897 227.705 32.0412 227.731 31.1927C227.731 30.9938 227.917 30.8082 228.023 30.6226C228.103 30.6624 228.196 30.6889 228.275 30.7154C228.209 31.8688 228.129 33.0223 228.05 34.1757ZM228.926 32.6378C228.727 31.8953 228.541 31.1264 228.461 30.3574C228.435 30.0923 228.74 29.7874 229.018 29.2968C229.456 30.4768 229.523 31.3916 229.164 32.3461C229.125 32.4654 229.191 32.651 229.257 32.7836C229.324 32.9029 229.443 32.9957 229.536 33.1018C229.536 33.1018 229.523 33.1416 229.417 33.473C229.178 33.0886 228.992 32.8764 228.926 32.6378ZM229.629 40.1417C229.549 40.1284 229.456 40.1284 229.377 40.1284C229.417 39.3462 229.456 38.5508 229.496 37.7818H229.629V40.1417Z" fill="black"/>
<path d="M104.81 8.05845C103.43 7.93913 102.036 7.92587 100.656 7.89936C99.5679 7.87284 99.5679 7.89936 99.5679 8.95998V42.5154C99.5679 42.7143 99.5016 42.9396 99.5812 43.0855C99.6873 43.2843 99.8864 43.5628 100.059 43.5628C102.806 43.5893 105.566 43.5893 108.34 43.5893C108.379 43.4434 108.393 43.4169 108.393 43.3904C108.393 32.9963 108.432 22.6022 108.393 12.2081C108.379 10.0471 106.734 8.2308 104.796 8.05845H104.81Z" fill="black"/>
<path d="M202.16 36.297C202.16 35.7932 201.855 35.3027 201.669 34.7061C201.483 35.1701 201.351 35.528 201.178 35.939C200.634 34.9447 199.4 34.7856 198.152 35.422C198.179 35.9788 198.219 36.4959 198.245 37.0262L198.02 37.0527C197.94 36.8538 197.861 36.655 197.741 36.35C197.555 36.5887 197.436 36.761 197.316 36.9201C197.157 36.708 196.998 36.4959 196.839 36.2837C196.693 36.3765 196.547 36.4826 196.401 36.5754C196.003 36.0716 195.711 35.4352 195.233 35.1833C194.769 34.9314 194.092 35.0508 193.415 34.9977C193.627 35.475 193.946 35.8727 193.959 36.2837C193.986 37.1057 193.893 37.941 193.813 38.7629C193.667 38.3785 193.534 37.9807 193.362 37.6095C193.282 37.4372 193.123 37.3046 193.057 37.225C192.897 36.5489 192.752 35.9258 192.606 35.3027H192.367C192.327 35.7667 192.234 36.244 192.261 36.7212C192.3 37.6228 192.473 38.511 192.473 39.4126C192.486 40.5925 192.407 41.7857 192.353 42.9656C192.353 43.0982 192.234 43.2175 192.115 43.4827C191.982 41.0168 191.862 38.7232 191.756 36.6815C190.801 35.8595 189.819 35.3159 189.354 34.4939C188.877 33.6454 188.903 32.5185 188.704 31.4446C188.624 31.67 188.558 31.8689 188.492 32.0678C188.24 31.8556 188.08 31.6037 188.107 31.3651C188.24 30.2647 188.452 29.1643 188.585 28.0639C188.757 26.6719 189.593 25.2798 188.624 23.7949C188.253 24.0468 187.895 24.2855 187.47 24.5639C187.417 24.365 187.284 24.1396 187.284 23.9275C187.284 23.0127 187.284 22.0979 187.337 21.1964C187.377 20.4142 187.43 19.632 187.536 18.863C187.616 18.2399 188.041 17.5638 187.881 17.0335C187.656 16.2645 188.492 15.1111 187.191 14.8194C187.417 14.5675 187.788 14.3554 187.802 14.1167C187.868 12.9898 187.828 11.8762 187.828 10.8288C187.642 10.7625 187.47 10.6962 187.297 10.6034C187.271 10.6034 187.364 10.3515 187.377 10.3515C187.589 10.3913 187.788 10.4443 187.921 10.4841C187.988 10.1262 188.041 9.75494 188.107 9.41024C188.386 9.50304 188.691 9.63562 188.704 9.6091C188.85 9.3572 188.956 9.09205 189.023 8.81364C189.023 8.77386 188.757 8.60151 188.598 8.60151C188.014 8.58826 187.43 8.60151 186.846 8.60151C186.833 8.54848 186.833 8.49545 186.833 8.44242C186.634 8.61477 186.422 8.78712 186.09 9.06553C186.156 8.60151 186.196 8.30984 186.249 7.91211C186.037 7.95188 185.665 7.96514 185.665 8.03143C185.572 8.70758 184.869 9.15834 185.055 9.98032C185.201 10.6034 185.081 11.2928 185.081 11.9557H184.842C184.75 10.6167 184.657 9.27766 184.564 7.92536H183.768C183.754 8.36287 183.728 8.77387 183.715 9.19811C183.622 9.19811 183.529 9.21137 183.436 9.21137C183.396 8.89318 183.369 8.575 183.316 8.0712C182.653 8.0712 181.923 8.0712 181.193 8.0712C181.1 8.0712 180.941 8.17726 180.941 8.24355C180.808 9.05228 180.583 9.87426 180.583 10.6962C180.569 11.6508 180.835 12.6186 180.848 13.5864C180.875 14.7266 180.755 15.88 180.702 17.0865C179.203 16.0922 180.304 14.488 179.68 13.1357C179.627 13.4273 179.574 13.5467 179.574 13.6527C179.627 14.6338 179.72 15.6016 179.72 16.5827C179.707 17.988 179.574 19.3933 179.574 20.7987C179.574 22.8934 179.654 25.0014 179.694 27.0961C179.72 28.8594 179.76 30.6227 179.76 32.386C179.76 33.1947 179.72 34.0034 179.733 34.8121C179.773 36.7478 179.813 38.6834 179.906 40.6058C179.959 41.7062 180.105 42.7933 180.198 43.8672C180.609 43.907 180.901 43.9467 181.167 43.9732C181.206 44.3047 181.233 44.5831 181.26 44.8615C181.326 44.888 181.392 44.9013 181.459 44.9145C181.578 44.6361 181.684 44.3577 181.79 44.1058C183.768 44.013 185.785 44.1058 187.735 43.4164C187.842 43.7876 187.934 44.1058 188.041 44.4903C188.744 43.96 189.381 43.4032 190.535 44.1323C190.336 41.8255 190.151 39.7838 189.978 37.7288C190.058 37.6891 190.124 37.6625 190.19 37.636L190.695 38.9485C190.854 38.8292 191.066 38.6967 191.252 38.5773C191.318 40.4467 191.398 42.2365 191.464 43.9467C192.287 43.7479 192.911 43.5888 193.654 43.4032C193.8 43.3236 194.105 43.138 194.503 42.8861C194.211 42.7403 193.919 42.6077 193.548 42.4353C193.933 42.263 194.171 42.1569 194.291 42.1039C194.065 41.852 193.694 41.6266 193.694 41.4012C193.667 40.5395 193.76 39.6645 193.8 38.8027C193.972 38.7232 194.185 38.6701 194.264 38.5376C194.357 38.3652 194.331 38.1133 194.344 37.9012C195.207 39.1474 194.662 40.5925 195.034 41.8918H195.273V37.8349C195.406 38.1531 195.552 38.3785 195.591 38.6304C195.631 38.9485 195.485 39.333 195.618 39.5982C195.883 40.1417 195.339 41.03 196.321 41.2421C195.697 40.1683 196.162 39.1342 196.295 38.0868H196.52C196.454 39.1342 196.388 40.1815 196.321 41.2289C196.361 41.4012 196.388 41.5868 196.454 41.905C196.693 41.5736 196.825 41.4012 196.945 41.2421C197.157 41.3217 197.343 41.3747 197.529 41.4543C197.157 42.1304 196.799 42.8198 196.48 43.4032C196.812 43.5357 197.277 43.8804 197.701 43.8539C198.139 43.8141 198.922 43.4164 198.922 43.1778C198.935 41.8918 198.803 40.5925 198.617 39.3065C198.458 38.2061 198.511 37.4902 198.896 37.0129C198.962 38.0603 198.922 39.2137 199.161 40.3141C199.294 40.8974 199.48 41.3084 199.028 41.5338C199.134 42.1702 199.188 42.7005 199.307 43.2308C199.373 43.602 199.453 44.013 199.679 44.2782C199.785 44.3975 200.236 44.2517 200.488 44.2251V39.1209C201.231 40.513 201.563 41.9183 200.899 43.4562C201.072 43.5225 201.351 43.5225 201.404 43.6418C201.961 44.7555 202.107 43.8274 202.134 43.4562C202.213 42.6077 202.16 41.7592 202.16 40.9107C202.16 39.3728 202.2 37.8349 202.134 36.297H202.16ZM180.569 17.5638V28.9787C179.826 27.9048 179.933 18.0676 180.569 17.5638ZM180.463 37.3311V34.8254C180.808 35.6606 180.782 36.4826 180.463 37.3311ZM184.935 28.634L184.816 28.6605H184.789C184.789 28.2098 184.829 27.7457 184.789 27.295C184.763 26.937 184.63 26.5923 184.577 26.2344C184.551 26.115 184.577 25.9559 184.643 25.8366C184.67 25.7703 184.896 25.7173 184.909 25.7438C184.988 25.8631 185.081 26.009 185.081 26.1415C185.055 26.9768 184.988 27.7988 184.935 28.634ZM185.572 43.2971V40.0092L185.758 39.9827C185.811 40.9902 185.878 41.9846 185.917 42.9789C185.917 43.0717 185.705 43.1778 185.572 43.2971ZM185.586 34.9049V30.4371C186.13 31.2723 186.17 33.8841 185.586 34.9049ZM186.554 25.651C186.196 25.187 186.169 23.3574 186.554 22.6813V25.651ZM186.793 20.507C186.753 21.1036 186.727 21.7002 186.687 22.2968H186.461V20.4937C186.581 20.4937 186.687 20.4937 186.793 20.4937V20.507ZM187.55 36.7875V42.2365H187.271V36.7743H187.55V36.7875ZM187.483 34.2155C186.767 32.5185 187.417 30.7287 187.072 29.0052C187.669 30.7155 187.855 32.4522 187.483 34.2155ZM189.487 42.5547C189.115 42.4751 188.916 41.9713 188.877 41.0433C188.744 41.083 188.611 41.1228 188.279 41.2156C188.452 40.0357 188.611 38.9618 188.77 37.8879C188.877 37.8481 188.996 37.8084 189.115 37.7686C189.315 37.9675 189.686 38.1663 189.686 38.3652C189.66 39.7705 189.567 41.1493 189.487 42.5547ZM192.685 42.3956C192.752 41.2024 192.805 40.1815 192.858 39.1607H193.017C193.123 39.9694 193.256 40.7781 193.282 41.5868C193.282 41.799 192.964 42.0376 192.685 42.3956ZM197.582 41.4278C197.078 40.6455 196.706 39.8633 197.091 38.7364C197.29 39.3993 197.423 39.8766 197.622 40.5925C197.821 40.0357 197.927 39.7042 198.113 39.1607C198.219 39.9827 198.405 40.5925 198.365 41.1891C198.338 41.6399 197.94 41.6399 197.582 41.4278Z" fill="black"/>
<path d="M162.469 8.0979H161.58V43.8806H162.469V8.0979Z" fill="black"/>
<path d="M207.76 38.4722C207.746 38.3927 207.773 38.3131 207.773 38.2336V36.3245C207.282 36.7487 206.924 37.0669 206.565 37.3718V43.3643H206.579C207.839 43.4969 208.092 43.3378 208.092 42.3302C208.078 42.1711 208.065 42.0121 208.052 41.853C207.959 40.726 207.853 39.5991 207.76 38.4722Z" fill="black"/>
<path d="M264.424 35.2237H264.437L264.424 35.2107V35.2237Z" fill="black"/>
<path d="M263.72 32.5191V31.6309H263.468C262.619 33.9642 263.163 36.3904 263.096 38.79C263.932 37.5968 263.84 36.218 263.84 34.7067C264.132 34.9586 264.251 35.0646 264.423 35.2105C264.782 34.2029 264.45 33.076 263.72 32.5191Z" fill="black"/>
<path d="M234.658 38.7502C234.088 39.6385 234.34 42.2636 235.057 42.4359C235.057 41.7465 234.977 41.0969 235.07 40.487C235.229 39.5457 235.176 39.1215 234.658 38.7502Z" fill="black"/>
<path d="M236.198 40.0762C236.198 40.0762 235.932 40.0762 235.787 40.0762C235.787 40.1822 235.773 40.3811 235.8 40.3811C236.795 40.6463 236.251 41.4152 236.331 41.972L236.185 41.6141C236.331 42.4891 235.601 43.6027 236.941 44.2391C236.875 43.1122 236.848 42.0648 236.729 41.044C236.689 40.6993 236.41 40.3811 236.198 40.0762Z" fill="black"/>
<path d="M261.318 31.0477C261.385 29.8678 261.915 28.7939 261.132 27.7598C260.522 29.7882 260.535 30.1197 261.318 31.0477Z" fill="black"/>
<path d="M258.89 32.1616C259.659 30.8491 259.208 29.5631 259.155 28.2771H258.89V32.1616Z" fill="black"/>
<path d="M258.691 40.0625C258.598 40.089 258.505 40.1288 258.412 40.1686C258.492 40.858 258.585 41.5341 258.678 42.2235C258.784 42.2633 258.877 42.3163 258.969 42.3561C259.235 41.9849 259.514 41.6137 259.779 41.2425C259.646 41.2159 259.514 41.1894 259.368 41.1496C259.169 40.8315 258.93 40.447 258.691 40.0625Z" fill="black"/>
<path d="M217.168 9.91479L216.757 13.0304L217.062 13.0436C216.956 12.036 218.203 11.108 217.168 9.91479Z" fill="black"/>
<path d="M189.566 9.29199H189.328L189.115 12.222H189.566V9.29199Z" fill="black"/>
<path d="M188.266 15.7874L188.863 17.6037C189.394 16.6491 189.141 15.9199 188.266 15.7874Z" fill="black"/>
<path d="M260.217 29.457C260.124 28.5688 260.044 27.7733 259.951 26.9248C259.314 27.1104 259.38 27.9059 260.217 29.457Z" fill="black"/>
<path d="M228.634 41.7599C228.528 40.8981 228.408 40.0496 228.289 39.0818C227.864 40.1822 228.01 41.1898 228.634 41.7599Z" fill="black"/>
<path d="M239.807 17.2463C239.688 18.2009 239.356 19.1555 239.807 20.0835V17.2463Z" fill="black"/>
</svg>
