<svg width="254" height="59" viewBox="0 0 254 59" fill="none" xmlns="http://www.w3.org/2000/svg">
<path d="M90.8284 47.3658C81.1088 47.3658 74.499 40.9294 74.499 30.6897C74.499 21.1056 81.721 14.3604 90.6983 14.3604C95.3848 14.3604 98.928 15.7148 102.211 19.0901L98.2725 23.6844C96.127 21.539 93.6781 20.4879 90.6983 20.4879C85.2263 20.4879 81.7264 24.8222 81.7264 30.6897C81.7264 37.2561 84.9229 41.2382 90.8338 41.2382C94.8592 41.2382 96.8313 39.5316 98.8901 37.6028L102.916 42.1972C99.9412 45.3937 96.3925 47.3604 90.8338 47.3604L90.8284 47.3658Z" fill="black"/>
<path d="M141.648 46.8401V28.4087C141.648 27.3576 141.735 26.3499 141.778 26.2198C141.735 26.3499 141.469 26.9621 141.209 27.4443L134.074 40.5338H131.403L124.137 27.4443C123.877 27.0054 123.612 26.3932 123.569 26.2198C123.569 26.3499 123.699 27.3576 123.699 28.4087V46.8401H116.693V14.8857H123.563L132.188 30.4674C132.497 31.0363 132.757 31.7785 132.801 31.914C132.801 31.8273 133.066 31.0363 133.369 30.4674L141.512 14.8857H148.648V46.8401H141.642H141.648Z" fill="black"/>
<path d="M154.867 46.8401V14.8857H161.872V46.8401H154.867Z" fill="black"/>
<path d="M189.888 46.8401L175.791 28.2353C175.395 27.6664 175.048 27.0542 175 26.9675C175 27.0108 175.086 27.8019 175.086 28.5441V46.8401H168.081V14.8857H174.122L188.219 33.3172C188.658 33.8861 188.961 34.4983 189.01 34.6283C189.01 34.585 188.923 33.794 188.923 33.0084V14.8857H195.929V46.8401H189.888Z" fill="black"/>
<path d="M211.82 46.8401H202.149V14.8857H211.82C220.928 14.8857 228.453 20.4878 228.453 30.8196C228.453 41.1514 220.31 46.8401 211.82 46.8401ZM211.82 20.7966H209.149V40.9347H211.82C217.774 40.9347 221.231 36.2049 221.231 30.825C221.231 25.4451 217.422 20.802 211.82 20.802V20.7966Z" fill="black"/>
<path d="M241.893 47.3658C237.472 47.3658 234.233 45.7458 231.166 43.3837L234.801 38.4805C236.681 39.9704 239.396 41.2382 242.023 41.2382C245.22 41.2382 246.092 40.1438 246.092 38.2205C246.092 35.024 240.268 33.9296 237.602 32.4397C234.406 30.6897 231.865 28.6743 231.865 23.5978C231.865 17.0313 237.602 14.3604 243.248 14.3604C246.271 14.3604 249.901 15.1947 252.485 17.118L249.332 22.3246C247.929 21.2735 245.567 20.4879 243.248 20.4879C240.008 20.4879 238.87 22.3246 238.87 23.5978C238.87 26.4855 242.939 27.3631 246.661 28.9831C249.771 30.3375 253.097 32.5263 253.097 37.7816C253.097 43.8225 248.806 47.3658 241.893 47.3658Z" fill="black"/>
<path d="M14.1996 27.1572C17.2444 26.8918 17.602 31.4102 14.5951 31.7245C11.6912 31.8816 11.3282 27.6123 14.1508 27.1681H14.1996V27.1572Z" fill="black"/>
<path d="M14.9623 21.8753C17.1023 21.4256 18.381 24.037 16.8477 25.5432C15.97 26.4805 14.3555 26.3884 13.6078 25.3481C12.6814 24.1562 13.4887 22.2058 14.9135 21.8807L14.9623 21.8699V21.8753Z" fill="black"/>
<path d="M15.0937 32.7329C17.1633 32.3591 18.4148 35.0355 16.9249 36.4604C16.0201 37.3923 14.3677 37.2189 13.6634 36.1407C12.764 34.9109 13.5333 32.9876 15.0449 32.7438L15.0937 32.7329Z" fill="black"/>
<path d="M17.97 37.5868C19.2811 37.4026 20.5489 38.7463 20.1859 40.0574C19.9259 41.3089 18.4414 42.0782 17.3036 41.4931C15.4616 40.6533 15.9925 37.8631 17.9213 37.5923H17.97V37.5868Z" fill="black"/>
<path d="M17.7912 17.21C19.059 16.9283 20.3809 18.1148 20.1642 19.4205C20.018 20.6829 18.6039 21.6256 17.4336 21.1813C15.4345 20.4878 15.7812 17.6651 17.7425 17.2209L17.7912 17.21Z" fill="black"/>
<path d="M22.283 41.1946C24.1196 41.07 25.0786 43.4539 23.6862 44.6675C22.8247 45.4964 21.3348 45.2093 20.766 44.1799C20.0346 43.0259 20.8852 41.303 22.2342 41.2001H22.283V41.1946Z" fill="black"/>
<path d="M22.4667 13.6996C23.8158 13.7538 24.726 15.417 24.0108 16.5819C23.469 17.6058 22.0225 17.9472 21.134 17.1724C19.6766 16.0238 20.5976 13.6292 22.418 13.6942H22.4667V13.6996Z" fill="black"/>
<path d="M27.4072 43.2051C28.6967 42.9938 29.8236 44.3591 29.3956 45.589C29.1084 46.613 27.8786 47.1927 26.9196 46.7755C25.1859 46.0874 25.5327 43.4814 27.3585 43.2106H27.4072V43.2051Z" fill="black"/>
<path d="M27.4558 11.8741C28.6802 11.8036 29.6284 13.1147 29.2599 14.2687C28.9782 15.3523 27.6183 15.9483 26.654 15.4173C25.0178 14.5776 25.5596 11.9662 27.407 11.8795H27.4558V11.8741Z" fill="black"/>
<path d="M34.3211 46.1898C33.5896 46.9863 32.0564 46.9212 31.6284 45.8431C31.2004 44.8733 31.8451 43.6543 32.8637 43.4105C34.5378 42.9608 35.4751 44.9762 34.359 46.1519L34.3211 46.1898Z" fill="black"/>
<path d="M32.8629 12.042C34.5316 11.8903 35.236 14.0682 33.9519 15.0597C33.2097 15.6882 32.0069 15.4281 31.5681 14.5721C31.0209 13.6023 31.7144 12.1774 32.8142 12.0474H32.8629V12.042Z" fill="black"/>
<path d="M19.8011 27.7372C22.0658 27.5693 22.1904 30.8254 19.9474 30.9121C18.0078 30.82 17.8453 28.0894 19.7524 27.7481H19.8011V27.7372Z" fill="black"/>
<path d="M21.2367 22.672C22.6995 22.5583 23.3604 24.4003 22.1685 25.2618C21.475 25.7927 20.3427 25.5001 20.0122 24.6766C19.6492 23.8369 20.2831 22.7696 21.1879 22.6774H21.2367V22.672Z" fill="black"/>
<path d="M22.445 35.496C21.0688 36.8992 18.9721 34.965 20.3753 33.5293C21.7027 32.2453 23.6965 34.0277 22.4775 35.458L22.4395 35.496H22.445Z" fill="black"/>
<path d="M37.9668 14.1767C39.3266 13.9004 40.1339 15.6178 39.1912 16.5768C38.6061 17.254 37.5225 17.1619 37.0512 16.4251C36.4877 15.6395 37.0078 14.3988 37.918 14.1875L37.9668 14.1767Z" fill="black"/>
<path d="M38.3573 41.7095C40.221 41.807 40.1126 44.5647 38.2381 44.4942C36.4664 44.3534 36.5315 41.7637 38.3031 41.7095H38.3518H38.3573Z" fill="black"/>
<path d="M24.9427 37.0018C25.8583 36.7688 26.7469 37.7332 26.4597 38.6326C26.2647 39.4127 25.3545 39.8733 24.6393 39.5265C23.4745 39.0335 23.7237 37.289 24.894 37.0072L24.9427 36.9964V37.0018Z" fill="black"/>
<path d="M25.0943 18.9502C25.9503 18.8689 26.6817 19.7737 26.4379 20.6026C26.2321 21.4965 25.0672 21.9462 24.3629 21.3394C23.431 20.6351 23.9078 19.0639 25.0455 18.9556H25.0943V18.9502Z" fill="black"/>
<path d="M30.1331 17.6931C31.1895 17.4655 32.0293 18.7929 31.3033 19.6327C30.7886 20.3153 29.6455 20.1636 29.2933 19.3889C28.952 18.7441 29.3962 17.861 30.0843 17.7039L30.1331 17.6931Z" fill="black"/>
<path d="M30.2953 38.5074C31.8231 38.4153 32.0831 40.6366 30.5661 40.8859C28.9787 41.0809 28.6645 38.7458 30.2411 38.5128H30.2953V38.5074Z" fill="black"/>
<path d="M25.7719 30.1699C25.2247 30.5817 24.3632 30.2512 24.2061 29.5902C24.0165 28.9672 24.5258 28.2628 25.1759 28.2845C26.1186 28.252 26.552 29.5848 25.8152 30.1428L25.7773 30.1753L25.7719 30.1699Z" fill="black"/>
<path d="M35.6003 37.251C37.3937 37.4514 36.6081 40.0899 35.0261 39.1364C34.2405 38.6 34.5872 37.2672 35.5516 37.251H35.6003Z" fill="black"/>
<path d="M34.8678 19.513C35.5234 18.8737 36.7316 19.3667 36.634 20.3202C36.5961 21.0137 35.7834 21.5176 35.1387 21.2358C34.4669 20.9812 34.3369 20.0277 34.8353 19.5509L34.8733 19.513H34.8678Z" fill="black"/>
<path d="M42.3551 38.5672C43.8775 38.3342 43.9588 40.4905 42.5122 40.5717C41.3203 40.5501 41.2119 38.8868 42.3063 38.578L42.3551 38.5672Z" fill="black"/>
<path d="M51.8753 24.9684C52.5254 24.8817 53.1376 25.5697 52.9697 26.2145C52.8451 26.8646 52.0541 27.2059 51.5015 26.8104C50.7592 26.3662 50.9542 25.1038 51.8265 24.9738H51.8753V24.9684Z" fill="black"/>
<path d="M52.7529 32.3478C53.6143 33.3014 52.2707 34.645 51.3334 33.7348C50.3907 32.8029 51.7614 31.4051 52.7149 32.3099L52.7529 32.3478Z" fill="black"/>
<path d="M7.64318 32.2773C8.65632 31.4267 9.93493 32.8787 8.94888 33.7726C7.96825 34.6341 6.69506 33.2146 7.60526 32.3152L7.64318 32.2827V32.2773Z" fill="black"/>
<path d="M8.17929 24.7843C8.82943 24.7517 9.37663 25.4777 9.15992 26.1008C8.99196 26.713 8.22263 27.0001 7.6971 26.6101C6.94944 26.1333 7.23117 24.8493 8.13053 24.7897H8.17929V24.7843Z" fill="black"/>
<path d="M11.5877 39.1638C12.5196 38.3294 13.8253 39.646 12.9584 40.5616C12.0211 41.4989 10.645 40.1607 11.5552 39.2017L11.5931 39.1638H11.5877Z" fill="black"/>
<path d="M48.8034 39.2391C49.6594 40.2468 48.2128 41.5092 47.3243 40.5231C46.5062 39.5696 47.8824 38.3235 48.7655 39.2012L48.8034 39.2391Z" fill="black"/>
<path d="M48.7381 19.8549C48.0392 20.5322 46.8364 19.7953 47.129 18.8689C47.7195 17.3194 49.8325 18.5547 48.776 19.817L48.7381 19.8549Z" fill="black"/>
<path d="M30.778 6.9978C32.1108 7.0574 32.0295 9.02407 30.6805 8.92113C29.5698 8.74776 29.5752 7.08991 30.7292 7.00322H30.778V6.9978Z" fill="black"/>
<path d="M12.1511 17.9575C13.7764 18.0713 13.0883 20.5256 11.6526 19.7508C10.8887 19.2903 11.2354 18.0117 12.1023 17.9575H12.1511Z" fill="black"/>
<path d="M21.9631 7.55036C22.5591 7.41491 23.1767 7.97837 23.09 8.58516C23.0358 9.22447 22.2882 9.63622 21.7247 9.32199C20.9445 8.94816 21.0962 7.75623 21.9198 7.55577L21.9685 7.54494L21.9631 7.55036Z" fill="black"/>
<path d="M16.3717 44.8355C17.3794 44.5917 17.9429 45.8215 17.1898 46.4879C16.7781 46.8834 16.0466 46.8292 15.7324 46.3525C15.3748 45.8215 15.7162 45.0088 16.323 44.8463L16.3717 44.8355Z" fill="black"/>
<path d="M43.5755 44.831C44.4315 44.6467 45.0545 45.7086 44.4748 46.375C44.0793 46.8897 43.2287 46.8356 42.9037 46.2721C42.5732 45.7412 42.9362 44.9772 43.5267 44.8418L43.5755 44.831Z" fill="black"/>
<path d="M30.1381 49.8043C30.7503 49.7284 31.3788 50.3623 31.2054 50.9854C31.0646 51.6138 30.279 51.9118 29.7426 51.538C29.0112 51.0937 29.2496 49.9343 30.0893 49.8097H30.1381V49.8043Z" fill="black"/>
<path d="M43.5156 12.3233C44.8592 12.0253 45.1789 13.8998 43.8678 14.1707C42.6975 14.317 42.3779 12.7188 43.4669 12.3395L43.5156 12.3233Z" fill="black"/>
<path d="M37.9398 7.73502C38.487 7.62125 39.0559 8.10344 39.0288 8.67231C39.0396 9.36037 38.2432 9.86965 37.6473 9.50666C36.8942 9.12199 37.0838 7.91381 37.8911 7.74586L37.9398 7.73502Z" fill="black"/>
<path d="M37.9509 49.3922C38.7906 49.2405 39.3757 50.3566 38.796 50.9796C38.4493 51.3968 37.7396 51.3914 37.382 50.9688C36.9052 50.4541 37.2032 49.5222 37.8967 49.3976L37.9454 49.3868L37.9509 49.3922Z" fill="black"/>
<path d="M22.0433 49.3809C22.8452 49.1967 23.4953 50.199 23.0131 50.8653C22.7043 51.3367 21.9675 51.418 21.572 51.017C21.041 50.5294 21.2848 49.5434 21.9946 49.3917L22.0433 49.3809Z" fill="black"/>
<path d="M16.1551 12.1501C17.6992 11.7329 17.943 14.0409 16.3664 14.0084C15.4074 13.9325 15.234 12.5185 16.1117 12.1663L16.1605 12.1501H16.1551Z" fill="black"/>
<path d="M42.3561 18.2069C43.1796 18.0877 43.6835 19.2362 43.0605 19.778C41.8523 20.7478 40.8337 18.6132 42.3074 18.2123H42.3561V18.2069Z" fill="black"/>
<path d="M27.6138 32.9648C28.2043 32.824 28.8057 33.4253 28.6323 34.0213C28.5131 34.5197 27.9388 34.8123 27.4675 34.5848C26.7469 34.2868 26.8174 33.1761 27.565 32.9757L27.6138 32.9648Z" fill="black"/>
<path d="M27.2341 24.1075C27.8518 23.6037 28.8161 24.2159 28.5886 24.9961C28.464 25.5541 27.7326 25.8304 27.2612 25.4945C26.8115 25.2019 26.8007 24.4814 27.1962 24.14L27.2341 24.1075Z" fill="black"/>
<path d="M44.7616 34.2272C45.3847 33.6529 46.3816 34.5252 45.8289 35.2024C45.2005 35.9392 44.079 34.9749 44.7237 34.2597L44.7616 34.2272Z" fill="black"/>
<path d="M45.1133 23.1914C45.7851 23.0667 46.2023 23.9715 45.6876 24.4158C44.7991 25.0984 43.9864 23.5543 45.07 23.2022L45.1187 23.1914H45.1133Z" fill="black"/>
<path d="M45.9529 28.68C46.3864 28.4849 46.939 28.8533 46.9065 29.3355C46.9065 29.7798 46.4297 30.1211 46.0071 29.9802C45.4112 29.8231 45.3732 28.9508 45.9096 28.7016L45.9529 28.68Z" fill="black"/>
<path d="M32.885 33.1607C33.4106 33.0794 33.7898 33.7675 33.4485 34.1792C32.6792 34.9973 31.7852 33.5182 32.8417 33.1661L32.8905 33.1552L32.885 33.1607Z" fill="black"/>
<path d="M33.3294 25.3431C32.793 25.7007 32.1375 25.1155 32.4192 24.5413C32.5763 24.1891 33.0856 24.0266 33.3836 24.2541C33.7141 24.5033 33.7141 25.0722 33.3727 25.3106L33.3294 25.3377V25.3431Z" fill="black"/>
<path d="M39.3481 33.979C40.1878 33.9574 40.0416 35.1818 39.2289 34.9488C38.7684 34.7755 38.8171 34.0874 39.2993 33.9899L39.3481 33.979Z" fill="black"/>
<path d="M39.24 23.5814C39.8685 23.3972 40.1882 24.264 39.5976 24.5403C38.9475 24.822 38.5574 23.8793 39.1913 23.5976L39.24 23.5814Z" fill="black"/>
<path d="M40.7141 28.7834C41.5105 28.7508 41.4076 29.9753 40.622 29.7531C40.1723 29.6014 40.194 28.8917 40.6653 28.7942L40.7141 28.7834Z" fill="black"/>
<path d="M35.9412 29.07C36.2012 29.6551 35.2748 29.8231 35.2314 29.2326C35.2314 28.8479 35.7191 28.7449 35.9141 29.0267L35.9412 29.07Z" fill="black"/>
<path d="M30.4527 29.0645C30.7074 29.1295 30.664 29.5142 30.404 29.5359C30.0356 29.563 30.0572 29.032 30.404 29.0591L30.4473 29.0699L30.4527 29.0645Z" fill="black"/>
<path d="M23.9077 1.88862C23.9077 2.97761 22.7591 3.92031 21.6701 3.65484C20.3915 3.41645 19.7034 1.78569 20.5324 0.75088C21.5618 -0.695681 23.9023 0.10074 23.9077 1.83986V1.88862Z" fill="black"/>
<path d="M15.0223 8.12452C15.0115 9.18642 13.8954 10.1074 12.8335 9.89615C11.5224 9.70111 10.8073 8.04325 11.647 6.9922C12.6818 5.5348 15.0278 6.31497 15.0223 8.07576V8.12452Z" fill="black"/>
<path d="M9.01412 15.0539C9.01412 16.1429 7.86554 17.0856 6.77655 16.8201C5.49794 16.5817 4.80988 14.951 5.63881 13.9162C6.6682 12.4696 9.0087 13.266 9.01412 15.0051V15.0539Z" fill="black"/>
<path d="M3.80164 24.6594C3.79081 25.7213 2.67473 26.6424 1.61284 26.4311C0.301722 26.236 -0.413431 24.5782 0.426333 23.5271C1.46114 22.0697 3.80706 22.8499 3.80164 24.6107V24.6594Z" fill="black"/>
<path d="M3.73719 35.2026C3.72635 36.2645 2.61028 37.1856 1.54838 36.9743C0.237269 36.7792 -0.477884 35.1214 0.36188 34.0703C1.39669 32.6129 3.74261 33.3931 3.73719 35.1539V35.2026Z" fill="black"/>
<path d="M8.99793 43.4107C8.98709 44.4726 7.87102 45.3936 6.80913 45.1823C5.49801 44.9872 4.78286 43.3294 5.62262 42.2783C6.65743 40.8209 9.00335 41.6011 8.99793 43.3619V43.4107Z" fill="black"/>
<path d="M15.1845 50.8936C15.1736 51.9555 14.0575 52.8765 12.9956 52.6652C11.6845 52.4702 10.9694 50.8123 11.8091 49.7612C12.844 48.3038 15.1899 49.084 15.1845 50.8448V50.8936Z" fill="black"/>
<path d="M23.4526 56.2724C23.4526 57.3614 22.304 58.3041 21.215 58.0386C19.9364 57.8002 19.2484 56.1695 20.0773 55.1347C21.1067 53.6881 23.4472 54.4845 23.4526 56.2237V56.2724Z" fill="black"/>
<path d="M33.3514 56.749C33.3406 57.8109 32.2245 58.732 31.1626 58.5207C29.8515 58.3256 29.1364 56.6678 29.9761 55.6167C31.0109 54.1593 33.3569 54.9395 33.3514 56.7003V56.749Z" fill="black"/>
<path d="M42.6532 56.2844C42.6424 57.3463 41.5263 58.2674 40.4644 58.0561C39.1533 57.861 38.4381 56.2032 39.2779 55.1521C40.3127 53.6947 42.6586 54.4749 42.6532 56.2357V56.2844Z" fill="black"/>
<path d="M49.8266 51.3046C49.8266 52.3936 48.678 53.3363 47.5891 53.0709C46.3104 52.8325 45.6224 51.2017 46.4513 50.1669C47.4807 48.7203 49.8212 49.5168 49.8266 51.2559V51.3046Z" fill="black"/>
<path d="M54.9411 43.3184C54.9085 44.3587 53.4999 44.8192 52.8714 43.9686C52.308 43.313 52.7739 42.224 53.6299 42.1319C54.2909 42.029 54.9573 42.6141 54.9465 43.2697V43.3184H54.9411Z" fill="black"/>
<path d="M59.2589 35.0571C59.2373 35.6531 58.5384 36.1028 57.9803 35.8481C57.3952 35.6206 57.2164 34.8133 57.6769 34.3745C58.2133 33.7839 59.2806 34.2282 59.2589 35.0084V35.0571Z" fill="black"/>
<path d="M59.2862 25.5545C59.2645 26.3021 58.2568 26.6922 57.7367 26.1396C57.2816 25.7224 57.4279 24.926 57.9967 24.6876C58.5656 24.4005 59.3024 24.8772 59.2862 25.5057V25.5545Z" fill="black"/>
<path d="M54.7192 15.8564C54.4863 17.4547 52.1674 16.6095 53.0451 15.2496C53.5436 14.5453 54.7355 14.9679 54.7192 15.8077V15.8564Z" fill="black"/>
<path d="M49.4472 8.55846C49.4472 9.4524 48.472 10.2055 47.5943 9.94C46.592 9.70704 46.1099 8.41218 46.7763 7.61576C47.5943 6.48885 49.4581 7.1444 49.4527 8.5097V8.55846H49.4472Z" fill="black"/>
<path d="M42.6913 1.96974C42.6805 3.03163 41.5644 3.95266 40.5025 3.74137C39.1914 3.54633 38.4762 1.88847 39.316 0.83741C40.3508 -0.619987 42.6967 0.160181 42.6913 1.92098V1.96974Z" fill="black"/>
<path d="M33.286 1.90528C33.2752 2.96718 32.1591 3.88821 31.0972 3.67691C29.7861 3.48187 29.0709 1.82402 29.9107 0.772957C30.9455 -0.68444 33.2914 0.095728 33.286 1.85652V1.90528Z" fill="black"/>
</svg>
