<svg width="84" height="22" viewBox="0 0 84 22" fill="none" xmlns="http://www.w3.org/2000/svg">
<path d="M83.988 16.3891C83.9075 19.6246 81.2743 21.1081 78.34 21.2141C76.4422 21.2812 74.4953 21.0234 72.727 20.331C72.664 20.112 72.699 19.8824 72.692 19.6599C72.6535 18.7627 72.5975 17.8585 72.5659 16.9613C72.5554 16.6646 72.5484 16.3573 72.5519 16.0641L73.2663 15.8381C73.9456 17.9009 75.4022 20.2251 77.8883 19.9284C79.8877 19.6882 80.7526 17.2333 79.0613 15.9687C77.0584 14.4676 73.4869 14.5876 72.9476 11.4228C72.3243 7.77752 75.5247 5.88425 78.7112 5.8454C80.1643 5.82774 81.7085 6.0644 83.0426 6.66134L83.1931 10.3454L82.4928 10.5327C81.9956 8.86898 80.9521 6.98631 79.0228 6.87327C77.5556 6.78497 76.7153 7.85877 76.8308 9.28578C76.9674 10.953 79.443 11.6029 80.714 12.1398C82.5594 12.9204 83.9075 13.8812 83.9985 16.0676C84.002 16.1771 83.9985 16.2866 83.9985 16.3961L83.988 16.3891Z" fill="#D9D9D9"/>
<path d="M47.782 0C47.775 0.240191 47.7435 0.480382 47.7295 0.717041C47.6839 1.64955 47.6804 2.58912 47.6279 3.52163L47.6034 6.8949C47.9185 6.7854 48.2267 6.62998 48.5418 6.51695C51.2975 5.51027 53.9132 5.96239 55.6395 8.45261C57.6283 11.3137 57.2887 16.167 54.9672 18.7526C51.9453 22.1188 47.1867 21.3346 43.237 20.494L43.314 18.9574C43.356 14.9484 43.4086 10.9252 43.3385 6.91256C43.3175 5.7222 43.4156 3.66998 42.9674 2.61384C42.6487 1.86148 42.0009 1.94625 41.3076 1.83676L41.2866 1.25747L47.7715 0.00353222L47.782 0ZM47.733 20.0772C48.1812 20.0666 48.6329 20.2785 49.0741 20.229C51.1505 19.9853 52.0679 16.8911 52.292 15.1356C52.5476 13.1363 52.4601 10.3706 51.168 8.72459C50.3241 7.65079 49.0496 7.45652 47.775 7.83094C47.705 7.85213 47.5754 7.86626 47.5614 7.94397C47.5929 11.3561 47.5859 14.7965 47.6594 18.2227L47.7365 20.0772H47.733Z" fill="#D9D9D9"/>
<path d="M16.9615 0.43042L17.1366 6.09964L17.0945 6.15968L16.1246 6.44226C15.4383 4.22403 14.2093 2.10116 11.6882 1.84684C10.4766 1.72321 9.15304 1.8857 7.9275 1.81858L7.85047 1.84331L7.76293 3.04426C7.67189 5.38966 7.62287 7.72799 7.63687 10.0769L10.081 10.0275C11.5341 9.87911 12.1294 8.48389 12.4235 7.22642H13.2744V14.1708H12.4235C12.1539 12.9945 11.6006 11.6276 10.2945 11.3521C9.41216 11.2637 8.51926 11.3061 7.63687 11.2637C7.63687 12.1009 7.63687 12.9416 7.66138 13.7787C7.6894 14.6582 7.72791 15.5519 7.78744 16.4279C7.84697 17.3038 7.86797 18.6249 8.43873 19.2819C9.07251 20.0131 10.0669 19.9601 10.9458 20.0272V20.8855H0V20.0272C0.763337 19.9 1.68074 19.9177 2.23048 19.2819C2.69969 18.7379 2.81874 17.4911 2.88177 16.7811C3.18641 13.3866 3.15139 9.87205 2.98332 6.47758C2.9413 5.60513 2.91679 4.69734 2.83275 3.82489C2.7277 2.75815 2.51761 1.8751 1.41813 1.48655C0.952421 1.32407 0.483213 1.32407 0 1.26049V0.43042H16.9615Z" fill="#D9D9D9"/>
<path d="M22.2625 5.84491C25.6555 5.73541 28.2431 7.31785 29.2726 10.6346C30.4211 14.3399 29.2656 18.8859 25.5505 20.5566C23.6001 21.4326 20.7218 21.4503 18.775 20.5566C14.6676 18.6704 13.8868 12.1958 16.3904 8.75193C17.8541 6.73857 19.8184 5.92262 22.2625 5.84491ZM22.1189 6.82334C19.8709 7.00348 19.5908 10.6947 19.5173 12.4078C19.4297 14.4247 19.5558 18.1123 20.9844 19.6453C21.8038 20.5248 23.0924 20.4895 23.8802 19.5817C25.0917 18.1865 25.1688 14.9227 25.1338 13.1425C25.1058 11.7261 25.0147 10.3167 24.5315 8.97446C24.1323 7.85828 23.474 6.71384 22.1189 6.82334Z" fill="#D9D9D9"/>
<path d="M71.6349 12.8534H62.5659C62.5204 14.1709 62.699 15.4849 63.3643 16.6329C64.0681 17.8515 65.0695 18.6498 66.4631 18.9253C67.9968 19.2326 69.7161 18.9853 70.9521 17.9822L71.3828 18.4767C71.0292 19.01 70.5214 19.4657 69.9997 19.8295C65.5913 22.9096 59.2009 20.7408 58.287 15.2341C57.5832 10.9884 59.7087 6.65432 64.1836 5.99027C65.3952 5.81012 66.7363 5.83485 67.8953 6.25872C70.5635 7.22654 71.698 10.176 71.6349 12.8569V12.8534ZM67.1529 11.7443C67.1354 10.5822 67.1144 9.31762 66.7398 8.2085C66.1655 6.52363 64.6178 6.31876 63.6724 7.81643C62.9546 8.9538 62.7095 10.4903 62.671 11.8184L67.1564 11.7443H67.1529Z" fill="#D9D9D9"/>
<path d="M29.8154 7.1198L36.2548 5.85879L36.2303 9.24266C36.7275 7.91102 37.7569 6.72772 39.0525 6.14137C40.0925 5.67159 41.2515 5.79875 42.2704 6.265L40.7157 10.2282C40.4671 10.1328 40.2325 9.97737 39.9804 9.8714C39.1611 9.51464 38.2857 9.35216 37.4033 9.53937C36.9621 9.63121 36.4369 9.83608 36.2093 10.2493C36.0272 12.6689 36.0097 15.1273 36.2303 17.5434C36.3003 18.3063 36.3493 19.3837 37.0916 19.8075C37.5959 20.0972 38.2296 19.9841 38.7864 20.0795V20.8884H29.8154V20.0936L29.8574 20.0583C30.5473 20.0124 31.132 19.9064 31.4997 19.2636C31.8848 18.5854 31.9094 16.8299 31.9479 16.0033C32.0214 14.3856 32.0179 12.7184 31.9199 11.1041C31.8743 10.3482 31.8428 8.90004 31.3911 8.30662C30.9849 7.77326 30.4387 7.74147 29.8154 7.7344V7.12686V7.1198Z" fill="#D9D9D9"/>
</svg>
