<svg width="86" height="14" viewBox="0 0 86 14" fill="none" xmlns="http://www.w3.org/2000/svg">
<g clip-path="url(#clip0_1456_3484)">
<path d="M30.9704 9.09503V7.33026H36.2833V13.6748L34.1769 13.6883L34.134 12.4459C33.3696 13.4559 32.1942 13.8333 30.9234 13.8387C28.8211 13.8481 27.0049 12.6743 26.2311 10.6946C25.5568 8.97012 25.5138 7.04016 26.1828 5.3103C27.1218 2.88072 29.4928 1.60884 32.037 1.93118C33.7323 2.14606 35.2637 2.95727 36.0563 4.58371L33.9607 5.77903C33.469 4.69115 32.4951 4.04649 31.3828 4.01694C30.2705 3.98739 29.1704 4.52864 28.6465 5.61383C27.9882 6.97837 27.9775 8.5793 28.5685 9.94384C29.0938 11.1566 30.1832 11.7476 31.4634 11.6925C32.8994 11.6307 34.0037 10.6436 33.9553 9.10577L30.9677 9.09234L30.9704 9.09503Z" fill="white"/>
<path d="M42.9395 13.8417C40.5793 13.7302 38.7175 12.2407 38.0377 10.0422C37.5944 8.61046 37.62 7.06326 38.0592 5.63828C38.8021 3.22884 40.9219 1.82132 43.4191 1.88175C45.5953 1.93548 47.484 3.10662 48.3062 5.16955C48.998 6.90478 49.006 8.86698 48.2914 10.6022C47.3954 12.7739 45.3414 13.9545 42.9409 13.8417H42.9395ZM43.0658 11.6874C44.4441 11.7532 45.4972 11.0924 45.9849 9.8971C46.5437 8.52853 46.5397 6.91686 45.8613 5.5859C45.3401 4.56383 44.3715 4.05482 43.3372 4.04273C42.3028 4.03064 41.3155 4.42684 40.7754 5.39921C39.9856 6.82554 39.9506 8.63597 40.6545 10.1012C41.1059 11.0414 41.9898 11.635 43.0658 11.6861V11.6874Z" fill="white"/>
<path d="M86 13.6736L83.2314 13.6776L80.1834 8.51624L78.6896 10.1736L78.6869 13.6843L76.332 13.6789V2.08838L78.6748 2.06152L78.7151 7.01605L82.8002 2.06555L85.7044 2.09913L81.7121 6.68163L86 13.6736Z" fill="white"/>
<path d="M71.7085 2.01343L74.0459 2L74.0486 9.64332C74.0486 11.4457 72.9592 12.962 71.2249 13.5422C69.9877 13.9559 68.5947 13.9438 67.3494 13.5167C65.7858 12.9808 64.6157 11.6082 64.6104 9.90656L64.5889 2.01746L66.9142 2.01477L66.9572 9.60572C66.9652 10.9528 68.1379 11.7089 69.3375 11.7009C70.603 11.6928 71.687 10.8883 71.6897 9.54662L71.7072 2.01343H71.7085Z" fill="white"/>
<path d="M14.3537 9.49424C14.7097 9.60705 15.0603 9.68092 15.2886 9.89313C15.4834 10.0744 15.4189 10.6802 15.2443 10.9004C14.9636 10.6009 14.4921 10.4102 14.257 10.6869C13.9883 11.0038 14.0407 11.5424 14.2046 11.7949C14.4531 12.175 15.0052 12.3523 15.4351 12.1427C16.0423 11.8459 16.4493 11.3879 16.7354 10.6654L15.7548 10.9931L16.3606 8.94761L17.0471 10.0973L17.0941 8.63334L18.4307 9.09132C17.4487 10.5109 16.8335 12.0702 16.4197 13.9693C11.886 13.4401 7.34956 13.3555 2.72179 14.0015C2.27715 12.1736 1.73847 10.5781 0.682617 9.1155L2.02729 8.61991C2.03266 9.24846 2.03266 9.48484 2.0864 10.1107L2.72179 8.93284L3.38271 10.9944L2.38462 10.6627C2.67881 11.4 3.063 11.8607 3.70242 12.1521C4.10139 12.3335 4.66425 12.1602 4.86978 11.8674C5.12501 11.5048 5.1868 10.8628 4.68037 10.5754C4.47349 10.4586 4.01005 10.7581 3.8381 10.9622C3.73869 10.6721 3.67287 10.1846 3.78571 9.96968C3.92676 9.69973 4.35125 9.58959 4.79724 9.54393C4.03691 8.79182 3.81661 7.52129 4.68977 6.70068C5.58577 7.07271 5.96325 8.37279 5.47293 9.37605C5.81951 9.33307 6.2843 9.2498 6.47237 9.36799C6.83104 9.59497 6.85388 10.3041 6.70208 10.5539C6.46834 10.3538 6.22117 10.1698 6.05191 10.2101C5.88265 10.2504 5.64085 10.6748 5.65831 10.8615C5.73488 11.6579 6.50595 12.0501 7.29046 12.0742C7.81033 12.0904 8.44035 11.9332 8.75334 11.5881C9.13754 11.165 9.30948 10.5552 9.10798 9.98445C8.46453 10.3068 8.15153 10.5754 7.63972 11.0428L7.4436 8.77033C8.09914 9.26189 8.439 9.52781 9.23829 9.48887L8.14482 7.86377L10.9739 7.86914L9.89383 9.43514C10.6112 9.60302 11.0263 9.26458 11.6724 8.76496L11.4763 11.0441C10.943 10.5391 10.6394 10.2504 9.91801 9.99117C9.88846 10.5606 9.97174 11.0925 10.2431 11.4538C10.5574 11.8728 11.1646 12.0756 11.7046 12.0769C12.4878 12.0783 13.2428 11.7277 13.451 10.9609C13.5047 10.7648 13.271 10.2759 13.0802 10.2208C12.8895 10.1658 12.6383 10.3619 12.4099 10.5539C12.3065 10.2531 12.2957 9.73599 12.4677 9.50767C12.6933 9.21085 13.1716 9.27398 13.6484 9.38008C13.1957 8.39965 13.455 7.14523 14.4316 6.70068C15.1476 7.31983 15.2201 8.66692 14.3523 9.49155L14.3537 9.49424Z" fill="white"/>
<path d="M56.8228 2.09229H59.453L56.182 13.6775L52.962 13.6788L49.6924 2.09229L52.3455 2.06543L54.6184 10.7886L56.8228 2.09229Z" fill="white"/>
<path d="M10.6472 4.7383C10.8393 5.32387 10.8044 5.84094 10.3812 6.23177C10.0118 6.57291 9.43957 6.65349 8.98149 6.401C8.49118 6.13104 8.21982 5.55487 8.40117 4.97602L9.14269 2.61627L7.71339 3.27168L7.69189 1.382L9.14672 1.79432L8.62014 0.00268611L10.5008 0L9.9675 1.77149L11.3955 1.38335V3.25691L9.95272 2.61493L10.6486 4.7383H10.6472Z" fill="white"/>
<path d="M61.0115 10.9179C61.9061 10.758 62.567 11.3812 62.7068 12.0648C62.8854 12.9392 62.2836 13.6644 61.5891 13.8014C60.7052 13.9747 60.012 13.4818 59.8213 12.7646C59.5929 11.909 60.0752 11.0858 61.0128 10.9179H61.0115Z" fill="white"/>
<path d="M12.0012 3.42076C12.5761 3.09977 13.2075 3.31198 13.4855 3.8774C13.6857 4.28301 13.5876 4.92767 13.0369 5.22583C12.6137 5.45415 12.0065 5.33327 11.6546 4.81217C11.4088 4.44954 11.4276 3.74041 12.0012 3.42076Z" fill="white"/>
<path d="M3.55065 2.56675C4.10007 2.35992 4.718 2.51169 4.93159 3.03279C5.14518 3.5539 5.01891 4.14753 4.4359 4.42957C3.98858 4.6458 3.34243 4.48598 3.08317 3.96756C2.8454 3.48943 2.97705 2.78433 3.55065 2.5681V2.56675Z" fill="white"/>
<path d="M16.9876 3.90441C17.5317 3.69087 18.1389 3.87487 18.3538 4.38254C18.5687 4.89022 18.4398 5.50131 17.8675 5.76992C17.392 5.99286 16.77 5.83304 16.5094 5.30925C16.2663 4.82172 16.4113 4.13005 16.9876 3.90307V3.90441Z" fill="white"/>
<path d="M1.26523 3.90282C1.83614 3.6839 2.3896 3.87999 2.6314 4.39975C2.85305 4.87519 2.68379 5.51045 2.14511 5.77101C1.67897 5.9953 1.02343 5.80458 0.787004 5.32645C0.531771 4.80938 0.702374 4.12039 1.26657 3.90416L1.26523 3.90282Z" fill="white"/>
<path d="M14.6959 2.55328C15.2641 2.33974 15.8042 2.57074 16.0567 3.06499C16.3093 3.55923 16.0863 4.17838 15.5744 4.43088C15.0626 4.68337 14.4568 4.44162 14.211 3.97827C13.9356 3.46253 14.1331 2.7628 14.6959 2.55194V2.55328Z" fill="white"/>
<path d="M0.596415 6.46403C1.17942 6.24377 1.69795 6.46672 1.94915 6.97842C2.18423 7.45789 1.98542 8.0851 1.47764 8.33222C0.969861 8.57934 0.362676 8.38594 0.112817 7.87424C-0.137043 7.36253 0.0322168 6.67758 0.597759 6.46403H0.596415Z" fill="white"/>
<path d="M6.13783 3.37102C6.63486 3.11986 7.25817 3.33744 7.49728 3.83437C7.73639 4.3313 7.59534 4.93836 6.99622 5.2298C6.5556 5.44469 5.92021 5.32785 5.64483 4.77316C5.41109 4.30175 5.5602 3.6638 6.13783 3.37236V3.37102Z" fill="white"/>
<path d="M17.6447 6.49634C18.1981 6.20758 18.7986 6.46948 19.0189 6.95163C19.2513 7.46065 19.0941 8.06368 18.5366 8.33766C18.0974 8.55255 17.5184 8.40616 17.2296 7.95355C16.9407 7.50094 17.0294 6.81733 17.6433 6.49634H17.6447Z" fill="white"/>
</g>
<defs>
<clipPath id="clip0_1456_3484">
<rect width="86" height="14" fill="white"/>
</clipPath>
</defs>
</svg>
