<svg width="35" height="26" viewBox="0 0 35 26" fill="none" xmlns="http://www.w3.org/2000/svg">
<path d="M12.4242 0C12.5264 0.0365132 12.6538 0.0113317 12.7636 0.016368C18.8823 0.308473 23.9613 5.4178 24.1682 11.5331C24.172 11.6313 24.1834 11.8479 24.1682 11.9322C24.1606 11.9738 24.0849 12.0468 24.0395 12.0456C23.7531 12.0153 23.3947 12.0821 23.1171 12.0456C23.0578 12.038 23.0325 11.999 23.001 11.9537C22.9745 11.3556 22.9291 10.76 22.8256 10.1695C22.0445 5.70738 18.4924 2.15805 14.0267 1.35602C6.7534 0.0528811 0.293974 6.24879 1.29084 13.5426C1.5104 15.1517 2.11861 16.7407 3.03472 18.0765L6.19944 14.8206L8.05689 14.2804C8.2285 14.2905 8.33323 14.4214 8.39128 14.5713L8.4468 14.7841C8.57172 14.5486 8.761 14.3081 8.94145 14.1079C9.1711 13.8549 9.40202 13.6836 9.65313 13.4671C9.99131 13.175 10.2336 12.7343 10.2361 12.2798C10.2386 11.8252 9.87774 11.6137 9.75408 11.2007C9.51054 10.3911 9.91181 9.92277 9.95724 9.15977C9.96229 9.07667 9.95345 8.99231 9.95724 8.90921C10.0418 8.9835 10.1188 9.10437 10.1743 9.20383C10.4885 9.75783 10.6487 10.58 10.491 11.2007C10.4304 11.4399 10.3055 11.6653 10.2866 11.9159C10.274 12.0833 10.3005 12.2684 10.2866 12.4359C10.2563 12.8174 10.0847 13.0805 9.87017 13.3802C9.88279 13.3915 10.0746 13.2581 10.1011 13.2379C10.549 12.9257 10.9314 12.5391 11.1409 12.0229C11.3213 11.5797 11.1926 11.1113 11.2241 10.6493C11.2771 9.87744 12.0494 9.53749 12.2071 8.8387C12.2778 8.52645 12.2425 8.20413 12.25 7.88558L12.3497 8.08955C12.6235 8.81982 12.6311 9.84344 12.4153 10.5901C12.1642 11.4576 11.4702 11.6867 11.0096 12.3943C10.9831 12.4346 10.8431 12.6638 10.8607 12.6877C11.5282 12.1954 12.2147 11.7144 12.8494 11.1793C12.9541 11.0912 13.1157 10.9691 13.1977 10.8683C13.5346 10.4516 13.5901 9.37381 13.4576 8.87521C13.3668 8.52897 13.0727 8.42447 12.8961 8.15251C12.6551 7.78108 12.5932 7.28752 12.6147 6.8544C12.6361 6.42128 12.8027 5.97808 12.7194 5.52985C13.045 5.94661 13.281 6.50438 13.4324 7.01178C13.5699 7.47261 13.5434 7.6388 13.5194 8.10466C13.4892 8.67125 13.6217 9.19376 13.5901 9.75153C13.5724 10.0676 13.4816 10.376 13.3983 10.6782C13.9573 10.0449 14.6009 9.23531 14.78 8.39047C14.8898 7.86921 14.6879 7.72064 14.5201 7.28123C14.1718 6.37343 14.6059 6.06748 14.6841 5.22768C14.7207 4.8361 14.7081 4.43068 14.6753 4.04037C14.8595 4.24812 14.9643 4.56037 15.0539 4.82477C15.281 5.48956 15.4968 6.3684 15.3012 7.05711C15.2343 7.2913 15.1018 7.49527 15.0274 7.71939C14.9529 7.9435 14.9315 8.18398 14.8709 8.41313C14.7195 8.98475 14.4242 9.45943 14.1113 9.95172C14.1239 9.96431 14.2084 9.89884 14.2286 9.88625C14.558 9.6634 14.963 9.33981 15.2229 9.04141C15.464 8.76442 15.6532 8.36781 15.9271 8.13236C16.2665 7.84026 16.8533 7.78989 17.2772 7.64258C17.6747 7.50408 18.0911 7.30893 18.428 7.05837C18.4394 7.05459 18.4394 7.07222 18.4369 7.08355C18.3877 7.2422 18.0306 7.66021 17.9069 7.80374C17.3706 8.4295 16.8772 8.86137 16.0608 9.0817C15.6797 9.18495 15.4223 9.17865 15.0677 9.39144C14.3687 9.81071 13.6974 10.4163 13.1636 11.027C13.1485 11.0433 13.0387 11.1718 13.0513 11.1831C14.0557 10.8381 14.9744 10.0927 16.0949 10.3043C16.6413 10.4075 17.1864 10.7286 17.464 11.2171C17.2444 11.1781 17.0173 11.1768 16.7952 11.2007C16.4772 11.2347 16.1214 11.3745 15.8047 11.3569C15.2734 11.3266 14.7737 10.925 14.2576 10.9225C13.1586 10.9149 11.8551 12.0821 10.9882 12.7066C10.5781 13.0025 10.1642 13.2946 9.74903 13.5854C9.99131 13.564 10.2412 13.559 10.4822 13.5199C11.2216 13.4016 11.4185 12.9357 11.9775 12.5505C12.5365 12.1652 13.1888 12.038 13.8841 12.0695C13.3958 12.5681 12.775 13.0881 12.0948 13.2908C11.5749 13.4469 10.9402 13.5275 10.3989 13.6093C10.1743 13.6433 9.75408 13.6484 9.5648 13.7302C9.40707 13.7995 9.05501 14.2162 8.93388 14.366C8.8569 14.463 8.7875 14.5662 8.708 14.6607C8.79886 14.6644 8.87835 14.6153 8.97425 14.6191C9.27836 14.6304 9.39445 14.8634 9.55597 15.0799C9.83736 15.4589 10.1213 15.8958 10.3661 16.3C10.4241 16.3969 10.5957 16.6525 10.6159 16.7444C10.6374 16.8464 10.6058 16.922 10.5579 17.0076C10.3345 17.4042 9.92064 17.8184 9.65818 18.2075C9.64808 18.2226 9.59761 18.2792 9.61275 18.2918L9.76922 18.283L11.2267 17.6409L12.7964 16.0872C13.016 16.0028 13.1762 16.0633 13.2961 16.2547C13.5989 16.7394 13.0955 17.2015 12.8002 17.5465C12.5541 17.8348 12.033 18.4656 11.7314 18.6469C11.1989 18.9667 10.5238 19.1694 9.96355 19.4464C9.92569 19.4791 9.88784 19.5219 9.96859 19.5219C10.1415 19.5219 10.3964 19.488 10.5755 19.4691C10.7686 19.4489 11.1371 19.43 11.2948 19.3381C11.5459 19.1908 11.8361 18.905 12.0898 18.7275C12.3219 18.5638 12.7182 18.249 13.0109 18.4089C13.1674 18.4945 13.2696 18.8924 13.1989 19.0536C13.1232 19.2261 12.6286 19.6038 12.4582 19.736C12.0507 20.0533 11.8298 20.2258 11.3213 20.3693C10.9011 20.4877 10.4695 20.5632 10.0456 20.6652C10.0456 20.6891 10.0948 20.6992 10.115 20.708C10.2576 20.7659 10.8532 20.985 10.9692 20.9737C11.2065 20.9497 11.5762 20.6262 11.7907 20.4914C12.1074 20.2925 12.6248 19.9198 12.8153 20.4574C12.8784 20.6337 12.8822 20.7344 12.7472 20.8742C12.2942 21.2003 11.8475 21.5453 11.3781 21.8475C11.2607 21.923 11.0954 22.0489 10.9554 22.0678C10.867 22.0791 10.7219 22.0602 10.6273 22.0514C10.0771 22.0036 9.52695 21.8739 8.97552 21.8424C7.82345 21.8953 6.67011 22.0703 5.5193 22.1207C5.47009 22.1232 5.44359 22.1257 5.3969 22.1043C5.31362 22.0678 5.09784 21.8966 5.00952 21.8323C2.11356 19.7599 0.182931 16.3025 0.0188901 12.7305C0.0138427 12.621 0.0390797 12.4938 0.002486 12.3918C0.0075334 12.1727 -0.00508512 11.9524 0.002486 11.7333C0.217001 5.43417 5.47009 0.212784 11.7806 0H12.4229H12.4242ZM8.49475 15.0636L8.36983 15.0283C8.27771 15.1593 8.16541 15.2348 8.02913 15.3129C7.66571 15.5206 7.25435 15.6314 6.8657 15.7812C6.76854 15.8933 6.67895 16.0116 6.59062 16.13C6.47957 16.2773 6.22215 16.6009 6.15528 16.7532C6.13256 16.8049 6.12752 16.8238 6.14266 16.8817C6.24108 17.2405 6.4985 17.6497 6.60071 18.0199C6.62721 18.0841 6.67011 18.0803 6.73194 18.0753C6.94015 18.0576 7.64931 17.9267 7.82723 17.8499C8.04805 17.7542 8.59065 17.316 8.80895 17.1486C8.94776 17.0416 9.13072 16.9131 9.25312 16.7948C9.34019 16.7104 9.37174 16.6978 9.31748 16.5757C9.10675 16.101 8.66258 15.6629 8.50611 15.1492C8.49854 15.1227 8.50358 15.0774 8.49601 15.0648L8.49475 15.0636Z" fill="white"/>
<path d="M32.5066 24.5932L32.5457 24.5705L33.4302 22.5409C33.4807 22.4704 33.853 22.4817 33.9034 22.5145C33.9173 22.5233 33.9287 22.5359 33.935 22.5522C34.0952 23.5003 34.2719 24.4497 34.4145 25.4015C34.4309 25.5098 34.5205 25.8485 34.4145 25.8976C34.3716 25.9177 33.8668 25.9203 33.8277 25.9014C33.7697 25.8737 33.7545 25.7163 33.7444 25.6558C33.6485 25.1283 33.6233 24.5491 33.5148 24.0304C33.511 24.0102 33.5072 23.9888 33.482 23.9863L32.6517 25.8875C32.5911 25.9958 32.4271 25.9933 32.3741 25.88C32.0927 25.2958 31.8933 24.6398 31.6081 24.0619C31.5955 24.0354 31.5854 23.9964 31.5526 23.9863L31.2233 25.88C31.2006 25.9089 31.1614 25.9077 31.1274 25.9102C31.0466 25.9165 30.6542 25.9203 30.6075 25.89C30.552 25.8548 30.5583 25.7692 30.5646 25.7125L31.14 22.595C31.1476 22.5648 31.1778 22.5157 31.2056 22.5044C31.2611 22.4792 31.6372 22.4691 31.6725 22.5585L32.5091 24.5932H32.5066Z" fill="white"/>
<path d="M20.5168 22.4842C21.8216 22.3785 22.8222 23.6401 22.3402 24.8752C21.8128 26.225 19.8329 26.3974 19.0985 25.1359C18.4272 23.9813 19.2058 22.59 20.5168 22.4842ZM20.4815 23.1427C19.9225 23.2095 19.5364 23.8012 19.5843 24.3401C19.6714 25.3298 20.9446 25.7213 21.5251 24.8941C22.0866 24.0946 21.4771 23.0244 20.4815 23.1427Z" fill="white"/>
<path d="M23.699 17.7564C23.6851 17.837 23.6258 17.8634 23.5526 17.8697C23.4517 17.8785 23.1955 17.8823 23.1009 17.8684C23.0466 17.8596 23.0062 17.8231 22.9911 17.7702L22.9873 14.6364C22.9911 14.576 23.034 14.5092 23.0996 14.5055C23.699 14.5483 24.6214 14.3317 25.0101 14.9235C25.3129 15.3843 25.2132 16.1297 24.6908 16.3878C24.6252 16.4205 24.547 16.4306 24.4864 16.4608C24.47 16.4696 24.4586 16.4558 24.4649 16.4898L25.3444 17.6569C25.4075 17.7639 25.3545 17.8496 25.2359 17.8659C25.1653 17.876 24.6832 17.8773 24.6391 17.8584C24.6113 17.8395 24.5924 17.8118 24.5722 17.7866C24.282 17.4278 24.0435 16.9015 23.7495 16.5615C23.7343 16.5439 23.7331 16.525 23.7003 16.5326V17.7539L23.699 17.7564ZM23.699 16.0315C24.1217 16.0378 24.5154 15.9521 24.4447 15.4347C24.4283 15.315 24.3299 15.2055 24.2239 15.1526C24.1671 15.1237 24.0094 15.0783 23.9514 15.0783H23.699V16.0315Z" fill="white"/>
<path d="M24.2024 25.8156C24.1961 25.8458 24.1406 25.9037 24.1065 25.91C24.0321 25.9239 23.6838 25.9214 23.6018 25.9113C23.5273 25.9012 23.5033 25.8458 23.4907 25.7791L23.5059 22.6427C23.5349 22.5672 23.598 22.5546 23.6712 22.5483C24.027 22.5156 24.7816 22.5294 25.1097 22.6566C25.834 22.9386 25.887 24.1045 25.1867 24.4407C25.121 24.4722 25.0542 24.4822 24.9898 24.5049C24.9709 24.5112 24.9595 24.4961 24.9671 24.5313L25.8504 25.7136C25.8946 25.8018 25.8807 25.8924 25.7734 25.91C25.7091 25.9201 25.1803 25.9188 25.1412 25.9025L24.2554 24.6056L24.2024 24.5943V25.8156ZM24.2024 24.073H24.5065C24.5911 24.073 24.7829 23.9874 24.846 23.9257C25.0213 23.7545 24.9961 23.3755 24.7917 23.2332C24.7437 23.2005 24.5759 23.1363 24.5229 23.1363H24.2011V24.0718L24.2024 24.073Z" fill="white"/>
<path d="M26.9259 22.5523C27.0192 22.5359 27.3864 22.5359 27.4584 22.585C27.4773 22.5976 27.4886 22.6127 27.4962 22.6341L27.5038 24.6902C27.4924 25.5124 28.7429 25.5829 28.8085 24.7594C28.859 24.1135 28.753 23.3908 28.8085 22.7474C28.8149 22.6769 28.8224 22.6039 28.8918 22.5699C28.9701 22.5321 29.3903 22.5346 29.4647 22.58C29.5114 22.6077 29.5228 22.6417 29.5228 22.6958C29.4622 23.4097 29.6098 24.2671 29.5 24.9621C29.2805 26.3433 27.0028 26.3761 26.8148 24.8778C26.729 24.1954 26.8375 23.4235 26.7959 22.7311C26.8047 22.6379 26.8274 22.5712 26.9296 22.5535L26.9259 22.5523Z" fill="white"/>
<path d="M22.0792 17.8298C22.0337 17.8525 21.9871 17.865 21.9366 17.8688C21.8533 17.8764 21.4874 17.8789 21.4344 17.8487C21.3435 17.7971 21.2135 17.3148 21.1441 17.2028L21.0861 17.1738L19.8369 17.1776C19.7675 17.2015 19.6034 17.7908 19.5025 17.8487C19.4785 17.8625 19.4621 17.865 19.4356 17.8688C19.3473 17.8789 18.9485 17.8789 18.8892 17.8411C18.8514 17.8159 18.8312 17.7681 18.8362 17.7228L20.2104 14.4819C20.2192 14.4668 20.2318 14.4567 20.247 14.4492C20.2873 14.4303 20.6482 14.4265 20.7025 14.4366C20.7429 14.4441 20.7643 14.4769 20.7845 14.5109L22.0931 17.6598L22.0804 17.8298H22.0792ZM20.0514 16.5871H20.9031L20.4943 15.5471L20.0514 16.5871Z" fill="white"/>
<path d="M16.9409 16.6382V17.7739C16.9409 17.8104 16.8665 17.862 16.8274 17.8683C16.7365 17.8822 16.4526 17.8809 16.3592 17.8696C16.2658 17.8582 16.2469 17.8192 16.2343 17.7348C16.2797 16.749 16.1586 15.6826 16.2292 14.7055C16.2381 14.5834 16.2406 14.5179 16.3769 14.5066C16.7075 14.4764 17.5782 14.4764 17.8696 14.596C18.6709 14.9271 18.6873 16.2642 17.8684 16.5652C17.8166 16.5841 17.6223 16.6382 17.5769 16.6382H16.9422H16.9409ZM16.9409 16.0313H17.2097C17.3069 16.0313 17.5062 15.9797 17.5895 15.9243C17.8078 15.7782 17.7952 15.3539 17.5782 15.2129C17.5466 15.1928 17.3939 15.1298 17.3662 15.1298H16.9409V16.0313Z" fill="white"/>
<path d="M29.0629 14.4593C29.3557 14.4278 29.6913 14.4832 29.9538 14.6179C30.0837 14.6847 30.2566 14.7753 30.1733 14.9428C30.1468 14.9956 29.95 15.2475 29.902 15.2626C29.8061 15.2915 29.7329 15.1807 29.661 15.1367C29.444 15.007 29.0553 15.0082 28.9317 15.2638C28.7411 15.6592 29.4982 15.7939 29.7519 15.9135C30.2667 16.1565 30.4459 16.5657 30.3273 17.1247C30.1443 17.9885 29.0276 18.1521 28.3777 17.7001C28.2869 17.6372 28.0509 17.4307 28.0421 17.3237C28.0282 17.1676 28.2768 17.0454 28.3638 16.9321C28.5089 16.849 28.5897 17.0442 28.6768 17.1235C28.9291 17.3552 29.473 17.3829 29.608 17.0114C29.7885 16.5128 29.1134 16.4234 28.7967 16.2774C28.35 16.0722 28.1417 15.8254 28.1821 15.3117C28.2187 14.8572 28.625 14.5071 29.0654 14.4593H29.0629Z" fill="white"/>
<path d="M16.9407 23.1715V23.8476H17.8871C18.012 23.8476 18.007 24.3336 17.9489 24.4116C17.9338 24.4318 17.872 24.4721 17.853 24.4721H16.9407V25.8155C16.9407 25.8394 16.8764 25.9049 16.8448 25.9099C16.7918 25.92 16.3312 25.9162 16.2984 25.9011C16.2555 25.8822 16.2417 25.818 16.2328 25.7752C16.2782 24.7944 16.1571 23.7355 16.2278 22.7635C16.2366 22.6351 16.2492 22.5633 16.3931 22.5482C16.8675 22.5809 17.4026 22.5041 17.8707 22.5482C18.0007 22.5608 18.0411 22.5998 18.0537 22.7308C18.0612 22.8126 18.0789 23.174 17.9578 23.174H16.942L16.9407 23.1715Z" fill="white"/>
<path d="M24.2352 21.8358C24.22 21.8598 23.9122 21.8749 23.8718 21.8308L23.4995 20.9369L23.4478 20.9192L22.0673 20.9217L21.6837 21.8308C21.6446 21.8711 21.3392 21.8799 21.3203 21.8081L22.7714 18.5308L22.8459 18.5358L24.2137 21.6948L24.2327 21.8358H24.2352ZM23.3342 20.5893L22.779 19.2724L22.2225 20.5893H23.3342Z" fill="white"/>
<path d="M30.1871 21.5259C30.2375 21.5422 30.2678 21.8444 30.1694 21.8558H28.5706C28.5176 21.8469 28.5101 21.7878 28.5088 21.7437L28.5252 18.591L28.6211 18.562L30.1643 18.567L30.2072 18.5847C30.2337 18.6778 30.2577 18.8163 30.1858 18.8919H28.9L28.8735 18.9183V19.8715L28.9 19.8979H30.1505L30.177 19.9243V20.2101C30.1593 20.2051 30.1391 20.2278 30.1341 20.2278H28.8747V21.5271H30.1858L30.1871 21.5259Z" fill="white"/>
<path d="M19.2169 18.8905V19.8952H20.4939L20.5204 19.9216V20.181C20.5204 20.181 20.48 20.2238 20.4775 20.2238H19.2181V21.5232H20.5128C20.5128 21.5232 20.5557 21.5635 20.5557 21.566V21.8254C20.5406 21.8505 20.5216 21.8493 20.4964 21.8518C20.0156 21.9085 19.4238 21.8077 18.9317 21.8518L18.8699 21.8266L18.8623 18.5921L18.9317 18.5568C19.4213 18.5958 19.9816 18.509 20.4623 18.5568C20.4876 18.5593 20.557 18.5706 20.557 18.6009V18.8602L20.5305 18.8867H19.2194L19.2169 18.8905Z" fill="white"/>
<path d="M26.3366 18.516C26.5208 18.4996 26.6988 18.5135 26.8792 18.5538C27.013 18.584 27.4521 18.7313 27.4836 18.8698C27.4975 18.9315 27.5 19.1783 27.4256 19.1883C27.3108 19.1594 27.2224 19.0587 27.1076 19.002C26.3152 18.6054 25.4003 19.0322 25.1845 19.8808C24.8943 21.0228 26.0779 21.9671 27.1278 21.4207C27.2552 21.354 27.4534 21.1135 27.4849 21.3653C27.519 21.636 27.4117 21.6788 27.1858 21.7732C25.818 22.3436 24.4135 21.1147 24.859 19.6945C25.0584 19.0587 25.6716 18.5764 26.3366 18.5173V18.516Z" fill="white"/>
<path d="M26.4223 14.5107C26.4942 14.4956 26.8614 14.4956 26.9384 14.5082C26.9951 14.517 27.0254 14.5472 27.0343 14.6039L27.0368 17.7578C27.0368 17.8158 26.9749 17.8598 26.922 17.8686C26.8361 17.8825 26.5434 17.88 26.4551 17.8686C26.3945 17.8598 26.3491 17.8422 26.3415 17.7742L26.339 14.6026C26.3364 14.5548 26.3794 14.5208 26.4223 14.512V14.5107Z" fill="white"/>
<path d="M16.5935 20.4173V21.83L16.567 21.8564H16.2717L16.2364 21.8048L16.2275 18.6748L16.2503 18.5841C16.2768 18.564 16.3096 18.5652 16.3411 18.5614C17.1146 18.4972 18.056 18.6017 17.9664 19.6102C17.9033 20.3229 17.1916 20.4652 16.5947 20.4161L16.5935 20.4173ZM16.5935 20.0874H17.0023C17.6774 20.0874 17.8465 19.1545 17.2585 18.948C17.2042 18.9291 17.0364 18.8926 16.9847 18.8926H16.62L16.5935 18.919V20.0887V20.0874Z" fill="white"/>
</svg>
