<svg width="81" height="30" viewBox="0 0 81 30" fill="none" xmlns="http://www.w3.org/2000/svg">
<g clip-path="url(#clip0_1456_3334)">
<path d="M16.6951 25.01C15.7023 24.0755 14.8329 23.0639 14.041 21.994C12.79 22.026 11.6853 21.4132 11.2779 20.3521C10.826 19.1759 11.2535 17.9722 12.2305 17.2545L11.9565 15.2196C10.7542 15.2997 9.66389 14.5224 9.34396 13.4481C8.97239 12.2021 9.50178 10.9634 10.6638 10.3579C11.2908 10.0304 12.087 10.0333 12.757 10.2182C13.1759 9.26473 13.6795 8.30403 14.2619 7.33169C13.6795 6.27783 13.8229 5.01437 14.5962 4.21233C15.4355 3.34188 16.6922 3.16139 17.8241 3.70142C18.8557 3.24872 19.6863 2.29821 20.9976 2.33606C19.3104 3.12208 17.8256 3.93286 16.4885 5.17303C11.1574 10.1235 10.8317 18.4219 15.8027 23.7422C20.6576 28.9358 28.6944 29.4802 34.2422 24.9794L34.7443 25.5908C29.3587 29.9649 21.7163 29.8703 16.4182 25.4365L16.6965 25.0115L16.6951 25.01ZM17.0925 4.22252C16.4383 3.97944 15.6421 4.1774 15.1744 4.68249C14.7411 5.1512 14.5775 5.90811 14.7985 6.54421C15.5933 5.6854 16.2389 5.03038 17.0925 4.22252ZM12.5203 10.9183C11.1774 10.5355 10.1015 11.3288 10.0283 12.5457C9.96373 13.6184 10.826 14.5908 11.9665 14.4831C12.0583 13.2385 12.2549 12.1046 12.5217 10.9183H12.5203ZM13.5546 21.2254L12.3395 18.1905C11.9134 18.6941 11.7642 19.4496 12.1042 20.2123C12.318 20.6927 12.8918 21.1614 13.5546 21.2254Z" fill="white"/>
<path d="M53.7432 17.4918L54.287 17.4277C54.4175 17.4117 54.4692 17.8149 54.4146 17.8615C52.2397 18.8368 50.2513 19.7887 48.1223 20.8775C47.4509 19.2807 47.0506 17.5573 46.9502 15.8397L51.2269 15.7349L51.4148 16.7611L53.8767 16.4729L53.7432 17.4918Z" fill="white"/>
<path d="M57.6956 3.0204L57.4746 2.47164C57.4273 2.35373 57.0729 2.5415 56.8563 2.65067L57.8161 5.12811L57.3986 5.45562C57.3226 5.5153 57.3742 5.70017 57.4144 5.92724L56.3154 6.53859L53.6943 2.37993C55.6899 1.1121 57.8448 0.340631 60.1646 0.0800781L60.43 2.51821L59.1072 2.72491L58.9623 3.26348C58.9337 3.3712 58.6553 3.41196 58.5262 3.44107L57.9868 3.56479C57.8505 3.59536 57.7558 3.1645 57.697 3.0204H57.6956Z" fill="white"/>
<path d="M67.5043 3.90503L66.6794 5.38684L64.6795 4.55569L64.6321 3.9618C64.6192 3.80459 64.1788 3.80459 63.8115 3.78713L64.4399 0.251465C66.4441 0.675046 68.2647 1.36791 69.9791 2.56879L68.642 4.59935L67.5043 3.90503Z" fill="white"/>
<path d="M65.2736 26.5122L66.163 26.2458L67.2261 28.9023C65.4988 29.6199 63.7141 29.9489 61.8892 29.9882L61.8462 25.665C62.146 25.4729 62.2637 25.2589 62.334 24.9125L63.2478 24.8149L63.3856 25.2676C63.4186 25.3739 63.7643 25.3884 63.8059 25.4933L64.001 25.9969C64.0943 26.2356 64.8762 25.796 65.2736 26.5107V26.5122Z" fill="white"/>
<path d="M67.7841 28.7L65.1644 22.6782C64.9363 22.1556 65.6163 21.4249 65.9836 21.5777C66.2088 21.6709 66.4039 21.6607 66.7325 21.5704L70.761 26.8761C69.8112 27.5646 68.9691 28.0872 67.7841 28.7Z" fill="white"/>
<path d="M51.1108 12.7857L50.9114 14.3418C50.5183 14.4742 50.3461 14.761 50.4035 15.1816L46.9116 15.2821C46.8872 13.5819 47.1784 11.8323 47.7265 10.1045L51.0218 11.2501L50.7134 12.2952C50.6804 12.4058 50.9687 12.6707 51.1093 12.7857H51.1108Z" fill="white"/>
<path d="M58.5763 26.5514L59.328 26.6693L59.7828 24.4393L60.3796 24.2632L60.5633 22.7217L61.4255 22.8046L61.3236 29.9982C60.1085 29.9138 58.9378 29.7406 57.793 29.4713L58.5763 26.5514Z" fill="white"/>
<path d="M54.4966 12.0695L47.9087 9.57747L49.1798 7.0127L55.059 10.739L54.4966 12.0695Z" fill="white"/>
<path d="M55.8394 26.0873L58.0071 26.9782L57.2797 29.3042C55.551 28.7234 53.9643 27.9156 52.5454 26.7555L55.221 23.3086L56.4046 24.1019L55.0388 26.4381L55.5194 26.69C55.6098 26.738 55.7375 26.3639 55.8394 26.0873Z" fill="white"/>
<path d="M52.8665 21.7754C52.2912 22.4334 52.9812 23.1073 52.7316 24.3824L53.2467 25.0636L52.1233 26.4086C50.5395 24.9865 49.2985 23.4581 48.356 21.4115L49.8437 20.6284L50.165 21.1364C51.5638 20.905 51.8809 22.1262 52.8679 21.774L52.8665 21.7754Z" fill="white"/>
<path d="M53.6157 6.13387L51.9745 7.51961L51.4766 7.179C51.3633 7.10039 51.1194 7.31873 50.91 7.52543L49.4624 6.57638C50.4953 5.07274 51.7191 3.81655 53.2384 2.68555L55.2411 5.54872L54.1924 6.65498L53.6171 6.13387H53.6157Z" fill="white"/>
<path d="M62.4012 4.10168L62.1128 5.62715L61.1014 5.94447L60.7227 0.0318091C61.8589 -0.0453379 62.7814 0.0216199 63.9076 0.149713L63.3524 3.98814L62.4012 4.10168Z" fill="white"/>
<path d="M70.6363 7.74096L70.4369 6.79919L71.3637 5.8938L69.48 4.21404L70.4326 2.85596C71.9375 4.04227 73.233 5.36687 74.2832 7.09322L71.8543 8.62306L71.0782 8.38289C71.0524 8.40181 70.6736 7.92291 70.6349 7.74242L70.6363 7.74096Z" fill="white"/>
<path d="M33.3011 18.7948L31.7847 21.9739L30.284 18.7977L29.5036 21.8618L28.6758 21.8807L30.0774 16.7017L31.7875 20.4062L33.5077 16.7337L34.9064 21.8865L34.0772 21.8603L33.3011 18.7948Z" fill="white"/>
<path d="M32.8619 12.0844L31.3497 15.262L29.8491 12.0815L29.0644 15.1164L28.248 15.1528L29.6267 9.99121L31.3555 13.6579L33.0728 9.99267L34.4558 15.1266L33.6366 15.1339L32.8619 12.0844Z" fill="white"/>
<path d="M11.9421 3.50654L12.7498 3.50072L11.3768 8.61571L9.64232 4.96651L7.91931 8.61716L6.54492 3.50363L7.34545 3.48325L8.15459 6.53274L9.64232 3.38281L11.1444 6.50945L11.9421 3.50654Z" fill="white"/>
<path d="M20.2988 15.3446L16.9661 11.9385L16.9303 15.1379L16.1226 15.151L16.1369 9.93994L19.4839 13.3679L19.5069 10.1918L20.3031 10.1845L20.2988 15.3446Z" fill="white"/>
<path d="M32.7273 8.37514C32.0616 8.44938 31.3615 8.43482 30.7217 8.4421V3.47412L32.5724 3.52216C33.9453 3.55855 34.8664 4.56728 34.9022 5.8322C34.9381 7.09712 34.172 8.21357 32.7273 8.37514ZM33.5953 7.20047C34.2767 6.53962 34.248 5.26597 33.5852 4.66335C33.0458 4.17281 32.2611 4.12914 31.5437 4.18591L31.548 7.71575C32.3227 7.7536 33.0558 7.72449 33.5953 7.20047Z" fill="white"/>
<path d="M26.6441 11.0623C27.3184 11.8439 27.3873 12.924 26.954 13.8294C26.5566 14.6591 25.6671 15.2282 24.6127 15.2326C23.6859 15.2369 22.8452 14.7842 22.3746 14.055C21.8754 13.2835 21.818 12.2398 22.3072 11.4087C22.7534 10.6489 23.5539 10.1816 24.2698 10.103C25.208 10.0011 25.9928 10.3068 26.6441 11.0608V11.0623ZM24.079 10.889C23.0302 11.151 22.6171 12.2573 22.8495 13.151C23.1321 14.2442 24.1909 14.6853 25.0933 14.4407C26.1664 14.1496 26.6039 13.0812 26.3371 12.0957C26.0703 11.1103 25.0933 10.6358 24.0804 10.889H24.079Z" fill="white"/>
<path d="M23.6546 8.46395L22.2486 6.45813C22.1783 6.35769 21.7264 6.31693 21.616 6.33731L21.6231 8.44794L20.8154 8.42319V3.47705L22.8368 3.50616C23.5369 3.51635 24.0792 4.10587 24.1596 4.6721C24.2686 5.44066 23.9171 6.03164 23.0104 6.30675L24.5527 8.41737L23.656 8.46541L23.6546 8.46395ZM22.9875 5.59787C23.1697 5.58477 23.4322 5.12479 23.415 4.93993C23.3476 4.2034 22.5643 4.05347 21.6246 4.20776L21.616 5.69102L22.9875 5.59787Z" fill="white"/>
<path d="M20.9212 21.8995L19.5396 19.9345C19.4378 19.7889 18.9141 19.7307 18.9113 19.8879L18.8754 21.8384L18.082 21.8573V16.9199L20.0317 16.9447C20.8193 16.9549 21.3745 17.4818 21.4305 18.1994C21.4864 18.917 21.1163 19.5473 20.2684 19.7394L21.7949 21.8282L20.9226 21.8995H20.9212ZM20.1594 19.0407C20.3818 19.0233 20.6859 18.5517 20.6716 18.3435C20.6199 17.6375 19.8667 17.5575 18.8797 17.6172L18.9041 19.1397L20.1594 19.0407Z" fill="white"/>
<path d="M2.86068 12.8134L0.866525 12.7974L0.853613 14.416L2.88937 14.4102L2.89798 15.1511L0 15.1438V10.189L2.8822 10.1875L2.90946 10.9066L0.875133 10.9168L0.852179 12.0725H2.85064L2.86068 12.8134Z" fill="white"/>
<path d="M26.4833 16.9593L27.2853 16.9389L27.238 20.3844C27.2236 21.3945 26.2438 21.987 25.4016 21.9928C24.5595 21.9986 23.5179 21.4571 23.5007 20.4368L23.4419 16.9346H24.2582L24.2754 20.1573C24.2797 20.8545 24.8177 21.2417 25.4045 21.2432C25.9439 21.2432 26.4604 20.7992 26.4647 20.134L26.4819 16.9579L26.4833 16.9593Z" fill="white"/>
<path d="M73.5555 24.0392L71.187 26.5501L69.2588 24.1877L70.758 22.6797L71.4394 23.2299L71.9114 22.7758L73.5555 24.0392Z" fill="white"/>
<path d="M42.2472 14.3098L42.8254 14.879C41.4094 15.6344 39.7007 15.1468 39.0508 13.6927C38.5745 12.6257 38.9203 11.4467 39.6907 10.7655C40.5644 9.99253 41.7551 9.86735 42.8239 10.4423L42.2845 11.0115C41.4539 10.6475 40.5759 10.8251 40.0637 11.4467C39.5515 12.0682 39.4913 13.0013 39.9446 13.6898C40.398 14.3783 41.2889 14.7567 42.2472 14.3084V14.3098Z" fill="white"/>
<path d="M7.81167 14.3274C8.00391 14.4336 8.25785 14.6986 8.38983 14.8892C6.95089 15.6549 5.1834 15.1076 4.5909 13.5807C4.17055 12.4977 4.57225 11.3536 5.35269 10.7087C6.23069 9.98386 7.35402 9.88924 8.3927 10.438L7.87049 11.0246C7.01831 10.6316 6.16757 10.8281 5.64392 11.4569C5.12028 12.0858 5.09015 12.9868 5.52055 13.6884C5.95094 14.39 6.8978 14.7248 7.81167 14.3274Z" fill="white"/>
<path d="M9.6367 18.7803L9.65248 19.5372L7.918 19.5284V21.8691L7.11316 21.8516L7.10742 16.9316L9.69408 16.936L9.7156 17.6667L7.91656 17.6449L7.93808 18.8079L9.6367 18.7803Z" fill="white"/>
<path d="M29.2924 7.72605L29.2852 8.43347L26.3198 8.43056L26.3256 3.49898L27.1204 3.4917L27.1189 7.72168L29.2924 7.72605Z" fill="white"/>
<path d="M14.603 7.7584L15.1295 7.15869C15.9372 8.02041 17.1323 7.9913 17.8425 7.23875C18.5526 6.4862 18.4723 5.25767 17.7148 4.49348L18.3145 4.08154C18.9471 4.6667 19.2183 5.3814 19.1494 6.23729C19.0963 6.89523 18.6903 7.64486 18.0261 8.08445C16.9802 8.77587 15.6302 8.71036 14.6045 7.75694L14.603 7.7584Z" fill="white"/>
<path d="M14.2172 21.1628C15.3463 20.8163 15.7609 19.7479 15.4553 18.7668C15.1224 17.6984 13.9647 17.2879 12.8658 17.7406L12.728 16.9837C13.9159 16.5732 15.0708 16.8876 15.834 17.8716C16.339 18.5223 16.494 19.3622 16.2443 20.1657C16.032 20.8527 15.5026 21.483 14.6849 21.8294L14.2158 21.1613L14.2172 21.1628Z" fill="white"/>
<path d="M37.0137 15.1526L36.2017 15.1249L36.2031 10.1962L37.0151 10.189L37.0137 15.1526Z" fill="white"/>
<path d="M12.9334 14.1205C13.8774 13.451 13.9319 11.9968 13.041 11.2486L13.2605 10.4961C14.2246 11.1278 14.589 12.0594 14.4111 13.1919C14.2733 14.0681 13.5316 14.8775 12.5589 15.1511C12.4513 14.6038 12.6005 14.3564 12.9334 14.1205Z" fill="white"/>
<path d="M71.3821 19.5543L71.2788 17.8935L70.5184 19.9226L69.7623 17.991L69.6949 19.1977C69.692 19.2574 69.7853 19.4815 69.8054 19.5383C69.8255 19.5951 69.6275 19.6242 69.5715 19.6053C69.4869 19.5762 69.3721 19.3884 69.3735 19.2821L69.3893 17.3826L69.9531 17.2661L70.5284 19.1075L71.075 17.336L71.6733 17.2705L71.6604 19.5951C71.3749 19.5529 71.0937 19.5121 71.3835 19.5543H71.3821Z" fill="white"/>
<path d="M68.6661 19.6724L68.5844 17.9606L68.0923 19.524C68.0708 19.5938 67.7365 19.7394 67.7092 19.671L67.5787 19.3406L67.1555 17.9505C67.1253 18.5778 67.1842 19.0494 66.9317 19.7729C66.7437 18.8384 66.7308 18.2372 66.7007 17.3231L67.3075 17.2983L67.8699 19.0582L68.3964 17.4424C68.4481 17.2838 68.9316 17.2518 69.009 17.3711L68.9516 19.5036L68.6647 19.6739L68.6661 19.6724Z" fill="white"/>
<path d="M70.2286 12.1802L70.3836 12.9546C70.4266 13.1686 69.9216 13.5237 69.6864 13.5208L68.5186 13.5077L68.5229 11.1089L69.7853 11.1307C69.9116 11.1322 70.2444 11.285 70.243 11.4073L70.2272 12.1802H70.2286ZM69.7538 11.4917L68.9518 11.4844L68.9547 12.0521C68.9547 12.1453 69.3019 12.1365 69.3879 12.1045L69.8901 11.9197C69.9848 11.8847 69.8542 11.4917 69.7523 11.4903L69.7538 11.4917ZM69.8657 12.4873L68.9533 12.4539C68.9332 12.8105 68.9102 13.1264 69.0336 13.1278L69.5458 13.1365C69.6648 13.138 69.8786 13.0288 69.9675 12.9459C70.035 12.8833 69.9561 12.4917 69.8643 12.4873H69.8657Z" fill="white"/>
<path d="M62.9293 12.323L64.1014 12.1803L64.1186 13.4715C63.463 13.2808 62.8346 13.8732 62.2995 13.2939C62.0771 13.0523 61.9322 12.5544 61.9451 12.2051C61.9695 11.5923 62.3454 11.1585 62.8418 11.0712C63.4099 10.9722 64.1129 11.24 64.0211 11.9256C63.5735 11.6127 63.189 11.3521 62.8676 11.4351C62.5061 11.5282 62.3253 12.013 62.3612 12.4394C62.3927 12.815 62.6725 13.1571 62.991 13.2036C63.3712 13.2575 63.7614 12.863 63.714 12.6316L62.9279 12.323H62.9293Z" fill="white"/>
<path d="M68.2847 12.2939C68.2847 13.0712 67.8399 13.5807 67.1671 13.5836C66.4411 13.5865 65.9935 13.0771 66.0036 12.2968C66.0136 11.5166 66.4684 11.0523 67.1513 11.0567C67.8342 11.061 68.2832 11.5385 68.2832 12.2939H68.2847ZM67.8758 12.1615C67.8041 11.5982 67.4153 11.3653 67.0164 11.4264C66.6865 11.4773 66.3981 11.8689 66.4053 12.3012C66.411 12.6214 66.6047 13.0421 66.85 13.1804C67.0322 13.2837 67.4626 13.192 67.609 13.0407C67.7553 12.8893 67.9074 12.4148 67.8758 12.1615Z" fill="white"/>
<path d="M76.1494 19.5936C76.0045 19.6708 75.6472 19.5339 75.5698 19.4146L74.6588 18.0099L74.6229 19.5354L74.2456 19.547V17.3738C74.3245 17.2181 74.7492 17.3447 74.8352 17.4888L75.7462 19.0099C75.7706 18.3782 75.6917 17.9051 76.0231 17.2632C76.1666 18.0419 76.1809 18.8571 76.1494 19.5936Z" fill="white"/>
<path d="M66.4672 18.4117C66.5059 19.1744 66.031 19.7465 65.2994 19.7436C64.638 19.7407 64.176 19.1715 64.2033 18.419C64.2306 17.6766 64.6653 17.2385 65.3008 17.2167C65.998 17.1934 66.4299 17.6548 66.4672 18.4103V18.4117ZM66.0612 18.4728C66.0683 17.927 65.7513 17.5456 65.2893 17.5689C64.9637 17.5864 64.6495 17.9445 64.5878 18.3549C64.5218 18.7945 64.8475 19.3156 65.1774 19.3666C65.7125 19.451 66.0526 19.106 66.0612 18.4714V18.4728Z" fill="white"/>
<path d="M71.973 15.4716L70.7923 15.524L70.7951 16.182L72.257 16.345C71.5282 16.6332 71.0476 16.5997 70.3877 16.5648L70.392 14.1572L72.2585 14.2882C71.6473 14.5357 71.293 14.5371 70.755 14.5866V15.1529L71.9041 15.2155L71.9758 15.4731L71.973 15.4716Z" fill="white"/>
<path d="M65.8499 16.6535C65.5946 16.2081 65.5816 15.9839 65.5415 15.5123H64.4784C64.487 15.9621 64.6491 16.2925 64.1757 16.6957C64.0638 15.8049 64.0667 15.0189 64.0939 14.0858C64.6491 14.2518 64.543 14.6724 64.4411 15.1208L65.573 15.1309C65.5415 14.7146 65.5099 14.4235 65.8786 14.0669C66.0436 14.9854 66.0493 15.6069 65.8499 16.6535Z" fill="white"/>
<path d="M63.4615 16.5181C62.9092 16.8034 62.1976 16.6462 62.0642 16.2547L61.9595 15.949C61.9422 15.898 61.958 15.7408 62.0025 15.767L62.3425 15.9635L62.859 16.3347C62.9852 16.425 63.4271 16.0829 63.364 15.9388C63.1229 15.3857 61.9853 15.604 61.991 14.8471C61.9924 14.5268 62.2822 14.2299 62.6309 14.1295C63.0856 13.9985 63.6581 14.4002 63.7327 14.7117C63.7485 14.7787 63.4673 15.0014 63.4371 14.9417L63.2722 14.6127L62.7241 14.4788C62.5979 14.4482 62.4673 14.652 62.3468 14.9184L63.2894 15.2838C63.4701 15.3536 63.7441 15.5865 63.8044 15.7496C63.8747 15.9388 63.6552 16.422 63.4615 16.5225V16.5181Z" fill="white"/>
<path d="M74.1282 14.8963C73.8786 15.9268 74.3578 16.7536 74.0465 16.6081C73.5128 16.3562 73.8112 15.6445 73.5042 15.6299L72.7553 15.595C72.7897 16.1161 72.8299 16.3097 72.421 16.6212L72.3335 14.1714L73.6935 14.2049C73.9059 14.2107 74.1856 14.6663 74.1297 14.8963H74.1282ZM73.7423 15.0113C73.8485 14.5469 73.2058 14.4043 72.7854 14.5731V15.3068C73.1943 15.3184 73.6735 15.2223 73.7423 15.0113Z" fill="white"/>
<path d="M74.9629 14.7874C75.1422 15.3478 76.178 15.1003 76.3401 15.716C76.4104 15.9839 76.1608 16.5486 75.9169 16.5865C75.508 16.6491 75.201 16.6418 74.8969 16.5486C74.6444 16.4715 74.4177 15.9591 74.5985 15.7408L75.2484 16.2954C75.3818 16.4104 75.9183 16.1964 75.9083 16.0203C75.8767 15.4322 74.752 15.6374 74.5439 14.9635C74.4765 14.7466 74.7391 14.2575 74.9872 14.1949C75.2613 14.1265 75.7089 14.1556 75.9442 14.2561C76.1335 14.3361 76.2684 14.7219 76.2253 15.013L75.5654 14.505C75.4392 14.4074 74.9729 14.5967 74.9643 14.7859L74.9629 14.7874Z" fill="white"/>
<path d="M71.995 13.0827C71.8974 12.8381 71.1285 12.8148 71.0008 13.0463C70.8573 13.3083 70.8114 13.4728 70.4111 13.5295L71.1184 11.4597L71.3164 11.1118C71.3609 11.0332 71.7224 11.1787 71.7583 11.2792L72.5244 13.4102C72.4598 13.464 72.203 13.6009 72.1757 13.5324L71.995 13.0827ZM71.8156 12.5266L71.457 11.5441L71.1371 12.5616L71.8156 12.5281V12.5266Z" fill="white"/>
<path d="M62.3526 18.3012C62.3597 18.7743 62.4788 19.1032 62.6954 19.2837C62.8619 19.4235 63.3597 19.3623 63.4831 19.1833C63.6495 18.9402 63.8819 18.7801 64.0167 18.8238C64.0196 19.5108 63.3898 19.8019 62.8619 19.7291C62.2966 19.652 61.9595 19.1673 61.948 18.521C61.9394 18.0625 62.1675 17.4817 62.5104 17.342C63.0627 17.1178 63.5806 17.1877 64.0354 17.7044L63.7815 18.0261C63.3941 17.6578 63.1875 17.537 62.8934 17.5734C62.6811 17.5996 62.3483 18.0261 62.3526 18.2997V18.3012Z" fill="white"/>
<path d="M67.7164 16.0812C67.6031 15.9532 66.8413 15.8513 66.7265 16.0856C66.5787 16.3898 66.5027 16.5485 66.144 16.5863L66.9561 14.2181C67.0235 14.1846 67.4338 14.2254 67.4682 14.3229L68.2472 16.4845C68.1755 16.5354 67.8886 16.6256 67.8671 16.5587L67.715 16.0812H67.7164ZM67.5471 15.6518L67.2028 14.6475L66.8255 15.6373L67.5471 15.6533V15.6518Z" fill="white"/>
<path d="M73.6619 17.141C73.8584 17.8179 73.8771 18.3273 73.8785 19.0318C73.8785 19.4816 73.2731 19.7727 72.8943 19.7553C72.4553 19.7349 72.0206 19.3841 72.0407 18.8717C72.0651 18.2473 72.0794 17.7393 72.2803 17.125L72.4826 19.0435C72.4984 19.1876 72.7867 19.3783 72.9115 19.3914C73.0622 19.4074 73.4223 19.2211 73.4438 19.042L73.6619 17.141Z" fill="white"/>
<path d="M69.2878 15.6635C69.1974 15.6563 68.8961 15.617 68.8904 15.6752L68.8488 16.0886L68.8115 16.4568C68.8014 16.5515 68.5719 16.4787 68.4471 16.4044L68.437 14.1963L69.4126 14.1774C69.7942 14.1701 70.1514 14.5049 70.1729 14.8338C70.2059 15.3375 69.9534 15.7188 69.2892 15.665L69.2878 15.6635ZM69.6708 14.6723C69.4786 14.5704 69.0209 14.5384 68.8559 14.5573C68.8315 14.9081 68.8258 15.3171 68.9894 15.3069L69.6292 15.2647C69.7655 15.256 69.7928 14.7378 69.6708 14.6737V14.6723Z" fill="white"/>
<path d="M80.2785 18.678L80.191 19.6285C79.8237 19.5645 79.8653 19.2995 79.8237 18.9618C79.7778 18.5776 79.323 17.8876 79.1064 17.5266C79.0447 17.4247 79.3933 17.2282 79.4636 17.3432L80.0762 18.3505C80.3474 17.7959 80.2914 17.3388 80.9987 17.2588L80.2771 18.678H80.2785Z" fill="white"/>
<path d="M78.2299 17.5778L78.1439 19.5851L77.867 19.5734L77.801 17.6724C77.4538 17.6637 77.2357 17.6579 76.999 17.31L78.9702 17.2969C78.8784 17.6797 78.6689 17.7219 78.2299 17.5778Z" fill="white"/>
<path d="M74.4019 13.3055C73.7333 13.553 73.4134 13.5457 72.709 13.5224L72.8568 11.1265L73.092 11.1367L73.115 13.093L74.4019 13.3055Z" fill="white"/>
<path d="M66.0867 13.3244C65.4067 13.5224 65.1054 13.5282 64.4526 13.5369L64.5229 11.1265L64.7568 11.1367L64.85 13.0813L66.0867 13.3244Z" fill="white"/>
<path d="M76.8769 19.7496C76.1696 19.0625 76.7205 18.3667 76.5111 17.668L76.8095 17.2183L76.8769 19.7496Z" fill="white"/>
</g>
<defs>
<clipPath id="clip0_1456_3334">
<rect width="81" height="30" fill="white"/>
</clipPath>
</defs>
</svg>
